<?xml version="1.0" encoding="UTF-8" standalone="no"?>
<svg
   version="1.0"
   width="100px"
   height="100px"
   viewBox="0 0 600.000000 600.000000"
   preserveAspectRatio="xMidYMid meet"
   id="svg8"
   sodipodi:docname="aalogo.svg"
   inkscape:version="1.2.2 (b0a8486541, 2022-12-01)"
   inkscape:export-filename="aalogo.png"
   inkscape:export-xdpi="96"
   inkscape:export-ydpi="96"
   xmlns:inkscape="http://www.inkscape.org/namespaces/inkscape"
   xmlns:sodipodi="http://sodipodi.sourceforge.net/DTD/sodipodi-0.dtd"
   xmlns="http://www.w3.org/2000/svg"
   xmlns:svg="http://www.w3.org/2000/svg">
  <defs
     id="defs12" />
  <sodipodi:namedview
     id="namedview10"
     pagecolor="#ffffff"
     bordercolor="#000000"
     borderopacity="0.25"
     inkscape:showpageshadow="2"
     inkscape:pageopacity="0.0"
     inkscape:pagecheckerboard="0"
     inkscape:deskcolor="#d1d1d1"
     inkscape:document-units="pt"
     showgrid="false"
     inkscape:zoom="0.69977474"
     inkscape:cx="295.09496"
     inkscape:cy="294.38045"
     inkscape:window-width="1280"
     inkscape:window-height="651"
     inkscape:window-x="0"
     inkscape:window-y="0"
     inkscape:window-maximized="1"
     inkscape:current-layer="svg8" />
  <g
     transform="matrix(0.11114205,0,0,-0.11114205,-38.570524,641.86649)"
     fill="#000000"
     stroke="none"
     id="g6"
     style="opacity:1">
    <path
       d="m 2615,5583 c 93.854,-39.7663 204.6588,-31.3631 295,-37 V 4322 c -659.6987,-94.9932 -1002.0591,-633.6389 -1016,-1047 -755.4781,3.0213 -1149.75716,-65.5488 -1031,245 -433.19529,-484.8207 768.5472,-329.8036 1030,-340 23.5259,-603.915 579.0915,-1003.7756 1017,-1050 -9.5675,-171.8688 -11.3334,-384.7886 -9,-538 -127.922,-17.9012 -725.7829,269.4334 -842.8433,-47.1976 -43.4511,-6.2288 -154.7306,-0.076 -197.1567,7.1976 v -481 c 159.6655,-1.0636 319.3322,-1 479,-1 v 480 h -180 c 145.2164,146.4443 650.8114,-0.019 742,-94 11.7605,-174.42 8,-307.7399 8,-494 -162.3997,-59.88417 -198.7702,-249.26303 -99,-366 129.7765,-103.5011 269.0073,-68.9108 349,45 78.7943,202.88098 -47.9663,271.48388 -150,324 11.8534,151.6125 -14.6712,310.8919 3,461 646.7557,-217.7676 789.0592,-56.6346 854,30 29,3 132,4 154,0 22.4137,13.6025 -134.5565,422.966 -210,459 -14,0 -230,-418 -231,-447 0,-16 101,-18 176,-18 -140.4838,-118.2978 -626.4862,-8.6581 -742,93 -8,7 -10,574 -2,582 614.456,108.7769 952.2425,520.4823 1025,1035 313.9156,-4.9141 609.7076,27.6429 888,-3 -127.4931,-216.2546 91.9098,-302.3804 205.7346,-227.1297 113.8248,75.2508 122.0713,311.8781 -67.7346,321.1297 -298.6484,28.738 -698.8174,27.8307 -1029,29 -73.2936,542.5812 -513.4866,959.9109 -1024,1043 -12.5182,418.9322 -5,804.8979 -5,1225 103.8005,3.9477 206.5173,-15.2459 278,10 104.3011,85.3921 -741.5597,107.0728 -668,25 z M 3122,4196 C 3662.7503,4018.5165 4011.7648,3540.9822 3933.3344,3102.836 3854.9041,2664.6897 3413.9667,2261.2639 2960,2246 c -536.5677,11.0249 -966.7731,483.9137 -970,980 40.9387,594.388 533.2353,1075.8368 1132,970 z"
       id="path2"
       sodipodi:nodetypes="cccccccccccccccccccccccccccccscccccccsccc" />
    <path
       d="m 2901,3293 c -40.0394,-40.3488 -28.9946,-95.7785 -3,-123 39,-33.0193 79,-34.7046 116,-4 33.825,31.6886 34.0467,83.3135 1,119 -29,30 -83,33 -114,8 z"
       id="path4"
       sodipodi:nodetypes="ccccc" />
  </g>
</svg>
