<?xml version="1.0" encoding="UTF-8" standalone="no"?>
<!-- Created with Inkscape (http://www.inkscape.org/) -->

<svg
   width="210px"
   height="297px"
   viewBox="0 0 210 297"
   version="1.1"
   id="svg5"
   xml:space="preserve"
   inkscape:version="1.2.2 (b0a8486541, 2022-12-01)"
   sodipodi:docname="amika.svg"
   xmlns:inkscape="http://www.inkscape.org/namespaces/inkscape"
   xmlns:sodipodi="http://sodipodi.sourceforge.net/DTD/sodipodi-0.dtd"
   xmlns="http://www.w3.org/2000/svg"
   xmlns:svg="http://www.w3.org/2000/svg"><sodipodi:namedview
     id="namedview7"
     pagecolor="#ffffff"
     bordercolor="#000000"
     borderopacity="0.25"
     inkscape:showpageshadow="2"
     inkscape:pageopacity="0.0"
     inkscape:pagecheckerboard="0"
     inkscape:deskcolor="#d1d1d1"
     inkscape:document-units="mm"
     showgrid="false"
     inkscape:zoom="0.36388287"
     inkscape:cx="372.37257"
     inkscape:cy="585.3532"
     inkscape:window-width="1280"
     inkscape:window-height="651"
     inkscape:window-x="0"
     inkscape:window-y="0"
     inkscape:window-maximized="1"
     inkscape:current-layer="svg5" /><defs
     id="defs2" /><g
     inkscape:groupmode="layer"
     id="layer6"
     inkscape:label="Layer 3"
     style="display:inline;fill:#ffccaa"><path
       style="opacity:1;fill:#ffccaa;stroke-width:0.464272"
       d="m 102.04639,29.688643 c -0.47148,-0.0259 -0.94353,-0.04369 -1.41451,-0.07775 -0.47646,-0.03445 -0.909591,-0.317019 -1.396977,-0.339843 -0.7858,-0.03682 -1.526452,0.225377 -2.333734,0.100319 -0.638202,-0.09886 -1.222875,-0.398726 -1.886036,-0.309744 -0.863769,0.1159 -1.664135,0.776236 -2.555695,0.776236 -1.510384,0 -2.909741,-0.72294 -4.404112,-0.412571 -0.938777,0.194977 -1.834955,0.997452 -2.758844,1.33177 -0.537376,0.19445 -1.117987,0.0063 -1.682899,0.196879 -1.460974,0.492895 -2.630923,1.38876 -4.02289,1.970066 -0.724767,0.302672 -1.588117,0.230762 -2.298611,0.549258 -0.894253,0.400869 -1.605976,1.099498 -2.416495,1.6227 -1.899091,1.225888 -3.717548,2.46736 -5.40859,3.982765 -0.895603,0.802581 -1.600621,1.78694 -2.465398,2.61463 -1.327707,1.270761 -2.786166,2.388055 -4.022895,3.75453 -1.190403,1.315292 -2.1009,2.864244 -3.283022,4.178394 -1.344342,1.494487 -2.829799,2.895313 -3.987778,4.548328 -2.593443,3.702144 -4.381033,7.479202 -6.38672,11.490572 -1.662768,3.325538 -4.168297,6.217904 -5.240543,9.837771 -1.258367,4.248201 -1.502542,8.920924 -1.970063,13.306398 -0.194954,1.828708 -1.014502,3.416472 -1.014502,5.307003 0,3.73567 1.416106,7.536946 2.232151,11.155756 0.488183,2.16486 0.63436,4.41494 1.146177,6.5673 1.152658,4.84736 2.385436,9.80985 4.011606,14.51777 1.29927,3.76152 3.225795,7.44588 4.99601,11.00654 0.806445,1.62209 1.369042,3.34636 2.249711,4.93705 1.089429,1.96778 2.597202,3.66583 3.701865,5.62931 1.549034,2.75329 2.874992,5.75247 5.169063,8.0044 1.988943,1.95241 4.925765,2.93261 7.35984,4.23232 1.027191,0.54847 2.128387,1.08718 3.09116,1.73805 0.913504,0.6176 1.553631,1.46831 2.620886,1.84969 1.629463,0.5823 3.53641,0.35439 5.162796,0.97312 1.715263,0.65254 3.323746,1.51148 5.103861,2.03527 1.681436,0.49475 3.458128,0.65729 5.10386,1.28412 2.371705,0.90333 4.673808,2.22638 7.245728,2.52433 3.44482,0.39909 6.75153,-0.84157 10.18387,-0.7336 1.60456,0.0506 3.20958,0.55019 4.79288,0.78752 2.06823,0.31005 4.32493,0.48104 6.41679,0.47152 1.96781,-0.009 3.66558,-0.42598 5.58666,-0.71604 1.16266,-0.17557 2.35841,-0.11687 3.49247,-0.47778 1.32334,-0.42115 2.38918,-1.31632 3.71816,-1.75438 2.62186,-0.86418 5.55495,-1.68689 7.90908,-3.17642 1.40353,-0.88807 2.10245,-2.12773 3.06859,-3.41471 1.36451,-1.81764 2.98598,-3.64627 4.60853,-5.23428 2.61356,-2.55796 5.86905,-4.41624 8.17746,-7.29461 3.33421,-4.15749 6.00228,-12.80226 7.4313,-17.99769 0.27537,-1.00112 0.76387,-1.90551 1.03833,-2.90681 1.40363,-5.121 2.82614,-10.89834 2.53689,-16.24957 -0.20035,-3.70654 -0.82185,-7.32851 -1.51612,-10.96515 -0.47348,-2.480114 -1.41745,-4.834381 -1.86221,-7.337274 -1.11278,-6.262156 -1.76983,-12.601872 -3.53383,-18.725001 -0.48849,-1.695631 -0.74923,-3.490912 -1.402,-5.133948 -0.84755,-2.133341 -2.32827,-3.819462 -3.50498,-5.748425 -1.39518,-2.287107 -2.58115,-4.695891 -4.0881,-6.91215 -1.05308,-1.548779 -2.41896,-2.772034 -3.55766,-4.238581 -1.31705,-1.696286 -2.34644,-3.579435 -3.62286,-5.300742 -1.23592,-1.6667 -2.86294,-3.005787 -4.26241,-4.530769 -1.16452,-1.268991 -2.00311,-2.800378 -3.23536,-4.011607 -1.70943,-1.680257 -3.75863,-2.933153 -5.87382,-4.011606 -1.01058,-0.515246 -1.77624,-1.376831 -2.7626,-1.933699 -1.96641,-1.110168 -4.127,-1.553214 -6.25631,-2.179485 -3.23776,-0.952284 -6.35259,-1.040615 -9.66346,-1.462182 -2.2658,-0.288505 -8.45983,-1.432467 -10.51244,-0.555531 -0.54373,0.23229 -1.03414,0.573501 -1.55125,0.860255 z"
       id="path1681" /><path
       style="opacity:1;fill:#0000ff;stroke-width:0.464272"
       d="m 83.453067,88.660126 c -2.477718,4.423443 -3.78956,9.44975 -3.89874,14.493964 -0.02182,1.00951 -0.343441,2.06096 -0.279653,3.0736 0.04363,0.69207 0.335944,1.3895 0.393765,2.09547 0.144944,1.76955 -0.193971,4.12529 1.205109,5.55154 0.689954,0.70333 1.890979,3.43721 3.103701,3.26547 2.103271,-0.2979 2.836683,-4.30557 2.973283,-5.95785 0.63508,-7.68202 1.823677,-16.217556 -3.497465,-22.522194 z"
       id="path1809" /><path
       style="opacity:1;fill:#0000ff;stroke-width:0.464272"
       d="m 119.23651,90.427051 c -0.44561,0.505362 -0.91985,0.986842 -1.33678,1.516104 -0.38455,0.488126 -0.27606,1.590733 -0.46526,2.184503 -0.40372,1.267085 -1.16294,2.539843 -1.33052,3.868651 -0.32494,2.576841 -0.53941,5.110731 -0.71102,7.699691 -0.0873,1.3162 0.72449,5.55259 1.33679,6.82937 0.77735,1.62098 3.58426,3.10776 5.35465,2.32244 0.85261,-0.3782 1.33446,-1.62677 1.76064,-2.39392 1.60233,-2.88416 -1.51138,-12.821165 -1.86848,-16.290958 -0.0593,-0.576904 -0.63815,-5.707561 -1.31922,-5.765974 -0.47199,-0.04053 -0.94721,0.02 -1.4208,0.03001 z"
       id="path1811" /><path
       style="opacity:1;fill:#9e602a;fill-opacity:1;stroke-width:0.464272"
       d="m 72.240927,161.34118 c -0.359948,0.56306 -0.748241,1.10897 -1.079847,1.68917 -0.968453,1.6945 -1.780191,5.33622 -2.628663,7.40933 -1.938746,4.737 -4.559976,9.14586 -5.551971,14.23088 -0.576381,2.95455 -1.143382,10.27731 -3.927567,12.3442 -0.67137,0.49843 -1.599651,0.52337 -2.36487,0.78676 -0.42842,0.14738 -0.772376,0.5784 -1.173948,0.68956 -2.266939,0.62745 -4.260905,-0.51789 -6.49144,-0.58775 -0.904789,-0.0282 -7.081877,0.0789 -7.409313,-0.19744 -1.707737,-1.44211 -0.197366,-4.86573 0.146556,-6.53618 0.455001,-2.21001 1.402897,-4.31619 2.130387,-6.4467 0.68529,-2.00692 0.952024,-4.0766 1.460884,-6.12431 0.301123,-1.21173 0.884652,-2.33774 1.13847,-3.56196 0.299381,-1.44395 -0.0207,-2.98246 0.08024,-4.44279 0.275184,-3.98238 1.314985,-7.79406 1.16778,-11.81512 -0.101397,-2.76977 -1.312035,-3.32933 -1.740097,-5.52265 -0.316709,-1.62275 -0.818429,-3.20401 -0.970326,-4.85315 -0.08021,-0.87087 0.311731,-1.72798 0.132675,-2.6302 -0.130534,-0.65772 -0.666165,-1.12536 -0.902443,-1.75399 -0.34196,-0.9098 -0.969257,-4.56442 -1.124589,-5.66922 -0.322757,-2.29567 0.789078,-3.84967 0.822231,-5.68309 0.01562,-0.8639 -0.305509,-1.37526 -0.248365,-2.56386 0.05452,-1.13405 -2.004209,-1.55607 -1.909794,-2.84927 0.173191,-2.3722 0.629333,-4.79238 0.484393,-7.19642 -0.05833,-0.96739 -0.544768,-1.91827 -0.529126,-2.88628 0.05105,-3.16049 0.531813,-6.41991 0.396457,-9.5752 -0.201221,-4.69049 -0.59739,-9.474267 -0.556895,-14.17995 0.02717,-3.154357 0.636418,-7.367322 1.123045,-10.522361 0.10809,-0.700857 0.417916,-1.349564 0.564608,-2.042472 0.590159,-2.787668 0.698679,-5.509429 1.770952,-8.208393 0.548974,-1.381796 1.421193,-2.595116 1.9607,-3.973846 0.329703,-0.84258 0.311074,-1.774638 0.593917,-2.61324 1.231055,-3.64997 4.005885,-7.513921 6.446703,-10.45757 2.083286,-2.512465 4.871676,-4.448308 6.903324,-7.020562 2.047203,-2.591959 4.332413,-4.882238 6.579365,-7.298244 1.599093,-1.719396 2.973584,-3.607016 4.610962,-5.294348 1.187864,-1.224105 3.367826,-2.293464 4.868568,-3.136192 2.016706,-1.132457 4.182964,-1.310413 6.372662,-1.886649 2.661674,-0.700442 5.216836,-2.035486 7.981621,-2.350987 2.213196,-0.252558 4.032393,0.558469 6.153593,0.646366 2.347319,0.09726 4.830534,-0.91834 7.247344,-0.859253 2.54549,0.06223 5.58966,1.18838 8.20993,1.550358 1.75913,0.24301 3.58103,0.675102 5.34525,0.8068 2.35815,0.176033 4.43881,-0.0714 6.69661,0.808344 1.50941,0.58813 2.20442,1.686649 3.37068,2.232207 2.34532,1.097089 4.94041,1.582996 7.23963,2.812236 1.95806,1.04684 4.63477,2.566009 6.08108,4.274661 0.64068,0.75688 1.13569,1.582974 1.89438,2.246084 1.07587,0.940336 2.59981,1.60707 3.48019,2.747447 0.78015,1.01055 1.02074,2.306369 1.86504,3.267317 1.57209,1.789243 3.53328,3.451344 4.68504,5.573565 0.87313,1.608917 1.36149,3.474279 2.27539,5.066038 1.05141,1.831306 2.62686,3.055194 3.81186,4.759054 1.06029,1.524549 0.98638,3.614806 1.54881,5.315944 0.28448,0.860456 1.03141,1.524327 1.28503,2.36487 1.24887,4.139166 2.13053,8.409056 2.4528,12.719094 0.10918,1.4609 0.73813,2.888689 0.85153,4.354871 0.1574,2.034592 -0.0778,4.139409 0.25764,6.153588 0.27914,1.676922 1.11568,3.215306 1.37292,4.956513 0.34548,2.33819 -0.10687,4.82692 0.12494,7.20415 0.38043,3.90263 0.83882,7.78774 1.22641,11.68243 0.14615,1.46914 -0.1474,3.0048 -0.074,4.49372 0.064,1.29982 0.49776,2.68523 0.43349,3.97384 -0.095,1.90382 -0.246,3.76625 -0.25764,5.68309 -0.0105,1.75163 0.61173,3.5891 0.51526,5.38999 -0.0816,1.52248 -0.4191,3.40799 -0.85309,4.8609 -0.30687,1.02729 -0.99687,1.9337 -1.2912,2.96647 -0.10489,0.36821 0.12616,0.74056 0.0957,1.10917 -0.1041,1.25672 -0.30443,2.52133 -0.41962,3.79027 -0.11862,1.30703 -0.5335,2.57861 -0.77748,3.86123 -0.11105,0.58415 0.18054,1.13065 0.13107,1.7185 -0.15195,1.80852 -0.36034,3.59474 -0.55689,5.40542 -0.73884,6.80687 -1.10361,13.81552 0.10176,20.58965 0.25523,1.43416 1.01202,2.7352 1.30663,4.20833 0.19567,0.97833 0.42038,2.07753 0.92559,2.95262 0.70827,1.22675 4.97491,5.72151 1.98231,7.01902 -0.0402,0.0176 -5.26331,0.56346 -5.38228,0.5507 -0.65319,-0.07 -1.19383,-0.50474 -1.84963,-0.5507 -1.80633,-0.12668 -5.4372,1.64987 -7.05605,0.58003 -0.5613,-0.37095 -0.53475,-1.53971 -0.70498,-2.12114 -0.29992,-1.02433 -0.94742,-1.84329 -1.22642,-2.90789 -0.53786,-2.05237 -0.27083,-4.70087 -1.42538,-6.60249 -0.2123,-0.34965 -2.8071,-4.01959 -2.89246,-4.10497 -0.52043,-0.52041 -1.30127,-0.9153 -1.65989,-1.59356 -1.19199,-2.25441 -1.92744,-4.98506 -3.34753,-7.09307 -0.56194,-0.83415 -1.25142,-1.55412 -1.78484,-2.42347 -0.54301,-0.88502 -2.19254,-5.77313 -2.32785,-6.8725 -0.0232,-0.18817 -0.0379,-0.66642 0.13881,-0.79443 0.88854,-0.64387 2.02477,-0.86949 2.93718,-1.4316 1.36285,-0.83961 4.95105,-3.55548 5.00126,-5.2064 0.0389,-1.2818 -0.41997,-2.45017 -0.59548,-3.68538 -0.0941,-0.66291 0.26549,-1.30823 0.18359,-1.98384 -0.10525,-0.86886 -0.58617,-1.67334 -0.69727,-2.57005 -0.36049,-2.90905 -0.83336,-5.82274 -1.22641,-8.71591 -0.19669,-1.44774 0.76134,-2.25777 0.90399,-3.55426 0.17722,-1.61049 -0.51802,-3.04884 -0.4921,-4.62638 0.0312,-1.89941 0.70417,-3.78547 0.68956,-5.66149 -0.006,-0.91389 -0.37152,-1.757 -0.40416,-2.64409 -0.0589,-1.60049 0.55238,-3.1398 0.50751,-4.70661 -0.0775,-2.70929 -0.66076,-5.37607 -0.70498,-8.0927 -0.0123,-0.73516 0.29222,-1.44444 0.24992,-2.18128 -0.14108,-2.45802 -0.47251,-4.89834 -0.28693,-7.36459 0.2026,-2.69295 -0.44387,-6.367587 -0.91018,-9.024455 -0.3165,-1.803424 -0.32743,-3.597599 -0.80834,-5.383828 -0.26191,-0.972821 0.17983,-2.559045 -0.8068,-3.238 -3.91411,-2.693583 -3.44207,0.795663 -6.69662,2.159703 -0.65426,0.27421 -1.78849,-0.37804 -2.60705,-0.345561 -0.82631,0.03282 -1.4774,0.589486 -2.34328,0.499817 -1.0275,-0.106337 -2.03022,-0.725281 -3.06831,-0.866959 -0.90756,-0.123882 -1.88336,0.0193 -2.74591,-0.345557 -0.94046,-0.397763 -1.42651,-1.228505 -2.51914,-1.351354 -1.85333,-0.208356 -3.72564,-0.155995 -5.57357,-0.396463 -2.80817,-0.36544 -5.73458,-1.2756 -8.58325,-1.322049 -1.22182,-0.02 -2.39718,0.295391 -3.63602,0.177422 -1.08156,-0.103007 -2.0757,-0.612472 -3.12692,-0.800632 -2.23015,-0.3992 -4.296241,0.09301 -6.477549,0.02157 -2.062948,-0.06756 -4.152946,-0.454334 -6.23381,-0.132657 -2.697483,0.416976 -5.320273,1.84229 -7.944605,2.563871 -2.412226,0.663253 -12.691432,5.378615 -14.480787,4.347168 -1.897951,-1.09404 0.327023,-7.267723 -2.99581,-7.130082 -0.654007,0.02703 -1.172001,0.365423 -1.527217,0.924041 -0.593301,0.933007 -0.412374,2.405507 -0.617058,3.45243 -0.367077,1.877562 -1.078144,3.721641 -1.232567,5.646072 -0.174755,2.177746 0.480087,4.418218 0.212881,6.829283 -0.331444,2.9907 -1.017731,5.93578 -1.300445,8.93035 -0.236858,2.50881 0.145995,5.05617 0.06632,7.58518 -0.03793,1.20451 -0.396025,2.36486 -0.447365,3.56196 -0.03278,0.76465 0.18772,1.5182 0.160436,2.29082 -0.07756,2.19628 -0.28811,4.38803 -0.306986,6.58707 -0.04581,5.33921 0.496988,10.75099 0.851541,16.05274 0.203532,3.04358 0.283601,6.10052 0.447362,9.14942 0.08941,1.66442 1.455382,2.43143 2.099539,4.01702 0.334134,0.8225 2.59762,0.14179 3.642177,0.36716 0.667149,0.14389 0.645556,1.09369 0.903988,1.59356 0.504749,0.97628 2.073747,1.11076 2.841546,1.74782 0.711504,0.59032 0.787783,1.20249 1.351353,2.21677 z"
       id="path2069"
       sodipodi:nodetypes="cssssssccsssssssssssssssssssssssssssssssssssssssssssssccscscssscsssssscsssscssssssssssscssssssssccscssssssscsssscsssssscssssssssssssssscc" /><path
       style="opacity:1;fill:#b907ff;fill-opacity:1;stroke-width:0.464272"
       d="m 71.746634,159.85093 c -0.472702,0.5954 -0.696032,1.3066 -1.018613,1.98304 -0.357224,0.74909 -0.874759,1.48609 -1.111579,2.28604 -0.676496,2.28511 -0.896797,4.8935 -1.635933,7.07143 -0.125569,0.36998 -0.377151,0.67819 -0.512988,1.04403 -0.526941,1.4191 -0.870367,2.90573 -1.397163,4.32055 -0.662009,1.778 -1.398742,3.55404 -1.967667,5.3673 -0.183408,0.58453 -0.24463,1.1788 -0.369191,1.77639 -0.252198,1.20998 -0.710843,2.42272 -1.149032,3.5755 -0.431304,1.13469 -1.141329,2.15265 -1.502841,3.31737 -0.651739,2.09977 -0.964993,4.30084 -1.413218,6.44742 -0.257005,1.23085 -0.911839,2.4373 -0.805923,3.72798 0.02954,0.35963 0.170296,0.7019 0.232748,1.05674 0.06723,0.38204 0.05738,0.87666 0.24813,1.22596 0.57987,1.06178 1.940569,0.63163 2.852517,0.84673 0.494857,0.1167 0.885514,0.51036 1.356371,0.67817 0.476111,0.16969 1.083301,0.26303 1.579084,0.38524 0.550683,0.13583 1.087941,-0.13528 1.632588,0.004 0.752327,0.19142 1.425805,0.75191 2.152261,1.038 0.505802,0.19919 1.187818,0.18416 1.639948,0.48691 1.379483,0.92362 1.961928,1.67904 2.358921,3.33674 0.07589,0.3167 -0.03018,0.66527 0.117732,0.96443 0.214428,0.43386 1.137354,0.27791 1.528242,0.44879 0.372578,0.16284 0.556975,0.48872 0.846735,0.75443 0.467741,0.42889 1.2512,0.70262 1.861994,0.83736 1.169856,0.25804 2.420381,-0.0283 3.584877,-0.14652 2.089858,-0.2122 4.272605,-0.006 6.335055,-0.47756 0.950183,-0.21715 1.795594,-0.77846 2.734812,-1.0059 0.962821,-0.23314 3.319509,-0.56983 4.313881,-0.56983 1.251907,0 2.494381,0.18105 3.744048,0.20667 1.859326,0.038 3.70971,-0.085 5.57127,-0.006 1.93693,0.0823 3.86795,0.22943 5.80336,0.32438 0.83721,0.0412 1.66772,0.20239 2.50873,0.17247 1.70258,-0.0604 3.39853,-0.30983 5.1031,-0.32837 1.60566,-0.0176 3.21396,0.11862 4.81685,0.18792 1.33169,0.0576 2.66875,-0.0459 3.9982,-0.0989 0.83631,-0.0333 1.67756,0.0548 2.51545,0.0321 0.63044,-0.0176 1.26372,-0.1381 1.89408,-0.11104 2.11629,0.0911 4.10107,0.48594 6.23007,0.14317 0.89392,-0.14388 1.58733,-0.672 2.41979,-0.97779 0.30224,-0.11105 0.63219,-0.0488 0.93233,-0.18127 1.40241,-0.61871 1.46815,-5.3215 1.59512,-6.76512 0.0322,-0.36449 -0.0604,-0.83916 0.11776,-1.17845 0.26414,-0.50332 2.63581,-0.28792 3.27585,-0.52168 0.45131,-0.16477 0.86203,-0.47037 1.31156,-0.62401 0.424,-0.14495 0.87551,-0.23708 1.27009,-0.46483 0.71245,-0.41125 1.32627,-1.08814 2.08203,-1.41724 0.36094,-0.15721 0.76841,-0.13915 1.13702,-0.28624 1.11152,-0.44379 2.45628,-1.3052 3.11001,-2.33352 0.57642,-0.90674 1.51331,-2.59888 0.83134,-3.66178 -0.24707,-0.38508 -0.61681,-0.65059 -0.8601,-1.04738 -0.35761,-0.5832 -0.58554,-1.17746 -0.85009,-1.80514 -0.22076,-0.52387 -0.57384,-0.98759 -0.79254,-1.5122 -0.44521,-1.06802 -0.38527,-2.1615 -0.5063,-3.27254 -0.10282,-0.94443 -0.41117,-2.00064 -0.77983,-2.87526 -0.26145,-0.62025 -1.06956,-1.05731 -1.4547,-1.71284 -0.40936,-0.69686 -0.31792,-1.21212 -0.57919,-1.82723 -0.34314,-0.8078 -1.01555,-1.15146 -1.37575,-1.71283 -0.67106,-1.04586 -0.9423,-2.26249 -1.63929,-3.308 -0.3451,-0.51765 -0.73325,-1.10064 -1.15239,-1.55968 -0.47632,-0.5217 -1.1957,-0.92007 -1.58575,-1.51288 -0.57095,-0.86772 -0.78459,-1.86475 -1.15506,-2.80435 -0.10236,-0.25948 -0.26555,-0.4612 -0.34443,-0.73571 -0.22538,-0.78404 -0.26297,-1.97989 -1.00258,-2.5181 -1.87728,-1.36612 -1.68431,0.1765 -3.1896,0.84338 -0.96355,0.42686 -2.09977,0.48682 -3.10133,0.82131 -0.90193,0.30119 -1.64918,0.90733 -2.55956,1.19116 -1.62675,0.50718 -3.26732,0.43187 -4.9118,0.7832 -2.33367,0.49857 -4.56622,1.44299 -6.8989,1.91349 -2.26368,0.45658 -4.55795,0.74805 -6.87011,0.78587 -1.22685,0.0199 -2.46215,-0.14968 -3.68988,-0.15917 -0.68773,-0.006 -1.33794,0.16934 -2.0185,0.22606 -1.92061,0.16004 -3.96821,0.1753 -5.87023,-0.17197 -1.26908,-0.23166 -2.491918,-0.68697 -3.740705,-0.97379 -0.862016,-0.19798 -1.766596,-0.34385 -2.607078,-0.624 -0.94344,-0.31449 -1.862432,-0.71931 -2.817721,-1.00658 -0.744517,-0.22389 -1.521813,-0.33654 -2.266632,-0.55713 -1.023265,-0.30303 -1.873794,-1.10349 -2.903348,-1.40051 -1.284804,-0.37063 -2.534367,-0.81526 -3.807592,-1.21927 -0.703437,-0.22319 -1.455426,-0.36863 -2.142237,-0.63402 -0.684198,-0.26438 -1.304159,-0.70019 -1.980374,-0.9865 -1.419409,-0.60104 -2.786462,-1.12923 -4.129286,-1.89144 -0.522139,-0.29637 -2.067857,-0.56683 -2.397059,-0.86278 -0.270587,-0.24325 -0.519893,-0.5092 -0.779839,-0.76378 z"
       id="path3416" /><path
       style="opacity:1;fill:#ffffff;fill-opacity:1;stroke-width:0.464272"
       d="m 102.75111,190.44608 c 0.10339,1.37881 -0.81504,2.11427 -1.52491,3.12006 -0.4424,0.62686 -0.74419,1.37138 -1.257361,1.94894 -0.573588,0.64553 -1.172165,1.32553 -1.629915,2.0593 -0.441563,0.7078 -0.868979,1.39476 -1.324269,2.08537 -0.280419,0.42535 -0.506091,0.87848 -0.773828,1.31225 -0.275894,0.44697 -1.440389,1.53687 -0.551113,2.02116 0.242914,0.13231 0.504454,0.136 0.764462,0.048 0.221575,-0.0746 0.386062,0.17787 0.585891,0.0956 0.651686,-0.26818 1.137435,-1.28836 1.550324,-1.8185 0.378426,-0.48588 0.833046,-0.90608 1.174439,-1.42258 0.50724,-0.76739 0.9325,-1.59564 1.44533,-2.35625 0.54917,-0.81458 1.03616,-1.66991 1.58242,-2.48668 0.6672,-0.99759 1.88088,-2.0495 2.03723,-3.23775 0.0216,-0.16426 -0.72801,-0.31211 -0.84339,-0.34043 -0.11949,-0.0293 -0.20481,-0.1794 -0.2996,-0.24815 -0.36282,-0.26298 -0.42462,-0.33606 -0.93571,-0.78052 z"
       id="path10719" /><path
       style="opacity:1;fill:#ffffff;fill-opacity:1;stroke-width:0.464272"
       d="m 107.32919,173.77978 c -1.57891,0.60611 -3.47426,1.15723 -4.80747,2.3081 -0.62353,0.53822 -1.13729,1.1642 -1.71888,1.73825 -1.180118,1.16485 -2.324194,3.09037 -2.403738,4.81684 -0.02124,0.46178 0.153542,0.88717 0.210007,1.33696 0.04769,0.37968 -0.05593,0.78716 0.0897,1.15573 0.164938,0.4178 0.592409,1.03916 0.868783,1.39449 0.203881,0.26214 0.581888,0.44253 0.748418,0.71964 0.29364,0.48875 0.4587,1.21699 0.93901,1.5858 2.48848,1.91065 5.19844,2.97494 8.30875,2.10075 0.60359,-0.16968 1.23506,-0.60428 1.77371,-0.91964 0.42266,-0.24742 0.93343,-0.34793 1.343,-0.62132 0.96488,-0.6441 1.65324,-1.69167 2.34353,-2.59435 0.62423,-0.81631 1.52022,-1.45785 1.9416,-2.42918 0.20757,-0.47849 0.17441,-0.97224 0.28958,-1.46803 0.21406,-0.92171 0.54279,-2.33335 0.0863,-3.23441 -0.1309,-0.25828 -0.45118,-0.51136 -0.54109,-0.77049 -0.057,-0.16461 -0.0123,-0.3456 -0.0703,-0.50629 -0.29405,-0.82805 -0.87875,-1.2961 -1.48342,-1.9008 -0.29996,-0.29993 -0.26039,-0.88317 -0.60195,-1.19718 -0.28083,-0.25818 -1.04005,-0.84675 -1.41992,-0.91965 -0.38895,-0.0746 -0.84587,-0.10268 -1.2159,-0.2421 -0.537,-0.20231 -1.0598,-0.59781 -1.66804,-0.56046 -0.32555,0.0199 -0.65046,0.1913 -0.98718,0.20734 -0.22149,0.0105 -0.62724,-0.18716 -0.80859,-0.13108 -0.59726,0.18464 -0.20641,0.2133 -1.21592,0.13108 z"
       id="path10721" /><path
       style="opacity:1;fill:#0000ff;fill-opacity:1;stroke-width:0.464272"
       d="m 74.319587,211.38551 c -0.141487,0.19469 -0.674637,0.87003 -0.862783,1.24536 -0.499059,0.99552 -0.508296,2.17401 -0.850065,3.22504 -0.601227,1.84886 -1.229548,3.73223 -1.744288,5.60938 -0.479826,1.74985 -1.346049,3.44173 -2.130187,5.07502 -0.252921,0.52681 -1.303957,2.25088 -1.13633,2.79566 0.07175,0.23319 0.284795,0.30113 0.353139,0.53438 0.211153,0.72067 0.154925,1.15981 0.777167,1.72289 0.894744,0.80964 2.29859,0.34496 3.330056,0.42001 0.293572,0.0215 0.540742,0.17722 0.830676,0.20065 0.274664,0.0221 0.562185,-0.086 0.834017,-0.11511 1.233712,-0.13178 2.390386,-0.39725 3.606949,-0.60125 0.610793,-0.10246 1.219568,-0.0243 1.824535,-0.16917 0.399742,-0.0959 0.777634,-0.29885 1.187158,-0.35312 0.367424,-0.0486 0.756515,0.0123 1.126956,-0.0195 1.55774,-0.13688 3.159585,-0.47533 4.695799,-0.76714 1.732853,-0.32917 3.296463,-0.8835 5.090389,-1.18717 1.415336,-0.23953 2.869614,0.22731 4.269064,0.006 1.546275,-0.24449 2.28043,-0.87576 4.053059,-0.83066 1.944402,0.0494 3.678682,0.92403 5.529802,1.43596 1.6403,0.45364 3.487,0.55766 5.18604,0.64942 1.85586,0.10015 3.77028,-0.0431 5.60003,-0.35982 1.24649,-0.21577 2.51954,-0.51778 3.78819,-0.5665 2.08793,-0.0802 4.21656,0.14846 6.30027,0.26083 0.51377,0.0278 1.02156,-0.0564 1.53428,-0.0288 0.91648,0.0494 1.87383,0.23291 2.79233,0.17179 1.57736,-0.10478 3.22408,-0.50647 4.73657,-0.95175 0.99179,-0.29195 1.89511,-0.79939 2.90669,-1.03465 2.03687,-0.47369 5.01475,0.89407 6.65409,-0.49358 0.36433,-0.30839 -0.22465,-1.0243 -0.41064,-1.27678 -0.39566,-0.5371 -0.88061,-0.99824 -1.24803,-1.55703 -0.40143,-0.6105 -0.58212,-1.30654 -0.94904,-1.92284 -0.36536,-0.61364 -0.89421,-1.05002 -1.14568,-1.74162 -0.27782,-0.76392 0.11128,0.0722 -0.21671,-0.86278 -0.13967,-0.39816 -0.44476,-0.66138 -0.53506,-1.08214 -0.18332,-0.85427 0.0887,-0.12283 -0.0797,-0.82131 -0.15247,-0.63316 -0.51824,-1.18814 -0.72901,-1.79913 -0.29607,-0.85832 -0.51379,-1.73974 -0.81195,-2.59435 -0.43116,-1.23594 0.51406,-3.67075 -0.50563,-4.5754 -0.83823,-0.74368 -2.77403,0.49219 -3.57885,0.83134 -2.29364,0.96651 -4.66382,0.22767 -7.042,0.44211 -2.15128,0.19395 -4.30227,0.33498 -6.45278,0.54774 -1.37432,0.136 -2.77554,0.37555 -4.15807,0.38191 -2.83776,0.0123 -5.6883,-0.19289 -8.52208,-0.34713 -1.74415,-0.095 -3.50316,-0.0139 -5.24958,-0.0441 -3.233222,-0.0548 -6.482841,0.11897 -9.703242,0.42001 -2.17575,0.20335 -4.306883,0.45811 -6.498251,0.43005 -1.203914,-0.0158 -2.321332,-0.35335 -3.485897,-0.60192 -1.09334,-0.23339 -2.271064,-0.34649 -3.384223,-0.45213 -1.141764,-0.10827 -3.350562,-0.35119 -4.412213,0.0476 -0.424724,0.1595 -0.717234,0.63103 -1.165075,0.7036 -0.667652,0.10815 -1.346826,-0.28604 -2.018505,-0.20665"
       id="path10883" /><path
       style="opacity:1;fill:#ffccaa;fill-opacity:1;stroke-width:0.464272"
       d="m 59.745327,202.87077 c -0.310185,0.59234 -0.438617,1.18317 -0.493593,1.8339 -0.05971,0.70713 0.120867,1.28557 0.436074,1.89744 0.793552,1.54043 1.466597,1.91094 3.15817,1.7764 0.284394,-0.0227 0.71562,0.0199 0.967779,-0.13039 0.487775,-0.29103 0.798572,-0.86598 1.235314,-1.22594 0.397685,-0.32778 1.168921,-0.73512 1.244672,-1.32761 0.01297,-0.10167 -0.496158,-0.4752 -0.588563,-0.53505 -0.136008,-0.088 0.03486,-0.25316 -0.146467,-0.34979 -0.689839,-0.36762 -1.3552,-0.44161 -2.094745,-0.6307 -1.268754,-0.32441 -2.530548,-0.73678 -3.71864,-1.30821 z"
       id="path10887" /><path
       style="opacity:1;fill:#ffccaa;fill-opacity:1;stroke-width:0.464272"
       d="m 145.65658,201.95047 c 0.0176,0.38278 0.0105,0.78864 0.1913,1.13965 0.91413,1.77923 4.74137,2.71101 6.38923,1.55703 0.60331,-0.42249 1.38244,-1.77467 1.22261,-2.51809 -0.10075,-0.46811 -0.47657,-0.72382 -0.62737,-1.14035 -0.0784,-0.21655 -0.006,-0.74883 -0.29625,-0.8688 -0.43521,-0.17975 -1.94109,0.68976 -2.37166,0.87548 -1.01408,0.43739 -1.65558,0.62066 -2.72812,0.62066 -0.21291,0 -0.37346,0.0953 -0.54441,0.0447"
       id="path10889" /><path
       style="opacity:1;fill:#ffccaa;fill-opacity:1;stroke-width:0.464272"
       d="m 70.709293,231.62602 c -1.005861,4.39648 0.02799,8.9227 0.05753,13.36837 0.01738,2.60937 -0.05117,5.22891 0.193959,7.82252 0.03861,0.40848 0.241937,0.71614 0.372533,1.09553 0.325203,0.94472 0.547715,2.00587 0.6434,2.99564 0.309814,3.20463 -0.04869,6.48071 0.662141,9.65306 0.257595,1.1497 1.405405,2.73801 2.368281,3.41301 0.577874,0.40509 1.240107,0.49323 1.859325,0.79255 0.737832,0.35664 1.711352,0.75196 2.559572,0.59525 0.454778,-0.084 0.793704,-0.35133 1.199863,-0.53774 0.376,-0.17248 0.773189,-0.24366 1.130311,-0.4742 0.736009,-0.47511 1.372738,-1.23742 2.018493,-1.82789 1.214137,-1.11018 1.793751,-2.47076 2.673939,-3.82364 1.408189,-2.16437 2.377692,-4.52631 3.260504,-6.94368 0.328877,-0.90055 0.4236,-1.91334 0.687541,-2.83982 0.335769,-1.1786 0.964364,-2.51531 1.123626,-3.70258 0.204148,-1.52198 0.254033,-3.08504 0.420015,-4.61619 0.172317,-1.58975 0.496111,-3.14016 0.636716,-4.74059 0.100025,-1.13885 0.01578,-2.29063 0.104898,-3.4324 0.101072,-1.28621 0.597019,-2.52206 0.726345,-3.8009 0.113021,-1.11697 -0.358246,-3.11161 -0.541077,-4.29515 -0.05826,-0.37738 -0.03319,-0.70441 -0.175301,-1.05674 -0.02437,-0.0605 -0.495878,-0.23466 -0.493604,-0.24211 0.01578,-0.0504 0.10095,-0.23816 0.01578,-0.26084 -0.423252,-0.11315 -1.149063,0.41477 -1.569726,0.52836 -1.45125,0.39183 -2.896966,0.70072 -4.361363,1.0059 -0.980863,0.20443 -1.920313,0.0746 -2.903359,0.13371 -1.675889,0.10045 -3.363707,0.28978 -5.03621,0.44879 -1.284641,0.12213 -2.425756,0.85902 -3.696565,1.01594 -1.291071,0.1595 -2.645761,-0.20331 -3.938015,-0.27421 z"
       id="path10891" /><path
       style="opacity:1;fill:#ffccaa;fill-opacity:1;stroke-width:0.464272"
       d="m 118.10321,229.25772 c -0.19406,1.15502 -0.0912,2.32793 -0.12107,3.49257 -0.0217,0.84523 -0.14424,1.688 -0.12441,2.53416 0.0613,2.61809 0.66272,5.19973 0.61129,7.83189 -0.0275,1.40814 -0.27881,2.82023 -0.37588,4.22493 -0.0489,0.70749 0.0355,1.37277 0.0797,2.07266 0.0297,0.46983 -0.0939,0.93767 -0.10491,1.40722 -0.0176,0.7006 0.12563,1.35862 0.22938,2.04658 0.32402,2.14803 0.6132,4.31552 1.01863,6.44744 0.21535,1.13244 0.62839,2.25864 0.91093,3.38087 0.57618,2.28837 1.20299,4.11452 2.1516,6.26885 0.18458,0.41919 0.18141,0.88383 0.50296,1.24134 0.47949,0.53313 2.51705,1.5938 3.23173,1.76434 0.27931,0.0667 0.58836,0.0384 0.87548,0.0983 0.90582,0.18879 1.97948,0.53721 2.88395,0.2294 1.62109,-0.55163 2.33787,-3.01831 3.38758,-4.32056 0.67051,-0.83185 1.30599,-1.77493 2.06932,-2.52145 0.60719,-0.59381 1.32035,-1.12093 1.82388,-1.81452 0.63947,-0.88086 0.78573,-2.17444 1.26742,-3.14545 0.49478,-0.99742 0.90334,-1.98703 1.33028,-3.01503 0.36853,-0.88739 0.91916,-1.727 1.20052,-2.65523 0.27846,-0.91861 0.64931,-1.91307 0.83405,-2.85586 0.41083,-2.09693 0.49643,-4.26467 0.61128,-6.39259 0.0737,-1.36473 0.2065,-2.74298 0.16249,-4.11056 -0.0422,-1.31453 -0.27531,-2.60875 -0.31567,-3.9253 -0.0353,-1.14832 0.4284,-3.52064 0.12107,-4.49582 -0.0251,-0.0797 -0.20881,-0.16687 -0.26081,-0.25415 -0.30814,-0.51712 -0.49553,-1.21991 -0.51903,-1.80848 -0.0225,-0.56326 0.47756,-1.58943 0.0288,-2.08539 -0.41948,-0.46354 -0.98282,-0.33332 -1.53159,-0.40797 -2.07834,-0.28274 -4.00216,0.097 -6.00401,0.67817 -1.18959,0.34537 -2.29901,0.93459 -3.57215,0.97447 -0.32912,0.0105 -0.54547,-0.13212 -0.8367,-0.24546 -0.35379,-0.13774 -0.74181,-0.0686 -1.09887,-0.1906 -0.72293,-0.24693 -2.14999,-0.87075 -2.83648,-0.95508 -1.1186,-0.1374 -2.12752,0.10652 -3.24041,-0.22003"
       id="path10893" /><path
       style="opacity:1;fill:#d8da00;fill-opacity:1;stroke-width:0.464272"
       d="m 73.278905,258.76739 c 0.304532,-0.0585 0.606987,-0.12898 0.913608,-0.1753 0.804774,-0.12142 1.7133,0.0232 2.495367,0.0703 0.88135,0.0531 1.757744,-0.19055 2.645846,-0.16583 1.1382,0.0315 1.969293,0.0422 3.097306,-0.19062 0.840655,-0.17354 1.802291,-0.0202 2.664586,-0.11174 0.653391,-0.0692 1.304043,-0.19469 1.958294,-0.25481 0.527569,-0.0484 1.273142,0.16724 1.767026,0.007 0.82109,-0.26698 0.748938,-1.84026 0.264187,-2.33352 -0.290748,-0.29585 -1.034893,-0.58149 -1.432616,-0.70695 -0.586367,-0.18493 -3.311166,-0.0305 -4.002212,0.083 -0.378425,0.0621 -0.708809,0.26778 -1.098212,0.28021 -0.615934,0.0195 -1.017592,-0.55199 -1.623222,-0.57317 -1.888623,-0.0662 -3.744709,0.31138 -5.628795,0.28024 -1.351782,-0.0223 -2.962828,0.23487 -3.225044,1.76971 -0.179835,1.0526 0.411022,1.45115 1.203881,2.02183 z"
       id="path10960" /><path
       style="opacity:1;fill:#d8da00;fill-opacity:1;stroke-width:0.464272"
       d="m 73.252819,263.03982 c 0.865604,1.08852 1.850957,1.69295 3.072556,2.27334 0.173107,0.0822 0.371648,-0.0211 0.531712,0.0542 0.19115,0.0899 0.346202,0.31988 0.566489,0.34378 0.6837,0.0743 1.334191,-0.12178 2.018507,-0.11162 0.321833,0.006 0.628942,0.12037 0.967774,0.10233 0.853616,-0.0455 2.623463,-0.66152 3.380882,-1.04134 0.766819,-0.38452 2.616836,-2.25404 3.288596,-1.81451 1.091426,0.71415 0.165623,2.97364 -0.401296,3.77282 -1.200514,1.69232 -3.351107,2.14403 -5.182685,2.75087 -1.207372,0.4 -2.24759,1.6438 -3.606949,1.65532 -2.350006,0.0198 -3.695741,-1.99878 -4.304527,-4.0691 -0.130057,-0.44232 -0.403178,-0.90392 -0.423356,-1.36907 -0.03806,-0.87695 0.129604,-1.64727 0.09225,-2.54686 z"
       id="path27531" /><path
       style="opacity:1;fill:#d8da00;fill-opacity:1;stroke-width:0.464272"
       d="m 120.08024,257.65915 c 1.31966,0.76237 2.04161,-0.10409 3.30131,-0.51832 0.64599,-0.21247 1.52745,-0.0459 2.18704,0.0695 1.77089,0.30969 3.54138,-0.30719 5.30975,-0.43607 1.22867,-0.0895 2.4887,0.10167 3.71197,-0.0188 0.48143,-0.0473 4.71082,-0.53908 4.99206,-0.34713 0.0732,0.0499 -0.11809,3.27348 -0.18792,3.54944 -0.27229,1.07693 -2.55995,0.10768 -3.35214,0.0922 -1.57237,-0.0308 -3.05416,0.3317 -4.61286,0.37925 -1.40754,0.0429 -2.77661,-0.0199 -4.18347,-0.0922 -1.04934,-0.0538 -2.09896,0.2294 -3.15147,0.2294 -0.91286,0 -1.81819,-0.17195 -2.72544,-0.19797 -0.33861,-0.0105 -1.93592,0.39771 -2.09475,0.023 -0.0662,-0.15618 -0.089,-0.39184 -0.13371,-0.55113"
       id="path27535" /><path
       style="opacity:1;fill:#d8da00;fill-opacity:1;stroke-width:0.464272"
       d="m 121.41721,265.12184 c 0.0815,0.8055 0.0572,1.62889 0.24481,2.41646 0.20476,0.85989 0.70956,1.4285 1.17777,2.10478 0.22748,0.32858 0.36886,0.69981 0.62737,1.01259 0.53202,0.6437 2.05497,2.03306 2.9194,2.17433 0.27681,0.0454 0.58705,-0.0564 0.86947,-0.0447 1.03606,0.0428 1.83653,-0.0105 2.76289,-0.58255 0.80665,-0.49851 3.71902,-3.42325 4.26307,-4.28513 0.58409,-0.92536 0.92741,-1.97056 1.50886,-2.89734 0.38702,-0.61693 2.57152,-3.41354 2.4512,-4.07846 -0.0287,-0.1581 -0.26141,0.19851 -0.34712,0.33441 -0.25207,0.39973 -0.63752,0.75389 -1.00256,1.05072 -0.99136,0.80616 -2.45658,2.52329 -3.61029,2.82711 -1.65393,0.43554 -3.10046,1.50535 -4.74994,1.95496 -1.29758,0.35367 -2.67772,-0.27882 -3.93469,-0.53841 -0.5194,-0.10721 -1.5828,-0.12456 -1.97702,-0.34042 -0.3488,-0.19094 -1.05437,-0.97485 -1.20322,-1.10824 z"
       id="path27537" /></g><g
     inkscape:groupmode="layer"
     id="layer2"
     inkscape:label="Layer 2"
     style="display:inline;fill:#ff0000"><path
       style="opacity:1;fill:#000000;stroke-width:0.464272"
       id="path1464"
       d="m 41.679936,87.478702 c -0.311748,1.94145 -0.16054,3.926646 -0.234407,5.884296 -0.394078,10.443042 0.0424,-5.39141 -0.268984,6.996372 -0.473606,9.98806 0.377252,19.9526 1.238952,29.89331 0.615239,9.53105 2.341486,18.92173 4.002866,28.30953 1.4291,6.42815 3.199983,12.77394 5.052247,19.09102 0.186806,0.61916 0.368754,1.23979 0.56041,1.85743 0.02343,0.0756 0.799389,2.68458 0.971035,2.8054 3.241814,2.2817 2.876167,2.93385 3.236173,1.09832 -0.908657,-4.82259 -1.460135,-9.69126 -1.893645,-14.5765 -0.740675,-9.45777 -0.354555,-18.95085 0.209652,-28.40537 0.205054,-5.39343 0.976232,-10.77151 0.934076,-16.17397 -0.112545,-1.67027 -0.08722,-1.62007 -3.255684,-2.01977 -0.271005,-0.0343 -0.01421,0.54619 -0.01298,0.81934 0.0042,0.86295 0.05143,2.28021 0.07451,3.08284 0.373944,7.0287 1.180774,14.02613 2.193077,20.98866 1.127099,6.9973 2.646818,13.9246 4.398604,20.79006 0.464203,1.63692 0.888605,3.29209 1.484157,4.88858 0.02957,0.0794 0.401405,1.04645 0.547936,1.12942 1.053303,0.59654 2.173308,1.06676 3.259961,1.60015 0.06201,-0.2653 0.163578,-0.52439 0.18603,-0.79591 0.159241,-1.92533 -0.25113,-4.4811 -0.389162,-6.37438 -0.126814,-1.73928 -0.511179,-7.3287 -0.608658,-8.73897 -1.035388,-14.7101 -1.519084,-29.43967 -1.439516,-44.18395 0.14343,-7.66295 0.627597,-15.31931 1.551713,-22.928714 0.1768,-1.455791 1.486042,-10.210016 1.631332,-11.985609 0.133693,-1.633847 0.08585,-3.277484 0.128745,-4.916226 0.206322,-1.178583 0.412649,-2.357164 0.618972,-3.53573 0,0 -0.123954,-0.06589 -0.123954,-0.06589 v 0 c -0.206331,1.178601 -0.412665,2.357184 -0.618998,3.535765 -0.480295,1.407364 -1.077849,2.780001 -1.44089,4.222073 -0.894714,3.553907 -1.370991,8.375747 -1.732153,11.943638 -0.775577,7.661806 -1.272311,15.350943 -1.340364,23.053913 -0.157032,14.60399 0.221625,29.19845 0.651574,43.79584 0.104355,4.98274 0.453268,10.02661 0.02165,14.99473 0.940478,0.57858 1.858926,1.19461 2.821434,1.73576 0.143396,0.0806 -0.256984,-0.21192 -0.351069,-0.34686 -0.168104,-0.24113 -0.30263,-0.50511 -0.42822,-0.77088 -0.759091,-1.60632 -1.242478,-3.33025 -1.80796,-5.00772 -2.011786,-6.8682 -3.614687,-13.85368 -4.74887,-20.92206 -0.983296,-6.85648 -1.784443,-13.76292 -1.709436,-20.70186 0.03426,-1.24373 0.02939,-1.78876 0.124604,-2.95802 0.01922,-0.23614 0.261328,-0.55232 0.08113,-0.70616 -0.892537,-0.76198 -2.014184,-1.205 -3.022696,-1.80514 -0.236681,-0.1409 1.937282,1.13807 0.372007,0.73778 0.663813,5.47657 -0.117601,11.01537 -0.216745,16.50179 -0.398635,9.44217 -0.829747,18.89947 -0.391526,28.34895 0.298114,4.73289 0.66886,9.45749 1.148857,14.17495 0.901708,0.86619 0.856901,0.84261 2.991578,1.89132 0.179516,0.0883 -0.225473,-0.33168 -0.316493,-0.50976 -0.700485,-1.37063 -1.135508,-2.86295 -1.666775,-4.30037 -2.0928,-6.3716 -3.929038,-12.82331 -5.585371,-19.32197 -0.401443,-1.46773 -0.842162,-2.92528 -1.204332,-4.40322 -1.95025,-7.95851 -2.813676,-16.13326 -3.603472,-24.27143 -0.87188,-9.96694 -1.540366,-19.95805 -1.426059,-29.97017 0.115899,-4.280384 0.155346,-8.558396 0.572412,-12.823063 0,0 -1.227267,-0.651566 -1.227267,-0.651566 z" /><path
       style="opacity:1;fill:#000000;stroke-width:0.464272"
       id="path1466"
       d="m 163.14263,80.832697 c 0.81479,4.567649 1.47997,9.161023 2.14819,13.752007 0.59479,5.122099 1.30407,10.249706 1.57622,15.403456 0.14265,2.70227 0.16212,5.4098 0.27943,8.11328 0.0823,4.84838 0.29797,9.73601 -0.12073,14.57761 -0.0369,0.42558 -0.80743,6.16952 -0.85935,6.55909 -0.63906,6.15899 -1.65306,12.26848 -2.75832,18.35809 -0.75427,4.14634 -1.6188,8.26996 -2.66171,12.35329 -0.71627,2.01106 -0.90524,4.42168 -2.28774,6.12901 -0.0179,-0.12335 -0.45234,0.70981 -0.48827,0.58762 -0.0243,-0.0823 -0.0629,-0.29384 0.014,-0.25654 3.17557,1.53554 3.89656,2.97072 3.04313,1.45537 -1.18525,-2.73766 -1.6924,-5.71832 -2.24216,-8.63349 -0.8956,-5.53209 -1.23148,-11.1374 -1.56296,-16.72609 -0.2739,-5.82756 -0.65637,-11.64917 -0.98526,-17.47373 -0.14055,-2.55771 -0.25172,-5.11674 -0.40301,-7.67374 0.6198,-1.18528 0.54116,-0.95938 -3.5068,-1.37059 -0.30664,-0.0312 0.0515,0.61447 0.0671,0.92232 0.0227,0.44319 0.0383,0.88677 0.0477,1.33043 0.0384,1.81511 0.0123,2.1092 -0.0203,4.04819 -0.19576,5.26106 -0.92585,10.47946 -1.82145,15.6609 -0.83636,4.54018 -1.80382,9.05443 -2.77258,13.5677 -0.58259,2.62936 -0.87449,5.31848 -1.64217,7.90415 -0.0949,-0.13793 -0.39822,1.47299 -0.55018,1.29301 -0.07,-0.0829 -0.0494,-0.3634 0.0506,-0.32126 1.13773,0.47998 2.08222,1.41772 3.27812,1.72544 0.30228,0.0778 -0.10583,-0.61522 -0.15883,-0.92284 -0.35852,-5.84911 -0.23964,-11.72893 -0.21063,-17.58838 0.16337,-9.69788 0.13318,-19.39616 0.11844,-29.0949 0.0104,-8.74067 -0.36595,-17.47514 -0.94315,-26.194885 -0.21629,-3.442171 -0.74524,-6.852014 -1.39627,-10.235378 -0.17784,-0.924269 -0.24786,-1.881037 -0.56919,-2.765718 -0.19051,-0.524577 -2.06935,-3.916223 -2.50741,-4.714905 0,0 -0.12722,-0.05948 -0.12722,-0.05948 v 0 c 0.18148,2.125645 0.2291,1.000372 -0.26736,3.368222 0.0314,0.93506 0.36623,1.834973 0.55016,2.752311 0.68399,3.411581 1.37007,6.828242 1.62438,10.306626 0.64978,8.734477 1.0223,17.491597 1.09606,26.250367 0.0624,9.67232 0.14319,19.34873 -0.2599,29.01576 -0.16985,5.74971 -0.41159,11.4972 -0.54856,17.24767 0.006,0.3048 -0.20364,0.70034 0.014,0.91435 3.31207,3.26588 3.45274,3.46445 4.19704,0.865 0.64551,-2.65153 0.86188,-5.38102 1.41921,-8.05132 0.86634,-4.56153 1.75492,-9.11914 2.5651,-13.69108 0.85116,-5.18848 1.68502,-10.3895 1.93387,-15.64949 0.12336,-1.75024 0.21966,-3.49311 0.28107,-5.24616 0.0105,-0.29058 0.25677,-0.68471 0.034,-0.87161 -2.67272,-2.24269 -4.96216,-1.90458 -3.47298,-2.11093 0.61845,2.56736 0.51237,5.26536 0.86615,7.86964 0.47003,5.8281 0.8431,11.66208 1.05826,17.50569 0.2949,5.56285 0.63684,11.13311 1.34113,16.66101 0.46215,2.87098 0.89891,5.77461 1.81431,8.54336 0.69559,1.78601 4.056,4.25098 4.3184,1.68145 0.194,-2.24305 1.25966,-4.32455 1.62676,-6.5412 0.96611,-4.1331 1.77527,-8.29991 2.44409,-12.49179 1.01608,-6.13705 1.92114,-12.29289 2.56819,-18.4811 0.35153,-6.23738 0.0937,-0.64983 0.21735,-6.90459 0.0967,-4.88915 0.33821,-9.78305 -0.0253,-14.67 -0.54835,-7.72039 0.0401,-0.40832 -0.81447,-8.38516 -0.54817,-5.11733 -0.8111,-10.2645 -1.49461,-15.368292 -0.5346,-4.489312 -1.15674,-8.968858 -1.58039,-13.47065 0,0 -1.53268,-0.757097 -1.53268,-0.757097 z" /><path
       style="opacity:1;fill:#000000;stroke-width:0.464272"
       id="path1472"
       d="m 67.252056,61.541003 c -0.557734,2.281118 -0.907392,4.601788 -1.126765,6.937463 -0.214864,3.600961 -0.239087,7.197395 -0.120691,10.801856 0.153839,2.224296 -4.62e-4,4.476967 0.315358,6.688398 0.439192,1.945241 2.846244,3.167446 4.739235,2.651784 1.825041,-0.725511 3.667388,-1.401591 5.51657,-2.063685 2.402791,-0.94315 4.833408,-1.79895 7.309826,-2.526724 1.882148,-0.529666 3.791822,-0.953345 5.713737,-1.309396 1.867772,-0.360511 3.763972,-0.522313 5.649161,-0.759431 2.134776,-0.366754 4.289092,-0.505555 6.450983,-0.55195 2.18774,-0.176262 4.34141,0.110018 6.50349,0.393481 2.28878,0.260648 4.52722,0.809581 6.79184,1.209396 2.04778,0.41201 4.12587,0.425574 6.20374,0.416519 1.35985,-0.02176 2.71787,0.0053 4.06642,0.187669 0.94608,0.135816 1.85958,0.414853 2.75632,0.737127 1.09749,0.41845 2.17048,0.896877 3.2602,1.334892 0.92425,0.355983 1.82862,0.759606 2.73794,1.151192 0.85829,0.37674 1.74966,0.651039 2.66888,0.827547 0.68916,0.09545 1.38666,0.15775 2.08288,0.159505 0.43683,-0.04036 0.88047,-0.112303 1.29548,-0.257963 0.79198,-1.027008 0.79783,-2.836854 1.01946,-4.086748 0.63232,-3.405054 1.45332,-6.770396 2.14396,-10.163622 0.3279,-2.424122 1.0681,-4.750455 1.69624,-7.103953 0.34466,-1.57978 -0.0921,-1.854643 -1.22793,-2.925654 0,0 -0.2106,-0.117496 -0.2106,-0.117496 v 0 c -1.39457,-0.33701 -1.99271,-0.58021 -2.35786,0.994077 -0.52023,2.403454 -1.20478,4.772914 -1.52745,7.216927 -0.61698,3.399718 -1.42611,6.75413 -2.23851,10.111542 -0.14477,0.67308 -0.44619,3.110136 -0.97542,3.565857 -0.39092,0.09879 -0.78883,0.173017 -1.19421,0.158979 -0.67322,-0.02193 -1.34752,-0.07247 -2.00842,-0.208603 -0.90542,-0.207637 -1.77696,-0.523716 -2.62425,-0.9043 -0.89465,-0.386181 -1.79449,-0.759604 -2.7032,-1.111692 -1.10121,-0.451 -2.18608,-0.943904 -3.30796,-1.342613 -0.91251,-0.301603 -1.84191,-0.554232 -2.80143,-0.651532 -1.33499,-0.127216 -2.67431,-0.123356 -4.01408,-0.08266 -1.99573,0.02843 -4.00279,-0.007 -5.97512,-0.344172 -2.26665,-0.412888 -4.51522,-0.937166 -6.80835,-1.19327 -2.05004,-0.230201 -4.10722,-0.09178 -6.166785,-0.07632 -2.16432,0.06773 -4.315865,0.268211 -6.458194,0.588256 -1.90053,0.220798 -3.807233,0.405378 -5.688998,0.761535 -1.907898,0.37597 -3.800768,0.82967 -5.664061,1.387922 -2.470477,0.753094 -4.895419,1.631021 -7.309722,2.547147 -1.874267,0.649374 -3.734322,1.347878 -5.62887,1.932606 -0.174963,0.02826 -0.348877,0.06387 -0.524881,0.08459 -0.110283,0.01228 -0.42279,-0.04878 -0.332764,0.0158 4.751107,3.431445 2.262112,1.776347 1.830107,0.653496 -0.522405,-2.213082 -0.36406,-4.522483 -0.580589,-6.773626 -0.188921,-3.657224 -0.577243,-7.324786 -0.310405,-10.983032 0.251602,-2.28479 0.58443,-4.578815 1.353242,-6.75601 0,0 -2.217561,-1.221575 -2.217561,-1.221575 z" /><path
       style="opacity:1;fill:#000000;stroke-width:0.464272"
       id="path1474"
       d="m 81.761941,85.617282 c -0.16561,-4.128054 -0.229431,-8.259195 -0.155851,-12.389865 0.06962,-1.935324 0.340724,-3.814115 -0.208163,-5.703389 -0.652427,-2.245684 -0.468656,-0.498777 -0.565352,-2.105962 0,0 -0.1243,-0.06522 -0.1243,-0.06522 v 0 c -0.560607,1.652747 0.296084,-0.571001 -0.911752,1.343526 -0.99379,1.575244 -0.467368,3.546197 -0.631157,5.282667 -0.05443,4.112626 0.02204,8.220079 0.04803,12.331288 0,0 2.54856,1.306958 2.54856,1.306958 z" /><path
       style="opacity:1;fill:#000000;stroke-width:0.464272"
       id="path1476"
       d="M 96.317204,82.992384 C 96.015271,78.71472 95.952052,74.431337 95.90725,70.144247 c -0.132133,-2.425802 0.213373,-4.839354 0.301887,-7.25548 0.01996,-0.54801 0.09771,-1.110517 -0.02507,-1.644946 -0.123709,-0.537924 -0.465651,-1.000915 -0.698484,-1.501377 0,0 -0.12423,-0.06549 -0.12423,-0.06549 v 0 c -0.333578,0.204772 -0.788263,0.285596 -1.000766,0.614315 -0.27196,0.420733 -0.279629,0.966402 -0.342384,1.463442 -0.30648,2.427407 -0.03389,4.913932 -0.160551,7.347806 0.04085,4.328042 0.04294,8.712707 0.633189,13.000986 0,0 1.826322,0.888893 1.826322,0.888893 z" /><path
       style="opacity:1;fill:#000000;stroke-width:0.464272"
       id="path1478"
       d="m 110.9023,81.888817 c 0.43222,-2.991307 0.37042,-6.057205 0.46039,-9.078938 0.0424,-2.039803 0.1121,-4.078483 0.19531,-6.11693 0.0491,-1.202818 0.19743,-1.833635 -0.22357,-2.981194 -0.15441,-0.420686 -0.43987,-0.780833 -0.65981,-1.171248 0,0 -0.12459,-0.06457 -0.12459,-0.06457 v 0 c -0.25587,0.143431 -0.57749,0.206908 -0.76761,0.430296 -0.62163,0.730524 -0.53437,1.712893 -0.56908,2.582997 -0.0815,2.045691 -0.0319,4.096108 -0.14547,6.141066 -0.12457,3.018701 -0.35383,6.031432 -0.46716,9.047584 0,0 2.30168,1.21094 2.30168,1.21094 z" /><path
       style="opacity:1;fill:#000000;stroke-width:0.464272"
       id="path1480"
       d="m 129.01598,84.833094 c 0.0611,-0.274088 0.14512,-0.544052 0.18324,-0.822231 0.14212,-1.035096 0.17529,-2.08232 0.27998,-3.121839 0.19158,-1.90211 0.44605,-3.77846 0.55958,-5.687588 -0.82913,-2.338423 -0.60429,-1.254844 -0.83898,-3.212228 0,0 -0.12478,-0.06449 -0.12478,-0.06449 v 0 c -0.42626,1.507455 -0.0451,0.78209 -1.29563,2.089025 -0.63083,3.125542 -1.03314,6.330838 -1.26199,9.505863 0,0 2.49851,1.313485 2.49851,1.313485 z" /><path
       style="opacity:1;fill:#000000;stroke-width:0.464272"
       id="path1482"
       d="m 41.153516,89.290986 c 0.259353,0.693013 0.706958,1.500135 0.314438,2.22047 -0.01126,0.04001 -0.07096,0.102127 -0.03351,0.120024 0.637134,0.306901 1.272033,0.651074 1.961466,0.808598 0.368337,0.08429 0.276712,-2.084515 0.271805,-2.191693 -0.140677,-2.971301 0.287374,-5.938655 0.614339,-8.887269 0.561045,-4.468981 2.069247,-8.702033 3.843685,-12.812908 1.69673,-3.89525 4.125201,-7.378917 6.602199,-10.804882 2.571544,-3.42866 5.222445,-6.800346 7.945342,-10.110147 2.908244,-3.397721 6.115212,-6.525008 9.491433,-9.452824 2.848033,-2.476666 6.047024,-4.414542 9.5251,-5.851439 2.89142,-1.125895 5.917396,-1.721428 9.000139,-1.951988 2.844541,-0.165963 5.661926,0.286501 8.500745,0.395847 2.684113,0.08204 5.363503,0.26255 8.045943,0.382466 2.99067,0.0019 5.95353,0.338417 8.89657,0.841326 3.06697,0.446274 5.97198,1.442829 8.82982,2.602321 3.1058,1.25413 6.184,2.557881 9.18684,4.042833 -0.99394,-0.603499 3.80304,2.058068 2.84896,1.549721 -0.59101,-0.31489 -1.10936,-0.799946 -1.755,-0.977729 -0.49854,-0.137291 0.87391,0.553845 1.29674,0.851542 0.93115,0.655593 1.31335,1.016494 2.17987,1.755607 2.33277,1.92138 4.39997,4.119357 6.34928,6.420297 1.66595,1.945917 3.1513,4.0284 4.523,6.188775 1.06795,1.879765 2.40153,3.579571 3.7027,5.29848 1.15321,1.439475 2.35155,2.829257 3.36406,4.374006 1.11673,1.833345 2.07628,3.757053 3.02195,5.682456 1.25166,2.561093 1.91312,5.34551 2.93713,7.994451 0.30405,0.509785 0.60807,1.019568 0.91212,1.529352 0.49936,0.584834 1.09794,1.097776 1.49809,1.754502 0.17636,0.289443 0.12038,0.667112 0.18068,1.000651 0,0 0.12616,0.06159 0.12616,0.06159 v 0 c -0.0538,-0.330819 -0.30299,-0.688748 -0.16127,-0.992457 1.39077,-2.979532 0.70494,1.830937 1.00355,-1.678417 -0.68939,-2.686544 -1.51186,-5.360822 -2.61607,-7.907255 -0.91623,-1.938466 -1.8825,-3.857048 -2.96175,-5.71049 -0.9726,-1.57871 -2.13869,-2.99213 -3.33831,-4.402859 -1.32136,-1.72118 -2.70996,-3.400502 -3.78411,-5.294473 -1.39102,-2.179021 -2.88167,-4.291765 -4.55677,-6.264221 -1.94466,-2.327039 -4.00679,-4.549989 -6.33765,-6.500508 -3.48083,-2.722256 -7.2788,-4.983142 -11.22785,-6.965078 -3.01811,-1.471752 -6.10678,-2.776279 -9.21933,-4.035176 -2.87936,-1.155212 -5.81134,-2.112823 -8.89561,-2.554138 -2.96299,-0.489279 -5.94568,-0.793634 -8.95151,-0.82733 -2.68461,-0.124498 -5.366421,-0.305083 -8.053032,-0.384995 -2.646659,-0.107951 -5.280611,-0.03464 -7.927513,0.06761 -3.086108,0.265462 -6.107746,0.925011 -8.996623,2.065938 -3.474816,1.481774 -6.658559,3.459664 -9.484442,5.983897 -3.377431,2.944049 -6.550096,6.11722 -9.473814,9.514815 -2.772308,3.280537 -5.404499,6.675947 -7.994052,10.102141 -2.50872,3.428772 -4.890839,6.966155 -6.605142,10.872412 -1.802802,4.126605 -3.238143,8.39341 -3.915467,12.862531 -0.422406,2.986656 -0.534355,5.965344 -0.525363,8.980443 0.0089,0.62414 0.02668,1.244665 0.04591,1.867647 0.0034,0.110017 -0.09267,0.25884 -0.0089,0.330293 0.533088,0.454546 1.155041,0.794454 1.754035,1.157746 0.06351,0.0386 -0.09076,-0.117742 -0.136132,-0.176486 -0.497268,-0.782098 -0.656579,-1.692224 -0.974094,-2.553217 0,0 -0.840806,-0.392884 -0.840806,-0.392884 z" /><path
       style="opacity:1;fill:#000000;stroke-width:0.464272"
       id="path1486"
       d="m 63.241418,154.53891 c 1.217749,0.90762 2.366367,1.89364 3.615839,2.75856 3.050336,1.95815 6.189907,3.77946 9.414775,5.43468 2.593116,1.38986 5.366294,2.33464 8.151803,3.24528 2.549186,0.84024 5.104312,1.66232 7.639028,2.54555 2.420894,0.99503 4.831946,1.99474 7.33054,2.77993 2.494757,0.81451 5.095257,1.03011 7.697487,1.16125 2.45911,0.13125 4.92069,0.12459 7.38189,0.0843 2.49367,-0.0181 4.98377,-0.14987 7.473,-0.28763 1.93397,-0.0907 3.82933,-0.49932 5.72379,-0.86884 1.86874,-0.30299 3.64449,-0.94555 5.41183,-1.59971 2.1015,-0.72166 4.0243,-1.8266 5.87125,-3.04338 1.53769,-1.03634 2.97799,-2.20552 4.48202,-3.28839 1.19597,-0.86951 2.47167,-1.61524 3.75353,-2.34823 0.92152,-0.62344 2.84264,-1.40469 2.63421,-2.81028 -0.062,-0.41825 -0.31057,-0.78655 -0.46586,-1.17981 -0.0809,-0.3071 -0.16179,-0.61421 -0.24274,-0.92131 0,0 -0.17565,-0.0993 -0.17565,-0.0993 v 0 c -0.27023,0.10167 -0.54047,0.20308 -0.81069,0.30465 -0.42662,0.0372 -0.86248,0.0158 -1.27983,0.11162 -1.33473,0.30657 -2.09682,1.71077 -3.37171,2.18238 -1.28973,0.74307 -2.56395,1.51533 -3.76247,2.40078 -1.47392,1.09787 -2.88549,2.28018 -4.41345,3.3044 -1.8364,1.18951 -3.75348,2.2266 -5.82251,2.95972 -1.74948,0.65352 -3.52958,1.20812 -5.36968,1.54731 -1.85086,0.39602 -3.7126,0.75479 -5.60486,0.88159 -2.46869,0.18996 -4.94229,0.29468 -7.41865,0.30028 -2.45022,0.0324 -4.90122,0.039 -7.34911,-0.0952 -2.58373,-0.14194 -5.156853,-0.40762 -7.625381,-1.24009 -2.422215,-0.78191 -4.760071,-1.77125 -7.147268,-2.64939 -2.44439,-0.83044 -4.911375,-1.59639 -7.385193,-2.33394 -2.663067,-0.77724 -5.284764,-1.69935 -7.744112,-2.99959 -0.617814,-0.32144 -4.692623,-2.62183 -0.925875,-0.422 0.539152,0.31488 -1.057828,-0.59653 -2.243308,-1.32934 -0.325291,-0.20109 -0.646078,-0.40938 -0.969118,-0.61408 -1.387483,-0.92503 -2.717371,-1.92469 -4.048676,-2.92693 0,0 -2.404851,-0.94474 -2.404851,-0.94474 z" /><path
       style="opacity:1;fill:#000000;stroke-width:0.464272"
       id="path1490"
       d="m 70.508751,160.16452 c -0.887703,1.78447 -1.574065,3.66244 -2.228402,5.54327 -0.97481,2.65903 -2.013719,5.2945 -2.978421,7.9572 -1.000901,2.72163 -1.860318,5.48989 -2.681679,8.26981 -0.697067,2.28381 -1.404386,4.56427 -2.095399,6.84995 -0.58885,1.86767 -1.236023,3.71568 -1.792817,5.59345 -0.484513,1.59769 -0.791686,3.24056 -1.01897,4.89228 -0.303563,0.98231 -0.274839,1.93225 0.121131,2.87471 1.611734,1.92228 3.786602,2.11881 5.894603,2.81083 1.275803,0.54808 2.593884,0.97207 3.926002,1.3577 1.010795,0.36049 2.060351,0.43534 3.11997,0.48599 0.635947,0.0158 1.243517,0.15618 1.818974,0.42166 0.13623,0.0311 0.699527,0.49946 0.289295,0.084 0,0 -2.261291,-1.80136 -2.261291,-1.80136 v 0 c -0.266382,-0.2014 -0.510483,-0.39292 -0.833978,-0.48736 -0.595588,-0.19651 -1.211946,-0.28395 -1.839559,-0.29066 -1.031237,-0.0466 -2.042998,-0.19086 -3.027125,-0.51912 -1.331778,-0.38902 -2.63273,-0.85703 -3.923374,-1.36537 -0.572049,-0.17285 -1.160356,-0.29637 -1.729248,-0.47716 -0.155714,-0.0494 -0.596414,-0.26024 -0.459141,-0.17161 0.720951,0.46543 3.710871,2.22168 2.212333,1.31647 -0.877155,-0.76303 -0.787227,-1.84037 -0.82371,-2.93423 0.176852,-1.65075 0.47769,-3.28291 0.953144,-4.87587 0.547009,-1.8834 1.182147,-3.73848 1.750133,-5.61549 0.674218,-2.2963 1.385692,-4.58153 2.032261,-6.88589 0.807038,-2.78137 1.665796,-5.54681 2.651017,-8.27112 0.912044,-2.69741 1.74904,-5.42036 2.720407,-8.09807 0.686887,-1.87012 1.305219,-3.76386 2.069554,-5.60373 0,0 -1.865705,-1.06025 -1.865705,-1.06025 z" /><path
       style="opacity:1;fill:#000000;stroke-width:0.464272"
       id="path1492"
       d="m 139.66623,163.97165 c 0.77504,1.79893 1.68144,3.53395 2.54919,5.28856 1.03725,2.00951 2.2529,3.9176 3.4815,5.81329 0.97019,1.4802 1.83434,3.02256 2.6171,4.60866 0.75018,1.508 1.37061,3.07219 1.95358,4.6506 0.45721,1.25214 0.88306,2.51532 1.29336,3.78349 0.28639,0.89136 0.56212,1.78613 0.86091,2.67344 0.27003,0.82761 0.55724,1.64953 0.82905,2.47653 0.20897,0.70158 0.45831,1.43491 0.20559,2.15086 -0.60493,0.90046 -1.52202,1.41161 -2.39326,2.01218 -1.12865,0.89439 -2.4158,1.54905 -3.71998,2.14411 -0.99318,0.44191 -2.04731,0.66827 -3.12615,0.74589 -0.65935,0.006 -1.3199,0.009 -1.97929,-0.006 -0.38257,-0.009 -0.77131,0.014 -1.14399,0.10514 -0.179,0.0425 -0.20068,0.0469 -0.24716,-0.13475 1.21726,0.70057 2.41525,1.43578 3.65183,2.1017 0.23417,0.12617 -0.31104,-0.43238 -0.44714,-0.66093 -0.94463,-1.91258 -1.75643,-3.89228 -2.514,-5.88577 -0.7319,-2.08518 -1.39617,-4.19382 -2.05808,-6.30212 -0.43218,-1.40335 -0.75555,-2.8056 -1.72105,-3.95751 -2.58269,-3.08132 -0.23528,0.14775 -1.97367,-2.32261 0,0 -0.12721,-0.0593 -0.12721,-0.0593 v 0 c -0.28272,1.56071 0.2136,-0.34449 -0.74472,1.05218 -0.52848,0.77023 0.64706,2.65513 0.76761,3.49579 0.67414,2.12049 1.35104,4.24063 2.08652,6.34086 0.73698,1.96318 1.53498,3.90216 2.31114,5.85009 0.77529,1.7009 2.72878,3.63237 4.66478,3.0254 0.35565,-0.0517 0.71268,-0.0589 1.07186,-0.0488 0.65518,-0.0123 1.31165,-0.004 1.96508,-0.0592 1.09375,-0.13633 2.15206,-0.43808 3.15341,-0.90437 1.31544,-0.62225 2.59042,-1.3258 3.67501,-2.31111 0.71655,-0.76551 1.31442,-1.65741 1.71796,-2.62673 0.31398,-0.7901 0.0922,-1.57148 -0.13895,-2.36372 -0.26382,-0.83201 -0.56902,-1.65022 -0.83172,-2.48272 -0.3041,-0.89521 -0.60322,-1.79211 -0.90193,-2.68912 -0.42355,-1.28204 -0.87533,-2.55401 -1.34384,-3.82033 -0.58692,-1.58875 -1.19815,-3.16966 -1.9557,-4.68674 -0.78851,-1.61702 -1.67138,-3.18289 -2.6765,-4.67665 -1.29144,-1.95686 -2.67636,-3.85515 -3.7909,-5.92313 -1.01374,-1.7621 -1.91015,-3.58398 -2.81954,-5.40097 0,0 -2.20063,-0.99716 -2.20063,-0.99716 z" /><path
       style="opacity:1;fill:#000000;stroke-width:0.464272"
       id="path1494"
       d="m 70.417,207.74723 c 1.583075,-1.51574 2.290889,-3.6533 2.991821,-5.67073 0.932302,-3.44793 1.812966,-6.91006 2.296466,-10.45177 0.08819,-1.42607 0.598283,-2.86982 0.362134,-4.31203 -0.05024,-0.30652 -0.565516,-1.7422 -0.704448,-2.13806 0,0 -0.123873,-0.0661 -0.123873,-0.0661 v 0 c -0.296131,0.22546 -1.108901,0.81646 -1.281949,1.08796 -0.755006,1.18451 -0.493769,2.79058 -0.799959,4.08846 -0.433057,3.57406 -0.733656,7.19064 -1.84258,10.6388 -0.629873,2.00823 -1.316202,4.11415 -3.019185,5.48366 0,0 2.121576,1.33975 2.121576,1.33975 z" /><path
       style="opacity:1;fill:#000000;stroke-width:0.464272"
       id="path1496"
       d="m 74.567225,186.53025 c -0.406195,2.02179 -0.702928,4.05896 -0.88859,6.11291 -0.370605,3.47194 -1.002877,6.91056 -1.45425,10.37451 -0.292311,2.36987 -0.547432,4.74688 -0.681417,7.13154 -0.216133,2.31659 2.686039,3.6464 4.796343,3.43094 1.818153,-0.24384 3.638197,-0.44982 5.454448,-0.71428 2.684754,-0.51791 5.344072,-1.04862 8.081102,-1.16442 2.648281,-0.0682 5.294928,-0.0453 7.941448,0.0624 2.473221,0.0555 4.945791,0.11477 7.418091,0.20445 2.26356,0.0264 4.52562,-0.004 6.78898,0.0552 2.60142,0.1056 5.18722,0.41679 7.78533,0.57867 2.20913,0.12107 4.41225,-0.12124 6.61608,-0.23348 1.90972,-0.1042 3.81715,-0.24762 5.72436,-0.3902 1.63889,-0.16898 3.28429,-0.26271 4.92377,-0.4237 1.38657,-0.18467 2.6804,-0.70045 3.85828,-1.44023 1.46971,-1.13899 1.52948,-2.9105 1.55289,-4.62599 -0.36976,-3.02583 -0.85447,-6.16156 -1.96084,-9.02329 -0.42158,-1.09053 -1.01334,-2.10818 -1.47353,-3.18298 -0.4116,-0.96128 -0.76036,-1.94825 -1.14056,-2.92241 0,0 -0.12633,-0.0612 -0.12633,-0.0612 v 0 c -0.0185,0.78128 0.009,1.56499 -0.0551,2.34387 -0.0637,0.77677 -0.32732,1.53573 -0.32726,2.31512 2.8e-4,2.88502 1.35346,5.64388 1.21774,8.54807 -0.0626,1.54133 -0.10385,3.17786 -1.45057,4.1802 -1.13828,0.68838 -2.39113,1.14212 -3.71922,1.28906 -1.63423,0.15915 -3.27387,0.26026 -4.908,0.42253 -1.90357,0.14284 -3.8066,0.29738 -5.71358,0.38923 -2.16625,0.14494 -4.33517,0.38699 -6.50886,0.24569 -2.60803,-0.16408 -5.20406,-0.48125 -7.8162,-0.58108 -2.24153,-0.0548 -4.48168,-0.004 -6.72338,-0.0104 -2.468458,-0.069 -4.937156,-0.12529 -7.405474,-0.19767 -2.638165,-0.0866 -5.277118,-0.084 -7.915584,0.003 -2.740731,0.16529 -5.422537,0.68126 -8.117084,1.19076 -1.744075,0.27939 -3.483949,0.60165 -5.235855,0.81078 -0.150908,-0.006 -0.30373,0.007 -0.452714,-0.0176 -0.11996,-0.0199 -0.448281,-0.1813 -0.346115,-0.11524 5.213093,3.36573 2.871884,2.6207 2.738162,0.82998 -0.01207,-2.40983 0.177354,-4.81659 0.450196,-7.20967 0.413121,-3.54941 0.689815,-7.10559 0.918864,-10.67058 0.148263,-2.12877 0.04339,-4.27683 0.282948,-6.39138 0,0 -2.128498,-1.14222 -2.128498,-1.14222 z" /><path
       style="opacity:1;fill:#000000;stroke-width:0.464272"
       id="path1500"
       d="m 73.12129,211.81438 c -0.898665,1.82881 -1.491505,3.78279 -2.121127,5.71519 -0.713327,2.48139 -1.697411,4.86278 -2.591516,7.27988 -0.659774,1.63592 -1.392447,3.24774 -2.158797,4.83765 -0.0396,0.35175 -0.303968,0.61045 -0.40984,0.93334 -0.488442,1.48956 3.070845,2.75508 4.633841,2.83015 1.926842,-0.1395 3.854485,-0.19953 5.786344,-0.2299 2.382915,-0.0497 4.759655,-0.27723 7.11711,-0.62039 1.98352,-0.33474 3.848425,-1.10584 5.727221,-1.79321 1.505846,-0.55617 2.967655,-1.20891 4.523096,-1.61725 1.547005,-0.35623 3.105,-0.61717 4.692492,-0.6604 1.902706,-0.003 3.790436,0.26831 5.670006,0.53511 1.84526,0.29324 3.67882,0.65198 5.52499,0.93994 2.04514,0.3195 4.11173,0.4368 6.17749,0.51825 2.1589,0.1071 4.31593,0.16618 6.47669,0.10303 2.00923,-0.0648 4.0188,-0.0811 6.02637,-0.19091 2.19583,-0.19508 4.39589,-0.32027 6.59907,-0.38925 1.7942,0.0105 3.54422,-0.3408 5.29287,-0.69419 1.32586,-0.31813 2.68796,-0.39909 4.03212,-0.59408 1.02327,-0.14039 1.35095,-0.61806 1.26235,-1.61839 -0.44192,-1.99972 -1.12141,-3.93894 -1.71325,-5.89799 -0.85134,-2.28257 -0.93009,-4.80942 -1.58842,-7.12618 -0.14633,-0.51534 -0.37538,-1.00357 -0.56308,-1.50535 -1.09899,-1.995 -0.47117,-1.0183 -1.90137,-2.91851 0,0 -0.12633,-0.0612 -0.12633,-0.0612 v 0 c -0.94086,0.79008 -0.57843,0.30456 -1.06638,1.47194 -0.0261,0.39738 -0.10282,0.79461 -0.0785,1.19212 0.03,0.49306 0.15513,0.97577 0.23997,1.46238 0.33156,1.90013 0.70084,3.79838 1.22546,5.65579 0.54491,1.90621 1.18784,3.79468 1.57436,5.74003 0.10106,0.8867 -0.03,0.85946 -0.91761,1.03174 -1.32944,0.19648 -2.66424,0.36163 -3.97583,0.66364 -1.72581,0.35493 -3.45782,0.65997 -5.22815,0.65286 -2.20736,0.10005 -4.41234,0.23594 -6.61696,0.38399 -1.99285,0.10004 -3.98773,0.12354 -5.98116,0.21017 -2.15247,0.0558 -4.30135,-0.0243 -6.45178,-0.12302 -2.06153,-0.10005 -4.12204,-0.25233 -6.16333,-0.56799 -1.84473,-0.29206 -3.6771,-0.65484 -5.52453,-0.9297 -1.894194,-0.25574 -3.79795,-0.51273 -5.714029,-0.47427 -1.604908,0.0714 -3.180795,0.33133 -4.731248,0.75808 -1.539683,0.45751 -3.001816,1.11853 -4.508894,1.66956 -1.843473,0.69358 -3.686423,1.4325 -5.643022,1.74311 -2.338273,0.34422 -4.695705,0.55612 -7.060006,0.59417 -1.941992,0.0305 -3.881824,0.15302 -5.822552,0.1402 -1.787011,-0.30329 -0.383989,-0.12862 2.745805,1.87943 0.11113,0.0713 -0.267176,-0.0484 -0.376813,-0.12197 -0.240995,-0.16159 -0.318504,-0.49171 -0.311119,-0.75677 0.0054,-0.19492 0.07622,-0.38249 0.114333,-0.57374 0.435396,-1.73547 1.223471,-3.35985 1.745679,-5.07067 0.805614,-2.47797 1.29895,-5.04728 2.204556,-7.49718 0.65504,-1.92272 1.396318,-3.80982 2.08698,-5.71889 0,0 -2.133452,-1.19004 -2.133452,-1.19004 z" /><path
       style="opacity:1;fill:#000000;stroke-width:0.464272"
       id="path1502"
       d="m 68.923191,232.07035 c 0.162066,2.14823 0.361404,4.29341 0.522236,6.44205 0.221723,2.9424 0.449151,5.88415 0.594245,8.8315 0.03533,2.31952 0.02186,4.63902 0.06868,6.95886 0.03426,2.08338 0.09451,4.16507 0.280518,6.24081 0.107777,1.50473 0.369885,2.98688 0.688524,4.45897 0.20432,1.11085 0.511656,2.17732 1.009754,3.19065 1.266297,2.4689 3.371135,3.07747 5.893516,4.54282 1.184674,0.48759 2.275844,0.34349 3.414184,-0.16004 1.342964,-0.66751 2.636227,-1.4074 3.864311,-2.26765 1.562915,-1.05486 2.88123,-2.33967 3.901583,-3.9211 1.08741,-1.96368 1.576909,-4.18052 2.071605,-6.35024 0.57785,-2.64084 1.092109,-5.29487 1.65498,-7.93901 0.53712,-2.75449 0.747881,-5.55761 1.122037,-8.33656 0.356982,-2.2893 0.671841,-4.58361 0.864048,-6.89287 0.111745,-1.43052 0.184269,-2.86361 0.278282,-4.2953 0.1316,-1.14294 0.131252,-1.232 -0.821332,-2.01015 0,0 -2.024157,-1.03338 -2.024157,-1.03338 v 0 c -1.246825,-0.37617 -1.023509,-0.0158 -1.078082,1.01994 -0.04803,1.44467 -0.127051,2.8881 -0.186428,4.33232 -0.135116,2.32033 -0.385932,4.62949 -0.740779,6.92696 -0.372439,2.76671 -0.624324,5.55146 -1.129661,8.29836 -0.539697,2.64373 -1.082641,5.28723 -1.660178,7.92288 -0.521617,2.10709 -1.046878,4.25232 -2.092864,6.17145 -0.990598,1.53358 -2.272966,2.77706 -3.809099,3.77276 -1.240813,0.80769 -2.536422,1.52569 -3.881136,2.14692 -1.090695,0.39688 -2.137574,0.39818 -3.18545,-0.15969 6.27938,3.69523 2.499475,1.89444 1.577687,0.0522 -0.520482,-0.98123 -0.881745,-2.00739 -1.083315,-3.10386 -0.346562,-1.46108 -0.654749,-2.93227 -0.766622,-4.43338 -0.19556,-2.0723 -0.328042,-4.14894 -0.332045,-6.23163 -0.0427,-2.35676 -0.05442,-4.71423 -0.246941,-7.0653 -0.174175,-2.94869 -0.452286,-5.89 -0.601998,-8.84034 -0.118918,-2.16019 -0.237939,-4.32223 -0.538804,-6.46628 0,0 -3.627307,-1.8027 -3.627307,-1.8027 z" /><path
       style="opacity:1;fill:#000000;stroke-width:0.464272"
       id="path1504"
       d="m 117.3441,230.554 c -0.65506,2.36549 -0.73525,4.87493 -0.89194,7.31658 -0.18503,2.7993 -0.13513,5.60151 0.0365,8.39906 0.16126,2.30561 0.41601,4.60277 0.74817,6.88964 0.36583,2.35844 0.75673,4.71251 1.10699,7.07346 0.2911,1.95863 0.56011,3.92184 1.05564,5.84099 0.40723,1.65748 1.27576,3.09625 2.34635,4.40289 1.73303,1.62013 3.82256,3.38218 6.22158,3.69728 0.71868,0.0944 0.98821,-0.0195 1.70338,-0.15511 2.3886,-0.64468 4.10776,-2.41182 5.76738,-4.1404 1.94311,-2.04658 3.7512,-4.19696 4.97699,-6.74853 1.19636,-2.89089 1.56479,-5.99642 1.73523,-9.09226 0.10664,-3.29136 0.2696,-6.58095 0.35783,-9.87295 0.0397,-2.69384 0.15353,-5.38534 0.26821,-8.07672 0.0883,-2.10669 0.085,-4.21482 0.0639,-6.32266 -0.0275,-1.19429 -0.65667,-1.38322 -1.64204,-2.02445 0,0 -1.09918,-0.51072 -1.09918,-0.51072 v 0 c -1.02315,-0.36871 -1.37487,-0.67192 -1.35684,0.46278 0.10664,2.11323 0.15758,4.22945 0.0484,6.3442 -0.10076,2.71279 -0.14493,5.42579 -0.15723,8.1405 -0.0847,3.30051 -0.15669,6.60136 -0.27332,9.90072 -0.19035,3.04704 -0.37018,6.12761 -1.61958,8.96507 -1.22423,2.49585 -2.96381,4.64205 -4.88691,6.64233 -1.65784,1.64226 -3.3686,3.3328 -5.73641,3.82946 -0.68724,0.0695 -0.92325,0.15478 -1.5882,4.8e-4 -0.22758,-0.0529 -0.85435,-0.36646 -0.65902,-0.23833 5.73481,3.76197 2.96401,1.82861 1.83072,0.87169 -1.1383,-1.25418 -2.02216,-2.69003 -2.57359,-4.29941 -0.5497,-1.91097 -0.84725,-3.87541 -1.15792,-5.837 -0.35544,-2.35743 -0.74133,-4.70979 -1.10059,-7.06658 -0.31339,-2.28828 -0.60603,-4.58018 -0.80131,-6.88206 -0.18943,-2.78575 -0.28476,-5.58049 -0.0963,-8.36997 0.17884,-2.44151 0.45747,-4.86839 0.80471,-7.29017 0,0 -3.43172,-1.84993 -3.43172,-1.84993 z" /><path
       style="opacity:1;fill:#000000;stroke-width:0.464272"
       id="path1506"
       d="m 121.30502,258.38423 c 3.66166,-0.23212 7.30356,-0.67886 10.96772,-0.89857 2.89609,-0.14985 1.65197,0.11128 3.9428,-0.60451 0.41927,-0.13089 0.82018,-0.34727 1.25664,-0.39678 0.49832,-0.0564 1.00145,0.0559 1.50218,0.0839 0,0 -0.11314,-0.0832 -0.11314,-0.0832 v 0 c -0.50074,-0.0279 -1.00695,-0.006 -1.50226,-0.0837 -2.73148,-0.43416 -5.37975,-1.51711 -8.20244,-1.15329 -3.64497,0.189 -7.35148,0.26961 -10.93578,0.98365 0,0 3.08425,2.1525 3.08425,2.1525 z" /><path
       style="opacity:1;fill:#000000;stroke-width:0.464272"
       id="path1508"
       d="m 121.26152,261.24328 c 2.69607,-0.0353 5.3927,-0.10664 8.07065,-0.42711 2.03924,-0.82656 0.93566,-0.52736 3.33185,-0.81572 0,0 -0.11407,-0.0818 -0.11407,-0.0818 v 0 c -3.11395,0.0366 -1.44366,0.1302 -5.00314,-0.39477 -2.84967,-0.17654 -5.74435,-0.34264 -8.57729,0.11499 0,0 2.292,1.60438 2.292,1.60438 z" /><path
       style="opacity:1;fill:#000000;stroke-width:0.464272"
       id="path1510"
       d="m 118.97012,263.63281 c 0.95705,0.93551 2.03931,1.71827 3.17226,2.42434 2.22614,1.58497 3.84469,2.22207 6.37998,2.23083 1.32687,-0.0326 2.63437,-0.24114 3.89409,-0.65458 1.32992,-0.55141 2.55635,-1.31035 3.72905,-2.1379 1.32455,-0.99066 2.11139,-1.64061 2.12047,-3.37114 -0.0731,-0.25859 -0.14582,-0.51719 -0.21881,-0.77578 0,0 -0.12178,-0.07 -0.12178,-0.07 v 0 c -0.25191,0.0664 -0.50381,0.13265 -0.75575,0.19895 -1.38725,0.55587 -2.48792,1.38854 -3.59824,2.37852 -1.15154,0.80437 -2.3508,1.56561 -3.67128,2.06244 -1.25116,0.36642 -2.54195,0.55884 -3.84765,0.56994 -0.65732,-0.0157 -1.30126,-0.0434 -1.94697,-0.1817 -1.06324,-0.22783 -3.10545,-1.34691 0.83046,0.8282 -1.16669,-0.67529 -2.27784,-1.45292 -3.25254,-2.38885 0,0 -2.71336,-1.11331 -2.71336,-1.11331 z" /><path
       style="opacity:1;fill:#000000;stroke-width:0.464272"
       id="path1512"
       d="m 73.794001,256.13971 c 3.625143,-0.0781 7.248999,-0.24764 10.872634,-0.38605 0.712385,-0.0596 1.42477,-0.11879 2.137155,-0.17823 0.433312,-0.18157 0.837939,-0.45937 1.299948,-0.54468 0.536644,-0.0991 1.091425,0.003 1.637131,0.003 0,0 -0.113369,-0.0829 -0.113369,-0.0829 v 0 c -0.587375,-0.0311 -1.180567,-0.006 -1.762119,-0.0934 -6.31716,-0.95741 0.368344,-0.40395 -5.514335,-0.77967 -3.720469,-0.0105 -7.453563,0.003 -11.167001,0.19859 0,0 2.609921,1.86375 2.609921,1.86375 z" /><path
       style="opacity:1;fill:#000000;stroke-width:0.464272"
       id="path1514"
       d="m 75.458751,259.81939 c 2.945888,-0.54589 5.964287,-0.49841 8.948874,-0.54501 0.935992,-0.034 2.252985,0.0255 3.179682,-0.35583 2.594289,-1.06735 -1.299912,-0.13493 1.512042,-0.71202 0,0 -0.114182,-0.0815 -0.114182,-0.0815 v 0 c -2.244606,-0.0589 -4.44498,-0.775 -6.717088,-0.39967 -3.077719,0.0506 -6.176499,-0.0398 -9.232206,0.38902 0,0 2.422854,1.70519 2.422854,1.70519 z" /><path
       style="opacity:1;fill:#000000;stroke-width:0.464272"
       id="path1520"
       d="m 71.528723,259.84476 c 0.217675,0.70033 0.336152,1.42495 0.559113,2.12444 0.152416,0.46972 0.452216,0.85637 0.765299,1.22895 0.279305,0.34525 0.598981,0.65409 0.876986,1.00018 0.85335,0.8927 2.055408,1.32603 3.100638,1.95595 -4.491924,-2.66688 -0.73759,-0.26747 0.887731,0.42845 0.327079,0.10932 0.632573,0.25438 0.938799,0.41054 0.401564,0.16003 0.827403,0.24168 1.254007,0.29962 0.44422,0.0466 0.891792,0.0249 1.336292,-0.006 0.490786,-0.0309 0.978566,-0.0948 1.465117,-0.1644 0.538651,0.0298 1.043154,-0.0636 1.542654,-0.25585 0.583036,-0.23563 1.162371,-0.4486 1.699411,-0.77809 0.663545,-0.42794 1.299784,-0.89037 1.876717,-1.42978 0.476223,-0.50528 1.120366,-0.93238 0.972428,-1.68057 -0.751791,-0.69938 -0.528127,-0.36941 -0.821972,-0.86862 0,0 -0.244041,-0.13704 -0.244041,-0.13704 v 0 c -0.549386,0.023 -0.162524,0.0353 -1.124427,-0.28975 -0.728422,0.14318 -1.046333,0.76503 -1.560014,1.25794 -0.569913,0.51725 -1.187343,0.97382 -1.850063,1.36674 -0.505651,0.29326 -1.01013,0.59652 -1.56556,0.78758 -0.435215,0.13301 -0.894032,0.1609 -1.31162,0.34862 -0.464215,0.0769 -0.935702,0.0967 -1.39676,0.19265 -0.417867,0.0545 -0.842986,0.039 -1.259044,-0.0263 -0.415511,-0.0743 -0.82818,-0.17373 -1.207801,-0.36435 -0.271554,-0.11604 -0.565514,-0.1753 -0.830605,-0.31089 -2.483681,-1.03241 6.850557,3.73135 -0.831115,-0.4186 -0.957541,-0.45803 3.380916,2.1694 1.200803,0.62303 -0.384448,-0.33424 -0.725822,-0.71089 -1.084729,-1.07186 -0.321881,-0.3483 -0.630649,-0.71625 -0.817273,-1.15751 -0.267331,-0.70647 -0.450568,-1.44424 -0.67305,-2.1651 0,0 -1.897921,-0.90089 -1.897921,-0.90089 z" /><path
       style="opacity:1;fill:#000000;stroke-width:0.464272"
       id="path1528"
       d="m 95.036357,132.57204 c 0.143539,1.80994 0.01045,3.62804 -0.02507,5.43992 -0.0022,1.72265 0.386478,3.40775 0.891629,5.04456 0.537609,1.63001 1.361531,3.04905 2.549476,4.27809 1.769328,1.49486 3.984568,3.04462 6.385658,2.57436 1.47778,-0.61547 1.93646,-2.02367 2.22656,-3.47686 0.30041,-2.61476 0.0388,-5.25217 -0.13037,-7.86724 0.0566,-1.42998 -0.67995,-2.5766 -1.31305,-3.7912 0,0 -0.12563,-0.0628 -0.12563,-0.0628 v 0 c -0.67028,0.90545 -1.09065,1.49122 -0.84545,2.70893 0.17091,2.57041 0.38979,5.16813 0.0237,7.73208 -0.28483,1.33028 -0.69609,2.67316 -2.10402,3.16532 -0.67098,0.0897 -1.24798,0.0811 -1.90396,-0.13021 -0.239,-0.0771 -0.900238,-0.43282 -0.697442,-0.28474 0.296192,0.21634 2.813392,1.74237 0.993642,0.47264 -1.261891,-1.23229 -2.349386,-2.61537 -2.914564,-4.31103 -0.593329,-1.66604 -1.15686,-3.34771 -1.2248,-5.13441 -0.123002,-1.84954 -0.137749,-3.70169 -0.182738,-5.55418 0,0 -1.603667,-0.80324 -1.603667,-0.80324 z" /><path
       style="opacity:1;fill:#000000;stroke-width:0.464272"
       id="path1530"
       d="m 83.503149,86.721903 c -1.87803,1.983126 -3.048419,4.538645 -4.004195,7.062107 -1.649179,5.140216 -1.746651,10.49541 -1.254124,15.81806 0.419085,2.0142 0.890538,5.63709 3.000194,6.75712 3.510438,1.86373 2.51855,2.01042 4.659744,0.82094 0.351691,-0.51318 0.777298,-0.98291 1.055082,-1.53958 2.31575,-4.6407 2.181123,-11.3221 1.960174,-16.360971 -0.826209,-4.783103 0.01172,-1.910412 -2.099327,-6.247458 -0.299415,-0.615119 -0.548329,-1.253542 -0.822507,-1.880331 0,0 -0.127595,-0.05844 -0.127595,-0.05844 v 0 c 0.274432,0.62621 0.697242,1.206639 0.823294,1.878613 0.329098,1.754431 -0.777297,3.633804 0.315649,5.345772 0.06382,1.219115 0.187622,2.436585 0.191267,3.657365 0.01172,3.92049 -0.435041,8.87795 -2.461658,12.34949 -0.294796,0.50497 -0.731949,0.91208 -1.097912,1.36812 -2.3033,1.04908 -0.442618,-0.21303 0.09098,1.67114 0.127154,0.44902 -0.799369,-0.50589 -1.107613,-0.85624 -1.414989,-1.60832 -1.845017,-3.84372 -2.269069,-5.85689 -0.586784,-5.2765 -0.626434,-10.709461 1.049792,-15.807613 0.922484,-2.492247 1.897372,-5.168614 4.041281,-6.886565 0,0 -1.943452,-1.234576 -1.943452,-1.234576 z" /><path
       style="opacity:1;fill:#000000;stroke-width:0.464272"
       id="path1534"
       d="m 118.45142,88.566652 c -1.15351,2.123188 -2.55943,4.126542 -3.33054,6.436696 -0.23176,0.694297 -0.39209,1.410406 -0.58812,2.115615 -1.08889,4.090917 -1.66026,8.475977 -0.43975,12.611577 0.1999,0.6773 0.50296,1.3198 0.75443,1.9797 0.72254,1.38651 1.56474,2.77693 3.02096,3.49923 1.28859,0.63916 2.55199,1.37983 3.93805,1.76436 0.65203,0.1809 1.72787,-0.83672 2.10564,-1.13068 0.72191,-1.14307 1.0817,-1.50785 1.37918,-2.91233 0.7389,-3.48864 -0.22855,-8.68065 -0.67797,-12.19947 -0.30045,-3.582485 -1.9392,-6.632017 -3.60955,-9.718412 0,0 -0.1272,-0.05931 -0.1272,-0.05931 v 0 c 0.1114,0.729388 0.26654,1.453427 0.33443,2.188158 0.71638,7.754774 -0.68796,-2.973048 0.61014,6.209111 0.3742,3.245863 0.76056,6.479433 0.6472,9.755073 -0.0401,1.1564 -0.14355,2.70694 -0.60924,3.82338 -0.1751,0.41972 -0.49107,0.76554 -0.73661,1.14831 -0.3105,0.2209 -0.58627,0.50137 -0.93148,0.66272 -0.31754,0.14845 -1.16093,-0.0714 -1.02136,0.25013 0.29575,0.68127 1.27195,0.81672 1.73612,1.39647 0.27451,0.34282 -0.79875,-0.38259 -1.14282,-0.6555 -1.11729,-0.88613 -1.36113,-1.5184 -2.13108,-2.73357 -0.74925,-1.78674 -1.06467,-2.26061 -1.39038,-4.23612 -0.56948,-3.45394 -0.007,-6.99938 0.54999,-10.410824 0.89771,-2.991153 1.91304,-5.993499 3.65378,-8.615225 0,0 -1.99378,-1.169124 -1.99378,-1.169124 z" /><path
       style="opacity:1;fill:#000000;stroke-width:0.464272"
       id="path1538"
       d="m 58.569835,203.16547 c -0.213607,1.30527 -0.205798,2.61973 0.134361,3.89841 0.664619,1.64602 2.571121,2.72453 4.324402,2.80058 0.765349,-0.0456 1.475415,-0.35047 2.130567,-0.7305 0.573988,-0.39861 1.047332,-0.92999 1.504193,-1.45502 0.346245,-0.44693 0.681753,-0.91007 0.93513,-1.41691 -0.06934,-0.49886 -0.634607,-0.75625 -0.960859,-1.11789 0,0 -0.123745,-0.0664 -0.123745,-0.0664 v 0 c -0.433814,-0.0371 -0.871187,-0.3637 -1.268654,-0.16178 -0.263791,0.47829 -0.562908,0.9361 -0.900768,1.3658 -0.4316,0.50861 -0.885697,1.0149 -1.449871,1.37951 -0.624841,0.34867 -1.298643,0.62528 -2.027454,0.60401 -1.070839,-0.14283 -2.024593,-0.91562 1.145847,0.97649 0.127709,0.0761 -0.264096,-0.1416 -0.377276,-0.23814 -0.320719,-0.27339 -0.357357,-0.43837 -0.550001,-0.81113 -0.394697,-1.21685 -0.452573,-2.49841 -0.141887,-3.74655 0,0 -2.374,-1.28058 -2.374,-1.28058 z" /><path
       style="opacity:1;fill:#000000;stroke-width:0.464272"
       id="path1542"
       d="m 144.94708,202.82685 c 1.21825,1.77638 3.34081,3.16258 5.43858,3.54103 1.15767,0.0919 2.2218,-0.29204 3.21285,-0.8523 0.76984,-0.46332 1.30979,-1.05289 1.51257,-1.93164 0.0731,-0.58825 0.083,-1.20633 -0.1358,-1.764 -0.33951,-0.60175 -0.3141,-0.86083 -0.90968,-1.30548 -0.2022,-0.11233 -0.4044,-0.22473 -0.60663,-0.3371 0,0 -0.43075,-0.18496 -0.43075,-0.18496 v 0 c -0.16845,-0.0686 -0.33705,-0.1374 -0.50557,-0.20602 -0.71504,-0.19966 -0.32355,0.18059 -0.45394,0.64408 0.0423,0.52997 0.22277,1.05247 0.12441,1.59248 -0.13564,0.79947 -0.63157,1.30537 -1.32356,1.71203 -0.95655,0.50889 -1.98028,0.83945 -3.07594,0.65876 -1.38565,-0.3908 -0.7251,-0.2565 1.72379,1.22144 0.16635,0.10035 -0.33841,-0.19257 -0.49582,-0.30645 -0.41718,-0.3018 -0.76367,-0.67966 -1.02506,-1.12256 0,0 -3.04939,-1.35931 -3.04939,-1.35931 z" /><path
       style="opacity:1;fill:#000000;stroke-width:0.464272"
       id="path1548"
       d="m 45.890003,161.35748 c 0.11337,2.4542 -0.147748,4.90084 -0.419247,7.33682 -0.400482,3.53967 -1.058685,7.05138 -1.718331,10.55218 -0.869207,3.0335 -1.735381,6.07117 -2.737202,9.06515 -0.626348,1.82896 -1.323645,3.63293 -2.092042,5.4067 -0.255749,0.64635 -0.748737,1.27054 -0.571786,1.98787 1.369224,1.94253 3.675692,2.33947 5.779676,2.60201 1.866546,0.25838 3.754891,0.23638 5.634658,0.26603 1.958538,0.11881 3.896703,-0.0868 5.824691,-0.40577 0.256831,-0.0347 2.483131,-0.44554 2.501838,-0.50434 0.06142,-0.19308 -0.563739,-0.96129 -0.62483,-1.04369 0,0 -0.176691,-0.12475 -0.176691,-0.12475 v 0 c -0.457744,-0.20487 -1.565642,-0.72811 -2.048805,-0.82942 -0.837293,-0.17557 -1.764991,0.45976 -2.598049,0.43585 -1.895935,0.32741 -3.805379,0.49391 -5.731881,0.3909 -1.896859,-0.0379 -3.800691,-0.0541 -5.679309,-0.3526 -0.583604,-0.0899 -1.178132,-0.1639 -1.741461,-0.3503 -0.131605,-0.0435 -0.503202,-0.22908 -0.385666,-0.15564 2.321814,1.45194 3.918651,2.2165 2.656621,1.60619 -0.474107,-0.39935 0.268065,-1.28723 0.343625,-1.74189 0.702069,-1.82028 1.38447,-3.64825 1.951918,-5.51613 0.946275,-3.08271 1.898367,-6.16803 2.214505,-9.39379 0.64685,-3.56714 1.048355,-7.15062 1.380917,-10.75957 0.143888,-2.51554 0.16254,-5.03106 0.07322,-7.54829 0,0 -1.836376,-0.92362 -1.836376,-0.92362 z" /><path
       style="opacity:1;fill:#000000;stroke-width:0.464272"
       id="path1550"
       d="m 163.72116,162.3614 c -0.23872,1.7776 -0.24896,3.57962 -0.25349,5.37059 0.14056,2.7507 0.4262,5.49011 0.80373,8.21745 0.2525,3.02392 0.88614,5.99877 1.54763,8.95495 0.63479,2.31697 1.46044,4.57448 2.27785,6.83147 0.42902,1.08608 0.69573,2.23707 0.76004,3.40416 -0.10525,0.53096 -0.45448,0.73271 -0.94782,0.84037 -0.86647,0.10734 -1.74016,0.0374 -2.61078,0.083 -1.17498,0.21712 -2.37217,0.24219 -3.55166,0.40844 -0.77096,0.13284 -1.54053,0.21448 -2.2973,-0.0157 -0.51436,-0.26537 -1.04051,-0.44701 -1.61087,-0.54197 -0.7209,-0.0686 -1.44765,-0.0261 -2.1662,0.0486 -0.5402,0.0706 -1.07865,0.15424 -1.62129,0.20454 -0.60892,0.0586 -0.0653,0.3243 0.28614,0.7764 0.15091,0.19423 0.28243,0.40283 0.42369,0.60423 0,0 0.11651,0.0782 0.11651,0.0782 v 0 c 0.33885,0.12353 0.68459,0.22959 1.01657,0.37057 0.59178,0.25129 0.88528,0.59891 1.46909,0.51895 0.5254,-0.0733 1.04734,-0.17284 1.57586,-0.22259 0.70215,-0.0489 1.41569,-0.0851 2.10982,0.0576 0.55099,0.14371 1.05465,0.4047 1.60634,0.54215 0.78224,0.11175 1.55789,-0.006 2.33035,-0.14687 1.06153,-0.19356 2.06853,-0.66256 3.17619,-0.61975 0.89748,-0.022 1.80941,0.0547 2.6937,-0.12932 0.68489,-0.23681 1.06447,-0.61016 0.9439,-1.38127 -0.0907,-1.3313 -0.70838,-2.47997 -1.18263,-3.70964 -0.89251,-2.25518 -1.72361,-4.53489 -2.4072,-6.86324 -0.94951,-2.98733 -1.53251,-6.03781 -1.99006,-9.137 -0.42832,-2.76527 -0.96621,-5.51971 -1.06573,-8.32386 -0.14687,-1.82538 -0.2783,-3.66362 -0.0418,-5.48835 0,0 -1.39063,-0.73288 -1.39063,-0.73288 z" /><path
       style="opacity:1;fill:#000000;stroke-width:0.464272"
       id="path1552"
       d="m 102.21484,190.12355 c -0.17442,0.44264 -0.40733,0.86019 -0.65733,1.26404 -0.2529,0.40915 -0.51052,0.81534 -0.77685,1.21591 -0.22166,0.33939 -0.44116,0.68017 -0.67523,1.01124 -0.265082,0.36111 -0.525021,0.72523 -0.778795,1.09437 -0.284842,0.39367 -0.542946,0.80483 -0.808606,1.21127 -0.288379,0.43699 -0.584556,0.86851 -0.891688,1.29249 -0.30857,0.43339 -0.65758,0.83528 -0.981793,1.25673 -0.330802,0.42529 -0.649549,0.85983 -0.95371,1.30455 -0.21748,0.33724 -0.433207,0.67508 -0.65794,1.00756 -0.121944,0.186 -0.23637,0.37687 -0.348591,0.56887 -0.07055,0.12441 -0.147567,0.24497 -0.215809,0.37064 -0.02333,0.0484 -0.05918,0.0909 -0.07706,0.14178 -0.026,0.0811 0.02333,0.15651 0.06847,0.22006 0.115806,0.14231 0.257083,0.25686 0.409616,0.35696 0.100604,0.0583 0.199552,0.11913 0.283715,0.19997 0.03632,0.033 0.0723,0.0659 0.09945,0.10722 0.30922,0.48388 1.052414,0.66778 1.463109,0.90125 0.11604,-8.4e-4 0.207779,-0.0873 0.296005,-0.15283 0.146869,-0.10106 0.300214,-0.19084 0.443347,-0.29732 0.186882,-0.14547 0.36579,-0.30133 0.538874,-0.46285 0.169509,-0.15405 0.28448,-0.35203 0.392675,-0.55105 0.09794,-0.23208 0.215727,-0.45378 0.345181,-0.66964 0.12792,-0.2309 0.279362,-0.4464 0.433033,-0.66046 0.19655,-0.26413 0.387179,-0.5325 0.571481,-0.80532 0.180112,-0.25852 0.339996,-0.53004 0.512666,-0.79344 0.1258,-0.21248 0.28477,-0.40151 0.43714,-0.5948 0.16932,-0.21286 0.33598,-0.42776 0.49834,-0.64595 0.23347,-0.30159 0.45751,-0.61038 0.67221,-0.92562 0.18407,-0.29371 0.39174,-0.57132 0.58449,-0.85907 0.19466,-0.30485 0.3806,-0.61549 0.5677,-0.92513 0.20295,-0.32641 0.39451,-0.6589 0.61294,-0.97541 0.17657,-0.25187 0.36256,-0.49657 0.53883,-0.74871 0.15759,-0.23655 0.32277,-0.46807 0.47822,-0.70609 0.11024,-0.18749 0.23389,-0.36523 0.37054,-0.53415 0.0876,-0.11899 0.17128,-0.24068 0.25729,-0.36091 0.0297,-0.0347 0.046,-0.0755 0.0648,-0.11579 0.15249,-0.6161 -0.95001,-0.69779 -1.47616,-0.97298 -0.18862,-0.10442 0.2938,0.27398 0.39305,0.37993 0,0 0.11105,0.0858 0.11105,0.0858 v 0 c 0.24952,0.16581 0.47106,0.37047 0.72704,0.5256 0.64888,0.36071 -1.67766,-0.36559 -1.18302,-0.78996 -8.6e-4,0.0332 -0.009,0.0667 -0.0177,0.0987 -0.0438,0.13405 -0.11967,0.25103 -0.20107,0.36547 -0.12144,0.18428 -0.2541,0.3613 -0.35511,0.55838 -0.13792,0.24499 -0.28282,0.48591 -0.44668,0.71476 -0.1725,0.25536 -0.34809,0.50864 -0.51242,0.76947 -0.19714,0.33011 -0.39827,0.6577 -0.60334,0.98295 -0.19607,0.30249 -0.39412,0.60329 -0.609,0.89285 -0.20287,0.28179 -0.38431,0.57834 -0.56509,0.8746 -0.20259,0.31754 -0.4108,0.63223 -0.656799,0.91846 -0.181851,0.20803 -0.372429,0.40873 -0.543893,0.62539 -0.144059,0.20407 -0.282821,0.41208 -0.422252,0.61924 -0.154948,0.27042 -0.304788,0.54449 -0.488095,0.79723 -0.194214,0.26599 -0.400032,0.52272 -0.596277,0.78716 -0.161792,0.21574 -0.325836,0.43168 -0.452515,0.67059 -0.115924,0.22433 -0.234028,0.44757 -0.3514,0.67115 -0.09387,0.1899 -0.20807,0.36486 -0.366857,0.50782 -0.165123,0.15776 -0.329457,0.31932 -0.520249,0.44652 -0.151777,0.0942 -0.306968,0.18289 -0.457018,0.27997 -0.08402,0.0413 -0.164068,0.0806 -0.243345,0.0105 2.219683,1.27563 1.658218,0.96503 1.191742,0.68987 -0.0333,-0.0476 -0.05685,-0.10212 -0.100025,-0.14247 -0.09666,-0.0934 -0.19441,-0.18717 -0.315312,-0.24918 -0.145988,-0.0812 -0.294052,-0.16426 -0.401713,-0.29569 -0.02472,-0.0263 -0.05593,-0.0749 -0.08877,-0.0819 -4.63e-4,-0.0401 0.01045,-0.0855 0.02472,-0.12511 0.05245,-0.1295 0.112788,-0.2557 0.178897,-0.37878 0.107568,-0.19395 0.213313,-0.38892 0.314337,-0.58636 0.179593,-0.35565 0.35458,-0.71397 0.57467,-1.04727 0.28831,-0.4515 0.598435,-0.88709 0.939694,-1.30038 0.330698,-0.41749 0.653182,-0.84113 0.974563,-1.26581 0.313502,-0.42287 0.627908,-0.84514 0.91906,-1.28394 0.269792,-0.40259 0.546307,-0.8008 0.821407,-1.19977 0.25904,-0.36556 0.53123,-0.72141 0.80104,-1.079 0.2414,-0.33058 0.50003,-0.65028 0.69748,-1.0105 0.23549,-0.41984 0.47698,-0.83611 0.72331,-1.24965 0.23096,-0.41241 0.46128,-0.83507 0.78152,-1.18609 0,0 -1.31602,-0.76746 -1.31602,-0.76746 z" /><path
       style="opacity:1;fill:#000000;stroke-width:0.464272"
       id="path1554"
       d="m 99.414558,186.13949 c -0.04113,0.0158 -0.104552,0.009 -0.123011,0.0494 -0.02807,0.0613 0.285453,0.75472 0.328293,0.85526 0.02858,0.12107 0.125809,0.21659 0.158277,0.33605 0.01883,0.0688 -0.02577,0.14616 -0.0034,0.21393 0.02231,0.0679 0.138453,0.21062 0.177951,0.26281 0.207252,0.25261 0.420422,0.50032 0.630862,0.75032 0.19997,0.23668 0.40825,0.46594 0.61945,0.69256 0.17215,0.1937 0.3538,0.37656 0.56162,0.53161 0.19173,0.13003 0.39266,0.2455 0.58473,0.37509 0.65186,0.44838 1.31815,0.8999 2.05523,1.19352 0.28929,0.11303 0.5861,0.20418 0.88085,0.30138 0.2745,0.1107 0.55886,0.17125 0.85132,0.20651 0.32125,0.0312 0.64374,0.0259 0.96543,0.006 0.38302,-0.0411 0.75823,-0.12985 1.13797,-0.19215 0.42921,-0.0764 0.86268,-0.12249 1.29518,-0.17478 0.4132,-0.0377 0.81314,-0.14845 1.21175,-0.25747 0.44417,-0.13354 0.85164,-0.35907 1.25259,-0.5876 0.49533,-0.27759 0.9513,-0.61365 1.38789,-0.97501 0.46065,-0.38954 0.91521,-0.78655 1.36096,-1.19311 0.35622,-0.32306 0.68559,-0.6742 1.00733,-1.03115 0.28517,-0.30237 0.52938,-0.64057 0.75899,-0.98614 0.24784,-0.39161 0.47556,-0.79632 0.70509,-1.19906 0.037,-0.0671 0.17459,-0.33377 0.2401,-0.38491 0.0713,-0.0556 0.17613,-0.0548 0.24743,-0.11036 0.15108,-0.11738 0.20211,-0.39487 0.25457,-0.56455 0.11314,-0.43705 0.14758,-0.88715 0.1718,-1.33616 0.014,-0.45579 -0.0237,-0.91083 -0.0627,-1.36447 -0.014,-0.42491 -0.0837,-0.84219 -0.18738,-1.25353 -0.11896,-0.39943 -0.2027,-0.80784 -0.31402,-1.20935 -0.11546,-0.38946 -0.24335,-0.77447 -0.40401,-1.14765 -0.1775,-0.37703 -0.39244,-0.73394 -0.62407,-1.0797 -0.23473,-0.34864 -0.47444,-0.69397 -0.72344,-1.03259 -0.22516,-0.31894 -0.51893,-0.56939 -0.82963,-0.80036 -0.90482,-0.61227 -1.84599,-1.18129 -2.83652,-1.64355 -0.42117,-0.18842 -0.87311,-0.28561 -1.31982,-0.39155 -0.35886,-0.0826 -0.71788,-0.1646 -1.07563,-0.25184 -0.35553,-0.10595 -0.72198,-0.0897 -1.08705,-0.062 -0.49268,0.0455 -0.98498,0.0919 -1.47517,0.15985 -0.52358,0.0675 -1.04111,0.17442 -1.55657,0.28714 -0.4999,0.0929 -0.97563,0.27165 -1.43761,0.47952 -0.51738,0.24547 -1.0101,0.53993 -1.49788,0.83897 -0.49431,0.31138 -0.96988,0.65347 -1.42991,1.01343 -0.36269,0.26489 -0.65783,0.60378 -0.9688,0.92446 -0.22905,0.24093 -0.473604,0.46601 -0.72202,0.68663 -0.303532,0.26323 -0.557088,0.57742 -0.813034,0.88551 -0.262632,0.31753 -0.455372,0.68149 -0.630985,1.05189 -0.150201,0.3365 -0.255633,0.69019 -0.360161,1.04276 -0.08866,0.30327 -0.145119,0.61391 -0.156698,0.92958 0.007,0.32755 0.01996,0.65506 0.04236,0.98193 0.03597,0.33014 0.04967,0.66179 0.07136,0.99295 0.01984,0.314 0.04874,0.62714 0.107219,0.93638 0.07892,0.31982 0.205424,0.62556 0.313096,0.93659 0.102462,0.33332 0.281777,0.63055 0.468762,0.92166 0.203057,0.31745 0.355207,0.66303 0.529473,0.99631 0.198671,0.32268 0.375418,0.80304 0.68704,1.03605 0.173368,0.12967 0.368118,0.22831 0.552158,0.34249 0.22921,0.1258 0.45842,0.25144 0.68762,0.37716 0,0 0.13002,0.0531 0.13002,0.0531 v 0 c 0.10045,0.0104 0.20113,0.0214 0.30171,0.0322 0.0593,-0.009 0.17056,0.0343 0.17771,-0.0251 0.009,-0.0775 -0.1042,-0.11634 -0.15352,-0.17692 -0.19541,-0.2393 -0.35414,-0.50281 -0.48659,-0.78164 -0.16249,-0.33706 -0.31544,-0.68018 -0.49816,-1.00655 -0.18136,-0.28138 -0.38589,-0.55269 -0.49202,-0.8745 -0.09724,-0.30311 -0.188783,-0.60771 -0.301315,-0.90554 -0.0736,-0.29774 -0.08353,-0.60278 -0.114414,-0.90697 -0.02807,-0.33265 -0.03935,-0.66661 -0.07852,-0.99824 -0.03052,-0.31765 -0.04087,-0.63654 -0.03867,-0.95562 8.48e-4,-0.30346 0.02807,-0.60293 0.103153,-0.89818 0.0883,-0.34718 0.223656,-0.67912 0.339401,-1.01776 0.152135,-0.36237 0.354655,-0.69783 0.599435,-1.00575 0.24582,-0.30492 0.51146,-0.59306 0.81545,-0.84147 0.26104,-0.21957 0.51565,-0.44397 0.71738,-0.72189 0.27153,-0.33323 0.55608,-0.65564 0.88117,-0.93846 0.4452,-0.3694 0.91894,-0.6969 1.41877,-0.98875 0.4866,-0.29213 0.97883,-0.57672 1.49899,-0.80591 0.45249,-0.1923 0.91413,-0.35743 1.39649,-0.459 0.51558,-0.11232 1.03534,-0.19702 1.55883,-0.26357 0.49409,-0.0568 0.98956,-0.11127 1.48676,-0.12949 0.36956,-4.5e-4 0.73345,0.0261 1.08948,0.13407 0.34823,0.08 0.69813,0.15213 1.04693,0.22953 0.44509,0.10385 0.88863,0.22358 1.29748,0.43338 0.65345,0.33651 1.69114,0.96106 -1.2334,-0.73109 -0.50395,-0.29159 1.02604,0.57071 0.4919,0.30555 0.31334,0.21628 0.6288,0.43746 0.8621,0.74371 0.25299,0.33517 0.48927,0.68236 0.73104,1.02564 0.22813,0.33316 0.44312,0.67491 0.61878,1.03925 0.1755,0.36034 0.31286,0.73609 0.42311,1.1215 0.11705,0.39571 0.20598,0.79752 0.29953,1.19922 0.11827,0.4065 0.22177,0.81617 0.24825,1.24085 0.0362,0.44689 0.087,0.8936 0.0761,1.34283 -0.0105,0.42918 -0.0593,0.85826 -0.18046,1.27152 -0.0506,0.17266 -0.16529,0.4068 -0.15407,0.58941 0.006,0.0972 0.0684,0.1865 0.0692,0.28397 8.6e-4,0.10524 -0.12053,0.33304 -0.16265,0.42141 -0.20676,0.40951 -0.43644,0.8062 -0.69088,1.18816 -0.23477,0.3343 -0.48265,0.65823 -0.75132,0.96632 -0.31836,0.353 -0.64715,0.69578 -0.98358,1.0316 -0.42251,0.4181 -0.84962,0.83263 -1.30783,1.21189 -0.4413,0.34768 -0.8978,0.67648 -1.39756,0.93653 -0.41291,0.21365 -0.83505,0.40879 -1.28844,0.52144 -0.38972,0.11 -0.78616,0.19396 -1.18791,0.24662 -0.42907,0.0583 -0.85637,0.12811 -1.28517,0.1884 -0.38801,0.063 -0.77721,0.13125 -1.17075,0.14564 -0.32282,0.006 -0.64688,0.004 -0.96693,-0.044 -0.28209,-0.0454 -0.55339,-0.13002 -0.82413,-0.22021 -0.29101,-0.0895 -0.58101,-0.18409 -0.86006,-0.30681 -0.56675,-0.27476 -0.13634,-0.07 1.12326,0.66463 0.29487,0.17196 -0.71854,-0.40279 -0.41504,-0.27163 -0.19089,-0.13424 -0.38617,-0.26083 -0.58889,-0.37673 -0.22134,-0.14039 -0.41943,-0.30852 -0.59255,-0.50619 -0.20849,-0.22529 -0.41659,-0.45088 -0.61645,-0.68395 -0.21501,-0.24881 -0.42191,-0.50446 -0.64245,-0.74849 -0.26097,-0.31897 -0.60091,-0.5741 -0.75932,-0.96456 -0.0935,-0.20172 -0.27026,-0.72698 -0.38886,-0.87324 -0.061,-0.0755 -0.14037,-0.13406 -0.21062,-0.201 0,0 -0.64483,-0.3061 -0.64483,-0.3061 z" /><path
       style="opacity:1;fill:#ff0000;stroke-width:0.461303"
       id="path1564"
       d="m 113.13203,174.92099 c 0.54576,0.31513 1.3528,0.75472 -1.22157,-0.69085 -0.21578,-0.12126 0.20519,0.14213 0.26955,0.19553 0.13863,0.11384 0.22032,0.25537 0.27478,0.42189 0.14828,0.24637 -0.13705,0.12002 -0.036,0.33068 0.0599,0.15231 0.0922,0.31329 0.12914,0.47211 0.0604,0.21601 0.13109,0.42897 0.19274,0.64468 0.11243,0.29447 0.18848,0.5993 0.25216,0.90704 0.0425,0.22857 0.0837,0.45732 0.12563,0.68597 0.0292,0.20717 0.0706,0.40969 0.13266,0.60958 0.0791,0.20934 0.12704,0.4263 0.16794,0.64536 0.0249,0.22735 0.13581,0.41792 0.17459,0.64263 0.0369,0.19829 0.0552,0.39917 0.0785,0.59927 0.0229,0.13512 0.0264,0.2695 0.0176,0.4058 -0.014,0.21818 -0.0415,0.43532 -0.0783,0.6508 -0.0387,0.27633 -0.11913,0.54354 -0.19234,0.81214 -0.095,0.36266 -0.19085,0.72481 -0.30942,1.08074 -0.11128,0.31171 -0.23611,0.61776 -0.34359,0.93088 -0.10106,0.33423 -0.30693,0.61803 -0.48083,0.91678 -0.16916,0.30668 -0.3417,0.61117 -0.53936,0.901 -0.16127,0.22692 -0.33036,0.44682 -0.51563,0.65508 -0.15811,0.18056 -0.33607,0.34073 -0.51818,0.49689 -0.18298,0.14722 -0.37395,0.28456 -0.56693,0.41861 -0.21224,0.13461 -0.42837,0.26411 -0.64825,0.38624 -0.19441,0.11617 -0.43359,0.15512 -0.61642,0.28737 -0.1195,0.14741 -0.33709,0.18048 -0.51426,0.23064 -0.15459,0.0336 -0.29548,0.10617 -0.43912,0.16897 -0.14688,0.0545 -0.28666,0.12423 -0.43892,0.16284 -0.14213,0.0158 -0.2791,0.028 -0.41625,0.0696 -0.13213,0.0387 -0.26971,0.0419 -0.40615,0.0489 -0.11809,0.006 -0.23592,-0.0123 -0.35046,-0.0387 -0.13353,-0.0535 -0.2765,-0.0739 -0.4133,-0.11604 -0.12881,-0.0569 -0.25702,-0.11476 -0.38436,-0.17476 -0.16125,-0.0435 -0.32381,-0.0672 -0.48304,-0.12336 -0.66196,-0.27749 -1.78868,-0.98569 1.05586,0.63457 -0.64499,-0.64729 -1.48587,-0.8202 -2.23712,-1.22975 -1.63841,-0.93978 5.1281,2.91995 -0.46151,-0.26714 -0.61629,-0.32768 -0.0621,-0.034 1.53719,0.87726 0.0236,0.0139 -0.0477,-0.0253 -0.0709,-0.039 -0.0815,-0.0491 -0.14249,-0.10768 -0.20742,-0.17607 -0.13933,-0.1432 -0.26396,-0.29787 -0.38092,-0.45913 -0.15951,-0.20056 -0.27876,-0.4256 -0.39703,-0.65095 -0.13266,-0.22547 -0.2464,-0.4604 -0.34269,-0.70296 -0.0281,-0.11896 -0.10147,-0.25188 -0.0887,-0.37827 0.0258,-0.25253 0.0376,0.13863 0.0202,-0.15265 -0.0498,-0.20193 -0.0275,-0.41005 -0.0321,-0.61548 -0.0123,-0.21624 -0.0205,-0.43272 -0.0271,-0.64921 -0.014,-0.2387 0.003,-0.47685 0.0377,-0.71306 0.0268,-0.22207 0.0644,-0.44136 0.15214,-0.6483 0.15495,-0.18113 0.19075,-0.44495 0.2659,-0.66929 0.0232,-0.0328 0.0406,-0.0703 0.0696,-0.098 0.0344,-0.033 0.087,-0.0451 0.11792,-0.0812 0.0293,-0.0344 0.11703,-0.26682 0.1295,-0.29432 0.0527,-0.11546 0.11278,-0.21736 0.17493,-0.32811 0.16443,-0.27951 0.36829,-0.53132 0.58915,-0.76872 0.14372,-0.14723 0.29043,-0.29111 0.42726,-0.44466 0.15844,-0.17849 0.33921,-0.33523 0.52102,-0.48974 0.25447,-0.22889 0.52769,-0.43548 0.7997,-0.6432 0.25623,-0.20536 0.50402,-0.42062 0.75513,-0.63196 0.18418,-0.17161 0.36898,-0.34088 0.57022,-0.49295 0.19623,-0.15652 0.42026,-0.26837 0.64857,-0.37095 0.19945,-0.0962 0.40638,-0.11687 0.62293,-0.0868 0.21449,0.034 0.42056,0.089 0.61259,0.18957 0.77278,0.50234 8.5e-4,-0.004 -1.94202,-1.09389 -0.0438,-0.0246 0.0843,0.0539 0.12511,0.0826 0.11337,0.08 0.21962,0.17022 0.32761,0.25711 0.74374,0.57501 1.6672,0.98598 2.44775,1.42257 0.71599,0.40046 -1.42484,-0.81327 -2.13755,-1.21938 -0.0532,-0.0305 0.1035,0.0653 0.15196,0.10234 0.14212,0.1281 0.23449,0.29581 0.3649,0.43477 0.14758,0.14512 0.25506,0.3204 0.35427,0.49953 0.11686,0.19275 0.19327,0.40188 0.25059,0.61813 0.0778,0.24918 0.0808,0.5081 0.0722,0.76602 -0.0104,0.3192 -0.0254,0.63817 -0.0441,0.95697 -0.0243,0.38729 -0.10235,0.76802 -0.20572,1.1415 -0.0889,0.29633 -0.2305,0.57263 -0.34072,0.86111 -0.1107,0.30812 -0.22731,0.61462 -0.38291,0.90363 -0.0484,0.12353 -0.16213,0.20264 -0.23598,0.30693 -0.0819,0.11557 -0.10919,0.20601 -0.22015,0.30337 -0.19911,0.10593 -0.20952,0.22884 -0.30592,0.39859 -0.0459,0.0808 -0.11739,0.13196 -0.186,0.19158 -0.17695,0.15917 -0.35832,0.31215 -0.5673,0.42859 -0.19207,0.10351 -0.37496,0.22187 -0.57128,0.31782 -0.20332,0.10339 -0.42187,0.11985 -0.64493,0.0936 -0.58367,-0.14477 -1.30646,-0.68308 1.23273,0.75896 0.0713,0.0405 -0.13512,-0.0935 -0.19476,-0.14932 -0.12142,-0.15198 -0.19199,-0.33431 -0.27186,-0.50905 -0.0731,-0.16075 -0.15882,-0.31461 -0.22516,-0.47827 -0.0538,-0.15247 -0.0905,-0.30955 -0.12002,-0.46811 -0.0256,-0.13686 -0.047,-0.27387 -0.0546,-0.41284 -0.006,-0.10167 -0.006,-0.20195 0.004,-0.30321 0.006,-0.1086 0.0521,-0.20669 0.0929,-0.30549 0.0389,-0.0907 0.0781,-0.18159 0.11633,-0.27273 0.0453,-0.0967 0.0671,-0.20126 0.10213,-0.30154 0.0375,-0.14652 0.0911,-0.28593 0.15616,-0.42263 0.0743,-0.15196 0.16617,-0.29335 0.2685,-0.42818 0.0921,-0.10384 0.17371,-0.21466 0.24745,-0.33184 0.0829,-0.12125 0.17717,-0.23459 0.27589,-0.34344 0.0768,-0.0979 0.1795,-0.15846 0.28776,-0.21581 0.37599,-0.14425 2.14267,1.11644 -0.97939,-0.66166 0.12073,0.0678 0.20156,0.18343 0.29429,0.28255 0.0943,0.10619 0.23824,0.159 0.31071,0.28292 0.0743,0.19044 0.31783,0.34165 0.46056,0.46054 0,0 0.12476,0.0633 0.12476,0.0633 v 0 c 0.0708,0.0123 0.44695,0.14985 0.44183,-0.0467 -0.014,-0.13423 0.14091,-0.10234 -0.0374,-0.23681 -0.11057,-0.0829 -0.20222,-0.18006 -0.27616,-0.29671 -0.36695,-0.21166 -1.09922,-1.00658 -1.68862,-0.71765 -0.12422,0.0672 -0.23033,0.15793 -0.31807,0.26828 -0.0943,0.12037 -0.18941,0.24041 -0.27856,0.3645 -0.0753,0.11198 -0.14917,0.22439 -0.23367,0.32991 -0.10236,0.14509 -0.19546,0.29742 -0.27387,0.45641 -0.0703,0.13862 -0.1381,0.27866 -0.20155,0.42036 -0.0324,0.0963 -0.052,0.19672 -0.0933,0.2901 -0.0434,0.0912 -0.0915,0.18077 -0.12442,0.27648 -0.0411,0.11163 -0.0963,0.21872 -0.11984,0.33584 -0.0195,0.11382 -0.026,0.2281 8.5e-4,0.34158 0.014,0.14652 0.0196,0.29472 0.0604,0.43747 0.0375,0.16776 0.0664,0.33844 0.12529,0.50033 0.0671,0.17354 0.15248,0.33782 0.24679,0.49848 0.087,0.181 0.16268,0.36752 0.26372,0.54169 0.33378,0.69329 -0.27337,-0.0336 1.63815,1.07148 0.1246,0.0722 0.23016,0.10211 0.37209,0.10201 0.25016,-0.006 0.48776,-0.0616 0.7126,-0.17232 0.19843,-0.10075 0.38883,-0.21476 0.5642,-0.35157 0.18985,-0.14669 0.36436,-0.30912 0.54073,-0.47108 0.24066,-0.19269 0.55349,-0.18632 0.78756,-0.39241 0.32928,-0.20919 0.51187,-0.20323 0.68969,-0.60254 0.14019,-0.30215 0.26002,-0.61298 0.40006,-0.91521 0.12896,-0.29445 0.23235,-0.59911 0.32178,-0.90739 0.0996,-0.38866 0.18828,-0.78066 0.22459,-1.18082 0.0331,-0.31453 0.0787,-0.62765 0.10126,-0.94304 0.006,-0.27287 0.014,-0.54797 -0.0311,-0.81834 -0.0494,-0.23212 -0.097,-0.46556 -0.21674,-0.67482 -0.0979,-0.18622 -0.18868,-0.37773 -0.31523,-0.54728 -0.126,-0.14844 -0.28107,-0.2693 -0.3639,-0.45133 -0.60843,-0.76535 -1.20462,-0.69105 -2.40994,-1.46295 -0.68812,-0.44069 1.42142,0.80839 2.13018,1.21591 0.0649,0.0372 -0.28828,-0.14283 -0.19887,-0.10454 -0.15722,-0.10757 -0.29743,-0.26359 -0.45952,-0.35909 -2.13175,-1.25571 -1.49532,-0.96848 -2.42429,-1.37954 -0.22037,-0.0727 -0.44955,-0.12143 -0.68277,-0.12494 -0.24042,0.0158 -0.465,0.0877 -0.67939,0.19613 -0.23846,0.11984 -0.47053,0.2558 -0.68405,0.41541 -0.19774,0.16161 -0.37969,0.33954 -0.56333,0.51635 -0.22964,0.21982 -0.46023,0.43991 -0.7092,0.63848 -0.27664,0.2155 -0.56653,0.41262 -0.84472,0.62612 -0.19495,0.15862 -0.39598,0.31153 -0.56399,0.49919 -0.1488,0.14811 -0.30064,0.2951 -0.41661,0.47101 -0.19773,0.27059 -0.3967,0.54143 -0.56302,0.83245 -0.0926,0.15775 -0.32185,0.46738 -0.34142,0.64431 -0.0105,0.0998 0.0583,0.20048 0.009,0.30112 -0.0765,0.23869 -0.18582,0.49288 -0.15002,0.74463 -0.0324,0.23308 -0.10281,0.45953 -0.12318,0.69474 -0.0299,0.24318 -0.0708,0.48526 -0.0743,0.73081 0.006,0.22111 0.0297,0.44078 0.0431,0.6614 0.014,0.21832 0.0254,0.43667 0.0381,0.65494 0.0677,0.20822 0.18538,0.40774 0.21866,0.6371 0.0936,0.24774 0.20637,0.48824 0.33174,0.72194 0.11757,0.2206 0.21607,0.45165 0.35762,0.65902 0.11093,0.16563 0.2163,0.33598 0.35918,0.4775 0.54632,0.61801 1.24092,0.98362 2.06322,1.30156 -3.38089,-1.92864 -0.69929,-0.38667 0.43898,0.23904 0.65587,0.31684 1.80811,0.88869 -1.05103,-0.63877 0.69362,0.39611 1.45732,0.9457 2.26237,1.21502 0.16407,0.0447 0.33434,0.0712 0.48427,0.1553 0.13195,0.0582 0.26356,0.12056 0.40561,0.15072 0.14318,0.0336 0.28225,0.0834 0.4282,0.10422 0.13038,0.0158 0.26106,0.023 0.39173,0.006 0.13933,-0.0176 0.276,-0.0482 0.41191,-0.0829 0.13667,-0.0261 0.27691,-0.0397 0.40746,-0.0911 0.14932,-0.0575 0.2986,-0.1158 0.44421,-0.18209 0.13739,-0.0589 0.27619,-0.11406 0.41906,-0.15861 0.20756,-0.0729 0.40803,-0.17513 0.63495,-0.16056 0.24514,-0.0409 0.46588,-0.16618 0.68251,-0.28324 0.22804,-0.12652 0.45658,-0.25259 0.67782,-0.39043 0.20194,-0.13493 0.39641,-0.28052 0.58468,-0.43364 0.19245,-0.16038 0.36502,-0.34294 0.52316,-0.53643 0.1776,-0.22449 0.35126,-0.45452 0.49484,-0.70196 0.17125,-0.30658 0.3435,-0.6126 0.52353,-0.91426 0.18571,-0.30662 0.37954,-0.61166 0.5204,-0.94155 0.11175,-0.31462 0.22501,-0.62872 0.33513,-0.94378 0.1034,-0.3599 0.2138,-0.71767 0.32462,-1.07537 0.0875,-0.27265 0.17717,-0.54682 0.21414,-0.83155 0.0305,-0.2151 0.0757,-0.42763 0.11546,-0.64122 0.024,-0.15335 0.0437,-0.30926 8.5e-4,-0.46157 -0.0428,-0.20008 -0.072,-0.4009 -0.0897,-0.60472 -0.003,-0.0158 -0.029,-0.1739 -0.0267,-0.1922 0.0158,-0.12949 0.0953,-0.23027 0.0242,-0.3714 -0.0401,-0.22309 -0.0815,-0.44646 -0.14423,-0.66463 -0.0613,-0.19523 -0.14671,-0.38427 -0.16776,-0.58975 -0.0319,-0.24192 -0.0771,-0.48074 -0.15178,-0.71392 -0.0716,-0.3017 -0.13881,-0.60448 -0.21781,-0.90441 -0.0576,-0.20893 -0.11024,-0.41918 -0.17056,-0.62741 -0.0439,-0.15985 -0.0539,-0.32477 -0.0977,-0.48473 -0.0676,-0.23482 -0.34468,-0.28685 -0.40788,-0.52272 -0.0538,-0.19287 -0.0969,-0.37748 -0.253,-0.5197 -0.59215,-0.5825 -1.37956,-0.96205 -2.14466,-1.27684 0,0 1.38904,1.08197 1.38904,1.08197 z" /></g></svg>
