<?xml version="1.0" encoding="UTF-8" standalone="no"?>
<!-- Created with Inkscape (http://www.inkscape.org/) -->

<svg
   width="210px"
   height="297px"
   viewBox="0 0 210 297"
   version="1.1"
   id="svg5"
   inkscape:version="1.2.2 (b0a8486541, 2022-12-01)"
   sodipodi:docname="asher.svg"
   xmlns:inkscape="http://www.inkscape.org/namespaces/inkscape"
   xmlns:sodipodi="http://sodipodi.sourceforge.net/DTD/sodipodi-0.dtd"
   xmlns="http://www.w3.org/2000/svg"
   xmlns:svg="http://www.w3.org/2000/svg">
  <sodipodi:namedview
     id="namedview7"
     pagecolor="#ffffff"
     bordercolor="#000000"
     borderopacity="0.25"
     inkscape:showpageshadow="2"
     inkscape:pageopacity="0.0"
     inkscape:pagecheckerboard="0"
     inkscape:deskcolor="#d1d1d1"
     inkscape:document-units="mm"
     showgrid="false"
     inkscape:zoom="0.50383782"
     inkscape:cx="471.38185"
     inkscape:cy="343.36446"
     inkscape:window-width="1920"
     inkscape:window-height="1011"
     inkscape:window-x="0"
     inkscape:window-y="0"
     inkscape:window-maximized="1"
     inkscape:current-layer="layer3" />
  <defs
     id="defs2" />
  <g
     inkscape:groupmode="layer"
     id="layer2"
     inkscape:label="Layer 2">
    <path
       style="fill:#e9c6af;stroke-width:0.535578"
       d="m 91.570842,24.990547 c -1.134381,-0.385086 -1.756104,0.451686 -2.792897,0.576561 -0.843478,0.101596 -1.761928,-0.213428 -2.640891,-0.172404 -0.743379,0.0347 -1.448096,0.289619 -2.183905,0.357803 -0.796415,0.0738 -1.678597,0.05548 -2.481448,0.06583 -1.054303,0.01356 -2.323801,-0.617549 -3.355574,-0.311461 -0.857546,0.25441 -1.621128,0.820072 -2.429546,1.184647 -1.191363,0.537287 -2.46906,0.91647 -3.64014,1.502593 -0.498589,0.249542 -0.925804,0.601888 -1.442328,0.821277 -1.508601,0.640755 -3.234382,0.665623 -4.706142,1.416387 -1.823653,0.930257 -3.142037,2.785844 -4.711709,4.05727 -1.177072,0.953426 -2.583773,1.575356 -3.785662,2.495356 -2.118341,1.621487 -3.710624,3.541611 -5.420819,5.566355 -0.916917,1.085532 -1.932738,2.15534 -2.693729,3.362051 -0.909509,1.442206 -1.72906,3.049185 -2.250645,4.672782 -0.433631,1.34978 -0.667147,2.797229 -1.184643,4.116584 -0.540166,1.377148 -1.166444,2.619137 -1.58787,4.037801 -0.287218,0.966855 -0.205156,1.980936 -0.516321,2.944937 -1.038878,3.218512 -2.218622,6.363768 -3.070986,9.650517 -0.769958,2.968924 -1.045457,6.144563 -1.389495,9.179599 -0.513063,4.525965 -0.854632,9.036991 -0.992766,13.595607 -0.0247,0.81356 -0.19635,1.610035 -0.212281,2.422138 -0.0583,2.961799 0.222767,5.950803 0.343897,8.908943 0.09878,2.41315 0.112548,4.77306 0.543203,7.16813 0.175906,0.97852 0.479703,1.82064 0.727652,2.77345 0.393146,1.51074 0.532333,3.11485 1.125312,4.57357 0.57798,1.42184 1.414373,2.76154 1.886364,4.21579 0.789573,2.43287 1.08926,4.96363 1.819604,7.40635 0.899003,3.00688 2.258276,5.82678 4.149964,8.33979 0.729696,0.96936 1.910148,1.55248 2.845749,2.28957 0.66403,0.52316 1.286867,1.28557 1.827013,1.93917 0.765222,0.92597 1.638699,1.7893 2.375783,2.72711 0.993717,1.2643 1.792784,2.64966 2.839252,3.87931 0.932039,1.09515 2.555434,2.41408 3.73285,3.27587 0.705668,0.51649 1.788269,0.54736 2.594542,0.7879 1.297656,0.38713 2.651625,0.99161 3.905254,1.50908 1.324052,0.54655 2.496468,1.37582 3.857968,1.86594 1.35903,0.48926 2.871639,0.65041 4.202796,1.231 0.909266,0.39659 1.704466,1.01967 2.666848,1.31721 2.202569,0.68095 4.597947,-0.86532 6.864097,-0.31795 1.202114,0.29036 2.274201,1.02271 3.447326,1.30422 1.330974,0.31938 2.727473,0.25374 4.057274,0.55618 1.494735,0.33997 2.817552,1.17478 4.289008,1.56839 0.672552,0.17996 1.323647,0.13219 2.005009,0.1919 1.29887,0.11356 2.63506,0.45981 3.92471,0.67575 0.71899,0.12044 1.37059,0.41879 2.07174,0.6016 0.50673,0.13219 0.95918,0.0881 1.46923,0.13907 1.78813,0.17894 3.4494,0.59796 5.2753,0.50332 1.15515,-0.0599 2.09198,-0.57972 3.20262,-0.79439 1.76044,-0.34027 3.49745,-0.58553 5.22244,-1.11142 1.13034,-0.34459 2.12569,-1.05685 3.30272,-1.218 1.8862,-0.25826 3.77026,-0.40918 5.65812,-0.66185 0.82265,-0.11012 1.6041,-0.41547 2.42955,-0.50334 0.78435,-0.0834 1.57939,0.10242 2.3554,-0.0121 1.07533,-0.16012 3.88215,-0.7798 4.81828,-1.29124 3.88038,-2.12 6.44802,-5.98584 9.21948,-9.26585 0.99023,-1.17191 1.90264,-2.40009 2.87913,-3.58081 0.77927,-0.94228 1.77239,-1.65847 2.53521,-2.61401 1.10818,-1.3882 2.21991,-2.97684 3.14329,-4.50129 0.8003,-1.32124 2.48116,-4.35828 2.83277,-5.76472 0.32372,-1.2949 0.46707,-2.63517 0.87411,-3.91173 0.4058,-1.27268 1.09847,-2.44107 1.52206,-3.70688 0.56158,-1.67821 0.57517,-3.47539 0.8667,-5.20856 0.23286,-1.38431 0.55423,-2.74953 0.73508,-4.14346 0.26859,-2.07039 0.27029,-4.22849 0.35687,-6.31442 0.0312,-0.74972 0.22928,-1.45261 0.29756,-2.19688 0.30242,-3.29657 0.26263,-6.73094 0.31793,-10.040748 0.0211,-1.255248 -0.1836,-2.496266 -0.13907,-3.753234 0.15465,-4.366375 1.59459,-8.505731 0.76751,-12.886498 -0.38944,-2.062695 -1.04288,-3.055076 -2.05783,-4.77195 -0.63978,-1.082217 -1.10354,-2.299814 -1.62866,-3.441765 -0.92755,-2.017069 -1.60939,-4.181441 -2.22377,-6.314417 -0.25066,-0.870279 -0.3797,-1.775881 -0.69427,-2.627901 -0.38576,-1.044789 -1.0174,-1.976847 -1.30423,-3.063578 -0.58699,-2.223904 -0.62482,-4.598999 -1.52206,-6.751934 -0.56211,-1.348829 -1.3965,-2.54505 -2.15144,-3.785662 -0.4039,-0.663706 -0.59371,-1.42247 -1.06507,-2.051359 -0.87216,-1.163571 -1.95948,-2.194878 -2.86616,-3.342578 -0.67773,-0.857931 -1.61467,-3.075235 -2.5278,-3.593797 -1.65321,-0.938876 -3.58417,-0.765203 -5.14921,-1.97905 -0.71437,-0.554057 -0.85337,-1.119778 -1.2968,-1.86039 -0.50236,-0.838995 -1.47978,-1.882534 -2.33036,-2.356316 -1.64599,-0.91681 -3.60771,-0.821123 -5.32072,-1.587868 -1.46713,-0.656684 -2.7216,-1.676576 -4.20929,-2.309967 -1.90485,-0.811006 -3.94291,-1.234615 -5.87688,-1.979044 -1.0658,-0.410257 -1.95553,-1.245487 -3.01166,-1.68149 -1.78772,-0.738024 -3.97039,-0.854282 -5.86392,-1.250465 -1.3881,-0.290433 -2.66503,-0.925978 -4.0174,-1.3311 -2.76405,-0.828005 -5.465,-0.816554 -8.29252,-1.131812 -1.34245,-0.149672 -2.50295,-0.615171 -3.865398,-0.350387 -1.315874,0.255734 -2.624885,0.504971 -3.931205,0.813866 -0.117203,0.02769 -0.95892,0.309677 -1.03912,0.09919 -0.18623,-0.489004 0.311955,-1.512832 0.403227,-2.005002"
       id="path952" />
    <path
       style="fill:#008000;stroke-width:0.535578"
       d="m 83.119836,83.078034 c -0.416411,0.08178 -1.049027,0.05121 -1.396918,0.409725 -0.536349,0.552738 -1.829151,4.902918 -2.105112,5.84443 -0.672008,2.292729 -1.930221,4.204132 -2.388757,6.651816 -0.307785,1.64299 -0.284739,5.484505 0.0065,7.068955 0.207478,1.12875 0.775105,2.24995 1.098438,3.35555 0.375115,1.28263 0.947563,4.00059 2.653869,4.21022 2.686488,0.33004 2.476102,-1.75361 3.56135,-3.38245 0.535927,-0.80435 1.161623,-1.62662 1.528548,-2.52872 1.202829,-2.95722 2.403278,-10.438264 2.151464,-13.720762 -0.119835,-1.561697 -1.188108,-4.700434 -2.237672,-5.857405 -0.730101,-0.804815 -2.004617,-1.458906 -2.871696,-2.051359 z"
       id="path1064" />
    <path
       style="fill:#008000;stroke-width:0.535578"
       d="m 120.50663,83.501666 c -0.33989,-0.08846 -0.93129,-0.605003 -1.01965,-0.265114 -0.0885,0.339869 1.37075,0.272199 1.01965,0.265114 -0.5613,-0.01215 -1.10517,-0.199995 -1.66111,-0.27809 -0.16659,-0.02348 -2.43628,1.458481 -2.64087,1.740801 -0.37018,0.510836 -0.36429,1.313809 -0.5358,1.899339 -0.27119,0.925885 -0.76988,1.743757 -1.07248,2.66035 -0.34825,1.05491 -0.40116,2.300968 -0.58861,3.395431 -0.23167,1.352613 -0.63777,2.713688 -0.73508,4.084155 -0.071,1.000033 0.0741,2.012109 0,3.011678 -0.0565,0.7618 -0.38096,1.48577 -0.43658,2.25062 -0.19291,2.65343 0.65822,5.60321 2.01148,7.86891 0.94406,1.58062 2.32107,2.25751 4.1166,1.82054 0.93524,-0.22761 1.62621,-0.59446 2.11808,-1.45624 0.36027,-0.63121 0.43398,-1.41532 0.63589,-2.10512 0.67286,-2.29854 1.17363,-4.4206 1.28383,-6.8372 0.0605,-1.32779 -0.0579,-2.659962 -0.11315,-3.984034 -0.0561,-1.343282 0.22026,-2.762735 0.3643,-4.097131 0.19858,-1.840312 -0.0387,-3.820843 -0.68132,-5.572838 -0.30871,-0.841495 -0.77965,-1.752076 -0.84724,-2.647375"
       id="path1066" />
    <path
       style="fill:#ffcc00;stroke-width:0.535578"
       d="m 164.05578,86.962904 c 0.32414,0.255843 0.71654,1.091629 0.97238,0.767509 0.25584,-0.324121 -0.67164,-0.484562 -0.97238,-0.767509 -1.05744,-0.994952 -1.85335,-2.32793 -2.9718,-3.249908 -0.24922,-0.20544 -0.57079,-0.31408 -0.80736,-0.529277 -0.8019,-0.729412 -1.40187,-1.789382 -2.09122,-2.621424 -1.80226,-2.175323 -3.19412,-3.130721 -4.31589,-5.863903 -0.49142,-1.197375 -0.89014,-2.434 -1.40249,-3.627164 -0.39922,-0.929772 -1.03633,-1.803876 -1.35705,-2.766035 -0.25428,-0.762833 -0.7206,-2.642071 -1.34964,-3.190578 -0.41506,-0.361913 -0.9946,2.574198 -1.0725,2.799415 -0.19088,0.551725 -0.46484,1.038857 -0.80736,1.509066 -0.93524,1.283911 -2.26308,2.233905 -3.21003,3.501096 -0.7367,0.985822 -1.91345,3.997113 -3.30274,4.037821 -0.82504,0.02409 -0.85816,-1.419353 -1.03263,-1.952172 -0.35256,-1.076589 -1.05899,-1.925087 -1.64813,-2.872631 -1.34162,-2.157834 -2.76735,-4.257107 -4.13605,-6.394111 -0.27204,-0.424745 -1.54573,-2.585271 -1.87987,-2.700207 -0.46853,-0.161129 -0.57913,0.912322 -0.62846,1.085455 -0.50418,1.768918 -1.65882,3.46138 -2.56119,5.063015 -0.22137,0.392924 -1.88948,2.923359 -2.27659,2.389689 -0.71162,-0.981065 -0.76069,-2.796742 -1.18464,-3.918229 -0.81834,-2.164757 -2.1782,-4.133992 -2.92547,-6.314416 -0.70131,-2.04636 -0.62297,-4.364209 -2.12457,-6.076165 -0.18562,-0.211633 -0.31046,0.4761 -0.40416,0.741558 -0.21503,0.609295 -0.45132,1.185392 -0.76101,1.753797 -1.17124,2.149656 -2.3069,3.295332 -3.73933,5.123256 -0.65045,0.830037 -1.13962,1.777136 -1.78068,2.607537 -0.23867,0.309162 -0.6937,1.126527 -1.16426,1.065982 -0.4952,-0.06376 -1.56932,-2.493593 -1.83351,-2.952345 -0.57144,-0.9923 -1.34678,-2.013385 -1.78715,-3.064489 -0.83249,-1.987008 -1.50512,-4.006485 -2.40267,-5.969588 -0.91009,-1.990531 -1.10462,-4.880388 -3.33519,-5.943617 -0.79271,-0.377864 -1.29772,1.187537 -1.54893,1.634225 -1.66163,2.954673 -3.940796,5.333149 -5.088962,8.565041 -0.177728,0.500492 -0.872688,2.37131 -1.740821,1.852964 -0.851839,-0.508569 -2.158705,-7.195363 -2.647375,-8.683682 -0.07753,-0.235904 -0.89378,-2.239147 -0.959406,-2.217265 -0.140684,0.04696 -0.07996,0.285599 -0.113155,0.430089 -0.349241,1.525524 -0.65322,3.038902 -1.085455,4.546714 -0.27645,0.964365 -0.743056,1.849725 -1.091953,2.78735 -1.206585,3.242459 -2.714802,5.999527 -4.599536,8.888534 -1.067312,1.636027 -1.969193,3.440287 -3.183157,4.976823 -0.812199,1.028007 -1.22452,-1.511334 -1.297734,-1.83258 -0.283701,-1.244843 -0.501885,-2.506184 -0.946421,-3.706899 -0.38779,-1.04746 -2.02626,-4.057335 -3.441773,-3.911732 -0.599088,0.06154 -1.257302,2.426794 -1.488689,2.945848 -1.567822,3.517026 -4.169036,6.512569 -6.3867,9.630113 -0.658457,0.925641 -1.415348,2.868765 -2.468476,3.45476 -0.522977,0.290984 -0.293713,-2.387645 -0.29848,-2.667779 -0.0247,-1.450708 0.01397,-5.828074 -1.16425,-6.928974 -0.09886,-0.09231 -0.412701,-0.02287 -0.543195,-0.03988 -1.198191,-0.156473 -1.108267,1.186606 -1.422871,2.183906 -0.634302,2.010732 -1.381425,4.099155 -2.395248,5.950115 -0.85264,1.556677 -1.917013,3.023234 -2.701142,4.613432 -0.152203,0.308676 -0.71293,2.282183 -1.296808,2.210788 -0.427488,-0.05222 -0.571184,-1.319497 -0.621982,-1.575826 -0.515034,-2.59857 -1.031188,-5.352581 -1.966068,-7.822552 -0.149632,-0.395333 -0.240993,-2.403454 -0.641452,-2.423049 -0.644558,-0.03158 -1.827286,2.04146 -2.071741,2.429547 -0.775844,1.231665 -1.330537,2.547782 -2.025392,3.819041 -1.001538,1.832358 -2.236345,3.536621 -3.216524,5.387459 -0.901256,1.701794 -1.550758,3.41545 -2.71968,4.970305 -0.781501,1.039526 -1.449747,2.09484 -2.197807,3.157219 -0.114551,0.162748 -0.57521,0.746962 -0.807374,0.443995 -1.144299,-1.493298 -0.01498,-6.126345 0.178902,-7.869818 0.489502,-4.400199 0.806121,-8.834244 1.171669,-13.237824 0.218409,-2.631059 0.295421,-5.217484 0.906564,-7.803079 0.340982,-1.442631 0.994055,-2.797471 1.482193,-4.189841 0.340156,-0.970235 0.517835,-2.030813 0.913049,-2.971798 0.468539,-1.115576 1.039037,-2.191092 1.509079,-3.309218 0.994221,-2.365035 1.641172,-4.762639 2.885606,-7.029093 0.714059,-1.300494 2.032987,-2.208106 3.018156,-3.270282 0.815655,-0.879415 1.495711,-1.875318 2.389689,-2.687238 0.686971,-0.623918 1.455702,-1.163777 2.131062,-1.800139 0.880533,-0.829704 1.650894,-1.769509 2.594542,-2.541708 1.858838,-1.521113 3.841484,-2.784 5.817556,-4.129573 0.784002,-0.533854 1.527276,-1.152875 2.382264,-1.575822 1.474989,-0.729646 3.248151,-1.295737 4.871136,-1.574891 0.735676,-0.126535 1.478796,0.134207 2.210784,-0.139045 1.755294,-0.655258 3.336108,-1.730627 5.010182,-2.56766 0.92767,-0.463839 2.012469,-0.54816 2.951418,-0.861141 0.751643,-0.25055 1.255198,-1.101536 2.51482,-1.20411 1.066937,-0.08688 2.057806,0.329355 3.117343,0.304038 1.571028,-0.03755 2.985644,-0.122385 4.553191,0.185399 0.728218,0.142992 1.369637,0.665967 2.078221,0.75454 1.346662,0.168335 2.665552,0.221939 3.977559,0.708196 2.240562,0.830398 4.368222,2.209347 6.790872,2.535216 1.95802,0.263369 3.69554,-1.12478 5.43379,-1.740819 2.27141,-0.804985 5.17252,-1.160374 7.55189,-0.628474 2.23352,0.499298 4.08746,1.905262 6.34035,2.455499 1.76007,0.429867 3.83959,0.147101 5.47921,1.018718 1.47006,0.781484 2.61967,2.045607 3.93214,3.038552 2.30516,1.743957 4.80871,3.412697 6.81681,5.499612 1.22381,1.271838 2.03806,2.872955 3.32219,4.097133 1.11291,1.060928 3.36465,2.599291 4.7321,3.501099 1.06242,0.70063 2.35452,1.307455 3.05153,2.429549 1.0175,1.638071 1.35784,3.756797 2.60752,5.262301 0.32228,0.388268 0.76089,0.571745 1.15128,0.866696 0.72545,0.548142 1.35535,1.706935 1.76677,2.50833 0.57235,1.114928 1.0987,2.425964 1.3376,3.660544 0.0895,0.462679 0.0464,0.982847 0.23821,1.422875 0.0974,0.223111 0.31533,0.309424 0.4366,0.509823 0.26328,0.43511 0.23824,1.010154 0.44957,1.475708 0.21993,0.484439 0.7373,0.713239 1.00667,1.158692 0.27736,0.458691 0.42555,0.974709 0.72765,1.422874 0.33161,0.491889 0.77955,0.910258 1.0521,1.442348 0.87754,1.713211 1.13106,3.440875 1.62218,5.262301 0.23446,0.869651 0.56656,1.67809 0.62198,2.588044 0.0484,0.795059 -0.13299,1.59204 -0.0528,2.382281 0.13826,1.362613 0.76951,5.385111 0.1251,6.472914"
       id="path1068" />
    <path
       style="fill:#333333;stroke-width:0.535578"
       d="m 71.947276,203.1759 c -1.281989,2.6818 -1.393085,5.81289 -1.574897,8.74303 -0.06243,1.00604 0.121859,1.99634 -0.01295,3.00518 -0.117851,0.88179 -0.550254,1.67102 -0.661842,2.54169 -0.327023,2.55154 -0.260964,5.11524 -0.476454,7.66405 -0.08036,0.95048 -0.236508,1.82784 -0.218763,2.79292 0.02245,1.21986 -0.11856,2.4458 -0.06581,3.65404 0.07174,1.64336 0.259375,3.29926 0.224322,4.94436 -0.03589,1.68428 -0.420302,3.31203 -0.251204,4.9898 0.09046,0.8976 0.314418,1.78839 0.33741,2.68723 0.0248,0.96997 -0.164206,1.903 -0.211345,2.86613 -0.08263,1.68799 0.02593,3.42132 0.09919,5.10937 0.03577,0.82382 -0.166372,1.7242 -0.05285,2.53521 0.14787,1.05625 0.354166,2.22119 0.44957,3.30922 0.184105,2.09972 0.272051,6.50113 1.734326,8.06819 1.025515,1.09902 5.170767,1.3543 6.525749,1.22452 0.635044,-0.0609 1.209502,-0.3648 1.81312,-0.54877 1.206723,-0.36772 2.720697,-0.6568 3.653124,-1.5619 0.602317,-0.58468 1.074868,-1.3104 1.681491,-1.90674 0.970553,-0.95411 1.86736,-2.20101 2.303475,-3.49462 0.209154,-0.62039 0.300937,-1.30697 0.63496,-1.87987 0.453914,-0.7785 1.048695,-1.40449 1.462732,-2.21076 0.764776,-1.48929 1.135433,-6.14404 1.522062,-8.04781 0.644516,-3.1736 1.457347,-6.31446 2.183906,-9.46512 0.1587,-0.68796 0.573405,-1.273 0.708178,-1.97256 0.53541,-2.77882 0.409402,-5.62318 0.800888,-8.41858 0.267523,-1.91027 0.897526,-3.74868 1.35057,-5.59323 0.122668,-0.4995 0.139874,-1.08084 0.324444,-1.55544 0.02024,-0.0506 0.350881,0.12996 0.409705,0.12611 0.242442,-0.0162 0.35748,-0.21892 0.648868,-0.0733 0.761537,0.38076 0.921249,0.15324 1.635136,0.23174 1.093773,0.12024 2.064313,0.49035 3.210053,0.49035 1.28918,0 2.58752,-0.75441 3.75878,-0.68223 1.10404,0.068 2.18361,-0.1674 3.28977,-0.18542 1.00366,-0.0162 1.98998,0.12935 2.99127,-0.0121 0.96655,-0.13745 2.08751,-0.82927 3.04413,-0.66834 0.25145,0.0423 0.47638,1.33348 0.54968,1.50908 0.43531,1.04301 0.45446,2.15114 0.80736,3.07749 0.33775,0.88657 1.12017,1.90268 1.06507,2.86613 -0.13076,2.28568 0.39773,3.79989 0.71468,5.96959 0.31262,2.13992 0.70014,4.29218 0.84075,6.44046 0.031,0.47254 0.271,0.93014 0.35132,1.39598 0.16639,0.96531 0.2675,1.9797 0.31052,2.95884 0.0941,2.14134 -0.27807,4.3264 -0.27807,6.47291 0,2.6378 0.57533,5.12587 1.02613,7.70483 0.22877,1.30879 0.20161,2.68417 0.87412,3.87837 0.53128,0.94331 1.41314,2.22769 2.28957,2.87911 0.80362,0.59731 2.21897,0.51626 3.14329,0.50982 0.56242,-0.004 1.10621,0.10465 1.66852,0.0259 1.20729,-0.16902 2.06146,-0.81973 3.10993,-1.33018 0.47906,-0.23324 1.04206,-0.32317 1.50259,-0.58213 0.66577,-0.37439 1.23361,-1.02435 1.7538,-1.56192 0.31717,-0.32777 0.74823,-0.45805 1.07248,-0.76844 0.87175,-0.83451 1.52196,-1.85932 2.1839,-2.85223 0.25682,-0.38525 0.7652,-0.74322 0.95291,-1.15128 0.48673,-1.05811 0.90151,-4.24642 1.01965,-5.36799 0.14858,-1.41081 -0.2049,-2.87927 -0.0927,-4.31589 0.0903,-1.15654 0.40984,-2.35311 0.64239,-3.48812 0.0777,-0.37942 0.38027,-0.70306 0.4162,-1.07898 0.14048,-1.46963 -0.29695,-3.01412 -0.20485,-4.51333 0.12833,-2.08834 0.34296,-4.18355 0.43009,-6.27454 0.0917,-2.20202 -0.26848,-4.42955 -0.31145,-6.63884 -0.0251,-1.28705 0.34833,-2.50952 0.25861,-3.81254 -0.0984,-1.42919 -0.58702,-2.86689 -0.67481,-4.30849 -0.0743,-1.21976 -0.0459,-2.49499 -0.20579,-3.70687 -0.0891,-0.67523 -0.4714,-1.31157 -0.51632,-1.97906 -0.15829,-2.35362 -0.35509,-4.85711 -0.87317,-7.14123 -0.15546,-0.68563 0.0712,-1.47458 0.11862,-2.15146 0.0142,-0.20329 -0.19231,-0.46315 -0.23081,-0.67482 -0.0338,-0.18501 0.16316,-0.58674 0.10567,-0.70172 -0.0405,-0.081 -1.30134,0.67923 -1.48961,0.66834 -1.01028,-0.0585 -4.02692,1.0206 -4.64589,0.82777 -0.93286,-0.29062 -1.58896,0.17449 -2.44902,0.26418 -0.70153,0.0731 -1.44202,-0.15748 -2.14402,-0.006 -0.78107,0.16781 -1.51931,0.56525 -2.297,0.72209 -0.85982,0.17347 -1.59229,-0.10344 -2.44807,-0.0334 -0.5508,0.0449 -1.04275,0.47644 -1.60178,0.47644 -0.43159,0 -0.86188,-0.18967 -1.29033,-0.21133 -1.40443,-0.0713 -2.84336,0.33768 -4.23617,0.43659 -0.87939,0.0625 -1.79552,0.0269 -2.66683,0.16497 -0.92637,0.14696 -1.88027,0.40738 -2.83277,0.33092 -1.10139,-0.0885 -2.13865,-0.56358 -3.25639,-0.58213 -0.65241,-0.0101 -1.28061,0.21874 -1.95217,0.16498 -0.96937,-0.0775 -1.90693,-0.67533 -2.87264,-0.74063 -1.11209,-0.0753 -2.21848,0.36337 -3.336078,0.36337 -0.88955,0 -1.782116,-0.27384 -2.666848,-0.26418 -0.813479,0.008 -1.593356,0.18886 -2.402665,0.20485 -1.264802,0.0251 -2.498978,-0.3479 -3.752303,-0.40322 -0.946552,-0.0417 -1.860838,0.14655 -2.799414,0.18542 -1.938215,0.0804 -3.75155,0.23462 -5.646057,0.54875 -0.8386,0.13906 -1.84092,-0.57764 -2.626983,-0.80089 -2.478705,-0.70395 -5.184551,-1.11212 -7.677949,-0.31054 z"
       id="path2005" />
  </g>
  <g
     inkscape:groupmode="layer"
     id="layer3"
     inkscape:label="Layer 3">
    <path
       style="fill:#ffffff;stroke-width:0.535578"
       d="m 139.93832,256.7547 c -1.32496,0.56614 -2.80935,0.33791 -4.18982,0.58211 -0.53263,0.0943 -1.11009,0.3708 -1.64811,0.3708 -0.74093,0 -1.45864,-0.27379 -2.19688,-0.30497 -1.17418,-0.0496 -2.32016,0.20245 -3.49461,0.17247 -0.74255,-0.0182 -1.46438,-0.22226 -2.20429,-0.23824 -0.72553,-0.0162 -1.42674,0.40109 -2.14405,0.457 -0.7118,0.0555 -1.40478,0.065 -2.1116,0.10566 -0.73346,0.0423 -0.39485,2.86941 -0.38376,3.43529 0.0162,0.85995 -0.71271,5.35997 -0.62846,5.64512 0.19514,0.66013 0.60737,1.53953 1.1114,2.02541 0.30279,0.29185 0.73585,0.48171 0.96682,0.84075 0.32337,0.50265 0.53968,1.24605 1.05859,1.60177 0.50163,0.34388 1.20448,0.43491 1.78716,0.49035 0.42268,0.0403 0.76967,0.26265 1.19114,0.30404 1.15851,0.11376 2.69213,-0.54885 3.7393,-0.97979 0.3702,-0.15242 0.78356,-0.0672 1.12534,-0.3643 0.48178,-0.41885 0.8123,-1.07892 1.21152,-1.57487 0.50705,-0.62992 1.11137,-1.13665 1.71394,-1.66761 1.15191,-1.01495 2.27091,-2.3656 2.93844,-3.75323 0.54343,-1.12965 0.75107,-2.22508 1.10493,-3.40839 0.38406,-1.28431 0.82042,-2.39606 1.053,-3.73932 z"
       id="path1135" />
    <path
       style="fill:#ffffff;stroke-width:0.535578"
       d="m 69.260036,258.25543 c 0.330924,0.002 0.990607,0.33742 0.992771,0.006 0.0022,-0.3309 -1.319628,-0.0583 -0.992771,-0.006 0.563536,0.0891 1.139299,0.0674 1.707447,0.11963 0.219812,0.0202 0.456546,0.21994 0.674819,0.27807 1.02906,0.2741 1.920877,0.64897 3.011668,0.68132 0.436547,0.0121 0.838661,0.27491 1.277333,0.29754 0.839004,0.0433 1.631735,-0.2939 2.461995,-0.32442 0.765929,-0.0281 1.562,0.27786 2.316452,0.20578 0.658504,-0.063 1.491072,-0.0372 2.131074,-0.1919 0.517617,-0.12509 1.028695,-0.34632 1.555421,-0.42361 0.794533,-0.11659 1.631715,0.0318 2.415641,-0.14554 0.655609,-0.14838 1.180474,-0.57772 1.760276,-0.86763 0.147971,-0.0739 0.06538,1.8055 0.06032,1.9327 -0.06761,1.65014 -0.250094,3.39112 -1.091955,4.83869 -1.625845,2.79567 -4.55562,4.26891 -7.347019,5.685 -0.300154,0.15222 -0.675568,0.16842 -0.965884,0.32445 -0.805787,0.43324 -1.580421,0.99138 -2.522236,1.14478 -1.408361,0.22939 -2.096451,-0.84064 -3.031121,-1.60825 -0.66154,-0.54333 -1.477934,-0.96469 -2.157024,-1.52856 -1.786075,-1.48308 -3.138257,-4.30674 -2.720601,-6.59899"
       id="path1137" />
    <path
       style="fill:#ffffff;stroke-width:0.535578"
       d="m 70.623582,156.3138 c -1.390556,2.03771 -1.092398,4.68748 -2.07081,6.85667 -0.746446,1.65491 -1.17762,3.51178 -1.80107,5.22246 -0.470131,1.28998 -1.122483,2.51066 -1.535034,3.80607 -0.07917,0.24857 -1.495415,6.07381 -1.44234,6.19482 0.338712,0.77225 0.876737,0.75704 1.495175,1.231 0.319602,0.24491 0.467084,0.79862 0.887096,0.93993 0.416626,0.14008 0.841254,0.0506 1.270853,0.19838 0.480745,0.16538 0.869261,0.57917 1.376522,0.7017 1.010595,0.2441 1.966865,0.004 2.858727,0.72117 0.668187,0.53705 2.95161,-0.30564 3.14422,0.67575 0.277768,1.41529 -0.604179,3.57773 -0.860212,5.03613 -0.224285,1.2776 -0.06253,2.66665 -0.139045,3.96459 -0.07119,1.20782 -0.372678,2.50037 -0.648864,3.68 -0.270725,1.15626 -1.439961,5.13609 -0.83426,6.13549 0.148498,0.24504 0.714832,0.22322 0.960325,0.37078 0.814127,0.4894 3.060681,1.33778 4.102692,1.27086 0.916087,-0.0589 1.838454,-0.37505 2.766956,-0.26419 1.804338,0.21546 4.147156,1.5536 5.963085,1.44885 1.590985,-0.0917 3.07821,-0.73227 4.619928,-1.04562 1.079261,-0.21937 2.154817,-0.24505 3.223026,-0.4097 0.564883,-0.0871 1.131203,-0.40185 1.707441,-0.41714 1.374638,-0.0364 2.50744,0.43851 3.819042,0.68132 0.676495,0.1253 1.364335,0.0514 2.031885,0.13906 1.29383,0.16963 2.55639,0.70822 3.87838,0.77403 0.87222,0.0435 1.68507,-0.41655 2.5278,-0.56915 1.18999,-0.21552 2.40585,-0.2619 3.60029,-0.46997 0.7668,-0.1336 1.51202,-0.46683 2.28307,-0.55525 0.49276,-0.0565 3.98029,0.59403 4.60048,0.80737 0.54753,0.18845 0.89932,0.47822 1.51556,0.46349 1.53228,-0.0366 3.04631,0.002 4.55319,-0.3643 0.9221,-0.22397 1.81463,-0.80429 2.77345,-0.82035 0.57383,-0.0101 1.50143,0.0213 2.03188,0.29107 0.38711,0.19696 0.63294,0.45509 1.10493,0.44956 1.65234,-0.0202 3.44207,-0.62949 5.06949,-0.91953 0.97716,-0.17408 2.02626,0.006 2.99777,-0.17894 0.63929,-0.12186 0.12793,-1.67169 0.14655,-2.09862 0.0267,-0.61138 0.2456,-1.17135 0.27716,-1.76678 0.0437,-0.82329 0.25771,-1.66847 0.0603,-2.48888 -0.15303,-0.63558 -0.62885,-1.1712 -0.7017,-1.83998 -0.13481,-1.23821 0.20983,-2.45983 -0.0593,-3.71988 -0.1591,-0.74506 -0.61387,-1.40561 -0.74805,-2.15052 -0.0984,-0.54586 0.0723,-1.09562 0.0723,-1.64164 0,-1.18762 -0.14655,-2.44129 -0.37078,-3.60028 -0.0484,-0.25005 0.10972,-0.43954 0.25214,-0.61549 0.15668,-0.19352 0.28825,-0.49132 0.46995,-0.66184 0.37205,-0.3492 2.00729,-0.13502 2.60754,-0.6359 1.07626,-0.89793 2.03403,-1.86869 3.18962,-2.68075 0.38341,-0.26941 1.33699,-0.4747 1.5953,-0.85372 1.63949,-2.4056 0.0484,-3.02402 -0.61549,-5.44029 -0.30175,-1.09833 -0.66854,-3.32153 -1.29033,-4.27604 -0.41237,-0.63303 -1.11322,-1.01863 -1.45625,-1.67408 -0.33434,-0.63889 -0.36477,-1.76258 -0.67482,-2.23765 -0.63014,-0.96556 -1.17535,-0.0368 -1.27733,-2.04486 -0.0543,-1.06841 -0.14818,-2.12326 -0.43011,-3.1572 -0.12732,-0.46693 -0.0318,-1.31613 -0.0528,-1.29773 -0.33661,0.29452 -0.22479,0.86155 -0.7082,1.12533 -0.77518,0.42296 -1.81651,0.3877 -2.65478,0.64885 -0.82494,0.25699 -1.57709,0.70639 -2.41565,0.93993 -1.11185,0.30967 -2.25345,0.54962 -3.31571,1.02615 -2.08283,0.93432 -3.87513,2.0851 -6.14847,2.58804 -0.77334,0.17105 -1.6523,0.38092 -2.44161,0.44308 -0.61031,0.0482 -1.20966,-0.0937 -1.81404,-0.0269 -1.2229,0.13522 -2.39459,0.38206 -3.62623,0.43104 -0.7737,0.0308 -1.53872,-0.17651 -2.30998,-0.15303 -1.70657,0.052 -2.83975,1.35029 -3.77268,1.33759 -1.35911,-0.0182 -4.00823,-0.13319 -5.29475,-0.44401 -0.82921,-0.2004 -2.36917,-0.83178 -3.10439,-0.92603 -0.8363,-0.10728 -1.49927,0.13158 -2.316457,0.13158 -1.036226,0 -2.367706,-0.20441 -3.381524,-0.39675 -1.169056,-0.2218 -2.338982,-0.46991 -3.481622,-0.80737 -0.340456,-0.1006 -0.600894,-0.35428 -0.946431,-0.45049 -0.725506,-0.20202 -1.513196,-0.18745 -2.23024,-0.38378 -0.642371,-0.1759 -1.233974,-0.51988 -1.905819,-0.62198 -0.713686,-0.1085 -1.503466,-0.18056 -2.191314,-0.41712 -1.358122,-0.46719 -2.697442,-1.13883 -4.043368,-1.6676 -0.369763,-0.14534 -0.776186,-0.16356 -1.138298,-0.32443 -0.879961,-0.39069 -1.858767,-1.06256 -2.813303,-1.21802 -0.813062,-0.13238 -1.522544,0.13967 -2.316452,0.11963 -0.08162,-0.002 -3.321156,-0.99962 -3.335177,-1.01317 -0.376957,-0.3642 -0.74589,-0.73661 -1.118835,-1.10492 z"
       id="path2012" />
    <path
       style="fill:#e9c6af;stroke-width:0.535578"
       d="m 139.03827,181.98113 c 1.03712,-0.61873 1.75141,-1.6467 2.73357,-2.32943 0.283,-0.19675 0.63303,-0.24234 0.90007,-0.46349 1.11813,-0.92586 2.18605,-1.87365 3.36855,-2.71411 0.0597,-0.0425 0.91252,-0.8566 0.99926,-0.7017 0.0866,0.15465 0.0101,0.35598 0.0862,0.5228 0.336,0.74117 0.81754,1.41911 1.15128,2.16443 0.34475,0.76996 0.52288,1.67993 0.92046,2.42305 0.54972,1.02752 1.07126,1.81454 1.39599,2.97831 0.38147,1.36703 0.55122,2.77472 0.8806,4.14997 0.11964,0.49946 0.41604,0.93238 0.55525,1.42935 0.79142,2.82512 1.33851,5.76004 0.72211,8.6772 -0.13765,0.65146 -0.40171,1.72093 -0.92046,2.19041 -0.59422,0.53774 -1.19365,0.69899 -1.95217,0.74156 -2.83857,0.15931 -2.39941,-0.71267 -4.19632,-2.83278 -0.49811,-0.58769 -1.17874,-1.23006 -1.46921,-1.95865 -0.66341,-1.66388 -0.88893,-3.51328 -1.66759,-5.13625 -0.16153,-0.33681 -0.45256,-0.57871 -0.65536,-0.90005 -1.32675,-2.10229 -2.99765,-4.12855 -3.22301,-6.6852 -0.037,-0.41997 0.35602,-1.50099 0.37078,-1.55542 z"
       id="path2018" />
    <path
       style="fill:#e9c6af;stroke-width:0.535578"
       d="m 64.323088,180.1541 c -0.01113,-0.33093 0.297551,-1.00388 -0.03336,-0.99277 -0.330922,0.0122 -0.256697,0.83311 0.03336,0.99277 0.435292,0.2396 0.985995,-0.13239 1.482197,-0.1585 0.205053,-0.0101 0.477491,0.26817 0.695213,0.31052 0.975971,0.18987 1.981299,0.28863 2.925466,0.62941 0.62946,0.22718 1.191758,0.62563 1.819607,0.8602 0.321507,0.12004 0.779261,0.12388 1.039114,0.38375 0.226291,0.22631 0.161514,1.29513 0.165926,1.60178 0.02545,1.76663 -0.939202,3.23325 -1.469221,4.83871 -0.31603,0.95728 -0.502883,1.96705 -0.874113,2.90506 -0.778705,1.96758 -1.658399,3.89959 -2.448081,5.86483 -0.758551,1.88777 -0.898835,3.96331 -1.681493,5.81755 -0.529151,1.25365 -3.377793,4.98452 -4.606029,5.71189 -0.397534,0.23541 -0.808483,0.16457 -1.198551,-0.0464 -2.126831,-1.1498 -2.033574,-6.98968 -1.488689,-8.8691 0.540088,-1.86282 0.279365,-3.91222 0.522805,-5.84443 0.261893,-2.07865 1.497039,-3.95378 2.309967,-5.84443 0.627891,-1.46032 0.957374,-3.06595 1.402477,-4.58657 0.245232,-0.83779 0.850376,-1.63283 1.019651,-2.4555"
       id="path2020" />
  </g>
  <g
     inkscape:label="Layer 1"
     inkscape:groupmode="layer"
     id="layer1">
    <path
       style="fill:#000000;stroke-width:0.535578"
       id="path192"
       d="m 87.472324,23.733016 c -2.403507,-0.247133 -4.800467,0.0079 -7.169943,0.409691 -3.733443,0.739141 -7.304493,2.091285 -10.794115,3.580182 -4.269044,1.84681 -8.184133,4.307815 -11.781396,7.237831 -3.243947,2.829076 -6.154591,6.017136 -8.879188,9.342303 -2.407865,2.846816 -3.972161,6.038609 -5.152187,9.543672 -1.235894,3.748861 -2.008246,7.629015 -2.832102,11.48346 -0.999903,4.023328 -1.742505,8.096796 -2.320687,12.199635 -0.755772,4.057537 -0.801633,8.203877 -1.019797,12.314895 -0.491527,4.848466 -0.326307,9.708268 -0.08559,14.564325 0.355275,5.31716 0.902632,10.63739 1.993846,15.85643 1.162688,5.61013 3.329174,10.88966 5.997355,15.93318 2.815457,4.89095 6.614441,9.02952 10.795147,12.77126 5.899746,4.67954 12.735662,7.96313 19.738514,10.62241 5.608087,1.9531 11.40656,3.29225 17.197214,4.57627 5.29728,1.19806 10.68975,1.86183 16.10107,2.24378 4.68827,0.29867 9.37751,-0.006 14.02608,-0.6177 4.44477,-0.55715 8.6373,-2.04668 12.70359,-3.8613 4.46679,-2.08173 8.64825,-4.69503 12.72348,-7.45 2.83662,-1.91187 5.39054,-4.16498 7.53139,-6.82946 1.16693,-1.5072 2.01249,-3.21726 2.86549,-4.91158 1.09697,-2.07504 1.9799,-4.24822 2.84042,-6.42869 1.29322,-3.27903 2.31605,-6.6522 3.21234,-10.05817 1.06703,-3.99098 1.58058,-8.09103 1.95936,-12.19502 0.35584,-4.02149 0.62401,-8.0488 0.74222,-12.08424 0.0905,-3.532204 -0.0231,-7.06346 -0.26509,-10.587166 -0.23149,-2.912793 -0.54545,-5.817974 -0.96453,-8.709612 -0.476,-2.947447 -1.096,-5.868397 -1.78732,-8.77202 -0.65992,-2.873947 -1.51469,-5.693199 -2.48889,-8.474396 -1.05552,-3.040157 -2.08318,-6.086751 -3.29938,-9.067334 -1.12718,-2.69458 -2.60633,-5.20455 -4.2666,-7.599198 -1.8303,-2.594279 -4.11892,-4.784576 -6.51427,-6.84553 -3.66247,-3.086728 -7.9268,-5.287119 -12.07201,-7.634363 -2.08373,-1.062411 -4.25808,-1.925358 -6.41366,-2.826586 -1.75821,-0.77014 -3.51998,-1.531054 -5.28746,-2.279749 -1.73904,-0.757331 -3.45825,-1.559462 -5.1768,-2.361903 -1.63305,-0.827078 -3.34642,-1.455568 -5.10204,-1.96274 -1.75263,-0.48518 -3.55533,-0.720263 -5.36453,-0.853156 -1.94523,-0.127284 -3.89377,-0.03202 -5.83449,0.114936 -1.72251,0.155542 -3.447418,0.276102 -5.173178,0.388279 -1.427227,0.105179 -2.851438,0.253286 -4.283462,0.261051 -1.138774,0.0097 -2.2018,-0.352083 -3.242662,-0.771586 -1.015234,-0.470201 -2.0899,-0.775004 -3.184649,-0.989814 -1.289528,-0.206872 -2.595203,-0.233693 -3.895444,-0.144125 -1.112746,0.186371 -1.111155,0.05967 -0.563253,1.135099 0.126737,0.248754 0.257169,0.495608 0.385752,0.743417 0,0 0.131757,0.09417 0.131757,0.09417 v 0 c 1.391718,0.550478 2.817384,1.394282 4.361474,1.126375 1.276167,-0.05356 2.559106,0.0022 3.812977,0.263124 1.081346,0.264426 2.130082,0.61845 3.151915,1.061984 1.075921,0.38056 2.178178,0.639239 3.329906,0.583453 1.43253,-0.04969 2.859007,-0.180926 4.287917,-0.289447 1.71621,-0.124389 3.43135,-0.260163 5.14563,-0.408942 1.93071,-0.124875 3.86865,-0.198739 5.80038,-0.04048 1.79001,0.165359 3.57522,0.423733 5.30131,0.94273 1.73084,0.536629 3.41458,1.194875 5.03615,2.008018 1.71949,0.799935 3.4394,1.600293 5.18417,2.344013 1.76654,0.748043 3.52075,1.524048 5.28636,2.274197 2.13772,0.881594 4.28213,1.755588 6.3341,2.827159 -1.06376,-0.62958 -2.13347,-1.249212 -3.19127,-1.88873 -0.41527,-0.251058 0.84708,0.473986 1.26345,0.72323 1.81802,1.088269 3.56046,2.305933 5.21155,3.6333 2.39521,2.016984 4.68665,4.162747 6.53072,6.711648 1.68996,2.361209 3.1969,4.845653 4.35678,7.514667 1.241,2.959106 2.26369,5.994769 3.29185,9.033125 0.97639,2.767695 1.84115,5.570794 2.5168,8.428688 0.69184,2.88753 1.31761,5.791679 1.79108,8.723924 0.43774,2.885465 0.73986,5.78852 1.01604,8.693539 0.28475,3.515245 0.42756,7.040915 0.34325,10.568366 -0.10546,4.031425 -0.35645,8.056205 -0.68939,12.075185 -0.37422,4.07359 -0.8935,8.13923 -1.96379,12.09764 -0.89698,3.38051 -1.88584,6.7411 -3.23228,9.97465 -0.8853,2.15134 -1.79885,4.29318 -2.89753,6.34638 -0.84093,1.66087 -1.64279,3.35292 -2.75154,4.85837 -2.04966,2.65496 -4.54548,4.88328 -7.30838,6.78562 -4.0348,2.77048 -8.21519,5.33391 -12.67257,7.37608 -4.03276,1.77933 -8.18347,3.24068 -12.58774,3.76777 -4.60076,0.59193 -9.2377,0.92352 -13.8768,0.60432 -5.38457,-0.3992 -10.747006,-1.07767 -16.019205,-2.2697 -5.777869,-1.27769 -11.562289,-2.62083 -17.140602,-4.62092 -2.302838,-0.88548 -3.235561,-1.20503 -5.492987,-2.23208 -0.906492,-0.41244 -1.737501,-1.0103 -2.690778,-1.29853 -0.547588,-0.16558 1.937729,1.21683 1.447192,0.92251 -2.834624,-1.70089 -2.223905,-1.34563 -4.841802,-3.28422 -4.215298,-3.6965 -8.031597,-7.80816 -10.918269,-12.64898 -0.490178,-0.84392 -1.012538,-1.66995 -1.470527,-2.53175 -2.227917,-4.19231 -3.639676,-8.76396 -4.757799,-13.35909 -1.174175,-5.27718 -2.293036,-10.57179 -2.443036,-16.0001 -0.24357,-4.89013 -0.368728,-9.791728 -0.242398,-14.686549 0.226004,-4.155733 0.476746,-8.310089 0.665463,-12.467745 0.535692,-4.147838 1.158275,-8.285292 1.889708,-12.403252 0.800374,-3.892583 1.536946,-7.79897 2.422267,-11.67299 1.110892,-3.465833 2.708132,-6.686977 5.056007,-9.49961 2.681787,-3.333523 5.537081,-6.541649 8.772196,-9.353207 3.569164,-2.92191 7.449254,-5.399912 11.707747,-7.210041 3.494337,-1.450496 7.058714,-2.742431 10.765951,-3.540329 2.284425,-0.422675 4.599062,-0.733042 6.926737,-0.515383 0,0 -1.548691,-1.148795 -1.548691,-1.148795 z" />
    <path
       style="fill:#000000;stroke-width:0.535578"
       id="path245"
       d="m 39.513516,94.998385 c 0.02785,-0.745384 0.19795,-1.476031 0.409643,-2.188319 0.12111,-0.377641 0.259551,-0.750221 0.440957,-1.103268 0.187909,-0.333493 0.428222,-0.634193 0.656872,-0.940236 0.350209,-0.461263 0.699154,-0.923659 1.037618,-1.393645 0.361715,-0.478145 0.68318,-0.984446 1.003355,-1.490768 0.369667,-0.641318 0.705447,-1.30136 1.059931,-1.951139 0.07279,-0.115989 0.139632,-0.236107 0.218377,-0.348209 0.414468,-0.590125 0.09629,-0.04129 0.474533,-0.663179 0.213963,-0.351853 0.405727,-0.719798 0.605043,-1.080071 0.325182,-0.638848 0.671328,-1.266806 0.999187,-1.904177 0.260173,-0.477598 0.494634,-0.968191 0.753264,-1.446558 0.256527,-0.47359 0.550709,-0.924954 0.814021,-1.394637 0.278136,-0.501706 0.555641,-1.003757 0.823831,-1.510888 0.278337,-0.575025 0.612408,-1.11837 0.961119,-1.652585 0.344869,-0.521079 0.697231,-1.037137 1.044003,-1.55696 0.28987,-0.444097 0.54696,-0.908153 0.804852,-1.371176 0.255043,-0.44687 0.528766,-0.882364 0.785453,-1.328303 0.183052,-0.332217 0.362988,-0.666155 0.533811,-1.00485 0.08941,-0.183193 0.162748,-0.374605 0.200359,-0.575287 -0.03251,-0.116394 0.0866,-0.124895 0.106717,-0.199994 -2.121428,-0.96139 -2.136745,-1.503177 -1.808366,-0.510776 0.0902,0.304405 0.17291,0.610955 0.25643,0.917242 0.104451,0.358512 0.237674,0.707287 0.344485,1.065091 0.107223,0.394544 0.198496,0.793196 0.292218,1.1911 0.08678,0.38922 0.232633,0.761294 0.360856,1.138025 0.130685,0.439522 0.307742,0.861089 0.495089,1.278729 0.189327,0.407599 0.358312,0.823478 0.505249,1.248102 0.02346,0.06903 0.05484,0.136028 0.07042,0.207241 0.05852,0.267503 -0.01781,0.0753 -0.0061,0.322967 0.0091,0.193921 0.09279,0.406142 0.140502,0.592655 0.09755,0.438975 0.239612,0.865967 0.350289,1.301461 0.08085,0.43515 0.183376,0.863802 0.31506,1.2863 0.118701,0.37005 0.309907,0.709737 0.47637,1.059221 0.116697,0.264749 0.25396,0.519358 0.355143,0.790605 0.352662,0.976997 0.522627,0.595935 2.392285,1.47259 0.0819,0.03846 0.330227,-0.445615 0.351051,-0.482335 0.370117,-0.729736 0.712382,-1.473116 1.056186,-2.215463 0.45889,-0.998778 0.878832,-2.014194 1.288907,-3.03372 0.342434,-0.840584 0.651747,-1.693009 0.943316,-2.552236 0.258175,-0.79103 0.481185,-1.592748 0.737481,-2.384386 0.298184,-0.87376 0.658943,-1.724101 1.026779,-2.570271 0.299902,-0.678544 0.608349,-1.352897 0.88626,-2.040833 0.187181,-0.520552 0.418265,-1.022319 0.700618,-1.497711 0.07473,-0.122668 0.203449,-0.330213 0.277478,-0.105867 -4.042479,-2.289794 -2.208422,-1.794707 -1.952411,-0.887991 0.05223,0.291611 0.08484,0.586582 0.118459,0.880825 0.03069,0.392357 0.07799,0.782832 0.12536,1.173408 0.04462,0.426122 0.09779,0.851352 0.137689,1.27794 0.02291,0.464561 0.07394,0.91888 0.207794,1.364819 0.163801,0.479643 0.368125,0.944042 0.580631,1.403726 0.229736,0.470958 0.457137,0.942908 0.674904,1.419555 0.166554,0.405555 0.376265,0.789674 0.592376,1.17025 0.174003,0.308999 0.313523,0.635427 0.451627,0.961552 0.109572,0.260681 0.181472,0.534236 0.232651,0.811738 0.03192,1.00398 1.577654,1.987859 2.454771,1.445688 0.239537,-0.167809 0.405464,-0.407762 0.558008,-0.65231 0.21828,-0.401911 0.419926,-0.812912 0.623001,-1.222718 0.230898,-0.453145 0.424045,-0.923861 0.622863,-1.39158 0.226072,-0.526645 0.417836,-1.066853 0.619717,-1.602971 0.05206,-0.349869 0.32945,-0.560166 0.495962,-0.840219 0.195642,-0.329039 0.300973,-0.764837 0.431917,-1.12262 0.261385,-0.751173 0.50255,-1.5085 0.811005,-2.242062 0.273312,-0.618161 0.597449,-1.21193 0.93668,-1.795901 0.365666,-0.641217 0.761448,-1.264155 1.156067,-1.8877 0.368453,-0.597108 0.748369,-1.187031 1.128239,-1.776913 0.307048,-0.503225 0.61379,-1.006328 0.942485,-1.495788 0.160401,-0.229244 0.318888,-0.459683 0.475819,-0.691296 0.06336,-0.131575 0.05083,0.06538 0.02984,0.05465 -4.182997,-2.145303 -2.913885,-2.104657 -2.375522,-1.1811 0.149854,0.325517 0.222298,0.678159 0.28493,1.028878 0.05518,0.299222 0.0799,0.602554 0.10109,0.905683 0.02275,0.32993 0.05028,0.659556 0.07733,0.989183 0.03273,0.365151 0.115664,0.722651 0.203,1.077823 0.07694,0.326975 0.190258,0.642796 0.343259,0.941492 0.146717,0.28232 0.362168,0.516443 0.573994,0.750222 0.248086,0.274344 0.496778,0.548101 0.732196,0.833458 0.191533,0.250843 0.354745,0.521625 0.528429,0.784836 0.160319,0.257321 0.344789,0.498042 0.518997,0.745809 0.167789,0.238799 0.327667,0.484176 0.452499,0.748278 0.1253,0.354444 0.181979,0.727267 0.287703,1.087601 0.120948,0.363755 0.278223,0.714292 0.442281,1.060294 0.123215,0.263555 0.262375,0.519135 0.412433,0.768258 0.369962,0.980215 2.427782,2.259814 2.881081,1.159704 0.123175,-0.354565 0.23437,-0.712288 0.381161,-1.058108 0.174348,-0.360213 0.379526,-0.704616 0.573599,-1.054424 0.26706,-0.476808 0.531117,-0.954021 0.81937,-1.418502 0.312876,-0.490958 0.646455,-0.968475 0.950562,-1.464999 0.186209,-0.312987 0.37852,-0.622169 0.563927,-0.935642 0.183011,-0.330355 0.371622,-0.657572 0.563766,-0.982705 0.233416,-0.387499 0.442421,-0.789309 0.624061,-1.203508 0.162121,-0.356023 0.281527,-0.727814 0.390592,-1.102702 0.100605,-0.387236 0.235338,-0.764128 0.356286,-1.14521 0.159307,-0.476384 0.317663,-0.952828 0.46108,-1.434332 0.143721,-0.488731 0.325942,-0.96471 0.517212,-1.436458 0.179145,-0.42932 0.371811,-0.852486 0.574032,-1.27134 0.177323,-0.365213 0.340173,-0.737206 0.515573,-1.103289 0.175906,-0.327825 0.372418,-0.644131 0.557778,-0.966713 0.219285,-0.38088 0.428469,-0.768015 0.598303,-1.173631 0.173881,-0.447963 0.284445,-0.916695 0.420372,-1.376824 0.12692,-0.429684 0.273839,-0.852992 0.40426,-1.281542 0.108904,-0.37588 0.239629,-0.744412 0.389969,-1.105617 0.124085,-0.314768 0.289283,-0.608404 0.470634,-0.892971 0.191493,-0.286692 0.405576,-0.557008 0.605773,-0.837567 0.125907,-0.185825 0.258434,-0.366791 0.393875,-0.545693 0.537839,-0.458449 -3.066775,-2.316675 -2.522682,-1.240754 0.121657,0.27821 0.171453,0.580671 0.213942,0.879327 0.03866,0.288797 0.04534,0.580226 0.06923,0.870319 0.02571,0.219913 0.07469,0.435555 0.09898,0.655731 0.0249,0.317035 0.05587,0.633504 0.08765,0.949912 0.06336,0.427984 0.07854,0.860138 0.106677,1.291199 0.02328,0.362864 0.0919,0.718238 0.202869,1.063876 0.103033,0.296227 0.251207,0.573243 0.403369,0.846474 0.154449,0.265357 0.304242,0.533184 0.440878,0.808196 0.106475,0.216107 0.180562,0.44604 0.252078,0.675507 0.07814,0.235884 0.134612,0.477983 0.205521,0.715911 0.09838,0.266855 0.188658,0.535916 0.27315,0.807488 0.07733,0.230013 0.13947,0.46444 0.206917,0.697348 0.07024,0.214691 0.134004,0.429158 0.174084,0.651601 0.03421,0.203416 0.06741,0.407013 0.109106,0.609052 0.04393,0.189671 0.08016,0.381224 0.129551,0.5697 0.03198,0.14534 0.07692,0.287361 0.12024,0.429604 0.03259,0.117203 0.07206,0.232584 0.09858,0.351326 0.01822,0.08299 0.02368,0.167606 0.03279,0.251815 0.0011,0.0336 0.01417,0.06457 0.02065,0.09575 -0.0081,0.04089 -0.01822,0.06477 0.05081,0.09514 0.1002,0.04413 0.212788,0.05405 0.315457,0.0921 0.555996,0.206856 0.485897,0.190075 0.940459,0.463529 0,0 0.280316,0.15121 0.280316,0.15121 v 0 c 0.398713,0.151008 0.510087,0.205197 0.954346,0.313757 0.08967,0.02186 0.184205,0.02024 0.274061,0.04069 0.02044,0.004 -0.0668,0.0061 -0.05425,0.03158 -0.02024,-0.01012 -0.03644,-0.01619 -0.0585,-0.03117 -0.05648,-0.05364 -0.06093,-0.126919 -0.07388,-0.202018 -0.02166,-0.128944 -0.04716,-0.256025 -0.09069,-0.379868 -0.04069,-0.140279 -0.0834,-0.280053 -0.128337,-0.419097 -0.04413,-0.184206 -0.09413,-0.367338 -0.125907,-0.554357 -0.0417,-0.199792 -0.08866,-0.398815 -0.119228,-0.600793 -0.03502,-0.230277 -0.06214,-0.463894 -0.149793,-0.681802 -0.07287,-0.234366 -0.130158,-0.473084 -0.210844,-0.704981 -0.08765,-0.267765 -0.156271,-0.541644 -0.260074,-0.803742 -0.0838,-0.234184 -0.13866,-0.47525 -0.208658,-0.713644 -0.07631,-0.239993 -0.141494,-0.48444 -0.238657,-0.717166 -0.1336,-0.283696 -0.28398,-0.55881 -0.441992,-0.829612 -0.150198,-0.262118 -0.299303,-0.52543 -0.42264,-0.801597 -0.133599,-0.322602 -0.223111,-0.657694 -0.26145,-1.005639 -0.04716,-0.428733 -0.04737,-0.859693 -0.08866,-1.28879 -0.03583,-0.309606 -0.06356,-0.620185 -0.06498,-0.932119 -0.01417,-0.222727 -0.03765,-0.444664 -0.08967,-0.662289 -0.04797,-0.291935 -0.05405,-0.587575 -0.08299,-0.881574 -0.04049,-0.314 -0.07368,-0.630509 -0.155259,-0.937221 -0.35414,-1.036023 -2.280685,-2.600574 -2.835993,-1.559531 -0.113964,0.190076 -0.229447,0.3792 -0.357237,0.56041 -0.199589,0.286935 -0.418793,0.5597 -0.611339,0.851555 -0.189063,0.300679 -0.351285,0.614861 -0.481808,0.945762 -0.153437,0.372034 -0.283838,0.75257 -0.390556,1.140757 -0.124692,0.431426 -0.262988,0.858539 -0.394543,1.287879 -0.130968,0.449501 -0.252685,0.902728 -0.421891,1.33982 -0.160927,0.394503 -0.348533,0.776517 -0.572899,1.1393 -0.198375,0.32491 -0.40683,0.644658 -0.575773,0.986389 -0.175946,0.36669 -0.335284,0.741072 -0.512485,1.107196 -0.197505,0.42849 -0.40411,0.853559 -0.569873,1.295732 -0.185946,0.483894 -0.362672,0.97139 -0.508965,1.468987 -0.145604,0.477213 -0.293948,0.953556 -0.465441,1.422288 -0.132911,0.380515 -0.272619,0.759331 -0.382456,1.147316 -0.09816,0.365576 -0.204072,0.729169 -0.355816,1.076872 -0.170987,0.405778 -0.366711,0.798662 -0.600765,1.172376 -0.195075,0.324869 -0.391598,0.648868 -0.583074,0.975883 -0.178841,0.315983 -0.348999,0.636521 -0.523971,0.954609 -0.289482,0.501362 -0.592565,0.994587 -0.913612,1.476456 -0.30069,0.461404 -0.591226,0.929407 -0.867799,1.405729 -0.209851,0.353594 -0.436031,0.699414 -0.60484,1.075415 -0.150299,0.345132 -0.270739,0.701114 -0.401223,1.054019 -0.423899,1.06493 -0.07996,0.06822 2.578743,1.547082 0.05324,0.02955 -0.189448,0.02186 -0.141251,-0.06721 -0.175744,-0.234689 -0.336236,-0.480168 -0.463854,-0.744857 -0.165805,-0.335396 -0.320159,-0.675953 -0.45807,-1.023898 -0.131008,-0.361002 -0.215125,-0.732611 -0.295874,-1.10758 -0.09139,-0.297097 -0.250946,-0.553892 -0.422802,-0.811698 -0.166857,-0.245358 -0.341324,-0.485007 -0.507269,-0.730911 -0.172505,-0.271551 -0.356314,-0.535774 -0.525574,-0.809471 -0.21738,-0.303311 -0.47398,-0.574255 -0.722008,-0.852425 -0.197747,-0.225459 -0.409642,-0.44021 -0.581188,-0.687065 -0.174651,-0.270094 -0.309329,-0.558021 -0.381106,-0.873397 -0.09686,-0.33993 -0.182141,-0.684191 -0.229711,-1.034869 -0.03127,-0.325214 -0.04322,-0.651925 -0.0701,-0.977544 -0.01882,-0.316347 -0.04595,-0.632472 -0.102325,-0.944669 -0.06816,-0.363836 -0.133397,-0.729919 -0.243036,-1.083998 -0.344204,-1.093309 -2.232554,-2.713445 -2.916824,-1.608517 -0.143235,0.239305 -0.286079,0.478853 -0.43051,0.717449 -0.30551,0.503933 -0.598845,1.015275 -0.918796,1.510342 -0.372686,0.594902 -0.745214,1.189885 -1.114491,1.786954 -0.390966,0.630043 -0.789131,1.255875 -1.160625,1.897739 -0.341575,0.600287 -0.653999,1.213306 -0.9048,1.858045 -0.294747,0.742995 -0.539853,1.502043 -0.799706,2.257588 -0.137587,0.357541 -0.344745,0.742044 -0.431156,1.115616 -0.07658,0.331044 -0.03684,0.686944 -0.236914,0.989588 -0.20699,0.530754 -0.398335,1.067763 -0.628377,1.589327 -0.191736,0.464967 -0.385538,0.929549 -0.614032,1.378018 -0.198982,0.400636 -0.384201,0.809714 -0.616466,1.192537 -0.135037,0.198577 -0.276792,0.411163 -0.499283,0.519135 -0.879237,0.187647 -0.06378,-0.004 2.06199,1.280126 0.01154,0.0061 -0.02925,0.0061 -0.04038,-0.002 -0.05492,-0.03745 -0.0317,-0.153437 -0.05939,-0.202586 -0.0633,-0.289101 -0.119571,-0.581684 -0.226003,-0.858882 -0.126616,-0.339221 -0.276349,-0.669799 -0.441895,-0.991754 -0.205075,-0.383774 -0.442283,-0.750687 -0.606068,-1.155756 -0.218184,-0.477477 -0.442362,-0.952281 -0.674278,-1.42326 -0.218322,-0.448469 -0.4225,-0.903173 -0.591166,-1.373018 -0.151291,-0.428651 -0.231594,-0.864004 -0.241406,-1.320023 -0.04253,-0.427802 -0.09105,-0.854652 -0.138862,-1.281867 -0.03729,-0.388349 -0.09413,-0.774411 -0.117082,-1.164056 -0.01923,-0.294566 -0.04868,-0.588121 -0.07137,-0.882404 -0.103945,-1.128126 -1.237884,-1.217941 -2.377644,-1.828369 -0.225236,0.05708 -0.350231,0.234021 -0.448552,0.435797 -0.258624,0.502476 -0.473739,1.022704 -0.664604,1.554673 -0.2696,0.690203 -0.573138,1.366317 -0.852855,2.052432 -0.359121,0.85702 -0.719818,1.713858 -1.027295,2.591242 -0.278688,0.78433 -0.517758,1.580401 -0.754132,2.378374 -0.271489,0.863599 -0.570707,1.718312 -0.8944,2.563754 -0.386688,1.0224 -0.790937,2.039355 -1.279551,3.018214 -0.358125,0.721012 -0.711595,1.449655 -1.1422,2.130527 -0.03352,0.04534 -0.135462,0.203941 -0.20628,0.243292 -0.01417,0.0081 -0.0615,-0.01619 -0.04777,-0.0061 5.210839,3.163473 2.373797,1.769099 1.993869,1.115697 -0.108621,-0.281126 -0.218178,-0.558122 -0.371,-0.819552 -0.163194,-0.349464 -0.35872,-0.682673 -0.504913,-1.039707 -0.147627,-0.413916 -0.264221,-0.836616 -0.335529,-1.270875 -0.09684,-0.44515 -0.266075,-0.867648 -0.368048,-1.311643 -0.04591,-0.201817 -0.07696,-0.428247 -0.164287,-0.617776 -0.102001,-0.22135 -0.270585,-0.413875 -0.316398,-0.661014 -0.148761,-0.423106 -0.287654,-0.85028 -0.47996,-1.256442 -0.183193,-0.412377 -0.383062,-0.818925 -0.500664,-1.256787 -0.117648,-0.37169 -0.244946,-0.740627 -0.350611,-1.11592 -0.106455,-0.399421 -0.21513,-0.798155 -0.302044,-1.202455 -0.0954,-0.361954 -0.234455,-0.708725 -0.348406,-1.06495 -0.08376,-0.309526 -0.170703,-0.617898 -0.260178,-0.925784 -0.261572,-0.95222 -0.686665,-0.973515 -2.125208,-1.416599 0.02512,0.09109 0.117629,0.148376 0.08423,0.256592 -0.02265,0.186027 -0.07575,0.365232 -0.150603,0.53707 -0.152202,0.343107 -0.320754,0.678948 -0.505116,1.005923 -0.245574,0.452375 -0.509202,0.893942 -0.777174,1.333342 -0.256349,0.459279 -0.519297,0.91459 -0.801611,1.358545 -0.330472,0.530552 -0.691994,1.040497 -1.020384,1.572425 -0.337049,0.547029 -0.667999,1.098532 -0.964212,1.669002 -0.263982,0.506463 -0.534161,1.009627 -0.829521,1.498682 -0.27602,0.464076 -0.557318,0.924852 -0.837923,1.386155 -0.26372,0.477618 -0.488608,0.974385 -0.73537,1.460748 -0.337497,0.632411 -0.656117,1.274357 -0.982509,1.912497 -0.373684,0.734129 -0.761883,1.457367 -1.061395,2.225038 -0.350755,0.647249 -0.712506,1.28887 -1.092682,1.919298 -0.319525,0.502941 -0.652437,0.997117 -1.004579,1.477934 -0.340296,0.4678 -0.674497,0.940095 -1.04695,1.383442 -0.241432,0.312036 -0.505538,0.611137 -0.706749,0.951249 -0.170177,0.373532 -0.293287,0.765626 -0.400853,1.161445 -0.184448,0.730182 -0.290386,1.474472 -0.424083,2.214998 0,0 1.496885,0.779391 1.496885,0.779391 z" />
    <path
       style="fill:#000000;stroke-width:0.535578"
       id="path247"
       d="m 97.645549,61.394781 c 0.286672,-0.704758 0.695345,-1.33808 1.09673,-1.979843 0.262503,-0.573871 0.665447,-1.066954 0.942807,-1.629873 0.235338,-0.505107 0.478024,-1.00487 0.762594,-1.48427 0.29841,-0.493002 0.61138,-0.976976 0.92683,-1.459169 0.31477,-0.475108 0.62741,-0.950803 0.9066,-1.447874 0.25724,-0.511909 0.52563,-1.017684 0.80634,-1.517103 0.20918,-0.370678 0.39936,-0.751396 0.60678,-1.123045 0.15789,-0.28311 0.30742,-0.569822 0.43667,-0.867081 0.0986,-0.281206 0.20858,-0.558021 0.32647,-0.831636 0.082,-0.17206 0.1421,-0.354322 0.23693,-0.520269 0.10263,0.750546 -2.25283,-1.374678 -1.53647,-0.731659 0.16842,0.133194 0.27936,0.31659 0.39891,0.491261 0.21089,0.296449 0.43651,0.578081 0.54224,0.929953 0.27139,0.585126 0.49715,1.190108 0.72874,1.791731 0.29789,0.748785 0.53278,1.519552 0.75717,2.29281 0.17489,0.701559 0.44952,1.377775 0.59463,2.086054 0.14494,0.705891 0.45445,1.3732 0.7433,2.031157 0.34261,0.757287 0.6928,1.510686 1.01708,2.27607 0.27951,0.827668 0.60464,1.627039 0.99898,2.407543 0.32673,0.6181 0.64008,1.242981 0.95513,1.867052 0.30736,0.492051 0.42609,1.055497 0.63321,1.587263 0.19493,0.494925 0.30808,1.014931 0.39828,1.537487 0.0893,0.366346 0.0678,0.793318 0.30991,1.095495 0.13421,0.08259 0.2686,0.165178 0.40289,0.247868 0,0 1.66651,0.754007 1.66651,0.754007 v 0 c 0.11498,0.04413 0.23007,0.08826 0.34511,0.132182 0.0162,-0.01619 0.0492,-0.02429 0.0512,-0.04757 0.0162,-0.19797 -0.24959,-0.708786 -0.22015,-0.937666 -0.10365,-0.53628 -0.19838,-1.077196 -0.38661,-1.59202 -0.23064,-0.589072 -0.59169,-1.119867 -0.83251,-1.70651 -0.31963,-0.637593 -0.65122,-1.269236 -1.00034,-1.891242 -0.4326,-0.808581 -0.83698,-1.636209 -1.20097,-2.477116 -0.31603,-0.766376 -0.65646,-1.521658 -1.0039,-2.274228 -0.29682,-0.681397 -0.53535,-1.385487 -0.84802,-2.058747 -0.31738,-0.68745 -0.5136,-1.421276 -0.73838,-2.142915 -0.22693,-0.774553 -0.45634,-1.548539 -0.7424,-2.303903 -0.22534,-0.605974 -0.44068,-1.217556 -0.70685,-1.806953 -0.22384,-0.335658 -0.42828,-0.683705 -0.66411,-1.011449 -0.11619,-0.174691 -0.21149,-0.366467 -0.35142,-0.522434 -0.56481,-0.521342 -1.53083,-1.733514 -2.04458,-1.010984 -0.0798,0.178942 -0.15243,0.361225 -0.2215,0.54458 -0.11315,0.27736 -0.24236,0.548871 -0.32969,0.836069 -0.10202,0.3007 -0.24448,0.584457 -0.39503,0.863579 -0.19331,0.379483 -0.37326,0.765485 -0.56543,1.145555 -0.26363,0.507921 -0.52745,1.01568 -0.78801,1.525159 -0.27218,0.49616 -0.58537,0.966714 -0.904165,1.433988 -0.31489,0.485189 -0.609213,0.983454 -0.9305,1.464594 -0.29402,0.480007 -0.551988,0.978576 -0.782751,1.492185 -0.272179,0.566644 -0.448672,1.176221 -0.773096,1.720336 -0.302359,0.699737 -0.608403,1.395486 -0.944204,2.079597 0,0 1.319052,0.741942 1.319052,0.741942 z" />
    <path
       style="fill:#000000;stroke-width:0.535578"
       id="path249"
       d="m 113.23127,69.237231 c 0.58095,-0.823742 1.16047,-1.650581 1.76434,-2.458574 0.25769,-0.411163 0.63405,-0.721538 0.95062,-1.080759 0.29595,-0.3358 0.54021,-0.725526 0.79421,-1.092783 0.26605,-0.498468 0.65274,-0.915581 0.97149,-1.375204 0.0725,-0.10445 0.36619,-0.642694 0.42724,-0.753197 0.36084,-0.70247 0.78601,-1.366116 1.22605,-2.02055 0.34062,-0.502334 0.68774,-1.000114 1.04838,-1.488278 0.32436,-0.4126 0.60225,-0.857425 1.00396,-1.199379 0.26181,-0.439684 0.47045,-0.908537 0.71087,-1.360326 -0.002,0.01012 0.25388,-0.436891 0.25361,-0.432943 -0.002,0.03461 -0.006,0.11194 -0.0379,0.09676 -0.78957,-0.386325 -1.54761,-0.834025 -2.32141,-1.251037 0.0609,0.752731 0.31446,1.469249 0.54442,2.182913 0.41555,1.17436 0.83674,2.346452 1.23233,3.527795 0.34681,0.930905 0.61458,1.895635 1.01635,2.80484 0.32829,0.688361 0.64314,1.382512 0.94086,2.084597 0.22073,0.544175 0.44497,1.08665 0.69158,1.61963 0.1917,0.407074 0.37277,0.818925 0.56043,1.22784 0.19838,0.42598 0.38151,0.85868 0.5478,1.298121 0.1087,0.404604 0.31728,0.800018 0.32781,1.223569 0.0984,0.295194 0.18987,0.593728 0.30027,0.884874 1.46042,3.274887 2.7249,1.968972 3.47554,0.764391 0.3234,-0.527657 0.55728,-1.102317 0.79225,-1.672847 0.27469,-0.689495 0.56525,-1.372168 0.87014,-2.048809 0.33227,-0.73676 0.69654,-1.458258 1.08167,-2.168623 0.35944,-0.669718 0.74904,-1.322432 1.1263,-1.98211 0.23793,-0.547494 0.72767,-0.995923 0.86823,-1.580279 -0.0757,-0.499034 -0.61978,-0.749392 -0.986,-1.012684 0,0 -0.24052,-0.132587 -0.24052,-0.132587 v 0 c -0.38618,-0.164773 -0.87117,-0.494966 -1.30753,-0.312825 -0.42463,0.421142 -0.58673,1.054423 -0.94186,1.532062 -0.38693,0.657795 -0.75666,1.325529 -1.12636,1.993101 -0.38433,0.718887 -0.76002,1.44247 -1.08592,2.190262 -0.3071,0.678119 -0.61944,1.354051 -0.89206,2.047108 -0.23111,0.552373 -0.46588,1.106265 -0.78504,1.614995 -0.0883,0.132992 -0.17813,0.280984 -0.28675,0.40011 -0.0389,0.04271 -0.0802,0.08502 -0.12915,0.115786 -0.0279,0.01822 -0.12348,0.0081 -0.0955,0.0253 2.36757,1.455162 3.54901,1.7457 2.50175,1.481477 -0.22355,-0.229366 -0.23309,-0.582959 -0.38703,-0.855239 -0.24904,-0.40422 -0.3692,-0.855705 -0.50843,-1.307008 -0.15404,-0.44853 -0.33768,-0.885542 -0.53354,-1.317392 -0.18785,-0.412721 -0.36912,-0.82862 -0.56845,-1.235977 -0.2594,-0.533001 -0.50397,-1.072136 -0.72532,-1.622241 -0.30301,-0.7116 -0.61756,-1.418705 -0.96832,-2.108301 -0.46486,-0.939306 -0.94171,-1.87021 -1.24563,-2.879251 -0.40932,-1.169704 -0.81247,-2.341674 -1.21687,-3.512998 -0.20345,-0.671236 -0.41705,-1.352026 -0.44266,-2.058464 -2.51102,-1.631735 -1.99648,-2.259227 -2.61276,-0.941431 -0.2143,0.455919 -0.4314,0.910339 -0.67571,1.351217 -0.12428,0.513103 -0.47954,0.887931 -0.77597,1.313911 -0.35237,0.497637 -0.69747,1.000396 -1.0179,1.51941 -0.4241,0.671034 -0.82978,1.352978 -1.19614,2.057614 -0.002,0.004 -0.41189,0.747489 -0.41455,0.753157 -0.23693,0.503751 -0.43966,1.020072 -0.79273,1.462833 -0.51168,0.764411 -1.03993,1.516819 -1.57503,2.26441 -0.59922,0.81524 -1.18074,1.641815 -1.70595,2.50667 0,0 1.57038,0.917261 1.57038,0.917261 z" />
    <path
       style="fill:#000000;stroke-width:0.535578"
       id="path269"
       d="m 131.86076,62.443314 c 0.23898,0.50454 0.52171,0.986895 0.79775,1.471719 0.13077,0.321975 0.30523,0.628262 0.38086,0.969366 0.10283,0.337925 0.30183,0.640447 0.50219,0.928455 0.22336,0.254487 0.39586,0.542738 0.61432,0.799411 0.27153,0.357297 0.48597,0.753723 0.72141,1.135008 0.0288,0.06457 0.0658,0.125908 0.0862,0.193517 0.0162,0.05506 0.008,0.115584 0.0235,0.170643 0.086,0.292137 0.28317,0.574842 0.42837,0.840624 0.24092,0.40177 0.48763,0.79941 0.71763,1.207658 0.21653,0.379099 0.45083,0.747347 0.66613,1.127154 0.17125,0.381326 0.29313,0.654739 0.52993,1.00645 0.16173,0.278797 0.19149,0.612675 0.32557,0.909913 0.14615,0.327096 0.31445,0.643423 0.46529,0.968191 0.1247,0.281875 0.21472,0.57717 0.31469,0.868296 0.0779,0.244082 0.19817,0.46865 0.32532,0.689677 0.15971,0.265093 0.29817,0.541968 0.42681,0.823175 0.13785,0.31657 0.28264,0.6298 0.4147,0.94888 0.43788,2.033667 1.48399,1.522224 4.69424,3.0254 0.10384,0.04878 0.14311,-0.17955 0.21459,-0.269203 0.41861,-0.797184 0.76212,-1.632059 1.16197,-2.439728 0.38582,-0.813054 0.89459,-1.554127 1.39705,-2.297122 0.52041,-0.743805 0.97932,-1.526495 1.41621,-2.321392 0.45408,-0.804329 0.88281,-1.622363 1.31582,-2.438089 0.35225,-0.633585 0.682,-1.278303 0.99729,-1.930917 0.2422,-0.508528 0.47098,-1.024404 0.74889,-1.514795 -0.065,0.141089 0.25926,-0.474561 0.29718,-0.33827 0.0101,0.03846 0.0243,0.137648 -0.0122,0.119228 -1.47745,-0.76257 -2.92018,-1.590563 -4.38026,-2.385864 0.31949,0.310619 0.48912,0.760647 0.67788,1.158874 0.31165,0.675892 0.6867,1.318809 1.07885,1.95039 0.44513,0.71913 0.89785,1.433118 1.36545,2.137875 0.4056,0.571037 0.78247,1.160635 1.14946,1.756934 0.3154,0.52282 0.65258,1.031692 1.00285,1.531657 0.37254,0.51699 0.79358,0.996126 1.191,1.493622 0.47371,0.613019 0.86562,1.283668 1.27846,1.937941 0.4478,0.690203 0.90923,1.371176 1.34331,2.070185 0.35248,0.595003 0.70736,1.187254 1.11007,1.749808 0.37652,0.502274 0.77726,0.985398 1.15342,1.487914 0.32331,0.447862 0.61606,0.91712 0.88502,1.399333 0.26651,0.484318 0.49912,0.985984 0.72883,1.48848 0.22068,0.488812 0.46476,0.966612 0.71629,1.440141 0.20916,0.39841 0.43873,0.785424 0.66486,1.174299 0.15344,0.26896 0.30957,0.53626 0.47758,0.796395 0.15424,0.26981 0.37956,0.483245 0.60583,0.69164 0.26659,0.264466 0.50347,0.540106 0.80808,0.76263 1.11751,0.597939 0.33434,0.207505 2.42738,0.999952 0,0 -0.133,-0.0923 -0.133,-0.0923 v 0 c 1.79639,0.82443 1.10584,0.552899 2.03349,0.905642 0.0162,-0.01012 0.0494,-0.0081 0.0492,-0.02793 -0.002,-0.14696 -0.37762,-0.447012 -0.44556,-0.58972 -0.19959,-0.208719 -0.42881,-0.384301 -0.62755,-0.593061 -0.18198,-0.248879 -0.34912,-0.508325 -0.5077,-0.772731 -0.23191,-0.383127 -0.45812,-0.769796 -0.68113,-1.158145 -0.2555,-0.468428 -0.51616,-0.934387 -0.74365,-1.41741 -0.23408,-0.50539 -0.45162,-1.018918 -0.70649,-1.51439 -0.26398,-0.503852 -0.54608,-0.997543 -0.87038,-1.465626 -0.3625,-0.519338 -0.76357,-1.007867 -1.16017,-1.501213 -0.42766,-0.541908 -0.81018,-1.114382 -1.151,-1.715195 -0.42878,-0.708907 -0.88672,-1.398219 -1.35205,-2.083605 -0.41707,-0.648787 -0.79255,-1.322776 -1.22136,-1.963871 -0.37928,-0.50537 -0.79006,-0.984142 -1.18906,-1.473805 -0.3608,-0.48616 -0.70635,-0.984 -1.02305,-1.5002 -0.37377,-0.605793 -0.74082,-1.216747 -1.16543,-1.789099 -0.4816,-0.690224 -0.93177,-1.400163 -1.36937,-2.11905 -0.38604,-0.608505 -0.76751,-1.221058 -1.06916,-1.877194 -0.19716,-0.428145 -0.39366,-0.857303 -0.57331,-1.29304 -2.95499,-1.680661 -3.95565,-4.103163 -5.10769,-1.928184 -0.25863,0.509803 -0.49245,1.030942 -0.73894,1.546636 -0.30939,0.649233 -0.62343,1.296421 -0.96028,1.93197 -0.42027,0.816616 -0.85589,1.625257 -1.29561,2.43155 -0.44618,0.773724 -0.89829,1.544653 -1.40346,2.28192 -0.51248,0.763298 -1.01416,1.535098 -1.40261,2.371087 -0.37058,0.745869 -0.69687,1.533438 -1.18236,2.211435 -0.66494,-1.596797 -0.0486,-0.08724 4.33389,2.451429 0.0338,0.02024 -0.0769,-0.02065 -0.10911,-0.04312 -0.14271,-0.09919 -0.22568,-0.281449 -0.32386,-0.416992 -0.13906,-0.320517 -0.2676,-0.645326 -0.42092,-0.959527 -0.12388,-0.291126 -0.24588,-0.583324 -0.39553,-0.862466 -0.117,-0.20963 -0.25236,-0.408632 -0.35609,-0.625468 -0.1257,-0.290032 -0.22211,-0.591097 -0.32468,-0.889833 -0.1336,-0.345173 -0.30789,-0.668929 -0.47879,-0.996774 -0.21053,-0.423166 -0.50031,-0.795645 -0.77257,-1.178185 -0.25793,-0.403632 -0.59938,-0.724109 -0.85998,-1.122276 -0.21382,-0.381123 -0.4243,-0.763581 -0.66441,-1.129158 -0.23621,-0.406325 -0.45708,-0.821819 -0.72249,-1.210533 -0.28809,-0.476768 -0.533,-0.972563 -0.91589,-1.385649 -0.24115,-0.389402 -0.47798,-0.78103 -0.71214,-1.174501 -0.2467,-0.336995 -0.60288,-0.561381 -0.85753,-0.893699 -0.22329,-0.281005 -0.41357,-0.580652 -0.59545,-0.889651 -0.21979,-0.356266 -0.33096,-0.767469 -0.58587,-1.104605 -0.30483,-0.487597 -0.61067,-0.974082 -0.87609,-1.484897 0,0 -2.62199,-1.184137 -2.62199,-1.184137 z" />
    <path
       style="fill:#000000;stroke-width:0.535578"
       id="path342"
       d="m 81.319264,83.918496 c -0.837446,0.80267 -1.42443,1.800698 -2.08301,2.74302 -0.162061,0.201816 -0.352656,0.383572 -0.486167,0.605246 -0.425093,0.70583 -0.659007,1.679588 -0.903735,2.460699 -0.366164,1.168672 -0.197302,0.668544 -0.622845,1.813957 -0.525392,1.874218 -0.658403,3.834305 -0.793134,5.768744 -0.278506,1.931038 -0.262316,3.894078 -0.130563,5.836458 0.05099,1.51791 0.388176,2.97995 0.91631,4.39637 0.350632,0.85498 0.818761,1.65414 1.339187,2.41542 1.073964,1.34097 2.684536,2.60061 4.439626,2.65318 0.704516,-0.0964 1.180545,-0.62893 1.628239,-1.13288 0.559895,-0.67593 0.990233,-1.44334 1.41491,-2.20765 0.540371,-0.97785 0.959017,-2.01373 1.313313,-3.07123 0.423299,-1.34308 0.778269,-2.70521 1.087228,-4.07865 0.270498,-1.25341 0.434077,-2.525131 0.558324,-3.800176 0.08097,-1.338849 0.09514,-2.68124 0.124288,-4.022113 0.04129,-1.037117 0.01822,-2.072189 -0.128134,-3.099933 -0.145947,-0.821819 -0.332379,-1.636229 -0.526584,-2.447866 -0.17793,-0.72419 -0.41426,-1.431316 -0.66905,-2.131478 -0.180967,-0.50705 -0.4081,-0.98981 -0.758887,-1.400082 -0.342948,-0.336003 -0.764266,-0.573445 -1.166538,-0.829632 -1.143257,-0.759918 -2.342993,-1.3882 -3.547878,-2.079456 -0.126251,-0.07247 -0.26835,-0.09878 -0.409466,-0.121859 -0.228906,-0.02854 -0.446902,0.0016 -0.657048,0.09312 -0.210867,0.121049 -0.40946,0.261025 -0.619551,0.383795 -0.76206,0.368431 0.154327,0.9288 0.502688,1.280429 0.05077,0.130361 0.101576,0.26058 0.152344,0.39086 0,0 0.138984,0.0832 0.138984,0.0832 v 0 c 0.158679,-0.004 0.317377,-0.0081 0.476065,-0.01215 0.570547,0.203234 1.228451,0.628606 1.797605,0.240763 0.182181,-0.113357 0.356063,-0.254993 0.570729,-0.299202 0.180744,-0.01619 0.360648,-1.82e-4 0.530582,0.06801 0.06212,0.02793 0.653358,0.361184 0.346251,0.183193 -5.175228,-2.999793 -3.708785,-2.203723 -2.656481,-1.526475 0.398268,0.261207 0.813013,0.496059 1.205186,0.766355 0.411394,0.3324 0.654992,0.786537 0.8518,1.272879 0.277146,0.685325 0.514301,1.386641 0.707403,2.100406 0.204778,0.805342 0.388777,1.616412 0.558395,2.42981 0.177101,1.018534 0.241235,2.0464 0.222569,3.08054 -0.0071,1.330813 -0.03407,2.662456 -0.127264,3.990373 -0.107061,1.265612 -0.269599,2.526548 -0.519313,3.772569 -0.285393,1.36302 -0.621832,2.71733 -1.080781,4.03349 -0.376775,1.0263 -0.795935,2.03666 -1.345539,2.98467 -0.411415,0.74018 -0.830389,1.485 -1.391584,2.12457 -0.399531,0.42137 -0.841393,0.87876 -1.46972,0.83249 -1.108802,-0.24507 -3.159483,-1.72845 2.38301,1.50852 0.08441,0.0492 -0.170157,-0.0974 -0.248535,-0.15566 -0.211758,-0.15789 -0.30671,-0.27896 -0.487954,-0.47402 -0.583277,-0.74927 -1.086277,-1.55963 -1.514045,-2.40734 -0.672262,-1.42279 -1.129791,-2.92963 -1.343755,-4.49192 -0.200075,-2.00907 -0.313811,-4.02211 -0.356518,-6.040837 0.107041,-1.951625 0.258063,-3.898756 0.598588,-5.825929 0.04334,-0.332986 0.06775,-0.668989 0.129936,-0.998979 0.114915,-0.609963 0.314693,-1.216444 0.52245,-1.799767 0.188193,-0.528427 0.43729,-1.034283 0.616281,-1.565887 0.08324,-0.24724 0.13372,-0.504318 0.200581,-0.756477 0.513081,-1.062804 1.142717,-1.954297 2.089963,-2.674135 0,0 -1.378564,-0.86202 -1.378564,-0.86202 z" />
    <path
       style="fill:#000000;stroke-width:0.535578"
       id="path344"
       d="m 116.7422,83.693766 c -0.19939,0.256733 -0.48986,0.42689 -0.69581,0.676276 -0.69405,0.840442 -1.10088,1.940087 -1.5001,2.93601 -0.2058,0.449421 -0.66502,1.420891 -0.8186,1.88519 -0.11599,0.350678 -0.18967,0.714048 -0.27649,1.073067 -0.26442,1.092762 -0.47549,2.197873 -0.69597,3.300028 -0.25052,1.054565 -0.39584,2.132794 -0.63741,3.188958 -0.0793,0.346691 -0.19797,0.683847 -0.27163,1.031773 -0.1587,0.749189 -0.20453,1.358099 -0.28546,2.116154 -0.0925,1.118528 -0.22647,2.246438 -0.0601,3.365328 0.0771,0.51944 0.15931,0.74589 0.30222,1.24497 0.3358,1.07003 0.69524,2.13251 1.01875,3.20632 0.18158,0.97787 0.52501,1.90548 1.05244,2.74754 1.37288,1.53967 3.28268,2.77478 5.31979,3.1727 0.90101,0.0769 1.45306,-0.0719 2.13132,-0.67168 0.76597,-0.84382 1.18938,-1.90505 1.58874,-2.95459 0.51338,-1.40071 0.74077,-2.87189 0.90285,-4.34735 0.17671,-1.9515 0.44656,-3.89272 0.66508,-5.839612 0.18744,-1.588356 0.20329,-3.186287 0.14959,-4.782355 -0.0395,-1.289781 -0.16842,-2.572802 -0.33501,-3.851531 -0.1583,-1.127377 -0.42183,-2.235867 -0.70964,-3.3361 -0.28687,-1.11345 -0.74398,-2.153339 -1.45619,-3.056229 -0.17307,-0.145542 -0.32894,-0.314768 -0.51948,-0.436688 -0.74781,-0.478468 -2.08358,-0.996186 -2.81429,-1.208306 -0.13765,-0.03988 -0.28507,0.02834 -0.42762,0.04251 0,0 0.13056,0.09575 0.13056,0.09575 v 0 c 0.19656,0.02874 0.70462,0.248151 0.58993,0.08583 -0.14534,-0.205723 -1.40618,-0.78933 -0.6376,-0.141697 0.73541,0.82858 1.21331,1.810334 1.49411,2.882753 0.30029,1.086042 0.55458,2.184189 0.73939,3.296263 0.19696,1.273081 0.36584,2.552519 0.40778,3.841592 0.0674,1.589145 0.11093,3.181833 -0.0571,4.767335 -0.18663,1.945754 -0.40703,3.888855 -0.67044,5.825705 -0.21421,1.42692 -0.44637,2.85869 -0.94702,4.21889 -0.36985,0.98244 -0.79051,1.98029 -1.56231,2.71991 -0.61178,0.43598 -1.18502,0.52245 -1.92101,0.3598 -1.35658,-0.41231 -2.84814,-1.54649 2.5094,1.60897 0.11639,0.0686 -0.23823,-0.12834 -0.35145,-0.20222 -0.33964,-0.22154 -0.37675,-0.28162 -0.67575,-0.56205 -0.77502,-0.8905 -1.14922,-1.74878 -1.55829,-2.8479 -0.40309,-1.11851 -0.8497,-2.21561 -1.28128,-3.32297 -0.50471,-1.51329 -0.75148,-3.08242 -0.64122,-4.68302 0.0541,-0.7185 0.12186,-1.435932 0.1753,-2.154495 0.0279,-0.377115 0.0269,-0.756578 0.0698,-1.132296 0.12348,-1.08175 0.42154,-2.140445 0.57755,-3.217014 0.41952,-2.149838 0.90506,-4.284595 1.42644,-6.410811 0.3261,-0.758197 0.3825,-0.946511 0.77498,-1.648253 0.44021,-0.787103 0.31325,-0.485067 0.77453,-1.19531 0.43732,-0.673301 0.0751,-0.241754 0.53822,-0.742003 0,0 -1.53157,-0.945216 -1.53157,-0.945216 z" />
    <path
       style="fill:#000000;stroke-width:0.535578"
       id="path348"
       d="m 93.248669,129.83943 c -0.02591,0.15202 -0.04555,0.30523 -0.07733,0.45612 -0.0415,0.19655 -0.105665,0.38808 -0.142101,0.58561 -0.206755,1.11867 -0.210561,2.2774 -0.233698,3.41026 -0.03259,1.82961 0.315093,3.54964 0.99732,5.23755 0.356508,1.25264 1.125211,2.26953 2.106621,3.10096 2.358557,1.46891 2.809495,1.85424 5.318449,1.40766 1.06969,-0.2285 2.09702,-0.64792 2.84934,-1.47093 0.13461,-0.14717 0.24441,-0.31508 0.36663,-0.4726 0.76381,-1.25754 0.93882,-2.73221 1.1756,-4.15535 0.18926,-1.25913 0.44658,-2.50754 0.61702,-3.76939 -0.0202,-0.16943 0.14838,-0.944 0.0771,-1.08632 -0.12266,-0.24504 -0.65255,-0.68875 -0.84382,-0.86133 0,0 -0.30833,-0.15243 -0.30833,-0.15243 v 0 c -0.0996,-0.008 -0.6753,-0.0795 -0.78281,0.0259 -0.0571,0.0561 0.0672,0.99657 -0.0162,1.09301 -0.11336,1.27919 -0.34655,2.5432 -0.50517,3.81712 -0.21554,1.3869 -0.43284,2.81898 -1.18993,4.03029 -0.88002,1.12462 -1.70422,1.54615 -3.100339,1.83679 -0.823398,0.12671 -1.649144,0.23618 -2.465052,-0.0101 -0.181574,-0.0547 -0.680588,-0.32328 -0.52867,-0.20984 0.386488,0.28862 0.828034,0.49503 1.24205,0.74255 -0.156675,-0.12044 -0.32242,-0.23025 -0.470249,-0.36157 -0.90121,-0.80066 -1.494513,-1.90413 -2.178117,-2.87773 -0.762711,-1.71744 -1.176991,-3.33717 -1.135413,-5.23637 0.04494,-1.47917 0.182181,-2.96192 0.474541,-4.41234 0,0 -1.247677,-0.66849 -1.247677,-0.66849 z" />
    <path
       style="fill:#000000;stroke-width:0.535578"
       id="path350"
       d="m 70.219284,156.32007 c -0.446206,1.0401 -0.961568,2.05646 -1.358024,3.11631 -0.470645,1.5883 -1.101898,3.12542 -1.546044,4.7193 -0.632947,2.26548 -1.432818,4.47927 -2.163062,6.71431 -0.770446,2.4728 -1.500826,4.95781 -2.246839,7.43802 -0.663915,2.28156 -1.341898,4.55896 -2.01918,6.83659 -0.610329,2.10608 -1.152613,4.23092 -1.73889,6.34367 -0.47727,1.75183 -0.964524,3.50154 -1.382688,5.26862 -0.378107,1.52706 -0.359314,3.09046 -0.268747,4.64792 0.115543,1.41844 0.229339,2.83721 0.355216,4.2548 0.0504,1.05878 0.25905,2.07247 0.785727,2.99591 0.733271,0.95592 1.7422,1.3165 2.938994,1.818 0.249809,0.10466 0.867309,-0.55648 0.996769,-0.69275 0.811398,-1.05116 1.408139,-2.2456 2.066472,-3.39381 0.986189,-1.63902 2.023241,-3.24434 2.967947,-4.90824 0.959879,-1.64562 1.768363,-3.36331 2.371204,-5.16947 0.572267,-1.9658 1.191857,-3.91536 1.852284,-5.8532 0.594803,-1.70268 1.14452,-3.42069 1.652902,-5.15103 0.446951,-1.59924 0.877716,-3.20153 1.415796,-4.77298 0.411165,-1.09015 0.788448,-2.19399 1.224022,-3.27479 0.05249,-0.12347 0.137932,-0.32968 0.199812,-0.45897 0.01943,-0.0407 0.0353,-0.084 0.06277,-0.11963 0.0067,-0.008 0.04204,0.001 0.03225,-0.004 -2.283686,-1.06303 -2.293771,-1.79076 -2.144939,-0.69124 0.07174,1.46553 -0.06378,2.93069 -0.224696,4.38575 -0.442773,2.98465 -0.878382,5.97214 -1.381745,8.9473 -0.659613,3.15964 -0.932137,6.38486 -1.347998,9.58293 -0.403319,2.76142 -0.822718,5.52045 -1.241878,8.2795 -0.435372,2.7668 -0.82876,5.53978 -1.207029,8.31491 -0.354805,2.63239 -0.660475,5.27066 -0.90547,7.91548 -0.23189,2.35773 -0.309248,4.72349 -0.314256,7.09112 0.02854,2.19388 0.08743,4.3872 0.114916,6.58113 0.03176,1.91037 0.04387,3.8211 0.02121,5.73162 -0.03251,1.94889 -0.09704,3.89679 -0.13107,5.84568 -0.01073,2.28921 0.02838,4.5788 0.09558,6.86699 0.04113,2.24621 0.213417,4.485 0.601317,6.69793 0.318367,1.62244 0.798064,3.23481 1.626776,4.67645 0.157445,0.2739 0.341747,0.53144 0.512625,0.79718 0.567787,0.75943 1.255262,1.41342 2.077166,1.89347 2.359678,1.3782 2.798993,1.77867 4.933644,2.3239 1.473071,0.33179 2.954058,0.21615 4.324347,-0.43991 0.303251,-0.14513 0.585917,-0.32995 0.878878,-0.49492 1.328203,-0.89961 2.542801,-1.98741 3.510858,-3.27268 0.724113,-0.96137 0.936105,-1.41925 1.532586,-2.47416 1.565098,-3.2344 2.441652,-6.73542 3.238694,-10.2216 0.856757,-3.79612 1.564308,-7.62494 2.132875,-11.47435 0.493002,-3.78562 1.158085,-7.54355 1.823309,-11.30158 0.499399,-2.92018 1.144947,-5.81178 1.721328,-8.7169 0.01214,-0.0646 0.340678,-1.82768 0.357176,-1.96373 0.0334,-0.27538 0.141899,-0.56966 0.04818,-0.83079 -0.829896,-1.19905 -0.589255,-0.63741 -0.89876,-1.5976 0,0 -0.254993,-0.13219 -0.254993,-0.13219 v 0 c -0.413187,0.57659 -0.10688,0.30558 -1.102094,0.53875 -0.191088,0.1753 -0.137244,0.50104 -0.184003,0.75622 -0.120847,0.66087 -0.138053,1.33814 -0.284668,1.99529 -0.475149,2.94803 -0.993717,5.88855 -1.5118,8.8293 -0.660244,3.76751 -1.218002,7.55118 -1.768371,11.33614 -0.624011,3.82906 -1.328181,7.64203 -2.183278,11.42708 -0.826293,3.44201 -1.711233,6.91325 -3.364806,10.06713 -0.250977,0.42138 -0.483231,0.85449 -0.752926,1.26415 -1.130784,1.71757 -2.611444,3.19094 -4.369599,4.25994 -0.295597,0.14838 -0.582629,0.3153 -0.886795,0.44525 -1.367305,0.58424 -2.819495,0.62624 -4.252892,0.27706 -0.282763,-0.0797 -0.569801,-0.14554 -0.848291,-0.23904 -0.279395,-0.0939 -1.047163,-0.51406 -0.82334,-0.32232 0.472493,0.40481 1.056837,0.65699 1.589415,0.97864 0.267764,0.16173 -0.541956,-0.31475 -0.794901,-0.49878 -0.683521,-0.49731 -0.785844,-0.67658 -1.346668,-1.30008 -0.178112,-0.25862 -0.370321,-0.50808 -0.534353,-0.77585 -0.864618,-1.41146 -1.348057,-3.01603 -1.703944,-4.61995 -0.410177,-2.2088 -0.636883,-4.44425 -0.680944,-6.69161 -0.04868,-2.2805 -0.10692,-4.56175 -0.07504,-6.8429 0.04494,-1.94533 0.144328,-3.88923 0.160036,-5.83529 -0.0011,-1.91814 5.37e-4,-3.83645 -0.0504,-5.75412 -0.05945,-2.20035 -0.143943,-4.40022 -0.166271,-6.60138 -0.0053,-2.36746 0.05044,-4.73573 0.254507,-7.09554 0.235103,-2.64732 0.523326,-5.28959 0.861907,-7.92575 0.371467,-2.77371 0.799405,-5.53895 1.214045,-8.30645 0.421129,-2.7668 0.863738,-5.53148 1.198581,-8.31033 0.377781,-3.24661 0.778255,-6.49466 1.012496,-9.75473 0.06599,-0.57198 0.119693,-1.14551 0.19797,-1.71594 0.330827,-2.41064 0.872834,-4.78673 1.276761,-7.18484 0.218081,-1.42599 0.446447,-2.85548 0.491827,-4.29998 0.0032,-1.19879 0.09206,-0.38496 -2.266157,-1.74173 -0.02903,-0.0162 -0.03459,0.0577 -0.04692,0.0889 -0.04455,0.11254 -0.07093,0.23137 -0.105685,0.34727 -0.0285,0.0949 -0.05712,0.19008 -0.08567,0.285 -0.343964,1.12233 -0.710658,2.23769 -1.108422,3.34219 -0.530062,1.58054 -0.970721,3.18535 -1.389173,4.79867 -0.503459,1.73064 -1.073589,3.43956 -1.63164,5.15315 -0.631646,1.94517 -1.24821,3.89507 -1.861559,5.84607 -0.622642,1.78226 -1.375752,3.5116 -2.309736,5.15536 -0.951805,1.65984 -1.999144,3.25819 -3.048242,4.8577 -0.678962,1.11185 -1.296989,2.27971 -2.150101,3.2707 -0.199387,0.17833 -0.347312,0.35497 -0.609274,0.43853 -0.08846,0.0281 -0.352053,-0.031 -0.277494,0.0245 0.578682,0.4296 1.227477,0.75565 1.839964,1.1355 0.09915,0.0615 -0.208614,-0.10769 -0.299903,-0.18036 -0.10279,-0.0818 -0.185298,-0.18623 -0.277943,-0.27937 -0.596866,-0.87892 -0.841904,-1.87671 -0.912262,-2.93255 -0.134956,-1.42008 -0.269306,-2.84026 -0.384653,-4.2621 -0.105523,-1.54057 -0.144692,-3.08613 0.216476,-4.60156 0.376361,-1.78075 0.859753,-3.53402 1.313693,-5.2961 0.534611,-2.12601 1.088731,-4.24743 1.721227,-6.34678 0.657283,-2.28868 1.308858,-4.57886 1.956234,-6.8704 0.718123,-2.4864 1.468337,-4.96407 2.240817,-7.43408 0.732832,-2.23241 1.571737,-4.4291 2.235886,-6.68412 0.53855,-1.85432 0.07599,-0.13846 0.459408,-1.92037 0.212347,-0.98684 0.573782,-1.93116 0.905295,-2.88188 0.375574,-1.07643 0.654627,-2.18326 1.136277,-3.22299 0,0 -1.5301,-0.86386 -1.5301,-0.86386 z" />
    <path
       style="fill:#000000;stroke-width:0.535578"
       id="path352"
       d="m 94.730348,220.23964 c 0.109511,-0.002 0.219447,-0.0162 0.328574,-0.006 0.325739,0.0285 0.645487,0.10506 0.968839,0.15364 0.442011,0.0664 0.876291,0.13907 1.313667,0.232 0.842527,0.16882 1.613355,0.55602 2.422988,0.8268 1.006914,0.26825 2.056314,0.20768 3.084694,0.13987 1.1508,-0.10242 2.29965,-0.22036 3.45339,-0.28444 1.02256,-0.0644 2.04656,-0.0753 3.07019,-0.0395 0.77557,0.0496 1.55194,0.0346 2.32808,0.0142 0.66152,-0.004 1.3169,-0.0901 1.97081,-0.18096 0.70154,-0.0994 1.38425,-0.29346 2.06954,-0.46807 0.54968,-0.13724 1.10416,-0.25505 1.66001,-0.36432 0.39452,-0.0725 0.79595,-0.0878 1.19379,-0.13441 0.29376,-0.0439 0.58632,-0.0943 0.87807,-0.14979 -0.0387,-0.0441 -0.0771,-0.0885 -0.11558,-0.13259 0,0 -1.50334,-1.08566 -1.50334,-1.08566 v 0 c -0.10283,-0.0423 -0.20584,-0.0846 -0.30875,-0.12712 -0.28301,0.0555 -0.5662,0.11174 -0.85271,0.14595 -0.39831,0.0451 -0.7999,0.0708 -1.19159,0.16194 -0.54836,0.12125 -1.09557,0.24799 -1.63839,0.39227 -0.68304,0.17814 -1.36938,0.34704 -2.07108,0.43493 -0.64476,0.0889 -1.29158,0.16214 -1.9433,0.17004 -0.76043,0.0247 -1.52093,0.0437 -2.28138,0.004 -1.01987,-0.0207 -2.0387,0.0121 -3.05695,0.0729 -1.1541,0.0733 -2.30418,0.18522 -3.45631,0.28254 -1.02479,0.0555 -2.06818,0.0937 -3.057727,-0.22949 -0.803621,-0.29086 -1.588396,-0.64733 -2.435579,-0.79876 -0.435656,-0.0854 -0.877971,-0.18016 -1.322432,-0.20637 -0.68324,-0.0403 -0.114977,0.0182 -0.721376,0.0474 -0.118418,0.006 -0.23716,-0.008 -0.355719,-0.0122 0,0 1.569652,1.14126 1.569652,1.14126 z" />
    <path
       style="fill:#000000;stroke-width:0.535578"
       id="path354"
       d="m 114.68572,219.88115 c 0.29226,1.03364 0.54748,2.07828 0.80496,3.12121 0.39199,1.70835 0.6767,3.43881 0.98499,5.16362 0.31125,1.71461 0.5242,3.44466 0.72733,5.17471 0.0775,0.97062 0.25256,1.9375 0.30272,2.91049 0.0162,0.33302 -0.004,0.66704 0.004,1.00037 0.0271,0.95864 0.0729,1.31899 0.15627,2.28559 0.18482,2.32074 0.44163,4.63428 0.6999,6.94765 0.0403,0.38428 0.0897,0.76773 0.12105,1.15287 0.0312,0.3845 0.0352,0.77086 0.066,1.15539 0.12854,1.60681 0.36564,3.2073 0.53976,4.80964 0.26987,2.50815 0.41564,5.02755 0.54535,7.54618 0.0569,1.87041 0.13158,3.73767 0.51058,5.57379 0.32964,1.38403 0.85519,2.30352 1.86067,3.2894 1.39108,1.08078 2.92121,2.0545 4.58536,2.65187 0.46383,0.1666 0.79455,0.24787 1.26897,0.37845 1.24513,0.35216 2.09073,0.40665 3.30753,-0.033 1.08811,-0.45878 1.98515,-1.24357 2.85424,-2.02377 0.97962,-0.85589 1.79909,-1.86592 2.67678,-2.81982 0.68927,-1.01738 1.36877,-2.0412 1.961,-3.11854 0.5681,-1.0575 1.0576,-2.15204 1.46376,-3.281 0.40742,-1.24263 0.75338,-2.50369 1.03957,-3.77942 0.31902,-1.46409 0.52383,-2.94476 0.67415,-4.43429 0.15384,-1.74028 0.26396,-3.48326 0.34552,-5.22823 0.0577,-2.00622 0.18299,-4.0094 0.28752,-6.01352 0.0852,-2.19611 0.18441,-4.39133 0.24297,-6.5884 0.032,-2.30299 -0.002,-4.60618 -0.15344,-6.90454 -0.13137,-1.95359 -0.3824,-3.89466 -0.65753,-5.83218 -0.26844,-1.7908 -0.37351,-3.59838 -0.44499,-5.40584 -0.0378,-2.00102 -0.16781,-3.99636 -0.33288,-5.99021 -0.17105,-2.11877 -0.36941,-4.23495 -0.56922,-6.35114 -0.23009,-2.16387 -0.49448,-4.32338 -0.6485,-6.49441 -0.0921,-1.7775 -0.14818,-3.55614 -0.25127,-5.33315 -0.0787,-1.42464 -0.28131,-2.83464 -0.59567,-4.22521 -0.29512,-1.13304 -0.64225,-2.25024 -0.90619,-3.39136 -0.26635,-1.08118 -0.28548,-2.185 -0.20937,-3.28873 0.10607,-0.88641 0.14494,-1.77694 0.16558,-2.66869 0.0223,-0.46102 -0.0142,-0.92161 -0.0182,-1.38237 -0.39522,1.10553 0.0887,-0.11903 -2.81284,-1.25707 -0.12125,-0.0476 0.11052,0.23609 0.15911,0.35687 0.0729,0.18056 0.13987,0.36361 0.2055,0.54699 0.0903,0.25216 0.17752,0.50539 0.26215,0.75951 0.10081,0.30291 0.19595,0.60766 0.29392,0.9115 0.69324,2.28394 1.54267,4.50971 2.53847,6.6775 0.98927,1.96861 2.10276,3.87094 3.14083,5.81392 0.90631,1.75016 1.87695,3.46503 2.84135,5.18334 0.64167,1.17918 1.28177,2.36589 2.23233,3.32626 1.14816,0.92722 0.65964,0.55999 3.30165,1.95477 0.18197,0.0961 0.53403,0.0587 0.71433,0.002 0.32564,-0.10344 0.50071,-0.26392 0.77625,-0.46088 0.99216,-0.90765 1.65317,-2.0844 2.18972,-3.3009 0.49229,-1.22932 0.60281,-2.51356 0.48332,-3.81876 -0.21149,-1.52816 -0.69164,-3.00316 -1.14031,-4.47439 -0.4766,-1.59744 -0.9744,-3.18774 -1.49589,-4.77106 -0.52158,-1.62042 -0.93938,-3.27039 -1.48603,-4.88276 -0.50004,-1.40085 -1.07689,-2.7733 -1.66189,-4.1404 -0.66697,-1.54401 -1.45942,-3.02532 -2.33943,-4.45698 -0.91056,-1.30997 -1.72252,-2.66977 -2.37382,-4.12592 -0.53347,-1.21179 -0.92489,-2.47716 -1.2992,-3.74485 -0.30266,-1.02568 -0.58984,-2.056 -0.86135,-3.09036 -0.17813,-0.64523 -0.3408,-1.29351 -0.45375,-1.95345 -0.51284,-0.55731 -0.13623,-0.20849 -1.30776,-0.81315 0,0 -0.39037,-0.15891 -0.39037,-0.15891 v 0 c -1.02868,-0.495 -0.62915,-0.57494 -1.15043,-0.41288 0.13987,0.67577 0.29426,1.34808 0.50421,2.00624 0.30062,1.04021 0.59219,2.0831 0.90546,3.11963 0.39641,1.28067 0.78211,2.56908 1.32177,3.79868 0.66712,1.46803 1.45684,2.85992 2.39102,4.17713 0.88684,1.40943 1.69734,2.8667 2.34067,4.4054 0.56466,1.37759 1.15156,2.74611 1.69272,4.13298 0.55841,1.60854 0.98234,3.25642 1.49352,4.88004 0.49896,1.58759 1.02738,3.16592 1.49283,4.76396 0.43459,1.44528 0.89332,2.89443 1.10892,4.39214 0.11862,1.25529 0.0589,2.49981 -0.40434,3.69014 -0.49195,1.17683 -1.12859,2.31761 -2.16119,3.1059 -0.3404,0.1919 -0.62768,0.36568 -1.03344,0.28441 -0.10323,-0.0207 -0.38756,-0.1587 -0.29849,-0.10263 0.76834,0.48345 1.56178,0.92586 2.34267,1.38879 -0.11417,-0.0739 -0.2284,-0.14757 -0.34261,-0.22133 -1.05584,-0.90842 -1.76687,-2.09304 -2.42487,-3.30904 -0.98748,-1.72111 -1.9796,-3.43968 -2.89534,-5.2006 -1.05612,-1.94151 -2.15907,-3.85738 -3.18337,-5.81595 -1.02086,-2.12514 -1.88946,-4.31911 -2.48449,-6.60471 -0.1921,-0.7126 -0.38452,-1.42547 -0.56642,-2.14077 -0.0285,-0.11235 0.0162,-0.27334 -0.0808,-0.33821 -2.82624,-1.90877 -2.41291,-2.65533 -2.95233,-1.51686 0.0605,0.46531 0.10425,0.9323 0.11093,1.40194 0.0142,0.89479 -0.0207,1.7874 -0.10688,2.67853 -0.0644,1.12732 -0.0826,2.25892 0.17246,3.36756 0.25398,1.15559 0.6225,2.27702 0.94793,3.41352 0.32943,1.38464 0.5459,2.79112 0.67051,4.20932 0.14413,1.78509 0.16963,3.57613 0.30131,5.36211 0.19979,2.17031 0.47806,4.33219 0.65935,6.50431 0.20479,2.11488 0.43031,4.22829 0.57464,6.34845 0.14817,1.98753 0.28364,3.97663 0.32036,5.96997 0.0563,1.80851 0.12044,3.62182 0.38634,5.41414 0.31293,1.94604 0.64132,3.89151 0.76959,5.86131 0.16255,2.28878 0.23271,4.58149 0.15628,6.876 -0.0561,2.18516 -0.16619,4.36818 -0.30194,6.5498 -0.10263,1.99668 -0.22283,3.99249 -0.33546,5.98863 -0.1,1.73293 -0.19574,3.46725 -0.37517,5.19415 -0.16943,1.46749 -0.3931,2.92965 -0.71692,4.37172 -0.29003,1.25862 -0.62452,2.50794 -1.05293,3.72732 -0.41217,1.10768 -0.89829,2.18656 -1.45439,3.22985 -0.59891,1.05989 -1.25917,2.08283 -1.90328,3.11556 -0.0959,0.18866 -0.17834,0.38495 -0.28789,0.56618 -0.54579,0.90371 -1.39334,1.59339 -2.13577,2.3244 -0.86666,0.74717 -1.7628,1.48915 -2.85113,1.88902 -1.15863,0.34983 -1.98351,0.2806 -3.1476,-0.0621 -0.49292,-0.14453 -0.76401,-0.21175 -1.24288,-0.40069 -0.20101,-0.0793 -0.77324,-0.3804 -0.59359,-0.26036 0.59482,0.3975 1.22934,0.73209 1.84493,1.09657 0.17854,0.10566 -0.36096,-0.20548 -0.53383,-0.3203 -0.16478,-0.10951 -0.31876,-0.23448 -0.47813,-0.35175 -1.02695,-0.91341 -1.6525,-1.83322 -2.02037,-3.17825 -0.4411,-1.83899 -0.582,-3.71977 -0.67301,-5.60561 -0.15384,-2.52812 -0.3457,-5.05356 -0.57687,-7.57588 -0.16497,-1.61028 -0.31175,-3.22705 -0.56608,-4.8265 -0.0654,-0.41134 -0.15586,-0.81852 -0.21896,-1.23025 -0.0595,-0.38742 -0.0992,-0.77761 -0.14878,-1.1664 -0.27748,-2.32024 -0.55551,-4.64123 -0.75854,-6.96938 -0.083,-0.97271 -0.10202,-1.36458 -0.24127,-2.32888 -0.0526,-0.36473 -0.13502,-0.72486 -0.18299,-1.09023 -0.12672,-0.96544 -0.15141,-1.94541 -0.29291,-2.9097 -0.19189,-1.73594 -0.40256,-3.47045 -0.72552,-5.18783 -0.31086,-1.71517 -0.60231,-3.43395 -0.92789,-5.14633 -0.21546,-1.01785 -0.47614,-2.02638 -0.65395,-3.05182 0,0 -1.95199,-0.93645 -1.95199,-0.93645 z" />
    <path
       style="fill:#000000;stroke-width:0.535578"
       id="path356"
       d="m 73.824822,203.70278 c 0.156513,0.0202 0.312086,0.0494 0.469551,0.0587 0.301832,0.0182 0.604748,-0.008 0.907062,-0.004 0.479085,0.008 0.957288,0.037 1.435576,0.0638 0.93233,0.0202 1.825026,0.27805 2.718699,0.51507 1.185659,0.30845 2.398942,0.47687 3.619065,0.56336 1.160433,-0.0225 2.32183,0.1164 3.481657,0.0601 0.372008,-0.0182 1.218771,-0.11862 1.5954,-0.16072 1.379374,-0.21981 2.758323,-0.40341 4.155105,-0.44701 1.184198,-0.0243 2.365581,0.0583 3.545447,0.14635 1.078674,0.0834 2.159999,0.1083 3.241467,0.11093 1.381579,-0.006 2.762679,0.0334 4.143919,0.0571 1.34107,0.0241 2.68213,0.0142 4.02163,0.0899 1.13385,0.0933 2.26102,0.25116 3.39213,0.37177 0.73676,0.11032 1.48676,0.0526 2.22584,0.11194 0.8983,0.11457 0.45135,0.0698 1.3407,0.13582 1.11749,-0.1008 2.23036,-0.24359 3.34812,-0.34203 1.34788,-0.11801 2.70181,-0.0842 4.05304,-0.0903 1.32088,-0.006 2.63705,-0.12753 3.95629,-0.18097 1.10565,-0.0162 2.20979,-0.0567 3.30747,-0.19412 0.79415,-0.11761 1.56852,-0.33232 2.34915,-0.51418 0.5617,-0.14635 1.13701,-0.19129 1.71456,-0.20977 0.60735,-0.006 1.21159,-0.071 1.81651,-0.11862 0.62158,-0.0235 1.23857,-0.0939 1.85495,-0.17388 0.57998,-0.0644 1.15521,-0.16336 1.73456,-0.23214 0.40319,-0.0387 0.80729,5.3e-4 1.21112,-0.008 0.32522,-0.0202 0.64434,-0.0907 0.96176,-0.16052 0.0453,-0.0121 0.10971,0.004 0.13623,-0.0336 0.0253,-0.0368 0.002,-0.0941 -0.0225,-0.13178 -0.28473,-0.45013 -0.85166,-0.79593 -1.25462,-1.15361 0,0 -0.13947,-0.0824 -0.13947,-0.0824 v 0 c -0.16194,-0.0781 -0.32831,-0.14797 -0.48612,-0.2344 -0.42163,-0.23073 -1.05837,-0.78233 -1.60255,-0.70899 -0.30193,0.0575 -0.60648,0.10283 -0.91489,0.0968 -0.4064,-0.002 -0.81366,-5.1e-4 -1.2161,0.0656 -0.57381,0.0822 -1.14679,0.17044 -1.72292,0.23583 -0.61361,0.0698 -1.22837,0.11943 -1.84453,0.16092 -0.60437,0.05 -1.20936,0.0862 -1.81557,0.10506 -0.58812,0.0421 -1.16894,0.13097 -1.739,0.28566 -0.75696,0.19352 -1.51366,0.39651 -2.29004,0.49774 -1.07594,0.12874 -2.1569,0.17003 -3.23944,0.20572 -1.30521,0.0672 -2.60831,0.18886 -3.91627,0.18826 -1.36994,-0.002 -2.74217,-0.0182 -4.10895,0.0917 -1.11529,0.0968 -2.2271,0.22368 -3.34061,0.33817 -0.25844,0.0787 -0.50643,0.20273 -0.77389,0.24068 -0.71067,0.10081 -1.45133,-0.0897 -2.16032,-0.10445 -1.12879,-0.12105 -2.25417,-0.28201 -3.38839,-0.34489 -1.327,-0.047 -2.65495,-0.0314 -3.98252,-0.0498 -1.392797,-0.0231 -2.785146,-0.0674 -4.178103,-0.08 -1.08169,-0.0221 -2.163036,-0.0617 -3.242621,-0.13421 -1.174805,-0.0729 -2.35212,-0.1342 -3.529475,-0.0923 -1.389434,0.0672 -2.757183,0.29242 -4.132533,0.49175 -0.520598,0.0611 -1.043108,0.10526 -1.563701,0.16639 -1.01504,0.11923 -2.013165,0.36588 -3.044128,0.20463 -1.233352,-0.12004 -2.460341,-0.30574 -3.654296,-0.64695 -0.89914,-0.23817 -1.802801,-0.45741 -2.739778,-0.46233 -0.691175,-0.032 -1.667781,-0.1247 -2.338074,-0.0291 -0.09423,0.0142 -0.181715,0.0567 -0.272557,0.085 0,0 1.91683,1.38058 1.91683,1.38058 z" />
    <path
       style="fill:#000000;stroke-width:0.535578"
       id="path358"
       d="m 121.66662,258.92412 c 1.30816,-0.14818 2.61996,-0.19109 3.93495,-0.22158 2.03225,-0.0476 4.05755,-0.18683 6.07879,-0.3977 1.90458,-0.20716 3.80202,-0.46934 5.70065,-0.72328 0.85694,-0.1091 0.51913,-0.18602 0.54772,-0.84179 0,0 -0.13198,-0.0939 -0.13198,-0.0939 v 0 c -0.24184,-0.0729 -0.48398,-0.14493 -0.72551,-0.2188 -1.26312,-0.38646 -0.6616,-0.33396 -1.73382,-0.28503 -1.86922,0.30017 -3.74293,0.56636 -5.6264,0.76263 -2.03542,0.20453 -4.07739,0.32756 -6.12361,0.34418 -1.30822,0.0512 -2.62037,0.11154 -3.92165,0.25649 0,0 2.00076,1.41885 2.00076,1.41885 z" />
    <path
       style="fill:#000000;stroke-width:0.535578"
       id="path360"
       d="m 71.466647,258.49555 c 1.803447,0.72307 3.74972,0.96659 5.664241,1.20239 1.399469,0.1166 1.561336,0.15324 2.995847,0.17429 0.971907,0.0142 1.984387,0.0739 2.921461,-0.27388 0.330995,-0.12287 0.598415,-0.37481 0.897627,-0.56221 0,0 -0.131879,-0.0939 -0.131879,-0.0939 v 0 c -0.69296,-0.0959 -1.38287,-0.21742 -2.078882,-0.28794 -2.156887,-0.21852 -4.337983,-0.0121 -6.486183,-0.36103 -1.885907,-0.25701 -3.835064,-0.45172 -5.587436,-1.24498 0,0 1.805206,1.44741 1.805206,1.44741 z" />
    <path
       style="fill:#000000;stroke-width:0.535578"
       id="path362"
       d="m 139.41107,182.48941 c 0.61705,-0.71785 1.68726,-1.25745 2.24913,-1.9749 4.22118,-5.38989 -2.86322,2.43734 2.40687,-3.20604 0,0 -0.13744,-0.0856 -0.13744,-0.0856 v 0 c -0.62897,0.43926 -1.21219,0.95267 -1.88693,1.31774 -0.67666,0.3661 -1.45124,0.52124 -2.14118,0.86165 -0.93985,0.46376 -1.74053,1.21309 -2.64634,1.73866 0,0 2.15589,1.34854 2.15589,1.34854 z" />
    <path
       style="fill:#000000;stroke-width:0.535578"
       id="path364"
       d="m 64.081279,179.50221 c 1.728207,0.66921 3.484074,1.29543 5.271799,1.78568 0.404731,0.10222 0.809467,0.20441 1.214198,0.30661 0,0 -0.12783,-0.0994 -0.12783,-0.0994 v 0 c -0.560794,-0.22455 -1.121588,-0.4491 -1.682382,-0.67366 -0.546268,-0.24036 -1.086775,-0.49428 -1.638802,-0.72112 -1.409326,-0.57911 -2.884523,-0.98797 -4.285652,-1.58754 0,0 1.248675,0.98944 1.248675,0.98944 z" />
  </g>
</svg>
