<?xml version="1.0" encoding="UTF-8" standalone="no"?>
<!-- Created with Inkscape (http://www.inkscape.org/) -->

<svg
   width="210px"
   height="297px"
   viewBox="0 0 210 297"
   version="1.1"
   id="svg5"
   inkscape:version="1.2.2 (b0a8486541, 2022-12-01)"
   sodipodi:docname="ashur.svg.2023_07_03_08_00_57.0.svg"
   xmlns:inkscape="http://www.inkscape.org/namespaces/inkscape"
   xmlns:sodipodi="http://sodipodi.sourceforge.net/DTD/sodipodi-0.dtd"
   xmlns="http://www.w3.org/2000/svg"
   xmlns:svg="http://www.w3.org/2000/svg">
  <sodipodi:namedview
     id="namedview7"
     pagecolor="#ffffff"
     bordercolor="#000000"
     borderopacity="0.25"
     inkscape:showpageshadow="2"
     inkscape:pageopacity="0.0"
     inkscape:pagecheckerboard="0"
     inkscape:deskcolor="#d1d1d1"
     inkscape:document-units="mm"
     showgrid="false"
     inkscape:zoom="3.515417"
     inkscape:cx="92.023223"
     inkscape:cy="101.26821"
     inkscape:window-width="1280"
     inkscape:window-height="651"
     inkscape:window-x="0"
     inkscape:window-y="0"
     inkscape:window-maximized="1"
     inkscape:current-layer="layer1" />
  <defs
     id="defs2" />
  <g
     inkscape:groupmode="layer"
     id="layer2"
     inkscape:label="Layer 2"
     style="display:inline">
    <path
       style="fill:#e9c6af;stroke-width:0.535578"
       d="m 91.570842,24.990547 c -1.134381,-0.385086 -1.756104,0.451686 -2.792897,0.576561 -0.843478,0.101596 -1.761928,-0.213428 -2.640891,-0.172404 -0.743379,0.0347 -1.448096,0.289619 -2.183905,0.357803 -0.796415,0.0738 -1.678597,0.05548 -2.481448,0.06583 -1.054303,0.01356 -2.323801,-0.617549 -3.355574,-0.311461 -0.857546,0.25441 -1.621128,0.820072 -2.429546,1.184647 -1.191363,0.537287 -2.46906,0.91647 -3.64014,1.502593 -0.498589,0.249542 -0.925804,0.601888 -1.442328,0.821277 -1.508601,0.640755 -3.234382,0.665623 -4.706142,1.416387 -1.823653,0.930257 -3.142037,2.785844 -4.711709,4.05727 -1.177072,0.953426 -2.583773,1.575356 -3.785662,2.495356 -2.118341,1.621487 -3.710624,3.541611 -5.420819,5.566355 -0.916917,1.085532 -1.932738,2.15534 -2.693729,3.362051 -0.909509,1.442206 -1.72906,3.049185 -2.250645,4.672782 -0.433631,1.34978 -0.667147,2.797229 -1.184643,4.116584 -0.540166,1.377148 -1.166444,2.619137 -1.58787,4.037801 -0.287218,0.966855 -0.205156,1.980936 -0.516321,2.944937 -1.038878,3.218512 -2.218622,6.363768 -3.070986,9.650517 -0.769958,2.968924 -1.045457,6.144563 -1.389495,9.179599 -0.513063,4.525965 -0.854632,9.036991 -0.992766,13.595607 -0.0247,0.81356 -0.19635,1.610035 -0.212281,2.422138 -0.0583,2.961799 0.222767,5.950803 0.343897,8.908943 0.09878,2.41315 0.112548,4.77306 0.543203,7.16813 0.175906,0.97852 0.479703,1.82064 0.727652,2.77345 0.393146,1.51074 0.532333,3.11485 1.125312,4.57357 0.57798,1.42184 1.414373,2.76154 1.886364,4.21579 0.789573,2.43287 1.08926,4.96363 1.819604,7.40635 0.899003,3.00688 2.258276,5.82678 4.149964,8.33979 0.729696,0.96936 1.910148,1.55248 2.845749,2.28957 0.66403,0.52316 1.286867,1.28557 1.827013,1.93917 0.765222,0.92597 1.638699,1.7893 2.375783,2.72711 0.993717,1.2643 1.792784,2.64966 2.839252,3.87931 0.932039,1.09515 2.555434,2.41408 3.73285,3.27587 0.705668,0.51649 1.788269,0.54736 2.594542,0.7879 1.297656,0.38713 2.651625,0.99161 3.905254,1.50908 1.324052,0.54655 2.496468,1.37582 3.857968,1.86594 1.35903,0.48926 2.871639,0.65041 4.202796,1.231 0.909266,0.39659 1.704466,1.01967 2.666848,1.31721 2.202569,0.68095 4.597947,-0.86532 6.864097,-0.31795 1.202114,0.29036 2.274201,1.02271 3.447326,1.30422 1.330974,0.31938 2.727473,0.25374 4.057274,0.55618 1.494735,0.33997 2.817552,1.17478 4.289008,1.56839 0.672552,0.17996 1.323647,0.13219 2.005009,0.1919 1.29887,0.11356 2.63506,0.45981 3.92471,0.67575 0.71899,0.12044 1.37059,0.41879 2.07174,0.6016 0.50673,0.13219 0.95918,0.0881 1.46923,0.13907 1.78813,0.17894 3.4494,0.59796 5.2753,0.50332 1.15515,-0.0599 2.09198,-0.57972 3.20262,-0.79439 1.76044,-0.34027 3.49745,-0.58553 5.22244,-1.11142 1.13034,-0.34459 2.12569,-1.05685 3.30272,-1.218 1.8862,-0.25826 3.77026,-0.40918 5.65812,-0.66185 0.82265,-0.11012 1.6041,-0.41547 2.42955,-0.50334 0.78435,-0.0834 1.57939,0.10242 2.3554,-0.0121 1.07533,-0.16012 3.88215,-0.7798 4.81828,-1.29124 3.88038,-2.12 6.44802,-5.98584 9.21948,-9.26585 0.99023,-1.17191 1.90264,-2.40009 2.87913,-3.58081 0.77927,-0.94228 1.77239,-1.65847 2.53521,-2.61401 1.10818,-1.3882 2.21991,-2.97684 3.14329,-4.50129 0.8003,-1.32124 2.48116,-4.35828 2.83277,-5.76472 0.32372,-1.2949 0.46707,-2.63517 0.87411,-3.91173 0.4058,-1.27268 1.09847,-2.44107 1.52206,-3.70688 0.56158,-1.67821 0.57517,-3.47539 0.8667,-5.20856 0.23286,-1.38431 0.55423,-2.74953 0.73508,-4.14346 0.26859,-2.07039 0.27029,-4.22849 0.35687,-6.31442 0.0312,-0.74972 0.22928,-1.45261 0.29756,-2.19688 0.30242,-3.29657 0.26263,-6.73094 0.31793,-10.040748 0.0211,-1.255248 -0.1836,-2.496266 -0.13907,-3.753234 0.15465,-4.366375 1.59459,-8.505731 0.76751,-12.886498 -0.38944,-2.062695 -1.04288,-3.055076 -2.05783,-4.77195 -0.63978,-1.082217 -1.10354,-2.299814 -1.62866,-3.441765 -0.92755,-2.017069 -1.60939,-4.181441 -2.22377,-6.314417 -0.25066,-0.870279 -0.3797,-1.775881 -0.69427,-2.627901 -0.38576,-1.044789 -1.0174,-1.976847 -1.30423,-3.063578 -0.58699,-2.223904 -0.62482,-4.598999 -1.52206,-6.751934 -0.56211,-1.348829 -1.3965,-2.54505 -2.15144,-3.785662 -0.4039,-0.663706 -0.59371,-1.42247 -1.06507,-2.051359 -0.87216,-1.163571 -1.95948,-2.194878 -2.86616,-3.342578 -0.67773,-0.857931 -1.61467,-3.075235 -2.5278,-3.593797 -1.65321,-0.938876 -3.58417,-0.765203 -5.14921,-1.97905 -0.71437,-0.554057 -0.85337,-1.119778 -1.2968,-1.86039 -0.50236,-0.838995 -1.47978,-1.882534 -2.33036,-2.356316 -1.64599,-0.91681 -3.60771,-0.821123 -5.32072,-1.587868 -1.46713,-0.656684 -2.7216,-1.676576 -4.20929,-2.309967 -1.90485,-0.811006 -3.94291,-1.234615 -5.87688,-1.979044 -1.0658,-0.410257 -1.95553,-1.245487 -3.01166,-1.68149 -1.78772,-0.738024 -3.97039,-0.854282 -5.86392,-1.250465 -1.3881,-0.290433 -2.66503,-0.925978 -4.0174,-1.3311 -2.76405,-0.828005 -5.465,-0.816554 -8.29252,-1.131812 -1.34245,-0.149672 -2.50295,-0.615171 -3.865398,-0.350387 -1.315874,0.255734 -2.624885,0.504971 -3.931205,0.813866 -0.117203,0.02769 -0.95892,0.309677 -1.03912,0.09919 -0.18623,-0.489004 0.311955,-1.512832 0.403227,-2.005002"
       id="path952" />
    <path
       style="fill:#bebebe;fill-opacity:1;stroke-width:0.535578"
       d="m 71.947276,203.1759 c -1.281989,2.6818 -1.393085,5.81289 -1.574897,8.74303 -0.06243,1.00604 0.121859,1.99634 -0.01295,3.00518 -0.117851,0.88179 -0.550254,1.67102 -0.661842,2.54169 -0.327023,2.55154 -0.260964,5.11524 -0.476454,7.66405 -0.08036,0.95048 -0.236508,1.82784 -0.218763,2.79292 0.02245,1.21986 -0.11856,2.4458 -0.06581,3.65404 0.07174,1.64336 0.259375,3.29926 0.224322,4.94436 -0.03589,1.68428 -0.420302,3.31203 -0.251204,4.9898 0.09046,0.8976 0.314418,1.78839 0.33741,2.68723 0.0248,0.96997 -0.164206,1.903 -0.211345,2.86613 -0.08263,1.68799 0.02593,3.42132 0.09919,5.10937 0.03577,0.82382 -0.166372,1.7242 -0.05285,2.53521 0.14787,1.05625 0.354166,2.22119 0.44957,3.30922 0.184105,2.09972 0.272051,6.50113 1.734326,8.06819 1.025515,1.09902 5.170767,1.3543 6.525749,1.22452 0.635044,-0.0609 1.209502,-0.3648 1.81312,-0.54877 1.206723,-0.36772 2.720697,-0.6568 3.653124,-1.5619 0.602317,-0.58468 1.074868,-1.3104 1.681491,-1.90674 0.970553,-0.95411 1.86736,-2.20101 2.303475,-3.49462 0.209154,-0.62039 0.300937,-1.30697 0.63496,-1.87987 0.453914,-0.7785 1.048695,-1.40449 1.462732,-2.21076 0.764776,-1.48929 1.135433,-6.14404 1.522062,-8.04781 0.644516,-3.1736 1.457347,-6.31446 2.183906,-9.46512 0.1587,-0.68796 0.573405,-1.273 0.708178,-1.97256 0.53541,-2.77882 0.409402,-5.62318 0.800888,-8.41858 0.267523,-1.91027 0.897526,-3.74868 1.35057,-5.59323 0.122668,-0.4995 0.139874,-1.08084 0.324444,-1.55544 0.02024,-0.0506 0.350881,0.12996 0.409705,0.12611 0.242442,-0.0162 0.35748,-0.21892 0.648868,-0.0733 0.761537,0.38076 0.921249,0.15324 1.635136,0.23174 1.093773,0.12024 2.064313,0.49035 3.210053,0.49035 1.28918,0 2.58752,-0.75441 3.75878,-0.68223 1.10404,0.068 2.18361,-0.1674 3.28977,-0.18542 1.00366,-0.0162 1.98998,0.12935 2.99127,-0.0121 0.96655,-0.13745 2.08751,-0.82927 3.04413,-0.66834 0.25145,0.0423 0.47638,1.33348 0.54968,1.50908 0.43531,1.04301 0.45446,2.15114 0.80736,3.07749 0.33775,0.88657 1.12017,1.90268 1.06507,2.86613 -0.13076,2.28568 0.39773,3.79989 0.71468,5.96959 0.31262,2.13992 0.70014,4.29218 0.84075,6.44046 0.031,0.47254 0.271,0.93014 0.35132,1.39598 0.16639,0.96531 0.2675,1.9797 0.31052,2.95884 0.0941,2.14134 -0.27807,4.3264 -0.27807,6.47291 0,2.6378 0.57533,5.12587 1.02613,7.70483 0.22877,1.30879 0.20161,2.68417 0.87412,3.87837 0.53128,0.94331 1.41314,2.22769 2.28957,2.87911 0.80362,0.59731 2.21897,0.51626 3.14329,0.50982 0.56242,-0.004 1.10621,0.10465 1.66852,0.0259 1.20729,-0.16902 2.06146,-0.81973 3.10993,-1.33018 0.47906,-0.23324 1.04206,-0.32317 1.50259,-0.58213 0.66577,-0.37439 1.23361,-1.02435 1.7538,-1.56192 0.31717,-0.32777 0.74823,-0.45805 1.07248,-0.76844 0.87175,-0.83451 1.52196,-1.85932 2.1839,-2.85223 0.25682,-0.38525 0.7652,-0.74322 0.95291,-1.15128 0.48673,-1.05811 0.90151,-4.24642 1.01965,-5.36799 0.14858,-1.41081 -0.2049,-2.87927 -0.0927,-4.31589 0.0903,-1.15654 0.40984,-2.35311 0.64239,-3.48812 0.0777,-0.37942 0.38027,-0.70306 0.4162,-1.07898 0.14048,-1.46963 -0.29695,-3.01412 -0.20485,-4.51333 0.12833,-2.08834 0.34296,-4.18355 0.43009,-6.27454 0.0917,-2.20202 -0.26848,-4.42955 -0.31145,-6.63884 -0.0251,-1.28705 0.34833,-2.50952 0.25861,-3.81254 -0.0984,-1.42919 -0.58702,-2.86689 -0.67481,-4.30849 -0.0743,-1.21976 -0.0459,-2.49499 -0.20579,-3.70687 -0.0891,-0.67523 -0.4714,-1.31157 -0.51632,-1.97906 -0.15829,-2.35362 -0.35509,-4.85711 -0.87317,-7.14123 -0.15546,-0.68563 0.0712,-1.47458 0.11862,-2.15146 0.0142,-0.20329 -0.19231,-0.46315 -0.23081,-0.67482 -0.0338,-0.18501 0.16316,-0.58674 0.10567,-0.70172 -0.0405,-0.081 -1.30134,0.67923 -1.48961,0.66834 -1.01028,-0.0585 -4.02692,1.0206 -4.64589,0.82777 -0.93286,-0.29062 -1.58896,0.17449 -2.44902,0.26418 -0.70153,0.0731 -1.44202,-0.15748 -2.14402,-0.006 -0.78107,0.16781 -1.51931,0.56525 -2.297,0.72209 -0.85982,0.17347 -1.59229,-0.10344 -2.44807,-0.0334 -0.5508,0.0449 -1.04275,0.47644 -1.60178,0.47644 -0.43159,0 -0.86188,-0.18967 -1.29033,-0.21133 -1.40443,-0.0713 -2.84336,0.33768 -4.23617,0.43659 -0.87939,0.0625 -1.79552,0.0269 -2.66683,0.16497 -0.92637,0.14696 -1.88027,0.40738 -2.83277,0.33092 -1.10139,-0.0885 -2.13865,-0.56358 -3.25639,-0.58213 -0.65241,-0.0101 -1.28061,0.21874 -1.95217,0.16498 -0.96937,-0.0775 -1.90693,-0.67533 -2.87264,-0.74063 -1.11209,-0.0753 -2.21848,0.36337 -3.336078,0.36337 -0.88955,0 -1.782116,-0.27384 -2.666848,-0.26418 -0.813479,0.008 -1.593356,0.18886 -2.402665,0.20485 -1.264802,0.0251 -2.498978,-0.3479 -3.752303,-0.40322 -0.946552,-0.0417 -1.860838,0.14655 -2.799414,0.18542 -1.938215,0.0804 -3.75155,0.23462 -5.646057,0.54875 -0.8386,0.13906 -1.84092,-0.57764 -2.626983,-0.80089 -2.478705,-0.70395 -5.184551,-1.11212 -7.677949,-0.31054 z"
       id="path2005" />
    <path
       style="fill:#ff0000"
       d="m 77.267906,82.904906 c -1.840835,0.199125 -3.481748,1.385166 -4.818063,2.696826 -0.654129,0.64206 -1.038667,1.585992 -1.62343,2.285691 -0.336741,0.402929 -0.951365,0.707496 -1.211182,1.157846 -1.120642,1.942446 -2.392643,4.856785 -2.571264,7.119311 -0.03517,0.445452 0.261471,0.936809 0.275572,1.391193 0.02652,0.854669 -0.284283,1.652388 -0.306685,2.481257 -0.05788,2.14154 0.659698,4.70029 1.548981,6.61706 1.374285,2.96214 5.194523,6.61279 8.458278,7.49489 1.318992,0.35648 2.568887,0.25314 3.919121,0.27001 0.816156,0.0102 1.563022,0.0752 2.369029,-0.11667 0.75896,-0.18071 1.497174,-0.64406 2.195686,-0.98339 0.615226,-0.29888 1.32457,-0.26857 1.930114,-0.67226 2.146534,-1.43103 2.499905,-3.51679 4.168024,-5.3581 1.150367,-1.2698 2.762293,-2.24035 3.549099,-3.83467 1.240615,-2.51388 1.881892,-9.418318 0.34891,-11.900704 -0.577786,-0.935619 -1.600454,-1.660891 -2.184574,-2.629045 -0.716891,-1.188218 -1.131493,-2.803026 -2.253467,-3.734665 -0.273592,-0.22718 -0.811298,-0.735022 -1.147845,-0.808937 -0.357495,-0.07851 -0.633415,0.01253 -0.951168,-0.227791 -0.358933,-0.271462 -0.488041,-0.780165 -0.883385,-1.063397 -1.087927,-0.77941 -3.069826,-1.508252 -4.39026,-1.581204 -0.381628,-0.02108 -0.81376,0.646276 -1.327856,0.682262 -0.611014,0.04277 -1.2491,-0.110776 -1.851221,-0.03667 -0.271204,0.03338 -0.557823,0.226231 -0.824493,0.222236 -0.461962,-0.0069 -0.66097,-0.347593 -1.121178,-0.08556"
       id="path374" />
    <path
       style="fill:#ff0000"
       d="m 114.62567,85.565063 c -1.86094,0.892423 -2.22798,2.066948 -3.04129,3.734666 -0.38673,0.792995 -1.07656,1.444761 -1.42786,2.269023 -0.61066,1.432808 -0.86101,3.036128 -1.21118,4.549158 -0.13128,0.567208 -0.65537,0.757414 -0.71449,1.370081 -0.16613,1.721747 0.44813,7.177499 1.09006,8.637179 0.35341,0.80361 1.0706,1.08472 1.63899,1.67121 0.33834,0.34911 0.4913,0.85319 0.83116,1.20118 0.45539,0.46629 0.90387,0.61421 1.37453,1.02006 0.592,0.5105 1.11562,1.17729 1.7401,1.64565 0.45055,0.33791 1.01967,0.40694 1.53453,0.59782 0.88739,0.32898 1.60194,0.94508 2.51682,1.21118 1.92679,0.56042 4.66397,0.78751 6.65373,0.29557 0.7564,-0.187 1.68462,-0.91302 2.27458,-1.38563 1.06027,-0.8494 2.20935,-1.56853 3.1424,-2.5546 0.40065,-0.42341 0.55004,-1.04414 0.80894,-1.55454 0.32937,-0.64933 0.82898,-1.22006 1.10007,-1.899 0.27861,-0.69779 0.32863,-1.48099 0.55003,-2.19568 0.88965,-2.87188 1.64785,-5.691241 0.74004,-8.606068 -0.81305,-2.610593 -1.25368,-5.189477 -3.17352,-7.240428 -0.50633,-0.540905 -0.76763,-1.464879 -1.28452,-2.069011 -0.76929,-0.899141 -1.45737,-0.837593 -2.54459,-1.062286 -0.52928,-0.109384 -0.97682,-0.472937 -1.4812,-0.635593 -1.79702,-0.579511 -3.42493,-1.01143 -5.34699,-0.787824 -0.77632,0.09032 -2.79109,1.547213 -3.28464,1.105621"
       id="path376" />
  </g>
  <g
     inkscape:groupmode="layer"
     id="layer3"
     inkscape:label="Layer 3"
     style="display:inline">
    <path
       style="fill:#1b1b1b;fill-opacity:1;stroke-width:0.535578"
       d="m 139.93832,256.7547 c -1.32496,0.56614 -2.80935,0.33791 -4.18982,0.58211 -0.53263,0.0943 -1.11009,0.3708 -1.64811,0.3708 -0.74093,0 -1.45864,-0.27379 -2.19688,-0.30497 -1.17418,-0.0496 -2.32016,0.20245 -3.49461,0.17247 -0.74255,-0.0182 -1.46438,-0.22226 -2.20429,-0.23824 -0.72553,-0.0162 -1.42674,0.40109 -2.14405,0.457 -0.7118,0.0555 -1.40478,0.065 -2.1116,0.10566 -0.73346,0.0423 -0.39485,2.86941 -0.38376,3.43529 0.0162,0.85995 -0.71271,5.35997 -0.62846,5.64512 0.19514,0.66013 0.60737,1.53953 1.1114,2.02541 0.30279,0.29185 0.73585,0.48171 0.96682,0.84075 0.32337,0.50265 0.53968,1.24605 1.05859,1.60177 0.50163,0.34388 1.20448,0.43491 1.78716,0.49035 0.42268,0.0403 0.76967,0.26265 1.19114,0.30404 1.15851,0.11376 2.69213,-0.54885 3.7393,-0.97979 0.3702,-0.15242 0.78356,-0.0672 1.12534,-0.3643 0.48178,-0.41885 0.8123,-1.07892 1.21152,-1.57487 0.50705,-0.62992 1.11137,-1.13665 1.71394,-1.66761 1.15191,-1.01495 2.27091,-2.3656 2.93844,-3.75323 0.54343,-1.12965 0.75107,-2.22508 1.10493,-3.40839 0.38406,-1.28431 0.82042,-2.39606 1.053,-3.73932 z"
       id="path1135" />
    <path
       style="fill:#1b1b1b;fill-opacity:1;stroke-width:0.535578"
       d="m 69.260036,258.25543 c 0.330924,0.002 0.990607,0.33742 0.992771,0.006 0.0022,-0.3309 -1.319628,-0.0583 -0.992771,-0.006 0.563536,0.0891 1.139299,0.0674 1.707447,0.11963 0.219812,0.0202 0.456546,0.21994 0.674819,0.27807 1.02906,0.2741 1.920877,0.64897 3.011668,0.68132 0.436547,0.0121 0.838661,0.27491 1.277333,0.29754 0.839004,0.0433 1.631735,-0.2939 2.461995,-0.32442 0.765929,-0.0281 1.562,0.27786 2.316452,0.20578 0.658504,-0.063 1.491072,-0.0372 2.131074,-0.1919 0.517617,-0.12509 1.028695,-0.34632 1.555421,-0.42361 0.794533,-0.11659 1.631715,0.0318 2.415641,-0.14554 0.655609,-0.14838 1.180474,-0.57772 1.760276,-0.86763 0.147971,-0.0739 0.06538,1.8055 0.06032,1.9327 -0.06761,1.65014 -0.250094,3.39112 -1.091955,4.83869 -1.625845,2.79567 -4.55562,4.26891 -7.347019,5.685 -0.300154,0.15222 -0.675568,0.16842 -0.965884,0.32445 -0.805787,0.43324 -1.580421,0.99138 -2.522236,1.14478 -1.408361,0.22939 -2.096451,-0.84064 -3.031121,-1.60825 -0.66154,-0.54333 -1.477934,-0.96469 -2.157024,-1.52856 -1.786075,-1.48308 -3.138257,-4.30674 -2.720601,-6.59899"
       id="path1137" />
    <path
       style="fill:#1b1b1b;fill-opacity:1;stroke-width:0.535578"
       d="m 70.623582,156.3138 c -1.390556,2.03771 -1.092398,4.68748 -2.07081,6.85667 -0.746446,1.65491 -1.17762,3.51178 -1.80107,5.22246 -0.470131,1.28998 -1.122483,2.51066 -1.535034,3.80607 -0.07917,0.24857 -1.495415,6.07381 -1.44234,6.19482 0.338712,0.77225 0.876737,0.75704 1.495175,1.231 0.319602,0.24491 0.467084,0.79862 0.887096,0.93993 0.416626,0.14008 0.841254,0.0506 1.270853,0.19838 0.480745,0.16538 0.869261,0.57917 1.376522,0.7017 1.010595,0.2441 1.966865,0.004 2.858727,0.72117 0.668187,0.53705 2.95161,-0.30564 3.14422,0.67575 0.277768,1.41529 -0.604179,3.57773 -0.860212,5.03613 -0.224285,1.2776 -0.06253,2.66665 -0.139045,3.96459 -0.07119,1.20782 -0.372678,2.50037 -0.648864,3.68 -0.270725,1.15626 -1.439961,5.13609 -0.83426,6.13549 0.148498,0.24504 0.714832,0.22322 0.960325,0.37078 0.814127,0.4894 3.060681,1.33778 4.102692,1.27086 0.916087,-0.0589 1.838454,-0.37505 2.766956,-0.26419 1.804338,0.21546 4.147156,1.5536 5.963085,1.44885 1.590985,-0.0917 3.07821,-0.73227 4.619928,-1.04562 1.079261,-0.21937 2.154817,-0.24505 3.223026,-0.4097 0.564883,-0.0871 1.131203,-0.40185 1.707441,-0.41714 1.374638,-0.0364 2.50744,0.43851 3.819042,0.68132 0.676495,0.1253 1.364335,0.0514 2.031885,0.13906 1.29383,0.16963 2.55639,0.70822 3.87838,0.77403 0.87222,0.0435 1.68507,-0.41655 2.5278,-0.56915 1.18999,-0.21552 2.40585,-0.2619 3.60029,-0.46997 0.7668,-0.1336 1.51202,-0.46683 2.28307,-0.55525 0.49276,-0.0565 3.98029,0.59403 4.60048,0.80737 0.54753,0.18845 0.89932,0.47822 1.51556,0.46349 1.53228,-0.0366 3.04631,0.002 4.55319,-0.3643 0.9221,-0.22397 1.81463,-0.80429 2.77345,-0.82035 0.57383,-0.0101 1.50143,0.0213 2.03188,0.29107 0.38711,0.19696 0.63294,0.45509 1.10493,0.44956 1.65234,-0.0202 3.44207,-0.62949 5.06949,-0.91953 0.97716,-0.17408 2.02626,0.006 2.99777,-0.17894 0.63929,-0.12186 0.12793,-1.67169 0.14655,-2.09862 0.0267,-0.61138 0.2456,-1.17135 0.27716,-1.76678 0.0437,-0.82329 0.25771,-1.66847 0.0603,-2.48888 -0.15303,-0.63558 -0.62885,-1.1712 -0.7017,-1.83998 -0.13481,-1.23821 0.20983,-2.45983 -0.0593,-3.71988 -0.1591,-0.74506 -0.61387,-1.40561 -0.74805,-2.15052 -0.0984,-0.54586 0.0723,-1.09562 0.0723,-1.64164 0,-1.18762 -0.14655,-2.44129 -0.37078,-3.60028 -0.0484,-0.25005 0.10972,-0.43954 0.25214,-0.61549 0.15668,-0.19352 0.28825,-0.49132 0.46995,-0.66184 0.37205,-0.3492 2.00729,-0.13502 2.60754,-0.6359 1.07626,-0.89793 2.03403,-1.86869 3.18962,-2.68075 0.38341,-0.26941 1.33699,-0.4747 1.5953,-0.85372 1.63949,-2.4056 0.0484,-3.02402 -0.61549,-5.44029 -0.30175,-1.09833 -0.66854,-3.32153 -1.29033,-4.27604 -0.41237,-0.63303 -1.11322,-1.01863 -1.45625,-1.67408 -0.33434,-0.63889 -0.36477,-1.76258 -0.67482,-2.23765 -0.63014,-0.96556 -1.17535,-0.0368 -1.27733,-2.04486 -0.0543,-1.06841 -0.14818,-2.12326 -0.43011,-3.1572 -0.12732,-0.46693 -0.0318,-1.31613 -0.0528,-1.29773 -0.33661,0.29452 -0.22479,0.86155 -0.7082,1.12533 -0.77518,0.42296 -1.81651,0.3877 -2.65478,0.64885 -0.82494,0.25699 -1.57709,0.70639 -2.41565,0.93993 -1.11185,0.30967 -2.25345,0.54962 -3.31571,1.02615 -2.08283,0.93432 -3.87513,2.0851 -6.14847,2.58804 -0.77334,0.17105 -1.6523,0.38092 -2.44161,0.44308 -0.61031,0.0482 -1.20966,-0.0937 -1.81404,-0.0269 -1.2229,0.13522 -2.39459,0.38206 -3.62623,0.43104 -0.7737,0.0308 -1.53872,-0.17651 -2.30998,-0.15303 -1.70657,0.052 -2.83975,1.35029 -3.77268,1.33759 -1.35911,-0.0182 -4.00823,-0.13319 -5.29475,-0.44401 -0.82921,-0.2004 -2.36917,-0.83178 -3.10439,-0.92603 -0.8363,-0.10728 -1.49927,0.13158 -2.316457,0.13158 -1.036226,0 -2.367706,-0.20441 -3.381524,-0.39675 -1.169056,-0.2218 -2.338982,-0.46991 -3.481622,-0.80737 -0.340456,-0.1006 -0.600894,-0.35428 -0.946431,-0.45049 -0.725506,-0.20202 -1.513196,-0.18745 -2.23024,-0.38378 -0.642371,-0.1759 -1.233974,-0.51988 -1.905819,-0.62198 -0.713686,-0.1085 -1.503466,-0.18056 -2.191314,-0.41712 -1.358122,-0.46719 -2.697442,-1.13883 -4.043368,-1.6676 -0.369763,-0.14534 -0.776186,-0.16356 -1.138298,-0.32443 -0.879961,-0.39069 -1.858767,-1.06256 -2.813303,-1.21802 -0.813062,-0.13238 -1.522544,0.13967 -2.316452,0.11963 -0.08162,-0.002 -3.321156,-0.99962 -3.335177,-1.01317 -0.376957,-0.3642 -0.74589,-0.73661 -1.118835,-1.10492 z"
       id="path2012" />
    <path
       style="fill:#e9c6af;stroke-width:0.535578"
       d="m 139.03827,181.98113 c 1.03712,-0.61873 1.75141,-1.6467 2.73357,-2.32943 0.283,-0.19675 0.63303,-0.24234 0.90007,-0.46349 1.11813,-0.92586 2.18605,-1.87365 3.36855,-2.71411 0.0597,-0.0425 0.91252,-0.8566 0.99926,-0.7017 0.0866,0.15465 0.0101,0.35598 0.0862,0.5228 0.336,0.74117 0.81754,1.41911 1.15128,2.16443 0.34475,0.76996 0.52288,1.67993 0.92046,2.42305 0.54972,1.02752 1.07126,1.81454 1.39599,2.97831 0.38147,1.36703 0.55122,2.77472 0.8806,4.14997 0.11964,0.49946 0.41604,0.93238 0.55525,1.42935 0.79142,2.82512 1.33851,5.76004 0.72211,8.6772 -0.13765,0.65146 -0.40171,1.72093 -0.92046,2.19041 -0.59422,0.53774 -1.19365,0.69899 -1.95217,0.74156 -2.83857,0.15931 -2.39941,-0.71267 -4.19632,-2.83278 -0.49811,-0.58769 -1.17874,-1.23006 -1.46921,-1.95865 -0.66341,-1.66388 -0.88893,-3.51328 -1.66759,-5.13625 -0.16153,-0.33681 -0.45256,-0.57871 -0.65536,-0.90005 -1.32675,-2.10229 -2.99765,-4.12855 -3.22301,-6.6852 -0.037,-0.41997 0.35602,-1.50099 0.37078,-1.55542 z"
       id="path2018" />
    <path
       style="fill:#e9c6af;stroke-width:0.535578"
       d="m 64.323088,180.1541 c -0.01113,-0.33093 0.297551,-1.00388 -0.03336,-0.99277 -0.330922,0.0122 -0.256697,0.83311 0.03336,0.99277 0.435292,0.2396 0.985995,-0.13239 1.482197,-0.1585 0.205053,-0.0101 0.477491,0.26817 0.695213,0.31052 0.975971,0.18987 1.981299,0.28863 2.925466,0.62941 0.62946,0.22718 1.191758,0.62563 1.819607,0.8602 0.321507,0.12004 0.779261,0.12388 1.039114,0.38375 0.226291,0.22631 0.161514,1.29513 0.165926,1.60178 0.02545,1.76663 -0.939202,3.23325 -1.469221,4.83871 -0.31603,0.95728 -0.502883,1.96705 -0.874113,2.90506 -0.778705,1.96758 -1.658399,3.89959 -2.448081,5.86483 -0.758551,1.88777 -0.898835,3.96331 -1.681493,5.81755 -0.529151,1.25365 -3.377793,4.98452 -4.606029,5.71189 -0.397534,0.23541 -0.808483,0.16457 -1.198551,-0.0464 -2.126831,-1.1498 -2.033574,-6.98968 -1.488689,-8.8691 0.540088,-1.86282 0.279365,-3.91222 0.522805,-5.84443 0.261893,-2.07865 1.497039,-3.95378 2.309967,-5.84443 0.627891,-1.46032 0.957374,-3.06595 1.402477,-4.58657 0.245232,-0.83779 0.850376,-1.63283 1.019651,-2.4555"
       id="path2020" />
  </g>
  <g
     inkscape:label="Layer 1"
     inkscape:groupmode="layer"
     id="layer1"
     style="display:inline">
    <path
       style="fill:#000000;stroke-width:0.535578"
       id="path192"
       d="m 87.472324,23.733016 c -2.403507,-0.247133 -4.800467,0.0079 -7.169943,0.409691 -3.733443,0.739141 -7.304493,2.091285 -10.794115,3.580182 -4.269044,1.84681 -8.184133,4.307815 -11.781396,7.237831 -3.243947,2.829076 -6.154591,6.017136 -8.879188,9.342303 -2.407865,2.846816 -3.972161,6.038609 -5.152187,9.543672 -1.235894,3.748861 -2.008246,7.629015 -2.832102,11.48346 -0.999903,4.023328 -1.742505,8.096796 -2.320687,12.199635 -0.755772,4.057537 -0.801633,8.203877 -1.019797,12.314895 -0.491527,4.848466 -0.326307,9.708268 -0.08559,14.564325 0.355275,5.31716 0.902632,10.63739 1.993846,15.85643 1.162688,5.61013 3.329174,10.88966 5.997355,15.93318 2.815457,4.89095 6.614441,9.02952 10.795147,12.77126 5.899746,4.67954 12.735662,7.96313 19.738514,10.62241 5.608087,1.9531 11.40656,3.29225 17.197214,4.57627 5.29728,1.19806 10.689745,1.86183 16.101065,2.24378 4.68827,0.29867 9.37751,-0.006 14.02608,-0.6177 4.44477,-0.55715 8.6373,-2.04668 12.70359,-3.8613 4.46679,-2.08173 8.64825,-4.69503 12.72348,-7.45 2.83662,-1.91187 5.39054,-4.16498 7.53139,-6.82946 1.16693,-1.5072 2.01249,-3.21726 2.86549,-4.91158 1.09697,-2.07504 1.9799,-4.24822 2.84042,-6.42869 1.29322,-3.27903 2.31605,-6.6522 3.21234,-10.05817 1.06703,-3.99098 1.58058,-8.09103 1.95936,-12.19502 0.35584,-4.02149 0.62401,-8.0488 0.74222,-12.08424 0.0905,-3.532204 -0.0231,-7.06346 -0.26509,-10.587166 -0.23149,-2.912793 -0.54545,-5.817974 -0.96453,-8.709612 -0.476,-2.947447 -1.096,-5.868397 -1.78732,-8.77202 -0.65992,-2.873947 -1.51469,-5.693199 -2.48889,-8.474396 -1.05552,-3.040157 -2.08318,-6.086751 -3.29938,-9.067334 -1.12718,-2.69458 -2.60633,-5.20455 -4.2666,-7.599198 -1.8303,-2.594279 -4.11892,-4.784576 -6.51427,-6.84553 -3.66247,-3.086728 -7.9268,-5.287119 -12.07201,-7.634363 -2.08373,-1.062411 -4.25808,-1.925358 -6.41366,-2.826586 -1.75821,-0.77014 -3.51998,-1.531054 -5.28746,-2.279749 -1.73904,-0.757331 -3.45825,-1.559462 -5.1768,-2.361903 -1.63305,-0.827078 -3.34642,-1.455568 -5.10204,-1.96274 -1.75263,-0.48518 -3.55533,-0.720263 -5.36453,-0.853156 -1.94523,-0.127284 -3.89377,-0.03202 -5.83449,0.114936 -1.72251,0.155542 -3.447413,0.276102 -5.173173,0.388279 -1.427227,0.105179 -2.851438,0.253286 -4.283462,0.261051 -1.138774,0.0097 -2.2018,-0.352083 -3.242662,-0.771586 -1.015234,-0.470201 -2.0899,-0.775004 -3.184649,-0.989814 -1.289528,-0.206872 -2.595203,-0.233693 -3.895444,-0.144125 -1.112746,0.186371 -1.111155,0.05967 -0.563253,1.135099 0.126737,0.248754 0.257169,0.495608 0.385752,0.743417 0,0 0.131757,0.09417 0.131757,0.09417 v 0 c 1.391718,0.550478 2.817384,1.394282 4.361474,1.126375 1.276167,-0.05356 2.559106,0.0022 3.812977,0.263124 1.081346,0.264426 2.130082,0.61845 3.151915,1.061984 1.075921,0.38056 2.178178,0.639239 3.329906,0.583453 1.43253,-0.04969 2.859002,-0.180926 4.287912,-0.289447 1.71621,-0.124389 3.43135,-0.260163 5.14563,-0.408942 1.93071,-0.124875 3.86865,-0.198739 5.80038,-0.04048 1.79001,0.165359 3.57522,0.423733 5.30131,0.94273 1.73084,0.536629 3.41458,1.194875 5.03615,2.008018 1.71949,0.799935 3.4394,1.600293 5.18417,2.344013 1.76654,0.748043 3.52075,1.524048 5.28636,2.274197 2.13772,0.881594 4.28213,1.755588 6.3341,2.827159 -1.06376,-0.62958 -2.13347,-1.249212 -3.19127,-1.88873 -0.41527,-0.251058 0.84708,0.473986 1.26345,0.72323 1.81802,1.088269 3.56046,2.305933 5.21155,3.6333 2.39521,2.016984 4.68665,4.162747 6.53072,6.711648 1.68996,2.361209 3.1969,4.845653 4.35678,7.514667 1.241,2.959106 2.26369,5.994769 3.29185,9.033125 0.97639,2.767695 1.84115,5.570794 2.5168,8.428688 0.69184,2.88753 1.31761,5.791679 1.79108,8.723924 0.43774,2.885465 0.73986,5.78852 1.01604,8.693539 0.28475,3.515245 0.42756,7.040915 0.34325,10.568366 -0.10546,4.031425 -0.35645,8.056205 -0.68939,12.075185 -0.37422,4.07359 -0.8935,8.13923 -1.96379,12.09764 -0.89698,3.38051 -1.88584,6.7411 -3.23228,9.97465 -0.8853,2.15134 -1.79885,4.29318 -2.89753,6.34638 -0.84093,1.66087 -1.64279,3.35292 -2.75154,4.85837 -2.04966,2.65496 -4.54548,4.88328 -7.30838,6.78562 -4.0348,2.77048 -8.21519,5.33391 -12.67257,7.37608 -4.03276,1.77933 -8.18347,3.24068 -12.58774,3.76777 -4.60076,0.59193 -9.2377,0.92352 -13.8768,0.60432 -5.38457,-0.3992 -10.747001,-1.07767 -16.0192,-2.2697 -5.777869,-1.27769 -11.562289,-2.62083 -17.140602,-4.62092 -2.302838,-0.88548 -3.235561,-1.20503 -5.492987,-2.23208 -0.906492,-0.41244 -1.737501,-1.0103 -2.690778,-1.29853 -0.547588,-0.16558 1.937729,1.21683 1.447192,0.92251 -2.834624,-1.70089 -2.223905,-1.34563 -4.841802,-3.28422 -4.215298,-3.6965 -8.031597,-7.80816 -10.918269,-12.64898 -0.490178,-0.84392 -1.012538,-1.66995 -1.470527,-2.53175 -2.227917,-4.19231 -3.639676,-8.76396 -4.757799,-13.35909 -1.174175,-5.27718 -2.293036,-10.57179 -2.443036,-16.0001 -0.24357,-4.89013 -0.368728,-9.791728 -0.242398,-14.686549 0.226004,-4.155733 0.476746,-8.310089 0.665463,-12.467745 0.535692,-4.147838 1.158275,-8.285292 1.889708,-12.403252 0.800374,-3.892583 1.536946,-7.79897 2.422267,-11.67299 1.110892,-3.465833 2.708132,-6.686977 5.056007,-9.49961 2.681787,-3.333523 5.537081,-6.541649 8.772196,-9.353207 3.569164,-2.92191 7.449254,-5.399912 11.707747,-7.210041 3.494337,-1.450496 7.058714,-2.742431 10.765951,-3.540329 2.284425,-0.422675 4.599062,-0.733042 6.926737,-0.515383 0,0 -1.548691,-1.148795 -1.548691,-1.148795 z" />
    <path
       style="fill:#000000;stroke-width:0.535578"
       id="path350"
       d="m 70.219284,156.32007 c -0.446206,1.0401 -0.961568,2.05646 -1.358024,3.11631 -0.470645,1.5883 -1.101898,3.12542 -1.546044,4.7193 -0.632947,2.26548 -1.432818,4.47927 -2.163062,6.71431 -0.770446,2.4728 -1.500826,4.95781 -2.246839,7.43802 -0.663915,2.28156 -1.341898,4.55896 -2.01918,6.83659 -0.610329,2.10608 -1.152613,4.23092 -1.73889,6.34367 -0.47727,1.75183 -0.964524,3.50154 -1.382688,5.26862 -0.378107,1.52706 -0.359314,3.09046 -0.268747,4.64792 0.115543,1.41844 0.229339,2.83721 0.355216,4.2548 0.0504,1.05878 0.25905,2.07247 0.785727,2.99591 0.733271,0.95592 1.7422,1.3165 2.938994,1.818 0.249809,0.10466 0.867309,-0.55648 0.996769,-0.69275 0.811398,-1.05116 1.408139,-2.2456 2.066472,-3.39381 0.986189,-1.63902 2.023241,-3.24434 2.967947,-4.90824 0.959879,-1.64562 1.768363,-3.36331 2.371204,-5.16947 0.572267,-1.9658 1.191857,-3.91536 1.852284,-5.8532 0.594803,-1.70268 1.14452,-3.42069 1.652902,-5.15103 0.446951,-1.59924 0.877716,-3.20153 1.415796,-4.77298 0.411165,-1.09015 0.788448,-2.19399 1.224022,-3.27479 0.05249,-0.12347 0.137932,-0.32968 0.199812,-0.45897 0.01943,-0.0407 0.0353,-0.084 0.06277,-0.11963 0.0067,-0.008 0.04204,0.001 0.03225,-0.004 -2.283686,-1.06303 -2.293771,-1.79076 -2.144939,-0.69124 0.07174,1.46553 -0.06378,2.93069 -0.224696,4.38575 -0.442773,2.98465 -0.878382,5.97214 -1.381745,8.9473 -0.659613,3.15964 -0.932137,6.38486 -1.347998,9.58293 -0.403319,2.76142 -0.822718,5.52045 -1.241878,8.2795 -0.435372,2.7668 -0.82876,5.53978 -1.207029,8.31491 -0.354805,2.63239 -0.660475,5.27066 -0.90547,7.91548 -0.23189,2.35773 -0.309248,4.72349 -0.314256,7.09112 0.02854,2.19388 0.08743,4.3872 0.114916,6.58113 0.03176,1.91037 0.04387,3.8211 0.02121,5.73162 -0.03251,1.94889 -0.09704,3.89679 -0.13107,5.84568 -0.01073,2.28921 0.02838,4.5788 0.09558,6.86699 0.04113,2.24621 0.213417,4.485 0.601317,6.69793 0.318367,1.62244 0.798064,3.23481 1.626776,4.67645 0.157445,0.2739 0.341747,0.53144 0.512625,0.79718 0.567787,0.75943 1.255262,1.41342 2.077166,1.89347 2.359678,1.3782 2.798993,1.77867 4.933644,2.3239 1.473071,0.33179 2.954058,0.21615 4.324347,-0.43991 0.303251,-0.14513 0.585917,-0.32995 0.878878,-0.49492 1.328203,-0.89961 2.542801,-1.98741 3.510858,-3.27268 0.724113,-0.96137 0.936105,-1.41925 1.532586,-2.47416 1.565098,-3.2344 2.441652,-6.73542 3.238694,-10.2216 0.856757,-3.79612 1.564308,-7.62494 2.132875,-11.47435 0.493002,-3.78562 1.158085,-7.54355 1.823309,-11.30158 0.499399,-2.92018 1.144947,-5.81178 1.721328,-8.7169 0.01214,-0.0646 0.340678,-1.82768 0.357176,-1.96373 0.0334,-0.27538 0.141899,-0.56966 0.04818,-0.83079 -0.829896,-1.19905 -0.589255,-0.63741 -0.89876,-1.5976 0,0 -0.254993,-0.13219 -0.254993,-0.13219 v 0 c -0.413187,0.57659 -0.10688,0.30558 -1.102094,0.53875 -0.191088,0.1753 -0.137244,0.50104 -0.184003,0.75622 -0.120847,0.66087 -0.138053,1.33814 -0.284668,1.99529 -0.475149,2.94803 -0.993717,5.88855 -1.5118,8.8293 -0.660244,3.76751 -1.218002,7.55118 -1.768371,11.33614 -0.624011,3.82906 -1.328181,7.64203 -2.183278,11.42708 -0.826293,3.44201 -1.711233,6.91325 -3.364806,10.06713 -0.250977,0.42138 -0.483231,0.85449 -0.752926,1.26415 -1.130784,1.71757 -2.611444,3.19094 -4.369599,4.25994 -0.295597,0.14838 -0.582629,0.3153 -0.886795,0.44525 -1.367305,0.58424 -2.819495,0.62624 -4.252892,0.27706 -0.282763,-0.0797 -0.569801,-0.14554 -0.848291,-0.23904 -0.279395,-0.0939 -1.047163,-0.51406 -0.82334,-0.32232 0.472493,0.40481 1.056837,0.65699 1.589415,0.97864 0.267764,0.16173 -0.541956,-0.31475 -0.794901,-0.49878 -0.683521,-0.49731 -0.785844,-0.67658 -1.346668,-1.30008 -0.178112,-0.25862 -0.370321,-0.50808 -0.534353,-0.77585 -0.864618,-1.41146 -1.348057,-3.01603 -1.703944,-4.61995 -0.410177,-2.2088 -0.636883,-4.44425 -0.680944,-6.69161 -0.04868,-2.2805 -0.10692,-4.56175 -0.07504,-6.8429 0.04494,-1.94533 0.144328,-3.88923 0.160036,-5.83529 -0.0011,-1.91814 5.37e-4,-3.83645 -0.0504,-5.75412 -0.05945,-2.20035 -0.143943,-4.40022 -0.166271,-6.60138 -0.0053,-2.36746 0.05044,-4.73573 0.254507,-7.09554 0.235103,-2.64732 0.523326,-5.28959 0.861907,-7.92575 0.371467,-2.77371 0.799405,-5.53895 1.214045,-8.30645 0.421129,-2.7668 0.863738,-5.53148 1.198581,-8.31033 0.377781,-3.24661 0.778255,-6.49466 1.012496,-9.75473 0.06599,-0.57198 0.119693,-1.14551 0.19797,-1.71594 0.330827,-2.41064 0.872834,-4.78673 1.276761,-7.18484 0.218081,-1.42599 0.446447,-2.85548 0.491827,-4.29998 0.0032,-1.19879 0.09206,-0.38496 -2.266157,-1.74173 -0.02903,-0.0162 -0.03459,0.0577 -0.04692,0.0889 -0.04455,0.11254 -0.07093,0.23137 -0.105685,0.34727 -0.0285,0.0949 -0.05712,0.19008 -0.08567,0.285 -0.343964,1.12233 -0.710658,2.23769 -1.108422,3.34219 -0.530062,1.58054 -0.970721,3.18535 -1.389173,4.79867 -0.503459,1.73064 -1.073589,3.43956 -1.63164,5.15315 -0.631646,1.94517 -1.24821,3.89507 -1.861559,5.84607 -0.622642,1.78226 -1.375752,3.5116 -2.309736,5.15536 -0.951805,1.65984 -1.999144,3.25819 -3.048242,4.8577 -0.678962,1.11185 -1.296989,2.27971 -2.150101,3.2707 -0.199387,0.17833 -0.347312,0.35497 -0.609274,0.43853 -0.08846,0.0281 -0.352053,-0.031 -0.277494,0.0245 0.578682,0.4296 1.227477,0.75565 1.839964,1.1355 0.09915,0.0615 -0.208614,-0.10769 -0.299903,-0.18036 -0.10279,-0.0818 -0.185298,-0.18623 -0.277943,-0.27937 -0.596866,-0.87892 -0.841904,-1.87671 -0.912262,-2.93255 -0.134956,-1.42008 -0.269306,-2.84026 -0.384653,-4.2621 -0.105523,-1.54057 -0.144692,-3.08613 0.216476,-4.60156 0.376361,-1.78075 0.859753,-3.53402 1.313693,-5.2961 0.534611,-2.12601 1.088731,-4.24743 1.721227,-6.34678 0.657283,-2.28868 1.308858,-4.57886 1.956234,-6.8704 0.718123,-2.4864 1.468337,-4.96407 2.240817,-7.43408 0.732832,-2.23241 1.571737,-4.4291 2.235886,-6.68412 0.53855,-1.85432 0.07599,-0.13846 0.459408,-1.92037 0.212347,-0.98684 0.573782,-1.93116 0.905295,-2.88188 0.375574,-1.07643 0.654627,-2.18326 1.136277,-3.22299 0,0 -1.5301,-0.86386 -1.5301,-0.86386 z" />
    <path
       style="fill:#000000;stroke-width:0.535578"
       id="path352"
       d="m 94.730348,220.23964 c 0.109511,-0.002 0.219447,-0.0162 0.328574,-0.006 0.325739,0.0285 0.645487,0.10506 0.968839,0.15364 0.442011,0.0664 0.876291,0.13907 1.313667,0.232 0.842527,0.16882 1.613355,0.55602 2.422988,0.8268 1.006914,0.26825 2.056314,0.20768 3.084694,0.13987 1.1508,-0.10242 2.29965,-0.22036 3.45339,-0.28444 1.02256,-0.0644 2.04656,-0.0753 3.07019,-0.0395 0.77557,0.0496 1.55194,0.0346 2.32808,0.0142 0.66152,-0.004 1.3169,-0.0901 1.97081,-0.18096 0.70154,-0.0994 1.38425,-0.29346 2.06954,-0.46807 0.54968,-0.13724 1.10416,-0.25505 1.66001,-0.36432 0.39452,-0.0725 0.79595,-0.0878 1.19379,-0.13441 0.29376,-0.0439 0.58632,-0.0943 0.87807,-0.14979 -0.0387,-0.0441 -0.0771,-0.0885 -0.11558,-0.13259 0,0 -1.50334,-1.08566 -1.50334,-1.08566 v 0 c -0.10283,-0.0423 -0.20584,-0.0846 -0.30875,-0.12712 -0.28301,0.0555 -0.5662,0.11174 -0.85271,0.14595 -0.39831,0.0451 -0.7999,0.0708 -1.19159,0.16194 -0.54836,0.12125 -1.09557,0.24799 -1.63839,0.39227 -0.68304,0.17814 -1.36938,0.34704 -2.07108,0.43493 -0.64476,0.0889 -1.29158,0.16214 -1.9433,0.17004 -0.76043,0.0247 -1.52093,0.0437 -2.28138,0.004 -1.01987,-0.0207 -2.0387,0.0121 -3.05695,0.0729 -1.1541,0.0733 -2.30418,0.18522 -3.45631,0.28254 -1.02479,0.0555 -2.06818,0.0937 -3.057727,-0.22949 -0.803621,-0.29086 -1.588396,-0.64733 -2.435579,-0.79876 -0.435656,-0.0854 -0.877971,-0.18016 -1.322432,-0.20637 -0.68324,-0.0403 -0.114977,0.0182 -0.721376,0.0474 -0.118418,0.006 -0.23716,-0.008 -0.355719,-0.0122 0,0 1.569652,1.14126 1.569652,1.14126 z" />
    <path
       style="fill:#000000;stroke-width:0.535578"
       id="path354"
       d="m 114.68572,219.88115 c 0.29226,1.03364 0.54748,2.07828 0.80496,3.12121 0.39199,1.70835 0.6767,3.43881 0.98499,5.16362 0.31125,1.71461 0.5242,3.44466 0.72733,5.17471 0.0775,0.97062 0.25256,1.9375 0.30272,2.91049 0.0162,0.33302 -0.004,0.66704 0.004,1.00037 0.0271,0.95864 0.0729,1.31899 0.15627,2.28559 0.18482,2.32074 0.44163,4.63428 0.6999,6.94765 0.0403,0.38428 0.0897,0.76773 0.12105,1.15287 0.0312,0.3845 0.0352,0.77086 0.066,1.15539 0.12854,1.60681 0.36564,3.2073 0.53976,4.80964 0.26987,2.50815 0.41564,5.02755 0.54535,7.54618 0.0569,1.87041 0.13158,3.73767 0.51058,5.57379 0.32964,1.38403 0.85519,2.30352 1.86067,3.2894 1.39108,1.08078 2.92121,2.0545 4.58536,2.65187 0.46383,0.1666 0.79455,0.24787 1.26897,0.37845 1.24513,0.35216 2.09073,0.40665 3.30753,-0.033 1.08811,-0.45878 1.98515,-1.24357 2.85424,-2.02377 0.97962,-0.85589 1.79909,-1.86592 2.67678,-2.81982 0.68927,-1.01738 1.36877,-2.0412 1.961,-3.11854 0.5681,-1.0575 1.0576,-2.15204 1.46376,-3.281 0.40742,-1.24263 0.75338,-2.50369 1.03957,-3.77942 0.31902,-1.46409 0.52383,-2.94476 0.67415,-4.43429 0.15384,-1.74028 0.26396,-3.48326 0.34552,-5.22823 0.0577,-2.00622 0.18299,-4.0094 0.28752,-6.01352 0.0852,-2.19611 0.18441,-4.39133 0.24297,-6.5884 0.032,-2.30299 -0.002,-4.60618 -0.15344,-6.90454 -0.13137,-1.95359 -0.3824,-3.89466 -0.65753,-5.83218 -0.26844,-1.7908 -0.37351,-3.59838 -0.44499,-5.40584 -0.0378,-2.00102 -0.16781,-3.99636 -0.33288,-5.99021 -0.17105,-2.11877 -0.36941,-4.23495 -0.56922,-6.35114 -0.23009,-2.16387 -0.49448,-4.32338 -0.6485,-6.49441 -0.0921,-1.7775 -0.14818,-3.55614 -0.25127,-5.33315 -0.0787,-1.42464 -0.28131,-2.83464 -0.59567,-4.22521 -0.29512,-1.13304 -0.64225,-2.25024 -0.90619,-3.39136 -0.26635,-1.08118 -0.28548,-2.185 -0.20937,-3.28873 0.10607,-0.88641 0.14494,-1.77694 0.16558,-2.66869 0.0223,-0.46102 -0.0142,-0.92161 -0.0182,-1.38237 -0.39522,1.10553 0.0887,-0.11903 -2.81284,-1.25707 -0.12125,-0.0476 0.11052,0.23609 0.15911,0.35687 0.0729,0.18056 0.13987,0.36361 0.2055,0.54699 0.0903,0.25216 0.17752,0.50539 0.26215,0.75951 0.10081,0.30291 0.19595,0.60766 0.29392,0.9115 0.69324,2.28394 1.54267,4.50971 2.53847,6.6775 0.98927,1.96861 2.10276,3.87094 3.14083,5.81392 0.90631,1.75016 1.87695,3.46503 2.84135,5.18334 0.64167,1.17918 1.28177,2.36589 2.23233,3.32626 1.14816,0.92722 0.65964,0.55999 3.30165,1.95477 0.18197,0.0961 0.53403,0.0587 0.71433,0.002 0.32564,-0.10344 0.50071,-0.26392 0.77625,-0.46088 0.99216,-0.90765 1.65317,-2.0844 2.18972,-3.3009 0.49229,-1.22932 0.60281,-2.51356 0.48332,-3.81876 -0.21149,-1.52816 -0.69164,-3.00316 -1.14031,-4.47439 -0.4766,-1.59744 -0.9744,-3.18774 -1.49589,-4.77106 -0.52158,-1.62042 -0.93938,-3.27039 -1.48603,-4.88276 -0.50004,-1.40085 -1.07689,-2.7733 -1.66189,-4.1404 -0.66697,-1.54401 -1.45942,-3.02532 -2.33943,-4.45698 -0.91056,-1.30997 -1.72252,-2.66977 -2.37382,-4.12592 -0.53347,-1.21179 -0.92489,-2.47716 -1.2992,-3.74485 -0.30266,-1.02568 -0.58984,-2.056 -0.86135,-3.09036 -0.17813,-0.64523 -0.3408,-1.29351 -0.45375,-1.95345 -0.51284,-0.55731 -0.13623,-0.20849 -1.30776,-0.81315 0,0 -0.39037,-0.15891 -0.39037,-0.15891 v 0 c -1.02868,-0.495 -0.62915,-0.57494 -1.15043,-0.41288 0.13987,0.67577 0.29426,1.34808 0.50421,2.00624 0.30062,1.04021 0.59219,2.0831 0.90546,3.11963 0.39641,1.28067 0.78211,2.56908 1.32177,3.79868 0.66712,1.46803 1.45684,2.85992 2.39102,4.17713 0.88684,1.40943 1.69734,2.8667 2.34067,4.4054 0.56466,1.37759 1.15156,2.74611 1.69272,4.13298 0.55841,1.60854 0.98234,3.25642 1.49352,4.88004 0.49896,1.58759 1.02738,3.16592 1.49283,4.76396 0.43459,1.44528 0.89332,2.89443 1.10892,4.39214 0.11862,1.25529 0.0589,2.49981 -0.40434,3.69014 -0.49195,1.17683 -1.12859,2.31761 -2.16119,3.1059 -0.3404,0.1919 -0.62768,0.36568 -1.03344,0.28441 -0.10323,-0.0207 -0.38756,-0.1587 -0.29849,-0.10263 0.76834,0.48345 1.56178,0.92586 2.34267,1.38879 -0.11417,-0.0739 -0.2284,-0.14757 -0.34261,-0.22133 -1.05584,-0.90842 -1.76687,-2.09304 -2.42487,-3.30904 -0.98748,-1.72111 -1.9796,-3.43968 -2.89534,-5.2006 -1.05612,-1.94151 -2.15907,-3.85738 -3.18337,-5.81595 -1.02086,-2.12514 -1.88946,-4.31911 -2.48449,-6.60471 -0.1921,-0.7126 -0.38452,-1.42547 -0.56642,-2.14077 -0.0285,-0.11235 0.0162,-0.27334 -0.0808,-0.33821 -2.82624,-1.90877 -2.41291,-2.65533 -2.95233,-1.51686 0.0605,0.46531 0.10425,0.9323 0.11093,1.40194 0.0142,0.89479 -0.0207,1.7874 -0.10688,2.67853 -0.0644,1.12732 -0.0826,2.25892 0.17246,3.36756 0.25398,1.15559 0.6225,2.27702 0.94793,3.41352 0.32943,1.38464 0.5459,2.79112 0.67051,4.20932 0.14413,1.78509 0.16963,3.57613 0.30131,5.36211 0.19979,2.17031 0.47806,4.33219 0.65935,6.50431 0.20479,2.11488 0.43031,4.22829 0.57464,6.34845 0.14817,1.98753 0.28364,3.97663 0.32036,5.96997 0.0563,1.80851 0.12044,3.62182 0.38634,5.41414 0.31293,1.94604 0.64132,3.89151 0.76959,5.86131 0.16255,2.28878 0.23271,4.58149 0.15628,6.876 -0.0561,2.18516 -0.16619,4.36818 -0.30194,6.5498 -0.10263,1.99668 -0.22283,3.99249 -0.33546,5.98863 -0.1,1.73293 -0.19574,3.46725 -0.37517,5.19415 -0.16943,1.46749 -0.3931,2.92965 -0.71692,4.37172 -0.29003,1.25862 -0.62452,2.50794 -1.05293,3.72732 -0.41217,1.10768 -0.89829,2.18656 -1.45439,3.22985 -0.59891,1.05989 -1.25917,2.08283 -1.90328,3.11556 -0.0959,0.18866 -0.17834,0.38495 -0.28789,0.56618 -0.54579,0.90371 -1.39334,1.59339 -2.13577,2.3244 -0.86666,0.74717 -1.7628,1.48915 -2.85113,1.88902 -1.15863,0.34983 -1.98351,0.2806 -3.1476,-0.0621 -0.49292,-0.14453 -0.76401,-0.21175 -1.24288,-0.40069 -0.20101,-0.0793 -0.77324,-0.3804 -0.59359,-0.26036 0.59482,0.3975 1.22934,0.73209 1.84493,1.09657 0.17854,0.10566 -0.36096,-0.20548 -0.53383,-0.3203 -0.16478,-0.10951 -0.31876,-0.23448 -0.47813,-0.35175 -1.02695,-0.91341 -1.6525,-1.83322 -2.02037,-3.17825 -0.4411,-1.83899 -0.582,-3.71977 -0.67301,-5.60561 -0.15384,-2.52812 -0.3457,-5.05356 -0.57687,-7.57588 -0.16497,-1.61028 -0.31175,-3.22705 -0.56608,-4.8265 -0.0654,-0.41134 -0.15586,-0.81852 -0.21896,-1.23025 -0.0595,-0.38742 -0.0992,-0.77761 -0.14878,-1.1664 -0.27748,-2.32024 -0.55551,-4.64123 -0.75854,-6.96938 -0.083,-0.97271 -0.10202,-1.36458 -0.24127,-2.32888 -0.0526,-0.36473 -0.13502,-0.72486 -0.18299,-1.09023 -0.12672,-0.96544 -0.15141,-1.94541 -0.29291,-2.9097 -0.19189,-1.73594 -0.40256,-3.47045 -0.72552,-5.18783 -0.31086,-1.71517 -0.60231,-3.43395 -0.92789,-5.14633 -0.21546,-1.01785 -0.47614,-2.02638 -0.65395,-3.05182 0,0 -1.95199,-0.93645 -1.95199,-0.93645 z" />
    <path
       style="fill:#000000;stroke-width:0.535578"
       id="path356"
       d="m 73.824822,203.70278 c 0.156513,0.0202 0.312086,0.0494 0.469551,0.0587 0.301832,0.0182 0.604748,-0.008 0.907062,-0.004 0.479085,0.008 0.957288,0.037 1.435576,0.0638 0.93233,0.0202 1.825026,0.27805 2.718699,0.51507 1.185659,0.30845 2.398942,0.47687 3.619065,0.56336 1.160433,-0.0225 2.32183,0.1164 3.481657,0.0601 0.372008,-0.0182 1.218771,-0.11862 1.5954,-0.16072 1.379374,-0.21981 2.758323,-0.40341 4.155105,-0.44701 1.184198,-0.0243 2.365581,0.0583 3.545447,0.14635 1.078674,0.0834 2.159999,0.1083 3.241467,0.11093 1.381579,-0.006 2.762679,0.0334 4.143919,0.0571 1.34107,0.0241 2.68213,0.0142 4.02163,0.0899 1.13385,0.0933 2.26102,0.25116 3.39213,0.37177 0.73676,0.11032 1.48676,0.0526 2.22584,0.11194 0.8983,0.11457 0.45135,0.0698 1.3407,0.13582 1.11749,-0.1008 2.23036,-0.24359 3.34812,-0.34203 1.34788,-0.11801 2.70181,-0.0842 4.05304,-0.0903 1.32088,-0.006 2.63705,-0.12753 3.95629,-0.18097 1.10565,-0.0162 2.20979,-0.0567 3.30747,-0.19412 0.79415,-0.11761 1.56852,-0.33232 2.34915,-0.51418 0.5617,-0.14635 1.13701,-0.19129 1.71456,-0.20977 0.60735,-0.006 1.21159,-0.071 1.81651,-0.11862 0.62158,-0.0235 1.23857,-0.0939 1.85495,-0.17388 0.57998,-0.0644 1.15521,-0.16336 1.73456,-0.23214 0.40319,-0.0387 0.80729,5.3e-4 1.21112,-0.008 0.32522,-0.0202 0.64434,-0.0907 0.96176,-0.16052 0.0453,-0.0121 0.10971,0.004 0.13623,-0.0336 0.0253,-0.0368 0.002,-0.0941 -0.0225,-0.13178 -0.28473,-0.45013 -0.85166,-0.79593 -1.25462,-1.15361 0,0 -0.13947,-0.0824 -0.13947,-0.0824 v 0 c -0.16194,-0.0781 -0.32831,-0.14797 -0.48612,-0.2344 -0.42163,-0.23073 -1.05837,-0.78233 -1.60255,-0.70899 -0.30193,0.0575 -0.60648,0.10283 -0.91489,0.0968 -0.4064,-0.002 -0.81366,-5.1e-4 -1.2161,0.0656 -0.57381,0.0822 -1.14679,0.17044 -1.72292,0.23583 -0.61361,0.0698 -1.22837,0.11943 -1.84453,0.16092 -0.60437,0.05 -1.20936,0.0862 -1.81557,0.10506 -0.58812,0.0421 -1.16894,0.13097 -1.739,0.28566 -0.75696,0.19352 -1.51366,0.39651 -2.29004,0.49774 -1.07594,0.12874 -2.1569,0.17003 -3.23944,0.20572 -1.30521,0.0672 -2.60831,0.18886 -3.91627,0.18826 -1.36994,-0.002 -2.74217,-0.0182 -4.10895,0.0917 -1.11529,0.0968 -2.2271,0.22368 -3.34061,0.33817 -0.25844,0.0787 -0.50643,0.20273 -0.77389,0.24068 -0.71067,0.10081 -1.45133,-0.0897 -2.16032,-0.10445 -1.12879,-0.12105 -2.25417,-0.28201 -3.38839,-0.34489 -1.327,-0.047 -2.65495,-0.0314 -3.98252,-0.0498 -1.392797,-0.0231 -2.785146,-0.0674 -4.178103,-0.08 -1.08169,-0.0221 -2.163036,-0.0617 -3.242621,-0.13421 -1.174805,-0.0729 -2.35212,-0.1342 -3.529475,-0.0923 -1.389434,0.0672 -2.757183,0.29242 -4.132533,0.49175 -0.520598,0.0611 -1.043108,0.10526 -1.563701,0.16639 -1.01504,0.11923 -2.013165,0.36588 -3.044128,0.20463 -1.233352,-0.12004 -2.460341,-0.30574 -3.654296,-0.64695 -0.89914,-0.23817 -1.802801,-0.45741 -2.739778,-0.46233 -0.691175,-0.032 -1.667781,-0.1247 -2.338074,-0.0291 -0.09423,0.0142 -0.181715,0.0567 -0.272557,0.085 0,0 1.91683,1.38058 1.91683,1.38058 z" />
    <path
       style="fill:#000000;stroke-width:0.535578"
       id="path358"
       d="m 121.66662,258.92412 c 1.30816,-0.14818 2.61996,-0.19109 3.93495,-0.22158 2.03225,-0.0476 4.05755,-0.18683 6.07879,-0.3977 1.90458,-0.20716 3.80202,-0.46934 5.70065,-0.72328 0.85694,-0.1091 0.51913,-0.18602 0.54772,-0.84179 0,0 -0.13198,-0.0939 -0.13198,-0.0939 v 0 c -0.24184,-0.0729 -0.48398,-0.14493 -0.72551,-0.2188 -1.26312,-0.38646 -0.6616,-0.33396 -1.73382,-0.28503 -1.86922,0.30017 -3.74293,0.56636 -5.6264,0.76263 -2.03542,0.20453 -4.07739,0.32756 -6.12361,0.34418 -1.30822,0.0512 -2.62037,0.11154 -3.92165,0.25649 0,0 2.00076,1.41885 2.00076,1.41885 z" />
    <path
       style="fill:#000000;stroke-width:0.535578"
       id="path360"
       d="m 71.466647,258.49555 c 1.803447,0.72307 3.74972,0.96659 5.664241,1.20239 1.399469,0.1166 1.561336,0.15324 2.995847,0.17429 0.971907,0.0142 1.984387,0.0739 2.921461,-0.27388 0.330995,-0.12287 0.598415,-0.37481 0.897627,-0.56221 0,0 -0.131879,-0.0939 -0.131879,-0.0939 v 0 c -0.69296,-0.0959 -1.38287,-0.21742 -2.078882,-0.28794 -2.156887,-0.21852 -4.337983,-0.0121 -6.486183,-0.36103 -1.885907,-0.25701 -3.835064,-0.45172 -5.587436,-1.24498 0,0 1.805206,1.44741 1.805206,1.44741 z" />
    <path
       style="fill:#000000;stroke-width:0.535578"
       id="path362"
       d="m 139.41107,182.48941 c 0.61705,-0.71785 1.68726,-1.25745 2.24913,-1.9749 4.22118,-5.38989 -2.86322,2.43734 2.40687,-3.20604 0,0 -0.13744,-0.0856 -0.13744,-0.0856 v 0 c -0.62897,0.43926 -1.21219,0.95267 -1.88693,1.31774 -0.67666,0.3661 -1.45124,0.52124 -2.14118,0.86165 -0.93985,0.46376 -1.74053,1.21309 -2.64634,1.73866 0,0 2.15589,1.34854 2.15589,1.34854 z" />
    <path
       style="fill:#000000;stroke-width:0.535578"
       id="path364"
       d="m 64.081279,179.50221 c 1.728207,0.66921 3.484074,1.29543 5.271799,1.78568 0.404731,0.10222 0.809467,0.20441 1.214198,0.30661 0,0 -0.12783,-0.0994 -0.12783,-0.0994 v 0 c -0.560794,-0.22455 -1.121588,-0.4491 -1.682382,-0.67366 -0.546268,-0.24036 -1.086775,-0.49428 -1.638802,-0.72112 -1.409326,-0.57911 -2.884523,-0.98797 -4.285652,-1.58754 0,0 1.248675,0.98944 1.248675,0.98944 z" />
    <path
       style="display:inline;fill:#000000"
       id="path429"
       d="m 116.4745,82.774691 c -1.23171,0.356531 -2.23289,1.140039 -3.22998,1.913748 -1.82286,1.555076 -3.14653,3.596406 -4.1117,5.775518 -0.2387,0.538919 -0.43381,1.096109 -0.65071,1.644164 -0.99173,2.77953 -1.38241,5.740667 -1.00052,8.677649 0.0782,0.60139 0.22271,1.19228 0.33407,1.78841 0.73227,2.87661 2.03627,5.54517 4.17913,7.63417 0.41914,0.4086 0.88516,0.76618 1.32774,1.14926 2.47984,1.75795 5.18302,3.54459 8.29267,3.80995 1.42996,0.12203 1.68873,-0.0379 3.05833,-0.33237 2.12474,-0.7876 4.27304,-1.63445 5.89151,-3.28537 0.9799,-0.99955 1.39123,-1.76128 2.15169,-2.92971 1.54027,-2.63217 2.50171,-5.61405 2.65783,-8.671338 0.0305,-0.596667 -0.002,-1.194888 -0.003,-1.792332 -0.14477,-2.771023 -0.80561,-5.541921 -2.21271,-7.956547 -0.2681,-0.460075 -0.58824,-0.887788 -0.88236,-1.331682 -0.32173,-0.395057 -0.62187,-0.808724 -0.96519,-1.18517 -0.60933,-0.668128 -1.43603,-1.421489 -2.21274,-1.896907 -1.64616,-1.007607 -3.21766,-2.10214 -5.08934,-2.593163 -0.47277,-0.124027 -0.9625,-0.170772 -1.44375,-0.256158 -2.62389,-0.27186 -5.19111,0.422957 -7.41543,1.827257 -0.47828,0.301958 -0.91837,0.660533 -1.37756,0.990799 -0.42004,0.378963 -0.86945,0.727718 -1.26012,1.136888 -1.60622,1.682267 -2.819,3.911484 -3.32538,6.183666 -0.13209,0.592703 -0.17273,1.202142 -0.25909,1.803213 -0.14209,2.340102 0.34064,4.627114 1.58844,6.631114 0.74823,1.20167 1.19849,1.56367 2.16712,2.56629 2.43484,1.94896 5.26241,3.58326 8.39782,3.9739 1.53193,0.19086 1.87691,0.0801 3.40933,-0.0509 2.18469,-0.45615 4.43467,-1.06835 6.27617,-2.39032 1.13167,-0.8124 1.18784,-1.04008 2.02963,-2.11666 0.92447,-1.47822 1.68481,-3.195 1.68089,-4.978247 -0.002,-1.084079 -0.21689,-1.580148 -0.50446,-2.61863 -0.44446,-1.024204 -0.60536,-1.543764 -1.25544,-2.457413 -1.45082,-2.039063 -3.8283,-3.162997 -5.96961,-4.29068 -0.37362,-0.196756 -0.80197,-0.264678 -1.20295,-0.397018 -2.50249,-0.370838 -4.34515,0.143162 -6.19377,1.926232 -0.35471,0.34213 -0.64781,0.742856 -0.97171,1.114283 -1.1879,1.767924 -1.89127,3.777671 -1.84972,5.925567 0.0265,1.369965 0.22764,1.834721 0.56579,3.149356 0.692,1.98755 1.84785,3.78516 3.47154,5.14169 1.40892,1.1771 3.52067,2.12075 4.95887,2.9023 1.81695,0.61915 3.76077,1.14157 5.68602,0.70426 1.07693,-0.24461 1.52508,-0.55933 2.48676,-1.0646 1.00369,-0.70818 2.10453,-1.4924 2.56787,-2.69467 0.48111,-1.24838 0.26727,-2.64989 0.13506,-3.93217 -0.4313,-2.436575 -1.29121,-4.255043 -3.20179,-5.884812 -0.3819,-0.325771 -0.80635,-0.598081 -1.20953,-0.897121 -2.32655,-1.424717 -4.52168,-3.039105 -7.30502,-3.156885 -1.73789,-0.07354 -2.98255,0.412517 -4.56166,1.027437 -0.46901,0.280131 -0.96516,0.519167 -1.40704,0.840394 -1.91364,1.391134 -3.36692,3.420035 -4.3134,5.566671 -0.24282,0.550721 -0.42147,1.127556 -0.63221,1.691336 -0.53172,2.07077 -0.8031,4.27525 -0.1475,6.35661 0.36555,1.16054 0.60603,1.37983 1.25667,2.36143 2.0121,1.86683 4.71517,3.82014 7.59476,3.3134 1.09445,-0.1926 1.46536,-0.49799 2.42813,-1.0224 0.37578,-0.31514 0.78095,-0.59824 1.12734,-0.94542 1.61337,-1.617 2.79051,-3.73563 3.39103,-5.93046 0.16443,-0.60099 0.25251,-1.22032 0.37876,-1.83047 0.42188,-2.85938 0.23028,-5.807383 -0.97211,-8.468109 -0.21283,-0.470967 -0.48709,-0.911683 -0.73064,-1.367525 -0.74674,-1.154868 -1.66381,-2.237184 -2.87683,-2.929727 -2.30538,-1.316209 -3.51965,-2.424096 -5.81786,-2.677872 -0.41765,-0.04612 -0.84019,-0.01831 -1.26028,-0.02746 -0.41563,0.07771 -0.84257,0.109369 -1.24688,0.233119 -1.79964,0.550822 -3.3768,1.99533 -4.3521,3.573727 -0.27651,0.447503 -0.47228,0.940126 -0.70841,1.410189 -1.08173,2.719884 -1.1758,5.067374 -0.13521,7.827278 0.17242,0.4573 0.4134,0.88574 0.6201,1.32861 0.2641,0.37858 0.49251,0.78476 0.79231,1.13575 0.28485,0.33348 0.58404,0.66997 0.95283,0.90734 1.57488,1.0137 3.47734,2.47102 5.5108,2.75694 1.17862,0.16573 1.58968,0.006 2.75769,-0.18382 2.50077,-0.66502 4.66157,-2.11833 6.21975,-4.18633 0.30553,-0.4055 0.56212,-0.84565 0.84317,-1.26848 1.18247,-2.209342 1.50061,-4.538691 0.55395,-6.910188 -0.16127,-0.404005 -0.39747,-0.773903 -0.59621,-1.160854 -0.26263,-0.32954 -0.49654,-0.684179 -0.78789,-0.988619 -1.28641,-1.344183 -3.96332,-2.594874 -5.11876,-3.186491 -0.565,-0.289299 -1.71271,-0.471645 -2.33739,-0.489056 -0.38326,-0.01068 -0.76515,0.05044 -1.14773,0.07567 -0.34208,0.08857 -0.69986,0.130295 -1.02624,0.265724 -1.22212,0.507114 -2.07199,1.775198 -2.25449,3.06 -0.0512,0.360458 -0.017,0.727954 -0.0255,1.091932 0.067,0.370641 0.0938,0.750862 0.20099,1.111924 0.49269,1.658988 1.71097,3.096666 3.05186,4.148297 0.33722,0.26448 0.70974,0.480567 1.06461,0.72085 0.38505,0.208806 3.53527,2.432511 5.15697,2.399641 0.3097,-0.006 0.61636,-0.12216 0.89003,-0.26728 0.28413,-0.15067 0.50179,-0.40239 0.75255,-0.60376 0.29503,-0.23692 0.58988,-0.47408 0.88482,-0.71112 0,0 -0.12549,-0.08432 -0.12549,-0.08432 v 0 c -0.52212,0.07685 -1.03875,0.21886 -1.56637,0.23055 -1.06275,0.0236 -2.35362,-0.247981 -3.37835,-0.509457 -0.42157,-0.107571 -1.48805,-0.743176 -1.24877,-0.379803 0.38272,0.58118 1.16609,0.75975 1.74913,1.13962 -0.36816,-0.22861 -0.75404,-0.430884 -1.10447,-0.685842 -1.31883,-0.959531 -2.51537,-2.304039 -3.01269,-3.884128 -0.10574,-0.335932 -0.13946,-0.690412 -0.20919,-1.035618 0.004,-0.333384 -0.0324,-0.669801 0.0127,-1.000152 0.25438,-1.86489 1.49467,-2.548948 3.20297,-2.837879 1.01269,-0.0266 1.22193,-0.100534 2.22815,0.156785 0.37804,0.09667 1.39157,0.65148 1.10484,0.386827 -0.59421,-0.548462 -1.33802,-0.919017 -2.06502,-1.27309 -0.36238,-0.176491 0.66477,0.460797 0.96019,0.735005 0.30446,0.282587 0.55441,0.618732 0.83161,0.928097 0.21587,0.369681 0.46909,0.719947 0.6476,1.109042 1.00754,2.196082 0.7505,4.566566 -0.30842,6.682703 -0.26373,0.41512 -0.49639,0.85168 -0.79118,1.24535 -1.51525,2.0235 -3.70967,3.35061 -6.15116,3.92665 -1.197,0.12776 -1.54333,0.25883 -2.73034,0.0209 -0.42094,-0.0844 -1.50916,-0.71136 -1.2286,-0.3864 0.49615,0.57465 1.22441,0.93289 1.93385,1.20324 0.84016,0.32015 -3.04389,-2.03026 -1.86812,-1.94563 -0.57804,-1.12677 -0.84731,-1.48971 -1.14666,-2.75193 -0.48554,-2.047319 -0.19062,-4.122847 0.62568,-6.039697 0.24906,-0.438351 0.46495,-0.89729 0.74719,-1.315053 1.02659,-1.519538 2.53582,-2.786319 4.34169,-3.23786 0.39256,-0.09815 0.80151,-0.111959 1.20226,-0.167938 0.39936,0.02266 0.80256,0.0083 1.19809,0.06797 0.41281,0.0623 1.48064,0.62008 1.21686,0.296483 -0.53428,-0.655435 -1.41359,-0.92847 -2.11592,-1.399412 -0.36995,-0.248063 0.7667,0.457862 1.11873,0.730752 1.02026,0.790895 1.14414,1.075933 1.94851,2.0909 0.264,0.446862 0.56013,0.876244 0.79202,1.340587 1.29172,2.58662 1.59438,5.523403 1.23391,8.361928 -0.12901,0.59134 -0.22015,1.19223 -0.38703,1.77402 -0.61255,2.13548 -1.76559,4.18053 -3.44418,5.65964 -0.3571,0.31467 -0.76764,0.56292 -1.15146,0.84438 -1.1058,0.5343 -2.17025,1.05789 -3.44311,0.94443 -0.37579,-0.0335 -1.35424,-0.53276 -1.10376,-0.25062 0.54445,0.61327 1.33899,0.95652 2.06649,1.33503 0.34584,0.17994 -0.6072,-0.48915 -0.91079,-0.73372 -0.71145,-0.9386 -0.95973,-1.12998 -1.38714,-2.26726 -0.7565,-2.01296 -0.64546,-4.18623 -0.0636,-6.22173 0.20625,-0.55008 0.37826,-1.11423 0.61874,-1.65023 1.17997,-2.629996 3.1099,-4.817287 5.70302,-6.105054 0.48567,-0.178828 0.95828,-0.3982 1.45701,-0.536484 0.9631,-0.267044 2.01178,-0.392796 3.01149,-0.323364 0.47375,0.0329 0.94582,0.113244 1.40572,0.231654 0.46559,0.119876 1.64647,0.866515 1.35997,0.48043 -0.43107,-0.580891 -1.2319,-0.758581 -1.84784,-1.137872 0.40261,0.28039 0.8258,0.533319 1.20782,0.841169 1.38589,1.116812 2.74768,2.923282 3.40616,4.580518 0.1647,0.414515 0.23761,0.859853 0.35642,1.289773 0.0351,0.42201 0.11148,0.84261 0.10527,1.26603 -0.0222,1.51413 -0.66806,3.12471 -1.71576,4.22682 -0.28165,0.29628 -0.62891,0.52242 -0.94336,0.78363 -1.0118,0.52639 -1.26503,0.74913 -2.40902,0.97172 -1.79108,0.3485 -3.62485,-0.0433 -5.31374,-0.63471 0.37671,0.26162 1.5552,0.95704 1.13011,0.78485 -0.45764,-0.18536 -0.84135,-0.52081 -1.23002,-0.82532 -1.64952,-1.29234 -2.83818,-3.03429 -3.54977,-4.99443 -0.1016,-0.48612 -0.24395,-0.96547 -0.30481,-1.45835 -0.31536,-2.553932 0.32026,-5.080374 1.80259,-7.172462 0.32097,-0.350878 0.61219,-0.731487 0.96291,-1.052634 1.32574,-1.213973 3.04776,-1.938764 4.86191,-1.79036 0.43207,0.03535 0.8525,0.158048 1.27874,0.237072 0.39663,0.154716 1.4903,0.765824 1.18989,0.464147 -0.49076,-0.492836 -1.13361,-0.844599 -1.79199,-1.068803 -0.42308,-0.144072 0.73265,0.516561 1.06093,0.819848 0.66642,0.61569 1.20198,1.331233 1.63071,2.129011 0.21031,0.391346 0.35848,0.813029 0.53772,1.219544 0.43842,1.635129 0.84463,3.42382 0.46237,5.120527 -0.23737,1.05361 -0.58638,1.48234 -1.12543,2.40102 -0.308,0.35606 -0.59102,0.73537 -0.92401,1.06818 -1.91027,1.9092 -4.31377,3.02342 -6.96094,3.4386 -0.56887,0.0353 -1.13666,0.1089 -1.70661,0.10579 -1.1103,-0.006 -2.23862,-0.16682 -3.30645,-0.47103 -0.53739,-0.1531 -1.01841,-0.56961 -1.57718,-0.56794 -0.32829,9.8e-4 1.06797,0.76404 0.80298,0.57025 -0.44539,-0.32572 -0.89615,-0.64404 -1.34422,-0.96606 -1.01707,-0.99687 -1.43482,-1.29887 -2.22232,-2.50414 -1.26815,-1.9409 -1.7802,-4.134689 -1.58543,-6.436541 0.092,-0.582229 0.14183,-1.17269 0.2759,-1.746686 0.66242,-2.835852 2.29134,-5.302419 4.52979,-7.136924 0.4602,-0.315137 0.90085,-0.660932 1.38061,-0.945411 2.23958,-1.327983 4.80233,-1.924277 7.38871,-1.60314 0.47799,0.101672 0.96381,0.171784 1.43398,0.305015 0.44241,0.125363 1.16861,0.910387 1.29732,0.468944 0.13371,-0.458562 -1.17642,-1.243462 -1.21041,-0.767015 -0.0349,0.489059 0.82328,0.535835 1.20495,0.843605 1.00445,0.809964 1.26626,1.208186 2.10527,2.187778 0.29743,0.433999 0.62001,0.851797 0.89229,1.301998 1.44431,2.388056 2.17587,5.122685 2.36772,7.890738 0.006,0.590146 0.0412,1.180691 0.0186,1.770439 -0.11616,3.03858 -1.01439,5.96629 -2.55925,8.57969 -0.34365,0.50114 -0.6583,1.02346 -1.03095,1.50343 -1.21384,1.56344 -3.24691,3.49086 -5.12373,4.20904 -0.52896,0.20241 -1.09968,0.27164 -1.64951,0.40746 -1.73299,0.14069 -3.101,0.23311 -4.80958,-0.22483 -0.52306,-0.14019 -0.99895,-0.59212 -1.53658,-0.52734 -0.34765,0.0419 1.15508,0.79097 0.85568,0.60938 -0.46944,-0.28471 -0.91112,-0.61287 -1.36667,-0.9193 -0.42225,-0.36351 -0.86483,-0.70465 -1.26673,-1.09053 -2.19229,-2.10495 -3.8355,-4.73974 -4.62062,-7.67924 -0.28704,-1.29603 -0.55398,-2.31932 -0.68462,-3.646294 -0.23103,-2.346707 0.18602,-4.658904 0.98329,-6.864988 0.22849,-0.534578 0.43272,-1.080189 0.68547,-1.603736 1.03004,-2.133653 2.48961,-4.028454 4.31735,-5.536397 0.28388,-0.20874 0.55387,-0.437829 0.85164,-0.626221 0.8258,-0.522455 1.7821,-0.810022 2.74989,-0.898545 0,0 -2.37746,-1.656701 -2.37746,-1.656701 z" />
    <path
       style="display:inline;fill:#000000"
       id="path431"
       d="m 80.128762,81.799687 c -1.380514,0.05446 -2.745348,0.293117 -4.107159,0.511153 -1.926349,0.420762 -3.617721,1.507259 -5.012337,2.881004 -0.327997,0.323087 -0.625986,0.675285 -0.938978,1.012928 -1.329945,1.56422 -2.337489,3.382468 -3.061007,5.301207 -0.460756,1.221905 -0.625184,1.969797 -0.959329,3.228863 -0.403962,1.615277 -0.691467,3.264085 -0.620517,4.936436 0.07212,1.699912 0.453483,3.355882 0.849784,5.001362 0.572852,1.9466 1.408035,3.81254 2.754479,5.35309 0.839168,0.96015 1.262356,1.23193 2.243698,2.02306 2.035048,1.26589 2.833447,1.80652 5.588804,3.04836 0.614931,0.27715 2.511896,0.56125 3.163103,0.61214 1.528606,0.11946 1.829255,0.0121 3.357924,-0.15754 2.974645,-0.59076 5.730461,-1.9202 7.990862,-3.95612 0.457372,-0.41195 0.862234,-0.87871 1.293351,-1.31806 0.861049,-1.13187 1.469263,-1.83008 2.128081,-3.09961 0.88403,-1.70351 1.505761,-3.66187 1.882015,-5.54006 0.124795,-0.62296 0.186232,-1.25695 0.279348,-1.885421 0.07628,-1.276066 0.203227,-2.434114 0.05562,-3.711751 -0.215748,-1.867424 -0.870984,-3.733882 -1.679955,-5.420363 -0.272435,-0.56795 -0.597819,-1.108946 -0.896729,-1.663419 -1.234728,-2.002031 -2.852306,-3.806725 -4.903553,-5.003292 -4.395979,-2.564334 -3.152839,-2.046315 -6.194829,-3.048232 -2.163414,-0.481987 -4.442406,-0.508134 -6.540187,0.296147 -1.408295,0.539935 -1.674369,0.858683 -2.886341,1.743462 -0.411559,0.399526 -0.85902,0.76512 -1.234675,1.198577 -1.654986,1.909634 -2.526139,4.347401 -2.820617,6.829958 -0.07595,0.640249 -0.07864,1.287076 -0.117956,1.930614 0.07428,3.377568 1.089834,6.629133 2.713954,9.57929 0.310561,0.56412 0.677189,1.0955 1.015783,1.64326 1.076904,1.49506 2.342826,2.75638 3.983295,3.62315 1.239107,0.65469 2.453997,1.38996 3.783289,1.83381 0.714629,0.23861 2.394122,-0.47393 2.935721,-0.65845 2.897691,-1.22482 5.158944,-2.85026 6.945658,-5.48302 1.183717,-1.74423 1.428658,-2.5839 2.247251,-4.512847 1.040194,-2.993251 1.891423,-6.517117 0.33717,-9.514269 -0.203658,-0.392725 -0.506973,-0.725133 -0.760459,-1.0877 -1.903735,-1.52017 -1.970502,-1.687969 -5.442267,-2.911245 -0.447983,-0.157846 -0.953831,6.4e-4 -1.422962,0.07494 -1.043917,0.165336 -2.102224,0.569984 -3.008785,1.104975 -0.536122,0.316383 -1.014446,0.721803 -1.521669,1.082705 -2.161375,1.776259 -3.762468,4.055223 -4.825613,6.636955 -0.279058,0.677661 -0.57764,1.358398 -0.720442,2.07722 -0.177442,0.893189 -0.155317,1.814653 -0.232975,2.72198 0.04515,2.645686 0.218681,5.313086 1.040423,7.848746 0.40807,1.25919 0.899886,2.35263 1.801414,3.33408 0.346121,0.3768 0.794203,0.64526 1.191305,0.96789 1.645903,0.81175 3.209095,1.81895 4.937711,2.43524 0.479659,0.17101 1.024442,-0.0236 1.521965,-0.1322 1.614055,-0.35224 2.956582,-1.29831 3.923992,-2.62006 0.346183,-0.47298 0.596819,-1.00897 0.895228,-1.51345 0.211687,-0.60555 0.47773,-1.19475 0.635061,-1.81663 0.745467,-2.94662 0.441631,-6.13319 -0.596247,-8.971494 -0.266068,-0.727622 -0.640942,-1.410708 -0.961413,-2.116061 -0.976539,-1.476425 -1.3143,-2.207507 -2.643834,-3.378663 -1.623287,-1.429915 -5.571298,-3.289317 -6.773101,-3.762426 -1.223474,-0.481639 -2.713605,-0.05675 -3.910746,0.144457 -0.630829,0.272263 -1.296246,0.475367 -1.892486,0.816791 -2.48877,1.425141 -4.391747,3.920614 -5.374767,6.588572 -0.252516,0.685337 -0.383734,1.40945 -0.5756,2.114176 -0.0748,0.741654 -0.200607,1.479928 -0.22439,2.224958 -0.08416,2.63628 0.542772,5.52903 2.263618,7.60764 0.375357,0.45339 0.856865,0.80722 1.285297,1.21084 2.664991,1.47052 4.028216,2.90027 6.765072,3.09096 1.996838,0.13914 4.071443,-0.47989 5.842023,-1.35855 0.660028,-0.32754 1.266541,-0.75336 1.899811,-1.13004 3.059172,-2.27607 5.333057,-5.00862 6.539978,-8.67258 0.211386,-0.64172 0.324949,-1.31163 0.487423,-1.96745 0.361595,-2.549414 0.07581,-5.054818 -1.280156,-7.285292 -0.788687,-1.297335 -1.285463,-1.692926 -2.321683,-2.760651 -2.770116,-2.045844 -5.916788,-4.365569 -9.513906,-3.72969 -0.527459,0.09324 -1.054865,0.227515 -1.543519,0.446888 -0.514833,0.231126 -0.959288,0.59469 -1.438932,0.892035 -0.43532,0.448608 -0.910026,0.862099 -1.30596,1.345823 -1.868931,2.283323 -2.790648,5.228632 -3.021351,8.1421 -0.06161,0.778086 -0.01298,1.560989 -0.01948,2.341483 0.263451,2.658774 0.693471,5.529404 2.599945,7.572394 1.397687,1.49777 4.938325,2.95309 6.025119,3.52312 0.509579,0.0256 1.020373,0.12028 1.528736,0.0768 2.305584,-0.19732 4.093779,-1.8895 5.224753,-3.79614 0.334354,-0.56367 0.568335,-1.18113 0.852503,-1.7717 1.224658,-3.07407 1.704199,-6.496397 0.782833,-9.729086 -0.171498,-0.601717 -0.44131,-1.17096 -0.661964,-1.75644 -0.98727,-2.01505 -2.353345,-3.778134 -4.324738,-4.908153 -4.215444,-2.416326 -2.786035,-2.013748 -5.480222,-2.53655 -1.475862,-0.05881 -2.941851,0.259871 -3.807676,1.574567 -0.527253,0.800599 -0.488404,1.166029 -0.653424,2.101024 0.738081,2.375343 1.967074,4.544865 3.803407,6.243611 0.339065,0.31366 0.695745,0.614325 1.088255,0.857807 0.964598,0.598359 1.981761,1.107498 2.972641,1.661247 0.788088,0.230469 1.627792,0.420584 2.319422,-0.167865 0.559534,-0.47606 0.633581,-1.195463 0.736725,-1.866595 0.08913,-1.661832 -0.636439,-2.878246 -1.615545,-4.145238 -1.327114,-1.178778 -4.039135,-3.238595 -6.033718,-2.159201 -0.252928,0.136876 -0.45538,0.351368 -0.68307,0.527053 -1.108705,1.365088 -1.626479,3.102391 -1.513171,4.857384 0.02435,0.377118 0.100953,0.749034 0.151429,1.123551 0.263377,0.950318 0.290308,1.239209 0.736914,2.112612 1.010722,1.976612 2.95696,2.685882 4.945176,3.705742 0.337884,0.17332 0.732687,0.19997 1.09903,0.29995 0.36661,0.0182 0.734092,0.0857 1.09983,0.0546 1.686436,-0.14357 3.055169,-1.28247 3.903743,-2.68921 0.264862,-0.439083 0.442201,-0.925329 0.663302,-1.387993 0.701589,-1.996721 1.074743,-4.071247 0.54974,-6.158845 -0.288776,-1.148276 -0.545481,-1.509863 -1.07105,-2.526887 -0.232975,-0.306121 -0.43541,-0.638101 -0.698925,-0.918364 -0.232007,-0.246752 -0.484758,-0.484354 -0.778501,-0.652962 -1.252396,-0.718875 -3.274113,-2.70512 -5.151636,-2.14103 -0.846634,0.254366 -1.093356,0.639646 -1.723239,1.236435 -0.243805,0.346088 -0.520052,0.671463 -0.731415,1.038264 -1.384176,2.402116 -1.661504,5.259674 -1.878124,7.961095 -0.112903,2.924304 0.163878,5.842607 0.283559,8.762127 -0.01544,0.79217 0.116388,2.45076 -1.003622,2.64413 -0.181588,0.0314 -0.368536,-0.003 -0.552803,-0.005 -0.211206,-0.0467 -0.430045,-0.067 -0.633617,-0.14011 -0.235218,-0.0845 -0.891885,-0.45108 -0.673546,-0.32945 0.996005,0.55487 1.950785,1.2009 3.007273,1.62954 0.33268,0.13498 -0.551226,-0.46371 -0.79144,-0.73052 -0.80245,-0.89132 -0.818848,-1.12495 -1.36332,-2.22554 -0.144353,-0.48832 -0.329655,-0.96636 -0.433058,-1.46496 -0.537822,-2.59334 -0.161182,-5.344849 0.526038,-7.869534 0.190867,-0.701199 0.439463,-1.385393 0.659194,-2.078089 0.981518,-2.429269 2.479322,-5.822548 4.940624,-7.115993 0.310987,-0.163428 0.66688,-0.221261 1.000321,-0.331891 2.581107,0.7045 -1.266081,-1.17075 -2.067953,-1.379773 -0.379282,-0.09887 0.52407,0.593553 0.704272,0.941628 0.23716,0.458096 0.402749,0.953514 0.534993,1.45212 0.363816,1.371716 0.375362,2.474366 0.484086,3.895987 0.06558,4.84137 -0.406853,9.665365 -0.613372,14.497665 -0.0064,0.65509 -0.133312,2.84052 0.229251,3.55709 0.676521,1.33708 2.158671,2.02512 3.472022,2.47692 0.402075,0.13831 0.845144,0.0944 1.267715,0.14161 0,0 -0.121296,-0.0902 -0.121296,-0.0902 v 0 c -0.421497,-0.0486 -0.845014,-0.0821 -1.26449,-0.14579 -0.01642,-0.002 -0.01016,-0.0318 -0.0126,-0.0482 -0.0375,-0.253 -0.0594,-0.50849 -0.107165,-0.75975 -0.507266,-2.66864 -0.271364,-0.53418 -0.470451,-3.59796 0.0084,-2.40868 0.06816,-4.80769 0.239183,-7.21142 0.229488,-3.225484 0.203053,-1.819225 0.413803,-4.975988 0.05008,-0.750139 0.07744,-1.501623 0.116156,-2.252435 0.02188,-1.748238 0.108311,-3.58589 -0.428828,-5.283108 -0.719875,-2.27462 -3.480061,-3.938369 -5.832951,-3.519169 -0.308853,0.169822 -0.643287,0.299737 -0.926561,0.509466 -0.780872,0.578139 -1.430716,1.39009 -1.981096,2.174111 -1.156531,1.647488 -2.01739,3.465781 -2.669141,5.366653 -1.18276,3.688255 -2.339485,7.58363 -1.289274,11.44448 0.387929,1.04043 0.429009,1.38075 1.062199,2.25935 1.224943,1.6997 3.582388,2.5698 5.203335,3.48337 0.24391,0.13747 0.518868,0.21876 0.792358,0.2787 0.234551,0.0514 0.478964,0.035 0.718446,0.0524 0.506441,-0.12412 0.756026,-0.10398 1.129723,-0.50251 0.71059,-0.75782 0.476693,-1.99836 0.412467,-2.91283 -0.364574,-2.94933 -0.754176,-5.90726 -0.665889,-8.887424 0.04018,-0.575642 0.05397,-1.153737 0.12055,-1.726927 0.28714,-2.472082 1.013495,-4.922529 2.639581,-6.850898 0.539243,-0.478293 0.817257,-0.865249 1.541985,-1.022319 0.254236,-0.0551 0.970108,0.181159 0.780409,0.0032 -0.741361,-0.695667 -1.694737,-1.123733 -2.553866,-1.667302 -0.288058,-0.182253 0.586174,0.355654 0.840132,0.583029 0.29961,0.268247 0.539897,0.596156 0.809845,0.894234 0.625715,0.985308 0.941009,1.338301 1.287462,2.486317 0.601554,1.993332 0.319734,4.085541 -0.345773,6.017107 -0.444141,0.976284 -0.6347,1.614785 -1.362843,2.409867 -1.056298,1.153406 -2.528546,1.454806 -4.016281,1.205506 -0.82897,-0.25917 -3.168026,-1.078994 0.922421,0.86386 0.366929,0.17428 -0.678428,-0.45313 -0.976366,-0.72925 -0.863361,-0.80014 -1.296828,-1.801322 -1.553327,-2.929599 -0.04673,-0.358928 -0.116689,-0.71559 -0.140197,-1.076783 -0.10995,-1.689323 0.326566,-3.322112 1.556407,-4.526201 0.751953,-0.481016 1.158652,-0.731756 2.092373,-0.580532 0.25012,0.04051 0.923477,0.375952 0.729812,0.212566 -0.538008,-0.453896 -1.188521,-0.755059 -1.795444,-1.111596 -0.268316,-0.157623 0.519337,0.342992 0.779005,0.514489 0.205238,0.210272 0.427492,0.405186 0.615713,0.630818 0.785609,0.94176 1.244608,2.170233 1.264796,3.38983 -0.03425,0.210065 -0.03538,0.428302 -0.102758,0.630194 -0.26046,0.780413 -1.025586,1.299882 -1.844594,1.23866 -0.264316,-0.01976 -0.518666,-0.109535 -0.778,-0.164302 0.323192,0.220033 1.223191,0.957665 0.969575,0.660098 -0.300488,-0.352561 -0.770623,-0.519798 -1.11452,-0.830162 -1.17401,-1.059531 -2.431833,-2.717412 -2.90685,-4.238719 -0.13692,-0.438503 -0.103585,-0.912907 -0.155378,-1.36936 0.179854,-0.811349 0.172034,-1.201059 0.672377,-1.87932 0.566631,-0.768122 1.530121,-1.240791 2.468483,-1.32452 0.383395,-0.03421 0.769348,0.02738 1.154022,0.04108 0.428475,0.124564 1.507286,0.760841 1.285426,0.373691 -0.340602,-0.594356 -1.148453,-0.74715 -1.717768,-1.128134 -0.40205,-0.269051 0.834734,0.494477 1.215948,0.792318 1.33844,1.04572 2.349985,2.409364 3.147619,3.895845 0.612283,1.534514 0.855623,1.885085 1.095181,3.550412 0.376031,2.614044 -0.06979,5.237797 -1.097173,7.652207 -0.311419,0.54984 -0.578776,1.12708 -0.934255,1.64952 -1.198688,1.76168 -3.000867,3.26396 -5.223795,3.33681 -0.478728,0.0157 -0.95264,-0.10091 -1.42896,-0.15137 0.64896,0.45979 1.304229,0.91081 1.946879,1.37939 0.44989,0.32802 -0.961826,-0.57743 -1.368522,-0.9577 -2.062134,-1.92812 -2.690809,-4.80196 -2.985602,-7.48436 0.02559,-1.964484 -0.07342,-2.585629 0.376712,-4.509768 0.47783,-2.042538 1.398056,-3.994786 2.82121,-5.552585 0.407464,-0.446014 0.898946,-0.807291 1.348418,-1.210937 0.471321,-0.261727 0.914925,-0.581208 1.413963,-0.78518 0.93365,-0.381611 2.013265,-0.526282 3.014923,-0.431269 0.527778,0.05006 1.718245,0.837876 1.555092,0.333458 -0.235223,-0.727237 -1.29425,-0.823146 -1.874426,-1.320739 -0.433993,-0.372219 0.955473,0.628217 1.43321,0.942325 1.092093,1.043334 1.537985,1.340681 2.351824,2.634284 1.345087,2.138023 1.711815,4.606348 1.489249,7.086824 -0.370852,1.787827 -0.351093,2.188187 -1.123906,3.877867 -1.228345,2.68566 -3.196238,4.89458 -5.609799,6.57208 -0.635774,0.3516 -1.246064,0.75384 -1.90732,1.05478 -1.224348,0.55722 -2.651118,0.9674 -3.995538,1.08734 -0.623329,0.0556 -1.25607,0.0517 -1.877258,-0.0241 -0.585895,-0.0716 -1.776668,-1.00304 -1.721334,-0.4154 0.06789,0.72095 1.198096,0.81366 1.797143,1.22049 -0.458424,-0.38134 -0.968377,-0.70813 -1.375273,-1.14403 -1.836546,-1.96747 -2.600862,-4.80743 -2.544252,-7.44308 0.01551,-0.72233 0.147488,-1.43745 0.221232,-2.15617 0.483416,-1.759645 0.53046,-2.35409 1.431069,-3.956616 1.024953,-1.823784 2.522865,-3.439252 4.395402,-4.412666 0.594647,-0.30912 1.253592,-0.474499 1.880387,-0.711748 0.643767,-0.07693 1.282971,-0.235594 1.931299,-0.230775 0.632301,0.0047 1.662033,0.85296 1.879177,0.259096 0.223742,-0.611908 -2.054031,-0.833275 -1.528445,-1.218307 0.542427,-0.39737 1.16924,0.675475 1.691788,1.098646 1.418455,1.148694 1.750647,1.831544 2.807411,3.311746 0.323212,0.685206 0.703685,1.346221 0.969636,2.055616 1.020865,2.723045 1.248887,5.827028 0.484905,8.644878 -0.16021,0.59092 -0.428343,1.14713 -0.642515,1.7207 -0.295961,0.4733 -0.543799,0.98034 -0.887884,1.41991 -0.653608,0.83496 -1.413336,1.4689 -2.382851,1.90413 -0.446928,0.20063 -0.921442,0.35439 -1.405564,0.42938 -0.477031,0.0739 -1.633529,-0.43304 -1.448103,0.0127 0.338597,0.81384 1.409474,1.05893 2.114212,1.58839 -0.449214,-0.30494 -0.94711,-0.54827 -1.347642,-0.91482 -2.227137,-2.03815 -3.170049,-5.48871 -3.423619,-8.38528 -0.08078,-0.92278 -0.03427,-1.85231 -0.0514,-2.77846 0.145882,-0.842728 0.228473,-1.698898 0.437645,-2.528187 0.645667,-2.55983 2.220249,-5.321499 4.048391,-7.220166 0.440039,-0.457015 0.941839,-0.85025 1.412759,-1.275374 1.480293,-1.000398 2.580904,-1.812251 4.425464,-1.994042 0.462189,-0.04555 1.552708,0.466659 1.392949,0.03057 -0.278524,-0.760275 -1.353651,-0.907845 -1.924645,-1.481918 -0.328859,-0.330632 0.791366,0.493564 1.187049,0.740345 0.329051,0.363021 0.715189,0.681517 0.987154,1.089064 1.350739,2.024116 1.431822,5.015601 0.989977,7.316685 -0.149077,0.77638 -0.417633,1.524973 -0.626449,2.28746 -0.328323,0.766165 -0.612126,1.55298 -0.984968,2.298496 -0.716224,1.432127 -1.653481,2.831617 -2.61197,4.110957 -0.779127,1.03993 -1.815342,2.37461 -2.908284,3.14102 -0.513815,0.3603 -1.120579,0.56534 -1.680869,0.84801 -0.609945,0.10037 -1.211686,0.30133 -1.829835,0.30113 -0.608443,-2.1e-4 -1.259696,-0.58191 -1.800115,-0.30235 -0.351593,0.18187 1.30505,0.79218 0.910303,0.76264 -0.478027,-0.0358 -0.828098,-0.48867 -1.20513,-0.7847 -1.141539,-0.8963 -1.515904,-1.45074 -2.467613,-2.56311 -0.356692,-0.5434 -0.743404,-1.06824 -1.070075,-1.6302 -1.659449,-2.85467 -2.62527,-6.087973 -2.720728,-9.38774 0.04087,-0.627044 0.04006,-1.258203 0.122613,-1.88113 0.399094,-3.011409 1.762563,-5.725198 4.080393,-7.703351 1.212794,-0.825749 1.471887,-1.118278 2.861337,-1.609072 2.070117,-0.731223 4.280134,-0.683368 6.383967,-0.144756 0.520358,0.183909 1.516414,1.10182 1.561075,0.551729 0.04934,-0.607704 -1.042481,-0.637528 -1.523715,-1.011897 -0.450766,-0.350666 0.975366,0.597636 1.432037,0.940577 0.912093,0.684944 1.835728,1.569441 2.555042,2.453559 0.384625,0.472748 0.707434,0.992595 1.06115,1.488893 0.306177,0.545269 0.640669,1.07558 0.91853,1.635809 1.401484,2.825703 2.129202,5.95529 1.986052,9.108981 -0.0835,0.622079 -0.13823,1.248704 -0.250511,1.866238 -0.569324,3.13125 -1.85899,6.06327 -3.954486,8.47312 -0.428445,0.42619 -0.833577,0.87718 -1.285337,1.27857 -2.242235,1.99224 -4.982368,3.28946 -7.939338,3.76701 -0.57068,0.0437 -1.139789,0.12046 -1.712042,0.13111 -1.050043,0.0195 -2.201029,-0.0908 -3.227018,-0.32061 -0.527574,-0.1182 -1.478062,-0.98694 -1.557652,-0.45218 -0.08834,0.59353 1.149437,0.53162 1.470363,1.03867 0.266526,0.4211 -0.860412,-0.50312 -1.290617,-0.75468 -1.003851,-0.76511 -1.418875,-1.01095 -2.277293,-1.9482 -1.375253,-1.50154 -2.246826,-3.35296 -2.891618,-5.26457 -0.376367,-1.36664 -0.547805,-1.81367 -0.740379,-3.23426 -0.301671,-2.22537 -0.179434,-4.490249 0.165332,-6.701544 0.13539,-0.538567 0.247376,-1.083565 0.406171,-1.615702 0.737113,-2.470136 1.953016,-4.771155 3.653731,-6.712468 0.316615,-0.323145 0.617109,-0.662913 0.949843,-0.969435 1.421892,-1.309878 3.128605,-2.206737 4.993386,-2.698901 0.292123,-0.07445 0.579894,-0.168749 0.876367,-0.223363 1.165648,-0.214726 2.381542,-0.09997 3.542472,0.07944 0,0 -2.969962,-2.217932 -2.969962,-2.217932 z" />
    <path
       style="fill:#000000;fill-opacity:1"
       id="path6413"
       d="m 52.788619,109.06219 c -0.09374,0.053 -0.226187,0.0663 -0.28121,0.15888 -0.03423,0.0576 -0.07993,0.88096 -0.08036,0.88515 -0.06356,0.63103 -0.100414,1.22727 -0.09554,1.8638 0.0826,1.66105 0.362129,3.30123 0.69173,4.9284 0.351455,1.72268 0.916423,3.38668 1.513429,5.03652 0.523315,1.59905 1.254112,3.09018 2.138368,4.51625 0.924578,1.37351 1.929315,2.69417 2.974983,3.9775 1.2103,1.4444 2.568885,2.74833 3.974308,3.99943 1.50128,1.27374 3.027877,2.51856 4.609371,3.69148 3.068264,2.24098 6.450051,4.00572 9.746375,5.87488 1.993493,0.95567 4.137841,1.50287 6.285003,1.98295 2.104469,0.3808 4.22786,0.66524 6.354326,0.89175 2.115209,0.18515 4.224469,0.43004 6.340071,0.61005 2.036929,0.15511 4.075897,0.22905 6.118277,0.22716 2.15953,-0.0236 4.31648,-0.0845 6.47525,0.001 2.16766,0.17205 4.33654,0.22052 6.50905,0.14919 2.14043,-0.0433 4.24359,-0.43223 6.32007,-0.92315 2.15881,-0.51433 4.21992,-1.3246 6.20701,-2.30094 1.83473,-0.91841 3.54036,-2.05391 5.14561,-3.32612 1.22976,-1.00339 2.46338,-2.00002 3.62172,-3.0858 0.84545,-0.80126 1.57632,-1.70412 2.28975,-2.62124 0.62294,-0.81164 1.23045,-1.635 1.86087,-2.44088 0.62867,-0.80734 1.28472,-1.59255 1.92649,-2.3893 0.74744,-0.96887 1.47951,-1.94976 2.18446,-2.95003 0.48832,-0.59038 0.76772,-1.3188 1.19619,-1.94592 0.54894,-0.80342 0.0929,0.051 0.50299,-0.78412 0.29353,-0.85484 0.45944,-1.74567 0.68989,-2.61833 0.22711,-0.75691 0.54787,-1.48159 0.83394,-2.21746 0.28976,-0.67903 0.57583,-1.35543 0.79615,-2.06035 0.15762,-0.43848 0.21906,-0.90044 0.31083,-1.35474 0.0685,-0.29477 0.13433,-0.58923 0.21903,-0.87985 0.0494,-0.25259 0.21644,-0.45523 0.3041,-0.69132 0.003,-0.0141 0.0192,-0.032 0.009,-0.0422 -0.12006,-0.12086 -0.67282,-0.38496 -0.67457,-0.38591 -0.78414,-0.42464 -1.56632,-0.85291 -2.34948,-1.27937 0,0 0.13733,0.0841 0.13733,0.0841 v 0 c -0.75646,-0.45346 -1.50299,-0.92392 -2.26939,-1.3604 -0.22323,-0.12713 -0.46385,-0.29586 -0.71991,-0.27511 -0.0222,0.002 -0.0154,0.0419 -0.023,0.0628 -0.0372,0.25254 -0.0504,0.50681 -0.16413,0.74312 -0.0974,0.31593 -0.18641,0.63617 -0.22092,0.96606 -0.0675,0.44437 -0.11,0.89295 -0.21359,1.33114 -0.17834,0.69546 -0.37396,1.38927 -0.66488,2.04739 -0.33327,0.74901 -0.68248,1.49755 -0.89013,2.29353 -0.20635,0.85893 -0.37383,1.72801 -0.64276,2.57107 -0.0703,0.29501 -0.0846,0.60222 -0.16384,0.89494 -0.19117,0.70575 -0.70257,1.30114 -1.04516,1.93116 -0.69037,0.99459 -1.42035,1.96222 -2.19184,2.89548 -0.65545,0.79465 -1.34166,1.56459 -1.95976,2.38917 -0.61451,0.81427 -1.22023,1.6345 -1.82239,2.4579 -0.69769,0.88716 -1.39544,1.77859 -2.17524,2.59585 -1.10253,1.09852 -2.29831,2.09838 -3.47906,3.11092 -1.5546,1.25018 -3.18467,2.40494 -4.98552,3.2797 -1.97396,0.93284 -4.01777,1.70067 -6.15101,2.18766 -2.06371,0.45089 -4.15239,0.76332 -6.26752,0.82699 -2.15924,0.0506 -4.31227,-0.0558 -6.46868,-0.16078 -2.17656,-0.0502 -4.35287,-0.0733 -6.52974,-0.0197 -2.018093,-0.005 -4.033995,-0.10284 -6.048004,-0.22798 -2.06503,-0.14012 -4.129049,-0.29929 -6.187229,-0.52017 -2.096881,-0.24356 -4.201781,-0.45874 -6.268909,-0.90031 -2.119461,-0.47337 -4.225261,-1.06108 -6.162719,-2.06594 8.018798,4.70937 0.631243,0.44701 -1.026465,-0.74828 -1.619292,-1.16968 -3.163696,-2.43945 -4.721022,-3.6896 -1.404093,-1.21361 -2.741085,-2.50156 -3.949616,-3.91277 -1.133119,-1.2717 -2.243973,-2.56575 -3.181795,-3.99216 -0.917846,-1.42016 -1.744499,-2.8969 -2.320206,-4.49303 -0.625995,-1.62577 -1.222108,-3.27007 -1.569185,-4.98195 -0.313033,-1.5976 -0.609782,-3.20408 -0.664221,-4.83557 -0.048,-0.64147 -0.134676,-1.29663 -0.150988,-1.93952 -0.0075,-0.29695 0.116607,-0.60145 0.04592,-0.88997 -0.03949,-0.16116 -0.153419,-0.29427 -0.230128,-0.4414 0,0 -3.321785,-1.71173 -3.321785,-1.71173 z" />
  </g>
</svg>
