<?xml version="1.0" encoding="UTF-8" standalone="no"?>
<!-- Created with Inkscape (http://www.inkscape.org/) -->

<svg
   width="210px"
   height="297px"
   viewBox="0 0 210 297"
   version="1.1"
   id="svg5"
   inkscape:version="1.2.2 (b0a8486541, 2022-12-01)"
   sodipodi:docname="dmitri.svg"
   xmlns:inkscape="http://www.inkscape.org/namespaces/inkscape"
   xmlns:sodipodi="http://sodipodi.sourceforge.net/DTD/sodipodi-0.dtd"
   xmlns="http://www.w3.org/2000/svg"
   xmlns:svg="http://www.w3.org/2000/svg">
  <sodipodi:namedview
     id="namedview7"
     pagecolor="#ffffff"
     bordercolor="#000000"
     borderopacity="0.25"
     inkscape:showpageshadow="2"
     inkscape:pageopacity="0.0"
     inkscape:pagecheckerboard="0"
     inkscape:deskcolor="#d1d1d1"
     inkscape:document-units="mm"
     showgrid="false"
     inkscape:zoom="1.754102"
     inkscape:cx="115.44368"
     inkscape:cy="149.36417"
     inkscape:window-width="1280"
     inkscape:window-height="651"
     inkscape:window-x="0"
     inkscape:window-y="0"
     inkscape:window-maximized="1"
     inkscape:current-layer="layer5" />
  <defs
     id="defs2" />
  <g
     inkscape:groupmode="layer"
     id="layer5"
     inkscape:label="Layer 1">
    <path
       style="fill:#f9f9f9"
       d="m 39.962365,88.520794 c -0.27335,0.402246 -0.618461,0.76415 -0.820049,1.206738 -0.48398,1.062582 0.250308,8.579807 0.438915,10.007259 0.529767,4.009479 0.658738,8.069019 1.360081,12.059599 0.224213,1.27576 0.13921,2.60404 0.232236,3.89357 0.108007,1.49721 0.415375,3.07765 0.762267,4.53804 0.544173,2.29094 1.615774,4.2185 2.506815,6.3526 1.858473,4.45116 3.389098,8.90765 6.15592,12.93299 0.41712,0.60685 0.969295,1.09216 1.460086,1.63454 1.706116,1.88545 3.339786,3.81937 5.189196,5.58033 1.252727,1.19281 2.639137,2.22999 3.924677,3.37464 1.314728,1.17065 2.302762,2.73036 3.775779,3.73911 3.435582,2.35278 7.994462,2.87489 11.831811,4.18359 2.564517,0.8746 5.097985,2.18137 7.743792,2.79349 3.421308,0.79154 6.996989,0.84538 10.450618,1.52343 3.217038,0.6316 6.303481,1.8421 9.606121,2.0679 1.98089,0.13543 3.77979,-0.51115 5.70701,-0.55559 1.26383,-0.0291 2.72022,0.52445 3.98801,0.68226 2.65006,0.32987 5.4751,0.30948 8.12937,0.0533 2.85502,-0.27551 5.33382,-1.464 7.99714,-2.44348 1.24246,-0.45693 2.58223,-0.47126 3.83912,-0.85227 2.06686,-0.62654 5.22831,-2.6217 7.10375,-3.798 1.46327,-0.91778 2.48146,-2.16308 3.62799,-3.42687 1.40369,-1.54725 2.99818,-3.05745 4.01469,-4.90363 1.4946,-2.7145 2.55651,-5.70646 3.888,-8.5005 0.70823,-1.48615 1.73181,-2.80016 2.4057,-4.30025 0.39598,-0.88147 0.64193,-1.81891 1.04784,-2.69683 0.50442,-1.09098 1.13182,-2.13961 1.49676,-3.2902 0.27377,-0.86316 0.419,-1.76422 0.68781,-2.62904 0.48532,-1.56135 1.12681,-3.06051 1.58121,-4.63361 0.63884,-2.21161 1.08103,-4.45832 1.61898,-6.68595 0.3877,-1.60543 1.32366,-3.11496 1.59677,-4.74472 0.74437,-4.44212 -0.19118,-8.95534 0.3389,-13.397464 0.19589,-1.641538 0.93612,-2.931896 1.42231,-4.470264 0.53014,-1.677437 0.72318,-3.925571 0.2489,-5.611443 -0.10925,-0.388353 -0.0459,-0.853781 -0.28557,-1.201183 -0.7131,-1.033483 -2.51722,-0.903065 -3.59688,-1.121177 -0.66685,-0.134718 -1.28094,-0.470603 -1.95122,-0.571145 -2.01071,-0.301605 -3.99535,-0.542296 -5.9348,-1.222295 -0.7879,-0.276249 -1.49248,-0.760604 -2.28013,-1.021171 -2.26471,-0.7492 -4.72143,-0.900245 -7.04487,-1.412306 -2.74163,-0.604228 -5.3353,-1.895221 -8.12937,-2.359028 -2.38128,-0.395286 -4.78944,-0.180491 -7.18264,-0.31113 -1.90118,-0.103781 -3.76119,-0.591334 -5.64367,-0.836716 -2.18365,-0.284639 -4.40096,-0.196425 -6.59484,-0.364466 -3.95918,-0.303257 -7.88123,-0.959411 -11.85847,-0.973391 -2.88831,-0.01015 -5.763668,0.666319 -8.658295,0.645594 -4.25415,-0.03046 -8.477495,-0.403228 -12.709641,0.237792 -3.930702,0.595361 -7.850249,1.26282 -11.76403,1.946781 -2.195911,0.383752 -4.441363,0.395157 -6.642615,0.761157 -3.13881,0.521886 -6.279966,1.510543 -9.351664,2.327915 -7.26808,1.93402 -11.43317,2.778489 -17.79772,7.24154"
       id="path436" />
    <path
       style="fill:#28170b"
       d="m 84.243874,84.199427 c -0.444471,0.315574 -0.920215,0.591181 -1.333412,0.946723 -0.935931,0.805336 -3.794075,7.258477 -4.17358,8.854968 -0.334868,1.408709 -0.859878,2.929591 -0.920055,4.379148 -0.05189,1.249981 0.106768,2.522034 0.05889,3.792444 -0.05686,1.50869 -0.355756,2.96701 -0.243348,4.48582 0.33059,4.46682 3.535778,5.72791 6.504829,2.33236 0.620733,-0.70989 0.892733,-1.57481 1.354525,-2.38014 2.205029,-3.84541 2.569918,-7.248281 2.961286,-11.572904 0.12027,-1.32898 0.334918,-2.743742 0.212235,-4.083575 -0.09054,-0.988792 -0.725739,-1.858426 -0.910054,-2.824611 -0.349316,-1.831126 -0.451423,-2.277464 -1.571204,-3.707998 -0.05922,-0.07565 -0.307283,-0.457052 -0.412247,-0.450026 -0.513769,0.03439 -1.018578,0.151861 -1.527868,0.227791 z"
       id="path501" />
    <path
       style="fill:#28170b"
       d="m 117.80253,84.701679 c -1.51216,2.105025 -1.66404,4.713227 -2.46904,7.130422 -0.75968,2.281124 -0.46885,4.788135 -0.64559,7.135978 -0.0619,0.822633 0.25862,1.506331 0.28001,2.321251 0.0184,0.70025 0.1576,1.65063 0.0744,2.33347 -0.0534,0.43845 -0.23559,0.81476 -0.18556,1.26896 0.0584,0.52997 1.22486,4.10421 1.53453,4.55916 0.25993,0.38187 0.75539,0.31626 1.05229,0.66115 0.69599,0.8085 1.83075,1.68739 2.90906,1.02673 2.77071,-1.69758 3.9758,-7.05353 4.18913,-9.99726 0.24624,-3.397634 0.49448,-6.903993 -0.34446,-10.24505 -0.17588,-0.700419 -0.71519,-1.315788 -1.01562,-1.967894 -0.28305,-0.614401 -0.38497,-1.350367 -0.7556,-1.920114 -0.38219,-0.587522 -1.0192,-0.770283 -1.50786,-1.232295"
       id="path692" />
    <path
       style="fill:#cccc11;fill-opacity:1"
       d="m 86.089539,130.85219 c -0.121859,-0.49892 -0.314504,-0.98572 -0.365577,-1.49676 -0.02932,-0.29339 0.26554,-0.52657 0.402246,-0.78782 0.856046,-1.63595 2.364968,-2.12231 3.723553,-3.24242 0.508762,-0.41945 0.896126,-0.96273 1.470087,-1.30674 0.893697,-0.53564 2.00749,-1.02951 2.994622,-1.38008 0.393962,-0.13991 0.783156,-0.39495 1.188959,-0.48225 0.875392,-0.18833 1.915419,-0.001 2.8035,0.0589 0.571658,0.0389 1.172635,-0.14827 1.745661,-0.18001 1.12378,-0.0622 2.45884,0.28133 3.49132,0.69782 0.88194,0.35576 1.55364,1.11036 2.4168,1.48675 1.02678,0.44775 2.39878,0.64004 3.29464,1.31675 0.88847,0.67112 1.56495,1.50424 2.50237,2.15346 2.12863,1.47419 3.98876,1.44981 5.13586,4.24136 1.05908,2.57734 -0.83273,7.17999 -2.29569,9.25166 -1.66159,2.35296 -6.15762,2.88144 -8.80163,3.01462 -0.79271,0.0399 -1.51667,0.38636 -2.31125,0.43892 -1.41646,0.0937 -2.76762,-0.26625 -4.172466,-0.31224 -1.001348,-0.0328 -1.983007,0.13975 -2.98351,-0.01 -0.908016,-0.13592 -1.655392,-0.57143 -2.422366,-1.00562 -1.896121,-1.0734 -2.995098,-1.03433 -4.559158,-2.85017 -1.830835,-2.12555 -2.201918,-4.93045 -2.740163,-7.54267 -0.117497,-0.57024 -0.518773,-1.99089 -0.517808,-2.06345 0.511965,-1.96955 0.510474,-1.22792 0.475584,-2.17346"
       id="path696" />
    <path
       style="fill:#143b14;fill-opacity:1"
       d="m 39.153428,89.276394 c -0.274508,-0.544041 -1.310067,-0.789757 -1.797884,-1.280076 -0.398832,-0.400877 -0.678331,-1.097597 -0.990059,-1.57676 -1.469605,-2.258955 -5.800673,-7.733367 -4.209138,-10.440617 0.980716,-1.668228 7.175655,-2.489496 7.261541,-2.661269 0.244666,-0.489332 -0.122222,-1.579001 -0.09556,-2.110125 0.05679,-1.131243 0.296568,-2.230538 0.327797,-3.364643 0.06191,-2.248197 -1.021359,-4.574412 -1.53898,-6.749289 -0.801558,-3.367891 -1.315476,-6.888227 -1.53898,-10.323944 -0.03243,-0.498555 -0.320297,-0.97819 -0.385578,-1.486755 -0.480602,-3.744043 -0.499499,-6.649958 1.808996,-9.775022 0.726824,-0.98392 1.680761,-2.341856 2.829056,-2.899061 0.527067,-0.255757 1.168533,-0.32965 1.686767,-0.61337 0.501644,-0.274637 0.887134,-0.68671 1.417861,-0.931166 1.32749,-0.611449 2.803181,-0.975122 4.179136,-1.470087 1.229865,-0.442412 2.185965,-1.403087 3.516875,-1.592316 0.825332,-0.117346 1.651867,0.01611 2.45459,-0.09001 2.573623,-0.340214 5.346898,-0.589078 7.853798,-1.247851 2.083487,-0.547507 4.054366,-1.507609 6.140363,-2.031231 1.544136,-0.387606 3.237156,-0.133203 4.813619,-0.338909 1.115838,-0.145602 2.183869,-0.526055 3.300195,-0.665595 0.753868,-0.09423 1.519184,-0.01993 2.274579,-0.111118 1.577016,-0.19037 3.094264,-0.782187 4.65472,-0.988947 1.356668,-0.179759 2.756012,0.159027 4.099131,0.05222 1.543328,-0.122723 3.036744,-0.504778 4.56916,-0.697819 1.378947,-0.173709 2.788469,-0.09913 4.162468,-0.312241 0.515313,-0.07993 0.947966,-0.42677 1.465642,-0.492251 1.662557,-0.2103 3.365337,0.313765 5.013627,0.338909 0.874,0.01333 1.72497,-0.174581 2.60238,-0.101117 0.93461,0.07825 1.85213,0.282232 2.79239,0.31224 1.47421,0.04705 2.95282,-0.128682 4.43248,-0.04778 1.48769,0.08134 2.75609,0.630314 4.19469,0.900053 1.37953,0.258661 2.82721,0.212047 4.22025,0.438915 1.85992,0.302901 3.66832,0.840235 5.54366,1.067841 3.37245,0.409305 8.26342,0.235988 11.35068,1.132289 1.32371,0.384303 2.71972,0.695831 4.01912,1.153402 0.6869,0.241882 1.27378,0.778609 1.97345,0.998948 0.84739,0.266855 1.71298,0.352725 2.55904,0.687818 1.02286,0.405115 1.66502,1.180315 2.74572,1.507867 0.47117,0.142809 0.96328,0.155962 1.43342,0.291128 0.66911,0.19237 1.24541,0.632887 1.93567,0.766712 1.09415,0.212132 2.31157,0.334011 3.37464,0.655595 0.56866,0.172022 1.05287,0.570041 1.58676,0.820048 1.40772,0.659193 2.95322,1.071555 4.38471,1.682322 0.46187,0.197064 0.81807,0.595658 1.30119,0.782269 0.47183,0.182255 1.03887,0.08728 1.51231,0.254459 0.49438,0.174575 0.8466,0.703072 1.29119,0.962279 0.38567,0.22486 0.85321,0.305943 1.23674,0.540032 0.78805,0.480995 1.33173,1.438061 1.94678,2.094569 0.46158,0.492704 1.13464,0.844317 1.66565,1.258963 0.91131,0.71161 -1.03318,3.771214 -1.31674,4.585827 -0.36761,1.056045 -0.52825,2.17123 -0.87228,3.231302 -0.32497,1.001377 -0.95078,1.873284 -1.34897,2.840168 -0.47361,1.150042 -0.72306,2.546118 -1.06339,3.750222 -0.35874,1.269227 -0.0823,2.812343 -0.3378,4.136912 -0.31566,1.636591 -0.96664,3.192003 -1.27563,4.829174 -0.24724,1.30995 -0.61533,5.813308 0.16445,6.934855 0.70978,1.020845 2.76604,1.041388 3.81356,1.422307 0.79086,0.287583 1.86229,0.75961 2.5546,1.237851 0.49251,0.340223 0.93689,0.833731 1.49675,1.078952 0.64351,0.281855 1.40695,-0.04259 1.99901,0.275572 0.10434,0.05607 0.0111,0.432589 0.0111,0.507808 0,1.200254 -0.0491,1.222366 -0.94116,2.290136 -2.19358,2.625706 -4.1379,4.789526 -7.41044,5.913683 -1.06361,0.365361 -2.16798,-0.305856 -3.19464,-0.471139 -0.96447,-0.155272 -1.90696,0.01846 -2.88795,-0.227791 -1.59249,-0.399763 -3.0116,-1.345301 -4.57027,-1.787884 -1.34462,-0.381807 -2.76776,-0.329068 -4.12024,-0.682263 -0.78834,-0.205873 -1.49814,-0.620752 -2.27347,-0.862273 -2.29314,-0.714331 -4.88015,-1.25322 -7.26265,-1.554536 -1.85037,-0.234017 -3.63411,0.4284 -5.45254,0.195567 -2.38945,-0.305947 -4.81963,-0.694441 -7.18821,-1.121178 -1.24883,-0.224995 -2.47547,-0.735738 -3.72911,-0.904498 -2.08655,-0.280882 -4.20544,-0.287074 -6.2937,-0.630037 -1.54294,-0.253401 -3.11087,-0.677448 -4.67028,-0.808937 -1.00377,-0.08464 -2.06836,-0.20059 -3.07351,-0.07445 -0.96398,0.120974 -1.92683,0.401309 -2.90351,0.360021 -2.46466,-0.104191 -4.88059,-0.571032 -7.34155,-0.703375 -1.991573,-0.107102 -3.947449,0.16793 -5.93479,0.190011 -2.239505,0.02488 -4.48544,-0.165307 -6.721509,-0.06334 -1.092211,0.04981 -2.177875,0.185567 -3.274638,0.185567 -1.117805,0 -2.217769,-0.06386 -3.332419,0.08445 -1.474837,0.196232 -2.834825,0.847905 -4.304699,1.073397 -0.955367,0.146562 -1.945406,-0.110027 -2.920173,-0.01556 -1.188377,0.115174 -2.344925,0.446352 -3.532432,0.561145 -2.90665,0.280976 -5.891193,0.472426 -8.732739,1.216738 -2.338626,0.612579 -4.872731,1.377001 -7.040416,2.459035 -0.758591,0.378662 -1.429855,0.935207 -2.231243,1.232295 -1.656812,0.614207 -3.43097,0.779492 -5.130304,1.22785 -1.084114,0.286037 -2.071558,0.833302 -3.147964,1.147846 -2.300234,0.672169 -3.686052,0.998292 -5.584775,2.639045 z"
       id="path3520" />
    <path
       style="fill:#f90000;fill-opacity:1"
       d="m 93.229961,40.195712 c -0.511169,-0.03491 -2.63823,-0.188454 -3.56021,-0.233347 -0.626929,-0.03053 -1.250816,-0.120282 -1.877889,-0.08445 -0.462569,0.02643 -0.829147,0.08373 -1.257852,0.270016 -0.555259,0.241273 -1.01999,0.2693 -1.586761,0.402246 -0.187072,0.04388 -0.756856,0.133166 -0.5667,0.105562 2.205044,-0.320087 5.111298,3.063607 6.643726,4.210249 0.226245,0.169288 0.474413,0.07875 0.48114,0.417803 0.01308,0.659302 -0.385774,1.480841 -0.502252,2.136793 -0.237619,1.338168 -0.2113,2.75907 -0.571145,4.068018 -0.485313,1.765347 -2.097396,4.51263 -1.053396,6.289262 0.508787,0.86583 1.489124,0.01086 2.031232,-0.412247 1.976468,-1.542609 4.556615,-4.575055 6.082582,-6.639282 0.129072,-0.1746 1.152175,-2.01226 1.243407,-1.983451 0.296033,0.09349 0.467464,0.649243 0.713375,0.846717 0.746272,0.599276 1.732442,0.900253 2.496812,1.517868 1.24983,1.009859 2.41052,2.238682 3.76023,3.11574 1.19431,0.776081 2.7138,1.0021 3.93578,1.740103 0.41833,0.252645 1.87689,1.519715 2.38014,1.348968 0.66318,-0.225006 -0.18631,-2.583063 -0.32779,-2.983509 -0.70794,-2.003777 -1.595,-4.28474 -2.84573,-6.029246 -0.81973,-1.143357 -1.83462,-2.155104 -2.50237,-3.374644 -0.34659,-0.633003 1.05457,-1.042949 1.51343,-1.233407 1.0432,-0.433005 2.21796,-0.719151 3.35353,-0.523364 1.01288,0.174634 1.34239,0.518717 2.39014,0.101117 0.21052,-0.08391 2.10138,-0.98244 1.809,-1.465642 -0.27667,-0.457222 -0.33635,-0.969822 -0.7356,-1.370081 -1.62146,-1.625519 -4.22358,-1.451471 -6.34149,-1.67121 -1.22355,-0.126947 -2.50977,0.352414 -3.48576,-0.608925 -0.8527,-0.839891 -1.312,-2.286037 -2.00901,-3.267971 -0.28994,-0.408462 -0.88549,-0.799351 -1.09562,-1.237851 -0.39355,-0.82124 -1.59558,-4.042683 -3.041291,-3.422425 -0.92727,0.397829 -1.498888,2.495518 -1.877889,3.316863 -1.066432,2.311097 -2.145814,4.562574 -3.595769,6.653727 z"
       id="path6168" />
    <path
       style="fill:#143b14;fill-opacity:1"
       d="m 72.268721,157.70155 c -0.007,0.43188 0.01004,0.86483 -0.02111,1.29564 -0.03176,0.43926 -0.373924,0.9937 -0.454472,1.45453 -0.150267,0.8597 -0.01524,1.78617 -0.338909,2.61349 -0.52638,1.34546 -1.550347,2.44149 -2.322359,3.65466 -1.445633,2.2717 -2.675483,4.69555 -3.664662,7.20487 -1.22475,3.1069 -1.393898,6.50357 -2.671269,9.60501 -1.272049,3.08851 -3.505851,7.11676 -3.866895,10.44173 -0.324157,2.98525 1.996802,2.6208 3.729109,3.798 1.040272,0.70693 1.619004,1.16348 2.930174,1.32786 0.472845,0.0593 1.325154,0.49859 1.67121,0 0.498245,-0.71787 0.762561,-1.8348 1.078952,-2.64016 0.5348,-1.36131 1.177231,-2.66492 1.481199,-4.10469 0.64229,-3.04225 0.764986,-6.62396 2.216798,-9.43055 0.397925,-0.76926 1.289334,-2.9286 2.28458,-1.59788 0.533808,0.71375 0.102528,2.5863 0.04222,3.3802 -0.301721,3.97223 -1.574567,7.76645 -1.835664,11.75848 -0.09499,1.4524 0.04068,2.94846 -0.105562,4.39026 -0.119726,1.18036 -0.702143,2.24274 -0.676706,3.45353 0.109398,5.20737 0.200537,10.57616 -0.153343,15.77872 -0.66179,9.7293 -1.25352,19.45008 -1.560092,29.19728 -0.02691,0.85549 0.01508,1.73144 -0.09556,2.58126 -0.178766,1.37305 -1.371678,4.07976 -0.168899,5.21587 1.599415,1.51076 7.158666,-0.61337 9.334997,-0.61337 1.410817,0 2.653344,0.6321 4.00357,0.88783 1.283401,0.24307 2.818623,0.34326 4.114688,0.31779 1.515574,-0.0298 1.530627,-0.35509 1.745659,-1.86677 0.168406,-1.18391 0.422907,-2.35753 0.730043,-3.51243 0.742079,-2.79038 1.256636,-5.62194 1.776772,-8.45828 0.492077,-2.68333 1.285124,-5.30202 1.58676,-8.02381 0.42275,-3.81464 0.765137,-7.41099 1.830109,-11.12844 0.243911,-0.8514 0.505132,-3.09586 0.96339,-3.76133 0.517467,-0.75145 2.132231,0.50747 2.723495,0.56115 0.868389,0.0788 1.618176,-0.0332 2.470146,-0.0422 1.29301,-0.0137 2.55426,0.22363 3.87134,0.16334 2.92937,-0.13409 5.88622,-0.61751 8.82275,-0.81449 0.7374,-0.0495 2.17963,-0.34972 2.8135,0.21668 0.28886,0.25812 -0.91302,6.66401 -0.92562,7.78157 -0.0311,2.76392 -0.20466,5.5839 -0.0633,8.34605 0.0968,1.89157 0.55486,3.72353 0.71448,5.60144 0.19808,2.3303 0.26581,4.65756 0.57115,6.97708 0.21522,1.6349 0.48411,6.57914 1.93567,7.53712 1.0024,0.66154 6.26008,0.35806 7.67934,0.15889 0.9512,-0.13348 1.77704,-0.63865 2.75572,-0.74004 2.46921,-0.2558 6.21498,-0.38318 8.37272,-1.87789 1.82039,-1.26102 1.29531,-6.64781 1.22674,-8.48494 -0.0936,-2.50885 0.0662,-5.03316 -0.14223,-7.53712 -0.22046,-2.64835 -0.60184,-5.20263 -0.61337,-7.87046 -0.004,-0.86753 0.16212,-1.71611 0.18001,-2.58127 0.0695,-3.35959 -0.0627,-6.70013 0.10556,-10.06059 0.0438,-0.87523 0.25655,-1.73586 0.25335,-2.61349 -0.0121,-3.30716 -0.32676,-6.56989 -0.28002,-9.87503 0.0246,-1.73733 -0.63283,-3.54293 -0.97339,-5.23142 -0.11852,-0.58764 -0.0674,-1.1827 -0.12112,-1.77677 -0.18386,-2.03159 -0.58097,-4.00463 -0.62448,-6.05703 -0.0698,-3.29286 -0.77714,-7.02168 0.13223,-10.22393 0.0839,-0.29546 0.2454,-1.59225 0.61893,-1.74011 0.54875,-0.21721 2.0025,3.11244 2.11012,3.49132 0.39736,1.39886 1.31893,1.5491 1.78789,2.6546 0.26862,0.63325 0.23646,1.44998 0.36557,2.12679 0.80845,4.23801 1.12137,6.86738 5.78034,4.50138 0.77468,-0.39341 1.32153,-0.8846 1.84567,-1.5712 0.68046,-0.89138 1.60223,-1.50526 2.3757,-2.31125 1.79615,-1.87166 0.23982,-3.33202 -0.26446,-5.48588 -0.32254,-1.37758 -0.99099,-2.382 -1.60343,-3.60688 -0.81438,-1.62875 -1.18871,-3.36924 -2.2268,-4.89807 -1.23727,-1.82215 -2.62464,-3.49274 -3.42687,-5.59144 -0.39366,-1.02984 -0.35148,-2.3434 -0.49225,-3.43243 -0.078,-0.60353 -0.39272,-1.11971 -0.4967,-1.71343 -0.10687,-0.61024 -0.0435,-1.21122 -0.18556,-1.82011 -0.17342,-0.74342 -0.65715,-1.37971 -0.80894,-2.12123 -0.14302,-0.69866 -0.20314,-1.60672 -0.71893,-2.17347 -0.72612,-0.79785 -1.57013,-0.37674 -2.37014,0.0633 -1.85924,1.02276 -4.19909,1.15829 -6.22037,1.76677 -3.17715,0.95644 -6.26818,2.13771 -9.48834,2.95684 -0.82929,0.21096 -1.6919,0.2076 -2.52237,0.41225 -2.35089,0.57932 -4.55971,1.58748 -6.93486,2.03123 -1.55515,0.29056 -3.01808,-0.59231 -4.51693,-0.41225 -1.51571,0.18209 -3.05078,0.88463 -4.59583,0.66671 -1.41227,-0.19919 -2.27237,-1.14839 -3.5491,-1.5712 -2.998886,-0.99314 -5.748547,-2.27952 -8.901636,-2.78795 -2.6104,-0.42091 -5.283654,-0.2992 -7.876021,-0.95672 -1.293886,-0.32817 -2.29685,-1.19531 -3.543543,-1.65121 -1.094022,-0.40007 -2.436621,-0.44636 -3.585768,-0.65004 -1.159304,-0.20548 -2.366494,0.15348 -1.866777,-1.40119"
       id="path8818" />
    <path
       style="fill:#141414;fill-opacity:1"
       d="m 144.98969,195.36045 c 0.80375,-0.64708 1.56393,-1.35236 2.41125,-1.94123 1.05011,-0.72978 2.25602,-1.24835 3.39021,-1.83566 0.57,-0.29516 1.09462,-0.97977 1.72454,-1.12118 0.16486,-0.037 0.51623,1.15019 0.54003,1.2323 0.6642,2.29149 2.75321,6.38574 0.96228,8.61717 -0.31169,0.38837 -2.79778,1.25263 -3.25797,1.0834 -0.97759,-0.3595 -1.6107,-1.75086 -2.60237,-2.26347 -1.50037,-0.77555 -2.35422,-2.38928 -3.16797,-3.77133 z"
       id="path9027" />
    <path
       style="fill:#141414;fill-opacity:1"
       d="m 58.861261,195.93715 c 0.419284,0.11816 0.844914,0.21575 1.257852,0.35447 0.961337,0.32293 1.808987,1.26075 2.745718,1.66009 0.556945,0.23744 1.256417,0.21498 1.750104,0.59337 0.429416,0.32914 0.668558,0.79877 1.09562,1.11562 0.188632,0.13996 0.65531,0.18147 0.766712,0.36003 0.397381,0.63692 0.203999,1.94863 0.01,2.61793 -0.254875,0.87932 -1.008559,1.41498 -1.458975,2.17346 -0.755769,1.27269 -1.303915,3.08705 -2.406809,4.1158 -1.315371,1.22694 -2.956587,0.92381 -3.449093,-0.88894 -0.665913,-2.45101 -0.950072,-4.98262 -1.35897,-7.48378"
       id="path9472" />
    <path
       style="fill:#cccc11;fill-opacity:1"
       d="m 118.8137,259.05422 c 2.56878,-1.29941 5.36542,-1.75603 7.94936,-2.98796 1.27639,-0.60853 2.92592,-0.78245 4.34248,-0.77226 0.76351,0.005 1.41631,0.48306 2.23124,0.34891 1.55643,-0.25622 3.30509,-1.48516 4.89807,-0.66671 1.90253,0.97749 -0.11304,10.77299 -1.51231,12.31406 -3.03988,3.34794 -4.48704,1.9046 -7.70157,3.26353 -2.1321,0.90133 -4.90048,1.46211 -6.16148,-1.01006 -0.59223,-1.16107 -1.38403,-2.24755 -1.899,-3.44354 -0.78843,-1.83109 -1.19739,-3.77942 -1.99345,-5.62255"
       id="path9474" />
    <path
       style="fill:#cccc11;fill-opacity:1"
       d="m 70.269714,257.233 c 2.669317,1.12422 4.73477,-0.74734 7.182647,-0.92005 1.825219,-0.12879 5.415548,-0.42998 7.123755,0.31113 0.492258,0.21356 0.926251,0.56138 1.417862,0.77226 0.409899,0.17583 0.724071,0.19371 0.988947,0.61893 0.995169,1.59761 0.822253,3.25372 0.497807,5.00474 -0.838418,4.5249 -3.584783,6.85691 -7.843797,7.90158 -0.955685,0.23441 -1.974927,1.10133 -3.041291,0.71448 -0.96307,-0.34937 -1.356018,-1.19924 -2.004563,-1.889 -0.569787,-0.60598 -1.416434,-1.16035 -1.920114,-1.79788 -1.568202,-1.98493 -1.853199,-5.80484 -2.19013,-8.12937"
       id="path9683" />
  </g>
  <g
     inkscape:groupmode="layer"
     id="layer4"
     inkscape:label="Layer 4">
    <path
       style="fill:#000000"
       id="path261"
       d="m 40.020098,90.21914 c -0.240362,-0.708928 -0.64669,-1.342577 -1.062712,-1.961406 -0.776224,-0.892413 -1.652805,-1.693125 -2.495303,-2.522246 -0.93684,-0.899217 -1.743042,-1.910575 -2.454143,-2.993884 -0.674125,-1.004914 -1.059554,-2.129755 -1.291172,-3.307373 -0.107985,-0.669834 -0.206439,-1.354769 0.222749,-1.922409 0.837133,-0.655298 1.882413,-1.026317 2.859728,-1.424717 1.478803,-0.507901 2.965423,-1.100829 4.511187,-1.382108 0.378006,-0.06879 0.762714,-0.09352 1.144071,-0.14028 2.181288,-0.160236 4.29151,-0.820609 6.381851,-1.430431 1.842091,-0.550836 3.684095,-1.104897 5.554847,-1.550601 1.795858,-0.399393 3.628201,-0.587642 5.457469,-0.753975 2.023143,-0.16457 4.047178,-0.320959 6.072273,-0.459827 1.602931,-0.177101 3.208912,-0.03268 4.814388,-0.03808 0.929419,-0.0031 1.646109,-0.04907 2.576049,-0.09462 2.636647,-0.09941 5.239789,-0.513951 7.829621,-0.990537 2.447447,-0.537073 4.873543,-1.163841 7.320067,-1.704488 2.038291,-0.488367 4.129568,-0.521587 6.212449,-0.523404 2.240511,0.0043 4.475458,0.174684 6.709533,0.324606 2.75576,0.19596 5.51715,0.273698 8.27763,0.367066 2.94949,0.136359 5.89614,0.334371 8.84259,0.525366 3.02415,0.250324 6.04742,0.512153 9.07105,0.770031 2.91258,0.288002 5.82292,0.582733 8.74094,0.810392 2.95782,0.238724 5.89499,0.672456 8.83737,1.048366 2.94595,0.373943 5.87931,0.837665 8.81585,1.277441 2.64476,0.363179 5.25655,0.906439 7.83852,1.578812 2.04258,0.540916 4.01894,1.292548 5.98866,2.049575 1.5875,0.672154 3.23981,1.148095 4.89859,1.603927 1.4853,0.402218 2.97196,0.817318 4.35487,1.501668 1.77098,1.101768 -0.61221,-0.389178 -3.17549,-1.776623 -0.14128,-0.07647 0.26104,0.241366 0.26592,0.40194 0.008,0.249532 -0.1659,0.42484 -0.29208,0.616599 -1.41398,1.374929 -2.98322,2.584915 -4.46011,3.894231 -1.23615,1.104705 -2.43191,2.258136 -3.5715,3.462656 -0.23599,0.249425 -0.53872,0.455208 -0.69344,0.761742 -0.13589,0.269235 -0.0947,0.595692 -0.14203,0.893538 0.54497,1.216951 0.25501,0.679692 0.83332,1.630984 0,0 0.13087,0.07569 0.13087,0.07569 v 0 c 1.14019,0.05194 0.49878,0.03486 1.92468,0.03053 0.31522,-0.131138 0.66699,-0.196167 0.94565,-0.393413 0.2771,-0.196146 0.45235,-0.506388 0.6806,-0.757708 1.10376,-1.215319 2.26344,-2.378013 3.50375,-3.455148 0.77116,-0.653716 1.13475,-0.978795 1.93016,-1.588287 0.78281,-0.599838 1.63369,-1.120702 2.3905,-1.754044 0.17186,-0.14382 0.32643,-0.307109 0.48965,-0.460664 0.25779,-0.337147 0.4172,-0.460843 0.50988,-0.873107 0.0415,-0.18476 0.0681,-0.620555 -0.14496,-0.760564 -2.7979,-1.838627 -2.92758,-1.890312 -4.68034,-2.771838 -1.40074,-0.587013 -2.86787,-0.983074 -4.32863,-1.390781 -1.63149,-0.456633 -3.25042,-0.95367 -4.82052,-1.595607 -1.95431,-0.738045 -3.92214,-1.450223 -5.95181,-1.95612 -2.55655,-0.616397 -5.14266,-1.085421 -7.74609,-1.457473 -2.92947,-0.439827 -5.86146,-0.862006 -8.79771,-1.254289 -2.94455,-0.395306 -5.8906,-0.785685 -8.852,-1.034787 -2.9113,-0.255317 -5.82126,-0.523977 -8.73039,-0.802869 -3.02423,-0.246658 -6.04625,-0.519219 -9.07085,-0.761158 -2.95416,-0.199931 -5.90897,-0.394972 -8.86705,-0.527725 -2.77995,-0.104061 -5.562112,-0.188031 -8.334696,-0.427912 -2.255534,-0.17455 -4.513791,-0.342041 -6.777689,-0.336295 -2.09973,2.89e-4 -4.198786,0.1073 -6.246457,0.617456 -2.411181,0.580354 -4.790211,1.301355 -7.233553,1.741862 -2.57291,0.474647 -5.165383,0.865698 -7.784744,0.950707 -2.380098,0.08006 -4.755176,0.182642 -7.131919,0.332017 -2.038431,0.142566 -4.078016,0.272093 -6.114321,0.44238 -1.832696,0.185735 -3.671979,0.37436 -5.464832,0.815251 -1.861735,0.45714 -3.691229,1.01615 -5.517191,1.599257 -1.004662,0.299449 -2.010437,0.585352 -3.028243,0.837453 -0.693015,0.171654 -1.401436,0.284873 -2.084284,0.493328 -0.300698,0.0918 -0.585849,0.228391 -0.878773,0.342586 -1.786081,0.662221 -3.686705,0.979259 -5.452308,1.715739 -1.070289,0.394652 -2.25372,0.709152 -3.133705,1.463216 -0.487651,0.684118 -0.42184,1.417967 -0.24016,2.214497 0.25819,1.205703 0.58792,2.389292 1.279549,3.429471 0.711469,1.107741 1.505436,2.157577 2.462047,3.068595 0.886157,0.883815 1.858008,1.671716 2.717354,2.582016 0.632192,0.669672 1.195692,1.381069 1.669513,2.173793 0,0 1.98541,0.892015 1.98541,0.892014 z" />
    <path
       style="fill:#000000"
       id="path263"
       d="m 39.691657,89.698044 c 0.997724,-0.572409 2.023614,-1.094938 3.050135,-1.613388 1.823894,-0.982459 3.703608,-1.829233 5.670466,-2.478598 2.260258,-0.635369 4.581406,-1.018963 6.879922,-1.487818 2.078015,-0.436853 4.159914,-0.857258 6.21027,-1.411909 1.881601,-0.597629 3.743766,-1.246202 5.645506,-1.778864 0.969665,-0.205072 1.940383,-0.517038 2.932059,-0.608825 0.812334,-0.07519 1.632383,-0.01321 2.446566,-0.06465 0.364211,-0.02301 0.726017,-0.07493 1.089026,-0.112398 2.301715,-0.221495 4.598646,-0.488492 6.900829,-0.70472 2.421691,-0.189469 4.844872,-0.360491 7.268235,-0.527726 2.359951,-0.171255 4.719482,-0.348886 7.079903,-0.513492 2.221114,-0.159942 4.449865,-0.125157 6.674766,-0.100068 2.07198,0.04417 4.14322,0.116799 6.21441,0.188452 2.20438,0.07911 4.40757,0.185618 6.61043,0.298734 2.37975,0.119535 4.75157,0.353067 7.12263,0.58249 2.14126,0.19149 4.27534,0.453378 6.40447,0.74897 1.82958,0.28366 3.66619,0.508702 5.50806,0.693883 1.73005,0.154169 3.43759,0.477095 5.14958,0.759292 1.54867,0.241619 3.09801,0.478885 4.64732,0.716367 1.57254,0.236696 3.15349,0.409609 4.72999,0.616297 1.45536,0.152443 2.87154,0.501381 4.27326,0.907745 1.47171,0.392541 2.92659,0.841097 4.37093,1.323745 1.23437,0.41553 2.48432,0.781285 3.71508,1.20764 1.19409,0.431796 2.41927,0.765983 3.63852,1.117084 1.09326,0.331501 2.19328,0.638537 3.29636,0.935389 -0.0854,-0.390513 -0.0108,-0.193971 -0.24867,-0.579568 0,0 -0.11941,-0.09273 -0.11941,-0.09273 v 0 c -1.24967,-0.742373 -0.60996,-0.38061 -1.92021,-1.083388 -1.08648,-0.288651 -2.17029,-0.586459 -3.24842,-0.905185 -1.22298,-0.350543 -2.44593,-0.70304 -3.64235,-1.137989 -1.22088,-0.412839 -2.46045,-0.7663 -3.68196,-1.177431 -1.44822,-0.466938 -2.90684,-0.897096 -4.37129,-1.310295 -1.40626,-0.396278 -2.82788,-0.723331 -4.28577,-0.863519 -1.57818,-0.188226 -3.15755,-0.369851 -4.72703,-0.623077 -1.5422,-0.231446 -3.08426,-0.463888 -4.62528,-0.703106 -1.70497,-0.269258 -3.40652,-0.572656 -5.12759,-0.723243 -1.8246,-0.191681 -3.64577,-0.410204 -5.4621,-0.669681 -2.11725,-0.269703 -4.23593,-0.530298 -6.36358,-0.705413 -2.37327,-0.209509 -4.74611,-0.427275 -7.12454,-0.571431 -2.21416,-0.124196 -4.42974,-0.219734 -6.64515,-0.318568 -2.06356,-0.07854 -4.12815,-0.142497 -6.193117,-0.164276 -2.223472,-0.01804 -4.450265,-0.04956 -6.668836,0.130755 -2.353053,0.179534 -4.706224,0.357728 -7.060005,0.527432 -2.422669,0.181993 -4.847705,0.331317 -7.268766,0.534236 -2.313703,0.218327 -4.625505,0.457169 -6.938438,0.683413 -0.357248,0.04286 -0.717652,0.06468 -1.071745,0.128568 -1.379885,0.248966 -0.512722,0.198354 -1.834127,0.508771 -0.979591,0.230121 -2.001085,0.300212 -2.965416,0.607821 -1.898889,0.520796 -3.735327,1.225114 -5.618831,1.795665 -2.025149,0.545059 -4.06909,1.016933 -6.118192,1.462883 -2.308936,0.485826 -4.644571,0.858244 -6.921961,1.4826 -1.991737,0.650447 -3.878231,1.545306 -5.769696,2.441302 -1.085434,0.506169 -2.173821,1.010878 -3.290458,1.444995 0,0 1.784215,1.186826 1.784215,1.186827 z" />
    <path
       style="fill:#000000"
       id="path265"
       d="m 42.317372,73.845818 c -0.177871,-0.740042 -0.479204,-1.489695 -0.525326,-2.256109 -0.01349,-0.224171 0.04075,-0.447625 0.04637,-0.672131 0.0063,-0.25335 -0.007,-0.506811 -0.01053,-0.760216 -0.257971,-1.714211 -0.580439,-3.418562 -0.973281,-5.106856 -0.397303,-1.598987 -0.830596,-3.188964 -1.255603,-4.780806 -0.441853,-1.725753 -0.8669,-3.455733 -1.296868,-5.184473 -0.429094,-1.722695 -0.815547,-3.455703 -1.155423,-5.198133 -0.341219,-1.524405 -0.238907,-3.040891 0.07377,-4.554128 0.283474,-1.369075 0.89561,-2.60856 1.603959,-3.80034 0.977625,-1.581804 2.345959,-2.781531 3.880258,-3.796865 1.288174,-0.936517 2.601218,-1.136137 4.091736,-1.497405 0.647461,-0.15693 1.28373,-0.357333 1.929494,-0.521107 2.079254,-0.459267 4.16544,-0.879859 6.227924,-1.411155 1.718509,-0.477888 3.419571,-1.003516 5.165428,-1.37464 1.437371,-0.293335 2.90942,-0.261811 4.36474,-0.3975 1.416009,-0.182203 2.780708,-0.608829 4.15191,-0.98807 1.567741,-0.427146 3.14173,-0.831864 4.724337,-1.200181 1.87248,-0.432149 3.754774,-0.819742 5.636216,-1.210497 2.273343,-0.505116 4.561308,-0.935233 6.861288,-1.298477 2.685942,-0.4286 5.391924,-0.698538 8.105288,-0.870102 3.207092,-0.19728 6.418861,-0.284444 9.631421,-0.235432 3.2578,0.06502 6.50564,0.33347 9.74626,0.658006 3.0124,0.319443 6.02466,0.640595 9.03589,0.971086 3.02616,0.32746 6.03908,0.756258 9.0426,1.247263 3.1313,0.51561 6.23018,1.19704 9.31189,1.949703 3.00611,0.740628 5.97662,1.612889 8.93363,2.52747 2.66031,0.81891 5.33061,1.605113 7.9531,2.540002 2.15181,0.787153 4.30914,1.558387 6.4388,2.404243 1.80429,0.575846 7.84732,4.091029 0.76472,0.05365 1.1634,0.730694 2.18216,1.658576 3.10674,2.668588 0.72846,0.828789 1.23652,1.720622 1.27429,2.831587 -0.21236,1.612337 -1.00715,3.087794 -1.68906,4.543999 -1.32286,2.821676 -2.36556,5.767189 -3.3487,8.721438 -0.90909,2.664004 -1.28648,5.457689 -1.71565,8.226972 -0.31946,1.838212 -0.69499,3.666425 -1.07544,5.492869 -0.13631,0.621078 -0.28221,1.376477 0.12965,1.947496 0.25159,0.348822 0.61365,0.604126 0.89456,0.929808 0.18251,0.211607 0.32836,0.45226 0.49253,0.67839 0,0 0.1327,0.07243 0.1327,0.07243 v 0 c 0.23453,-0.01487 0.46863,-0.0494 0.70358,-0.04461 0.34851,0.0071 0.69897,0.1383 1.04267,0.08016 0.57256,-0.09686 0.57404,-1.139148 0.65702,-1.501245 0.32622,-1.867612 0.6581,-3.734903 0.88321,-5.618236 0.36883,-2.771871 0.7341,-5.552104 1.54185,-8.239199 0.91066,-2.955276 2.02152,-5.839431 3.50959,-8.558081 0.76972,-1.481024 1.67867,-2.942867 2.02157,-4.595292 0.0772,-1.408182 -0.35178,-2.077066 -1.1924,-3.174924 -0.92043,-1.055098 -1.94382,-2.024605 -3.10414,-2.81445 -2.79345,-1.62166 -5.50658,-3.338671 -8.54435,-4.461777 -2.05237,-0.796055 -4.11952,-1.561349 -6.22448,-2.20771 -2.58918,-0.791716 -5.17086,-1.60817 -7.76563,-2.381701 -2.95354,-0.884277 -5.91201,-1.756754 -8.90986,-2.480664 -3.0933,-0.742616 -6.20401,-1.420459 -9.34401,-1.936459 -3.01615,-0.484821 -6.04147,-0.919279 -9.07889,-1.248565 -2.99907,-0.320916 -6.00027,-0.621913 -8.99986,-0.938087 -3.23176,-0.292747 -6.47015,-0.537398 -9.71584,-0.595268 -3.234388,-0.01954 -6.467981,0.0399 -9.697748,0.224295 -2.737996,0.192549 -5.474062,0.435839 -8.187893,0.855856 -2.321121,0.377392 -4.631828,0.813762 -6.939657,1.26492 -1.904411,0.38618 -3.811226,0.761416 -5.710475,1.172376 -1.599396,0.374743 -3.201801,0.740751 -4.784944,1.180358 -1.355601,0.383765 -2.720651,0.767593 -4.126762,0.911928 -1.456438,0.126723 -2.9312,0.117406 -4.35987,0.469699 -1.712353,0.417567 -3.382343,0.981049 -5.081728,1.44699 -2.058192,0.535813 -4.141978,0.949613 -6.215294,1.420569 -0.469287,0.125471 -1.4698,0.372442 -1.91886,0.573823 -0.472227,0.21177 -1.176569,0.741134 -1.622271,0.989677 -0.313299,0.174708 -0.647931,0.308494 -0.965482,0.47535 -0.312253,0.164072 -0.615511,0.344722 -0.923267,0.517084 -1.577838,1.048124 -2.980413,2.26834 -4.023036,3.872301 -0.799365,1.194764 -1.433774,2.460681 -1.690987,3.890297 -0.317744,1.565539 -0.42248,3.131605 -0.06415,4.707065 0.348012,1.746201 0.712007,3.490567 1.152571,5.216064 0.443422,1.72569 0.882557,3.452336 1.295198,5.185721 0.402488,1.605636 0.884619,3.189759 1.295317,4.793388 0.416386,1.684746 0.770558,3.382871 1.020666,5.101043 0.161477,0.577339 0.383372,1.13705 0.535345,1.716964 0.190518,0.726993 0.172941,1.505019 0.388493,2.228784 0,0 2.439189,1.151187 2.439189,1.151187 z" />
    <path
       style="fill:#000000"
       id="path267"
       d="m 91.562866,38.983065 c -1.013562,0.135678 -2.0375,0.04427 -3.051974,-0.02871 -1.110998,-0.0525 -2.196163,-0.337938 -3.310263,-0.255083 -0.610926,0.07875 -1.169821,0.349505 -1.766989,0.482497 -0.388771,0.02971 -0.772155,0.02508 -1.158452,0.0929 -0.483941,0.05667 -0.832461,0.284654 -0.70524,0.828434 2.15029,1.799178 4.348229,2.456442 6.701849,3.534384 1.042793,0.504243 2.085576,1.007989 3.114834,1.539406 0.733364,0.415463 1.501565,0.746627 2.322808,0.936983 1.809313,0.430084 5.315879,2.895415 -3.329286,-2.145148 0.390413,-0.245061 -0.555412,1.043086 -0.564604,1.056463 -0.666962,1.06025 -1.190525,2.202913 -1.685675,3.351035 -0.462434,1.113138 -0.834441,2.259948 -1.238398,3.394725 -0.364953,0.936735 -0.650538,1.895497 -0.858069,2.878249 -0.117142,0.724007 -0.318724,1.435378 -0.39298,2.165922 0.01339,2.068319 1.755612,1.555535 4.638998,3.084319 0.109876,0.05826 0.757263,-0.372804 0.835405,-0.416783 1.154816,-0.639072 2.265424,-1.34753 3.321912,-2.137905 1.275627,-0.951924 2.481619,-1.989824 3.621934,-3.099148 0.9123,-0.89986 1.762858,-1.856453 2.534274,-2.87914 0.44577,-0.501948 0.76306,-1.2927 1.41358,-1.57391 0.17524,0.04865 0.28462,0.191729 0.40839,0.315659 -1.38959,-0.793276 -2.767125,-1.608057 -4.168773,-2.379829 -0.119216,-0.06564 0.214311,0.168074 0.316057,0.258458 0.127028,0.112844 0.246538,0.233878 0.369807,0.350817 0.929067,0.929695 1.869709,1.847216 2.826699,2.74812 0.93453,0.884565 1.8598,1.778877 2.79915,2.658337 0.73932,0.669421 1.4517,1.367521 2.17957,2.04913 1.7786,1.646161 4.01031,2.62032 6.10503,3.827116 0.76976,0.432193 0.72189,-0.55217 0.64419,-1.040625 -0.18439,-1.029051 -0.40807,-2.050503 -0.64887,-3.067659 -0.22702,-1.072054 -0.61231,-2.092784 -1.05231,-3.092396 -0.45916,-1.022372 -1.03014,-1.98794 -1.54702,-2.980983 -0.40649,-0.789992 -0.79068,-1.590478 -1.16752,-2.394827 -0.21028,-0.434672 -0.45984,-0.848315 -0.69403,-1.270117 0.18305,0.143603 0.91803,0.01278 1.19627,-0.0046 1.16577,-0.03729 2.32365,-0.143009 3.47475,-0.328661 1.03321,-0.184232 2.01358,-0.562811 2.97827,-0.964327 0.59312,-0.272616 1.22863,-0.511818 1.70698,-0.96974 0.36854,-0.463863 0.18566,-0.826329 -0.22171,-1.157623 -1.99811,-1.547537 -4.22398,-2.807449 -6.50765,-3.884215 -0.87968,-0.351734 -1.80406,-0.583425 -2.72754,-0.788485 -0.74152,-0.15514 -1.49659,-0.219925 -2.23764,-0.376562 -0.73388,-0.206567 -1.48928,-0.302354 -2.24399,-0.394165 -0.37098,-0.04465 -0.76676,-0.06044 -1.08646,-0.278551 -0.0667,-0.04551 -0.25479,-0.196729 -0.18454,-0.156921 1.47939,0.838292 2.94369,1.702935 4.41553,2.554403 -0.5576,-0.428637 -0.74268,-1.178876 -0.96855,-1.8136 -0.38875,-1.078311 -0.76941,-2.160827 -1.22411,-3.213442 -0.3493,-0.760373 -0.81795,-1.454266 -1.32944,-2.11317 -0.33668,-0.406739 -0.71337,-0.780647 -1.11523,-1.122765 -1.6128,-1.204176 -0.47978,-0.368055 -4.92372,-2.856628 -0.303452,-0.169931 -0.595302,0.381205 -0.697732,0.555099 -0.363849,0.889168 -0.850358,1.713192 -1.347498,2.532124 -0.753288,1.18457 -1.540003,2.346496 -2.241621,3.562966 -0.292677,0.694468 -1.31965,2.445698 -1.167811,3.176131 0.05031,0.242042 0.208351,0.448391 0.312526,0.672586 1.243483,1.090548 1.082592,0.515508 1.220427,1.311322 0,0 0.129548,0.07793 0.129548,0.07793 v 0 c 0.856206,-0.153621 0.231421,-0.09549 1.839537,0.399656 0.219176,-0.04847 0.462968,-0.03345 0.657527,-0.145398 0.542441,-0.312131 0.945077,-2.378365 1.401767,-2.957269 0.69208,-1.213335 1.481139,-2.365184 2.273642,-3.514651 0.533158,-0.78538 1.029898,-1.592786 1.515858,-2.407832 0.0303,-0.02819 0.0516,-0.07137 0.0908,-0.08458 0.0512,-0.01723 0.0678,0.08454 0.10769,0.120939 0.0345,0.03148 0.15551,0.103224 0.11503,0.07994 -4.686459,-2.695384 -6.00354,-3.335203 -4.28651,-2.494451 0.455156,0.262338 0.817977,0.637421 1.1876,1.006461 0.56822,0.613084 1.068356,1.291223 1.477348,2.020817 0.500002,1.015782 0.867572,2.086689 1.235182,3.156218 0.21816,0.687228 0.37161,1.412571 0.73946,2.039479 2.79797,1.668432 3.61731,2.871206 6.14444,3.089863 0.74468,0.08882 1.47448,0.245652 2.20574,0.410088 0.73755,0.123339 1.48085,0.213601 2.21168,0.37549 0.87974,0.187856 1.75823,0.40866 2.56153,0.826866 1.78949,0.960835 0.54374,0.297678 -3.64472,-2.129165 -0.88638,-0.513575 0.79459,0.488063 0.95582,0.610218 0.0789,0.05975 0.15475,0.123344 0.23212,0.185015 0.0952,0.07494 0.22443,0.190412 0.34327,0.238409 0.0164,0.0066 0.28774,0.01652 0.29165,0.03387 0.006,0.02486 -0.0213,0.04632 -0.0319,0.06948 -0.42186,0.407042 -0.98812,0.616069 -1.50637,0.869578 -0.91877,0.391514 -1.85839,0.74391 -2.84991,0.900658 -1.15343,0.177107 -2.31449,0.23376 -3.47998,0.271084 -0.62436,0.0493 -1.40185,0.06091 -1.61244,0.777607 0.0374,0.546591 0.49171,0.946691 0.71917,1.427057 0.43279,0.806758 0.80835,1.643429 1.25711,2.442182 0.51066,0.989364 1.05899,1.958194 1.55535,2.95472 0.44974,0.977905 0.86597,1.97543 1.12774,3.022462 0.22508,0.981406 0.43357,1.968952 0.56032,2.968507 0.0235,0.256675 0.0399,0.45834 0.0493,0.459448 0.46074,0.05413 -0.10846,-0.496688 -0.19028,-0.424754 7.85125,4.542658 4.17549,2.650664 2.62481,1.336795 -0.75871,-0.681206 -1.48593,-1.396371 -2.24661,-2.075525 -0.96627,-0.874618 -1.9035,-1.779524 -2.85043,-2.674829 -0.93901,-0.873824 -1.86974,-1.756215 -2.74562,-2.694266 -1.63403,-1.760943 -1.58533,-1.313348 -5.264584,-3.414725 -0.243698,-0.139186 -0.529836,-0.0068 -0.736147,0.120361 -0.573657,0.50293 -0.915447,1.200301 -1.369331,1.803713 -0.740926,1.005913 -1.529373,1.977006 -2.412114,2.863324 -1.109908,1.10253 -2.27677,2.14304 -3.555025,3.049584 -1.093396,0.743113 -2.230064,1.420063 -3.452731,1.931494 -0.147464,0.04797 -0.38304,0.152504 -0.558032,0.125964 -0.04845,-0.0073 -0.169692,-0.09807 -0.127585,-0.07301 1.446661,0.860932 2.894176,1.720428 4.341264,2.580641 -0.18993,0.01296 -0.120226,0.05144 -0.215032,-0.104023 -0.112208,-0.705927 0.148558,-1.427053 0.229956,-2.123502 0.195679,-0.965926 0.467281,-1.910145 0.800687,-2.837963 0.369455,-1.134939 0.731412,-2.274662 1.183922,-3.379883 0.479606,-1.113544 0.99374,-2.223685 1.72458,-3.198698 0.395287,-0.512185 0.909908,-0.997289 1.022822,-1.65915 -2.733589,-1.628534 -3.347858,-2.481408 -5.613893,-2.989353 -0.764313,-0.2335 -1.476311,-0.588326 -2.181394,-0.961584 -1.031686,-0.513825 -2.069477,-1.015738 -3.111719,-1.507741 -1.971355,-0.878228 -6.245478,-2.878744 2.083587,1.499896 -0.382495,0.125891 -0.554264,0.420778 0.0059,0.196334 0.401213,-0.0309 0.80932,-0.01938 1.193378,-0.159971 0.531882,-0.18119 1.051983,-0.420614 1.622749,-0.445975 1.04302,-0.02394 2.077722,0.165907 3.120693,0.180877 1.013576,0.03899 2.033338,0.08438 3.038405,-0.08837 0,0 -3.830147,-2.708213 -3.830147,-2.708213 z" />
    <path
       style="fill:#000000"
       id="path270"
       d="m 82.542821,83.445406 c -1.246852,0.584871 -1.785976,1.905911 -2.309061,3.08806 -1.176645,2.259519 -1.705179,4.766345 -2.261194,7.231668 -0.583436,2.387105 -0.833797,4.833407 -1.248375,7.251116 -0.127902,1.98186 -0.146737,3.97569 0.07479,5.95085 0.19232,1.32445 0.681668,2.48256 1.755167,3.30235 3.085469,1.77338 4.210176,3.20225 6.68047,0.81345 1.298561,-1.42184 2.037105,-3.18323 2.677137,-4.97093 0.678245,-2.12953 0.989736,-4.34771 1.238546,-6.561293 0.254663,-2.32322 0.373852,-4.658092 0.258609,-6.992808 -0.09912,-1.745169 -0.593851,-3.413817 -1.198091,-5.041533 -0.376701,-0.726744 -0.790106,-2.210966 -1.490807,-2.698325 -0.3591,-0.249765 -0.762875,-0.428208 -1.144313,-0.642312 -0.302758,-0.144396 -0.605517,-0.288793 -0.908275,-0.43319 0,0 -0.140833,-0.05497 -0.140833,-0.05497 v 0 c -0.148956,-0.04366 -0.297912,-0.08733 -0.446868,-0.130993 -0.216798,-0.0504 -0.437519,-0.216206 -0.650393,-0.151198 -0.110143,0.03364 0.116003,0.199165 0.180172,0.294796 0.100762,0.150168 0.215638,0.290648 0.314336,0.44218 0.375774,0.576926 0.675718,1.198389 0.952545,1.827392 0.648304,1.607441 1.173371,3.268443 1.362306,4.999313 0.194855,2.323449 0.121525,4.646664 -0.180657,6.96022 -0.267426,2.179691 -0.559329,4.373481 -1.233613,6.471441 -0.63699,1.72278 -1.394319,3.42627 -2.714404,4.74433 -0.656036,0.54397 -1.305427,1.01984 -2.206966,0.95131 -0.185499,-0.0141 -0.699227,-0.21556 -0.547597,-0.10778 0.868384,0.61727 1.820896,1.1067 2.731344,1.66005 -1.234711,-0.68684 -1.699589,-1.71655 -2.002572,-3.06482 -0.332421,-1.97463 -0.344018,-3.97769 -0.284546,-5.97578 -0.08643,-2.51188 0.207718,-4.996229 0.761868,-7.449173 0.574043,-2.45169 1.280272,-4.86412 2.138252,-7.232503 0.53102,-1.122675 1.025485,-2.29584 2.073304,-3.027486 0,0 -2.230286,-1.453431 -2.230286,-1.453431 z" />
    <path
       style="fill:#000000"
       id="path272"
       d="m 116.53186,83.033032 c -0.46423,0.671137 -0.96674,1.352541 -1.31982,2.092918 -0.27232,0.571031 -0.48002,1.170828 -0.73428,1.75013 -1.0676,2.234603 -1.11798,4.733278 -1.27753,7.157116 -0.17558,2.618794 -0.0687,5.243762 0.0894,7.860014 0.11099,1.78632 0.33073,3.564 0.66292,5.32228 0.24743,1.27737 0.76715,2.44145 1.55582,3.46997 1.2516,1.21181 3.82159,3.37831 5.74094,2.87097 0.50515,-0.13353 0.67371,-0.29521 1.10741,-0.57886 1.51585,-1.3922 2.04745,-3.39666 2.56285,-5.31543 0.57366,-2.39215 0.8579,-4.84196 0.97741,-7.29547 0.0568,-2.488119 -0.13965,-4.970071 -0.55392,-7.421786 -0.3467,-1.804928 -0.94572,-3.542475 -1.86541,-5.133484 -0.95862,-1.602982 -2.57861,-2.062254 -4.20862,-2.791904 0,0 0.15398,0.122839 0.15398,0.122839 v 0 c -0.1308,-0.05099 -0.25961,-0.107405 -0.39239,-0.152976 -0.26034,-0.08935 -0.5148,-0.207413 -0.78647,-0.251611 -0.0479,-0.0078 0.0251,0.09831 0.0588,0.133236 0.38891,0.402836 0.89886,0.696511 1.19909,1.189079 1.05175,1.534527 1.7063,3.270652 2.12844,5.079208 0.49993,2.418439 0.7275,4.877677 0.6241,7.349384 -0.11557,2.425695 -0.34265,4.854985 -0.92981,7.217915 -0.51088,1.79267 -1.09713,3.70486 -2.63504,4.8908 -0.50702,0.25461 -0.94691,0.45971 -1.53118,0.33511 -0.16214,-0.0346 -0.60725,-0.25954 -0.467,-0.17113 4.75402,2.99724 4.18911,2.60537 2.88691,1.65197 -0.86571,-0.94418 -1.42339,-2.06125 -1.71902,-3.31104 -0.43052,-1.76265 -0.71961,-3.55735 -0.88454,-5.36454 -0.21865,-2.62066 -0.3822,-5.251104 -0.25496,-7.881693 0.16193,-2.428152 0.53127,-4.817925 0.98389,-7.207963 0.38564,-1.808858 0.004,-0.168758 0.48587,-1.858664 0.22437,-0.786369 0.36181,-1.594623 0.8065,-2.299001 0,0 -2.46441,-1.457387 -2.46441,-1.457387 z" />
    <path
       style="fill:#000000"
       id="path274"
       d="m 38.294535,88.438708 c -0.248162,1.685688 -0.05234,3.386724 -0.08691,5.082112 -0.02274,3.130357 0.172767,6.258342 0.427566,9.37686 0.228071,2.79547 0.595134,5.57683 0.913391,8.36288 0.09388,1.67375 0.507015,3.33133 0.588817,5.00468 0.01753,0.35859 -0.03406,0.71762 -0.03043,1.07662 0.0038,0.37392 0.03511,0.74706 0.05267,1.12059 0.351312,2.13899 0.778467,4.26668 1.209662,6.39093 0.462771,1.77603 1.021839,3.5259 1.63404,5.2556 0.508181,1.47442 1.183097,2.87865 1.906971,4.25681 0.740399,1.40455 1.631914,2.71958 2.521749,4.03175 0.744846,1.11205 1.504014,2.21379 2.299931,3.28993 0.573104,0.76265 1.120191,1.54499 1.734146,2.27579 0.507288,0.57012 1.069601,1.08727 1.622417,1.61218 0.54079,0.54842 1.117887,1.05659 1.706905,1.55193 0.567056,0.48188 1.136161,0.96137 1.703003,1.44351 0.593846,0.51314 1.183247,1.03109 1.79231,1.5262 1.816589,1.53218 3.918047,2.54354 5.986896,3.74268 0.746154,0.41674 1.490999,0.83298 2.256021,1.2145 0.679383,0.29609 1.318007,0.66735 1.9593,1.03551 0.551862,0.29913 1.118685,0.57157 1.703347,0.80027 0.479463,0.15067 0.931425,0.36906 1.390381,0.57033 0.393352,0.15674 0.796744,0.28499 1.19774,0.42007 0.460283,0.16073 0.894593,0.38464 1.327363,0.60687 0.382537,0.20339 0.765146,0.40417 1.168322,0.56368 0.299185,0.0932 0.609498,0.14782 0.916224,0.21154 0.373387,0.0762 0.75115,0.12193 1.130203,0.1579 0.542498,0.0293 1.07916,0.10411 1.615428,0.18738 0.666114,0.0624 1.324425,0.18091 1.985332,0.28194 0.915886,0.11305 1.811483,0.31802 2.690219,0.59597 0.885132,0.29326 1.740865,0.66503 2.592062,1.04347 0.962573,0.42819 1.963212,0.75991 2.964825,1.0826 1.163246,0.38936 2.369166,0.62179 3.565894,0.87998 1.263691,0.2963 2.537073,0.54807 3.802576,0.83604 1.360502,0.35192 2.729307,0.65774 4.112934,0.90301 1.47186,0.26082 2.94228,0.52806 4.41919,0.75892 1.55443,0.23625 3.11119,0.45347 4.67794,0.58807 1.67248,0.11822 3.34816,0.0598 5.01757,-0.0691 1.68265,-0.17364 3.35576,-0.43119 5.02318,-0.71365 1.58111,-0.27537 3.15048,-0.611 4.7167,-0.95988 1.49636,-0.32715 2.98555,-0.68793 4.45679,-1.11434 1.31896,-0.4052 2.6205,-0.86372 3.93036,-1.29701 1.25375,-0.42502 2.53156,-0.76979 3.8135,-1.0974 1.3714,-0.36762 2.70442,-0.85415 4.01798,-1.38939 1.16951,-0.46644 2.32305,-0.96739 3.43181,-1.56487 1.17866,-0.69123 2.28997,-1.49415 3.38959,-2.30372 1.15277,-0.80346 2.14638,-1.77758 3.00988,-2.88035 0.86894,-1.20811 1.60809,-2.50357 2.34465,-3.79483 0.67791,-1.19431 1.33694,-2.39851 1.96723,-3.61858 0.72789,-1.39782 1.37319,-2.83692 2.01821,-4.27429 0.6351,-1.40651 1.33451,-2.78194 2.02012,-4.16404 0.65842,-1.2869 1.14271,-2.6504 1.6665,-3.99487 0.61005,-1.61526 1.26067,-3.21475 1.89561,-4.82051 0.63016,-1.62069 1.10562,-3.29302 1.53279,-4.97658 0.4831,-1.94197 1.0073,-3.8734 1.42551,-5.83071 0.45046,-2.14054 0.91022,-4.27897 1.37114,-6.41724 0.40573,-1.88453 0.61351,-3.80228 0.90223,-5.70636 0.23664,-1.4472 0.45203,-2.89774 0.67139,-4.34762 0.20577,-1.23372 0.36794,-2.47405 0.51163,-3.716362 0.13548,-1.224873 0.13306,-2.458669 0.1577,-3.689245 0.0173,-1.088442 -0.13583,-2.168419 -0.22857,-3.250635 -0.12327,-0.581805 0.0208,-1.407082 -0.36072,-1.916613 -0.3542,-0.473023 -1.48914,-1.401612 -1.88295,-1.740752 -0.10566,-0.165291 -0.21133,-0.330582 -0.31699,-0.495873 0,0 -0.13622,-0.06556 -0.13622,-0.06556 v 0 c -0.0465,0.09111 -0.0931,0.182224 -0.1396,0.273336 -0.16731,-0.0084 -1.31258,-0.126414 -1.56363,0.05596 -0.11422,0.08297 0.12751,1.532224 0.12982,1.75969 0.0931,1.075714 0.24825,2.146519 0.28572,3.225917 -0.0115,1.216038 -0.0437,2.433976 -0.13806,3.646475 -0.14061,1.239076 -0.33846,2.470137 -0.50319,3.706123 -0.19591,1.464869 -0.36594,2.933049 -0.57643,4.395999 -0.26712,1.90703 -0.46353,3.82534 -0.82486,5.71795 -0.41498,2.14588 -0.84957,4.28867 -1.3421,6.41821 -0.49222,1.92885 -0.93847,3.86976 -1.47674,5.78654 -0.46686,1.65295 -0.94156,3.30566 -1.5421,4.91618 -0.60298,1.61567 -1.24441,3.2147 -1.9195,4.80133 -0.53638,1.32624 -1.07563,2.65144 -1.67867,3.94932 -0.65823,1.39977 -1.35105,2.78317 -1.98941,4.1922 -0.6646,1.41842 -1.33628,2.83309 -2.06842,4.21834 -0.63747,1.21014 -1.27342,2.42138 -1.932,3.62018 -0.71577,1.27393 -1.44828,2.54602 -2.32108,3.7203 -0.86596,1.04749 -1.84477,1.98124 -2.9534,2.77264 -1.0853,0.80375 -2.1906,1.58453 -3.3836,2.2231 -1.09821,0.56856 -2.22232,1.08618 -3.37009,1.54721 -1.30301,0.51896 -2.61741,1.01654 -3.98635,1.33624 -1.28846,0.33441 -2.57886,0.66609 -3.82916,1.12862 -1.29072,0.44434 -2.57818,0.9003 -3.883,1.30186 -1.46835,0.40986 -2.95251,0.75432 -4.43758,1.09767 -1.54952,0.36237 -3.10632,0.69581 -4.67726,0.95246 -1.66692,0.26531 -3.33855,0.51354 -5.02014,0.66523 -1.66017,0.11822 -3.32628,0.15568 -4.98589,-0.005 -1.56297,-0.16193 -3.11643,-0.39401 -4.67131,-0.61943 -1.478968,-0.23578 -2.949664,-0.51831 -4.424407,-0.77876 -1.384093,-0.26863 -2.752927,-0.59864 -4.122851,-0.93115 -1.272515,-0.27531 -2.546158,-0.54503 -3.813931,-0.84191 -1.196102,-0.2613 -2.391469,-0.53304 -3.551482,-0.93016 -0.995819,-0.33019 -1.98617,-0.67992 -2.938979,-1.12196 -0.858279,-0.37338 -1.724276,-0.7356 -2.626237,-0.9915 -0.900407,-0.24143 -1.81512,-0.41402 -2.736327,-0.55592 -0.664407,-0.11134 -1.329605,-0.21412 -2.00069,-0.27688 -0.533361,-0.0572 -1.068177,-0.10185 -1.600194,-0.17082 -0.381892,-0.0577 -0.761984,-0.1268 -1.136698,-0.22128 -0.290318,-0.0697 -0.58263,-0.13423 -0.849497,-0.27431 -0.379226,-0.17966 -0.748413,-0.37947 -1.126583,-0.56136 -0.449503,-0.21369 -0.903583,-0.41945 -1.38,-0.56691 -0.390714,-0.13172 -0.779529,-0.27104 -1.156165,-0.43948 -0.448025,-0.19395 -0.907612,-0.35673 -1.361282,-0.53654 -0.557813,-0.24503 -1.106102,-0.51169 -1.632384,-0.81951 -0.636914,-0.36289 -1.294664,-0.68264 -1.954312,-1.00188 -0.764116,-0.39536 -1.509518,-0.82449 -2.258171,-1.24815 6.968389,4.04254 3.392568,2.13187 1.966909,0.93224 -0.609996,-0.48753 -1.207541,-0.98928 -1.789149,-1.51049 -0.560543,-0.48129 -1.127461,-0.95512 -1.685749,-1.43903 -0.586954,-0.49961 -1.200022,-0.97099 -1.734817,-1.5287 -0.544087,-0.54045 -1.117439,-1.04988 -1.659875,-1.59198 -0.677267,-0.71447 -1.275643,-1.49346 -1.858768,-2.28594 -0.822605,-1.08365 -1.634212,-2.17512 -2.388588,-3.30806 -0.905612,-1.30372 -1.83686,-2.59541 -2.579302,-4.00259 -0.735793,-1.36837 -1.42803,-2.76069 -1.969655,-4.21936 -0.655624,-1.73162 -1.220101,-3.4944 -1.751012,-5.26806 -0.703613,-2.14364 -1.271453,-4.31793 -1.629929,-6.54912 -0.224581,-0.84666 -0.518415,-1.67507 -0.715415,-2.52857 -0.381274,-1.65187 -0.404264,-3.38153 -0.691667,-5.04861 -0.337109,-2.80076 -0.682027,-5.60058 -1.011553,-8.40222 -0.292157,-3.12603 -0.434096,-6.257434 -0.508286,-9.395823 -0.09337,-1.721615 -0.01576,-3.441891 -0.132553,-5.163148 0,0 -2.217426,-1.155215 -2.217426,-1.155215 z" />
    <path
       style="fill:#000000"
       id="path276"
       d="m 69.976042,155.47061 c 0.03681,0.72962 0.07055,1.45271 0.238015,2.16572 0.235045,0.69553 0.597626,1.33067 0.825723,2.02954 0.250419,0.54589 0.138283,1.08004 0.131755,1.64674 -0.0038,0.32749 0.03837,0.65389 0.05613,0.98092 0.03945,0.697 0.05649,1.39785 0.229269,2.07705 0.121247,0.46805 0.422837,0.77629 0.808067,1.04347 1.672232,1.3633 3.468592,1.97858 5.34262,2.79742 1.004439,0.45393 2.049536,0.78269 3.123288,1.02231 1.185974,0.24874 2.392104,0.36189 3.595123,0.48933 1.06725,0.11769 2.113373,0.3667 3.149542,0.64079 0.956806,0.25543 1.892671,0.58144 2.832318,0.89251 0.909228,0.32683 1.851013,0.4801 2.813469,0.49698 0.90028,-0.025 1.799213,-0.0155 2.694047,0.0902 0.769531,0.1275 1.511157,0.37137 2.279824,0.50422 0.730948,0.10054 1.469214,0.0668 2.198678,-0.0241 0.63845,-0.11039 1.2521,-0.32599 1.84391,-0.58512 0.64807,-0.27891 1.00342,-0.85534 1.35822,-1.43119 0.48346,-0.85656 1.05398,-1.65807 1.62563,-2.45682 0.46127,-0.65388 0.90979,-1.3166 1.36395,-1.9754 0.37773,-0.70407 -0.55473,-1.09158 -0.95959,-1.51816 -0.13796,-0.14536 -0.22975,-0.32844 -0.34462,-0.49265 0,0 -0.13256,-0.0727 -0.13256,-0.0727 v 0 c -0.16767,0.005 -0.33873,0.0485 -0.503,0.0146 -0.58468,-0.12073 -1.28473,-0.69674 -1.72589,-0.0719 -0.40996,0.67922 -0.83292,1.3509 -1.29588,1.99564 -0.56305,0.81201 -1.1295,1.62183 -1.660633,2.45533 -0.342702,0.50279 -0.70692,0.95555 -1.2942,1.17771 -0.559688,0.2414 -1.140506,0.43334 -1.750786,0.49255 -0.703031,0.0646 -1.411589,0.0794 -2.107115,-0.0657 -0.754164,-0.15936 -1.498989,-0.37369 -2.268573,-0.44886 -0.90174,-0.0758 -1.804761,-0.0536 -2.708785,-0.0707 -0.937235,-0.0638 -1.847451,-0.25949 -2.732245,-0.57999 -0.934842,-0.30395 -1.867999,-0.6179 -2.824326,-0.84897 -1.035207,-0.2458 -2.078539,-0.46747 -3.140659,-0.55855 -1.183655,-0.11118 -2.368221,-0.23926 -3.528848,-0.50631 -1.061754,-0.26238 -2.09012,-0.62658 -3.084267,-1.08444 -1.390793,-0.60376 -4.697156,-1.9916 1.142881,0.99718 -0.378791,-0.1965 -0.736039,-0.41512 -0.923053,-0.81743 -0.255486,-0.6516 -0.299277,-1.35563 -0.363612,-2.04685 -0.02308,-0.33237 -0.01806,-0.66785 -0.06881,-0.99713 -0.09769,-0.6338 -0.345547,-1.2435 -0.444616,-1.87794 -0.224962,-0.70927 -0.551635,-1.36301 -0.868044,-2.03375 -0.206721,-0.67515 -0.291877,-1.37005 -0.23863,-2.07673 0,0 -2.683718,-1.36884 -2.683718,-1.36884 z" />
    <path
       style="fill:#000000"
       id="path280"
       d="m 105.187,164.72211 c -0.023,0.74171 0.18516,1.44589 0.27615,2.17473 0.17746,0.68919 0.51971,1.30424 0.93112,1.87748 0.36109,0.46822 0.64447,0.98776 1.00467,1.45602 1.26495,1.52492 3.00524,2.20083 4.74813,3.19952 0.8725,0.41485 1.73992,0.45255 2.67778,0.31816 1.29752,-0.032 2.45314,-0.63277 3.62976,-1.11271 1.00394,-0.40611 2.0127,-0.79561 3.06379,-1.0607 0.80704,-0.17912 1.62262,-0.32021 2.43778,-0.45742 0.86829,-0.14326 1.7299,-0.32228 2.59446,-0.48561 1.02611,-0.20974 2.05193,-0.41691 3.08799,-0.57147 1.02668,-0.12616 2.04461,-0.2969 3.05468,-0.51864 1.0467,-0.23022 2.06327,-0.56839 3.06967,-0.93228 1.07053,-0.40506 2.15169,-0.7814 3.21672,-1.20078 0.97494,-0.38484 1.88081,-0.90148 2.6804,-1.57755 0.77445,-0.71191 1.29732,-1.61341 1.64714,-2.59498 0.2893,-1.12342 0.42517,-2.3047 0.19883,-3.4461 -0.80868,-1.22735 -0.28358,-0.57314 -1.70259,-1.85329 0,0 -0.14914,-0.0737 -0.14914,-0.0737 v 0 c -1.24064,-0.0699 -0.76222,-0.24663 -1.51452,0.21736 -0.23301,1.04356 -0.0585,2.14734 -0.40593,3.17774 -0.32807,0.91507 -0.8106,1.75023 -1.55761,2.39105 -0.78474,0.62519 -1.65231,1.12142 -2.59057,1.48248 -1.06409,0.416 -2.14194,0.79445 -3.21458,1.1876 -0.99425,0.35338 -2.00122,0.67117 -3.03441,0.8915 -1.00689,0.21502 -2.02605,0.34952 -3.04453,0.49697 -1.04478,0.17191 -2.08336,0.3768 -3.12597,0.56109 -0.86474,0.16554 -1.7291,0.33403 -2.59833,0.4747 -0.82267,0.14683 -1.65054,0.2756 -2.45786,0.49551 -1.03125,0.32251 -2.0333,0.72618 -3.03164,1.13822 -1.06309,0.43472 -2.1416,0.82725 -3.18823,1.29902 -0.89369,0.11474 -1.72651,-0.0575 -2.52625,-0.48064 5.20241,3.04887 2.31792,1.58004 1.35525,0.44864 -0.39037,-0.44444 -0.66379,-0.95872 -1.00704,-1.43791 -0.43431,-0.56628 -0.85812,-1.13157 -1.08756,-1.81939 -0.34913,-0.72315 -0.63495,-1.52603 -0.75149,-2.31845 0,0 -2.68607,-1.34613 -2.68607,-1.34613 z" />
    <path
       style="fill:#000000"
       id="path282"
       d="m 140.83051,161.56474 c -0.0247,1.2177 0.30913,2.4128 0.59377,3.58943 0.58572,1.70011 1.26431,3.36618 1.87385,5.05807 0.54871,1.60731 1.21129,3.16981 1.94277,4.70134 0.58717,1.07773 1.13571,2.14866 1.47114,3.33074 0.41433,1.32698 0.86572,2.6384 1.36319,3.93659 0.52145,1.29992 0.97158,2.62619 1.40511,3.95745 0.41595,1.34738 0.83519,2.69372 1.25037,4.04134 0.38679,1.25895 0.72375,2.53235 1.05592,3.80656 0.27138,1.00613 0.46945,2.02795 0.63437,3.05612 0.14679,0.94033 0.22937,1.88815 0.14514,2.83746 -0.0802,0.73157 -0.49763,1.09348 -1.13377,1.37001 -0.74833,0.25417 -1.42654,-0.21992 -2.07359,-0.54846 -1.50443,-0.79382 -1.5863,-0.84355 3.0703,1.78079 0.1572,0.0886 -0.30834,-0.18803 -0.45598,-0.29178 -0.57119,-0.40138 -1.06571,-0.88781 -1.56873,-1.36855 -1.21474,-1.15948 -2.30868,-2.43303 -3.33015,-3.76344 -0.94475,-1.20401 -1.70496,-2.51606 -2.32158,-3.91275 -0.64798,-1.63619 -1.20371,-3.30558 -1.85261,-4.94153 -0.62363,-1.48798 -1.2997,-2.9529 -1.98425,-4.41355 -0.50767,-1.0865 -1.03862,-2.16132 -1.58373,-3.22941 -0.23507,-0.27347 -0.24083,-0.72054 -0.46497,-0.99618 -0.57653,-0.70896 -1.57236,-1.12533 -2.34364,-1.563 0,0 -0.27126,-0.11826 -0.27126,-0.11826 v 0 c -0.19542,-0.0599 -1.60764,-0.57003 -1.68421,-0.30247 -0.0432,0.1509 0.40823,0.87333 0.44688,1.03778 0.58618,1.07943 1.205,2.14204 1.70828,3.26473 0.70358,1.4574 1.36789,2.93368 2.03403,4.40844 0.68486,1.62133 1.23981,3.28876 1.84314,4.94131 0.57176,1.43961 1.26023,2.80602 2.25106,4.0106 1.04342,1.36076 2.15376,2.66309 3.38901,3.85564 1.98924,2.03885 3.8555,3.28717 6.72899,4.48207 0.77595,0.35781 1.53902,0.65614 2.3604,0.23832 0.74207,-0.39573 1.24803,-0.92134 1.36011,-1.79192 0.0916,-0.98846 0.027,-1.97456 -0.1299,-2.9546 -0.1502,-1.05673 -0.33587,-2.10785 -0.66092,-3.12733 -0.36129,-1.28408 -0.73799,-2.56377 -1.10402,-3.84649 -0.41619,-1.35077 -0.84495,-2.69767 -1.25222,-4.05119 -0.44562,-1.34881 -0.93945,-2.6816 -1.45251,-4.00611 -0.51939,-1.31624 -0.96896,-2.65641 -1.45658,-3.98438 -0.59565,-1.19276 -1.19902,-2.38201 -1.85372,-3.5438 -0.79407,-1.51307 -1.48647,-3.07568 -2.03789,-4.69461 -0.61237,-1.70367 -1.25724,-3.39397 -1.93177,-5.0741 -0.0861,-0.20922 -0.57256,-1.37996 -0.64693,-1.60276 -0.24658,-0.73878 -0.3723,-1.52033 -0.64259,-2.25315 0,0 -2.69031,-1.32497 -2.69031,-1.32497 z" />
    <path
       style="fill:#000000"
       id="path284"
       d="m 70.803119,158.89011 c -0.679146,1.08323 -0.988526,2.33508 -1.457484,3.51473 -0.874287,1.89044 -1.675067,3.8184 -2.485467,5.73859 -0.751241,1.87668 -1.383871,3.79755 -2.091455,5.69063 -0.561186,1.57296 -1.329691,3.05663 -2.099824,4.53431 -0.774693,1.48572 -1.451128,3.01808 -2.053604,4.58074 -0.651823,1.67069 -1.085254,3.41045 -1.487372,5.1542 -0.3881,1.71679 -0.743738,3.43986 -1.065773,5.17016 -0.280577,1.49927 -0.480529,3.00921 -0.626231,4.52688 -0.126979,1.57628 -0.104076,3.15907 -0.0727,4.73852 0.05901,1.667 0.05094,3.33557 0.244385,4.99398 0.380952,1.98262 1.305883,2.34028 3.401148,3.31915 0.173624,0.0811 0.389398,-0.007 0.570769,-0.0689 0.235118,-0.0802 0.438553,-0.23352 0.657829,-0.35028 2.210558,-1.56445 3.374296,-4.03771 4.51287,-6.4093 1.359336,-2.99939 2.390955,-6.12794 3.452339,-9.24039 0.844075,-2.50921 1.584637,-5.05139 2.377348,-7.57692 0.57713,-1.84235 1.163788,-3.682 1.821696,-5.49729 0.104424,-0.51927 0.772626,-1.76143 0.704256,-2.27021 -0.0753,-0.56036 -0.505271,-0.88679 -0.854433,-1.27843 0,0 -0.132762,-0.0723 -0.132762,-0.0723 v 0 c -0.383818,-0.0379 -0.920155,-0.21728 -1.264535,0.1216 -0.351368,0.34575 -0.392868,1.82455 -0.681977,2.27069 -0.577202,1.85516 -1.157473,3.70956 -1.69659,5.57626 -0.713607,2.55998 -1.412299,5.12521 -2.209928,7.66059 -0.998066,3.12448 -2.035278,6.24937 -3.394061,9.23851 -1.163079,2.31454 -2.448653,4.72042 -4.77637,6.05008 -0.222138,0.0732 -0.434843,0.18673 -0.666414,0.21949 -0.168193,0.0238 -0.638795,-0.16042 -0.506786,-0.0535 0.55797,0.45186 1.191588,0.80916 1.834522,1.12876 0.162428,0.0807 -0.265902,-0.25076 -0.368778,-0.40015 -0.306725,-0.44542 -0.33646,-0.71774 -0.48637,-1.23767 -0.257845,-1.6454 -0.232866,-3.30675 -0.259729,-4.96857 -0.03166,-1.56989 -0.07323,-3.14428 0.06332,-4.71066 0.138962,-1.5133 0.360129,-3.01696 0.601229,-4.51714 0.284493,-1.73771 0.622888,-3.46622 1.013048,-5.18339 0.395414,-1.73116 0.857923,-3.44838 1.495585,-5.10819 0.608734,-1.55002 1.276886,-3.07638 2.045697,-4.55456 0.765454,-1.49414 1.555369,-2.98288 2.08192,-4.58337 0.644323,-1.91347 1.250784,-3.84291 2.037667,-5.70439 0.812064,-1.93038 1.717988,-3.8382 2.306721,-5.85006 0.417071,-1.21304 1.011782,-2.36833 1.256685,-3.63207 0,0 -1.740396,-0.96011 -1.740396,-0.96011 z" />
    <path
       style="fill:#000000"
       id="path286"
       d="m 73.827939,178.55692 c 0.356317,2.89892 -0.02555,5.93131 -0.300751,8.82835 -0.60338,5.2145 -1.518858,10.38735 -2.103921,15.60474 -0.549655,4.28807 -0.619653,8.61355 -0.981885,12.91599 -0.260405,1.42484 -0.344315,2.87376 -0.539377,4.30684 -0.17407,1.27885 -0.411435,2.54302 -0.566119,3.82542 -0.290333,2.43372 -0.558404,4.86875 -0.781942,7.30949 -0.239074,2.59259 -0.453758,5.18121 -0.58417,7.78188 -0.149354,2.37638 -0.25797,4.75499 -0.398167,7.13185 -0.153374,2.15465 -0.23459,4.31043 -0.235575,6.47023 -0.0038,2.40741 0.248804,4.80193 0.533799,7.18886 0.20022,2.18311 0.661341,4.29597 1.564698,6.29405 0.797411,1.5 1.877786,2.82426 3.031674,4.062 1.745309,1.51091 3.775259,3.32048 6.152646,3.39125 0.633779,0.0189 0.757554,-0.0527 1.380887,-0.19544 1.678056,-0.61759 3.190809,-1.64 4.60865,-2.71529 1.51057,-1.17578 2.51813,-2.75144 3.367327,-4.43626 0.863864,-1.87207 1.682573,-3.76696 2.421475,-5.69189 0.778976,-2.2681 1.380974,-4.59454 1.931772,-6.92724 0.605925,-2.88451 0.896998,-5.82241 1.337158,-8.73453 0.42279,-3.02556 0.969636,-6.03098 1.539677,-9.03154 0.590543,-2.67833 0.867138,-5.40563 1.255514,-8.11628 0.361844,-1.82315 0.362938,-2.96196 -0.319919,-4.71411 -0.721357,-1.85094 -0.319955,-0.31491 -0.646765,-1.74731 0,0 -0.134002,-0.07 -0.134002,-0.07 v 0 c -0.0923,0.15577 -0.146862,0.34132 -0.276913,0.4673 -1.056292,1.0232 -0.320173,-0.20889 -1.27109,1.09119 -0.686788,0.93897 -0.698991,2.02447 -0.828262,3.13899 -0.379102,2.68549 -0.996056,5.3264 -1.433776,8.00274 -0.542588,3.01196 -1.094342,6.02248 -1.531219,9.05217 -0.426828,2.88358 -0.857002,5.77151 -1.470543,8.62216 -0.558232,2.3054 -1.169662,4.60404 -1.973495,6.83744 -0.74647,1.90366 -1.566832,3.77688 -2.470487,5.6116 -0.838115,1.60502 -1.79648,3.14387 -3.255607,4.26428 -1.416239,1.01976 -2.92194,1.9945 -4.6224,2.45643 -0.564202,0.0718 -0.740604,0.13572 -1.301402,0.0494 -0.200415,-0.0308 -0.757578,-0.26456 -0.589108,-0.15171 1.101129,0.73762 2.275725,1.35918 3.41145,2.04233 0.176838,0.10637 -0.365631,-0.1937 -0.534743,-0.31196 -0.183693,-0.12847 -0.346923,-0.28395 -0.520385,-0.42593 -1.206647,-1.19202 -2.291918,-2.51732 -3.176072,-3.96693 -1.023224,-1.97388 -1.549625,-4.00078 -1.74433,-6.21863 -0.303324,-2.36966 -0.564226,-4.75025 -0.567924,-7.14249 0.03137,-2.15003 0.165272,-4.296 0.246997,-6.44447 0.08968,-2.39309 0.203671,-4.78519 0.305209,-7.17779 0.142325,-2.61137 0.218433,-5.22686 0.45452,-7.83156 0.214665,-2.44658 0.450803,-4.89132 0.722779,-7.33223 0.268651,-2.84255 0.412649,-5.71345 0.319772,-8.5669 -0.0026,-4.38855 0.155171,-8.77878 0.485602,-13.1551 0.152409,-1.87054 0.25437,-3.74509 0.418197,-5.61466 0.299481,-3.41766 0.78064,-6.82276 1.233228,-10.22206 0.383516,-2.86966 0.82373,-5.73672 0.796516,-8.6393 0,0 -2.359198,-1.16535 -2.359198,-1.16535 z" />
    <path
       style="fill:#000000"
       id="path288"
       d="m 135.41856,178.7723 c -0.33485,2.14315 -0.13061,4.36781 -0.0659,6.52968 0.17343,3.18836 0.42206,6.37921 0.4941,9.57234 0.0385,1.70594 0.005,3.41279 0.024,5.11907 0.15683,5.05291 0.22051,10.10892 0.14262,15.16372 -0.10613,4.01904 -0.23725,8.03652 -0.21197,12.05731 0.0273,3.30041 0.27239,6.59354 0.44996,9.88801 0.14003,2.73207 0.19722,5.46728 0.21525,8.20258 0.0148,2.32386 0.003,4.64689 -0.10242,6.96855 -0.072,1.97114 -0.17591,3.94178 -0.36719,5.90516 -0.13385,1.71212 -0.49663,3.37991 -1.02369,5.01019 -0.46445,1.44751 -1.16712,2.77441 -2.13694,3.94134 -0.95589,1.04345 -2.27552,1.58563 -3.558,2.11177 -1.54744,0.58568 -3.20248,0.73376 -4.8437,0.70186 -0.77531,-0.0561 -1.54813,-0.18389 -2.28334,-0.44368 -1.21528,-0.42943 -5.23355,-2.81439 2.08226,1.22561 -1.53798,-1.4403 -2.10632,-3.51353 -2.60224,-5.49166 -0.57167,-2.72379 -0.89953,-5.49048 -1.33043,-8.23823 -0.53098,-2.91185 -1.05127,-5.82426 -1.51286,-8.74812 -0.48961,-3.13156 -0.7319,-6.29183 -0.92362,-9.45304 -0.14217,-2.94119 -0.20564,-5.88523 -0.20687,-8.82962 0.0382,-1.99638 0.0328,-3.99317 0.0357,-5.98981 0.0363,-1.06285 -0.11945,-1.20156 -1.01859,-1.89228 -0.36231,-0.27833 -0.75256,-0.51827 -1.12884,-0.7774 0,0 -0.1575,-0.0741 -0.1575,-0.0741 v 0 c -0.1127,-0.0286 -1.41959,-0.41075 -1.67554,-0.31221 -0.3166,0.12189 0.14327,0.99444 -0.0489,1.01659 0.11078,2.02891 0.14292,4.05994 0.18249,6.09124 0.0469,2.96401 0.0984,5.92843 0.27953,8.88802 0.14917,3.16333 0.37829,6.32318 0.8453,9.45777 0.40113,2.92341 0.95861,5.81874 1.46153,8.72572 0.41213,2.74185 0.77125,5.49169 1.23159,8.22611 0.42269,2.00873 0.93114,4.08224 2.28326,5.68909 3.04994,1.85314 4.79231,3.49858 8.18718,3.61923 1.6871,-0.0267 3.39139,-0.2055 4.97222,-0.83235 1.35043,-0.56159 2.71407,-1.16492 3.68367,-2.30441 0.97431,-1.238 1.68666,-2.61248 2.16166,-4.11879 0.55057,-1.6613 0.96784,-3.34941 1.0662,-5.10547 0.15328,-1.98339 0.24379,-3.96945 0.31639,-5.95736 0.0619,-2.34911 0.0839,-4.69823 -0.004,-7.04729 -0.0574,-2.75661 -0.0725,-5.51663 -0.29362,-8.26665 -0.25104,-3.31114 -0.52037,-6.62142 -0.60531,-9.94246 -0.0831,-4.06092 0.0112,-8.1214 -0.0449,-12.18257 -0.0887,-5.10414 -0.0679,-10.21407 -0.39238,-15.31073 -0.4544,-5.0165 -1.06604,-10.02178 -1.25414,-15.06019 -0.14176,-2.24696 -0.12696,-4.51291 -0.41659,-6.74564 0,0 -1.90574,-0.9869 -1.90574,-0.9869 z" />
    <path
       style="fill:#000000"
       id="path290"
       d="m 85.221871,218.32805 c 1.770251,1.30998 3.79887,2.12141 5.867795,2.79094 1.87629,0.47598 3.763082,0.88495 5.637024,1.36823 1.942277,0.58264 3.94965,0.68615 5.96182,0.68645 1.84017,0.0182 3.67014,-0.16472 5.48627,-0.44441 1.75981,-0.28943 3.49248,-0.71296 5.25249,-1.00079 1.40038,-0.15983 2.79581,-0.37871 4.2009,-0.49394 1.05521,-0.004 2.0601,-0.29577 3.06488,-0.58049 0.0586,-0.0331 1.3775,-0.32822 1.21314,-0.46661 -0.35023,-0.29491 -0.75194,-0.52261 -1.12791,-0.78391 0,0 -1.45605,-1.06586 -1.45605,-1.06586 v 0 c -1.64957,-1.01192 -1.19374,-0.93354 -2.65638,-0.43071 -0.95705,0.31582 -1.92919,0.51959 -2.94091,0.55458 -1.33425,0.1756 -2.64883,0.46395 -3.97448,0.69253 -1.74373,0.33088 -3.47613,0.72211 -5.2291,1.00392 -1.78192,0.26584 -3.57545,0.45249 -5.380019,0.43533 -1.989789,-0.0232 -3.962785,-0.18948 -5.883186,-0.75162 -1.63316,-0.35123 -3.303376,-0.4562 -4.925476,-0.849 -0.436422,-0.11349 -0.879107,-0.20523 -1.309164,-0.34085 -0.201223,-0.0635 -0.3951,-0.14825 -0.593497,-0.22005 -0.141605,-0.0513 -0.552009,-0.2323 -0.426467,-0.14912 1.177589,0.7802 2.813189,1.60099 1.634327,1.00247 0,0 -2.416007,-0.95709 -2.416007,-0.95709 z" />
    <path
       style="fill:#000000"
       id="path292"
       d="m 72.139183,212.93119 c 1.300944,0.24291 2.607949,0.28127 3.927572,0.26605 1.84343,-0.10019 3.689325,-0.10886 5.534857,-0.10055 1.74293,0.0266 3.485102,0.0801 5.22615,0.16435 1.548215,0.0335 3.084767,0.17078 4.615121,0.40112 1.483426,0.23036 2.978276,0.36677 4.458134,0.62057 1.333107,0.25818 2.670126,0.49405 3.998575,0.77566 1.476838,0.35907 2.943598,0.71325 4.460238,0.84239 1.44134,0.0683 2.88004,0.17839 4.32028,0.26492 1.45679,0.0946 2.91213,0.1205 4.37065,0.0694 1.47279,-0.032 2.93368,-0.22979 4.39782,-0.37281 1.67733,-0.10916 3.34648,-0.28363 5.0113,-0.51283 1.78368,-0.24713 3.54452,-0.62346 5.29633,-1.03481 1.66771,-0.33796 3.30306,-0.78435 4.89058,-1.39583 1.27125,-0.49527 2.47866,-1.12927 3.6625,-1.8027 0.85943,-0.50962 1.77246,-0.91493 2.67067,-1.34873 0.22049,-0.1315 1.75934,-0.69185 1.51021,-1.06917 -0.25622,-0.38807 -0.65028,-0.66491 -0.97543,-0.99737 -0.14722,-0.19758 -0.29444,-0.39517 -0.44166,-0.59276 0,0 -0.18302,-0.10855 -0.18302,-0.10855 v 0 c -0.25399,-0.0544 -0.50799,-0.10877 -0.76199,-0.16316 -0.48324,-0.19695 -0.94748,-0.44921 -1.44972,-0.59084 -0.55697,-0.15707 -1.38365,0.57295 -1.89569,0.7527 -0.89635,0.4358 -1.79206,0.87477 -2.6304,1.41749 -1.14759,0.66848 -2.32694,1.2823 -3.56105,1.77726 -1.55928,0.59283 -3.16324,1.03379 -4.79599,1.37666 -1.74721,0.3823 -3.49712,0.76201 -5.27143,0.99835 -1.68643,0.21355 -3.38024,0.32182 -5.07466,0.45004 -1.4566,0.15424 -2.91422,0.31629 -4.38038,0.33977 -1.45672,0.0249 -2.91286,-0.0132 -4.3663,-0.11898 -1.42114,-0.0868 -2.84307,-0.15777 -4.2637,-0.2502 -1.513395,-0.19013 -2.983577,-0.57431 -4.469197,-0.91138 -1.328512,-0.27461 -2.664014,-0.51311 -4.000183,-0.74729 -1.48364,-0.21947 -2.976728,-0.36884 -4.457476,-0.60971 -1.533138,-0.2062 -3.073283,-0.30767 -4.619913,-0.3449 -1.685572,-0.0649 -3.371209,-0.0889 -5.057178,-0.0118 -1.809066,0.0313 -3.614456,0.13293 -5.422894,0.1789 -1.253145,-0.0117 -2.525448,-0.0265 -3.758788,-0.25007 0,0 3.486062,2.63881 3.486062,2.63881 z" />
    <path
       style="fill:#000000"
       id="path294"
       d="m 103.92448,165.06843 c 0.42476,1.19503 0.52551,2.47542 0.63316,3.73008 0.1342,1.90548 0.10745,3.81542 0.0472,5.72289 -0.17399,1.90029 -0.0966,3.81015 -0.0628,5.71465 0.0503,1.91803 0.0271,3.83516 -0.0774,5.75073 -0.12192,2.17696 -0.25085,4.35362 -0.39181,6.52944 -0.1438,2.15619 -0.21432,4.31629 -0.26072,6.47647 -0.0424,1.85506 -0.10647,3.70923 -0.18007,5.56325 -0.0512,1.55326 -0.0529,3.10773 -0.0556,4.66171 -0.0172,1.02315 0.0334,2.04446 0.093,3.06531 0.0735,0.69527 0.003,1.38542 -0.0807,2.07485 0.24511,0.58493 0.83531,0.73614 1.06336,1.33364 0,0 0.13131,0.0749 0.13131,0.0749 v 0 c 0.59688,-0.13859 0.96159,0.26504 1.51892,0.035 0.16605,-0.70495 0.17903,-1.42648 0.10887,-2.1463 -0.0892,-1.03117 -0.17813,-2.06284 -0.19683,-3.09834 -0.0497,-1.56122 -0.0835,-3.1233 -0.0212,-4.6849 0.0523,-1.87029 0.0825,-3.74074 0.0923,-5.61175 0.0524,-2.16166 0.10001,-4.3238 0.22637,-6.48278 0.11769,-2.16707 0.29774,-4.32936 0.46711,-6.4928 0.0966,-1.92746 0.14067,-3.85621 0.0538,-5.78545 -0.0404,-1.92868 -0.0123,-3.85819 -0.0993,-5.78571 0.0113,-1.912 0.0429,-3.82463 -0.026,-5.73603 -0.0482,-1.22462 -0.1198,-2.45004 -0.33981,-3.65803 0,0 -2.64307,-1.25081 -2.64307,-1.25081 z" />
    <path
       style="fill:#000000"
       id="path296"
       d="m 109.62152,178.10254 c 0.90564,1.36184 -0.65912,-0.9318 0.984,1.14097 0.11731,0.14798 0.17524,0.33456 0.26287,0.50184 0,0 0.13404,0.0699 0.13404,0.0699 v 0 c 0.10981,-0.065 0.20328,-0.17587 0.32944,-0.19484 1.54636,-0.23259 0.20243,0.24683 1.06018,-0.0906 0,0 -2.77053,-1.42728 -2.77053,-1.42728 z" />
    <path
       style="fill:#000000"
       id="path298"
       d="m 109.04896,189.17405 c 0.0644,0.82901 0.61522,1.27895 1.13629,1.88057 0.22968,0.26518 0.45214,0.53654 0.67821,0.8048 0,0 0.15031,0.0782 0.15031,0.0782 v 0 c 0.25124,-0.0206 0.50212,-0.0463 0.75373,-0.0618 0.64096,-0.0395 1.10349,0.0838 1.31288,-0.60169 0,0 -4.03142,-2.10013 -4.03142,-2.10013 z" />
    <path
       style="fill:#000000"
       id="path300"
       d="m 110.05397,202.13962 c 0.35975,0.42792 0.88256,0.69946 1.23535,1.13264 0.0817,0.1003 0.0761,0.24726 0.11408,0.37089 0,0 0.13562,0.0668 0.13562,0.0668 v 0 c 0.0573,-0.79514 0.4126,-0.15085 0.99024,-0.40449 0,0 -2.47529,-1.16585 -2.47529,-1.16585 z" />
    <path
       style="fill:#000000"
       id="path302"
       d="m 146.57326,195.83645 c 1.24174,-0.54327 2.42403,-1.19373 3.57809,-1.9022 0.48164,-0.44496 1.71941,-0.93911 2.13834,-1.41855 0.12225,-0.13991 0.19238,-0.33065 0.21235,-0.51537 0.0516,-0.47733 -0.23076,-0.75375 -0.46813,-1.12265 -0.0103,-0.0825 -0.0205,-0.16498 -0.0308,-0.24747 0,0 -0.15914,-0.0973 -0.15914,-0.0973 v 0 c -0.10219,0.0112 -0.20438,0.0224 -0.30656,0.0336 -0.78681,-0.18384 -1.61625,-0.40099 -2.4077,-0.0677 -0.70271,0.29587 -1.38859,1.1217 -2.11488,1.40336 -1.20517,0.68642 -2.45158,1.30725 -3.79935,1.6633 0,0 3.35775,2.27104 3.35775,2.27104 z" />
    <path
       style="fill:#000000"
       id="path304"
       d="m 58.112354,195.23489 c 2.10273,1.98638 4.810633,3.29471 7.273302,4.72033 0.670164,0.35744 1.389566,0.59273 2.12419,0.77394 0.570345,0.14069 0.919231,0.20976 0.905788,0.0897 -0.02402,-0.21466 -0.250213,-0.35215 -0.375319,-0.52823 -0.03272,-0.10078 -0.06545,-0.20156 -0.09817,-0.30234 0,0 -0.120297,-0.0916 -0.120297,-0.0916 v 0 c -0.311759,-0.16403 -0.623519,-0.32806 -0.935278,-0.49209 -0.453593,-0.26542 -0.894313,-0.55419 -1.360778,-0.79627 -1.080881,-0.56096 -2.382706,-0.58857 -3.405826,-1.29577 6.04593,3.5195 1.19555,0.81765 0.02423,-0.40429 0,0 -4.031838,-1.67338 -4.031838,-1.67338 z" />
    <path
       style="fill:#000000"
       id="path306"
       d="m 119.4216,259.67887 c 1.43728,0.13842 2.87458,0.0489 4.31409,0.0286 2.03273,-0.0701 4.04032,-0.51617 6.01378,-0.98476 2.01555,-0.49946 4.07556,-0.7332 6.09681,-1.20322 0.71228,-0.16904 1.4269,-0.32886 2.15189,-0.43345 0.17398,-0.0251 0.35878,-0.003 0.52342,-0.0642 0.0845,-0.0316 0.17321,-0.11011 0.1825,-0.19984 0.0118,-0.11361 -0.0859,-0.21165 -0.12893,-0.31747 -1.32731,-1.12103 -0.6909,-0.58297 -1.90937,-1.61404 0,0 -0.27741,-0.19444 -0.27741,-0.19444 v 0 c -1.58989,-0.994 -0.73854,-0.47363 -2.55839,-1.55398 -0.45478,-0.15907 -0.82106,-0.34136 -1.31126,-0.32759 -0.1678,0.005 -0.32789,0.0722 -0.49145,0.10992 -0.69512,0.16047 -1.38605,0.33806 -2.07553,0.52114 -1.94112,0.4811 -3.88393,0.95039 -5.83571,1.38704 -1.88267,0.47334 -3.75281,0.96877 -5.70632,1.04826 -1.26931,0.12231 -2.54095,0.21007 -3.81045,0.3128 0,0 4.82233,3.48523 4.82233,3.48523 z" />
    <path
       style="fill:#000000"
       id="path308"
       d="m 72.69449,258.54791 c 1.550606,-0.26225 3.132975,-0.20785 4.699529,-0.2076 2.277057,-0.0594 4.54736,-0.0576 6.813014,0.19098 1.353166,0.0857 2.680339,0.3411 3.968613,0.75673 -0.07101,-0.0607 0.794509,0.31635 0.687497,0.18835 -0.45899,-0.54898 -1.093226,-0.92402 -1.654442,-1.36797 -0.113249,-0.0997 -0.226498,-0.19931 -0.339747,-0.29897 0,0 -0.126255,-0.0832 -0.126255,-0.0832 v 0 c -0.138433,-0.0872 -0.276866,-0.17443 -0.415299,-0.26165 -0.464631,-0.33868 -0.928719,-0.6781 -1.393892,-1.01604 -0.429077,-0.31171 -0.714668,-0.51678 -1.229132,-0.59724 -1.220497,-0.27714 -2.463021,-0.40598 -3.715116,-0.41925 -2.13218,0.025 -4.264834,-0.007 -6.393276,0.16043 -1.586116,0.066 -3.224561,-0.0154 -4.773456,0.3503 0,0 3.871962,2.60509 3.871962,2.60509 z" />
    <path
       style="fill:#000000"
       id="path310"
       d="m 85.362178,130.40601 c 0.198745,0.9588 0.35203,1.90189 0.711269,2.81732 0.463418,1.12647 1.215798,2.02447 2.151506,2.78409 2.507426,1.6978 5.125182,3.25084 7.989717,4.24199 1.493307,0.48695 3.035581,0.75589 4.60116,0.83297 1.87605,0.0288 3.7187,-0.33167 5.55085,-0.68686 1.63744,-0.31448 3.24098,-0.74881 4.81301,-1.30045 1.442,-0.55774 2.89038,-1.14174 4.18127,-2.00106 1.13136,-0.75687 1.79685,-1.89543 2.31642,-3.11857 0.46737,-1.19407 0.37034,-1.55617 -0.68333,-2.42563 -0.4003,-0.33032 -0.8411,-0.60822 -1.26164,-0.91233 0,0 -0.13342,-0.0711 -0.13342,-0.0711 v 0 c -0.46965,-0.17597 -1.71979,-0.72923 -2.34157,-0.69523 -0.48524,0.0265 -0.62197,0.90832 -0.75405,1.2094 -0.44561,1.13259 -1.05826,2.13566 -2.01344,2.91834 -1.15477,0.89905 -2.38728,1.6094 -3.78569,2.07363 -1.52303,0.55442 -3.08457,0.99194 -4.67707,1.29898 -1.77676,0.36521 -3.576149,0.73436 -5.400779,0.62609 -1.489307,-0.11715 -2.9708,-0.30201 -4.376444,-0.84146 -0.525374,-0.19279 -0.790364,-0.28114 -1.302498,-0.50427 -0.208628,-0.0909 -0.813532,-0.40597 -0.619181,-0.28758 6.740966,4.10617 4.057834,2.34437 2.540401,1.48816 -1.004372,-0.68469 -1.851093,-1.54102 -2.430476,-2.62194 -0.400097,-0.86845 -0.712057,-1.77671 -0.77974,-2.73794 0,0 -4.296275,-2.08655 -4.296275,-2.08655 z" />
    <path
       style="fill:#000000"
       id="path312"
       d="m 93.073205,126.74406 c -0.08893,1.22642 1.446215,1.45758 1.867374,2.3806 0,0 0.132114,0.0735 0.132114,0.0735 v 0 c 0.08629,-0.0223 0.172176,-0.0874 0.258881,-0.0668 0.587411,0.13969 1.892351,0.98277 2.253251,7.6e-4 0,0 -4.51162,-2.38803 -4.51162,-2.38803 z" />
    <path
       style="fill:#000000"
       id="path314"
       d="m 101.43369,126.78078 c -0.001,0.0655 -0.0147,0.66023 8.9e-4,0.69697 0.28852,0.68067 1.30845,1.36748 1.87127,1.89898 0,0 0.13261,0.0726 0.13261,0.0726 v 0 c 0.50385,0.0969 1.8068,0.5346 2.19575,0.2275 0.0318,-0.0251 0.1345,-0.58396 0.14429,-0.63423 0,0 -4.34481,-2.26181 -4.34481,-2.26181 z" />
  </g>
</svg>
