<?xml version="1.0" encoding="UTF-8" standalone="no"?>
<!-- Created with Inkscape (http://www.inkscape.org/) -->

<svg
   width="210px"
   height="297px"
   viewBox="0 0 210 297"
   version="1.1"
   id="svg5"
   inkscape:version="1.2.2 (b0a8486541, 2022-12-01)"
   sodipodi:docname="asher.svg.2023_07_01_09_41_39.0.svg"
   xmlns:inkscape="http://www.inkscape.org/namespaces/inkscape"
   xmlns:sodipodi="http://sodipodi.sourceforge.net/DTD/sodipodi-0.dtd"
   xmlns="http://www.w3.org/2000/svg"
   xmlns:svg="http://www.w3.org/2000/svg">
  <sodipodi:namedview
     id="namedview7"
     pagecolor="#ffffff"
     bordercolor="#000000"
     borderopacity="0.25"
     inkscape:showpageshadow="2"
     inkscape:pageopacity="0.0"
     inkscape:pagecheckerboard="0"
     inkscape:deskcolor="#d1d1d1"
     inkscape:document-units="mm"
     showgrid="false"
     inkscape:zoom="2.2982535"
     inkscape:cx="115.95762"
     inkscape:cy="70.053195"
     inkscape:window-width="1280"
     inkscape:window-height="651"
     inkscape:window-x="0"
     inkscape:window-y="0"
     inkscape:window-maximized="1"
     inkscape:current-layer="svg5" />
  <defs
     id="defs2" />
  <g
     inkscape:groupmode="layer"
     id="layer5"
     inkscape:label="Layer 5"
     style="display:inline"
     sodipodi:insensitive="true">
    <path
       style="fill:#e6e6e6"
       d="m 41.699464,9.9651078 c -0.186456,1.0071942 -0.673207,1.9369712 -0.75295,2.9625082 -0.195687,2.516631 0.355688,5.215248 0.477605,7.733453 0.05346,1.104255 -0.210758,2.172386 -0.210758,3.270147 0,2.173769 0.462339,4.456878 0.615277,6.642272 0.275582,3.93793 -0.11543,7.864477 -0.03229,11.795642 0.05061,2.393294 0.3549,4.785783 0.469106,7.175965 0.08256,1.72785 -0.162008,3.486405 -0.152969,5.219657 0.01723,3.303668 0.818653,6.215675 0.24985,9.570786 -0.217437,1.282565 -0.663019,2.418163 -0.768246,3.737553 -0.08544,1.071243 0.126182,2.125517 0.03229,3.195361 -0.227267,2.589649 -0.774183,5.125221 -0.832833,7.735154 -0.04378,1.948217 0.409433,3.853285 0.283843,5.809438 -0.183385,2.856365 -1.114513,5.807843 -1.828834,8.559489 -0.904049,3.482497 -1.544946,7.069397 -2.394822,10.566787 -0.460749,1.89607 -1.099919,3.78149 -1.4974,5.68876 -0.39973,1.91806 -0.302654,3.86359 -0.824336,5.79245 -0.612579,2.26493 -1.791746,4.32901 -2.654869,6.4961 -0.474,1.19009 -4.322884,9.02224 -3.946611,9.86312 0.185227,0.41395 0.66014,0.6589 0.921216,1.0198 1.622406,2.24274 3.38428,3.41517 5.962408,4.42592 0.613645,0.24057 1.328141,0.30618 1.910418,0.62207 1.087205,0.58982 1.726795,1.68849 2.758549,2.35403 1.514673,0.97706 3.204428,1.71479 4.731854,2.68716 1.304802,0.83066 2.459831,2.02566 3.810638,2.76705 0.362924,0.19919 0.7826,0.16481 1.140472,0.38072 1.037295,0.62584 1.826266,1.64599 2.904719,2.24866 2.127487,1.18888 4.556506,1.71846 6.577685,3.08998 1.333889,0.90514 2.33085,2.24722 3.819137,2.9693 1.103324,0.53531 2.439868,0.43187 3.584583,0.85833 1.624927,0.60537 3.01707,1.61637 4.617977,2.24015 6.089402,2.37271 12.277293,4.39107 18.543293,6.15787 3.003505,0.84689 8.254607,-0.4703 11.586584,0.11388 2.26646,0.39737 4.50197,1.02091 6.74595,1.40732 2.37067,0.40822 4.80342,0.2732 7.20146,0.52519 1.25203,0.13157 2.54606,-0.43939 3.78514,-0.52519 1.21699,-0.0843 2.44445,0.0747 3.64917,-0.17847 1.81374,-0.3812 3.48359,-1.21443 5.25025,-1.73875 2.22565,-0.66054 4.49012,-1.1389 6.65927,-2.01579 1.25145,-0.50591 2.3715,-1.2852 3.59138,-1.82034 1.95483,-0.85754 4.27324,-0.57068 6.21396,-1.4957 1.48448,-0.70755 3.31292,-3.23652 5.0157,-4.27975 2.61486,-1.60201 5.98725,-2.53286 8.41332,-4.10298 2.77309,-1.7947 5.02484,-4.17122 7.64507,-6.14937 2.92426,-2.20767 6.24889,-3.8894 9.06259,-6.22075 1.88174,-1.55916 3.35144,-3.79953 4.9834,-5.61568 1.31063,-1.45854 3.51273,-2.98747 3.88372,-5.05649 0.51002,-2.84429 -4.41838,-4.35643 -6.17316,-6.09158 -2.40852,-2.38158 -3.48573,-3.78195 -5.24345,-6.62698 -0.83853,-1.35722 -2.12596,-2.42944 -2.95231,-3.84293 -0.57478,-0.98318 -0.84352,-2.22702 -1.29514,-3.28544 -0.79106,-1.8539 -1.73913,-3.72101 -2.24016,-5.66327 -0.38127,-1.478023 -0.53711,-3.155574 -0.63907,-4.667266 -0.19903,-2.951066 -1.05703,-6.110841 -1.35973,-9.144172 -0.32446,-3.251457 -0.25003,-6.484058 -0.39602,-9.732254 -0.12759,-2.838931 -1.01072,-5.648687 -1.27814,-8.462609 -0.33643,-3.540074 -0.24091,-7.162102 -0.55919,-10.70446 -0.34115,-3.796918 -1.43695,-7.508343 -2.08718,-11.25345 -0.351,-2.021586 -0.4881,-4.04092 -0.75975,-6.084783 -0.20156,-1.516464 -0.67872,-3.036931 -0.76145,-4.563588 -0.29139,-5.377426 -0.58721,-10.788713 -1.4804,-16.100881 -0.4704,-2.797599 0.17562,-6.18524 -2.15177,-8.324936 -0.84893,-0.780469 -3.46978,2.096267 -3.93132,2.597081 -1.65177,1.792346 -3.46295,3.296429 -4.91201,5.29954 -1.52601,2.10948 -7.31173,11.922482 -9.34304,12.533295 -1.38016,0.415013 -2.04544,-2.126412 -2.79934,-2.848631 -2.67396,-2.561613 -6.37852,-2.856364 -9.74075,-3.769846 -2.93043,-0.796166 -5.22563,-2.246375 -8.38102,-2.282644 -1.54087,-0.01771 -3.3271,-0.267196 -4.85423,-0.06459 -1.16794,0.154955 -2.32264,0.583036 -3.4962,0.656069 -1.21586,0.07567 -2.38978,-0.497541 -3.62368,-0.292341 -1.34866,0.224285 -2.640932,0.7907 -4.004398,0.922915 -4.653575,0.451256 -9.61866,-0.537258 -14.175167,0.526895 -1.406008,0.328367 -2.6578,1.195632 -4.045191,1.60108 -2.587753,0.756238 -5.17815,1.105019 -7.612778,2.362527 -1.913758,0.988474 -3.819945,2.057874 -5.687063,3.123976 -0.870954,0.497304 -1.532214,1.667033 -2.476405,1.884923 -1.643802,0.379339 -1.3739,-1.062783 -2.070186,-1.958009 C 61.8609,31.536067 61.282584,30.925352 60.82574,30.225057 59.941541,28.869673 59.543106,26.992156 58.349335,25.855231 57.574767,25.117547 56.584324,23.960575 55.663872,23.428116 55.17303,23.144176 54.362521,22.91973 53.988007,22.498402 53.249401,21.667471 53.185721,20.361593 52.62148,19.812939 51.497127,18.719646 50.449855,17.616774 49.344535,16.471407 48.474231,15.56957 47.286101,15.490701 46.553693,14.343432 46.23564,13.845223 46.401507,13.184714 46.028498,12.676066 45.457776,11.897809 44.24577,11.83693 43.543595,11.324836 42.926526,10.87481 42.295158,9.4871476 41.699464,9.9651078 c -1.029342,0.8259002 -0.1683,2.8314532 -1.043592,3.8191362"
       id="path465" />
    <path
       style="fill:#1a1a1a"
       d="m 95.24046,62.248355 c -0.622642,-0.05665 -1.811271,-0.792608 -1.867927,-0.169966 -0.05666,0.622643 2.409427,-0.142557 1.867927,0.169966 -0.895273,0.516701 -2.043325,0.317802 -3.057689,0.516697 -1.200732,0.235438 -2.783356,1.268095 -3.907519,1.828835 -0.567026,0.282836 -1.214362,0.248463 -1.796541,0.469106 -3.373964,1.278717 -5.974423,3.325426 -8.938513,5.292742 -1.355105,0.899406 -2.862013,1.489985 -4.176065,2.483203 -2.074742,1.568182 -3.599891,3.520158 -5.581684,5.170367 -1.424775,1.186388 -3.392351,1.644301 -4.628175,3.089982 -2.698814,3.157103 -3.918944,7.808389 -5.930114,11.425116 -3.567241,6.415039 -7.368746,11.303877 -6.074586,19.182367 0.737912,4.4922 1.903457,5.26358 4.344332,8.72945 0.350996,0.49839 0.502669,1.11494 0.873625,1.59428 0.597579,0.77218 1.331519,1.39104 1.779544,2.28945 0.799807,1.60382 1.83464,3.29734 2.523996,4.93581 0.561188,1.33384 0.704229,3.07709 1.691162,4.18286 1.793548,2.00953 4.632256,2.48275 6.779944,3.95681 2.305899,1.58265 4.416599,3.49253 6.609979,5.18567 2.048786,1.58151 4.584205,2.52677 6.892122,3.62537 1.067499,0.50815 2.020666,1.30856 3.156269,1.66567 2.494994,0.78459 5.46572,-0.32856 8.056389,0.24305 5.541945,1.22278 8.748004,2.22797 14.530394,1.32743 1.47802,-0.23018 3.27406,0.71093 4.82194,0.68667 1.708,-0.0268 3.27601,-0.7364 5.02419,-0.70366 1.04276,0.0195 1.86742,0.90401 3.0101,0.4861 1.05242,-0.3849 1.31777,-1.88484 2.31324,-2.34723 0.52907,-0.24575 1.21421,-0.0782 1.77274,-0.23455 1.51653,-0.42449 3.16194,-1.29312 4.47351,-2.18407 3.04868,-2.07097 4.77882,-5.82798 6.95841,-8.64957 2.40232,-3.10994 5.50072,-5.50451 7.38502,-9.02859 1.10656,-2.06953 1.54211,-4.47698 2.28265,-6.68307 0.72302,-2.15389 1.6218,-4.24811 2.15177,-6.4638 1.16926,-4.88847 3.11761,-9.87762 2.87242,-14.951916 -0.0895,-1.852466 -1.29913,-3.703538 -1.74895,-5.486503 -0.66269,-2.626766 -1.04134,-5.319196 -1.82033,-7.920416 -0.20291,-0.677524 -0.78156,-1.20376 -1.0113,-1.884923 -0.66448,-1.970121 -0.66927,-4.753077 -1.80334,-6.497801 -1.3215,-2.033077 -3.86342,-3.062879 -5.5256,-4.725056 -1.31938,-1.31938 -2.45261,-2.761032 -3.69676,-4.068986 -0.98415,-1.034625 -1.5104,-2.592524 -2.78404,-3.406119 -0.66082,-0.422127 -1.44058,-0.460667 -2.11948,-0.776745 -2.75575,-1.283005 -5.3344,-2.429637 -8.15497,-3.470706 -0.86599,-0.319637 -1.6028,-0.979858 -2.51549,-1.131974 -1.91749,-0.319581 -3.73401,0.398669 -5.58339,0.02379 -1.51885,-0.307875 -2.78424,-0.876136 -4.33583,-0.979004 -1.01781,-0.06748 -2.57274,-0.384571 -3.5268,-0.113877 -0.57762,0.16389 -1.13637,0.453471 -1.74045,0.518396 -0.89057,0.09572 -1.80129,-0.121818 -2.67696,0.04759 -1.78306,0.344951 -3.478735,2.023391 -5.226459,1.019796"
       id="path845" />
    <path
       style="fill:#00ffff"
       d="m 141.34034,36.624278 c 1.20292,-1.779965 2.35391,-3.604093 3.45371,-5.45251 1.44064,-2.421235 2.92561,-4.390715 4.88653,-6.35163 0.11176,-0.111765 1.17377,-1.482174 1.41581,-1.140472 0.5108,0.721121 0.0884,2.966929 0.0884,3.778345 0,4.320014 -0.31046,8.607796 -0.40452,12.897021 -0.009,0.40556 -0.10078,3.922816 -0.31444,3.922816 -0.15826,0 -0.96887,-1.570457 -1.23735,-1.771046 -2.7404,-2.047425 -4.81022,-4.289667 -7.88813,-5.882524 z"
       id="path912" />
    <path
       style="fill:#00ffff"
       d="m 48.552494,47.005803 c -0.411463,-2.645017 -1.000556,-5.248097 -1.788043,-7.808239 -0.683953,-2.22355 -0.411586,-5.022842 -0.430014,-7.337433 -0.0035,-0.442514 0.596075,-8.325598 0.64757,-8.335134 0.736244,-0.136341 1.224682,1.020506 1.643572,1.409018 0.3635,0.337139 0.950147,0.473892 1.237353,0.914417 0.963164,1.477335 5.509693,8.942417 5.428714,10.525996 -0.07637,1.493475 -2.538038,4.533034 -3.025395,6.375426 -0.05445,0.205843 -1.57399,4.40638 -1.658868,4.408918 -0.686552,0.02053 -1.369926,-0.101979 -2.054889,-0.152969 z"
       id="path977" />
    <path
       style="fill:#00ffff"
       d="m 93.720964,155.34384 c 0.626596,0.20906 -1.535689,3.86635 -0.436813,4.32904 0.50951,0.21453 1.211889,-0.1009 1.714957,-0.12918 0.71827,-0.0404 1.390745,0.29156 2.15177,0.12918 1.117127,-0.23837 2.127637,-1.11997 3.236152,-1.34273 1.39125,-0.27958 5.15378,0.20863 6.17317,-0.74445 1.02031,-0.95396 0.92085,-3.04088 -0.0255,-3.98061 -0.88113,-0.87497 -5.39365,0.57713 -6.51989,0.30764 -0.504055,-0.12061 -0.903737,-0.529 -1.400525,-0.64757 -1.058465,-0.25264 -4.435454,1.8342 -4.893321,2.07868 z"
       id="path979" />
    <path
       style="fill:#00ffff"
       d="m 70.751755,157.28995 c 3.029363,2.63501 6.52381,2.42686 10.242153,3.25315 1.038389,0.23076 1.769091,1.27149 2.823135,1.39033 1.636864,0.18454 3.499733,-0.15193 5.129575,0.13087 2.065705,0.35843 3.850822,1.09607 5.817937,1.69116 0.977655,0.29576 1.917821,-0.21704 2.870726,-0.0816 1.146056,0.16292 2.301469,0.48187 3.431609,0.65437 0.96355,0.14707 1.75205,1.074 2.77385,1.18126 2.0317,0.21327 4.48242,-0.414 6.56239,-0.5014 0.84375,-0.0354 1.67777,0.15467 2.507,0.15467 3.04997,0 6.32102,-0.5915 9.26315,-1.25435 1.61459,-0.36376 2.82103,0.96303 3.87522,0.70366 1.85897,-0.45736 3.85316,-0.93309 5.63947,-1.56879 2.44036,-0.86845 6.27376,-4.60586 8.61558,-2.36252 1.15452,1.10596 5.04927,10.85981 4.32904,12.03019 -0.456,0.741 -1.31103,1.11702 -1.86963,1.76425 -0.75499,0.87478 -1.16703,1.99874 -1.89172,2.89622 -1.14279,1.41526 -2.53599,2.37261 -3.28545,4.12678 -0.5532,1.29482 0.28487,3.74126 0.20226,5.17716 -0.14972,2.60255 -0.96689,4.91306 -0.84983,7.56519 0.0833,1.88639 1.10982,5.787 -0.4929,7.29834 -3.12978,2.95133 -6.8597,4.63511 -10.88972,6.18846 -1.13184,0.43626 -2.47718,0.7263 -3.5268,1.35123 -0.69604,0.41442 -1.13921,1.10424 -1.89342,1.47361 -1.52915,0.74889 -3.21698,1.33581 -4.70806,2.11947 -0.94294,0.49558 -1.68,1.32318 -2.62937,1.78805 -1.22434,0.5995 -2.69136,0.55939 -3.94831,1.09118 -0.97815,0.41383 -5.72865,3.19141 -6.75615,2.79934 -0.81355,-0.31044 -1.29298,-1.12837 -2.127975,-1.43112 -0.391388,-0.1419 -0.862443,-10e-4 -1.228854,-0.14617 -1.043613,-0.41218 -2.609842,-1.35251 -3.479205,-2.15177 -0.433354,-0.3984 -0.579204,-1.08111 -1.019796,-1.43281 -1.015841,-0.81089 -3.056818,-0.54676 -3.543791,-0.82434 -1.117281,-0.63685 -2.292044,-1.21826 -3.55059,-1.4974 -1.439394,-0.31924 -2.888413,0.48851 -4.337533,0.5099 -1.065247,0.0157 -1.871356,-0.96468 -2.911518,-1.05209 -2.626843,-0.22074 -5.378607,0.46403 -6.521596,-2.35403 -0.849073,-2.0934 -0.616026,-2.51487 -0.5014,-4.69276 0.08952,-1.70083 -0.238761,-3.27028 0.04079,-5.0004 0.752258,-4.65564 2.883297,-9.07465 2.523995,-13.85903 -0.315102,-4.19583 -0.05221,-3.70154 -3.122276,-5.73635 -0.637105,-0.42227 -1.144079,-1.44493 -1.813537,-1.71496 -1.069652,-0.43146 -3.38057,-1.23714 -4.05199,-2.30644 -1.939074,-3.08815 0.230597,-6.63654 0.792041,-9.69146 0.105909,-0.57627 -0.03211,-1.07586 0.219257,-1.65887 0.90373,-2.09604 2.312368,-3.92656 3.292241,-6.0202 z"
       id="path989" />
    <path
       style="fill:#e6e6e6;fill-opacity:1"
       d="m 112.20647,214.6025 c 0.74462,8.82528 2.07709,17.60383 3.88372,26.29374 0.53594,2.57786 1.63149,5.00229 2.10248,7.58218 1.34935,7.3912 1.4244,16.03365 7.985,21.0197 0.79672,0.6055 1.87217,1.78805 2.93702,1.78805 4.5165,0 6.69911,-5.05352 8.13117,-8.44732 1.27982,-3.03299 1.1438,-6.66691 1.37503,-9.88692 0.0787,-1.09554 0.38722,-2.13934 0.4776,-3.24465 0.2028,-2.48009 -0.15032,-4.95228 -0.19376,-7.43431 -0.0554,-3.16464 0.57021,-6.11751 0.67137,-9.25635 0.0856,-2.65699 -0.66145,-5.17255 -0.82604,-7.79125 -0.10368,-1.64964 -0.29984,-3.43445 -0.29064,-5.08878 0.007,-1.2569 0.59751,-2.61252 0.53369,-3.82763 -0.13928,-2.65209 -1.2762,-5.07675 -1.59258,-7.65357 -0.23638,-1.92531 0.23126,-3.52963 -0.65607,-5.29105 -0.30347,-0.60241 -3.37503,2.36212 -4.06219,2.63788 -2.73921,1.09923 -5.6153,1.86085 -8.29094,3.11377 -2.09643,0.9817 -6.31464,4.94115 -8.64957,2.77555"
       id="path991" />
    <path
       style="fill:#e6e6e6;fill-opacity:1"
       d="m 96.948618,216.63189 c -2.710304,6.03579 -2.285826,12.71404 -3.171566,19.06339 -0.282119,2.02235 -0.942025,4.11562 -0.858328,6.17317 0.229568,5.64353 -2.631528,19.38004 -6.009999,24.09268 -0.775759,1.08211 -2.016283,1.64333 -3.018596,2.42032 -1.007007,0.78062 -1.906959,1.67763 -3.219157,1.25435 -2.207793,-0.7122 -3.265379,1.39165 -6.65077,-0.62378 -0.508515,-0.30273 -1.092195,-0.68858 -1.39882,-1.22206 -0.390494,-0.67939 -0.405569,-1.56201 -0.567687,-2.31323 -0.939963,-4.35561 -1.685234,-7.97385 -1.714957,-12.55709 -0.01228,-1.89419 -0.333047,-3.78554 -0.290642,-5.68707 0.137263,-6.15515 0.872551,-12.42514 2.207859,-18.40732 0.812311,-3.63915 0.0965,-7.45024 0.656069,-11.10048 0.223302,-1.45665 0.582326,-2.90489 0.832833,-4.36133 0.233131,-1.35541 0.153079,-2.86984 0.696861,-3.84293 0.03936,-0.0704 0.347039,0.0945 0.411318,0.0901 1.240958,-0.0848 2.426351,0.32031 3.681464,0.15296 0.761738,-0.10156 1.616398,0.55724 2.354029,0.72746 0.293922,0.0678 1.034031,-0.6005 1.40052,-0.63907 0.392384,-0.0413 0.754227,0.5468 1.140472,0.59998 0.834776,0.11493 1.838771,-0.39267 2.629374,0.007 0.882987,0.44614 2.112476,0.53197 2.993102,1.09288 0.880101,0.56057 3.240511,2.82551 3.892222,3.09848 2.039341,0.85417 1.339516,0.025 4.004399,1.9818 z"
       id="path1200" />
    <path
       style="fill:#e6e6e6;fill-opacity:1"
       d="m 145.87844,175.0956 c 0.60436,2.25439 2.36242,4.5127 2.38632,6.93291 0.0239,2.41695 0.39241,4.55617 1.26285,6.68306 1.12809,2.75648 1.65939,7.54314 4.28654,9.06939 1.89774,1.1025 4.70222,-2.23157 5.70406,-3.35683 1.31945,-1.48199 4.79774,-5.44012 6.4893,-6.34313 2.01206,-1.07411 4.70396,-0.59263 6.76295,-1.5212 2.47041,-1.11411 10.95651,-5.52075 13.17917,-5.11427 1.44182,0.26368 1.94135,1.41245 2.9608,2.26564 0.6798,0.56893 1.96953,0.93959 2.33024,1.83734 1.49218,3.71388 -0.32485,6.21097 -3.92452,7.28984 -1.54686,0.46361 -2.92742,1.35515 -4.62647,1.30194 -0.54552,-0.0171 -0.82697,-0.32674 -1.31894,-0.4929 -1.5383,-0.51956 -5.7893,-1.04293 -7.40202,-0.33144 -0.65915,0.29081 -1.17187,0.85552 -1.78124,1.22036 -1.49773,0.89669 -3.1414,1.84093 -4.42422,3.02709 -2.42298,2.24044 -4.1932,5.1339 -6.58618,7.39353 -0.66465,0.6276 -1.32025,1.5266 -2.11098,1.9903 -1.32431,0.7766 -2.55983,1.11563 -4.0044,1.58578 -0.86985,0.2831 -1.66621,0.96209 -2.58178,1.09288 -0.95901,0.137 -1.97545,-0.26538 -2.94551,-0.29064 -3.90249,-0.10163 -3.11322,1.49199 -6.64058,-1.0113 -1.24749,-0.88532 -2.93291,0.4506 -3.82763,-0.74445 -0.6478,-0.86524 -0.13573,-1.94474 -0.43681,-2.85713 -2.28435,-6.92225 2.85387,-0.29535 6.57768,-1.43111 1.17258,-0.35764 2.98579,-1.54922 2.44241,-3.05769 -0.48228,-1.33886 -2.23721,-2.82255 -2.94381,-4.27295 -0.83192,-1.70761 -1.0861,-3.45698 -1.52969,-5.28254 -0.30204,-1.24302 -0.94719,-2.50653 -1.33424,-3.73755 -0.86382,-2.74744 -3.60481,-4.63667 -1.95801,-7.87283 1.22895,-2.41501 3.7547,-2.79054 5.99471,-3.9721 z"
       id="path1202" />
    <path
       style="fill:#e6e6e6;fill-opacity:1"
       d="m 73.299546,180.36114 c 0.03172,2.3286 -1.190086,4.20654 -1.956309,6.31084 -0.359608,0.9876 -0.363019,1.99139 -0.817536,2.95401 -0.603188,1.27749 -2.112678,7.45253 -2.112678,8.91642 0,1.11549 -0.258356,2.28214 -0.654369,3.34833 -0.558921,1.50478 -2.044846,2.65558 -2.993102,3.90072 -1.048601,1.3769 -1.366866,3.31261 -3.130774,4.17436 -1.194903,0.58377 -2.965614,0.27037 -3.382324,-1.17276 -1.264272,-4.37838 0.22,-15.26868 2.184064,-19.36933 1.41743,-2.95936 3.681259,-5.95842 4.368126,-9.22406 0.150025,-0.71327 1.530036,-5.03026 2.338733,-5.12957 0.121851,-0.015 0.542081,0.51558 0.615277,0.59148 0.818707,0.84903 1.965789,1.26584 2.937013,1.90872 1.06094,0.70227 1.723282,1.87252 2.603879,2.79084 z"
       id="path1204" />
    <path
       style="fill:#00ffff;fill-opacity:1"
       d="m 145.78156,199.79846 c 0.45773,-0.35367 4.92538,-5.111 6.11537,-4.516 0.36106,0.18053 0.51682,1.75491 0.67137,2.14497 0.61998,1.5647 1.75332,3.52732 1.05209,5.25875 -1.14137,2.8182 -4.70656,0.95245 -6.03549,-0.67986 -0.59995,-0.73691 -1.20223,-1.47191 -1.80334,-2.20786 z"
       id="path1206" />
    <path
       style="fill:#00ffff;fill-opacity:1"
       d="m 58.413922,198.15489 c 0.581807,2.63115 7.696057,3.53208 8.075086,4.42591 0.252012,0.5943 -0.914739,1.83863 -1.245851,2.28264 -2.805306,3.76187 -6.91458,11.72647 -8.171967,1.90022 -0.125146,-0.97799 0.08476,-1.90885 0.137673,-2.88772"
       id="path1210" />
    <path
       style="fill:#00ffff;fill-opacity:1"
       d="m 119.25326,255.14619 c 0.61188,0.1864 1.20013,0.48657 1.83563,0.55919 1.40853,0.16095 10.86781,-1.30911 12.71006,-1.86113 1.44256,-0.43226 3.42712,-1.87538 4.95961,-1.76425 1.40531,0.10192 -0.7125,4.03136 -0.80904,4.70976 -0.67016,4.70936 -2.07241,11.55452 -7.5159,13.08229 -0.95117,0.26695 -1.91073,0.0766 -2.87242,0.11218 -5.80717,0.21466 -6.37278,-7.83386 -8.17027,-11.66647"
       id="path1212" />
    <path
       style="fill:#00ffff;fill-opacity:1"
       d="m 72.337538,253.77117 c 1.736127,-0.21368 3.554499,-0.33256 5.323336,-0.0884 1.727837,0.23852 3.662534,1.10608 5.379425,1.08269 2.076208,-0.0283 4.97683,-1.07958 6.917617,-0.40452 0.52434,0.18238 -1.96091,5.50009 -2.207859,6.18166 -0.336299,0.92819 -0.339464,2.10893 -0.793741,2.96251 -0.416839,0.78323 -3.975268,5.07256 -4.684264,5.63777 -0.603957,0.48148 -1.621338,0.54108 -2.354029,0.63228 -3.474317,0.43242 -4.774722,0.51199 -7.313638,-1.91722 -1.292662,-1.23681 -1.964715,-2.73428 -1.867926,-4.54829 0.108675,-2.03679 0.928946,-3.65429 1.44811,-5.55789"
       id="path1216" />
  </g>
  <g
     inkscape:groupmode="layer"
     id="layer4"
     inkscape:label="Layer 4"
     style="display:inline">
    <path
       style="fill:#000000"
       id="path366"
       d="m 134.87219,35.181276 c 1.02201,-0.254954 1.57148,-1.047609 2.1799,-1.839008 1.25794,-1.899287 2.7161,-3.646864 4.21258,-5.359957 1.95939,-2.169039 3.75683,-4.473731 5.6228,-6.721237 1.84392,-2.144119 3.8163,-4.17411 5.75664,-6.230509 0.7895,-0.824688 1.58695,-1.64291 2.43427,-2.408864 0.006,-0.0054 1.15629,-0.986509 1.21366,-1.099061 0.0897,-0.17602 0.0212,-0.394575 0.0317,-0.591862 -0.60162,-0.835354 -0.34997,-0.470423 -0.76581,-1.0872113 0,0 -0.15756,-0.096676 -0.15756,-0.096676 v 0 c -0.86906,-0.1799371 -0.34867,-0.065738 -1.55697,-0.3611827 -0.26557,0.04109 -0.55086,0.014751 -0.79669,0.1232713 -0.23117,0.1020438 -1.08833,0.9975237 -1.21045,1.1219417 -0.79714,0.812168 -1.58014,1.638666 -2.33246,2.492707 -1.89208,2.09948 -3.8272,4.160749 -5.66277,6.310394 -1.85231,2.258609 -3.69843,4.523806 -5.67609,6.675318 -1.52696,1.71351 -3.07927,3.404203 -4.52485,5.188374 -0.58322,0.668503 -1.31896,1.238072 -1.67995,2.064741 0,0 2.91201,1.818821 2.91201,1.818821 z" />
    <path
       style="fill:#000000"
       id="path368"
       d="m 64.357393,34.428348 c -0.08572,-0.084 -0.179558,-0.160437 -0.257157,-0.251987 -0.203378,-0.239941 -0.367405,-0.511131 -0.566439,-0.754687 -0.576576,-0.70555 -1.174364,-1.391586 -1.745693,-2.101855 -1.621561,-2.268936 -3.509133,-4.322032 -5.385306,-6.37832 -1.563431,-1.91648 -3.251332,-3.726794 -4.810861,-5.646058 -1.367823,-1.471809 -2.847867,-2.826024 -4.131338,-4.376083 -0.638751,-0.744318 -1.267058,-1.497805 -1.748422,-2.354117 -0.202962,-0.395428 -0.199268,-0.242049 -0.770714,-0.424875 -1.061392,-0.706893 -0.656686,-0.383355 -1.265262,-0.902931 0,0 -0.123824,-0.08674 -0.123824,-0.08674 v 0 c -0.757479,-0.468866 -0.276455,-0.172993 -1.446721,-0.881656 -0.21229,-0.05339 -0.41921,-0.1369 -0.636871,-0.160158 -0.144926,-0.01549 -0.03161,0.660748 0.08428,0.6277 0.648895,0.920102 1.407483,1.761334 2.152805,2.602727 1.493097,1.567616 2.986917,3.135053 4.599453,4.582458 2.022266,1.932481 3.789827,4.107095 5.798212,6.055658 1.923747,2.087787 3.75607,4.249273 5.563485,6.438083 0.88397,1.077375 1.710765,2.204457 2.700442,3.188009 0,0 1.989928,0.824829 1.989928,0.824829 z" />
    <path
       style="fill:#000000"
       id="path370"
       d="m 155.67295,11.991411 c -4.71848,-2.5079995 -2.36866,-1.650763 -1.83743,-0.904113 0.16156,0.227081 0.26435,0.5255 0.37051,0.779037 0.45255,1.078941 0.49762,2.255845 0.69212,3.395176 0.27686,1.713685 0.50661,3.435354 0.73762,5.155891 0.27902,2.116301 0.39786,4.251567 0.5083,6.382395 0.0869,2.407471 0.25277,4.810239 0.34343,7.217493 0.0597,2.318747 0.20716,4.633381 0.47216,6.937567 0.26222,1.973187 0.67124,3.92176 1.04393,5.87579 0.42293,2.011713 0.68032,4.049107 0.8693,6.094197 0.18477,2.053738 0.32852,4.11088 0.47556,6.167594 0.12994,1.908323 0.35096,3.808577 0.54302,5.711268 0.22005,2.205298 0.4576,4.408861 0.66897,6.615038 0.24501,2.407574 0.44626,4.818931 0.64682,7.230484 0.2031,2.700455 0.34635,5.404544 0.56781,8.103721 0.23175,2.692006 0.5121,5.379751 0.85619,8.059704 0.33826,2.460428 0.93697,4.873936 1.73409,7.223367 0.94645,2.44397 2.23554,4.73461 3.46588,7.04288 1.13513,2.08924 2.21793,4.20601 3.33113,6.30681 0.93389,1.90281 2.25722,3.5431 3.66991,5.10485 1.17154,1.26155 2.42986,2.43864 3.75715,3.53414 2.00049,1.46928 4.12685,2.8616 6.45922,3.72937 0.17787,0.0544 0.16067,0.10376 0.1563,-0.0119 0,0 -3.7045,-2.86822 -3.7045,-2.86822 v 0 c -0.25564,-0.1529 -0.13505,-0.0954 -0.35558,-0.18475 -1.51833,-0.6291 -3.76905,-2.1024 2.90921,1.78304 0.37609,0.21881 -1.61402,-0.93387 -1.10293,-0.69817 -1.38221,-1.06364 -2.6673,-2.24476 -3.87302,-3.50508 -1.45316,-1.54053 -2.84113,-3.14814 -3.81986,-5.04328 -1.13367,-2.10843 -2.18947,-4.25871 -3.38577,-6.33356 -1.24296,-2.27554 -2.4794,-4.56344 -3.46403,-6.96547 -0.84453,-2.31658 -1.42107,-4.699768 -1.7648,-7.143384 -0.4507,-2.687821 -0.80737,-5.389837 -1.01773,-8.108023 -0.22406,-2.692999 -0.42699,-5.387107 -0.54041,-8.087494 -0.17242,-2.412517 -0.44232,-4.816784 -0.62747,-7.228431 -0.19843,-2.195926 -0.4124,-4.390354 -0.6121,-6.586084 -0.15695,-1.901153 -0.31246,-3.802385 -0.52537,-5.698301 -0.19524,-2.055079 -0.33439,-4.114478 -0.47914,-6.1736 -0.18799,-2.057786 -0.48567,-4.100723 -0.85596,-6.133783 -0.36041,-1.961935 -0.78486,-3.911547 -1.11036,-5.879607 -0.323,-2.321691 -0.49378,-4.659717 -0.66446,-6.99683 -0.14901,-2.420276 -0.1544,-4.847637 -0.40252,-7.261327 -0.23333,-2.153244 -0.47728,-4.305799 -0.63206,-6.466477 -0.22518,-1.746212 -0.50788,-3.484158 -0.81036,-5.218564 -0.28011,-1.275732 -0.74085,-2.490109 -1.192,-3.713808 -0.6986,-1.61768 -2.1324,-2.198046 -3.71675,-3.025995 0,0 2.21598,1.786469 2.21598,1.786469 z" />
    <path
       style="fill:#000000"
       id="path376"
       d="m 41.355006,9.3041674 c -0.265298,1.1944056 -0.221983,2.4389566 -0.228492,3.6559016 0.04943,2.383576 0.04183,4.767604 0.07429,7.151423 -0.06019,2.16903 0.305241,4.484528 0.103657,6.639852 -0.03658,0.391063 -0.135178,0.77382 -0.202767,1.16073 -0.09153,2.101435 -0.04291,4.206336 -0.01084,6.308769 0.01048,1.816256 0.104271,3.630352 0.185738,5.444347 0.0043,1.064347 0.131185,2.139201 0.05842,3.203941 -0.02353,0.344356 -0.111847,0.682022 -0.138874,1.026121 -0.04416,0.562173 -0.02185,1.676224 -0.0171,2.228961 0.0038,2.318132 0.0063,4.636048 0.0377,6.954052 0.02981,2.358944 -6.3e-4,4.717772 -0.02329,7.076603 -0.02502,2.542809 -0.08123,5.084642 -0.156638,7.626415 -0.09255,2.66774 -0.179957,5.337029 -0.489971,7.989596 -0.112282,0.407379 -0.249821,0.808626 -0.336848,1.222137 -0.117446,0.558047 -0.286547,2.086944 -0.355377,2.638597 -0.169436,1.357986 -0.372908,2.70905 -0.580297,4.06164 -0.425348,2.656157 -0.802569,5.318972 -1.2421,7.972909 -0.454938,2.777499 -0.93596,5.550187 -1.443891,8.31843 -0.45324,2.527088 -0.946478,5.046738 -1.473946,7.559338 -0.438296,2.07587 -1.036518,4.11118 -1.631635,6.14593 -0.521505,1.80653 -1.117909,3.58733 -1.817188,5.33258 -0.641436,1.59004 -1.371733,3.14054 -2.123776,4.68048 -0.615299,1.21853 -1.207046,2.44869 -1.817688,3.66956 -0.495921,1.02564 -1.010364,2.04242 -1.498954,3.0716 -0.06597,0.15227 -0.201646,0.2909 -0.197898,0.4568 0.01512,0.66921 0.616435,0.9703 0.988621,1.41914 0.08058,0.0972 0.114212,0.22516 0.171318,0.33773 0,0 0.193878,0.10343 0.193878,0.10343 v 0 c 0.889255,-0.36623 1.450501,0.64559 1.86356,-0.61027 0.465894,-1.03831 0.95975,-2.06348 1.464237,-3.08356 0.583199,-1.23788 1.148503,-2.48403 1.727183,-3.72403 0.723745,-1.56298 1.427581,-3.13596 2.089295,-4.72625 0.679846,-1.76586 1.281363,-3.55986 1.783992,-5.3848 0.592078,-2.05075 1.155544,-4.11357 1.572902,-6.20782 0.492294,-2.53399 0.897462,-5.08378 1.373006,-7.62096 0.483865,-2.772927 0.97874,-5.543844 1.452351,-8.318554 0.436834,-2.654315 0.874987,-5.30901 1.252545,-7.972504 0.198329,-1.355916 0.397431,-2.712228 0.579943,-4.070383 0.09238,-0.687413 0.270128,-1.987996 0.27978,-2.686163 0.0066,-0.48016 -0.04638,-0.95929 -0.06957,-1.438935 0.140062,-2.679311 0.334991,-5.355719 0.42444,-8.037644 0.0885,-2.536776 0.142921,-5.074853 0.19385,-7.612596 0.03858,-2.354123 0.07385,-4.709074 0.06405,-7.063381 -0.03476,-2.318737 -0.09177,-4.637452 -0.04864,-6.956662 8.48e-4,-0.665382 0.0172,-1.595103 -0.04192,-2.260717 -0.03511,-0.395277 -0.126725,-0.784214 -0.160968,-1.179567 -0.09246,-1.067497 -0.02044,-2.147748 -0.07563,-3.216792 -0.03579,-1.806864 -0.07495,-3.61397 -0.138883,-5.419994 -0.09363,-2.142121 -0.160509,-4.284511 -0.232937,-6.42726 -0.07276,-0.458569 -0.171567,-0.913757 -0.218285,-1.375706 -0.223391,-2.208908 -0.0063,-4.456674 -0.161987,-6.670022 -0.0376,-2.355049 -0.0228,-4.711719 0.08219,-7.065059 0.05781,-1.16497 0.09983,-2.35117 0.457189,-3.471369 0,0 -1.537745,-0.8560146 -1.537745,-0.8560146 z" />
    <path
       style="fill:#000000"
       id="path378"
       d="m 25.506107,130.14446 c 0.612523,0.68191 1.305573,1.2771 1.98805,1.88678 1.098557,1.00074 2.41967,1.72164 3.679144,2.49807 1.794118,1.10328 3.441142,2.41976 5.103011,3.70782 1.944023,1.47908 3.926967,2.90464 5.962244,4.25522 1.90328,1.19448 3.786592,2.42014 5.678756,3.63209 2.053934,1.25444 4.065854,2.57331 6.073415,3.9 3.051537,2.03051 6.299286,3.70619 9.62141,5.23002 1.642105,0.72524 3.292546,1.43102 4.929103,2.16883 1.518923,0.68378 3.02683,1.39086 4.531851,2.10452 1.53147,0.70315 3.137393,1.22652 4.742479,1.73211 1.609368,0.48068 3.250104,0.84782 4.88302,1.23843 1.716361,0.40276 3.462406,0.65412 5.182495,1.0385 1.68157,0.46206 3.364766,0.91399 5.071975,1.27126 1.838425,0.31514 3.686695,0.57138 5.53154,0.84659 1.9149,0.24023 3.83658,0.42676 5.75816,0.60503 1.96698,0.16987 3.94024,0.26276 5.91384,0.30444 1.90811,0.0236 3.81513,0.0435 5.72205,0.11768 1.80358,0.0674 3.60649,-0.0392 5.40317,-0.18813 1.63524,-0.16922 3.25389,-0.46817 4.86871,-0.77087 1.53571,-0.28139 3.06732,-0.58625 4.58085,-0.97037 1.35918,-0.33961 2.6396,-0.90951 3.91464,-1.47733 1.31353,-0.58239 2.57238,-1.27349 3.8271,-1.97076 1.08204,-0.62446 2.13293,-1.3007 3.1841,-1.97525 1.05278,-0.70485 2.12255,-1.38079 3.22574,-2.0039 1.17495,-0.64563 2.37153,-1.25144 3.56907,-1.85392 1.17049,-0.59678 2.32785,-1.21882 3.49674,-1.81865 1.313,-0.60638 2.53342,-1.38166 3.80479,-2.0646 1.14458,-0.60905 2.28244,-1.22308 3.36861,-1.93209 1.08289,-0.7807 2.1757,-1.54766 3.25723,-2.33023 1.11134,-0.77124 2.17019,-1.61093 3.22081,-2.46169 0.97442,-0.8077 1.89442,-1.67499 2.8615,-2.49174 0.89555,-0.75278 1.76746,-1.52846 2.67438,-2.26793 0.80992,-0.61434 1.48612,-1.37626 2.19652,-2.09822 0.65257,-0.68901 1.30548,-1.37872 1.93576,-2.08837 0.62941,-0.72439 1.24706,-1.45878 1.90074,-2.16154 0.63384,-0.66315 1.35555,-1.23238 2.05227,-1.82643 0.65898,-0.57395 1.32923,-1.13432 1.98092,-1.71669 0.59101,-0.54867 1.14155,-1.13904 1.681,-1.73788 0.005,-0.006 0.47013,-0.54662 0.47775,-0.564 0.21201,-0.48401 -0.36578,-1.36194 -0.55108,-1.81854 -0.60331,-0.79093 -0.52698,-0.39986 -0.52276,-1.07499 0,0 -0.13329,-0.0713 -0.13329,-0.0713 v 0 c -0.23637,0.52307 -0.0268,0.3086 -0.83792,0.32717 -0.98378,0.33867 -1.49344,-0.0602 -2.15084,0.95404 -0.51948,0.59666 -1.06155,1.17325 -1.65298,1.69987 -0.6355,0.58718 -1.27751,1.1689 -1.94648,1.71784 -0.71994,0.59347 -1.44781,1.18207 -2.07635,1.87531 -0.65365,0.70857 -1.29469,1.42789 -1.91837,2.16305 -0.62004,0.70744 -1.25065,1.40522 -1.90662,2.07967 -0.70887,0.72623 -1.49902,1.34453 -2.28306,1.98714 -0.92071,0.74894 -1.88394,1.43941 -2.78728,2.20917 -0.96175,0.82705 -1.93803,1.63449 -2.90669,2.45325 -1.03039,0.85591 -2.09623,1.66973 -3.19724,2.43297 -1.12697,0.75094 -2.26258,1.48891 -3.40628,2.21413 -1.08448,0.68222 -2.20494,1.30424 -3.331,1.9149 -1.28758,0.70579 -2.6304,1.30267 -3.94163,1.96271 -1.16464,0.60323 -2.32233,1.21967 -3.48642,1.82396 -1.19271,0.62244 -2.39913,1.21868 -3.57587,1.87151 -1.12313,0.62482 -2.22908,1.2762 -3.29373,1.99765 -1.03078,0.67373 -2.05328,1.36263 -3.11973,1.97938 -1.24267,0.70406 -2.5245,1.3342 -3.82912,1.91545 -1.24973,0.56038 -2.51958,1.08832 -3.85494,1.41068 -1.51705,0.36265 -3.04392,0.68177 -4.58417,0.93047 -1.59641,0.28029 -3.18368,0.63563 -4.80352,0.75678 -1.79214,0.14045 -3.58969,0.20328 -5.38709,0.13112 -1.89079,-0.0473 -3.7823,-0.0268 -5.67297,-0.0803 -1.96716,-0.074 -3.93622,-0.13449 -5.89615,-0.33072 -1.927254,-0.18479 -3.85509,-0.37381 -5.772205,-0.64711 -1.840391,-0.26524 -3.689249,-0.48928 -5.510065,-0.87259 -1.634599,-0.36816 -3.243341,-0.85411 -4.897054,-1.13064 -1.725575,-0.31509 -3.453792,-0.62405 -5.158494,-1.04054 -1.628289,-0.39094 -3.268604,-0.74312 -4.861494,-1.26638 -1.597401,-0.52167 -3.195759,-1.05538 -4.712346,-1.78672 -1.502866,-0.70802 -3.008827,-1.4091 -4.525359,-2.08752 -1.616505,-0.72192 -3.247593,-1.40989 -4.867518,-2.12397 -0.90953,-0.41378 -1.817378,-0.83038 -2.708008,-1.28401 -0.322321,-0.16416 -1.269018,-0.6937 -0.960909,-0.5042 0.612428,0.37667 4.733574,2.78469 1.872372,1.07087 -2.007434,-1.31331 -3.999365,-2.65011 -6.049548,-3.89692 -1.954575,-1.24751 -3.906012,-2.49966 -5.885717,-3.70726 -2.086731,-1.35229 -4.131421,-2.77186 -6.110944,-4.27724 -1.635652,-1.27449 -3.242461,-2.59569 -4.993927,-3.71129 -1.343742,-0.85161 -2.762809,-1.58819 -4.023854,-2.56507 -0.746789,-0.63481 -1.482201,-1.28603 -2.209497,-1.94145 0,0 -3.426796,-1.42713 -3.426796,-1.42713 z" />
    <path
       style="fill:#000000"
       id="path380"
       d="m 65.886212,36.397497 c 0.660716,-1.153073 1.731165,-1.963876 2.779669,-2.740058 0.952915,-0.794028 2.107325,-1.183095 3.223654,-1.665963 1.200046,-0.51908 2.358606,-1.13879 3.514964,-1.746472 2.088571,-1.251873 4.360843,-1.99826 6.719329,-2.529088 2.145108,-0.392617 4.326638,-0.563226 6.496834,-0.763794 1.97376,-0.166535 3.919308,-0.536011 5.86208,-0.907853 1.594197,-0.344384 3.214862,-0.496264 4.839737,-0.591888 1.522861,-0.02863 3.041561,-0.117403 4.558651,-0.249534 1.69715,-0.1762 3.39432,-0.35007 5.09826,-0.443922 1.68043,-0.04445 3.3616,-0.0372 5.04235,-0.0203 1.48018,0.01237 2.95983,0.0609 4.43693,0.156839 1.35354,0.06598 2.67569,0.329435 3.97105,0.714818 1.18916,0.354605 2.31624,0.862534 3.41857,1.425564 1.03211,0.575247 2.10576,1.065398 3.19216,1.527247 0.42955,0.186758 0.65939,0.278689 1.07743,0.492744 0.17653,0.09039 0.69411,0.383979 0.52242,0.284717 -6.46625,-3.738397 -3.99128,-2.368928 -2.62749,-1.428759 0.86073,0.61418 1.66209,1.305054 2.51193,1.933414 0.93652,0.75744 2.04816,1.234068 3.12552,1.750191 0,0 0.24997,0.09931 0.24997,0.09931 v 0 c 0.30184,0.07683 1.52713,0.585771 0.76474,-0.175418 -0.67744,-0.697885 -1.48438,-1.259872 -2.24065,-1.867527 -2.20868,-1.598752 -4.60473,-2.950161 -7.10648,-4.032374 -1.07639,-0.472126 -2.12841,-0.993284 -3.16853,-1.540631 -1.11432,-0.537243 -2.25862,-1.010809 -3.45376,-1.339326 -1.31523,-0.339966 -2.65486,-0.569198 -4.01498,-0.621865 -1.45991,-0.0713 -2.92139,-0.09881 -4.38306,-0.08852 -1.69065,-0.0053 -3.38326,-0.04013 -5.07254,0.03711 -1.70654,0.115273 -3.40573,0.312972 -5.11104,0.444032 -1.528282,0.104534 -3.058011,0.148106 -4.587723,0.222364 -1.619189,0.120032 -3.225218,0.333954 -4.812729,0.681809 -1.909511,0.373842 -3.820657,0.756315 -5.762043,0.925989 -2.149754,0.220444 -4.312945,0.380866 -6.418801,0.896883 -2.304461,0.619522 -4.467613,1.618074 -6.551223,2.77641 -1.06776,0.624831 -2.161028,1.245837 -3.151633,1.991553 -0.910392,0.685333 -1.741812,1.482943 -2.786259,1.980748 -1.157967,0.760477 -2.269376,1.588177 -3.163921,2.658298 0,0 3.006614,1.753254 3.006614,1.753254 z" />
    <path
       style="fill:#000000"
       id="path384"
       d="m 51.543208,111.20828 c 0.08739,-0.38643 0.105149,-0.50978 0.248239,-0.91275 0.346093,-0.97465 0.191189,-0.33436 0.510596,-1.41386 0.265258,-0.89649 0.259914,-1.01095 0.438434,-1.96417 0.401068,-2.35406 1.074019,-4.64831 1.817839,-6.91347 0.770703,-2.440596 1.938095,-4.718674 3.101924,-6.988033 1.187818,-2.38962 2.688954,-4.590843 4.238148,-6.755219 1.076493,-1.391671 2.055083,-2.869519 3.237005,-4.177696 0.37575,-0.415888 1.788065,-1.803909 2.172261,-2.184552 2.313759,-2.271716 4.799732,-4.360201 7.328022,-6.387286 2.424096,-1.983001 5.100507,-3.605469 7.829403,-5.125866 2.49288,-1.400089 5.004918,-2.761193 7.664287,-3.818285 1.751724,-0.663317 3.573763,-1.082129 5.424433,-1.342577 1.375941,-0.140851 2.736023,-0.396634 4.093269,-0.657021 1.500542,-0.336121 3.020742,-0.546175 4.541802,-0.760846 1.54094,-0.169171 3.08825,-0.243222 4.62669,-0.437369 1.63326,-0.230866 3.27816,-0.346206 4.92587,-0.397722 1.61149,-0.04425 3.2116,0.151639 4.80239,0.382957 1.64212,0.216786 3.245,0.617766 4.81295,1.143686 1.32112,0.50136 2.63516,1.021095 3.95378,1.529056 1.27229,0.486754 2.50962,1.057168 3.73903,1.642097 0.19095,0.09363 0.3828,0.185436 0.57285,0.280876 0.3402,0.170844 0.75615,0.388834 1.08957,0.573491 0.17751,0.09831 0.70489,0.402332 0.52897,0.301223 -3.55479,-2.043064 -4.40214,-2.592407 -2.81416,-1.583293 1.07713,0.68951 1.98594,1.582889 2.83096,2.533674 1.01558,1.198885 1.95076,2.462871 2.86908,3.736866 0.84276,1.22671 1.86323,2.3103 2.83564,3.431272 0.99657,1.153305 2.06148,2.244093 3.07972,3.377577 1.10707,1.218711 1.96486,2.621096 2.74322,4.063629 0.85093,1.51337 1.39582,3.152411 1.81896,4.828009 0.44919,1.85604 0.58599,3.763029 0.64017,5.66559 0.0214,1.921307 0.0388,3.843045 0.0297,5.764531 0.0132,1.757981 -0.0682,3.513511 -0.18108,5.267221 -0.093,1.47311 -0.29487,2.93621 -0.48909,4.39855 -0.16413,1.32387 -0.33115,2.64693 -0.54554,3.96373 -0.17792,1.26643 -0.52713,2.49618 -0.88566,3.72056 -0.39285,1.33883 -0.73494,2.69165 -1.1063,4.03638 -0.37517,1.47269 -0.87865,2.90595 -1.43067,4.32024 -0.53467,1.33703 -1.10087,2.66139 -1.68438,3.9778 -0.59518,1.40592 -1.3327,2.73879 -2.12688,4.03984 -0.74276,1.22161 -1.54671,2.40251 -2.41488,3.53798 -0.75817,0.98598 -1.63134,1.87415 -2.51019,2.75127 -0.76314,0.75397 -1.56229,1.47002 -2.38321,2.16022 -0.71063,0.59704 -1.44387,1.16638 -2.18038,1.73092 -0.84294,0.64722 -1.74201,1.21465 -2.64348,1.77542 -1.00284,0.64845 -2.01461,1.28009 -3.07165,1.83658 -0.89562,0.44678 -1.84151,0.77999 -2.77662,1.13247 -0.84812,0.35695 -1.69027,0.72281 -2.56239,1.01783 -0.82951,0.27531 -1.67098,0.5111 -2.51553,0.735 -0.97402,0.19278 -1.92756,0.46824 -2.89541,0.68851 -1.11036,0.2781 -2.24649,0.26021 -3.3782,0.17527 -1.34118,-0.098 -2.64535,-0.41761 -3.94512,-0.74237 -1.53136,-0.38066 -3.10429,-0.5383 -4.67264,-0.67414 -1.608618,-0.10078 -3.220018,-0.13644 -4.828315,-0.24236 -1.732323,-0.1139 -3.460231,-0.2816 -5.181319,-0.50816 -1.800512,-0.28663 -3.589268,-0.63665 -5.370111,-1.02608 -1.841027,-0.43378 -3.653356,-0.98223 -5.450006,-1.5712 -1.732314,-0.58379 -3.411057,-1.31305 -5.006569,-2.20402 8.071552,5.05264 2.875096,1.53183 1.074177,0.21358 -1.111284,-0.76651 -2.127833,-1.65096 -3.120387,-2.56249 -1.016017,-0.92357 -2.013179,-1.86798 -3.052168,-2.76585 -0.91463,-0.74625 -1.838106,-1.48014 -2.729827,-2.25398 -0.851446,-0.69703 -1.567209,-1.52618 -2.228679,-2.40001 -0.70079,-0.98849 -1.477297,-1.91763 -2.240946,-2.85706 -0.869493,-1.11428 -1.72014,-2.24251 -2.676717,-3.28436 -0.689647,-0.69879 -1.399947,-1.37377 -2.003866,-2.14982 -0.652102,-0.92823 -1.003275,-2.01165 -1.358725,-3.07673 -0.477123,-1.45376 -1.033602,-2.87934 -1.531554,-4.32634 -0.400396,-1.07664 -0.765465,-2.16206 -1.049956,-3.27501 -0.191936,-0.80462 -0.302599,-1.62445 -0.389071,-2.44603 -0.04761,-1.75949 -0.523761,-1.68777 -1.848887,-2.95379 -0.246881,-0.23587 -0.452817,-0.51117 -0.679226,-0.76675 0,0 -0.15997,-0.0803 -0.15997,-0.0803 v 0 c -1.984299,0.31955 1.515961,-0.17671 -1.93381,-0.11209 -0.671037,0.0126 -0.506501,0.98432 -0.494292,1.36519 0.06836,0.85278 0.204487,1.70026 0.378969,2.53758 0.282123,1.16027 0.689032,2.28017 1.146786,3.3824 0.524856,1.4156 1.029561,2.8391 1.478704,4.28078 0.333116,1.08738 0.650427,2.19803 1.209837,3.19474 0.538045,0.86509 1.269177,1.55918 2.011751,2.25024 1.003367,0.99947 1.905776,2.08441 2.720391,3.24397 0.722784,0.93962 1.501433,1.83605 2.177711,2.81103 0.653553,0.89694 1.323402,1.78544 2.171995,2.51137 0.904662,0.78274 1.812551,1.56094 2.770464,2.27886 1.067877,0.87782 2.075034,1.82337 3.094889,2.75593 0.991493,0.91844 1.973931,1.85394 3.091294,2.62153 2.727921,1.96984 5.344832,3.96243 8.49072,5.33945 1.545526,0.79796 3.161379,1.42146 4.823997,1.93376 1.787842,0.55654 3.58822,1.07931 5.41746,1.48337 1.738838,0.37308 3.482106,0.77086 5.262045,0.88358 1.729305,0.17717 3.457209,0.37291 5.192721,0.48142 1.59482,0.0866 3.19269,0.10846 4.78559,0.22899 1.57498,0.14631 3.14432,0.35979 4.67519,0.77043 1.3235,0.32114 2.6588,0.60205 4.02166,0.68841 1.18037,0.0621 2.36549,0.0426 3.51708,-0.25864 0.93532,-0.22581 1.86745,-0.4674 2.77217,-0.79731 0.84133,-0.24221 1.6796,-0.49465 2.50712,-0.78112 0.86592,-0.31501 1.70592,-0.69367 2.55636,-1.0476 0.91877,-0.39187 1.85386,-0.75051 2.73286,-1.22889 1.04449,-0.58602 2.03384,-1.26236 3.06466,-1.87174 0.92452,-0.56363 1.84673,-1.13368 2.7074,-1.79292 0.74018,-0.56931 1.46983,-1.15218 2.17138,-1.76892 0.80841,-0.71635 1.60669,-1.44441 2.36572,-2.21346 0.88618,-0.89766 1.75185,-1.81742 2.51616,-2.82317 0.86017,-1.15963 1.65125,-2.36812 2.39742,-3.60415 0.78782,-1.32506 1.53509,-2.67315 2.15653,-4.08575 0.6073,-1.31594 1.19811,-2.64015 1.70827,-3.99744 0.53068,-1.43654 1.04114,-2.88118 1.45842,-4.35553 0.36616,-1.34112 0.74173,-2.67977 1.13541,-4.01308 0.35712,-1.24655 0.70955,-2.49734 0.89293,-3.78408 0.19939,-1.32425 0.40517,-2.64804 0.55161,-3.97948 0.15981,-1.48462 0.33583,-2.96839 0.43548,-4.45859 0.0925,-1.77043 0.16855,-3.54252 0.14682,-5.31592 -0.0177,-1.926818 -0.0251,-3.853724 -0.0369,-5.78058 -0.0477,-1.930805 -0.16832,-3.860453 -0.5956,-5.75089 -0.39623,-1.694026 -0.84583,-3.378884 -1.70886,-4.905727 -0.78338,-1.457567 -1.60629,-2.901194 -2.69424,-4.158677 -1.00632,-1.150025 -2.07711,-2.240078 -3.08361,-3.390139 -1.07522,-1.096552 -2.15263,-2.197778 -3.03889,-3.458347 -0.91369,-1.260902 -1.81049,-2.535016 -2.79173,-3.745265 -0.82063,-0.980611 -1.69169,-1.921315 -2.76013,-2.639832 -2.24406,-1.519071 -4.64127,-2.817717 -7.07813,-4.000996 -1.23406,-0.572788 -2.47515,-1.131677 -3.74983,-1.609409 -1.30438,-0.500697 -2.60011,-1.026871 -3.92426,-1.473717 -1.58741,-0.483203 -3.20228,-0.853616 -4.84815,-1.077119 -1.5942,-0.221281 -3.19692,-0.380482 -4.80921,-0.29284 -1.66642,0.06121 -3.33011,0.183625 -4.98405,0.401011 -1.52721,0.167744 -3.05888,0.292134 -4.58368,0.481553 -1.496319,0.220359 -2.969939,0.570091 -4.457399,0.843307 -1.350127,0.253848 -2.704102,0.476653 -4.065531,0.661159 -1.813837,0.323006 -3.594818,0.807239 -5.282302,1.559202 -2.605179,1.16563 -5.105112,2.547579 -7.612498,3.90776 -2.709399,1.5766 -5.349726,3.271037 -7.820549,5.20587 -2.517849,2.060888 -4.986125,4.187031 -7.343255,6.430894 -1.911466,2.039449 -3.668003,4.234228 -5.343948,6.470292 -1.525075,2.196978 -2.948851,4.467191 -4.230951,6.814971 -1.21481,2.264197 -2.294562,4.600481 -3.169269,7.018623 -0.76485,2.271906 -1.420036,4.571856 -1.893672,6.923966 -0.282506,1.30252 -0.378071,2.31302 -0.48449,3.62302 -0.04005,0.49307 -0.06004,0.52016 -0.158816,0.94781 0,0 2.762448,1.49387 2.762448,1.49387 z" />
    <path
       style="fill:#000000"
       id="path386"
       d="m 90.815258,152.15694 c 0.01599,0.59862 -0.0058,1.19755 -0.03172,1.79559 -0.03069,0.53214 -0.04506,1.06507 -0.08724,1.59647 -0.0409,0.4715 -0.113188,0.93942 -0.169589,1.40915 -0.03005,0.33893 -0.07435,0.67688 -0.09789,1.01636 -0.169457,1.93121 0.874528,1.00286 4.241259,2.94413 0.09265,0.0534 0.206112,-0.0586 0.311449,-0.0771 0.652031,-0.0663 1.300506,-0.15889 1.95001,-0.24604 0.818113,-0.12854 1.645213,-0.13941 2.470789,-0.16415 0.707224,-0.0246 1.391144,0.1342 2.097754,0.1441 0.7638,-0.0443 1.52719,-0.0733 2.28681,-0.16878 0.69263,-0.12491 1.39623,-0.16031 2.0958,-0.22608 0.51168,-0.0596 1.02696,-0.0634 1.54124,-0.0535 0.41979,0.0205 0.83509,-0.0572 1.25323,-0.0636 0.3366,0.003 0.66846,-0.0538 1.00316,-0.0794 0.37368,-0.0779 0.29287,-0.6541 0.26584,-0.94673 -0.1137,-0.62676 -0.262,-1.23887 -0.27671,-1.87788 -0.0112,-0.49678 0.0263,-1.00248 -0.0969,-1.48801 -0.0739,-0.29209 -0.14286,-0.58203 -0.26369,-0.85893 -0.90791,-1.79771 -3.17805,-2.90169 -5.15832,-2.82333 -0.49202,0.0212 -0.98382,0.0309 -1.47621,0.0396 -0.68197,0.0252 -1.35658,0.12999 -2.03417,0.20308 -0.54971,0.0488 -1.09721,0.0366 -1.645618,0.10413 -0.470916,0.0868 -0.940704,0.16779 -1.417394,0.21616 -0.457044,0.0522 -0.91462,0.0559 -1.37337,0.0363 -0.443784,0.01 -0.887757,0.009 -1.331567,0.0183 -0.508517,0.0264 -1.006033,0.12044 -1.496798,0.25195 -0.716369,0.17843 -0.650097,0.12229 0.05888,0.83325 0.238875,0.23954 0.525122,0.43829 0.721415,0.71381 0.03372,0.0473 -0.101206,0.0571 -0.151809,0.0857 0,0 0.122748,0.0882 0.122748,0.0882 v 0 c 1.258792,0.21302 2.215777,1.65156 3.57099,1.27968 0.490323,-0.0828 0.984724,-0.14214 1.483203,-0.13101 0.44494,-0.003 0.88994,-0.005 1.33483,0.003 0.47051,-0.006 0.93978,-0.0429 1.40688,-0.0996 0.4662,-0.0632 0.92145,-0.18334 1.38953,-0.23291 0.5079,-0.0534 1.00996,-0.12936 1.51494,-0.20575 0.65575,-0.0988 1.31435,-0.18455 1.97949,-0.16769 0.48989,-7.9e-4 0.98104,-0.0299 1.47,0.007 0.12022,0.0229 0.20593,0.0293 0.31471,0.0838 0.0366,0.0183 0.1368,0.0898 0.10138,0.0693 -4.70021,-2.72329 -5.80232,-3.11124 -4.09525,-2.42973 0.19576,0.1813 0.29267,0.4158 0.33324,0.67825 0.0871,0.46803 0.20521,0.93091 0.18323,1.41312 0.003,0.59071 -0.11292,1.17196 -0.06,1.76237 0.0523,0.42798 0.0852,-0.0724 -0.13647,-0.0318 -0.35243,0.0251 -0.70507,0.006 -1.05803,0.0131 -0.42253,0.0239 -0.84572,0.0258 -1.26885,0.0266 -0.52133,0.0117 -1.04059,0.0484 -1.55821,0.11312 -0.69357,0.0735 -1.388083,0.15298 -2.068179,0.31287 -0.59208,0.16533 -1.168766,0.39609 -1.792829,0.4022 -0.607066,0.0415 -1.216832,0.0331 -1.824172,0.0752 -0.775864,0.0654 -1.534437,0.24734 -2.310064,0.32014 -0.670954,0.08 -1.350161,0.14721 -2.025964,0.0944 -0.07405,-0.0219 -0.260214,-0.16637 -0.19393,-0.12675 1.383382,0.82698 2.751803,1.67873 4.127704,2.5181 -0.107827,0.037 -0.109097,0.0103 -0.123637,-0.0991 -0.0068,-0.33335 0.0084,-0.66646 0.04013,-0.9984 0.0504,-0.47627 0.113965,-0.95109 0.160018,-1.42786 0.05221,-0.54313 0.07555,-1.08702 0.07488,-1.63274 0.01429,-0.61629 0.0217,-1.2321 -0.01406,-1.84791 0,0 -4.266886,-2.16311 -4.266886,-2.16311 z" />
    <path
       style="fill:#000000"
       id="path390"
       d="m 142.51942,37.164981 c 0.78547,-0.753774 1.38794,-1.668835 2.05964,-2.521652 0.99828,-1.211844 1.87952,-2.512615 2.84596,-3.74838 0.82567,-1.130075 1.6383,-2.270025 2.41466,-3.434725 0.59764,-0.9811 1.1495,-1.98951 1.71971,-2.986802 0.18075,-0.23189 0.65453,-1.222288 0.98956,-1.250553 0.0389,-0.0033 0.0561,0.05436 0.0841,0.08154 -1.05522,-0.566607 -2.08976,-1.17354 -3.16567,-1.699821 -0.079,-0.03862 0.11512,0.138121 0.14326,0.221396 0.0481,0.142465 0.062,0.294598 0.0815,0.443715 0.0961,0.737199 0.11584,1.490803 0.15596,2.232078 0.0938,2.357847 -0.0598,4.718454 -0.18181,7.072927 -0.11362,1.818077 -0.19507,3.637534 -0.27017,5.457476 -0.0257,1.285002 -0.14851,2.563488 -0.26035,3.842819 -0.089,0.604781 -0.12698,1.175394 -0.001,1.772739 0.0257,0.12256 0.0259,0.252905 0.0749,0.368172 0.0638,0.150282 0.17222,0.277456 0.25832,0.416184 0.90969,0.717137 0.6766,0.34423 0.96218,0.902611 0,0 0.13341,0.07112 0.13341,0.07112 v 0 c 0.46165,-0.205801 0.11909,-0.09873 1.06721,0.142667 0.0957,-0.04298 0.21172,-0.05596 0.28708,-0.128932 0.0693,-0.06713 0.0774,-0.176869 0.11881,-0.26403 0.24891,-0.523571 0.23815,-1.066336 0.25384,-1.642189 0.0899,-1.296755 0.18396,-2.594651 0.20499,-3.89465 -0.004,-1.850597 0.006,-3.700767 0.0737,-5.550451 0.0668,-2.345005 0.23803,-4.68449 0.31289,-7.029164 0.01,-0.87279 0.0194,-1.745773 0.0378,-2.618442 0.003,-0.123421 0.11218,-0.300732 0.0101,-0.370206 -1.06911,-0.72787 -2.24825,-1.279254 -3.37237,-1.91888 -0.54243,0.347638 -0.78779,1.025048 -1.09807,1.562159 -0.52478,1.012774 -1.06146,2.0203 -1.65691,2.993746 -0.73267,1.187297 -1.56808,2.303811 -2.32347,3.475913 -0.79831,1.339757 -1.74337,2.580171 -2.71728,3.7968 -0.67237,0.835483 -1.37883,1.645294 -2.0015,2.517397 0,0 2.75951,1.687418 2.75951,1.687418 z" />
    <path
       style="fill:#000000"
       id="path392"
       d="m 49.821146,48.490301 c -0.05989,-1.45979 -0.223143,-2.912274 -0.315864,-4.370414 -0.14007,-2.628778 -0.384788,-5.253202 -0.704881,-7.866028 -0.348624,-2.595371 -0.655745,-5.194851 -0.671603,-7.815804 0.02088,-1.611558 0.27655,-3.205046 0.490191,-4.798702 0.02129,-0.157524 0.04254,-0.315053 0.06387,-0.472572 0.01616,-0.119354 0.02861,-0.239272 0.04858,-0.358048 0.01266,-0.07529 0.02602,-0.150949 0.04922,-0.223683 0.006,-0.01877 0.0546,-0.03761 0.03686,-0.04619 -4.843423,-2.343857 -5.749193,-2.985104 -4.169794,-1.902237 1.29221,2.035257 2.427308,4.171199 3.579633,6.288423 1.427758,2.690911 2.722189,5.352525 4.57439,7.784576 0.282041,0.309078 1.30035,1.436062 1.642505,1.771985 0.980366,0.962511 0.620637,0.360711 1.000088,1.113052 0,0 0.137637,0.06255 0.137637,0.06255 v 0 c -0.05538,-0.121986 -0.194763,-0.23508 -0.166148,-0.365959 0.02734,-0.125054 0.236494,-0.129356 0.298878,-0.241133 0.08846,-0.158503 0.09664,-0.874998 0.102082,-0.994742 -0.815215,-2.645789 -2.609212,-4.882367 -3.734026,-7.395987 -1.016564,-1.994539 -2.018422,-4.000995 -2.928618,-6.046208 -0.480994,-1.989551 -0.03832,-0.546956 -4.721223,-2.550137 -0.06299,-0.02694 -0.05872,0.125294 -0.07201,0.192503 -0.0204,0.10322 -0.02853,0.584976 -0.03061,0.64661 -0.0055,0.163377 -0.01221,0.326714 -0.01831,0.49007 -0.100072,1.654937 -0.344221,3.303143 -0.292435,4.964957 0.114856,2.659617 0.427793,5.294845 0.801201,7.930386 0.32887,2.622846 0.724536,5.236949 0.806024,7.884036 0.07575,1.482783 0.02766,2.992386 0.372466,4.444922 0,0 3.821897,1.873778 3.821897,1.873778 z" />
    <path
       style="fill:#000000"
       id="path394"
       d="m 69.234344,157.49273 c -0.164252,0.68142 -0.424569,1.33449 -0.690224,1.98145 -0.195915,0.38669 -0.29293,0.83695 -0.551762,1.1921 -0.107454,0.14744 -0.272669,0.24833 -0.372421,0.40109 -0.0269,0.0412 -0.389977,0.92089 -0.413011,0.97633 -0.342084,0.89341 -0.743757,1.76111 -1.134795,2.63352 -0.383232,0.83472 -0.736305,1.68136 -1.052427,2.54358 -0.254128,0.66417 -0.495309,1.3319 -0.695703,2.0143 -0.1708,0.6157 -0.291948,1.2433 -0.318367,1.88211 -1.9e-5,0.58246 0.16694,1.13958 0.375662,1.67725 0.298281,0.70401 0.683522,1.35866 1.188707,1.93219 1.186841,1.14567 2.728671,1.81924 4.172053,2.59141 -4.19576,-2.62433 -1.405026,-0.72326 -0.452373,-0.0773 0.565186,0.37159 1.108236,0.77523 1.677515,1.14056 1.141295,0.94079 2.546896,1.38955 3.794339,2.13285 -4.391098,-2.32656 -2.252493,-1.45039 -1.40731,-0.7436 0.361322,0.38927 0.374507,0.96482 0.417731,1.46632 0.07521,1.02535 0.04582,2.05504 0.01307,3.08155 -0.03088,1.1274 -0.191611,2.24469 -0.27328,3.36828 -0.105882,1.36284 -0.254749,2.72058 -0.416578,4.07767 -0.189766,1.39616 -0.326054,2.79781 -0.460534,4.20005 -0.126019,1.32648 -0.211592,2.65655 -0.368558,3.97989 -0.12862,0.93824 -0.344057,1.86078 -0.506705,2.79313 -0.105995,0.62769 -0.223326,1.2533 -0.322846,1.88208 -0.07862,0.44392 -0.151932,0.88882 -0.245543,1.32989 -0.09186,0.39282 -0.156952,0.78912 -0.127114,1.19262 0.061,0.43158 0.271355,0.81467 0.504249,1.17547 0.8861,1.20919 2.340985,1.73582 3.612072,2.47071 0.484426,0.20971 0.99201,0.36611 1.500295,0.50703 0.612738,0.17786 1.243699,0.1618 1.873275,0.1326 0.809114,-0.0441 1.613178,-0.14692 2.420686,-0.21369 0.878077,-0.0615 1.761767,-0.12553 2.629989,0.0418 0.841534,0.28166 1.694389,0.52456 2.536185,0.80589 0.700126,0.24897 1.435905,0.34965 2.167712,0.45346 0.68172,0.085 1.349822,0.20813 1.993076,0.45083 0.341145,0.11469 0.671796,0.25618 0.987108,0.42992 0.117641,0.0648 0.46402,0.2708 0.347411,0.20414 -2.935368,-1.67797 -3.869139,-2.2687 -2.502882,-1.41474 1.921713,1.4006 4.006986,2.38588 6.202683,3.19916 0.96886,0.34023 1.934366,0.6897 2.890835,1.06345 0.35839,0.15934 0.529311,0.22477 0.869201,0.41703 0.133897,0.0757 0.526735,0.31794 0.392668,0.24249 -5.090436,-2.86458 -3.395047,-2.05677 -2.264209,-1.16086 1.695357,1.37887 3.545976,2.80189 5.713166,3.24521 1.32603,0.13694 2.62238,-0.23392 3.88534,-0.59088 1.67967,-0.49099 3.26752,-1.23431 4.85897,-1.9512 1.59077,-0.56803 3.13147,-1.24269 4.64862,-1.98466 1.43479,-0.72613 2.85112,-1.48872 4.25684,-2.26951 1.16959,-0.74546 2.4574,-1.23315 3.72498,-1.77477 1.01633,-0.463 2.04262,-0.90068 3.08125,-1.31091 0.99131,-0.4118 2.01658,-0.72941 3.05235,-1.00677 0.90675,-0.22889 1.82416,-0.41359 2.74121,-0.59593 0.84057,-0.12872 1.59833,-0.47999 2.32989,-0.89622 0.81647,-0.46773 1.52548,-1.09054 2.18812,-1.7528 0.64229,-0.65473 1.12262,-1.42773 1.49471,-2.26053 0.34896,-0.85488 0.58538,-1.75013 0.81238,-2.64349 0.22669,-0.88582 0.28814,-1.80211 0.3163,-2.71265 0.0168,-0.94634 0.003,-1.89294 -0.0642,-2.83708 -0.0881,-0.83736 -0.12715,-1.67854 -0.19595,-2.51744 -0.0647,-0.64921 -0.11391,-1.29995 -0.18401,-1.94858 -0.0984,-0.69367 -0.17325,-1.39038 -0.24402,-2.08732 -0.0542,-0.7876 -0.1128,-1.57375 -0.19661,-2.35887 -0.0864,-0.80604 -0.17608,-1.61059 -0.20287,-2.42116 -0.0109,-0.71565 0.0662,-1.42818 0.19524,-2.13108 0.0964,-0.49736 0.33011,-0.89828 0.73537,-1.19753 0.55901,-0.27879 1.14175,-0.4835 1.68893,-0.7906 0.78485,-0.48461 1.47879,-1.09563 2.15364,-1.72 0.64016,-0.58778 1.25327,-1.20015 1.76118,-1.90692 0.38489,-0.54348 0.62287,-1.13416 0.7221,-1.7888 0.0982,-0.86032 -0.16039,-1.65285 -0.5064,-2.42617 -0.76683,-1.36462 -1.28136,-2.83839 -1.80866,-4.30533 -0.3542,-1.02152 -0.83612,-1.99018 -1.30262,-2.96321 -0.30147,-0.5412 -0.49768,-1.12403 -0.71849,-1.69892 -0.37815,-0.81092 -1.07593,-1.09646 -1.79861,-1.60137 -0.21364,-0.14927 -0.41406,-0.31662 -0.62109,-0.47493 0,0 -0.13787,-0.062 -0.13787,-0.062 v 0 c -0.119,0.009 -0.23886,0.0428 -0.35699,0.0261 -0.48284,-0.0685 -1.13856,-0.51101 -1.12652,0.19497 0.11717,0.63166 0.32123,1.22062 0.66776,1.76665 0.51851,0.98067 1.05356,1.9557 1.46874,2.98628 0.55456,1.42933 1.00425,2.90185 1.68335,4.28003 0.31494,0.68782 0.60982,1.38496 0.54233,2.15984 -0.0775,0.58352 -0.26154,1.12348 -0.60746,1.60756 -0.47364,0.68525 -1.02492,1.30825 -1.65633,1.8539 -0.66592,0.58778 -1.33858,1.18317 -2.12815,1.60201 -0.58919,0.28625 -1.23106,0.46452 -1.77394,0.84016 -0.46453,0.39657 -0.76002,0.88477 -0.886,1.48808 -0.12494,0.73065 -0.1915,1.47492 -0.22765,2.21465 0.008,0.82438 0.12192,1.6397 0.20458,2.45903 0.0649,0.78387 0.14191,1.56674 0.18211,2.35245 0.0637,0.69598 0.14371,1.39034 0.22342,2.08463 0.0747,0.64872 0.12171,1.30019 0.2038,1.94813 0.0845,0.84487 0.16661,1.68994 0.24526,2.53538 0.0783,0.93145 0.10344,1.86535 0.0925,2.8001 -0.0166,0.881 -0.0786,1.7597 -0.28657,2.61938 -0.20559,0.87136 -0.4306,1.74123 -0.78505,2.56613 -0.35034,0.78227 -0.78119,1.51843 -1.38986,2.1319 -0.63985,0.63748 -1.33264,1.21291 -2.13923,1.63099 -0.71406,0.36699 -1.4552,0.65201 -2.24936,0.79422 -0.91469,0.20419 -1.83649,0.37995 -2.73981,0.63201 -1.03926,0.30228 -2.06217,0.65462 -3.0696,1.05065 -1.03893,0.4089 -2.05291,0.87368 -3.06173,1.35166 -1.20502,0.58478 -2.3253,1.32259 -3.50264,1.96072 -1.40112,0.77223 -2.81087,1.52871 -4.23096,2.26552 -1.43677,0.73151 -2.89929,1.40858 -4.30802,2.19332 -1.57796,0.72876 -3.17499,1.43269 -4.86164,1.87429 -1.2665,0.31892 -2.57318,0.64489 -3.878106,0.35106 -1.352544,-0.4401 -3.248317,-1.6962 2.065776,1.37223 0.58132,0.33566 -1.63832,-0.98483 -1.06109,-0.79021 -1.689329,-1.41437 -3.656468,-2.48788 -5.677992,-3.34993 -0.956171,-0.35965 -1.918706,-0.7014 -2.879142,-1.0494 -0.502151,-0.1877 -1.006939,-0.37132 -1.495666,-0.59259 -0.160359,-0.0726 -0.626383,-0.32029 -0.475774,-0.22916 0.785722,0.47538 4.087096,2.38929 2.379723,1.38819 -1.718086,-1.11209 -3.453287,-2.3649 -5.440347,-2.92421 -0.595753,0.0101 -1.17624,-0.19194 -1.768889,-0.23912 -0.708792,-0.10284 -1.414855,-0.22519 -2.090733,-0.47183 -0.67802,-0.22031 -1.442277,-0.58873 -2.159348,-0.43046 -0.844225,0.0246 -1.690225,0.009 -2.532496,0.0906 -0.818498,0.0619 -1.635486,0.15465 -2.45674,0.17095 -0.618588,0.009 -1.235182,-0.0161 -1.828806,-0.21167 -0.505614,-0.15837 -1.017241,-0.31775 -1.483206,-0.57442 4.357282,2.53504 1.978383,1.3751 1.246291,0.4779 -0.229368,-0.31799 -0.425973,-0.65516 -0.525577,-1.03814 -0.0783,-0.37571 -0.02281,-0.74484 0.06587,-1.11541 0.08648,-0.45046 0.171578,-0.9016 0.226894,-1.35719 0.08596,-0.63516 0.171374,-1.27047 0.272471,-1.90345 0.145876,-0.95302 0.300225,-1.90546 0.400853,-2.8646 0.140236,-1.33057 0.243503,-2.66413 0.34675,-3.99801 0.116064,-1.40253 0.27983,-2.80001 0.449518,-4.19697 0.16162,-1.35479 0.330796,-2.70897 0.444902,-4.06875 0.141705,-1.11717 0.278054,-2.23749 0.32485,-3.3633 0.02332,-1.02201 0.05378,-2.04397 0.06554,-3.06617 -0.01,-0.54395 0.0073,-1.11945 -0.245968,-1.61684 -0.834297,-0.9742 -3.087068,-1.20177 -3.485621,-2.1632 -0.971005,-0.53703 -3.175488,-1.58126 1.076157,0.69371 -0.593806,-0.35212 -1.146038,-0.76634 -1.721466,-1.14695 -1.428261,-0.93809 -2.718028,-2.03281 -4.332592,-2.6972 -0.866117,-0.45683 -2.367698,-1.32353 1.481161,0.89354 0.515123,0.29673 -1.36805,-0.78223 -0.89542,-0.65401 -0.529899,-0.51926 -0.915813,-1.13071 -1.195359,-1.81912 -0.207307,-0.50391 -0.383993,-1.02266 -0.412282,-1.57195 -0.01323,-0.62137 0.08716,-1.2297 0.265563,-1.82526 0.18556,-0.68221 0.402295,-1.35543 0.644835,-2.01957 0.306098,-0.8595 0.591191,-1.72903 0.990923,-2.55134 0.411503,-0.87001 0.810357,-1.74624 1.113597,-2.66124 0.126519,-0.32892 0.310052,-0.63956 0.389305,-0.98295 0.0439,-0.19019 0.01046,-0.3919 0.04655,-0.58373 0.08211,-0.43632 0.338373,-0.81899 0.485302,-1.23187 0.270617,-0.64472 0.514763,-1.29944 0.786855,-1.94325 0,0 -2.022538,-1.11697 -2.022538,-1.11697 z" />
    <path
       style="fill:#000000"
       id="path396"
       d="m 65.765212,174.78979 c -0.162256,0.4337 -0.261463,0.91358 -0.484209,1.3228 -0.101615,0.18669 -0.249837,0.3444 -0.361844,0.52504 -0.335875,0.5417 -0.399957,0.73287 -0.669006,1.32123 -0.408134,0.78737 -0.677022,1.64881 -1.0981,2.42933 -0.14465,0.26813 -0.335765,0.5089 -0.4879,0.77285 -0.430989,0.74777 -0.430151,0.83343 -0.747814,1.63922 -0.72942,1.88145 -1.292382,3.81849 -1.885643,5.74513 -0.609617,1.92334 -1.259721,3.83323 -1.86141,5.75914 -0.546268,1.76598 -0.960536,3.56849 -1.346612,5.37504 -0.394598,1.60944 -0.581919,3.24435 -0.613892,4.89764 -0.05198,1.03243 0.186386,2.04299 0.281959,3.06239 0.09936,1.05981 -0.11328,0.16582 0.198982,1.20643 0.782964,1.75605 2.829562,3.31354 4.802909,3.04239 1.2595,-0.52055 2.082888,-1.6893 2.869491,-2.74921 1.049501,-1.50984 1.846271,-3.17053 2.582438,-4.84934 0.817128,-2.01157 1.615103,-4.0313 2.419915,-6.04813 0.966801,-2.24061 1.472937,-4.63086 2.017427,-6.99793 0.526413,-2.36926 1.296467,-4.67104 2.154063,-6.93799 -0.0015,-0.3633 0.942318,-1.94706 0.929459,-2.27749 -0.02259,-0.58039 -0.627843,-1.05733 -0.962189,-1.41223 0,0 -0.221077,-0.11787 -0.221077,-0.11787 v 0 c -0.355533,-0.0421 -1.038126,-0.23817 -1.373634,0.11288 -0.196556,0.20566 -0.555664,2.13548 -0.782856,2.35866 -0.806475,2.30463 -1.532939,4.63415 -2.073969,7.01743 -0.574246,2.34109 -1.127244,4.69591 -2.067782,6.92448 -0.814464,2.00518 -1.629561,4.0104 -2.490971,5.99601 -0.753189,1.64547 -1.521851,3.30057 -2.611659,4.75641 -0.772114,0.98298 -1.620594,2.10941 -2.889125,2.43319 -1.166594,-0.0134 -2.442226,-0.99579 1.413018,1.19849 0.14232,0.081 -0.276389,-0.17891 -0.395958,-0.2908 -0.335252,-0.31372 -0.407722,-0.5123 -0.637456,-0.91144 -0.206884,-0.46256 -0.469659,-0.90062 -0.650235,-1.37408 -0.369146,-0.96787 -0.353238,-2.05053 -0.408467,-3.06629 0.01486,-1.64487 0.189263,-3.27344 0.551217,-4.88067 0.35703,-1.80881 0.76492,-3.60693 1.31366,-5.36876 0.571869,-1.93926 1.184227,-3.86543 1.80569,-5.7893 0.581123,-1.92221 1.200905,-3.83233 1.927756,-5.70525 0.329684,-0.91435 0.3112,-0.79616 0.554355,-1.73841 0.07862,-0.30467 0.118774,-0.61994 0.219187,-0.91813 0.282269,-0.83823 0.792337,-1.59137 1.153169,-2.39395 0.285653,-0.58047 0.404669,-0.7589 0.587826,-1.37368 0.06315,-0.21196 0.07963,-0.43648 0.148355,-0.6467 0.143916,-0.44019 0.411115,-0.84123 0.598767,-1.26261 0,0 -1.407835,-0.78592 -1.407835,-0.78592 z" />
    <path
       style="fill:#000000"
       id="path398"
       d="m 144.05906,174.57148 c 0.0362,0.1134 0.0806,0.22452 0.1086,0.34022 0.098,0.40463 0.0813,0.62139 0.20127,1.04136 0.25114,0.87893 0.63231,1.73645 0.92695,2.60204 0.63938,2.12784 1.26806,4.25662 1.8797,6.39253 0.63427,2.19597 1.32154,4.37303 2.1734,6.49458 0.77149,1.8204 1.59284,3.61981 2.13151,5.52569 0.38963,1.53632 0.36966,3.10105 -0.0577,4.62061 -0.31873,0.86071 -0.8442,1.6527 -1.77596,1.86779 -0.13975,-0.015 -0.28166,-0.0162 -0.41924,-0.045 -0.61056,-0.1275 -1.03872,-0.42385 -1.02548,-0.41625 1.05712,0.60685 2.09709,1.2475 3.18803,1.79122 0.24961,0.1244 -0.449,-0.33342 -0.6503,-0.52644 -0.24638,-0.23625 -0.45926,-0.50512 -0.6889,-0.75768 -1.7949,-2.36218 -2.82568,-5.17685 -3.93664,-7.89835 -0.70321,-1.78056 -1.31294,-3.59521 -1.9339,-5.40531 -0.44798,-1.30584 -0.62488,-2.10448 -1.45089,-3.25069 -0.42609,-0.59125 -0.9666,-1.09096 -1.4499,-1.63644 -0.21523,-0.35345 -0.43046,-0.70691 -0.64569,-1.06037 0,0 -0.1371,-0.0637 -0.1371,-0.0637 v 0 c 0.019,0.2622 0.0379,0.52439 0.0569,0.78659 -0.19059,0.23067 -0.50807,0.39964 -0.57177,0.692 -0.15804,0.72534 0.53544,2.37814 0.71308,2.89863 0.61369,1.79811 1.21772,3.59968 1.86172,5.38727 0.96085,2.70285 1.96243,5.43929 3.52404,7.86201 1.66,2.21428 2.2986,2.10484 5.59147,3.92319 0.52402,0.28937 1.12913,0.34521 1.70685,0.25039 1.04726,-0.44359 1.55564,-1.24503 1.9034,-2.308 0.37788,-1.59837 0.44662,-3.24814 0.0906,-4.8612 -0.54966,-1.95017 -1.41739,-3.77254 -2.23068,-5.62372 -0.86271,-2.10844 -1.56892,-4.26571 -2.18492,-6.45902 -0.71673,-2.21254 -1.45786,-4.42098 -2.27909,-6.59675 -0.30531,-0.86537 -0.56591,-1.76936 -0.93393,-2.61125 -0.24452,-0.55938 -0.38002,-0.70367 -0.61551,-1.2285 -0.0506,-0.1127 -0.0854,-0.23183 -0.12805,-0.34775 0,0 -2.94186,-1.37976 -2.94186,-1.37976 z" />
    <path
       style="fill:#000000"
       id="path404"
       d="m 111.34209,215.32605 c 0.0128,1.20216 0.28101,2.37939 0.51802,3.55233 0.39797,1.59941 0.41824,3.24052 0.53051,4.87282 0.0958,1.39237 0.15898,1.70386 0.34312,3.1258 0.49734,3.56919 0.69993,7.17136 1.0418,10.75739 0.37404,3.55174 0.86654,7.09101 1.44396,10.61512 0.48139,2.8724 1.2993,5.66385 2.12879,8.44974 0.59213,2.09079 1.37042,4.12039 2.17116,6.13813 0.56488,1.50655 1.31825,2.92818 2.18194,4.28215 0.48761,0.69573 1.00884,1.4412 1.7605,1.88077 4.5222,2.64463 2.96337,2.13779 5.20105,2.7986 1.24228,0.26831 2.51379,0.16113 3.75239,-0.0638 1.35782,-0.29272 2.47275,-1.07233 3.56382,-1.88813 1.41373,-1.1173 2.26814,-2.68461 2.99243,-4.29797 0.79733,-1.97528 1.1847,-4.06756 1.52494,-6.15933 0.38054,-2.55411 0.52361,-5.13357 0.70134,-7.70715 0.26729,-2.61287 0.34995,-5.24542 0.43152,-7.87031 -0.0234,-2.46942 0.13145,-4.93629 0.0219,-7.40371 -0.0855,-2.30551 -0.10441,-4.6124 -0.17823,-6.91838 -0.0623,-2.11623 -0.0393,-4.2337 -0.0474,-6.35052 -0.039,-1.93 -0.10549,-3.86099 -0.20476,-5.78897 -0.17183,-1.64912 -0.17167,-3.30434 -0.15893,-4.95956 -0.0768,-1.4135 -0.27815,-2.81174 -0.32976,-4.22744 -0.0601,-0.6207 0.0943,-1.3486 -0.22319,-1.9272 -0.52628,-0.95908 -1.5114,-1.51894 -2.266,-2.27251 0,0 -0.13628,-0.0655 -0.13628,-0.0655 v 0 c -1.09663,0.20442 0.91429,-0.12985 -1.40707,-0.095 -1.13417,0.017 -0.73728,1.22224 -0.74811,1.94935 0.0657,1.40677 0.16838,2.80832 0.32242,4.20812 0.0649,1.67634 0.0564,3.3558 0.2375,5.02638 0.13701,1.92573 0.1727,3.85653 0.25906,5.7849 0.0243,2.12353 0.005,4.24734 0.0627,6.37048 0.0578,2.31509 0.17932,4.62829 0.21206,6.94421 0.1073,2.50772 0.38171,5.00611 0.26376,7.52149 0.0188,0.88857 0.0587,1.77689 0.0585,2.66566 -4.3e-4,1.7889 -0.1738,3.57512 -0.12045,5.36483 -0.13771,2.55099 -0.38544,5.09676 -0.75827,7.62457 -0.34932,2.03851 -0.78732,4.07511 -1.58489,5.99188 -0.69522,1.5478 -1.54274,3.02294 -2.94545,4.03942 -1.06709,0.7488 -2.18874,1.42828 -3.4891,1.67387 -1.20563,0.19047 -2.43632,0.24378 -3.61482,-0.13485 -1.81505,-0.72474 -0.64934,-0.28989 3.07289,1.91158 0.17647,0.10437 -0.36322,-0.19234 -0.5319,-0.30889 -0.54769,-0.3784 -0.97639,-0.88873 -1.36688,-1.42081 -0.91189,-1.33946 -1.70315,-2.75641 -2.33385,-4.25103 -0.85663,-2.03569 -1.66986,-4.09158 -2.36965,-6.18705 -0.90089,-2.80822 -1.73536,-5.64355 -2.38952,-8.52004 -0.73938,-3.54163 -1.23674,-7.12328 -1.70063,-10.71047 -0.50187,-3.67791 -1.15845,-7.33448 -1.57409,-11.02329 -0.16303,-1.4055 -0.18586,-1.79449 -0.43127,-3.1709 -0.30002,-1.68267 -0.70539,-3.34684 -0.86497,-5.05303 -0.18982,-1.25652 -0.41833,-2.50701 -0.84457,-3.70839 0,0 -2.17803,-1.06534 -2.17803,-1.06534 z" />
    <path
       style="fill:#000000"
       id="path406"
       d="m 72.099201,208.95909 c -0.457164,1.68894 -0.487876,3.43522 -0.606129,5.17268 -0.393074,3.60385 -0.776946,7.20797 -1.125851,10.81739 -0.502054,3.80874 -0.649862,7.64147 -0.757398,11.47728 -0.06145,3.35534 -0.303092,6.70188 -0.455236,10.05391 -0.141173,2.5432 -0.341359,5.08001 -0.422937,7.62655 -0.0589,2.2402 0.01757,4.47739 0.205291,6.70946 0.147465,1.78214 0.404624,3.54253 1.084402,5.20336 1.409815,2.63256 4.559965,4.12738 7.195262,5.12733 1.390205,0.51098 2.804323,0.40477 4.23282,0.17345 1.783671,-0.31074 3.343306,-1.23526 4.842274,-2.2019 1.791096,-1.1319 3.149012,-2.69928 4.222578,-4.50276 1.307811,-2.80719 1.798159,-5.93548 2.243071,-8.97902 0.644865,-3.65554 1.164286,-7.32946 1.713291,-10.9999 0.624427,-3.47634 1.076797,-6.97701 1.597889,-10.46889 0.485257,-2.9209 0.848335,-5.8605 1.419168,-8.7666 0.4546,-1.96918 0.915626,-3.93632 1.341107,-5.91216 0.02339,-0.40278 0.470037,-1.61611 0.348993,-1.98977 -0.23006,-0.71018 -1.069904,-1.33718 -1.523438,-1.8177 -0.20674,-0.21904 -0.389217,-0.45977 -0.583825,-0.68966 0,0 -0.186127,-0.0945 -0.186127,-0.0945 v 0 c -0.191172,0.0314 -0.379791,0.0922 -0.573516,0.0943 -0.310713,0.003 -1.293771,-0.24977 -1.643644,0.13469 -0.156922,0.17244 -0.152653,1.72214 -0.306129,1.97191 -0.387393,2.01043 -0.739198,4.02751 -1.125065,6.03825 -0.504907,2.9371 -0.910592,5.89024 -1.327167,8.84087 -0.431017,3.53926 -0.781576,7.08831 -1.307018,10.61497 -0.551799,3.66608 -1.121408,7.32997 -1.711822,10.98993 -0.586761,2.94494 -1.022368,5.97825 -2.490579,8.64706 -1.096706,1.79218 -2.33161,3.18021 -4.145312,4.28562 -1.502612,0.89885 -3.061219,1.73486 -4.822516,1.97385 -1.398454,0.1792 -2.768994,0.18271 -4.087683,-0.39987 -1.771872,-0.83256 -1.477693,-0.7175 3.000914,1.83969 0.193708,0.11061 -0.376219,-0.24105 -0.5515,-0.37901 -0.323502,-0.25461 -0.681887,-0.61789 -0.936193,-0.94066 -0.142514,-0.18087 -0.263028,-0.37805 -0.394542,-0.56707 -0.868714,-1.63155 -1.3331,-3.42548 -1.564292,-5.25561 -0.246533,-2.21904 -0.341605,-4.4497 -0.271055,-6.68244 0.04586,-2.58741 0.10316,-5.17463 0.151698,-7.76187 0.07114,-3.41609 0.01902,-6.8293 0.08852,-10.2453 0.09048,-3.87316 0.246574,-7.74616 0.441131,-11.61469 0.319421,-3.62453 0.69321,-7.2445 1.025363,-10.86717 0.153578,-1.16127 0.368124,-2.33243 0.455616,-3.50156 0.02141,-0.28616 0.0077,-0.98574 0.04444,-1.30828 0.01273,-0.11167 0.05021,-0.21911 0.07532,-0.32867 0,0 -2.810168,-1.51741 -2.810168,-1.51741 z" />
    <path
       style="fill:#000000"
       id="path408"
       d="m 137.7274,206.18761 c 1.25424,1.18313 2.80213,2.25832 4.50565,2.58136 1.24584,0.14999 2.50053,0.2179 3.75267,0.29368 2.25664,0.11305 4.49509,0.42704 6.74706,0.59886 1.55612,0.064 3.13362,-0.0826 4.59886,-0.64186 0.87986,-0.3358 1.36808,-0.64547 2.19223,-1.10231 2.47668,-1.51647 4.40298,-3.70611 6.31662,-5.85092 1.65265,-1.98268 3.37798,-3.88941 5.37499,-5.52933 1.64674,-1.34704 3.5828,-2.01596 5.65117,-2.35267 1.63207,-0.20676 3.26574,0.0228 4.8917,0.16589 0.62086,0.0491 1.24196,0.0962 1.86417,0.12393 0.27848,0.0248 0.54618,0.0997 0.82606,0.12849 0.651,0.12346 1.29789,0.0777 1.94953,-0.009 1.22704,-0.14718 2.38098,-0.51213 3.46423,-1.09821 1.20918,-0.71821 2.32914,-1.56211 3.24403,-2.63276 0.35901,-0.44114 0.59055,-0.95271 0.83231,-1.46086 0.0783,-0.16453 0.19136,-0.31533 0.24086,-0.49068 0.10429,-0.36945 0.041,-0.73245 0.0102,-1.1029 -0.2295,-1.19434 -1.1079,-1.9959 -1.98942,-2.75373 -2.29001,-1.69474 -4.7914,-3.14053 -7.52594,-3.9546 -1.43736,-0.39481 -2.91022,-0.35595 -4.36922,-0.13374 -1.58505,0.31105 -3.11329,0.83632 -4.60941,1.43547 -1.23086,0.53932 -2.48969,1.00742 -3.76013,1.44346 -1.0744,0.36472 -2.14613,0.73693 -3.21886,1.10657 -1.06589,0.36424 -2.0489,0.91627 -3.04963,1.42405 -0.7118,0.37223 -1.46215,0.63069 -2.24888,0.78023 -0.71041,0.12401 -1.37039,0.40361 -2.00673,0.7331 -0.79578,0.41283 -1.52849,0.9254 -2.22033,1.49249 -0.66633,0.54713 -1.18002,1.2367 -1.66029,1.94508 -0.42745,0.66356 -0.8506,1.33084 -1.24886,2.0124 -0.32606,0.5421 -0.54007,1.13768 -0.74722,1.73217 -0.14645,0.44734 -0.32608,0.88129 -0.53707,1.30172 -0.19509,0.372 -0.41141,0.73219 -0.61,1.10225 -0.17177,0.3286 -0.40214,0.61941 -0.63212,0.90821 -0.14462,0.21782 -0.39209,0.34298 -0.53832,0.55616 0.28847,0.52593 0.87703,0.84499 1.3037,1.2724 0,0 0.12227,0.0889 0.12227,0.0889 v 0 c 0.73706,0.39685 1.45384,0.96535 2.29761,1.07213 0.34993,-0.0937 0.5952,-0.31345 0.79536,-0.61256 0.24679,-0.31203 0.50068,-0.61843 0.68324,-0.97486 0.1998,-0.37451 0.38987,-0.75402 0.59776,-1.12429 0.21868,-0.44004 0.43147,-0.88747 0.5741,-1.35874 0.17591,-0.57358 0.34167,-1.15588 0.63391,-1.68384 0.39418,-0.67284 0.83202,-1.31878 1.23087,-1.98896 0.4524,-0.6733 0.9602,-1.30936 1.57934,-1.8388 0.67155,-0.54589 1.40138,-1.0126 2.18356,-1.38556 0.64024,-0.27663 1.29698,-0.50352 1.98628,-0.62424 0.78257,-0.20321 1.50871,-0.55289 2.21545,-0.94242 0.98956,-0.51895 1.99611,-1.00247 3.06508,-1.339 1.05628,-0.38005 2.11249,-0.75999 3.16745,-1.14367 1.24907,-0.4635 2.48435,-0.95688 3.69902,-1.50517 1.47116,-0.59082 2.98319,-1.0981 4.55484,-1.34229 1.40936,-0.17319 2.80656,-0.22933 4.17746,0.2265 0.51574,0.16085 0.85247,0.25356 1.35197,0.4578 0.22462,0.0918 0.8691,0.42847 0.66357,0.29946 -5.53357,-3.47341 -3.0581,-1.80243 -1.83449,-1.02611 0.83875,0.67765 1.7284,1.39154 2.08831,2.44638 0.20642,1.23239 0.22481,1.92658 -0.55175,2.96968 -0.8361,1.06442 -1.88049,1.92433 -3.09275,2.53656 -1.11007,0.49752 -2.26664,0.84129 -3.48965,0.90756 -0.67228,0.0287 -1.3354,-0.003 -1.99619,-0.14039 -0.29013,-0.0559 -0.57678,-0.12367 -0.87487,-0.0976 -0.55377,0.0109 -1.10784,0.0284 -1.66142,-0.003 -1.60409,-0.0866 -3.21451,-0.252 -4.81431,0.002 -2.14272,0.39611 -3.98053,1.14707 -5.66418,2.57208 -1.96064,1.6965 -3.716,3.58102 -5.29191,5.64305 -1.84716,2.17175 -3.82657,4.27124 -6.33022,5.69554 -2.28014,1.19683 -4.05074,1.76993 -6.66746,1.58585 -2.29503,-0.18243 -4.57436,-0.51376 -6.87032,-0.68876 -1.30538,-0.11725 -2.62068,-0.22337 -3.90492,-0.4927 -1.25203,-0.42279 -2.41909,-1.30315 2.32094,1.48185 0.0905,0.0532 -0.17895,-0.10975 -0.26843,-0.16462 -0.4051,-0.24637 -0.21127,-0.12456 -0.5822,-0.36431 0,0 -2.88695,-1.16762 -2.88695,-1.16762 z" />
    <path
       style="fill:#000000"
       id="path410"
       d="m 144.1574,201.82124 c -0.573,0.13749 -1.08757,0.43362 -1.67059,0.54129 -0.33405,0.0617 -0.67386,0.0887 -1.00814,0.14912 -0.40149,0.11503 -0.83261,0.12895 -1.23359,0.24332 -0.0892,0.0254 -0.28423,0.022 -0.25553,0.1102 0.60635,1.86367 0.44403,-0.0187 0.49637,0.80683 0,0 0.12264,0.0884 0.12264,0.0884 v 0 c 0.19222,0.0662 0.38978,0.11848 0.57666,0.19847 0.37322,0.15975 0.71707,0.38906 1.10142,0.51979 0.5077,0.17268 1.15762,-0.22632 1.653,-0.2732 0.78735,-0.2785 1.5176,-0.7215 2.33146,-0.94598 0,0 -2.1137,-1.43825 -2.1137,-1.43825 z" />
    <path
       style="fill:#008000"
       id="path511"
       d="m 116.5413,83.879459 c -0.78792,1.304966 -1.56163,2.618148 -2.28866,3.958085 -0.60108,1.17981 -1.25245,2.333792 -1.74436,3.564726 -0.48715,1.233746 -0.73734,2.519956 -0.91394,3.82908 -0.16519,1.56495 -0.15928,3.14072 -0.20833,4.711911 -0.0703,1.487159 -0.0951,2.974889 -0.0923,4.463509 -0.007,1.17171 0.16393,2.32783 0.4022,3.47131 0.16415,0.95447 0.52583,1.80517 1.14618,2.54484 1.26871,1.25172 2.89149,2.20776 4.66018,2.45125 0.5729,0.0808 1.13583,0.18183 1.70886,0.0676 0.57368,-0.20243 1.03917,-0.62987 1.48575,-1.03021 0.62081,-0.60294 1.08658,-1.34352 1.5927,-2.04116 0.60108,-0.82778 1.0681,-1.73945 1.48925,-2.66862 0.36882,-0.98712 0.64787,-2.00727 0.93687,-3.02038 0.1959,-1.1444 0.42916,-2.28099 0.46452,-3.44299 0.0102,-1.181679 -0.2786,-2.333159 -0.44548,-3.495826 -0.13552,-1.007888 -0.009,-2.021232 -0.0174,-3.032024 -0.1125,-1.028984 -0.39872,-2.032217 -0.60693,-3.046382 -0.24803,-1.015537 -0.44463,-2.045107 -0.74594,-3.046618 -0.27693,-0.791866 -0.64978,-1.54585 -1.10165,-2.251568 -0.46608,-0.837352 -1.3689,-1.226627 -2.17209,-1.680066 0,0 -0.15633,-0.06476 -0.15633,-0.06476 v 0 c -0.55301,-0.132457 -1.60724,-0.610957 -0.82004,0.368699 0.47696,0.676106 0.87181,1.401858 1.16886,2.175772 0.33307,0.985378 0.52029,2.012936 0.77481,3.02036 0.20454,0.9958 0.43924,1.985964 0.62276,2.984268 0.0288,1.026111 -0.12323,2.054341 0.0177,3.077817 0.15599,1.153992 0.44758,2.290825 0.4892,3.457934 -0.0114,1.170164 0.0995,2.351244 -0.18048,3.500654 -0.27607,1.00105 -0.57726,1.99784 -0.92228,2.97712 -0.40025,0.91529 -0.85622,1.80941 -1.44228,2.62164 -0.49209,0.67992 -0.97423,1.38213 -1.57835,1.96814 -0.41835,0.35494 -0.85173,0.75593 -1.40474,0.8687 -0.54951,0.0429 -1.09319,-0.0586 -1.63684,-0.13086 -0.26895,-0.0498 -0.43153,-0.0699 -0.69304,-0.16016 -0.11732,-0.0405 -0.44923,-0.20847 -0.34375,-0.14306 4.26403,2.64409 2.52983,1.59928 1.70783,0.91245 -0.66361,-0.67765 -1.07362,-1.46419 -1.23727,-2.40791 -0.2433,-1.12818 -0.44612,-2.26871 -0.45129,-3.42713 -0.0206,-1.48848 -0.0164,-2.97695 0.0668,-4.46385 0.0431,-1.558321 0.034,-3.122308 0.21406,-4.672852 0.17722,-1.294397 0.38265,-2.599852 0.70371,-3.863064 0.47294,-1.227406 1.11595,-2.375279 1.70351,-3.550212 0.70211,-1.340247 1.43234,-2.673833 2.3232,-3.899861 0,0 -2.47511,-1.456331 -2.47511,-1.456331 z" />
    <path
       style="fill:#008000"
       id="path515"
       d="m 81.674736,82.248051 c -1.031483,1.012046 -2.081347,2.026276 -2.927142,3.201472 -0.719967,1.06287 -1.249772,2.224791 -1.622662,3.449324 -0.270833,1.238122 -0.393237,2.500346 -0.641341,3.743416 -0.332748,1.355782 -0.49712,2.743392 -0.645392,4.129034 -0.133952,1.335744 -0.281647,2.670107 -0.350801,4.011113 -0.04011,1.05402 -0.03061,2.10969 0.0029,3.16377 0.03893,0.79598 0.124914,1.58862 0.306706,2.36487 0.198213,0.75815 0.665359,1.38196 1.16996,1.96393 1.289343,1.22663 2.946874,2.04595 4.519937,2.83615 0.607505,0.30831 1.239895,0.42076 1.913857,0.3799 0.693728,-0.032 1.195639,-0.32888 1.667957,-0.81682 0.652819,-0.69193 0.939538,-1.55527 1.159191,-2.45866 0.2551,-1.43361 0.282837,-2.8928 0.468999,-4.33697 0.249949,-1.79228 0.531553,-3.57064 0.909458,-5.339592 0.243785,-1.648992 0.320473,-3.323354 0.339115,-4.989253 0.03247,-1.520019 -0.184063,-3.018593 -0.418357,-4.514774 -0.128942,-1.343424 -0.472665,-2.608331 -1.048558,-3.824272 -1.026123,-1.124392 -0.405616,-0.52685 -1.932794,-1.715539 0,0 -0.167478,-0.07606 -0.167478,-0.07606 v 0 c -0.887339,0.0743 -0.657824,-0.168992 -0.915135,0.411494 0.503892,1.205411 0.948578,2.411752 1.053851,3.7297 0.236863,1.480665 0.463773,2.963286 0.445284,4.468388 0.0094,1.672274 -0.119722,3.337794 -0.222548,5.005995 -0.06602,1.849709 -0.264235,3.672223 -0.607726,5.493473 -0.200081,1.42383 -0.279928,2.85943 -0.514611,4.27659 -0.212938,0.84677 -0.482275,1.65963 -1.109679,2.29823 -0.445276,0.41947 -0.928644,0.62345 -1.548266,0.6233 -0.6429,-0.01 -1.240934,-0.18165 -1.808,-0.48842 -1.088492,-0.57903 -0.374133,-0.20419 1.887615,1.11148 0.784011,0.45606 -2.227785,-1.23748 -1.314918,-0.91697 -0.508336,-0.53211 -0.98552,-1.11981 -1.222859,-1.82666 -0.205879,-0.75715 -0.300887,-1.53602 -0.352671,-2.31826 -0.04988,-1.05113 -0.06949,-2.10399 -0.04418,-3.15615 0.05584,-1.34123 0.196877,-2.675831 0.310878,-4.013002 0.139184,-1.375998 0.351946,-2.74035 0.664498,-4.088473 0.243317,-1.234868 0.373586,-2.486609 0.627409,-3.718595 0.356209,-1.197182 0.871196,-2.334015 1.552613,-3.383879 0.789424,-1.190997 1.597546,-2.351739 2.781247,-3.19658 0,0 -2.366398,-1.4827 -2.366398,-1.4827 z" />
    <path
       style="fill:#008000"
       id="path517"
       d="m 87.311568,128.32852 c -1.252403,1.28311 -1.76574,2.9617 -1.989075,4.69645 -0.07422,1.87664 0.582071,3.5404 1.49611,5.13618 1.640142,2.5207 4.621258,4.10419 7.453536,4.91242 1.539057,0.34928 2.899617,-0.18118 4.171936,-1.01198 1.350185,-1.05108 2.028465,-2.62768 2.696295,-4.15206 0.50485,-1.19273 0.92725,-2.41782 1.20423,-3.6834 0.37166,-2.2522 0.146,-1.34797 -4.335443,-2.72987 -0.0076,-0.002 0.0196,0.41019 0.06561,1.1352 0.08309,1.62232 0.695522,2.99321 1.770773,4.18652 2.60303,2.33175 5.47542,3.80941 8.85414,3.76735 1.78399,-0.0716 3.1849,-0.74457 4.32335,-2.09546 0.99248,-1.30131 1.41857,-2.76264 1.5142,-4.37047 0.0541,-1.24209 -0.0679,-2.45699 -0.39604,-3.65234 -0.3431,-1.26898 -1.82093,-1.60026 -2.90909,-2.05869 0,0 0.17504,0.13528 0.17504,0.13528 v 0 c -0.30162,-0.14502 -1.61659,-0.78989 -1.76643,-0.69797 -0.15573,0.0955 0.43914,0.45477 0.15317,0.52622 0.19385,1.14255 0.31322,2.30308 0.31822,3.46241 -0.0733,1.49639 -0.37798,2.8921 -1.30029,4.11756 -1.08484,1.22706 -2.43857,1.74666 -4.08329,1.74249 -0.81699,-0.0262 -1.60322,-0.0735 -2.38958,-0.32392 -0.25793,-0.0821 -0.98257,-0.44491 -0.75582,-0.29704 0.90558,0.59057 5.1379,3.1188 2.80413,1.62986 -1.12826,-1.04448 -1.80428,-2.28346 -1.8825,-3.84742 -0.0108,-0.19835 -0.0256,-0.39652 -0.0324,-0.59504 -0.006,-0.16885 0.13232,-0.40911 -0.006,-0.50682 -5.437384,-3.85489 -4.299893,-4.1755 -4.502648,-1.86252 -0.191578,1.25116 -0.634442,2.4378 -1.120336,3.60234 -0.619707,1.44059 -1.268121,2.92136 -2.561008,3.88885 -1.20937,0.73607 -2.479324,1.10564 -3.883291,0.69174 -1.980083,-0.69182 -0.557664,-0.24183 2.942701,1.90674 0.193399,0.11871 -0.414221,-0.18829 -0.607641,-0.30697 -0.694302,-0.426 -1.26319,-1.01874 -1.748498,-1.66589 -0.946937,-1.5073 -1.717153,-3.13131 -1.74471,-4.94725 0.04894,-1.68736 0.536385,-3.2361 1.593395,-4.57918 0,0 -3.523224,-2.15332 -3.523224,-2.15332 z" />
    <path
       style="fill:#008000"
       id="path519"
       d="m 102.04129,122.15949 c -1.03776,-1.14861 -1.88067,-2.45195 -2.823824,-3.67559 -0.586686,-0.71936 -1.243365,-1.37832 -1.898537,-2.03483 -0.135562,-0.0875 -0.349712,-0.4913 -0.494099,-0.35722 0.752424,-0.26987 1.530273,-0.45965 2.311827,-0.62801 1.295173,-0.26323 2.613133,-0.34352 3.927673,-0.22065 1.44527,0.41109 5.03795,2.77826 -3.467151,-2.07344 -0.02741,-0.0156 0.06877,0.03 0.0721,0.0614 0.01257,0.11822 -0.174842,0.48599 -0.19221,0.52523 -1.156702,2.30533 -1.201222,2.72526 -0.357467,5.22642 0.0389,0.29868 0.07781,0.59735 0.116713,0.89602 0,0 0.131683,0.0743 0.131683,0.0743 v 0 c 0.237587,-0.14306 0.475174,-0.28613 0.712762,-0.4292 2.49037,-0.81995 2.45318,-1.18492 3.57945,-3.3887 1.39018,-2.58082 -1.91192,-3.45723 -4.461691,-3.73581 -1.328372,-0.0333 -2.654654,0.10093 -3.958015,0.35919 -0.871676,0.19083 -1.906612,0.29827 -2.611772,0.88434 -0.245277,0.41252 -0.133396,0.65748 0.224026,0.96199 0.683432,0.65345 1.363213,1.31283 1.999143,2.013 0.978079,1.18715 1.806035,2.48519 2.769922,3.68384 0,0 4.419467,1.85781 4.419467,1.85781 z" />
  </g>
</svg>
