<?xml version="1.0" encoding="UTF-8" standalone="no"?>
<!-- Created with Inkscape (http://www.inkscape.org/) -->

<svg
   width="210px"
   height="297px"
   viewBox="0 0 210 297"
   version="1.1"
   id="svg5"
   inkscape:version="1.2.2 (b0a8486541, 2022-12-01)"
   sodipodi:docname="klah.svg"
   xmlns:inkscape="http://www.inkscape.org/namespaces/inkscape"
   xmlns:sodipodi="http://sodipodi.sourceforge.net/DTD/sodipodi-0.dtd"
   xmlns="http://www.w3.org/2000/svg"
   xmlns:svg="http://www.w3.org/2000/svg">
  <sodipodi:namedview
     id="namedview7"
     pagecolor="#ffffff"
     bordercolor="#000000"
     borderopacity="0.25"
     inkscape:showpageshadow="2"
     inkscape:pageopacity="0.0"
     inkscape:pagecheckerboard="0"
     inkscape:deskcolor="#d1d1d1"
     inkscape:document-units="mm"
     showgrid="false"
     inkscape:zoom="0.39187386"
     inkscape:cx="435.08899"
     inkscape:cy="484.8499"
     inkscape:window-width="1280"
     inkscape:window-height="651"
     inkscape:window-x="0"
     inkscape:window-y="0"
     inkscape:window-maximized="1"
     inkscape:current-layer="layer5" />
  <defs
     id="defs2" />
  <g
     inkscape:groupmode="layer"
     id="layer5"
     inkscape:label="Layer 5"
     style="display:inline">
    <path
       style="opacity:1;fill:#ce5a00;fill-opacity:1;stroke-width:0.376755"
       d="m 90.861759,36.189219 c -2.95393,-0.09806 -5.486881,1.306419 -8.237522,1.993101 -1.593346,0.397775 -3.337682,0.516578 -4.867188,1.152901 -2.703493,1.124736 -5.133606,2.840371 -7.855479,3.908706 -1.386675,0.544267 -2.674055,1.249746 -4.01203,1.902009 -1.826756,0.890544 -3.856785,1.395734 -5.521132,2.660638 -0.791745,0.601728 -1.238927,1.518023 -2.005338,2.14809 -3.330311,2.737859 -6.736401,5.438596 -9.44887,8.769098 -0.721027,0.885317 -1.642214,1.588411 -2.29764,2.530116 -0.590336,0.848195 -0.870798,1.87585 -1.456076,2.738142 -0.92079,1.356575 -2.097405,2.537137 -2.865933,4.005236 -0.868312,1.658697 -1.273588,3.464104 -1.889775,5.216583 -0.723498,2.057704 -1.685531,4.019974 -2.394167,6.083986 -1.013431,2.951793 -1.51647,6.201608 -2.097786,9.273498 -0.45859,2.42339 -0.350985,4.99162 -0.368437,7.44898 -0.0064,0.90092 -0.172011,1.76571 -0.220246,2.66063 -0.18966,3.518667 0.906507,9.426987 1.800043,12.832787 0.518373,1.97583 1.445635,3.85038 1.862585,5.85694 1.036773,4.98947 1.382423,9.9737 3.340414,14.73616 0.967689,2.35373 2.145242,4.69884 3.571536,6.80862 0.804712,1.19034 1.713487,2.31476 2.3561,3.61098 1.398915,2.82173 2.802551,5.89819 4.917494,8.2715 0.935733,1.05004 2.293457,1.50372 3.378478,2.33569 1.189014,0.91172 2.279017,1.94617 3.481807,2.84827 1.136442,0.85233 2.426468,1.45334 3.591935,2.2582 2.325017,1.60566 4.29893,3.44764 6.852128,4.73125 3.600523,1.81014 7.730207,2.49857 11.577925,3.60415 2.259266,0.64918 4.559572,1.86805 6.905164,2.13586 1.434237,0.16377 2.796715,-0.56415 4.232271,-0.51799 4.791675,0.15405 9.53161,0.49902 14.33373,0.38884 2.0643,-0.0474 4.1326,-0.37281 6.19275,-0.53703 1.13044,-0.0901 2.27817,-0.0163 3.40431,-0.11695 2.21241,-0.19758 4.45154,-0.84464 6.66587,-1.14608 4.08853,-0.5566 8.20785,-0.5095 12.0429,-2.26502 1.75076,-0.80143 3.86583,-1.72608 5.41645,-2.86729 1.64155,-1.20816 3.06899,-2.78202 4.72443,-3.96716 1.88075,-1.34646 4.13102,-1.84493 5.75361,-3.57834 0.87168,-0.93122 1.36757,-2.10889 2.10323,-3.13241 1.37553,-1.9138 2.91723,-3.77349 4.17382,-5.75905 0.47014,-0.74289 1.00056,-1.74489 1.58524,-2.39552 0.62273,-0.69302 1.77096,-0.99573 2.48524,-1.66273 1.69448,-1.5823 2.81226,-3.36269 4.16703,-5.20301 0.77968,-1.05913 1.75718,-1.92429 2.47845,-3.06169 1.92279,-3.03208 4.85453,-8.61667 5.00315,-12.13399 0.0779,-1.84426 -0.25513,-3.78694 -0.30454,-5.6435 -0.0484,-1.81753 0.62935,-3.5314 0.36843,-5.37837 -0.14744,-1.04373 -0.6783,-1.89569 -0.89322,-2.8673 -0.44065,-1.99221 -0.68732,-4.15188 -1.36499,-6.07038 -0.45248,-1.281027 -1.01662,-2.545277 -1.43702,-3.843437 -0.54877,-1.69446 -0.54403,-3.6854 -0.84702,-5.43006 -0.2165,-1.24669 -0.94222,-2.39656 -1.38539,-3.55385 -0.39635,-1.03511 -0.45452,-2.19104 -0.80212,-3.24117 -0.53953,-1.629977 -1.53046,-3.007186 -2.16168,-4.595282 -0.49302,-1.24041 -0.68198,-2.482926 -1.35276,-3.669424 -0.71223,-1.259833 -1.72206,-2.301101 -2.31667,-3.624556 -1.35636,-3.019004 -1.90813,-6.317701 -3.74691,-9.151134 -0.84182,-1.297167 -2.22545,-2.143525 -3.33226,-3.184068 -0.7217,-0.678458 -1.21232,-1.67671 -1.86395,-2.4336 -0.77654,-0.901946 -1.89185,-1.494217 -2.7055,-2.354734 -1.90454,-2.014269 -3.2171,-4.497332 -5.20845,-6.459222 -1.2304,-1.212211 -2.94907,-1.560235 -4.356,-2.517885 -2.56608,-1.74667 -4.65995,-4.038352 -7.48022,-5.416448 -4.03171,-1.970039 -8.71717,-2.203687 -12.99458,-3.339055 -1.3093,-0.34753 -2.45772,-1.216863 -3.83802,-1.547165 -1.08639,-0.259973 -2.25097,-0.0751 -3.35265,-0.232484 -2.35174,-0.335964 -4.68474,-0.630738 -7.0411,-0.919057 -1.87173,-0.229015 -3.69878,-0.622837 -5.590475,-0.576448 -1.36732,0.03353 -2.69582,0.334504 -4.05824,0.433695 -0.874729,0.06368 -2.137269,-0.245135 -2.957026,0.13596 -0.620269,0.288347 -1.225419,0.608173 -1.83811,0.912255 z"
       id="path6999" />
    <path
       style="opacity:1;fill:#ce5a00;fill-opacity:1;stroke-width:0.376755"
       d="m 153.25965,58.102446 c 3.20493,-2.91118 5.03132,-7.010715 6.28383,-11.078973 0.38007,-1.234488 0.83972,-2.37533 0.9381,-3.683017 0.11284,-1.499766 -0.28998,-2.915146 0.0707,-4.368234 0.35701,-1.438312 0.36048,-8.911106 -0.49215,-10.12185 -0.79154,-1.123975 -1.91704,-2.29923 -3.22893,-2.893124 -0.51672,-0.233921 -1.19525,-0.04619 -1.74023,-0.174019 -3.44272,-0.807554 -6.99551,-0.731881 -10.15991,1.229032 -0.4888,0.3029 -1.08039,0.405185 -1.54038,0.776301 -2.98658,2.40963 -4.47578,9.061378 -4.78969,12.646533 -0.0964,1.100744 -0.60427,4.89059 -0.0965,5.313122"
       id="path7001" />
    <path
       style="opacity:1;fill:#ce5a00;fill-opacity:1;stroke-width:0.376755"
       d="m 46.810978,58.374351 c -4.952164,-1.190071 -6.629885,-5.362799 -8.561088,-9.558988 -0.350583,-0.761765 -0.890255,-1.439643 -1.21,-2.220148 -0.665096,-1.623523 -0.877034,-3.346195 -1.094437,-5.06704 -0.597773,-4.731678 -0.149657,-7.59025 2.530126,-11.641829 1.451951,-2.195213 2.623795,-3.793206 5.054804,-4.918849 0.655518,-0.303526 1.641337,-0.259281 2.368335,-0.466325 1.707983,-0.48643 3.999771,-2.034201 5.875975,-1.462877 3.769851,1.147965 9.631307,10.589429 11.170062,13.706982 0.478748,0.969953 0.703259,2.012511 1.106675,3.010046 0.296629,0.73349 1.905156,5.504618 1.132502,5.526567"
       id="path7003" />
    <path
       style="opacity:1;fill:#ce5a00;fill-opacity:1;stroke-width:0.376755"
       d="m 55.185805,200.4038 c 1.903006,0.85881 8.0895,1.32707 8.69024,3.67623 0.233238,0.91206 -0.544746,1.95211 -1.041415,2.60217 -1.350767,1.76799 -3.122021,3.68526 -5.455871,2.01214 -2.157708,-1.54685 -2.071137,-5.92616 -2.192954,-8.29054 z"
       id="path7005" />
    <path
       style="opacity:1;fill:#ce5a00;fill-opacity:1;stroke-width:0.376755"
       d="m 171.30767,131.17008 c 1.81806,-4.31145 5.1513,-6.8165 9.75885,-6.30966 1.04818,0.1153 2.04928,0.087 2.99645,0.64714 0.75328,0.44552 1.21694,1.43638 1.9292,1.97951 0.72336,0.5516 1.82067,0.73625 2.43903,1.50774 0.5417,0.67586 0.85562,1.44257 1.24263,2.19431 0.41015,0.79671 1.24728,1.2294 1.63145,2.02574 0.97719,2.02541 1.27054,4.59416 1.91426,6.7828 0.28995,0.98578 1.107,1.77902 1.31469,2.82105 0.58578,2.93919 0.0354,5.54883 -0.12916,8.47137 -0.15356,2.72669 -0.23944,5.26683 -0.93946,7.94792 -0.41948,1.60662 -1.32324,6.47051 -2.23238,7.45577 -1.21244,1.31395 -3.31445,2.74489 -5.09287,3.0481 -0.96946,0.1653 -6.38824,-2.28711 -7.19609,-2.9842 -0.68833,-0.59396 -1.22502,-1.13274 -1.51456,-2.01893 -0.15037,-0.46034 -1.51693,-5.60763 -1.69534,-5.54697 -0.2392,0.0813 -0.54417,1.36542 -0.62132,1.61788 -0.4406,1.4417 -0.7888,3.02103 -1.39762,4.40085 -0.51397,1.16485 -1.10733,2.27829 -1.36498,3.54707 -0.90346,4.44892 -2.32853,8.84346 -2.60218,13.40923 -0.1653,2.75779 0.61693,5.3184 0.75727,8.02544 0.10613,2.04732 -0.34399,4.08647 -0.33037,6.14787 0.0226,3.42968 -0.0881,6.79308 -0.21346,10.21838 -0.052,1.41904 0.25332,2.94241 0.0912,4.33696 -0.17288,1.48613 -1.0515,2.77458 -1.47512,4.16159 -0.53122,1.73935 -0.86861,3.87255 -1.70895,5.48034 -0.71297,1.36409 -2.84202,3.73318 -4.09633,4.60888 -0.74891,0.52285 -1.8385,0.84124 -2.67287,1.22222 -0.70076,0.31999 -1.2021,1.03085 -1.94823,1.26847 -0.47183,0.15027 -6.63667,0.7783 -7.01528,0.63491 -0.84477,-0.31992 -1.62789,-1.13065 -2.36834,-1.6437 -0.70411,-0.48786 -1.64184,-0.61783 -2.40096,-1.00335 -1.2539,-0.63676 -2.28726,-2.25237 -2.8401,-3.51443 -1.05186,-2.40129 -0.66986,-5.50854 -0.86739,-8.05125 -0.10636,-1.36911 -0.22686,-2.93591 0.29774,-4.23229 0.2792,-0.68997 1.07719,-1.33374 1.51454,-1.94822 2.0621,-2.89728 3.273,-4.9569 5.9725,-7.43539 0.30338,-0.27856 0.40099,-0.73919 0.75047,-0.99655 0.93201,-0.6863 1.8064,-1.71672 2.73813,-2.30444 0.4656,-0.29367 1.5486,0.0527 1.60428,-0.64034 0.16251,-2.02298 -1.51673,-4.23667 -1.97408,-6.19274 -0.36147,-1.54606 -0.58463,-3.24344 -1.07405,-4.73804 -0.63545,-1.94062 -1.40649,-4.0201 -1.79867,-6.02553 -0.28053,-1.43449 -0.42441,-2.89835 -0.70561,-4.3356 -0.25662,-1.31167 -1.095,-3.13871 -1.51454,-4.51099 -0.29302,-0.95845 -0.58897,-2.11598 -1.00878,-3.02227 -0.96732,-2.08831 -2.44957,-4.14008 -2.57636,-6.54896 -0.0185,-0.35277 4.68732,-4.40673 5.35256,-4.99634 1.11046,-0.98421 2.02204,-2.27294 3.09298,-3.32682 1.59315,-1.56779 3.307,-2.62124 4.61431,-4.4974 1.28358,-1.84209 2.17869,-3.93733 3.53348,-5.73458 1.12379,-1.49085 2.52651,-2.74368 3.66261,-4.21868 2.33089,-3.02614 2.86875,-4.83856 6.16691,-7.18387 z"
       id="path7011" />
    <path
       style="opacity:1;fill:#003f0e;fill-opacity:1;stroke-width:0.376755"
       d="m 68.588246,166.06566 c -4.093658,2.35632 -5.415817,6.78701 -7.022076,10.89815 -1.104995,2.82817 -2.156409,5.68661 -3.242526,8.51622 -0.447213,1.16511 -0.484178,2.48694 -0.931292,3.6436 -0.503314,1.30204 -1.213694,2.52109 -1.695358,3.83119 -0.341223,0.92815 -1.884199,7.17955 -1.29429,7.98057 0.355978,0.48339 0.898467,0.47855 1.430247,0.61452 0.777054,0.19867 1.65685,-0.33474 2.464862,-0.19442 0.764884,0.13286 3.656666,1.4357 4.16838,1.42345 0.431781,-0.009 0.614183,-0.18267 0.976158,-0.34261 0.283882,-0.12545 2.493619,-0.783 2.666076,-0.22024 0.116881,0.3814 -0.46911,1.13462 -0.394267,1.65729 0.08017,0.55989 0.490471,0.79403 0.614515,1.3011 0.49506,2.02365 0.728551,4.09889 0.524785,6.18594 -0.105127,1.0768 -1.225682,3.71326 -0.796694,4.60888 0.09924,0.20721 0.899144,0.78531 1.087639,0.8606 0.536716,0.21436 1.113426,-0.0345 1.669526,0.0639 1.46632,0.25928 5.405475,1.71507 6.562547,1.15969 1.816982,-0.87216 1.884123,-1.52364 1.934637,-3.66398 0.03466,-1.46809 0.109552,-3.0377 0.316781,-4.49059 0.74821,-5.24569 1.68812,-10.39752 2.096416,-15.69465 0.188829,-2.44971 1.578569,-4.55677 2.032528,-6.93779 0.88947,-4.66513 1.213182,-9.47977 1.631468,-14.18554 0.01553,-0.17535 0.283308,-0.95501 0.199853,-1.04822 -0.332807,-0.3717 -2.440224,-0.50701 -3.022277,-0.77765 -2.864699,-1.33204 -5.942495,-1.93561 -8.858831,-3.12561 -0.431924,-0.17624 -1.726632,-0.15712 -2.013495,-0.52344 -0.389643,-0.49754 -0.736876,-1.02689 -1.105312,-1.54036 z"
       id="path20373" />
    <path
       style="opacity:1;fill:#003f0e;fill-opacity:1;stroke-width:0.376755"
       d="m 132.06562,171.96067 c 0.91108,6.76085 0.35711,13.59963 0.10342,20.39869 -0.0283,0.7591 -0.3369,1.47919 -0.35621,2.24053 -0.1093,4.31067 0.0494,8.66449 0.20802,12.98097 0.0684,1.85984 0.0655,7.6348 3.22893,7.24234 0.78963,-0.098 1.40261,-0.56107 2.14808,-0.75047 3.40882,-0.86611 3.79109,-1.64644 5.50754,-4.57489 0.6912,-1.17925 1.60061,-2.23327 2.26502,-3.42471 0.48606,-0.87162 0.75675,-1.99939 1.43024,-2.74358 0.44162,-0.48795 1.17552,-0.68365 1.82452,-1.03597 1.92213,-1.04343 4.4624,-3.82558 4.6986,-6.07582 0.17943,-1.70917 -0.40576,-3.21732 -0.69881,-4.82913 -0.24773,-1.36251 0.0314,-2.77696 -0.23928,-4.14799 -0.21821,-1.10508 -0.73893,-2.20062 -1.02918,-3.30643 -0.21109,-0.80423 -0.20724,-1.60542 -0.36299,-2.40775 -0.35935,-1.85104 -1.12395,-3.64904 -1.54581,-5.4953 -0.75413,-3.3005 -1.80605,-6.3075 -2.97742,-9.44751 -0.31512,-0.84475 -0.8707,-4.49324 -1.58524,-4.93245 -0.35798,-0.22006 -1.39145,1.39931 -1.57298,1.62466 -1.06099,1.31694 -2.13013,2.73089 -3.33226,3.9155 -1.09897,1.08295 -2.27979,1.96664 -3.22351,3.2031 -0.34724,0.45497 -2.38522,2.37615 -2.57498,0.91906"
       id="path20375" />
    <path
       style="opacity:1;fill:#ffe876;fill-opacity:1;stroke-width:0.376755"
       d="m 68.614077,161.37385 c 0.167968,1.345 -0.45025,3.97651 0.891865,5.03441 0.742714,0.58543 2.699518,0.78047 3.676221,1.19097 1.706688,0.71731 3.459844,2.30614 5.30633,2.67968 0.807262,0.16329 3.644488,0.35875 4.006591,1.22224 1.325887,3.16172 1.438874,6.26406 1.869384,9.63105 0.269542,2.10805 1.224771,4.04189 1.715746,6.09622 0.157932,0.6608 0.465007,2.93379 1.268469,3.18406 0.561452,0.17488 -3.88e-4,-4.97991 -0.03259,-5.28186 -0.195842,-1.83999 0.209796,-3.59568 0.335819,-5.41645 0.07942,-1.14783 -0.04259,-2.35673 -0.0313,-3.50764 0.0047,-0.47535 -0.959218,-3.77274 -0.09777,-3.77274 1.131034,0 2.326496,0.37878 3.449176,0.55606 0.354879,0.0561 0.516518,-0.37195 0.867397,-0.25832 0.857561,0.27774 1.705663,1.30185 2.581767,1.37179 0.569817,0.0454 1.086443,-0.30854 1.643703,-0.31679 1.62637,-0.0241 3.39991,0.0341 5.015375,0.1618 1.69187,0.13356 3.28497,0.74332 5.01537,0.80893 1.77923,0.0675 3.56341,-0.0484 5.35257,0.0191 1.47997,0.0558 3.10214,0.48376 4.56808,0.29773 1.60893,-0.20416 3.2837,-0.3429 4.87942,-0.6145 1.75953,-0.2995 3.79351,-0.86993 5.59862,-0.80893 0.3716,0.0128 -0.87217,4.3164 -0.95169,4.93107 -0.38363,2.96616 -2.72655,9.85158 -1.71573,12.34745 0.0684,0.1686 0.28668,0.0948 0.41465,0.0911 1.62256,-0.0479 2.30752,-2.3763 2.74357,-3.61775 0.36771,-1.04684 1.03388,-1.87371 1.45608,-2.87954 0.45481,-1.0835 0.70476,-2.28216 1.28206,-3.30777 0.90785,-1.61287 2.14184,-3.07709 2.65927,-4.89847 0.41899,-1.47481 -0.37641,-2.98269 0,-4.41988 0.0648,-0.24732 6.23643,-4.83082 6.95003,-5.50754 0.34038,-0.3228 1.77256,-1.6425 1.08084,-2.1549 -0.8251,-0.61117 -2.28191,-0.0394 -3.19631,-0.0394 -3.16983,0 -5.32607,1.16096 -8.30956,1.81907 -0.77964,0.17198 -1.59341,-0.29404 -2.38194,-0.0204 -1.07837,0.37423 -1.89316,1.0529 -3.08619,1.24263 -2.03716,0.32398 -3.91549,-0.38818 -5.88276,-0.17402 -1.41206,0.15371 -2.77755,0.77825 -4.18742,0.95169 -1.47463,0.18139 -2.86787,-0.13386 -4.32198,-0.0978 -1.89834,0.0468 -3.73099,0.50691 -5.6503,0.3562 -0.91766,-0.072 -1.83958,-0.588 -2.74358,-0.57645 -3.554265,0.0454 -7.230811,-0.20937 -10.755394,-0.74367 -1.097242,-0.16633 -2.262972,-0.0232 -3.352649,-0.24608 -0.512023,-0.10483 -0.966618,-0.3662 -1.487348,-0.45272 -2.710308,-0.45041 -5.50567,-0.493 -8.19944,-1.08764 -1.072336,-0.23672 -2.06372,-0.9545 -3.132405,-1.2875 -2.7407,-0.85399 -2.53885,-0.38649 -5.111909,-2.50429 z"
       id="path27687" />
    <path
       style="opacity:1;fill:#0a0a35;fill-opacity:1;stroke-width:0.376755"
       d="m 141.5784,212.03476 c 1.22149,3.36948 0.27191,6.95422 0.27191,10.41278 0,3.21451 0.2835,6.36201 0.11695,9.59027 -0.15718,3.04589 -1.12892,6.08979 -1.34051,9.1321 -0.37019,5.32227 0.31597,11.76205 -4.05012,15.68784 -1.62795,1.46379 -4.10864,1.27324 -6.103,1.61107 -1.12614,0.19077 -2.09707,0.64639 -3.26156,0.81574 -0.96404,0.14011 -6.0232,0.74813 -6.6917,0.14819 -0.82416,-0.73963 -0.84552,-3.31638 -0.90547,-4.33561 -0.0872,-1.48126 -0.6571,-2.9583 -0.77087,-4.43349 -0.14687,-1.90451 0.32544,-3.713 0.34397,-5.58503 0.0148,-1.49963 -0.29774,-2.99105 -0.29774,-4.48515 0,-1.79312 0.44433,-3.64235 0.20665,-5.44229 -0.30169,-2.28462 -1.05361,-4.5579 -1.19777,-6.8467 -0.05,-0.79342 0.15016,-5.72934 -0.43913,-6.16147 -0.74492,-0.54627 -3.13021,0.21774 -3.93454,0.27192 -0.99054,0.0666 -2.03472,-0.12005 -3.02228,-0.18763 -1.41533,-0.0968 -2.86265,0.0605 -4.28394,0.0259 -1.46299,-0.0358 -3.1305,-0.35812 -4.58168,-0.13599 -0.85768,0.13129 -1.692945,0.34564 -2.569545,0.36164 -0.50008,0.008 -1.19994,-0.35649 -1.66272,-0.15499 -1.53397,0.6679 -3.087547,9.14253 -3.087547,10.769 0,1.08696 0.21129,2.17531 0.252882,3.26156 0.110363,2.88417 -0.62821,5.44259 -1.261668,8.21984 -0.562546,2.46636 -0.726855,5.00634 -1.268458,7.48159 -0.443959,2.02907 -1.771692,4.14679 -2.750382,5.97251 -0.71996,1.34311 -1.942673,4.25066 -3.585118,4.6986 -0.754081,0.20566 -7.709084,-0.8902 -8.393866,-1.2168 -1.202119,-0.57331 -2.113985,-1.47432 -3.468209,-1.74021 -1.451755,-0.28505 -3.571972,-0.93829 -3.973962,-2.60218 -0.27848,-1.15266 0.333242,-2.63508 0.284145,-3.83802 -0.08603,-2.10789 -0.593379,-4.15022 -0.581888,-6.27023 0.01443,-2.66316 0.444248,-5.30564 0.368436,-7.96698 -0.02867,-1.00643 -0.324631,-2.0417 -0.277344,-3.0413 0.214147,-4.52701 0.29723,-9.10525 0.886426,-13.61726 0.154376,-1.18221 -0.222445,-4.24112 0.290942,-5.17036 0.600439,-1.08679 1.803855,-0.64822 2.789799,-0.95848 2.044478,-0.64337 3.887864,-1.88433 4.476988,-4.22548 0.468443,-1.86152 -0.88303,-8.35272 2.34931,-8.63316 0.545792,-0.0474 1.131798,0.15903 1.638257,0.11001 1.436955,-0.13868 2.747499,-1.19633 4.244519,-0.93944 1.48603,0.25499 3.011594,1.4079 4.530016,1.47647 2.124842,0.096 4.273875,-0.59278 6.387162,-0.49215 1.62464,0.0773 3.000435,0.95325 4.595275,1.02237 1.99417,0.0865 4.08587,-0.19441 6.10846,-0.19441 1.65232,0 3.32433,0.33755 4.95691,0.30454 1.67433,-0.0339 5.00405,-0.86975 6.60742,-1.53357 0.74593,-0.30883 1.4391,-0.91185 2.27181,-0.95848 1.04316,-0.0584 2.30019,-0.28953 3.33224,-0.0966 0.72262,0.13513 1.38141,0.78759 2.12906,0.64036 1.42428,-0.28049 3.07692,-1.36641 4.60752,-0.83476 0.3016,0.10483 0.64075,0.37578 0.72465,0.6988 0.24631,0.94825 -3.10434,11.91686 0.50574,11.52626 1.56683,-0.16952 3.08381,-0.86787 4.65239,-0.92585 1.35223,-0.05 2.57199,-0.78708 3.83121,-1.21544 z"
       id="path31113" />
    <path
       style="opacity:1;fill:#202020;fill-opacity:1;stroke-width:0.376755"
       d="m 120.28106,259.82158 c 0.14554,1.73819 0.66067,3.36192 1.09306,5.0276 0.26866,1.03491 0.1544,2.15514 0.40243,3.2031 0.12702,0.5365 0.13684,1.04487 0.20666,1.5866 0.11448,0.88851 0.36689,1.16257 0.90001,1.79189 1.69506,2.00093 4.36335,-3.5523 6.11526,-3.18407 1.67165,0.35136 4.6242,5.26807 6.69714,3.15825 1.00053,-1.01833 3.26794,-7.20027 3.475,-8.73648 0.25157,-1.86622 -0.0764,-3.7734 0.0652,-5.6367 0.0257,-0.3365 0.43585,-2.07239 -0.0259,-2.33705 -0.74238,-0.42558 -1.78057,0.72128 -2.23918,1.12026 -2.0791,1.80883 -3.00822,1.70866 -5.58504,2.29084 -1.14253,0.25814 -2.12543,0.65395 -3.3268,0.65395 -1.06266,0 -5.43965,-0.35462 -6.14109,0.0448 -0.5582,0.3179 -1.09127,0.67798 -1.6369,1.01695 z"
       id="path33763" />
    <path
       style="opacity:1;fill:#202020;fill-opacity:1;stroke-width:0.376755"
       d="m 80.087322,270.09161 c 0.480821,0.17041 1.272082,0.99201 1.442474,0.5112 0.170404,-0.48083 -1.916023,-0.70088 -1.442474,-0.5112 1.001398,0.40113 2.105958,0.58115 3.029078,1.13931 0.417062,0.25216 1.29226,1.32287 1.889774,1.0482 1.67353,-0.76927 3.199176,-10.81377 2.018926,-11.40389 -0.462654,-0.23133 -1.564649,0.76622 -2.116817,0.80892 -2.002631,0.15491 -3.961082,0.0386 -5.856938,-0.58868 -1.620067,-0.53605 -7.505874,-3.68582 -8.88466,-2.86049 -0.459001,0.27476 -0.209424,1.62581 -0.168587,2.02573 0.299551,2.93334 1.110615,10.2542 2.69191,12.62615 0.218541,0.3278 0.914686,-0.67573 1.035976,-0.78311 1.002734,-0.8878 2.91166,-3.74645 4.490602,-2.99645"
       id="path33767" />
    <path
       style="opacity:1;fill:#090909;fill-opacity:1;stroke-width:0.376755"
       d="m 183.61024,270.57698 c 0.41983,-1.92936 0.12288,-1.12959 0.73144,-2.45264"
       id="path33769" />
    <path
       style="opacity:1;fill:#ffffff;fill-opacity:1;stroke-width:0.376755"
       d="m 97.559525,140.67128 c -0.30766,0.31757 -0.63419,0.61788 -0.92297,0.95271 -0.15656,0.18154 0.0475,2.08805 0.18477,2.14968 0.35179,0.15793 0.73354,0.0593 1.0771,0.14511 1.06085,0.26522 1.1688,0.38527 2.376805,0.34341 0.8014,-0.0278 3.51782,0.16872 4.01544,-0.7418 0.0913,-0.16709 -0.1166,-0.59897 -0.14154,-0.76433 -0.0399,-0.26445 -0.12232,-0.9682 -0.31276,-1.16633 -0.55157,-0.57362 -1.72218,-0.22797 -2.31734,-0.80668 -0.65633,-0.63822 -0.13029,-2.92518 -1.599855,-2.89238 -1.19421,0.0266 -2.01692,2.04952 -2.35968,2.78061 z"
       id="path33834" />
    <path
       style="opacity:1;fill:#67431b;fill-opacity:1;stroke-width:0.376755"
       d="m 86.151373,82.438975 c -0.300769,0.0072 -0.863303,-0.974855 -1.411482,-0.875192 -1.545295,0.280961 -2.175871,1.654239 -3.029373,2.806747 -2.518549,3.400843 -4.049689,10.507643 -4.049689,14.728643 0,1.838577 0.585571,5.910967 1.223112,7.599127 0.242281,0.64157 0.302416,1.58289 0.754411,2.11903 2.138867,2.5371 4.473387,-2.3873 4.955525,-3.8613 0.406449,-1.24264 0.783001,-2.48689 1.218594,-3.71979 0.505776,-1.431517 0.68291,-2.999487 1.038343,-4.475117 0.149578,-0.62107 0.441664,-1.17954 0.570535,-1.80626 0.467395,-2.27302 0.540508,-4.47984 0.441652,-6.77441 -0.01906,-0.44272 0.143037,-0.85655 0.07742,-1.30062 -0.163086,-1.10532 -1.114973,-2.19266 -1.004092,-3.269125"
       id="path33836" />
    <path
       style="opacity:1;fill:#67431b;fill-opacity:1;stroke-width:0.376755"
       d="m 119.79176,84.138882 c -3.86926,3.968331 -5.21932,9.486561 -5.02403,14.939561 0.0428,1.197427 0.43631,2.328947 0.54081,3.508887 0.10201,1.15104 -0.33175,2.55998 0.0468,3.66031 0.0897,0.26069 0.32274,0.41514 0.43355,0.66067 0.36872,0.81705 1.14093,3.55269 2.13615,3.73243 2.53641,0.45804 3.35861,-1.87513 4.22184,-3.80544 1.36576,-3.05403 1.01602,-6.51429 1.1501,-9.756897 0.026,-0.63081 0.18994,-1.25881 0.21,-1.88739 0.0182,-0.56944 -0.14265,-1.19769 -0.21,-1.76391 -0.16076,-1.35158 0.0608,-2.73343 -0.27041,-4.07581 -0.19848,-0.80439 -0.44416,-1.90217 -0.9482,-2.57422 -0.37889,-0.50517 -0.89842,-1.26783 -1.10232,-1.87025"
       id="path45367" />
    <path
       style="opacity:1;fill:#bd3a00;fill-opacity:1;stroke-width:0.376755"
       d="m 153.15724,29.150466 c -0.72821,0.02683 -1.44819,-0.451743 -2.19204,-0.425429 -0.35278,0.01253 -0.91379,0.342606 -1.24023,0.480408 -4.03961,1.705194 -4.00956,5.533436 -5.19168,9.040355 -1.01894,3.022858 -2.08416,5.848675 -1.72424,9.057478 0.0344,0.305617 -0.002,0.602624 0.15053,0.884207 0.40997,0.752826 1.45026,1.356108 2.08929,1.926143 0.22375,0.199601 2.22046,1.771665 2.36779,1.797256 1.10779,0.192389 3.03453,-2.476293 3.61704,-3.242991 0.88477,-1.164505 1.31138,-2.524487 2.02529,-3.780182 0.72554,-1.276147 1.6238,-2.482502 2.12354,-3.878431 0.48288,-1.348842 0.88769,-3.675345 0.78055,-5.131279 -0.0482,-0.656647 -0.31057,-1.265059 -0.39928,-1.913526 -0.11401,-0.833213 -0.1672,-1.878619 -0.48491,-2.665236 -0.21833,-0.540515 -1.7342,-1.982415 -1.92165,-2.148773 z"
       id="path45369" />
    <path
       style="opacity:1;fill:#bd3a00;fill-opacity:1;stroke-width:0.376755"
       d="m 50.825495,55.68656 c -1.15248,-0.881242 -2.688078,-1.932329 -3.488152,-3.260117 -0.308706,-0.512315 -0.442711,-1.098646 -0.747204,-1.617889 -0.779503,-1.329257 -1.549877,-2.580462 -2.200149,-3.985686 -0.791903,-1.711281 -1.125915,-3.820995 -1.506126,-5.659459 -0.685812,-3.316168 -1.444095,-5.111806 0.06851,-8.404916 0.535364,-1.165557 1.555161,-2.763625 2.922114,-3.054612 0.621077,-0.1322 1.169878,0.138223 1.767509,0.110869 4.140728,-0.189576 5.597777,2.40436 8.322896,4.686023 0.623633,0.522149 1.391302,1.172946 1.784635,1.921638 0.716208,1.363263 1.13539,2.859103 1.789143,4.247974 0.46134,0.980098 1.879735,3.762127 1.574627,4.787875 -0.198596,0.667663 -2.849758,2.99985 -3.441284,3.595411 -2.237091,2.252348 -4.529275,4.457362 -6.846511,6.632894 z"
       id="path64964" />
    <path
       style="opacity:1;fill:#7e531e;fill-opacity:1;stroke-width:0.376755"
       d="m 97.157235,114.84463 c -0.14648,1.24739 0.17554,2.47134 0.46577,3.67378 0.24408,1.01113 0.4846,4.39638 2.12065,4.07692 0.25361,-0.0495 1.182245,-0.45464 1.355855,-0.5926 0.10189,-0.0811 2.52356,-4.72476 2.80954,-5.23549 0.27926,-0.49875 0.31847,-1.09567 0.54798,-1.61027 0.0156,-0.0352 0.10224,-0.1554 0.0634,-0.18944 -1.05888,-0.92816 -2.9636,-0.16516 -4.14346,-0.0752 -1.101955,0.084 -2.097995,-0.17412 -3.219735,-0.0477 z"
       id="path64966" />
    <circle
       id="path337"
       style="fill:#000000;stroke:none;stroke-width:0.264583"
       cx="97.927414"
       cy="173.291"
       r="0.39687499" />
    <path
       style="fill:#ffffff;stroke-width:0.264583"
       d="m 88.050226,172.96325 14.693114,0.50174 9.70945,1.14711 14.70806,-1.11626 -3.73389,16.74634 3.24661,0.10025 4.92485,-11.98343 0.55283,24.77852 -21.49672,0.15423 -14.913373,1.70861 -15.934689,-1.46473 2.542918,-28.37021 3.712198,13.66794 2.37037,1.4228 z"
       id="path339" />
    <path
       style="fill:#ffffff;stroke-width:0.264583"
       d="m 123.39237,272.4876 c 0,-0.0497 -0.007,-0.1 0,-0.14917 0.0147,-0.0995 0.53277,-0.59783 0.64871,-0.71377 0.18732,-0.18733 0.37068,-0.4286 0.58445,-0.58446 0.13015,-0.0949 0.29928,-0.17556 0.42345,-0.28229 0.18706,-0.16081 0.38059,-0.29895 0.5876,-0.43698 0.19494,-0.13002 0.43847,-0.24816 0.61033,-0.40691 0.11756,-0.10856 0.21828,-0.23495 0.33947,-0.33946 0.28147,-0.2427 0.62244,-0.35938 0.93404,-0.54634 0.0598,-0.0359 0.46908,-0.44029 0.50086,-0.50098 0.0194,-0.0371 -0.0273,-0.0527 0.0317,-0.0821 0.0245,-0.0122 0.62268,-0.009 0.63912,0 0.0273,0.0145 0.0571,0.057 0.0791,0.0791 0.0723,0.0723 0.15686,0.0723 0.26363,0.0887 0.21485,0.0331 0.45385,0 0.67184,0 0.013,0 0.13961,-0.0106 0.14523,0 0.01,0.0188 -0.01,0.0447 0,0.0635 0.0378,0.0736 0.17398,0.12163 0.20016,0.20015 0.0143,0.0428 -0.0254,0.15555 0,0.19543 0.0314,0.0494 0.12035,-0.0191 0.17571,0 0.053,0.0182 0.0814,0.0832 0.13458,0.10093 0.12772,0.0426 0.29865,-0.0376 0.42766,0 0.0197,0.006 0.0685,0.0685 0.0824,0.0824 0.0862,0.0862 0.23085,0.19153 0.29742,0.29739 0.1343,0.2136 0.1949,0.46736 0.36404,0.66003 0.26643,0.30348 0.54893,0.32623 0.89684,0.5002 0.0391,0.0196 0.084,0.0302 0.1171,0.0586 0.19126,0.16407 0.44399,0.48533 0.51072,0.7465 0.0253,0.099 -0.003,0.1429 0.0336,0.26482 0.0175,0.0582 0.053,0.11023 0.0677,0.16915 0.0338,0.13536 0.014,0.51263 0,0.61375 -0.0419,0.30303 -0.27274,0.74803 -0.47602,0.99068 -0.13949,0.1665 -0.28852,0.34534 -0.4521,0.48863 -0.19988,0.17511 -0.91268,0.32645 -1.18085,0.37116 -0.30409,0.0507 -0.6335,-0.0507 -0.93759,0 -0.19624,0.0327 -0.33845,0.18262 -0.52635,0.22958 -0.13483,0.0337 -0.29868,-0.0196 -0.43568,0 -0.0895,0.013 -0.17743,0.10345 -0.2639,0.13211 -0.13075,0.0433 -0.2729,0.10115 -0.40373,0.13456 -0.0705,0.018 -0.16293,-0.0267 -0.2296,0 -0.23872,0.0955 -0.0265,0.0622 -0.33645,0.10094 -0.0911,0.0114 -0.82037,0.034 -0.92247,0 -0.20165,-0.0672 0.0845,0.009 -0.13458,-0.10094 -0.0987,-0.0493 -0.35756,0.0382 -0.47036,0 -0.0702,-0.0238 -0.12682,-0.0817 -0.19872,-0.0995 -0.1144,-0.0283 -0.24966,0.0279 -0.36418,0 -0.066,-0.0161 -0.1242,-0.0729 -0.18872,-0.0944 -0.31878,-0.10612 -1.06504,0.20453 -1.33265,-0.0631 -0.044,-0.0439 0.009,-0.12497 0,-0.18648 -0.007,-0.0458 -0.0192,-0.0907 -0.0336,-0.13459 -0.0713,-0.2168 -0.21814,-0.46408 -0.32988,-0.65961 -0.0775,-0.13563 -0.14166,-0.28665 -0.22565,-0.4178 -0.13327,-0.2081 -0.19372,-0.0966 -0.19372,-0.38521"
       id="path577" />
    <path
       style="fill:#ffffff;fill-opacity:1;stroke-width:0.264583"
       d="m 82.964926,271.32049 c 0.505061,-0.18338 0.44871,0.12999 0.801198,0.35783 0.07692,0.0497 0.299284,0.0284 0.339659,0.1057 0.02585,0.0495 0.0054,0.95255 0,0.96819 -0.05287,0.15261 -0.683437,0.81417 -0.823761,0.88434 -0.04222,0.0212 -0.114816,-0.0204 -0.157443,0 -0.107143,0.0512 -0.137697,0.16119 -0.267804,0.20503 -0.125375,0.0422 -0.335592,-0.0159 -0.461295,0 -0.434338,0.0551 -0.90305,0.23188 -1.312281,0.39555 -0.520782,0.20833 -0.797282,0.62915 -1.234538,0.91794 -0.09106,0.0601 -0.147203,0.17608 -0.237146,0.23739 -0.04971,0.0339 -0.844317,0 -0.956191,0 -0.03401,0 -0.07224,0.0164 -0.10202,0 -0.05183,-0.0286 -0.07821,-0.09 -0.125561,-0.12555 -0.215593,-0.16171 -0.510738,-0.25537 -0.753377,-0.37668 -0.246634,-0.12333 -0.587992,0.0301 -0.777658,-0.0628 -0.06259,-0.0307 -0.10006,-0.12031 -0.158425,-0.15867 -0.100904,-0.0663 -0.206224,-0.12576 -0.311208,-0.18542 -0.16242,-0.0923 -0.341926,-0.15526 -0.502253,-0.25112 -0.216083,-0.12917 -0.374359,-0.37224 -0.572389,-0.5194 -0.112673,-0.0837 -0.259882,-0.11049 -0.37669,-0.18836 -0.180586,-0.12038 -0.345972,-0.34597 -0.500534,-0.50053 -0.546473,-0.54648 -1.058227,-1.1188 -1.600192,-1.66077 -0.07032,-0.0703 -1.100629,-1.0338 -0.884335,-1.27966 0.07021,-0.0798 0.450956,0.0419 0.539528,0.0419 0.237789,0 0.229732,0.29231 0.258238,0.33303 0.01437,0.0204 0.226349,0 0.262898,0 0.23812,0 1.263359,0.0764 1.377022,0 0.20574,-0.13824 0.03164,-0.11242 0.24892,-0.18637 0.06502,-0.0222 0.158308,0.0266 0.221204,0 0.189998,-0.0805 0.295588,-0.36767 0.474295,-0.47429 0.182888,-0.10914 0.496099,-0.30438 0.709724,-0.35486 0.206015,-0.0487 0.464256,0 0.676619,0 0.557593,0 1.115187,0 1.67278,0 0.240017,0 -0.177519,0.0106 0.187119,-0.0579 0.105002,-0.0198 1.647666,-0.0612 1.751258,0 0.159989,0.0945 0.25767,0.28038 0.319059,0.4228 0.01503,0.0349 0.677397,-0.0462 0.785503,0 0.218633,0.0934 0.367704,0.42087 0.562824,0.56306 0.179353,0.13071 0.824749,0.42775 0.88728,0.65503 0.02627,0.0955 -0.04863,0.25019 0.03997,0.29453 0.201123,0.10068 0.447406,-0.14041 0.661414,0.0736"
       id="path1332" />
  </g>
  <g
     inkscape:groupmode="layer"
     id="layer4"
     inkscape:label="Layer 4"
     style="display:inline;fill:#ff0000">
    <path
       style="opacity:1;fill:#000000;stroke-width:0.356324"
       id="path424"
       d="m 89.060934,35.379058 c -1.058167,0.04478 -2.107781,0.15461 -3.158831,0.276339 -1.290612,0.161572 -2.553599,0.456805 -3.815185,0.742271 -1.18851,0.314478 -2.340439,0.736301 -3.478649,1.173125 -0.838807,0.336072 -1.663713,0.698258 -2.473263,1.087355 -0.69217,0.353015 -1.387148,0.699521 -2.101839,1.01484 -0.738097,0.313328 -1.504369,0.569455 -2.279083,0.799689 -0.752487,0.204516 -1.521477,0.352005 -2.279001,0.540457 -0.65797,0.154381 -1.307529,0.324793 -1.94165,0.545302 -0.825028,0.313192 -1.645714,0.635616 -2.463699,0.963408 -1.055724,0.387873 -2.055114,0.876431 -3.007234,1.436694 -0.992668,0.635735 -1.915128,1.353595 -2.875383,2.027376 -0.803965,0.557744 -1.591188,1.133585 -2.361518,1.727984 -0.887556,0.691673 -1.793494,1.36346 -2.724168,2.008124 -1.111141,0.805044 -2.063828,1.760501 -3.021841,2.704614 -0.951039,1.002266 -1.913733,1.995453 -2.8382,3.01761 -1.014241,1.140905 -2.095179,2.231341 -3.091376,3.385003 -1.164766,1.353458 -2.166682,2.8086 -3.222716,4.229567 -0.894049,1.234086 -1.652889,2.539528 -2.326135,3.879501 -0.580507,1.131846 -0.876999,2.350981 -1.225042,3.549896 -0.303471,1.125184 -0.683215,2.231384 -1.019425,3.348792 -0.417338,1.454017 -0.851079,2.904275 -1.258591,4.360542 -0.53504,1.770321 -0.911293,3.57241 -1.289115,5.373332 -0.461416,2.111074 -0.858564,4.231704 -1.106784,6.371484 -0.219297,1.88307 -0.252361,3.77373 -0.124681,5.66195 0.150664,1.48761 0.301035,2.97502 0.453673,4.462537 0.129993,1.58383 0.400435,3.15422 0.645658,4.72596 0.315008,1.93274 0.68372,3.8579 1.065467,5.78083 0.393864,2.02806 0.724916,4.06502 1.056042,6.10184 0.3088,1.96738 0.727357,3.91839 1.145273,5.86895 0.446239,2.12204 1.035651,4.21545 1.692943,6.29204 0.725623,2.14042 1.452599,4.28019 2.318974,6.37889 0.748921,1.78284 1.727461,3.4759 2.75844,5.13863 0.916296,1.4693 1.916243,2.89467 2.932318,4.30982 1.017903,1.40351 2.064356,2.79037 3.213531,4.11077 1.269161,1.40622 2.804866,2.58913 4.315382,3.77963 1.74148,1.34177 3.44396,2.72267 5.215146,4.0332 2.213386,1.57616 4.482142,3.08975 6.766237,4.58268 3.54161,2.21491 7.22413,4.34119 11.28042,5.71399 2.527738,0.7544 5.185688,1.01849 7.821142,1.27767 2.836319,0.27088 5.672192,0.54511 8.510511,0.79891 3.413193,0.30761 6.827328,0.60104 10.254368,0.74763 3.78248,0.1685 7.568,0.0755 11.34502,-0.13499 3.60992,-0.2105 7.20302,-0.58139 10.79011,-0.99204 2.82959,-0.29891 5.62959,-0.7467 8.35882,-1.48006 2.02509,-0.64557 3.96114,-1.49556 5.86737,-2.37951 1.80604,-0.77722 3.52283,-1.69211 5.21442,-2.64918 1.87582,-1.05924 3.37324,-2.51744 4.78103,-4.02909 1.61169,-1.87664 3.24741,-3.73571 4.91775,-5.5709 2.21817,-2.40875 4.32788,-4.89339 6.41559,-7.39281 2.36784,-2.74789 4.42362,-5.67719 6.27929,-8.71897 1.96134,-3.2139 3.44992,-6.62423 4.71829,-10.09805 1.06939,-3.03813 1.57928,-6.19304 1.75376,-9.36556 0.13812,-2.28439 -0.2682,-4.53317 -0.81835,-6.7532 -0.4963,-1.77903 -0.98508,-3.55808 -1.37486,-5.35852 -0.38002,-1.94473 -0.78296,-3.88502 -1.2237,-5.819427 -0.49124,-2.14581 -0.96538,-4.2948 -1.48829,-6.43464 -0.52169,-2.39706 -1.16728,-4.76786 -1.90437,-7.11852 -0.77345,-2.543542 -1.7051,-5.04055 -2.75125,-7.503655 -1.07793,-2.494019 -2.22459,-4.963788 -3.40815,-7.419032 -1.08087,-2.267381 -2.45842,-4.398861 -3.95983,-6.460196 -1.4285,-1.884992 -3.02219,-3.662533 -4.55056,-5.482108 -1.38359,-1.77312 -2.72985,-3.560587 -4.27225,-5.227928 -1.5292,-1.626841 -3.31098,-3.037243 -5.03521,-4.49228 -1.51932,-1.419308 -3.17428,-2.689942 -4.96381,-3.825946 -2.78046,-1.670699 -5.67099,-3.215584 -8.7564,-4.387887 -1.723,-0.632032 -3.51398,-1.097514 -5.30103,-1.558884 -1.84939,-0.504558 -3.73349,-0.874971 -5.63979,-1.155345 -2.06469,-0.271551 -4.12985,-0.53514 -6.18785,-0.845434 -1.94209,-0.293135 -3.85653,-0.705978 -5.75742,-1.162839 -1.57417,-0.396521 -3.12383,-0.86264 -4.72203,-1.177403 -1.62906,-0.307711 -3.29825,-0.294601 -4.954155,-0.280968 -1.79547,0.01295 -3.578497,0.199033 -5.356907,0.401511 -1.317474,0.09754 -2.556917,0.435238 -3.802232,0.802342 -0.295109,0.08698 -0.627504,0.09974 -0.889681,0.248905 -0.204313,0.116234 -0.298275,0.341248 -0.447418,0.511875 -0.146213,0.162662 -0.292427,0.325323 -0.43864,0.487987 0,0 0.0926,0.05944 0.0926,0.05944 v 0 c 0.604396,0.126817 1.208781,0.253621 1.813166,0.380435 0.564111,0.08814 1.121597,0.222677 1.692344,0.264435 0.40206,0.02944 0.805827,-0.03543 1.208793,-0.05217 1.484242,-0.06168 2.957731,-0.166319 4.424225,-0.390385 1.77058,-0.192181 3.549065,-0.340169 5.333925,-0.358112 1.65862,-0.0035 3.32474,0.05222 4.94671,0.393073 1.56438,0.337187 3.09891,0.769273 4.6517,1.145525 1.90456,0.443009 3.82276,0.838285 5.76616,1.121324 2.05556,0.298042 4.11824,0.550943 6.17502,0.841362 1.90592,0.315269 3.79247,0.705784 5.64649,1.215221 1.78626,0.468716 3.57498,0.945983 5.28463,1.612049 0.71685,0.284601 0.90494,0.349537 1.6059,0.666936 0.26507,0.120011 1.04285,0.509068 0.78825,0.37212 -6.04143,-3.249492 -2.58645,-1.34501 -1.29997,-0.607847 1.80913,1.114985 3.50444,2.352679 5.01897,3.782126 1.71566,1.468792 3.52439,2.857525 5.08724,4.462533 1.54898,1.648338 2.90274,3.417629 4.25258,5.198696 1.53409,1.827988 3.16713,3.59032 4.60955,5.478901 1.52467,2.044817 2.92687,4.163878 4.03456,6.417961 1.21229,2.445518 2.3444,4.922934 3.4426,7.410972 1.01906,2.454988 1.97122,4.931335 2.73659,7.460739 0.7288,2.340961 1.36669,4.700821 1.89266,7.085531 0.48187,2.13643 0.9813,4.26968 1.43918,6.41047 0.43672,1.92863 0.86482,3.858737 1.20208,5.803807 0.37139,1.81401 0.84331,3.60601 1.3902,5.38441 0.60839,2.20165 1.03392,4.43728 0.99187,6.71524 -0.0867,3.15929 -0.54619,6.29443 -1.60658,9.32029 -1.2035,3.47179 -2.64227,6.87657 -4.65395,10.04759 -1.87488,3.01148 -3.92078,5.93103 -6.30405,8.64618 -2.09512,2.49149 -4.24277,4.94756 -6.48803,7.33276 -1.70927,1.81364 -3.4361,3.61284 -5.04696,5.49848 -1.3961,1.47469 -2.86833,2.89761 -4.73336,3.91007 -1.69226,0.94424 -3.45943,1.77235 -5.22448,2.60172 -1.89995,0.86143 -3.79255,1.76362 -5.84554,2.30463 -2.6833,0.72342 -5.43984,1.16793 -8.2181,1.48808 -3.56713,0.41785 -7.14537,0.77266 -10.73502,0.9938 -3.78114,0.19063 -7.57076,0.27041 -11.35466,0.0732 -3.453555,-0.19569 -6.89806,-0.47251 -10.336317,-0.8245 -2.848944,-0.26378 -5.695723,-0.54424 -8.542631,-0.8249 -2.620241,-0.26289 -5.261299,-0.5505 -7.752843,-1.36532 -0.405682,-0.14593 -0.816816,-0.28042 -1.217052,-0.43801 -0.41014,-0.16147 -1.581238,-0.74689 -1.212846,-0.51868 0.842086,0.52165 1.760966,0.93637 2.641869,1.40393 0.42029,0.22308 -0.845895,-0.4384 -1.260028,-0.6705 -0.88863,-0.49804 -1.572954,-0.94024 -2.43303,-1.47778 -2.28232,-1.48853 -4.543249,-3.00444 -6.769043,-4.56 -1.819485,-1.312 -3.577858,-2.6881 -5.338459,-4.06253 -1.508491,-1.17898 -3.04809,-2.34295 -4.347399,-3.71342 -1.159265,-1.2991 -2.188067,-2.68112 -3.209395,-4.06884 -1.027231,-1.41195 -2.020538,-2.84334 -2.970679,-4.29801 -1.047349,-1.65043 -2.054849,-3.32594 -2.822989,-5.09883 -0.884558,-2.09123 -1.695512,-4.20861 -2.36712,-6.36308 -0.642346,-2.06659 -1.254419,-4.14334 -1.690352,-6.25402 -0.410893,-1.95126 -0.822205,-3.90292 -1.172311,-5.86382 -0.3501,-2.03841 -0.654228,-4.08354 -1.058311,-6.11417 -0.374728,-1.90693 -0.747244,-3.8142 -1.004297,-5.73751 -0.232458,-1.53314 -0.36401,-3.0709 -0.45529,-4.61574 -0.110116,-1.46389 -0.194583,-2.928627 -0.315303,-4.391787 -0.127971,-1.873 -0.196972,-3.75246 0.03564,-5.62254 0.266147,-2.12249 0.634723,-4.23156 1.12602,-6.32235 0.397492,-1.783627 0.781528,-3.57169 1.330827,-5.324353 0.423888,-1.449731 0.765832,-2.918956 1.26264,-4.351244 0.347629,-1.132089 0.557443,-2.286506 0.885666,-3.422681 0.323568,-1.184377 0.600491,-2.387321 1.123313,-3.51803 0.658517,-1.326117 1.431396,-2.602381 2.258291,-3.850465 0.946591,-1.465409 1.986882,-2.879128 3.014228,-4.299854 0.944899,-1.176458 1.957621,-2.3057 2.99593,-3.41717 0.922512,-1.010928 1.751663,-2.084933 2.705318,-3.07322 0.904536,-0.959899 1.861811,-1.878683 2.94379,-2.682425 0.866563,-0.709618 1.802435,-1.34321 2.685188,-2.036293 0.76039,-0.593505 1.5348,-1.17178 2.32319,-1.735362 0.924388,-0.69224 1.840099,-1.397509 2.839692,-2.003234 0.943742,-0.538039 1.934866,-0.991549 2.95487,-1.403261 0.807622,-0.325031 1.612024,-0.657942 2.432291,-0.956589 0.617932,-0.202385 1.240495,-0.39529 1.876017,-0.549196 0.754034,-0.192814 1.516021,-0.360334 2.264272,-0.570797 0.78878,-0.243418 1.575758,-0.497794 2.325633,-0.827473 0.712765,-0.320554 1.391004,-0.696754 2.096139,-1.030408 0.796838,-0.381092 1.604854,-0.742104 2.416458,-1.097267 1.066992,-0.477773 2.152832,-0.913403 3.299055,-1.22076 1.17139,-0.342986 2.366841,-0.614959 3.572258,-0.844648 0.973983,-0.155074 1.960227,-0.278199 2.938576,-0.389179 0,0 -2.488052,-1.591714 -2.488052,-1.591714 z" />
    <path
       style="opacity:1;fill:#000000;stroke-width:0.376755"
       id="path426"
       d="m 117.73275,83.166517 c -0.89601,0.693454 -1.43533,1.681906 -1.98243,2.651526 -0.82811,1.43179 -1.35333,2.98431 -1.71946,4.58884 -0.41279,1.87074 -0.59628,3.77524 -0.68811,5.68506 -0.0489,1.75979 -0.0297,3.52036 -0.0426,5.280627 -0.0158,1.40375 0.0165,2.80996 0.1671,4.20624 0.13756,1.09517 0.49985,2.13545 0.95789,3.13338 1.09601,2.20136 2.34289,2.40035 4.77634,3.81555 1.08991,0.29897 1.88372,-0.37939 2.61076,-1.09544 0.99226,-1.07335 1.52198,-2.41016 1.94782,-3.78378 0.55545,-1.967 0.91553,-3.98368 1.15621,-6.01141 0.1367,-2.268397 0.19549,-4.544287 0.19369,-6.817057 -0.042,-1.33083 -0.14457,-2.66876 -0.43191,-3.9711 -0.2089,-0.87945 -0.48246,-1.74133 -0.81195,-2.58253 -0.37898,-0.99206 -0.9041,-1.9005 -1.69008,-2.6189 -1.04099,-0.66485 -1.80515,-1.1718 -3.1615,-1.684699 -0.19413,-0.07348 0.32687,0.304712 0.35711,0.510029 0.0142,0.092 -0.18404,0.0269 -0.27606,0.0403 0,0 0.0917,0.0676 0.0917,0.0676 v 0 c 0.14849,0.0299 0.30881,0.0244 0.44548,0.0897 0.39098,0.18679 1.50457,0.85961 1.1207,0.65863 -1.15635,-0.60539 -2.77605,-1.587652 -1.74844,-0.966891 0.79796,0.637721 1.33615,1.484051 1.6952,2.437811 0.32826,0.83242 0.60605,1.68259 0.84434,2.54521 0.34653,1.31066 0.60112,2.63966 0.65488,3.9991 0.0865,2.26861 0.0202,4.53896 -0.13386,6.803727 -0.17189,2.01514 -0.52251,4.01122 -1.13765,5.94209 -0.45918,1.31219 -0.9835,2.5822 -2.05529,3.52297 -0.72441,0.61311 -1.54223,1.10571 -2.48616,0.65002 4.63077,2.74976 2.27608,1.74762 1.31911,-0.0607 -0.48593,-0.96267 -0.86949,-1.97626 -1.04689,-3.04457 -0.18134,-1.39665 -0.23471,-2.80442 -0.2687,-4.21159 -0.0204,-1.76363 -0.0233,-3.527837 -0.0118,-5.291467 0.0628,-1.89711 0.17982,-3.80236 0.59633,-5.65984 0.38556,-1.55943 0.85713,-3.10887 1.65317,-4.51454 0.53006,-0.89256 1.08677,-1.8566 1.86197,-2.55195 0,0 -2.7579,-1.76182 -2.7579,-1.76182 z" />
    <path
       style="opacity:1;fill:#000000;stroke-width:0.376755"
       id="path428"
       d="m 83.749753,85.688973 c 0.412543,-0.56155 0.184805,-1.432245 0.113069,-2.091694 -0.273461,-0.236277 0.382776,-0.644084 0.155108,-0.766288 -0.743998,-0.399378 -1.504773,-0.766658 -2.25716,-1.149988 -1.016988,0.202843 -1.532094,1.154089 -1.979994,1.998424 -0.671744,1.327146 -1.231183,2.700466 -1.70951,4.107516 -0.536225,1.66769 -0.873661,3.39035 -1.170971,5.11396 -0.361466,1.94322 -0.553932,3.90821 -0.647095,5.88066 -0.05949,1.813047 0.03387,3.624947 0.224028,5.427557 0.165756,1.23179 0.400752,2.46117 0.80833,3.63707 0.785414,1.87354 2.282493,2.22632 4.292442,3.28918 0.133848,0.0707 0.302946,0.0524 0.453077,0.0326 0.171545,-0.0225 0.329819,-0.10471 0.49474,-0.157 1.314885,-0.82747 2.202155,-2.15696 3.015288,-3.44857 1.026142,-1.67834 1.726794,-3.50679 2.318919,-5.37372 0.617916,-2.01898 1.014105,-4.087297 1.191062,-6.188907 0.10048,-1.87499 0.128718,-3.75299 0.16851,-5.62999 0.0024,-1.48619 -0.04118,-2.97334 -0.26153,-4.44423 -0.263059,-1.475479 -1.001186,-2.731039 -2.265796,-3.57932 -0.409355,-0.274581 -0.86055,-0.480956 -1.290825,-0.721447 -0.222091,-0.115199 -0.444193,-0.230425 -0.666284,-0.345638 0,0 0.08883,0.07134 0.08883,0.07134 v 0 c 0.107775,0.05766 0.215573,0.11534 0.32336,0.172997 -0.08954,0.01979 -0.239246,-0.02734 -0.268555,0.05952 -0.04094,0.12118 0.08118,0.242714 0.126189,0.362455 0.310546,0.825439 0.748527,1.605867 0.902777,2.485219 0.238292,1.449874 0.269107,2.911654 0.256623,4.379294 0.0094,1.87878 0.0082,3.75966 -0.101656,5.63584 -0.170145,2.07844 -0.504352,4.13825 -1.134187,6.131967 -0.601784,1.82952 -1.321098,3.61842 -2.367758,5.24558 -0.784061,1.20282 -1.615961,2.5671 -3.012312,3.10782 -0.149779,0.007 -0.300663,0.0398 -0.449347,0.0204 -0.136448,-0.0178 -0.507624,-0.20419 -0.391872,-0.12972 5.007178,3.21944 2.57766,1.92515 1.925718,0.58015 -0.480962,-1.16941 -0.791014,-2.39244 -1.001609,-3.63897 -0.297522,-1.79517 -0.430263,-3.60827 -0.360669,-5.42908 0.06012,-1.965677 0.230927,-3.927087 0.574735,-5.865147 0.324124,-1.70177 0.678263,-3.40028 1.163484,-5.06457 0.4513,-1.39868 0.997103,-2.76353 1.656917,-4.07806 0.36248,-0.73177 0.684945,-1.484731 1.13408,-2.169996 -0.648236,-0.385494 -1.306579,-0.754455 -1.944696,-1.156467 -0.105892,-0.06678 0.145319,-0.02221 0.456971,0.234782 0.296345,0.244351 0.514118,0.503924 0.589313,0.888592 0.118246,0.784871 0.07718,1.613969 0.414838,2.344649 0,0 0.433381,0.22132 0.433381,0.22132 z" />
    <path
       style="opacity:1;fill:#000000;stroke-width:0.376755"
       id="path430"
       d="m 88.821842,129.00166 c -0.395272,0.90985 -0.445794,1.93869 -0.516742,2.91663 -0.124317,1.43999 -0.06295,2.87906 0.204866,4.29772 0.283473,1.40137 1.026742,2.56142 1.992618,3.58533 1.674037,1.40019 3.620474,3.04505 5.886811,2.92927 1.1906,-0.14747 1.91039,-0.98974 2.5779,-1.90138 0.70038,-0.99841 1.136755,-2.14095 1.561955,-3.27473 0.34225,-0.90228 0.58489,-1.83953 0.69156,-2.7987 0.11566,-1.83023 0.77784,-0.4541 -2.826465,-2.19209 0.21655,0.80785 0.24947,1.65617 0.34135,2.48528 0.17205,1.30644 0.37604,2.61302 0.74015,3.88096 0.32142,1.05456 0.980375,1.86352 1.892445,2.45747 2.35276,1.35612 3.30101,2.44964 5.57305,1.38303 1.00432,-0.61314 1.52098,-1.62617 1.9242,-2.68925 0.41789,-1.18274 0.58594,-2.42449 0.71386,-3.66569 -0.0645,-0.48864 0.35583,-2.26747 0.22333,-2.62337 -0.0879,-0.23604 -0.28239,-0.41716 -0.42358,-0.62572 -0.27946,-0.25419 -0.55894,-0.50837 -0.83841,-0.76254 0,0 -0.10071,-0.0533 -0.10071,-0.0533 v 0 c -0.30896,-0.0577 -0.61792,-0.11531 -0.92686,-0.1729 -0.18148,0.0412 -0.40341,0.002 -0.54442,0.12346 -0.1917,0.16507 -0.20657,2.24742 -0.27319,2.61121 -0.0997,1.21564 -0.24932,2.43599 -0.65872,3.59225 -0.39214,0.9754 -0.8625,1.93195 -1.83239,2.4464 -0.35356,0.14607 -0.46368,0.21552 -0.84549,0.27707 -1.39465,0.22485 -3.35164,-1.19109 1.06567,1.3336 -0.94648,-0.48817 -1.64577,-1.229 -2.0125,-2.24394 -0.40272,-1.23759 -0.62404,-2.52437 -0.7588,-3.81771 -0.0698,-0.83453 -0.0964,-1.67338 -0.20633,-2.50383 -3.412645,-1.95677 -2.920905,-2.74884 -3.208705,-0.80503 -0.11948,0.9355 -0.27114,1.86425 -0.62343,2.74645 -0.39999,1.10914 -0.83998,2.21397 -1.5108,3.19182 -0.63791,0.82457 -1.382211,1.52993 -2.478723,1.59272 -0.456136,-0.0255 -0.52539,7.5e-4 -0.966748,-0.14729 -0.16405,-0.0551 -0.624445,-0.29481 -0.478032,-0.20255 4.617423,2.91012 2.375101,1.45748 1.44158,0.72322 -0.990915,-0.95603 -1.768939,-2.05183 -2.091487,-3.41466 -0.293368,-1.39326 -0.345902,-2.80537 -0.264,-4.22644 0.07048,-0.96085 0.206595,-1.90041 0.502975,-2.81956 0,0 -2.947788,-1.63331 -2.947788,-1.63331 z" />
    <path
       style="opacity:1;fill:#000000;stroke-width:0.376755"
       id="path432"
       d="m 101.19447,124.47564 c -0.29382,-0.6294 -0.50338,-1.29434 -0.63378,-1.97584 -0.18756,-0.88143 -0.5425,-1.71717 -0.868835,-2.55433 -0.37145,-0.86509 -0.80909,-1.69767 -1.17039,-2.56761 -0.24977,-0.64913 -0.45326,-1.3189 -0.59093,-2.00108 -0.0468,-0.31188 0.005,-0.0479 0.1467,0.0489 0.47657,0.25515 0.98452,0.25635 1.50914,0.25621 1.084635,-0.17751 2.163755,-0.35737 3.263495,-0.42139 0.85747,-0.0284 1.76517,-0.16298 2.51283,0.33474 -3.59209,-1.95634 -1.08773,-1.08893 -1.40481,-0.40057 -0.0531,0.1153 -0.21512,0.26068 -0.29631,0.34264 -0.45107,0.29755 -0.64715,0.81163 -0.91463,1.25794 -0.62504,1.04299 -0.0706,0.0128 -0.69812,1.23542 -0.4649,1.09558 -1.07035,2.12671 -1.554,3.21323 -0.11554,0.25952 -0.29051,0.50908 -0.31441,0.79215 -0.028,0.33209 0.10954,0.65746 0.16426,0.98618 -0.0919,0.19729 -0.18365,0.39458 -0.27547,0.59188 0,0 0.0977,0.0587 0.0977,0.0587 v 0 c 0.19152,-0.13811 0.38302,-0.27614 0.57454,-0.41422 0.37133,-0.0786 0.77056,-0.0741 1.11398,-0.23584 0.269,-0.12658 0.45659,-0.38302 0.66057,-0.59933 0.83112,-0.88127 1.38796,-1.96745 1.92283,-3.04044 0.18319,-0.43429 0.32756,-0.88463 0.51862,-1.31552 0.16785,-0.37852 0.48688,-0.68664 0.63705,-1.06981 0.0405,-0.10307 0.0474,-0.21634 0.0712,-0.32451 0.22118,-1.42101 -0.11989,-1.40537 -1.78433,-2.26959 -0.78623,-0.27973 -1.63648,-0.21314 -2.45437,-0.16579 -1.41071,0.0627 -2.825745,0.009 -4.204665,-0.32449 -0.69165,-0.17025 -1.34914,-0.42084 -1.999657,-0.70904 -0.373176,-0.0514 -0.608515,0.21964 -0.566464,0.58924 0.158085,0.71597 0.415909,1.40951 0.654691,2.10105 0.34272,0.86753 0.73422,1.7124 1.13833,2.55286 0.35045,0.83282 0.64364,1.68639 0.93525,2.54128 0.262,0.73181 0.46185,1.487 0.87168,2.15707 0,0 2.938395,1.32976 2.938395,1.32976 z" />
    <path
       style="opacity:1;fill:#000000;stroke-width:0.376755"
       id="path436"
       d="m 138.91473,45.170577 c -0.29447,0.09876 -0.6512,0.449483 -0.99162,0.348559 -0.0661,-0.01959 -0.22595,-0.156449 -0.16399,-0.126148 0.55041,0.26926 1.08849,0.563084 1.63273,0.844625 -0.59471,-1.86406 -0.36289,-3.9003 -0.30814,-5.826147 0.13058,-2.172905 0.32407,-4.403406 1.08765,-6.463338 0.35293,-0.952076 0.9523,-1.993372 1.43239,-2.885046 1.09312,-1.671563 2.49323,-3.262287 4.42275,-3.97842 1.02187,-0.379268 2.2486,-0.493479 3.31379,-0.644463 2.3915,-0.03056 4.91519,-0.162837 7.22714,0.596162 0.53175,0.17457 1.00366,0.503716 1.53392,0.68281 0.47292,0.15974 -0.90743,-0.416303 -1.36115,-0.624458 0.37345,0.385406 0.79065,0.732782 1.12036,1.156222 1.8059,2.319264 2.2346,5.403934 2.20582,8.257751 -0.008,0.834698 -0.10648,1.666076 -0.15984,2.499112 -0.49796,4.017283 -1.40498,8.047547 -3.30287,11.655357 -0.32629,0.620262 -0.71183,1.207516 -1.06774,1.811274 -0.38498,0.523048 -1.8463,2.458676 -2.17551,3.090856 -1.59853,3.06958 0.49345,0.118331 -1.34658,2.530854 0,0 0.0961,0.06109 0.0961,0.06109 v 0 c 0.49689,-0.200893 0.99028,-0.410726 1.49069,-0.602705 0.62762,-0.240776 1.30914,-0.362183 1.89299,-0.695372 1.37071,-0.782208 1.77466,-1.629378 2.66898,-2.868278 0.93704,-1.65911 1.26261,-2.103227 1.96959,-3.906456 1.22381,-3.121438 1.85628,-6.443668 2.34145,-9.746747 0.25982,-3.666741 0.52214,-7.73609 -1.75147,-10.889243 -0.31718,-0.439911 -0.7225,-0.809026 -1.08375,-1.213541 -1.32015,-0.809131 -2.60461,-1.679632 -3.96047,-2.427401 -2.31942,-1.279182 -6.01879,-1.164012 -8.58038,-0.935054 -0.52746,0.121193 -1.06858,0.193566 -1.5824,0.363562 -2.45183,0.81118 -4.42162,2.613589 -5.76791,4.766889 -0.23705,0.479282 -0.51306,0.9412 -0.71117,1.437843 -0.20907,0.524085 -0.35307,1.072196 -0.5067,1.615124 -0.59804,2.113337 -0.99226,4.283452 -1.16553,6.472826 -0.0618,1.956299 -0.0211,3.930909 0.12831,5.881074 1.80658,1.173691 1.78716,1.870352 2.54034,0.447499 0,0 -1.11782,-0.686679 -1.11782,-0.686679 z" />
    <path
       style="opacity:1;fill:#000000;stroke-width:0.376755"
       id="path438"
       d="m 47.120474,57.901583 c -0.728088,-0.0497 -1.412182,-0.341592 -2.055657,-0.669515 -0.269441,-0.137271 -0.672591,-0.162955 -0.793228,-0.440257 -0.115505,-0.265526 0.515729,0.263418 0.773594,0.395131 -2.303481,-1.600255 -4.089313,-3.806834 -5.454505,-6.241673 -0.356392,-0.635611 -0.659213,-1.299831 -0.988822,-1.949739 -1.517982,-3.59135 -2.526467,-7.563471 -2.206573,-11.496412 0.06035,-0.741983 0.228492,-1.471228 0.342735,-2.206838 0.837309,-3.406577 2.804759,-6.304984 5.582992,-8.438479 0.518207,-0.397953 1.083652,-0.730286 1.625479,-1.095428 2.208715,-1.200902 4.701818,-2.021516 7.246345,-1.586066 1.625477,0.278169 2.252541,0.715895 3.733401,1.432981 0.08689,0.09926 0.164846,0.207102 0.260658,0.297772 0.564865,0.534558 1.184288,1.012637 1.719901,1.576499 1.155206,1.216148 2.263096,2.760152 3.112187,4.195301 1.091448,1.844801 1.661939,3.262453 2.539203,5.215104 1.670873,3.425013 0.92712,1.755168 2.258185,4.997452 0,0 0.102939,0.04878 0.102939,0.04878 v 0 c -0.456359,-2.806123 -0.19186,-1.361986 -0.805314,-4.33023 -0.34177,-0.867861 -0.643381,-1.752633 -1.02531,-2.603584 -1.117139,-2.489046 -2.532061,-4.82699 -4.426319,-6.804636 -0.558185,-0.582761 -1.131515,-1.16211 -1.785628,-1.634681 -1.076201,-0.777521 -2.256166,-1.400252 -3.384251,-2.100381 -1.522173,-0.716819 -2.169622,-1.160609 -3.836967,-1.418737 -2.561842,-0.396603 -5.067434,0.496194 -7.271503,1.716811 -0.538809,0.375516 -1.099806,0.721045 -1.616423,1.12655 -2.787746,2.188171 -4.801043,5.109637 -5.582138,8.584223 -0.110645,0.746837 -0.275475,1.487636 -0.331932,2.240514 -0.300579,4.008444 0.837282,7.958386 2.316101,11.635052 1.546474,3.178173 3.143764,6.019581 6.066781,8.135723 1.737733,1.047233 3.463581,2.370559 5.532417,2.649854 0,0 -1.648351,-1.231096 -1.648351,-1.231096 z" />
    <path
       style="opacity:1;fill:#000000;stroke-width:0.376755"
       id="path442"
       d="m 95.839125,140.65679 c -0.16737,0.56548 -0.35371,1.12497 -0.50096,1.69627 -0.09483,0.35093 -0.147079,0.71163 -0.161998,1.07446 -0.03577,1.09715 1.426568,1.73621 2.470798,1.67123 0.32867,-0.0845 0.64583,-0.13954 0.98524,-0.11095 0.30231,0.0895 0.60184,0.17899 0.91122,0.24312 0.33649,0.0304 0.671305,-0.0183 1.009795,-0.005 0.36325,0.046 0.72964,0.0562 1.09379,0.0914 0.34481,0.052 0.68382,-0.038 1.01709,-0.11672 0.28588,-0.10495 0.5851,-0.0998 0.88463,-0.0858 0.31808,0.0216 0.6151,0.145 0.92937,0.18723 0.27227,0.05 0.37003,0.0289 0.52669,-0.19065 0.0715,-0.55987 -0.6744,-1.67402 -0.96284,-2.09628 -0.10248,-0.18921 -0.20491,-0.37842 -0.30738,-0.56765 0,0 -0.10154,-0.0515 -0.10154,-0.0515 v 0 c -0.0982,0.087 -0.19645,0.17393 -0.29467,0.26089 -0.1424,0.0649 -0.30283,0.10001 -0.42717,0.19498 -0.19507,0.14917 -0.28971,0.56298 -0.50752,0.66019 0.018,-0.1424 -0.4278,-0.13813 -0.526,-0.17465 -0.3201,-0.0787 -0.64407,-0.15138 -0.97635,-0.13671 -0.29208,0.0242 -0.51421,0.16067 -0.79638,0.22618 -0.319785,0.0691 -0.636135,0.0885 -0.961705,0.0422 -0.34969,-0.0191 -0.70299,-0.0677 -1.05197,-0.0226 -0.30348,0.0299 -0.60935,0.0738 -0.90944,-0.007 -0.24985,-0.0522 -0.48308,-0.11283 -0.73279,-0.0261 -0.29588,0.0477 -0.57435,0.18681 -0.88114,0.179 -0.86809,-0.0777 0.0257,-0.008 1.99303,1.19046 7.5e-4,3.6e-4 -0.13358,0.0486 -0.17031,-0.12175 -0.008,-0.0369 -0.009,-0.075 -0.0153,-0.11237 -0.0128,-0.35108 0.0313,-0.7003 0.0994,-1.04446 0.12074,-0.56628 0.26553,-1.1309 0.50897,-1.65867 0,0 -2.14462,-1.18929 -2.14462,-1.18929 z" />
    <path
       style="opacity:1;fill:#000000;stroke-width:0.376755"
       id="path446"
       d="m 100.94964,144.88574 c 0.14985,-0.36452 0.29403,-0.73103 0.43027,-1.10085 0.0677,-0.14042 0.0209,-0.227 -0.0386,-0.35157 0.0167,-0.0759 -0.0199,-0.12702 -0.0479,-0.19388 -0.0161,-0.17123 -0.0464,-0.34458 -0.0632,-0.51699 0.0142,-0.10154 0.042,-0.15676 -0.002,-0.25476 -0.0217,-0.0393 -0.0418,-0.0773 -0.0561,-0.11832 -0.006,-0.1006 0.008,-0.20091 0.0256,-0.29971 0.0228,-0.0987 -0.001,-0.1979 -0.002,-0.29722 0.0128,-0.0942 0.0168,-0.18908 0.0194,-0.28408 0.0191,-0.1199 0.0253,-0.24087 0.0345,-0.3618 0.017,-0.11248 0.0269,-0.2208 0.007,-0.3332 0.0286,-0.18329 -0.0527,-0.34863 -0.0629,-0.52833 -0.007,-0.1796 -0.0581,-0.35225 -0.0522,-0.53234 0.0374,-0.22174 -0.17131,-0.37278 -0.2204,-0.57704 0.007,-0.15794 -0.24963,-0.26797 -0.34285,-0.33109 0,0 -0.10166,-0.0538 -0.10166,-0.0538 v 0 c -0.0541,-0.0215 -0.34527,-0.20644 -0.39345,-0.0576 -0.0924,0.13015 -0.294075,0.13342 -0.279445,0.32692 -0.0171,0.18473 0.009,0.36154 0.038,0.5441 0.006,0.15145 -0.10637,0.2676 -0.10307,0.42532 -0.0341,0.10036 -0.0306,0.20706 -0.0427,0.31187 -0.007,0.11833 -0.0128,0.23779 -0.0387,0.35372 -0.0154,0.0981 -0.0187,0.19853 -0.0236,0.29761 -0.005,0.0937 -0.002,0.18684 0.008,0.28009 -0.007,0.10954 -0.0301,0.21625 -0.04,0.32539 -0.006,0.0685 -0.008,0.12374 0.0246,0.18689 0.0472,0.0745 0.12247,0.13371 0.11991,0.23322 0.007,0.1513 -0.031,0.31382 -0.0513,0.46325 -0.0142,0.0875 0.001,0.12289 0.0279,0.19607 0.006,0.0854 -0.0195,0.14212 -0.0118,0.23662 -0.0767,0.37953 -0.22509,0.74144 -0.39863,1.08634 0,0 1.639465,0.92519 1.639465,0.92519 z" />
    <path
       style="opacity:1;fill:#000000;stroke-width:0.376755"
       id="path452"
       d="m 143.78628,50.47646 c 0.2229,-1.394895 0.20249,-2.812076 0.1612,-4.222091 -0.11378,-1.872615 0.10448,-3.728985 0.46401,-5.562574 0.34446,-1.687622 1.02713,-3.269096 1.75561,-4.819885 0.64412,-1.40732 1.45197,-2.720565 2.38455,-3.952487 0.70592,-0.886378 1.51995,-1.669083 2.5462,-2.160991 0.91779,-0.333311 1.88667,-0.207185 2.79599,0.08129 0.99624,0.477706 2.49415,1.208317 -2.09808,-1.227633 -0.15598,-0.08272 0.29113,0.201184 0.42413,0.317313 0.47437,0.414195 0.78732,0.927081 1.10814,1.459986 0.83501,1.543097 1.05518,3.284441 1.20757,5.004927 0.17129,2.067861 -0.20244,4.093426 -0.71818,6.084477 -0.6221,2.293434 -1.91909,4.28491 -3.19867,6.254824 -1.20297,1.806915 -2.45429,3.582547 -3.63733,5.402507 -0.17286,2.89697 -0.0169,-1.418546 0.24207,1.725722 0.0142,0.164681 -0.11989,0.307975 -0.17979,0.46196 0,0 0.0966,0.06052 0.0966,0.06052 v 0 c 0.20915,-0.06408 0.41059,-0.163499 0.62747,-0.192192 1.93463,-0.256013 0.41993,0.270125 2.01268,-0.410612 1.27567,-1.758218 2.36381,-3.647723 3.62453,-5.417746 1.31934,-1.983329 2.61154,-4.017539 3.27541,-6.328987 0.57648,-2.015314 0.96585,-4.060576 0.79873,-6.169633 -0.11861,-1.735238 -0.27555,-3.498423 -1.04111,-5.088862 -1.22441,-2.277964 -2.51414,-3.019183 -5.30115,-4.055663 -0.98449,-0.234451 -2.00031,-0.297761 -2.94696,0.12874 -1.0383,0.566376 -1.85196,1.393924 -2.56135,2.337029 -0.92206,1.263863 -1.71196,2.618825 -2.37586,4.036052 -0.73453,1.576189 -1.44243,3.180019 -1.80288,4.890082 -0.33931,1.875321 -0.44913,3.778136 -0.38475,5.683355 0.0395,1.453157 0.0474,2.906742 0.12544,4.356516 0,0 2.59593,1.324038 2.59593,1.324038 z" />
    <path
       style="opacity:1;fill:#000000;stroke-width:0.376755"
       id="path454"
       d="m 47.168005,52.355059 c -0.133026,0.143805 -0.396599,1.058115 -0.51354,1.123089 -0.02823,0.01566 -0.04233,-0.0487 -0.0635,-0.07305 3.242447,1.790669 2.624546,1.713819 1.930784,0.556398 -0.38629,-0.64447 -0.705294,-1.318756 -1.032012,-1.994595 -1.194352,-2.066917 -2.235112,-4.205692 -3.077944,-6.438359 -0.930922,-2.466523 -1.410833,-5.046993 -1.522138,-7.672918 0.0091,-1.781979 0.290901,-3.593617 1.350042,-5.075198 0.190971,-0.267137 0.419963,-0.504933 0.629944,-0.757401 1.504489,-1.545628 2.746516,-1.867408 4.835312,-1.596317 0.314421,0.08054 0.632509,0.147915 0.943261,0.241602 0.645351,0.194569 1.342278,0.469969 1.95221,0.752829 0.331736,0.153845 1.289851,0.687274 0.979812,0.493381 -0.553001,-0.345835 -1.085417,-0.763909 -1.710453,-0.95031 -0.38497,-0.11481 0.64086,0.484594 0.96129,0.726889 2.215107,1.907043 3.625455,4.469518 4.866351,7.068995 0.707193,1.449279 1.025855,3.053703 1.764522,4.489669 1.1919,1.962353 0.690777,1.015276 1.544512,2.81908 0,0 0.102398,0.04992 0.102398,0.04992 v 0 c 0.07215,-0.287875 0.129238,-0.579951 0.216463,-0.863625 0.09975,-0.324391 0.321038,-0.619732 0.343764,-0.958349 0.09669,-1.440799 -0.838055,-2.984169 -1.262933,-4.302321 -1.189315,-2.609694 -2.579761,-5.177478 -4.703954,-7.154305 -2.47454,-2.01525 -5.421016,-3.618412 -8.552502,-4.312494 -2.267734,-0.199917 -3.391209,0.215584 -4.993956,1.868473 -0.507357,0.624684 -0.831737,0.95335 -1.192864,1.683464 -0.669537,1.353641 -0.794841,2.907362 -0.822039,4.389457 0.103539,2.659225 0.580603,5.270706 1.503051,7.774988 0.868601,2.213818 1.848319,4.383724 3.020592,6.455468 0.277253,0.466545 0.617712,1.028211 0.880751,1.51042 0.106928,0.196037 0.528034,1.188363 0.729274,1.310383 0.836921,0.507398 1.728004,0.919549 2.592005,1.37933 0.326471,-0.496049 -0.03685,-1.150415 -0.08127,-1.692017 0,0 -1.617237,-0.85258 -1.617237,-0.85258 z" />
    <path
       style="opacity:1;fill:#000000;stroke-width:0.376755"
       id="path458"
       d="m 68.385921,160.25479 c -0.233208,1.21214 -0.422227,2.43257 -0.652326,3.6476 -0.17651,0.85089 -0.294328,1.66227 0.143446,2.44607 1.111406,1.13546 2.660508,1.84761 4.152357,2.3773 1.015608,0.37489 2.068191,0.62679 3.084651,1.00331 0.972789,0.40951 1.933279,0.83597 2.933427,1.17552 1.184826,0.38717 2.387925,0.71156 3.579399,1.07731 1.122598,0.33877 2.25649,0.62823 3.426138,0.73145 0.808792,0.0175 1.601183,0.11672 2.378984,0.33703 0.685992,0.17854 1.336052,0.46255 2.008537,0.68153 0.876563,0.28221 1.797671,0.34366 2.711531,0.37556 0.949817,-0.002 1.895257,-0.096 2.845215,-0.0991 0.951885,0.0644 1.899785,0.19596 2.851275,0.28304 1.05224,0.0995 2.10812,0.15164 3.158565,0.26913 1.20425,0.19569 2.3996,0.43305 3.61043,0.58803 1.6275,0.18985 3.26573,0.25924 4.89985,0.36833 2.17698,0.16313 4.36016,0.1639 6.54175,0.16161 2.29993,-0.007 4.59642,-0.10365 6.87003,-0.45919 1.43154,-0.25347 2.84259,-0.60668 4.24095,-1.00135 0.98978,-0.30222 1.99715,-0.53818 2.99866,-0.79657 0.91456,-0.2298 1.79327,-0.56735 2.67715,-0.89033 0.93163,-0.32566 1.8633,-0.65071 2.79121,-0.98694 0.83784,-0.27922 1.64956,-0.61765 2.44079,-1.00834 0.60309,-0.29302 1.18498,-0.62103 1.7375,-1.00056 0.68677,-0.44307 1.15153,-1.0621 1.55862,-1.75588 0.43352,-0.91573 0.98212,-1.85127 1.17284,-2.8604 0.0466,-0.24636 0.0385,-0.49996 0.0576,-0.74995 -0.13286,-0.30636 -0.26581,-0.61272 -0.39872,-0.91907 -0.17888,-0.27963 -0.39441,-0.53896 -0.53665,-0.83888 -0.0612,-0.12901 -0.0414,-0.28265 -0.0622,-0.42396 0,0 -0.10165,-0.0515 -0.10165,-0.0515 v 0 c -0.0161,0.12117 0.0496,0.29074 -0.0486,0.36356 -0.39579,0.29349 -1.05678,0.0299 -1.40309,0.46516 -0.70519,1.04512 -0.98661,2.2228 -1.65195,3.29077 -0.4006,0.64017 -0.85902,1.21079 -1.51675,1.60575 -0.54589,0.35981 -1.12056,0.67056 -1.70143,0.97004 -0.77053,0.38732 -1.57092,0.70581 -2.38118,1.00034 -0.93199,0.33579 -1.87642,0.63538 -2.80546,0.9796 -0.87549,0.3238 -1.7571,0.63083 -2.66326,0.85918 -0.99651,0.26176 -1.99598,0.51248 -2.98018,0.81897 -1.35962,0.3924 -2.72551,0.77139 -4.11595,1.03976 -2.23455,0.37047 -4.49515,0.49257 -6.75966,0.47345 -2.19667,-0.0142 -4.39552,-0.0477 -6.58635,-0.221 -1.65311,-0.11961 -3.30963,-0.21865 -4.95368,-0.43482 -1.22212,-0.17309 -2.427175,-0.43604 -3.649465,-0.60547 -1.05854,-0.10754 -2.12111,-0.17176 -3.179925,-0.2777 -0.886963,-0.0772 -1.77008,-0.18014 -2.660679,-0.10107 -0.945405,0.0255 -1.889256,0.11743 -2.835637,0.0833 -0.910778,-0.0475 -1.819661,-0.14928 -2.681846,-0.4664 -0.667262,-0.23816 -1.329617,-0.49372 -2.020186,-0.65901 -0.777765,-0.17818 -1.568379,-0.22233 -2.363546,-0.2661 -1.138434,-0.12859 -2.243759,-0.41351 -3.342531,-0.73367 -1.136669,-0.27269 -2.275802,-0.53789 -3.374876,-0.94416 -0.993507,-0.35815 -1.950859,-0.79976 -2.935472,-1.18057 -0.961889,-0.33809 -1.941706,-0.63271 -2.930107,-0.88107 -0.420267,-0.14965 -0.395256,-0.13228 -0.803401,-0.31141 -0.108951,-0.0479 -0.424958,-0.2127 -0.324014,-0.14973 3.098979,1.9335 1.777652,1.10982 1.149461,0.61629 -0.554351,-0.6822 -0.574017,-1.62539 -0.542692,-2.4684 0.09015,-1.27646 0.2842,-2.54206 0.328563,-3.81867 0,0 -1.385649,-0.72759 -1.385649,-0.72759 z" />
    <path
       style="opacity:1;fill:#000000;stroke-width:0.376755"
       id="path464"
       d="m 130.01409,171.11838 c 0.0296,1.63469 0.0624,3.26926 0.10507,4.90369 0.11083,2.55301 0.29127,5.10211 0.3958,7.65538 0.074,2.12847 0.18988,4.25498 0.21418,6.38483 0.007,1.96862 -0.0961,3.93543 -0.20603,5.90034 -0.1113,1.84837 -0.133,3.70093 -0.15643,5.55211 0.002,1.30435 -0.0354,2.6071 -0.11201,3.90898 -0.10437,1.05817 -0.0683,2.11899 -0.0215,3.17874 0.0542,1.22596 0.0466,2.45322 0.0219,3.67974 -0.0777,2.62179 0.71353,2.00097 3.77344,3.70886 0.99936,0.048 1.96819,-0.25443 2.91747,-0.52745 1.08395,-0.32792 2.13253,-0.76067 3.15858,-1.23732 0.80071,-0.38123 1.49986,-0.91109 2.12967,-1.52901 0.66254,-0.72285 1.27329,-1.49083 1.9137,-2.23317 0.51792,-0.59352 1.03234,-1.19105 1.57046,-1.76647 0.3676,-0.35643 0.63169,-0.76108 0.79529,-1.2439 0.16103,-0.47294 0.15057,-0.92581 0.009,-1.39813 -0.15579,-0.52461 -0.39231,-1.01481 -0.57184,-1.53083 -0.10989,-0.49005 -0.34909,-0.91074 -0.40792,-1.41432 -0.12502,-0.46114 -0.59604,-0.73944 -0.94034,-1.03516 0,0 -0.10237,-0.05 -0.10237,-0.05 v 0 c -0.27628,-0.0269 -0.74174,-0.21575 -0.86662,0.12033 -0.0221,0.4361 -0.0511,0.87369 0.0819,1.29495 0.007,0.41135 -0.0706,0.81036 -0.0118,1.2194 -0.0544,0.37064 -0.0426,0.75422 -0.16525,1.11001 -0.25352,0.38744 -0.59934,0.70637 -0.8795,1.07468 -0.52101,0.59563 -1.09161,1.1469 -1.57449,1.77665 -0.62356,0.74216 -1.24975,1.48392 -1.91666,2.18767 -0.62307,0.57617 -1.3207,1.05173 -2.08506,1.42385 -0.98647,0.49424 -2.01184,0.91307 -3.07444,1.21442 -0.93632,0.24004 -1.94348,0.52586 -2.90357,0.26084 0.97216,0.57769 1.94434,1.15538 2.9165,1.73308 -0.18359,-0.0746 -0.30937,-0.0872 -0.41081,-0.28105 -0.19127,-0.36547 -0.0971,-0.84743 -0.13826,-1.23456 -0.002,-1.2314 0.0273,-2.46306 -0.0172,-3.69407 -0.0224,-1.0458 -0.0432,-2.09285 0.032,-3.13728 0.0704,-1.32268 0.0564,-2.64557 0.0346,-3.96961 -0.007,-1.85346 -0.002,-3.70781 0.10378,-5.55895 0.10836,-1.97146 0.2285,-3.94351 0.22314,-5.91896 -0.0367,-2.14896 -0.16153,-4.2941 -0.29349,-6.43913 -0.15647,-2.55658 -0.3225,-5.11314 -0.44798,-7.67108 -0.0319,-1.61863 0.001,-3.23662 -0.0148,-4.85535 0,0 -3.07947,-1.56275 -3.07947,-1.56275 z" />
    <path
       style="opacity:1;fill:#000000;stroke-width:0.376755"
       id="path466"
       d="m 136.69642,178.33318 c 0.2781,1.93376 0.77271,3.83949 1.20911,5.74461 0.65769,2.8813 1.26061,5.77475 1.88612,8.66317 0.39734,1.94718 1.0503,3.81516 1.84907,5.62951 0.62539,1.35819 1.34351,2.67041 2.04381,3.99069 0.4776,0.90661 0.96168,1.80914 1.51397,2.67276 0.37844,0.59756 0.82859,1.13682 1.36872,1.59261 0.42945,0.32297 0.87661,0.6232 1.32789,0.91488 1.0038,0.60264 4.24841,2.78188 3.02817,1.5816 -0.67485,-0.66381 -0.45258,-0.28686 -0.65179,-0.65143 0,0 -0.11271,-0.0792 -0.11271,-0.0792 v 0 c -0.50272,-0.22079 -0.159,-0.0534 -1.00418,-0.65178 -0.1511,-0.10696 -0.61515,-0.41021 -0.45183,-0.323 1.91964,1.02497 3.62179,2.10691 2.58664,1.4507 -0.43223,-0.29485 -0.86574,-0.58775 -1.30283,-0.87536 -0.57343,-0.40852 -1.05574,-0.90536 -1.44517,-1.49531 -0.58891,-0.85839 -1.11609,-1.75592 -1.6032,-2.67591 -0.71787,-1.31999 -1.45555,-2.63069 -2.09726,-3.99025 -0.86472,-1.81671 -1.5636,-3.69836 -2.05264,-5.65324 -0.78778,-2.89092 -1.41951,-5.82007 -2.06905,-8.74451 -0.42652,-1.92416 -0.80548,-3.86294 -1.28955,-5.77197 0,0 -2.73317,-1.32855 -2.73317,-1.32855 z" />
    <path
       style="opacity:1;fill:#000000;stroke-width:0.376755"
       id="path468"
       d="m 148.87738,207.14547 c 1.34331,1.37485 3.15147,2.67886 5.12297,2.71708 1.30527,-0.27563 1.96637,-1.39468 2.48936,-2.51782 0.6327,-1.70875 0.60734,-3.54266 0.5521,-5.33676 -0.0425,-1.56932 -0.38996,-3.09781 -0.78149,-4.61001 -0.47032,-1.51581 -0.89194,-3.04038 -1.22186,-4.59294 -0.31345,-1.49855 -0.81454,-2.94777 -1.2284,-4.41996 -0.38001,-1.28524 -0.77443,-2.55907 -1.01888,-3.87832 -0.18617,-1.1872 -0.39933,-2.3698 -0.64473,-3.54615 -0.3035,-1.20351 -0.73937,-2.36721 -1.0866,-3.55875 -0.40694,-1.44675 -0.88276,-2.87191 -1.28309,-4.32052 -0.35401,-1.33618 -0.69344,-2.67635 -1.07551,-4.00489 -0.45918,-1.46662 -1.20727,-2.83575 -2.04333,-4.1198 -0.84658,-0.83782 -0.46563,-0.44762 -1.14909,-1.16448 0,0 -0.10413,-0.0462 -0.10413,-0.0462 v 0 c -0.0441,0.37405 0.0318,0.19823 -0.28082,0.50129 0.0534,1.20939 0.39415,2.38058 0.80344,3.5139 0.39178,1.3189 0.66648,2.66854 1.0537,3.98914 0.39729,1.44935 0.87094,2.87491 1.27904,4.32103 0.32386,1.1803 0.68825,2.34616 1.04122,3.51744 0.27797,1.17248 0.48358,2.36006 0.67789,3.54895 0.24168,1.33313 0.60097,2.63187 1.02969,3.91718 0.42808,1.47073 0.91718,2.92499 1.26924,4.41645 0.33428,1.54614 0.68039,3.08722 1.18091,4.59029 0.41299,1.50103 0.77839,3.02202 0.87884,4.58116 0.0733,1.73576 0.0474,3.50843 -0.57914,5.15416 -0.49416,1.01537 -1.13879,2.04319 -2.37578,2.13593 -0.15014,-0.0189 -0.30294,-0.0228 -0.45039,-0.0568 -0.15914,-0.0366 -0.60128,-0.2442 -0.46505,-0.15417 0.75234,0.49722 1.55223,0.91847 2.32495,1.38336 0.25146,0.15129 -0.51358,-0.29017 -0.73997,-0.47688 -0.0771,-0.0635 -0.14563,-0.13641 -0.21845,-0.20465 0,0 -2.95669,-1.27821 -2.95669,-1.27821 z" />
    <path
       style="opacity:1;fill:#000000;stroke-width:0.376755"
       id="path470"
       d="m 146.28227,204.97423 c 1.63746,-0.13513 2.98967,-1.25477 4.24389,-2.22044 0.88115,-0.80056 1.7404,-1.63624 2.54039,-2.51896 0.25703,-0.28361 0.54495,-0.54805 0.74276,-0.87574 0.42355,-0.70177 0.41494,-1.20474 0.5216,-1.98155 0.15858,-0.19317 0.31718,-0.38637 0.47577,-0.57955 0,0 -0.0975,-0.0588 -0.0975,-0.0588 v 0 c -0.16709,0.18784 -0.33418,0.37568 -0.50127,0.56352 -0.78022,0.26181 -1.55158,0.47412 -2.26414,0.90684 -0.34446,0.20919 -0.64111,0.48866 -0.95485,0.74161 -0.95077,0.76655 -1.86705,1.57805 -2.87233,2.27574 -0.8313,0.5866 -1.64481,1.14808 -2.57342,1.57311 -0.22292,0.10189 -0.45454,0.1838 -0.68178,0.2757 -0.1645,0.0658 -0.33229,0.12388 -0.49346,0.19743 -0.10236,0.0467 -0.19717,0.10848 -0.29577,0.16277 0,0 2.21021,1.53827 2.21021,1.53827 z" />
    <path
       style="opacity:1;fill:#000000;stroke-width:0.376755"
       id="path472"
       d="m 65.368001,167.25448 c -0.794898,0.86465 -1.367923,1.90061 -1.918223,2.92977 -0.67786,1.24833 -1.178853,2.58157 -1.792754,3.86005 -1.058742,2.2049 -0.08058,-0.0499 -1.035402,2.2312 -1.027775,2.51556 -1.758051,5.13651 -2.706872,7.68003 -0.758638,2.0943 -1.437755,4.21598 -2.078156,6.34902 -0.6209,1.89006 -1.019029,3.83149 -1.319194,5.79433 -0.333548,2.3532 -0.529627,4.71481 -0.49208,7.0911 0.130107,0.90664 0.04469,1.8514 0.190317,2.75575 0.117434,0.72927 0.433319,1.38939 0.76637,2.03777 0.279021,0.45112 0.595432,0.90216 1.068241,1.17159 1.727499,0.98438 1.958224,1.56017 3.444068,1.29441 1.261825,-0.47735 2.121774,-1.57519 2.996506,-2.55063 0.906469,-1.03976 1.798091,-2.09277 2.651707,-3.17644 0.876395,-1.17694 1.465939,-2.52931 2.065474,-3.85951 0.613599,-1.36167 1.143964,-2.75762 1.675374,-4.15265 0.568942,-1.51651 1.130755,-3.03546 1.75785,-4.52911 0.113492,-0.39555 0.369248,-1.12705 0.312154,-1.5589 -0.04339,-0.32826 -0.300459,-0.61033 -0.318253,-0.94096 -0.01012,-0.18777 0.160094,-0.34033 0.240144,-0.51048 0,0 -0.09913,-0.0561 -0.09913,-0.0561 v 0 c -0.08003,0.1701 -0.08357,0.40615 -0.240061,0.51034 -0.258993,0.17242 -0.625195,0.10212 -0.899745,0.24849 -0.431471,0.23008 -0.740867,0.81007 -0.990279,1.18945 -0.622728,1.49662 -1.204799,3.00962 -1.781959,4.5243 -0.527254,1.39178 -1.072637,2.77745 -1.663672,4.14352 -0.589155,1.31507 -1.1987,2.63569 -2.075407,3.78903 -0.839798,1.08483 -1.716083,2.1422 -2.611447,3.18146 -0.850479,0.93915 -1.726318,1.99251 -2.987586,2.35666 -1.138695,0.0886 -1.796152,-0.62822 0.761769,0.97292 0.138081,0.0865 -0.290282,-0.15135 -0.419931,-0.24997 -0.361364,-0.2749 -0.472394,-0.47609 -0.748157,-0.83961 -0.868072,-1.49692 -1.376382,-3.19295 -1.459686,-4.92378 -0.08609,-2.36724 0.05499,-4.73142 0.461457,-7.06817 0.341239,-1.94253 0.778517,-3.86674 1.335256,-5.75965 0.627391,-2.14823 1.278401,-4.28922 1.912632,-6.43529 0.70839,-2.62401 1.5988,-5.19469 2.627371,-7.71077 0.148883,-0.3868 0.297769,-0.77361 0.446651,-1.16041 0.126932,-0.39432 0.238087,-0.79408 0.380791,-1.18298 0.48685,-1.32678 1.155121,-2.58416 1.826653,-3.82367 0.599577,-0.99422 1.230917,-1.97432 2.033251,-2.82035 0,0 -1.316045,-0.80174 -1.316045,-0.80174 z" />
    <path
       style="opacity:1;fill:#000000;stroke-width:0.376755"
       id="path474"
       d="m 71.560202,179.61394 c -0.484485,1.6136 -0.8704,3.26152 -1.232967,4.90782 -0.483289,2.61259 -1.045009,5.20745 -1.45632,7.83248 -0.367122,2.36156 -0.686208,4.72863 -1.152082,7.07343 -0.345412,1.58951 -0.7354,3.16876 -1.107622,4.75207 -0.244488,1.40504 -0.650495,2.7733 -0.944529,4.16553 -0.306544,1.47164 -0.601483,2.94577 -0.932723,4.4121 -0.217761,0.94451 -0.45049,1.88608 -0.607793,2.84299 -0.234526,1.87708 1.073742,1.61893 3.143474,2.75297 0.993798,-0.10036 1.980403,-0.25623 2.97309,-0.36897 1.526966,-0.2094 3.066717,-0.34808 4.570533,-0.69348 0.963215,-0.23796 1.878596,-0.62167 2.755463,-1.08004 0.319029,-0.18387 0.681286,-0.28318 0.942722,-0.5494 0.421003,-0.69061 0.542544,-1.52545 0.694523,-2.30645 0.458406,-2.19888 0.637058,-4.44181 0.861502,-6.67306 0.297734,-3.09358 0.731609,-6.17064 1.154895,-9.24873 0.42878,-2.82742 0.771082,-5.66587 1.019976,-8.51458 0.202183,-2.66616 0.259623,-5.33881 0.53999,-7.99868 0.281461,-2.16251 0.72522,-4.29836 1.313792,-6.39702 0.168368,-0.8588 0.822828,-1.73064 0.556992,-2.6471 -0.0973,-0.33563 -0.343173,-0.60954 -0.492492,-0.92549 -0.09719,-0.20558 -0.163792,-0.42422 -0.245694,-0.63634 0,0 -0.100009,-0.0546 -0.100009,-0.0546 v 0 c -0.165556,0.0765 -0.322876,0.17403 -0.496669,0.22918 -0.274319,0.087 -0.593972,0.0477 -0.84103,0.19538 -0.775659,0.46349 -0.638435,1.72266 -0.983326,2.42144 -0.603467,2.11914 -1.104148,4.26369 -1.293118,6.46521 -0.274767,2.67043 -0.302816,5.35023 -0.49414,8.02662 -0.273413,2.84586 -0.575888,5.68938 -0.984114,8.51957 -0.409731,3.07811 -0.82544,6.15593 -1.185379,9.24029 -0.267196,2.188 -0.526333,4.38317 -1.066189,6.52483 -0.188737,0.69501 -0.34728,1.44826 -0.747578,2.05848 -0.254716,0.20921 -0.579058,0.32202 -0.849052,0.50983 -0.823591,0.46035 -1.67542,0.86818 -2.602468,1.07744 -1.505048,0.32021 -3.035548,0.4987 -4.565477,0.65428 -1.002172,0.0975 -2.033866,0.30453 -3.036798,0.17727 0.878469,0.51807 1.767761,1.01822 2.635407,1.55425 0.07856,0.0486 -0.205691,-0.0414 -0.247928,-0.1236 -0.10435,-0.20283 -0.05937,-0.46735 -0.06625,-0.68178 0.09943,-0.96962 0.301694,-1.92405 0.487186,-2.87999 0.290305,-1.47918 0.602541,-2.95372 0.909484,-4.42949 0.258163,-1.4211 0.358287,-2.86987 0.732258,-4.27234 0.322781,-1.61053 0.67458,-3.21502 0.983025,-4.82835 0.410484,-2.37267 0.67726,-4.76598 1.029617,-7.14758 0.400246,-2.64233 0.605427,-5.31449 1.272137,-7.91093 0.384581,-1.63214 0.738762,-3.27295 1.224595,-4.87875 0,0 -2.068922,-1.1468 -2.068922,-1.1468 z" />
    <path
       style="opacity:1;fill:#000000;stroke-width:0.376755"
       id="path476"
       d="m 56.306837,202.09904 c 1.651719,0.1711 3.296415,0.40279 4.937124,0.65711 0.241628,0.0408 1.588981,0.31857 1.946997,0.21759 0.13546,-0.0381 0.167772,-0.226 0.25166,-0.339 0,0 -0.09108,-0.0685 -0.09108,-0.0685 v 0 c -1.26189,-0.51468 -2.495803,-1.01888 -3.870955,-1.13458 -1.703033,-0.28103 -3.409034,-0.5606 -5.122668,-0.76578 0,0 1.948925,1.43309 1.948925,1.43309 z" />
    <path
       style="opacity:1;fill:#000000;stroke-width:0.376755"
       id="path478"
       d="m 82.010087,204.62225 c 1.140893,-0.17962 2.303082,-0.10483 3.451882,-0.0644 1.66034,0.0602 3.31734,0.18688 4.969762,0.35734 1.880573,0.19878 3.758369,0.42292 5.637894,0.63117 1.59904,0.24159 3.20405,0.13257 4.805115,-0.005 1.51595,-0.16019 3.04041,-0.17714 4.56138,-0.25519 1.37738,-0.11975 2.75461,-0.19989 4.13728,-0.19392 1.34735,0.0232 2.69126,-0.10625 4.03224,-0.22078 1.66553,-0.11577 3.32088,-0.33942 4.9802,-0.51996 1.79311,-0.18771 3.58813,-0.3921 5.39295,-0.37933 1.34145,0.0515 2.67994,0.13855 4.01546,0.27324 1.14497,0.132 2.28578,-0.0361 3.40836,-0.25323 0.13541,-0.0493 1.21898,-0.12246 1.03688,-0.55197 -0.64958,-0.83093 -0.47657,-0.44294 -0.69086,-1.07092 0,0 -0.0957,-0.0619 -0.0957,-0.0619 v 0 c -1.38375,-0.2521 0.75352,0.17477 -1.73387,-0.6006 -0.56408,-0.17586 -1.11214,-0.0345 -1.66474,0.0831 -1.10611,0.18604 -2.22251,0.30515 -3.34364,0.17164 -1.32741,-0.11095 -2.6582,-0.18647 -3.99028,-0.20638 -1.79368,0.0508 -3.5751,0.26934 -5.3597,0.4452 -1.68246,0.16065 -3.363,0.34282 -5.04924,0.46112 -1.3401,0.10248 -2.68175,0.21696 -4.02726,0.18701 -1.38078,0.009 -2.75401,0.12404 -4.13054,0.22425 -1.46514,0.0874 -2.919045,0.27729 -4.381705,0.39741 -1.58029,0.13599 -3.161333,0.18445 -4.73896,-0.0316 -1.878502,-0.18931 -3.756427,-0.38482 -5.629434,-0.62352 -1.644057,-0.16818 -3.291291,-0.27964 -4.944007,-0.31067 -1.18718,-0.05 -2.387067,-0.13813 -3.56201,0.0946 0,0 2.912491,2.02244 2.912491,2.02244 z" />
    <path
       style="opacity:1;fill:#000000;stroke-width:0.376755"
       id="path484"
       d="m 126.60727,172.90694 c -0.11495,0.06 -0.2438,0.0984 -0.34458,0.17974 -0.64889,0.5241 -0.98285,1.90373 -1.2158,2.65852 -0.6877,2.23025 -1.32066,4.47658 -1.90947,6.73482 -0.555,2.16392 -0.9734,4.35635 -1.24736,6.57268 -0.18343,1.50157 -0.23756,3.01408 -0.25144,4.52539 0.0291,0.24703 -0.0553,2.01725 0.12458,2.13921 1.0225,0.69343 2.10749,1.28987 3.16123,1.93479 0.0914,-0.0948 0.19566,-0.17876 0.27421,-0.28447 0.51183,-0.68897 0.97034,-2.47437 1.25866,-3.31332 0.78815,-2.19196 1.75333,-4.31348 2.63068,-6.46983 0.95268,-2.5326 1.90726,-5.07084 2.73471,-7.64796 0.68641,-1.8174 0.86048,-3.72125 0.97484,-5.64028 0.0293,-0.49156 0.0171,-0.98737 0.088,-1.47467 0.0626,-0.431 0.20742,-0.84599 0.31115,-1.26901 0.0504,-1.61416 -0.0827,-0.87389 0.32432,-2.23305 0,0 -0.10001,-0.0547 -0.10001,-0.0547 v 0 c -0.39416,1.3161 -0.10201,0.6736 -0.91896,1.9077 -0.14519,0.40031 -0.24911,0.81809 -0.43554,1.20091 -0.005,0.008 -1.36441,2.20542 -1.38317,2.23841 -0.69137,1.21511 -1.18106,2.50321 -1.53251,3.85606 -0.83782,2.5622 -1.78699,5.07729 -2.85147,7.55448 -0.90856,2.14342 -1.89523,4.25362 -2.74172,6.42313 -0.0865,0.21979 -1.11938,3.16245 -1.45045,2.95736 0.96563,0.60191 1.91424,1.23199 2.89687,1.80573 0.0657,0.0384 -0.10001,-0.1182 -0.12787,-0.18896 -0.23109,-0.58635 -0.10071,-1.27369 -0.1756,-1.88144 -0.0142,-1.51197 0.0204,-3.02459 0.15701,-4.53127 0.22605,-2.22294 0.59752,-4.42632 1.09182,-6.6059 0.54424,-2.25556 1.25417,-4.45724 2.03308,-6.64229 0.20994,-0.61796 0.39936,-1.24521 0.6571,-1.84558 0.0265,-0.0618 0.33445,-0.70903 0.36143,-0.81158 0.03,-0.11401 0.0213,-0.23496 0.032,-0.35246 0,0 -2.42594,-1.44221 -2.42594,-1.44221 z" />
    <path
       style="opacity:1;fill:#000000;stroke-width:0.376755"
       id="path486"
       d="m 81.804374,171.79887 c 0.114834,1.7221 0.431898,3.44402 0.751328,5.14208 0.502611,2.77506 0.982419,5.5539 1.579674,8.3105 0.395895,1.55121 0.725926,3.15362 1.477124,4.58122 0.618657,0.91157 2.334497,2.35895 2.904184,1.03301 0.157156,-0.3658 0.178052,-0.72018 0.236034,-1.11214 0.01177,-0.29873 0.03765,-0.59728 0.034,-0.89621 -0.0059,-0.42843 -0.137554,-2.787 -0.15252,-3.06347 -0.109186,-2.00995 -0.205113,-4.01964 -0.289815,-6.03078 -0.257012,-2.17181 0.220903,-4.66852 -0.275743,-6.79664 -1.139751,-4.88371 0.01283,1.29969 -0.623798,-2.26569 0,0 -0.101539,-0.0517 -0.101539,-0.0517 v 0 c -0.24294,1.07738 -0.04659,0.53055 -0.642788,1.62025 -0.296663,0.94366 -0.187359,1.91511 -0.155991,2.87985 0.02471,0.75963 0.12187,3.06474 0.151579,3.78226 0.116716,3.2362 0.349067,6.49919 -0.0011,9.72705 -0.0746,0.34514 -0.110245,0.65767 -0.275943,0.97037 -0.03753,0.071 -0.08824,0.1387 -0.153143,0.18588 -0.03671,0.0266 -0.171792,-0.002 -0.134118,0.0231 2.717731,1.82337 2.371641,1.55473 1.659199,0.96016 -0.93711,-1.38122 -1.300672,-3.05242 -1.758632,-4.63359 -0.676145,-2.73983 -1.171708,-5.51334 -1.591287,-8.30359 -0.284532,-1.7403 -0.621234,-3.47286 -0.922297,-5.20865 0,0 -1.714487,-0.85314 -1.714487,-0.85314 z" />
    <path
       style="opacity:1;fill:#000000;stroke-width:0.376755"
       id="path488"
       d="m 70.444712,217.00655 c -0.37309,1.00142 -0.59076,2.03025 -0.695946,3.0909 -0.290396,2.06215 -0.323705,4.14473 -0.408318,6.22344 -0.08529,2.53214 -0.0408,5.06609 -0.02854,7.59901 -0.0056,2.60685 0.08156,5.21248 0.0953,7.81909 -0.03677,2.38409 0.0061,4.76674 0.07581,7.14971 0.130435,2.17173 -0.03191,4.33709 0.0513,6.50847 0.07285,1.88096 0.304286,3.74939 0.50283,5.61962 0.15329,1.72398 0.309662,3.45494 0.275359,5.18701 0.05959,1.5248 0.530494,2.98748 1.018497,4.42013 0.50159,1.13631 1.316392,2.04583 2.26062,2.83049 2.349126,1.73594 3.95474,2.63085 6.656353,2.72712 1.909034,-0.0312 3.377781,-0.56203 4.904604,-1.68137 1.480112,-1.30671 2.146961,-3.16049 2.808893,-4.96198 0.688428,-2.0144 1.241431,-4.07226 1.796141,-6.12659 0.475773,-2.08432 1.428625,-4.00034 2.104899,-6.01621 0.689805,-2.03673 1.365526,-4.07809 2.010067,-6.12961 0.689287,-2.00749 0.916414,-4.11225 1.151565,-6.20847 0.324739,-2.4559 0.697949,-4.90514 1.039399,-7.35884 0.31304,-2.25899 0.56701,-4.52539 0.85485,-6.78762 0.20425,-1.78647 0.5186,-3.55469 0.95686,-5.29794 0.0771,-0.71087 0.71816,-1.5441 0.45273,-2.27872 -0.188,-0.52035 -0.70894,-0.92874 -1.06818,-1.29012 -0.0199,-0.11904 -0.04,-0.23818 -0.0601,-0.35727 0,0 -0.10013,-0.0543 -0.10013,-0.0543 v 0 c -0.0712,0.0704 -0.1424,0.14069 -0.21352,0.21114 -0.31491,-0.0395 -0.96372,-0.23752 -1.31492,0.0202 -0.36667,0.26907 -0.422275,1.73329 -0.634589,2.16051 -0.434205,1.76592 -0.696029,3.5643 -0.908448,5.36945 -0.266048,2.27461 -0.453312,4.55816 -0.767047,6.82716 -0.348844,2.45161 -0.763152,4.89363 -1.063215,7.35202 -0.282567,2.06081 -0.573959,4.12519 -1.210264,6.11377 -0.608892,2.06129 -1.251727,4.11273 -1.960039,6.14226 -0.730597,2.01489 -1.332852,4.07575 -1.944896,6.12897 -0.560711,2.04398 -1.103349,4.09454 -1.794,6.09982 -0.62041,1.75404 -1.309591,3.53303 -2.76349,4.77478 -1.467734,1.05239 -2.975602,1.5543 -4.798875,1.49504 -0.745751,-0.0581 -1.462905,-0.12588 -2.175583,-0.37208 -0.209435,-0.0724 -0.798202,-0.37833 -0.613557,-0.25581 0.514158,0.34113 3.299563,1.9609 1.597341,0.93544 -0.977809,-0.74897 -1.785663,-1.63924 -2.382081,-2.72606 -0.808819,-1.37781 -1.104821,-2.92469 -1.385726,-4.48397 -0.348683,-1.7522 -0.34252,-3.54052 -0.524151,-5.3146 -0.210899,-1.8759 -0.45856,-3.74931 -0.56699,-5.63493 -0.123969,-2.2171 -0.301464,-4.43001 -0.342112,-6.6514 -0.08315,-2.38668 -0.09584,-4.77382 -0.108469,-7.16175 -0.05088,-2.60772 -0.100903,-5.21572 -0.108928,-7.82398 -0.0059,-2.52607 -0.04387,-5.05345 0.04828,-7.57843 0.0919,-2.08703 0.22436,-4.17364 0.310537,-6.25863 0.13455,-1.07754 0.228926,-2.15802 0.381594,-3.23315 0,0 -1.411781,-0.76163 -1.411781,-0.76163 z" />
    <path
       style="opacity:1;fill:#000000;stroke-width:0.376755"
       id="path490"
       d="m 140.73116,211.82517 c -0.13756,1.77794 -0.0128,3.56637 0.0368,5.34707 0.0967,2.87971 0.10978,5.76257 -0.13955,8.63438 -0.24922,2.38096 -0.40118,4.77096 -0.54913,7.15998 -0.1166,2.01724 -0.26266,4.03256 -0.41577,6.04731 -0.16465,2.1488 -0.40406,4.29004 -0.55372,6.44012 -0.16012,2.53512 -0.23229,5.07445 -0.45346,7.60531 -0.29987,2.69512 -0.83593,5.35779 -1.40856,8.00616 -0.49414,2.21938 -1.19396,4.38397 -2.09903,6.46831 -0.50712,1.22787 -1.36378,2.17827 -2.31952,3.0675 -0.79824,0.69045 -1.52601,1.45011 -2.23538,2.22959 -0.83359,1.00408 -1.91481,1.53305 -3.14974,1.86136 -1.24738,0.26675 -2.39111,-0.11083 -3.48741,-0.68173 4.70776,2.81362 1.85656,1.15162 1.01069,0.12815 -0.42393,-0.51297 -0.49778,-0.70835 -0.85065,-1.31969 -0.89014,-1.75075 -1.37943,-3.65512 -1.79941,-5.5621 -0.37997,-1.92108 -0.64646,-3.86289 -0.84893,-5.81002 -0.20341,-2.22651 -0.32755,-4.45786 -0.39014,-6.69241 0.006,-2.54595 -0.14384,-5.08643 -0.24691,-7.62905 -0.0639,-2.49157 -0.13669,-4.98276 -0.21371,-7.474 -0.0455,-2.33245 0.0413,-4.66414 0.0366,-6.99668 -0.001,-1.89125 -0.13456,-3.77621 -0.29999,-5.65882 -0.092,-1.11442 -0.23842,-2.22089 -0.53519,-3.29975 -0.30712,-0.86307 -1.38587,-1.32674 -2.11043,-1.84948 0,0 -0.10495,-0.0442 -0.10495,-0.0442 v 0 c -0.36483,0.2945 -1.22197,-0.4378 -0.90624,0.41665 0.35094,1.07088 0.55433,2.17674 0.67851,3.29652 0.21039,1.88275 0.3335,3.77333 0.37978,5.66742 0.0602,2.33885 -0.0221,4.67559 -0.0118,7.01465 0.0684,2.50139 0.22561,4.99988 0.26426,7.50239 0.0848,2.53615 0.21133,5.07165 0.21889,7.60966 0.0373,2.23076 0.0868,4.46341 0.31636,6.6844 0.1989,1.95042 0.42097,3.90284 0.80025,5.8276 0.42022,1.92546 0.9581,3.82804 1.75145,5.63686 1.26843,2.69962 2.7188,3.08524 5.52016,4.67348 1.16484,0.52586 2.36232,0.81228 3.63282,0.48001 1.269,-0.39065 2.37297,-0.98935 3.2446,-2.01987 0.7194,-0.76238 1.47734,-1.4855 2.24965,-2.19411 0.97708,-0.93514 1.8069,-1.9632 2.296,-3.245 0.85709,-2.1384 1.4689,-4.36106 1.96005,-6.61071 0.58556,-2.65488 1.17663,-5.31696 1.45808,-8.02501 0.22602,-2.52517 0.31053,-5.05848 0.49981,-7.58642 0.16707,-2.14043 0.40594,-4.27245 0.61496,-6.40889 0.1394,-2.02656 0.27362,-4.05353 0.35793,-6.08332 0.11975,-2.42672 0.25723,-4.85342 0.31477,-7.28251 0.0491,-2.90174 0.12615,-5.80314 0.0484,-8.70551 -0.0385,-1.82203 -0.10354,-3.63935 -0.29469,-5.45159 0,0 -2.26655,-1.17384 -2.26655,-1.17384 z" />
    <path
       style="opacity:1;fill:#000000;stroke-width:0.376755"
       id="path496"
       d="m 91.402091,221.27675 c 1.003115,0.37574 2.029421,0.67968 3.054162,0.99006 1.243122,0.39488 2.513622,0.69812 3.780692,1.00542 1.36676,0.36849 2.777385,0.44221 4.183875,0.49268 1.29889,0.0991 2.59565,-0.0218 3.89293,-0.0729 1.26015,-0.0118 2.52137,0.0118 3.78075,0.0578 1.14047,0.12032 2.27948,0.12617 3.41456,-0.0337 0.83409,-0.14407 1.64583,-0.38274 2.47857,-0.53397 0.91841,-0.12886 1.83926,-0.24025 2.75865,-0.36337 1.02213,-0.14026 2.02715,-0.37594 3.01156,-0.68179 0.52447,-0.25714 1.52487,-0.27069 1.69899,-0.93605 0.0777,-0.42602 -0.31177,-0.69546 -0.54822,-0.99889 0,0 -0.0928,-0.0661 -0.0928,-0.0661 v 0 c -0.65265,-0.30614 -1.28874,-0.67415 -2.01774,-0.76111 -0.97725,-0.11975 -1.47901,0.16126 -2.38256,0.47921 -0.98019,0.28154 -1.97374,0.50871 -2.98853,0.62534 -0.91899,0.14341 -1.8446,0.23255 -2.76209,0.38426 -0.81911,0.16756 -1.62222,0.41076 -2.45227,0.5231 -1.07379,0.13257 -2.14846,0.10083 -3.22854,0.0923 -1.24528,-0.009 -2.49154,-0.0518 -3.73624,0.007 -1.2775,0.0671 -2.55429,0.13029 -3.834115,0.0825 -1.35024,-0.02 -2.69193,-0.14472 -4.00931,-0.45694 -1.220827,-0.28485 -2.435962,-0.5926 -3.644897,-0.92449 -0.899271,-0.25723 -1.793035,-0.61577 -2.72805,-0.69713 0,0 2.370606,1.78696 2.370606,1.78696 z" />
    <path
       style="opacity:1;fill:#000000;stroke-width:0.376755"
       id="path498"
       d="m 69.152162,256.5651 c 0.06157,0.13585 0.168277,0.38958 0.258337,0.49698 0.932808,1.11237 5.005565,3.13024 5.317617,3.30738 1.817588,0.89528 3.70849,1.6276 5.679341,2.09682 2.129478,0.34723 4.352588,0.63624 6.471171,0.10083 1.487431,-1.52167 -0.571688,0.75396 0.435699,-0.93964 0.07318,-0.12302 0.257812,-0.1243 0.38673,-0.18649 0,0 -0.09342,-0.0652 -0.09342,-0.0652 v 0 c -0.212278,0.005 -0.427298,0.0448 -0.636858,0.0118 -0.428957,-0.0698 -0.842619,-0.21341 -1.263928,-0.32013 -0.396378,-0.0601 -0.792755,-0.12003 -1.189145,-0.1801 -2.266819,-0.0418 -4.555359,0.1126 -6.778257,-0.46163 -1.945762,-0.52366 -3.832411,-1.23896 -5.627251,-2.16011 4.563337,2.69707 0.576689,0.50147 -0.232393,-0.50274 0,0 -2.727642,-1.19677 -2.727642,-1.19677 z" />
    <path
       style="opacity:1;fill:#000000;stroke-width:0.376755"
       id="path500"
       d="m 122.39973,259.94005 c 1.25314,0.28423 2.53482,0.35212 3.81507,0.36286 2.45803,-0.009 4.89012,-0.29739 7.28273,-0.8467 2.30388,-0.56627 4.47751,-1.57652 6.2883,-3.11437 0.47495,-0.79783 0.22286,-1.54357 0.0557,-2.38417 0,0 -0.0983,-0.0575 -0.0983,-0.0575 v 0 c -0.92488,0.2303 -1.87735,0.28225 -2.76199,0.66291 -1.97673,1.24016 -3.94528,2.49453 -6.27936,2.95328 -2.41076,0.5096 -4.85735,0.74889 -7.32399,0.71619 -1.27151,-0.0435 -2.54234,-0.14011 -3.78428,-0.43347 0,0 2.8061,2.14098 2.8061,2.14098 z" />
    <path
       style="opacity:1;fill:#000000;stroke-width:0.376755"
       id="path502"
       d="m 125.04725,272.78725 c 0.16948,-1.04405 0.78777,-1.92613 1.50753,-2.67172 1.11858,-0.82819 1.94595,-1.26047 3.35438,-1.00697 0.1919,0.0886 0.75783,0.37288 0.5757,0.26565 -0.40298,-0.23727 -0.78097,-0.56614 -1.23977,-0.65668 -0.27747,-0.0548 0.44473,0.35033 0.6536,0.54101 0.67838,0.61925 1.25911,1.35036 1.88106,2.02424 1.21119,1.03413 0.79343,0.50805 1.40517,1.44469 0,0 0.10413,0.0465 0.10413,0.0465 v 0 c -0.3065,-0.62847 -0.35679,-0.35349 0.002,-0.83858 -1.04386,-2.00294 -3.05203,-3.38548 -5.1415,-4.14212 -1.32727,-0.13671 -2.4479,0.24127 -3.31643,1.28952 -0.63563,0.88512 -0.99851,1.8492 -1.298,2.89239 0,0 1.51082,0.8122 1.51082,0.8122 z" />
    <path
       style="opacity:1;fill:#000000;stroke-width:0.376755"
       id="path504"
       d="m 74.891638,271.70023 c 1.094849,-0.93878 2.306855,-1.61908 3.758493,-1.83074 0.381118,-0.0555 0.769177,-0.0414 1.153753,-0.0622 1.165425,0.27041 1.207735,0.18565 2.238935,0.79396 0.07295,0.0431 -0.315005,-0.0991 -0.250199,-0.0444 0.480326,0.4043 1.013034,0.74197 1.519551,1.11296 0,0 0.105422,0.0432 0.105422,0.0432 v 0 c -0.13966,-0.22635 -0.211714,-0.51239 -0.418968,-0.67906 -0.547415,-0.44026 -2.860922,-2.01122 -3.906135,-2.39138 -0.406273,-0.14778 -0.847749,-0.16999 -1.271623,-0.25499 -0.394509,0.0334 -0.7946,0.0264 -1.183513,0.10048 -1.39051,0.26515 -2.504701,1.20624 -3.615281,2.01957 0,0 1.869565,1.19274 1.869565,1.19274 z" />
    <path
       style="opacity:1;fill:#000000;stroke-width:0.376755"
       id="path516"
       d="m 143.43564,221.9266 c 1.62353,2.51713 4.3963,3.72253 6.92182,5.13794 2.32735,1.01873 4.82626,1.10977 7.31603,0.88696 2.68336,-0.31036 4.99397,-1.4986 7.11216,-3.10655 1.73349,-1.45623 3.21185,-3.1913 4.39775,-5.11511 1.18364,-2.18936 1.79195,-4.6118 2.26372,-7.03742 0.51252,-2.64639 0.66472,-5.32788 0.64306,-8.01673 -0.08,-3.05067 -0.29463,-6.09606 -0.50191,-9.14019 -0.21896,-3.00371 -0.45551,-6.00564 -0.60435,-9.01381 -0.26327,-3.95498 -0.002,-7.89703 0.56031,-11.81188 0.71552,-4.44795 2.25183,-8.67641 4.07065,-12.77648 0.78052,-2.02285 2.24163,-3.79544 2.85159,-5.89239 0.17152,-0.58967 0.14957,-1.21986 0.26235,-1.82352 0.0865,-0.4625 0.22307,-0.91421 0.33459,-1.37131 0,0 -0.0983,-0.0575 -0.0983,-0.0575 v 0 c -0.89628,0.67562 -1.92853,1.18052 -2.74346,1.95233 -1.59664,1.51221 -2.39818,3.72527 -3.42289,5.60485 -1.86222,4.11616 -3.4047,8.36525 -4.13298,12.84425 -0.58532,3.91537 -0.89914,7.85944 -0.68208,11.82138 0.1433,3.01079 0.37338,6.01506 0.6022,9.02037 0.21205,3.03462 0.42664,6.07114 0.49355,9.11312 0.0226,2.66682 -0.0957,5.33286 -0.60683,7.95827 -0.4776,2.38159 -1.03593,4.77761 -2.22609,6.91999 -1.1633,1.88993 -2.51608,3.65416 -4.25466,5.05764 -2.02179,1.54312 -4.24835,2.74596 -6.80595,3.09439 -2.46396,0.18318 -4.93388,0.0527 -7.20747,-1.01804 4.21852,2.60085 -1.38019,-0.74302 -1.81444,-2.01991 0,0 -2.7284,-1.21054 -2.7284,-1.21054 z" />
    <path
       style="opacity:1;fill:#000000;stroke-width:0.376755"
       id="path518"
       d="m 176.77358,160.09842 c -0.65404,1.9025 -0.29842,3.63429 0.68205,5.32904 1.70077,2.23491 4.31292,3.83138 7.05646,4.40748 3.02493,0.21356 5.04177,-1.886 6.9068,-3.97218 2.41337,-2.686 3.29633,-6.1115 4.23887,-9.49688 0.80234,-3.77609 0.84899,-7.66151 0.64168,-11.5009 -0.43647,-3.48179 -1.55343,-6.84219 -2.68178,-10.1522 -0.8483,-2.35561 -2.26043,-4.34979 -4.28929,-5.80735 -2.45036,-1.63293 -5.01153,-2.85295 -7.82348,-3.63769 -1.80377,-0.52513 -3.57002,-0.43648 -5.38058,-0.04 -1.8889,0.68935 -4.31829,1.37539 -5.85869,2.73164 -0.3071,0.27037 -0.51259,0.63785 -0.76887,0.95677 -0.51309,1.62669 -0.17906,0.84978 -0.99884,2.33214 0,0 0.0968,0.06 0.0968,0.06 v 0 c 1.84984,-0.90461 0.85219,-0.54023 3.01069,-1.04312 2.50341,-0.90728 4.73999,-2.47247 7.37652,-3.04745 1.79837,-0.33599 3.55742,-0.33539 5.32414,0.20783 1.27676,0.37954 7.16458,2.96052 1.73467,0.1897 2.11894,1.36898 3.57028,3.3282 4.51278,5.66928 1.28229,3.28857 2.32373,6.68862 2.91807,10.17259 0.50806,3.86667 0.36079,7.74123 -0.26707,11.5924 -0.54044,3.46055 -1.56332,6.82504 -3.76871,9.61538 -1.795,2.07286 -3.76697,4.03308 -6.72084,3.80486 -0.34759,-0.0779 -0.91877,-0.56738 -1.04277,-0.23347 -0.12857,0.34631 0.9942,0.3246 0.87861,0.67548 -0.1113,0.33823 -0.62851,-0.33721 -0.92513,-0.53429 -0.82879,-0.55071 -1.52482,-1.25491 -2.12542,-2.04391 -0.9943,-1.59382 -1.47618,-3.32556 -0.82019,-5.1657 0,0 -1.90649,-1.06942 -1.90649,-1.06942 z" />
  </g>
</svg>
