<?xml version="1.0" encoding="UTF-8" standalone="no"?>
<!-- Created with Inkscape (http://www.inkscape.org/) -->

<svg
   width="210px"
   height="297px"
   viewBox="0 0 210 297"
   version="1.1"
   id="svg5"
   inkscape:version="1.2.2 (b0a8486541, 2022-12-01)"
   sodipodi:docname="asher.svg.2023_07_01_10_16_00.0.svg"
   xmlns:inkscape="http://www.inkscape.org/namespaces/inkscape"
   xmlns:sodipodi="http://sodipodi.sourceforge.net/DTD/sodipodi-0.dtd"
   xmlns="http://www.w3.org/2000/svg"
   xmlns:svg="http://www.w3.org/2000/svg">
  <sodipodi:namedview
     id="namedview7"
     pagecolor="#ffffff"
     bordercolor="#000000"
     borderopacity="0.25"
     inkscape:showpageshadow="2"
     inkscape:pageopacity="0.0"
     inkscape:pagecheckerboard="0"
     inkscape:deskcolor="#d1d1d1"
     inkscape:document-units="mm"
     showgrid="false"
     inkscape:zoom="1.5208438"
     inkscape:cx="126.57447"
     inkscape:cy="156.49208"
     inkscape:window-width="1280"
     inkscape:window-height="651"
     inkscape:window-x="0"
     inkscape:window-y="0"
     inkscape:window-maximized="1"
     inkscape:current-layer="layer5" />
  <defs
     id="defs2" />
  <g
     inkscape:groupmode="layer"
     id="layer5"
     inkscape:label="Layer 1"
     style="display:inline">
    <path
       style="fill:#a98547;fill-opacity:1"
       d="m 48.820726,41.81463 c -3.063927,3.199443 -3.360043,7.523434 -4.564689,11.508642 -0.758384,2.508883 -1.814509,4.932452 -2.365945,7.500296 -1.451813,6.760587 -1.0397,13.395289 -0.803445,20.222241 0.107738,3.113238 -0.05068,6.215353 0.06363,9.326172 0.0693,1.886097 -0.512401,3.762423 -0.619969,5.640389 -0.196971,3.438785 -0.194639,6.82874 -0.513435,10.26278 -0.200849,2.16353 -0.538506,4.35123 -0.668798,6.51486 -0.07362,1.22246 0.01464,2.68975 -0.318122,3.8737 -0.224954,0.80036 -0.475642,2.22996 -0.957328,2.92377 -0.420005,0.60496 -1.124938,0.58327 -1.253255,1.43673 -0.254364,1.69181 -0.04381,3.5644 -0.02811,5.269 0.03192,3.46617 0.174712,6.8839 0.387666,10.34564 0.06924,1.12557 -0.232948,8.2969 0.105054,8.88228 0.429522,0.74388 3.441651,2.18097 4.302794,2.5361 0.653151,0.26936 1.122568,0.80284 1.697147,1.18963 0.889831,0.59901 2.223853,0.97275 3.219697,1.36719 2.228768,0.88279 4.862495,0.9527 7.0712,1.92205 2.924911,1.28368 5.272087,3.94451 8.281546,4.98047 4.118649,1.41778 9.63903,1.40436 14.029948,2.07742 4.158211,0.63739 8.161436,2.62725 12.177439,2.92968 1.779703,0.13403 3.531363,-0.24562 5.310428,-0.24562 2.595097,0 5.200577,0.32436 7.803631,0.34476 4.37999,0.0343 8.74765,-0.13038 13.12145,-0.16868 2.40155,-0.021 4.76458,0.74245 7.15553,0.85819 1.73387,0.0839 3.30092,-0.84987 5.05002,-0.87299 2.07282,-0.0274 4.12409,0.31038 6.19081,0.38027 2.38682,0.0807 5.13924,-0.2454 7.5003,-0.58446 1.62288,-0.23305 3.1331,-1.02876 4.69046,-1.49295 1.85862,-0.55399 3.84522,-0.76543 5.64186,-1.53587 1.90213,-0.81567 3.6979,-1.88958 5.56493,-2.76841 1.24716,-0.58704 2.64581,-0.83197 3.89441,-1.47816 2.46509,-1.27575 4.23071,-3.40544 6.57109,-4.8325 1.39629,-0.8514 3.95175,-1.58692 4.74668,-3.17679 0.74497,-1.48993 -0.8657,-5.65796 -0.83748,-7.48698 0.0251,-1.62578 1.28666,-3.02028 1.21035,-4.73929 -0.0936,-2.1082 -1.56404,-3.99579 -2.02859,-6.05024 -0.20839,-0.92165 0.24574,-2.26665 0.17608,-3.26113 -0.16803,-2.39878 -0.8768,-4.75932 -1.31688,-7.11411 -0.17184,-0.91948 -0.74575,-2.59482 -1.24586,-3.39577 -0.57641,-0.92317 -1.93548,-1.36952 -2.02118,-2.59085 -0.0441,-0.62892 0.38518,-1.29148 0.472,-1.90282 0.17684,-1.24526 0.32511,-2.50937 0.50012,-3.77456 0.1376,-0.99471 0.77908,-1.86168 0.68211,-2.93709 -0.0976,-1.08225 -0.40048,-2.15514 -0.52083,-3.24041 -0.29077,-2.622069 -0.25471,-5.240273 -0.76793,-7.831737 -0.41018,-2.071125 -1.26877,-3.967786 -1.5699,-6.08576 -0.31423,-2.210064 -0.0446,-4.56767 -0.19087,-6.803385 -0.13775,-2.106055 -0.74001,-4.176737 -0.79605,-6.282552 -0.0372,-1.397261 0.33308,-2.8475 0.14204,-4.219934 -0.82401,-5.919875 -2.19576,-11.684995 -4.65642,-17.094283 -0.77939,-1.713329 -2.05771,-3.347874 -2.99332,-4.950875 -0.29304,-0.502086 -0.27097,-1.133252 -0.44389,-1.676433 -0.3927,-1.233628 -1.31406,-2.34138 -1.71046,-3.585168 -0.26641,-0.835915 -0.33567,-1.573102 -0.74722,-2.352628 -0.73872,-1.399214 -2.75392,-1.612655 -3.74645,-2.79652 -0.33753,-0.402594 -0.41415,-0.983267 -0.80936,-1.337594 -0.64735,-0.580385 -1.68226,-0.792301 -2.34671,-1.367188 -2.6568,-2.298669 -3.48703,-3.384335 -6.77527,-5.007102 -1.2916,-0.63741 -2.78599,-0.711934 -4.0631,-1.31688 -1.81763,-0.860986 -2.84679,-2.411597 -4.76148,-3.170869 -0.89393,-0.354492 -1.90681,-0.309105 -2.76101,-0.612571 -1.15728,-0.411139 -2.53873,-1.223832 -3.74644,-1.358309 -1.59255,-0.177329 -3.17997,0.189478 -4.75409,-0.0148 -2.02701,-0.263047 -3.73702,-1.247179 -5.66258,-1.788885 -0.84139,-0.236701 -1.74447,-0.0515 -2.59233,-0.183475 -0.58847,-0.0916 -1.0494,-0.441475 -1.66903,-0.477924 -2.61026,-0.153544 -5.03141,1.737683 -7.69117,1.674953 -2.404521,-0.05671 -4.710022,-0.381273 -7.148151,-0.140566 -2.484193,0.245255 -5.460364,1.013099 -7.859848,1.140803 -1.356899,0.07221 -2.653411,-0.432868 -4.008346,-0.316643 -1.8339,0.157309 -3.727182,1.016898 -5.471709,1.543264 -1.987079,0.59955 -4.026224,1.053308 -5.971827,1.774089 -1.427838,0.528966 -2.529784,1.818055 -3.755327,2.663352 -0.91696,0.632457 -2.14985,0.753939 -3.049539,1.35831 -2.140777,1.438079 -4.366655,3.041859 -6.387606,4.641631 -2.951125,2.336092 -5.660009,5.351286 -8.789063,7.333096 z"
       id="path634" />
    <path
       style="fill:#d5c32a;fill-opacity:1"
       d="m 151.06728,134.22042 c -3.48178,2.61857 -10.12392,8.07395 -14.47007,8.86739 -3.12662,0.57079 -6.22374,1.28249 -9.36561,1.80876 -1.5499,0.2596 -3.07131,0.24526 -4.65082,0.60873 -3.14916,0.72466 -6.2783,1.27088 -9.46837,1.75448 -1.17213,0.17769 -2.32392,0.87477 -3.54385,0.81229 -3.42272,-0.17529 -6.85349,-1.91769 -10.205044,-2.46402 -1.897882,-0.30937 -4.04192,0.0473 -5.887677,-0.4614 -0.823608,-0.22698 -1.437207,-0.87305 -2.233324,-1.1535 -0.813208,-0.28647 -1.670111,-0.0453 -2.491164,-0.25977 -1.298286,-0.33908 -2.517788,-1.00899 -3.80169,-1.35512 -1.813611,-0.48894 -3.916151,-0.36563 -5.666671,-1.12636 -1.612464,-0.70072 -3.306818,-1.09001 -4.891212,-1.78161 -1.924818,-0.8402 -3.658022,-1.82652 -5.674425,-2.54739 -1.136161,-0.40618 -2.430321,0.0281 -3.600072,-0.16478 -2.749902,-0.45344 -13.587379,-3.55384 -14.200604,-6.44213 -0.548507,-2.58347 -0.215952,-5.30354 -0.370282,-7.92714 -0.131954,-2.24323 -0.71655,-4.34516 -0.682404,-6.65344 0.117383,-7.93508 1.760901,-15.58164 2.694722,-23.420822 0.279654,-2.347623 0.936807,-4.798406 0.996466,-7.143921 0.06451,-2.536443 -0.283757,-5.150232 -0.147338,-7.649909 0.114302,-2.09441 1.354152,-3.887038 1.975484,-5.823702 0.646627,-2.01551 0.326716,-4.287643 1.097275,-6.238572 1.163315,-2.945322 4.687659,-7.497722 6.864756,-9.910374 1.866337,-2.068269 3.762956,-4.261207 5.934205,-6.017567 2.164658,-1.751029 4.785933,-3.065931 7.114842,-4.594598 1.732884,-1.137443 3.579908,-2.47777 5.647284,-2.944808 2.850961,-0.644055 5.862817,-1.120116 8.766571,-1.310526 1.583582,-0.103842 3.211366,0.16887 4.788463,0.05622 1.26929,-0.09066 2.509915,-0.721921 3.77455,-0.785152 1.590309,-0.07952 3.342679,0.415777 4.900909,0.608735 1.34107,0.166068 2.84295,-0.255339 4.16227,0.05622 2.1195,0.500523 4.32742,0.919702 6.36653,1.725398 0.98517,0.389262 1.76677,1.151667 2.79553,1.430723 1.05953,0.287402 1.84303,-0.119266 2.85175,-0.05622 3.2697,0.204356 6.81264,1.10717 9.70876,2.714109 1.56897,0.87056 6.78174,6.496422 7.82438,8.074473 0.77,1.165404 1.16412,2.542285 1.92896,3.718328 1.07438,1.65201 3.28322,2.299693 4.46665,3.894746 1.25038,1.685297 1.95823,3.808314 3.13673,5.536782 1.71407,2.513969 0.88147,5.049153 1.97548,7.651847 0.43828,1.042666 1.32884,1.791234 1.65173,2.923483 0.76659,2.688104 0.4291,5.053295 0.50599,7.772044 0.0633,2.23629 0.43211,4.599627 0.28692,6.818229 -0.16065,2.454837 -0.60975,4.90153 -0.64557,7.364924 -0.0291,2.00069 0.17777,3.99 0,6.00788 -0.36289,4.11913 -1.54475,8.20916 -1.68856,12.35695 -0.11327,3.26689 -0.0486,6.72588 0.4517,9.9569 0.31337,2.0238 0.87875,3.60924 1.01585,5.71319 z"
       id="path1033" />
    <path
       style="fill:#331346;fill-opacity:1"
       d="m 93.60379,118.36615 c 0.695329,-0.81875 1.365804,-1.65928 2.085986,-2.45626 2.284489,-2.52811 4.516324,-0.0556 6.403354,1.70794 0.30694,0.28686 1.79834,1.0223 1.67112,1.5044 -0.27822,1.05429 -6.875908,0.84004 -7.927137,0.41487 -0.779235,-0.31517 -1.488882,-0.78063 -2.233323,-1.17095 z"
       id="path17574" />
    <path
       style="fill:#42300e;fill-opacity:1"
       d="m 117.04399,80.353124 c -0.73862,0.532482 -1.70748,0.842039 -2.21587,1.597447 -1.89616,2.817454 -2.59683,16.41586 0.0931,19.361289 0.57118,0.62544 1.61409,0.74027 2.39811,0.86657 3.60579,0.58088 4.42845,-3.610509 4.91836,-6.256016 0.43244,-2.335205 0.457,-4.791583 0.37028,-7.151676 -0.11305,-3.07639 -1.53813,-7.305155 -3.38682,-9.728141"
       id="path20411" />
    <path
       style="fill:#42300e;fill-opacity:1"
       d="m 81.644264,78.212855 c -2.371905,2.058905 -3.665985,4.393739 -4.613985,7.225345 -0.569218,1.700213 -0.920874,4.532325 -0.829741,6.358769 0.100007,2.004307 2.382503,10.427051 4.373592,11.147231 1.792626,0.6484 3.803479,-1.69391 4.83499,-2.81492 1.988513,-2.16103 1.342897,-5.511919 1.560613,-8.120998 0.311668,-3.734986 0.992479,-7.541132 -0.839435,-10.999895 -0.304336,-0.574604 -1.295248,-3.639631 -2.215876,-3.507016 -0.784911,0.113065 -1.513439,0.474323 -2.270158,0.711484 z"
       id="path23344" />
    <path
       style="fill:#d5c32a;fill-opacity:1"
       d="m 138.93134,199.36485 c 5.64753,-1.00631 9.2716,-5.47284 13.57442,-8.79565 3.18828,-2.46213 6.60597,-5.09753 9.05349,-8.36915 0.89571,-1.1973 1.43634,-2.63837 2.307,-3.82108 2.15245,-2.9239 5.10404,-5.08058 7.34554,-7.88061 1.77046,-2.21162 3.04905,-4.97005 4.42787,-7.41921 0.61437,-1.09128 5.10381,-6.40418 5.01141,-7.01403 -0.0582,-0.38393 -0.064,0.77488 -0.064,1.16319 0,1.03189 0.17447,2.04929 0.10081,3.08245 -0.21772,3.05382 -0.84422,6.12624 -1.27369,9.1543 -0.88721,6.25542 -2.30605,12.22559 -4.98233,17.92088 -1.86575,3.97045 -3.97095,8.09541 -6.84731,11.44384 -0.5493,0.63946 -1.43984,1.02397 -2.10343,1.54123 -3.67732,2.86642 -6.77791,6.04006 -11.1104,8.0008 -1.61321,0.73009 -3.48605,0.7586 -5.17813,1.23686 -2.44949,0.69233 -5.59722,2.06877 -8.14814,1.16319 -0.18542,-0.0658 -0.46934,-0.18401 -0.45171,-0.37998 0.0308,-0.34205 0.40227,-0.53955 0.38773,-0.9131 -0.0567,-1.45827 -0.67757,-2.75943 -0.96932,-4.17973 -0.17563,-0.85498 0.28023,-2.90502 -0.58935,-3.2957"
       id="path23350" />
    <path
       style="fill:#d5c32a;fill-opacity:1"
       d="m 59.322659,197.55609 c 0.816145,0.97251 3.090335,0.0911 4.336758,0.50792 1.00208,0.33509 3.098029,1.96414 4.078918,1.70602 0.372725,-0.0981 -0.263888,0.72563 -0.35865,1.09921 -0.278305,1.09716 -1.077379,1.99188 -1.614895,2.97195 -0.83126,1.51566 -1.706155,4.30841 -3.082452,5.42628 -0.708777,0.57568 -2.116957,0.69602 -2.520244,-0.36059 -0.940604,-2.46439 -0.666317,-8.66905 -0.839435,-11.35079 z"
       id="path23559" />
    <path
       style="fill:#d5c32a;fill-opacity:1"
       d="m 73.275116,261.38804 c 2.194796,-1.45032 3.751632,-1.11897 5.980732,-0.9131 1.604854,0.14822 5.798368,-0.39799 7.299014,-1.06044 0.02991,-0.0132 0.785419,-0.49089 0.849128,-0.44395 0.432623,0.31877 0.250479,1.40798 0.238454,1.85529 -0.04055,1.50851 0.214274,2.74197 -0.267533,4.23594 -1.48738,4.61203 -7.306946,10.84094 -11.616385,5.21303 -0.741364,-0.96818 -1.282116,-2.47906 -1.597447,-3.64466 -0.458148,-1.69351 -0.611076,-3.52131 -0.885963,-5.24211 z"
       id="path23561" />
    <path
       style="fill:#d5c32a;fill-opacity:1"
       d="m 121.02016,260.90532 c 1.74385,-0.28492 3.46514,-0.72211 5.23242,-0.54282 0.44422,0.0451 0.77816,-0.22445 1.20971,-0.25978 1.08501,-0.0888 2.26765,0.3329 3.40427,0.21325 1.77948,-0.18731 4.03233,-1.38739 5.84115,-1.01585 1.92814,0.39605 0.74429,8.75753 -0.44201,10.17985 -0.78245,0.93812 -2.34726,1.34127 -3.44304,1.78937 -6.89716,2.82049 -11.77711,-3.88583 -11.8025,-10.36402 z"
       id="path23563" />
    <path
       style="fill:#4a873c;fill-opacity:1"
       d="m 69.713818,159.49653 c -2.782926,7.23673 -5.696992,14.56526 -7.198204,22.24794 -0.390203,1.99692 -0.544528,4.05659 -0.979017,6.03695 -0.711023,3.24077 -2.583773,8.05289 -0.348957,10.88939 0.25809,0.32758 6.647498,0.57142 7.205958,-0.0291 1.100962,-1.18383 0.729787,-3.11262 1.099214,-4.52093 0.373536,-1.42397 1.264616,-2.71595 1.946404,-4.00525 0.283599,-0.5363 1.017804,-2.06028 1.08952,-1.45786 0.610379,5.12718 0.483087,10.53313 0.348957,15.68755 -0.05091,1.95648 -1.662092,5.83387 -0.765766,7.64991 0.355248,0.71976 7.313002,0.42051 8.50873,0.58159 1.401526,0.18881 2.757249,0.65526 4.179728,0.65526 3.491325,0 6.987489,-0.58935 10.47452,-0.58935 2.01396,0 4.057696,0.80955 6.052465,1.0333 1.40931,0.15809 2.96141,-0.14529 4.41236,-0.0562 0.97201,0.0597 1.77337,0.58105 2.71217,0.75608 1.31234,0.24467 2.5431,-0.30909 3.85791,-0.29468 2.14873,0.0236 4.17244,0.66488 6.33939,0.24039 1.29717,-0.2541 2.5442,-0.77239 3.83852,-0.99646 4.06954,-0.7045 8.14024,-0.82526 12.13401,-1.88243 1.3061,-0.34573 3.59073,-0.23034 4.52286,-1.30083 2.08439,-2.39379 2.29909,-6.31802 1.90957,-9.22022 -0.13615,-1.01447 -0.3242,-2.45651 -0.70179,-3.41396 -0.10464,-0.26533 -0.49409,-0.51314 -0.58935,-0.83943 -0.39181,-1.34216 -0.77619,-8.70193 0.35865,-9.10002 3.29708,-1.15657 4.12294,6.42874 5.62015,8.0008 1.20943,1.26991 5.11092,-5.14526 5.69381,-6.20174 1.86789,-3.38556 -0.86861,-9.69028 -3.00879,-12.55856 -0.70641,-0.94675 -1.6374,-1.85692 -2.1674,-2.93512 -1.37831,-2.8039 -2.82901,-5.62258 -4.64307,-8.17722 -0.46433,-0.65389 -0.80861,-2.62542 -1.8359,-2.73156 -0.98381,-0.10164 -2.18335,0.48241 -3.14643,0.63782 -2.53291,0.40873 -5.17486,0.76218 -7.72357,1.11666 -2.78242,0.38698 -5.26852,-0.36165 -7.98142,-0.40712 -2.91318,-0.0488 -5.93838,0.93493 -8.82279,0.63782 -3.71049,-0.3822 -7.31665,-1.84043 -11.1104,-1.92896 -2.1132,-0.0493 -4.237599,-0.0945 -6.349077,-0.064 -1.94981,0.0282 -4.074701,0.63238 -6.015628,0.36834 -1.792407,-0.24383 -3.543184,-1.08396 -5.325469,-1.44041 -1.307751,-0.26155 -2.709333,-0.14849 -4.022696,-0.43232 -1.341557,-0.28993 -2.576419,-0.9497 -3.949028,-1.19033 -0.766631,-0.1344 -1.533668,0.19909 -2.306993,0.0368 -1.344905,-0.28219 -1.332029,-0.52673 -3.313151,-0.8026 z"
       id="path23565" />
    <path
       style="fill:#554e2b;fill-opacity:1"
       d="m 73.174307,213.37159 c -1.48508,4.896 -0.970852,10.03718 -0.942184,15.0885 0.01882,3.31614 0.353859,6.60287 0.498233,9.90068 0.07223,1.6498 -0.264747,3.25457 -0.184172,4.9106 0.114059,2.34421 -0.44672,4.72162 -0.397423,7.07801 0.02504,1.19668 0.994999,7.79927 2.049152,8.39822 2.490958,1.41532 5.263984,0.5799 7.973664,0.70955 2.010409,0.0962 4.923241,0.79423 6.523553,-0.87627 1.303233,-1.36039 1.387936,-6.67201 1.70795,-8.59209 0.503776,-3.02266 0.88232,-6.16191 1.52184,-9.14461 0.467971,-2.1826 1.367875,-4.28907 1.781618,-6.46927 0.521175,-2.74631 0.536491,-5.42251 1.42103,-8.10355 0.31173,-0.94486 -0.03721,-6.52337 1.96579,-6.38591 0.646898,0.0444 1.086945,0.62636 1.752539,0.69209 3.756813,0.37105 13.719773,-2.15635 16.342813,-0.13764 0.83304,0.64112 1.67266,7.40405 1.75254,8.50873 0.54813,7.58072 1.02237,15.04874 1.94834,22.60853 0.21441,1.75051 -0.0952,6.46201 1.77192,7.66929 1.17809,0.76177 3.1468,0.75426 4.4841,1.20002 1.53965,0.51322 4.20981,-0.45319 5.82176,-0.64557 0.97739,-0.11664 4.71877,0.31319 5.34292,-0.12988 1.16946,-0.83018 1.90956,-4.11447 2.23332,-5.4069 1.22364,-4.88468 1.63834,-10.5479 0.96933,-15.55959 -0.27344,-2.04835 -0.83482,-4.0948 -0.78322,-6.18236 0.16231,-6.5667 3.37441,-14.93853 -0.75801,-21.04985 -0.17886,-0.2645 -0.62151,-0.77373 -0.94024,-0.83168 -0.93763,-0.17047 -2.08404,0.80547 -3.02817,0.94994 -0.5381,0.0823 -0.85574,-0.29408 -1.3842,-0.23845 -2.1992,0.23149 -4.35742,0.82103 -6.58753,0.97708 -2.36576,0.16553 -4.76339,-0.0333 -7.11484,0.221 -1.81611,0.19644 -3.72707,0.86032 -5.55617,0.76771 -0.95387,-0.0483 -1.88344,-0.56021 -2.83236,-0.57384 -4.53551,-0.0652 -9.0811,0.14183 -13.628707,0.19386 -1.452847,0.0166 -2.707793,-0.80336 -4.144832,-0.84913 -0.737779,-0.0235 -1.44422,0.33287 -2.149961,0.32376 -1.202359,-0.0155 -2.307968,-0.62492 -3.514771,-0.49823 -1.111777,0.1167 -2.187295,0.56592 -3.293765,0.62812 -1.059729,0.0596 -2.077652,-0.27604 -3.111531,-0.39742 -0.697607,-0.0819 -1.185065,0.46116 -1.835901,0.5622 -2.528157,0.3925 -2.688455,-0.29122 -5.674425,0.68435 z"
       id="path33332" />
  </g>
  <g
     inkscape:groupmode="layer"
     id="layer4"
     inkscape:label="Layer 4"
     style="display:inline;fill:#ff0000">
    <path
       style="fill:#000000"
       id="path375"
       d="m 40.406848,120.34614 c 0.117519,-1.27321 -0.100571,-2.55012 -0.14182,-3.82717 0.362829,-1.66439 0.179732,-3.3853 0.198048,-5.07738 8.91e-4,-1.62076 0.211329,-3.22783 0.406164,-4.83332 0.193903,-1.58901 0.349324,-3.18218 0.440043,-4.78043 0.07067,-1.46515 0.134035,-2.930539 0.212898,-4.395309 0.101135,-1.535939 0.327041,-3.059352 0.480312,-4.590279 0.168149,-1.59813 0.265908,-3.199929 0.255877,-4.806763 -0.03385,-1.496057 -0.157231,-2.987564 -0.260887,-4.479787 -0.145194,-1.554303 -0.09678,-3.113585 -0.04361,-4.670604 0.04014,-1.433144 0.07381,-2.866376 0.107926,-4.299652 0.01301,-1.584939 0.135712,-3.165524 0.292062,-4.741846 0.143998,-1.346334 0.361884,-2.682727 0.587412,-4.017284 0.19192,-1.266922 0.416752,-2.528137 0.637663,-3.790197 0.17888,-1.22523 0.502277,-2.41958 0.854768,-3.604107 0.329938,-1.088497 0.649969,-2.179971 0.983884,-3.26726 0.289421,-0.988818 0.601961,-1.970309 0.969384,-2.933019 0.315871,-0.86444 0.747204,-1.67587 1.214331,-2.466113 0.482545,-0.762889 0.966489,-1.524873 1.450144,-2.287078 0.580544,-0.88087 1.113858,-1.791019 1.705385,-2.664639 0.621201,-0.915535 1.29101,-1.79603 1.987681,-2.655027 0.738501,-0.899542 1.51155,-1.768074 2.319769,-2.605254 1.06808,-1.035883 2.166085,-2.040768 3.249451,-3.060815 1.021334,-0.974147 2.100174,-1.884489 3.210889,-2.754362 0.798319,-0.616852 1.636837,-1.175121 2.511705,-1.676395 0.786778,-0.416242 1.539153,-0.891357 2.287678,-1.371713 0.828353,-0.52839 1.629985,-1.096618 2.426519,-1.671341 0.75837,-0.539649 1.533019,-1.056703 2.346582,-1.509476 0.657321,-0.301373 1.334256,-0.559179 2.003462,-0.833461 0.715856,-0.296403 1.444775,-0.557648 2.175733,-0.813729 0.629492,-0.248962 1.27962,-0.423918 1.942419,-0.55474 0.59115,-0.118477 1.186379,-0.213785 1.775269,-0.343285 0.720721,-0.194083 1.442189,-0.383635 2.171797,-0.541492 0.721173,-0.169694 1.454524,-0.273055 2.188131,-0.370572 0.848142,-0.132553 1.698683,-0.243988 2.55272,-0.330272 0.850076,-0.08441 1.70048,-0.161238 2.554147,-0.195993 0.991143,0.01283 1.980639,-0.02386 2.970466,-0.07092 1.223475,-0.139327 2.453575,-0.05081 3.676585,-0.16311 1.570185,-0.173644 3.140072,-0.341475 4.715527,-0.459967 1.914978,-0.212655 3.827668,-0.437825 5.753778,-0.515152 1.37502,-0.01916 2.75081,0.03541 4.12315,0.118682 1.14972,0.09688 2.30319,0.107866 3.45615,0.114588 0.84294,-0.02636 1.67953,0.03804 2.5102,0.176147 0.85283,0.125509 1.64438,0.46999 2.42604,0.81639 1.10819,0.541465 2.25951,0.979603 3.43059,1.362765 1.23648,0.365746 2.50324,0.615325 3.75473,0.924065 1.39594,0.347814 2.75473,0.823984 4.0975,1.336181 1.50728,0.568415 3.01086,1.144993 4.4951,1.771365 1.42612,0.621295 2.82474,1.303795 4.22715,1.976404 0.25409,0.122963 0.50875,0.244754 0.76227,0.368889 0.52788,0.258476 0.92351,0.453698 1.43855,0.732723 0.21543,0.116714 0.8532,0.482261 0.64101,0.359739 -3.90066,-2.252344 -4.39937,-2.561304 -2.82187,-1.602963 0.96782,0.612829 1.90656,1.2689 2.87396,1.882503 0.9299,0.58351 1.86194,1.163525 2.79435,1.743011 0.9984,0.597728 1.87963,1.35149 2.7265,2.142997 0.91645,0.838705 1.64559,1.841743 2.33594,2.866878 0.72315,1.079618 1.3339,2.22738 1.9794,3.353451 0.65468,1.109268 1.37826,2.174945 2.04864,3.274552 0.63786,1.040908 1.15169,2.149882 1.63507,3.268805 0.50258,1.206196 0.96705,2.427548 1.4377,3.646371 0.48705,1.214793 0.91852,2.449573 1.30309,3.700296 0.40893,1.324469 0.61243,2.697093 0.78408,4.068697 0.15872,1.351403 0.3976,2.691342 0.6194,4.033297 0.18322,1.233757 0.45256,2.450015 0.7656,3.656452 0.30432,1.114457 0.57424,2.237265 0.80666,3.368788 0.15896,0.794279 0.33209,1.585505 0.46108,2.385335 0.12335,0.810974 0.14108,1.63236 0.22157,2.44793 0.0907,0.940336 0.43834,1.81931 0.75512,2.700101 0.34544,0.880828 0.44177,1.816573 0.52073,2.750256 0.075,0.835809 0.047,1.675118 0.0415,2.512864 -0.0634,0.846775 0.10235,1.67155 0.26803,2.49576 0.17443,0.748883 0.2168,1.49617 0.0357,2.243974 -0.24885,0.591286 -0.40654,1.159884 -0.36431,1.803197 0.0882,0.808394 0.45581,1.531273 0.83127,2.23833 0.44054,0.693054 0.65561,1.461096 0.78809,2.262214 0.116,0.950907 0.17475,1.90712 0.26327,2.860684 0.0778,0.851277 0.19459,1.698185 0.29115,2.547385 0.0869,0.74245 0.11554,1.48767 0.10088,2.23442 0.004,0.82279 -0.0522,1.64317 -0.12733,2.46198 -0.0788,0.90422 -0.19857,1.80489 -0.32682,2.70331 -0.0698,0.70732 -0.21803,1.39792 -0.40671,2.08166 -0.27765,0.85711 -0.44556,1.74183 -0.62202,2.6235 0.008,0.23199 -0.41331,1.53743 -0.33055,1.6922 0.0749,0.14008 0.2184,0.23072 0.3276,0.34609 1.13313,0.74125 0.57134,0.39296 1.68303,1.04861 0,0 0.12783,0.0859 0.12783,0.0859 v 0 c 1.202,0.59301 0.58984,0.32356 1.83633,0.80869 0.12911,0.008 0.26824,0.0737 0.38732,0.0233 0.0422,-0.0179 0.16516,-1.61879 0.28418,-1.698 0.17123,-0.86774 0.36895,-1.72839 0.64419,-2.56991 0.19696,-0.70579 0.38918,-1.415 0.43958,-2.14948 0.0864,-0.90888 0.2343,-1.81082 0.31949,-2.72004 0.0815,-0.8249 0.19412,-1.64799 0.18281,-2.47921 0.004,-0.7715 -4e-5,-1.54287 -0.10863,-2.30876 -0.0993,-0.84945 -0.20227,-1.6985 -0.30625,-2.54741 -0.1053,-0.954436 -0.16313,-1.912804 -0.24794,-2.869122 -0.0838,-0.849295 -0.24953,-1.690368 -0.7022,-2.428961 -0.3771,-0.637349 -0.77166,-1.289273 -0.88407,-2.033714 -0.0737,-0.594421 0.0449,-1.105964 0.28812,-1.654665 0.20854,-0.814346 0.19849,-1.639321 0.0185,-2.461631 -0.1584,-0.795846 -0.35276,-1.588553 -0.3175,-2.40744 0.009,-0.855275 0.032,-1.712273 -0.0489,-2.565261 -0.0739,-0.966409 -0.13844,-1.939756 -0.45803,-2.863878 -0.30549,-0.847029 -0.66808,-1.68592 -0.78862,-2.585163 -0.0916,-0.823419 -0.1254,-1.649825 -0.20327,-2.474133 -0.14593,-0.813403 -0.2988,-1.625394 -0.4988,-2.427616 -0.25919,-1.142528 -0.54454,-2.278956 -0.84686,-3.410821 -0.31555,-1.201128 -0.62419,-2.404125 -0.81081,-3.6337 -0.24296,-1.340934 -0.49879,-2.680848 -0.6688,-4.033491 -0.17815,-1.38763 -0.32228,-2.788799 -0.72777,-4.13364 -0.396,-1.262771 -0.84296,-2.508719 -1.32218,-3.742307 -0.45884,-1.218143 -0.91943,-2.435744 -1.39697,-3.6467 -0.4782,-1.148664 -0.99468,-2.283055 -1.64397,-3.347171 -0.66036,-1.098967 -1.35173,-2.177324 -2.03803,-3.260044 -0.66302,-1.131239 -1.26701,-2.297547 -1.9923,-3.391466 -0.68864,-1.043247 -1.38327,-2.092063 -2.2926,-2.960726 -0.83474,-0.816957 -1.69679,-1.607707 -2.69068,-2.231002 -0.93149,-0.592151 -1.8765,-1.163088 -2.81093,-1.750624 -0.98915,-0.609867 -1.95078,-1.259406 -2.91793,-1.903315 -2.5546,-1.588833 -5.16609,-3.090665 -7.89352,-4.361771 -1.41441,-0.683548 -2.82035,-1.388025 -4.27547,-1.982725 -1.48071,-0.60518 -2.97456,-1.177048 -4.47474,-1.732159 -1.35186,-0.481989 -2.71082,-0.95031 -4.10964,-1.279477 -1.24436,-0.29712 -2.50405,-0.542307 -3.71972,-0.947411 -1.18167,-0.413942 -2.33114,-0.901512 -3.46407,-1.434471 -0.81235,-0.337788 -1.64146,-0.633512 -2.52062,-0.739444 -0.83743,-0.108791 -1.67985,-0.122673 -2.52371,-0.103258 -1.13641,0.0041 -2.27158,-0.0203 -3.40531,-0.10556 -1.35456,-0.05628 -2.71207,-0.08692 -4.06682,-0.01803 -1.89751,0.141503 -3.781384,0.405145 -5.674519,0.593168 -1.57078,0.189459 -3.147654,0.307265 -4.722574,0.455739 -1.112875,0.117792 -2.193069,0.440602 -3.326279,0.386592 -0.993322,0.04129 -1.986488,0.04172 -2.980188,0.06558 -0.863656,0.0477 -1.726228,0.113721 -2.586796,0.201355 -0.854071,0.09802 -1.701982,0.239282 -2.555781,0.339329 -0.741571,0.09654 -1.476997,0.22673 -2.20389,0.40444 -0.725193,0.174262 -1.442772,0.381131 -2.174715,0.525706 -0.60303,0.106713 -1.208795,0.200174 -1.807352,0.330561 -0.660239,0.158781 -1.298681,0.385382 -1.934673,0.622075 -0.724055,0.267309 -1.440639,0.554165 -2.155966,0.843919 -0.683635,0.267901 -1.380633,0.515455 -2.014404,0.892029 -0.807725,0.481303 -1.592577,0.997987 -2.356422,1.546533 -0.802468,0.560123 -1.60467,1.121207 -2.430915,1.646051 -0.747439,0.474723 -1.51243,0.919 -2.275737,1.367447 -0.854268,0.540468 -1.680643,1.123101 -2.454682,1.774729 -1.08551,0.903459 -2.134407,1.848967 -3.163626,2.815949 -1.095451,1.019943 -2.203676,2.025754 -3.296595,3.048402 -0.839072,0.827166 -1.646488,1.687809 -2.363796,2.624319 -0.693886,0.874292 -1.386354,1.750457 -2.011598,2.676057 -0.59407,0.874918 -1.175202,1.757678 -1.738147,2.653004 -0.507354,0.754703 -1.024772,1.503738 -1.481958,2.290535 -0.470897,0.814285 -0.892719,1.655042 -1.214424,2.540633 -0.360331,0.975753 -0.696564,1.959445 -0.971532,2.963241 -0.310285,1.098307 -0.637148,2.191879 -0.939007,3.292586 -0.34581,1.201573 -0.687568,2.40551 -0.871624,3.64506 -0.204428,1.265142 -0.429862,2.52642 -0.644403,3.789839 -0.20565,1.352335 -0.406387,2.706653 -0.542327,4.068005 -0.14347,1.583722 -0.235288,3.171773 -0.310999,4.760069 -0.04313,1.434307 -0.10833,2.868374 -0.105166,4.303662 -0.01147,1.565773 -0.08973,3.134523 0.0194,4.698296 0.123374,1.485757 0.231293,2.972847 0.275045,4.46347 0.05165,1.595986 0.01378,3.191788 -0.213867,4.775419 -0.182151,1.531537 -0.362482,3.063683 -0.495216,4.600449 -0.113708,1.464311 -0.160124,2.931954 -0.213083,4.399519 -0.0857,1.59591 -0.212462,3.18889 -0.395373,4.77686 -0.195029,1.61562 -0.451244,3.22957 -0.446587,4.86139 0.016,1.81147 0.02759,3.65053 0.449772,5.42064 0.06081,1.32499 0.0085,2.68105 0.36734,3.9681 0,0 2.379472,1.17357 2.379472,1.17357 z" />
    <path
       style="fill:#000000"
       id="path383"
       d="m 35.317285,146.36116 c 0.304151,0.57729 1.321084,1.0017 1.879293,1.33865 2.559046,1.62559 5.186221,3.07055 8.003209,4.16791 1.705885,0.59463 3.443113,1.08493 5.143578,1.69701 1.774068,0.62212 3.447084,1.48577 5.175433,2.21923 1.946101,0.8082 3.938138,1.50106 5.947189,2.13442 2.19712,0.67342 4.435642,1.19496 6.661133,1.76291 2.063759,0.55987 4.125019,1.12447 6.225734,1.52864 2.059587,0.36525 4.142535,0.56456 6.205512,0.9066 1.863243,0.33263 3.724025,0.67988 5.592228,0.9838 1.578022,0.23675 3.149576,0.51505 4.719176,0.80184 1.548311,0.26388 3.112118,0.43117 4.67491,0.58275 1.426809,0.14023 2.857321,0.23648 4.283738,0.3809 1.424072,0.12417 2.846272,0.2753 4.272562,0.37209 1.33776,0.0937 2.67757,0.14645 4.01665,0.21556 1.30113,0.086 2.59851,0.21953 3.89745,0.33299 1.45353,0.11699 2.90485,0.25737 4.36027,0.34924 1.40696,0.0755 2.81598,0.0875 4.22449,0.10548 1.53262,0.005 3.06461,-0.0534 4.59546,-0.12097 1.43366,-0.0491 2.86116,-0.1875 4.28529,-0.35319 1.50952,-0.21723 3.01602,-0.45667 4.51937,-0.71314 1.36896,-0.23166 2.7445,-0.41816 4.11915,-0.6113 1.45762,-0.19908 2.89048,-0.53509 4.33023,-0.83072 1.18397,-0.31636 2.3963,-0.52942 3.571,-0.8848 1.22371,-0.2761 2.44488,-0.56347 3.65522,-0.8936 1.1885,-0.34322 2.35365,-0.76464 3.52049,-1.17489 0.96344,-0.3481 1.90509,-0.75115 2.8514,-1.14227 1.02783,-0.39464 2.06019,-0.77754 3.08635,-1.17642 1.04026,-0.41333 2.10246,-0.76837 3.14498,-1.17529 0.91906,-0.38315 1.74648,-0.93866 2.59071,-1.45815 0.88014,-0.56482 1.84777,-0.96103 2.74651,-1.49242 0.90747,-0.40912 1.62184,-1.08378 2.33807,-1.75538 0.37781,-0.62696 0.9361,-1.08914 1.40961,-1.63087 1.06931,-0.70122 1.38447,-0.42403 0.11491,-1.71467 -0.0193,-0.0802 -0.0386,-0.16037 -0.0579,-0.24056 0,0 -0.25728,-0.16446 -0.25728,-0.16446 v 0 c -0.12044,-0.0116 -0.24088,-0.0232 -0.36131,-0.0349 -1.37865,-0.60564 -1.76193,-0.90652 -2.99967,-0.10027 -0.69369,0.35466 -1.1688,1.01556 -1.87751,1.36456 -0.80187,0.58473 -1.68916,1.00947 -2.57013,1.4632 -1.02218,0.39444 -2.0291,0.8235 -2.95195,1.42334 -0.82166,0.50741 -1.64254,1.02816 -2.54937,1.37331 -1.02569,0.41098 -2.0573,0.80717 -3.08904,1.20265 -1.04925,0.38359 -2.10311,0.7556 -3.14576,1.1561 -0.93394,0.38435 -1.8525,0.80709 -2.80508,1.14505 -1.14298,0.42468 -2.28731,0.85044 -3.47061,1.15197 -1.22771,0.31219 -2.46079,0.60325 -3.70945,0.82029 -1.30851,0.16325 -2.59634,0.455 -3.89706,0.66256 -1.43385,0.31373 -2.87331,0.60371 -4.33204,0.77754 -1.38149,0.18137 -2.76108,0.37658 -4.13257,0.62402 -1.50325,0.24863 -3.00399,0.52739 -4.52199,0.67179 -1.42093,0.15047 -2.84571,0.25581 -4.27349,0.31532 -1.52181,0.0724 -3.04473,0.14013 -4.56869,0.094 -1.41046,-0.0347 -2.82229,-0.0462 -4.23033,-0.14329 -1.45189,-0.098 -2.90139,-0.22518 -4.35033,-0.35957 -1.31302,-0.12118 -2.62479,-0.26471 -3.94194,-0.33408 -1.32203,-0.0533 -2.64381,-0.1121 -3.964754,-0.18823 -1.346145,-0.0725 -2.694962,-0.0763 -4.037221,-0.21861 -1.400338,-0.10932 -2.801968,-0.20204 -4.201084,-0.32612 -1.555856,-0.15835 -3.111615,-0.32837 -4.650403,-0.61375 -1.539715,-0.25253 -3.080041,-0.5002 -4.624487,-0.72236 -1.81135,-0.28794 -3.613326,-0.64221 -5.436089,-0.85155 -2.035935,-0.21419 -4.06742,-0.48558 -6.081774,-0.85243 -2.060655,-0.42954 -4.094653,-0.96594 -6.132975,-1.48965 -2.176726,-0.55106 -4.370481,-1.04311 -6.521005,-1.6909 -1.986362,-0.63846 -3.944991,-1.35711 -5.879887,-2.13813 -1.682152,-0.71959 -3.328942,-1.53031 -5.073161,-2.09551 -1.684743,-0.53813 -3.389306,-1.02097 -5.043626,-1.64873 -1.67607,-0.6896 -7.348758,-3.60084 -0.403299,0.14681 -1.080106,-0.62201 -2.166978,-1.22976 -3.267183,-1.81484 0,0 -2.750867,-1.11658 -2.750867,-1.11658 z" />
    <path
       style="fill:#000000"
       id="path385"
       d="m 37.163522,117.93763 c -0.599232,0.28053 -1.199227,0.54157 -1.720901,0.95404 -0.506419,0.47174 -0.552863,1.09724 -0.57452,1.74776 -0.02323,0.90214 -0.10265,1.80146 -0.141645,2.70277 -0.02336,1.05335 -0.02001,2.1071 -0.02061,3.16065 0.01486,1.10251 0.0052,2.2051 -0.03725,3.30687 -0.05446,1.10425 -0.07819,2.20955 -0.08684,3.315 -2.31e-4,1.05192 -0.0071,2.1037 0.0035,3.15558 0.0014,1.17421 0.08537,2.34602 0.153593,3.51763 0.06504,1.02694 0.0845,2.05569 0.113582,3.08403 -0.01453,1.24183 0.842667,2.1494 1.696671,2.93706 0,0 0.135114,0.0678 0.135114,0.0678 v 0 c 0.231758,0.0134 0.465305,0.0719 0.695275,0.0402 0.136009,-0.0187 0.254068,-0.10884 0.367127,-0.18673 0.421124,-0.29015 0.527639,-0.65599 0.476807,-1.15142 -0.02273,-1.03814 -0.0538,-2.0768 -0.134362,-3.1123 -0.08881,-1.15996 -0.167645,-2.32159 -0.13792,-3.48586 -0.01194,-1.05113 -0.0091,-2.10193 -0.0085,-3.15309 -0.0061,-1.10587 0.0191,-2.21135 0.05352,-3.31665 0.04063,-1.10376 0.09984,-2.20647 0.06026,-3.31158 -0.0037,-1.04359 0.02262,-2.08721 0.03986,-3.13061 0.04379,-0.89302 0.124471,-1.78301 0.191322,-2.67449 0.03812,-0.52482 0.02325,-1.06113 0.448602,-1.43823 0.504777,-0.38763 1.09449,-0.63867 1.695821,-0.83933 0,0 -3.268542,-2.18916 -3.268542,-2.18916 z" />
    <path
       style="fill:#000000"
       id="path387"
       d="m 166.13954,118.39291 c 0.72426,-0.29125 1.60379,-0.68981 2.40661,-0.50271 0.16913,0.0394 0.31738,0.14108 0.47607,0.21162 -1.11328,-0.60851 -2.18919,-1.29104 -3.33984,-1.82554 -0.17631,-0.0819 0.2735,0.28116 0.37375,0.44772 0.12468,0.20717 0.21609,0.43416 0.29464,0.66283 0.32218,0.93795 0.38344,1.94827 0.4785,2.92565 0.15194,2.84816 0.14629,5.70063 0.26,8.5505 0.15562,2.94094 0.40652,5.87574 0.59202,8.81506 0.0965,1.55674 0.1659,3.11491 0.24389,4.67261 0.0365,0.72866 0.0914,2.15878 0.22328,2.88657 0.0862,0.47577 0.24374,0.93579 0.36561,1.40368 1.11084,1.91297 0.67619,0.99135 1.37066,2.73242 0,0 0.13469,0.0687 0.13469,0.0687 v 0 c 0.67648,-1.00337 0.25911,-0.52551 1.29657,-1.39349 0.074,-0.37005 0.19196,-0.73398 0.22215,-1.11016 0.0471,-0.58649 -0.0827,-2.27647 -0.11583,-2.82887 -0.0933,-1.55755 -0.16447,-3.11606 -0.24159,-4.67446 -0.16344,-2.93041 -0.37805,-5.85776 -0.54959,-8.78772 -0.14647,-2.83281 -0.17268,-5.66452 -0.14302,-8.50062 -0.0334,-0.99343 -0.061,-1.97502 -0.27027,-2.95093 -0.0346,-0.16137 -0.26297,-1.15829 -0.47293,-1.3013 -1.33787,-0.91124 -2.78912,-1.64372 -4.18368,-2.46559 -1.12667,-0.19871 -2.11761,0.12118 -3.18267,0.4745 0,0 3.76098,2.48957 3.76098,2.48957 z" />
    <path
       style="fill:#000000"
       id="path409"
       d="m 60.694086,145.77118 c 2.192632,1.63482 4.663236,2.25693 7.208181,3.06275 3.378943,0.98946 6.885162,1.42458 10.355895,1.96112 4.358693,0.57891 8.724578,1.08926 13.066015,1.78984 4.569217,0.913 9.118733,1.88944 13.745563,2.46538 4.70797,0.53375 9.41075,0.0656 14.08131,-0.54516 2.78529,-0.39149 5.55405,-0.88654 8.32143,-1.38632 0.60552,-0.10936 1.2177,-0.18691 1.8164,-0.3289 0.50698,-0.12024 0.99666,-0.3043 1.49499,-0.45644 1.15779,-0.97714 0.68648,-0.42157 1.4422,-1.64229 0,0 -0.12479,-0.0853 -0.12479,-0.0853 v 0 c -2.71561,-0.1779 -1.34978,-0.10812 -4.09757,-0.20813 -3.95932,0.4773 -7.83385,1.49632 -11.78715,2.03425 -4.66078,0.63359 -9.37199,1.01272 -14.06433,0.44325 -2.04186,-0.25122 -2.465585,-0.27776 -4.489623,-0.62862 -3.065201,-0.53133 -6.08949,-1.27589 -9.15945,-1.78263 -4.340262,-0.73192 -8.705229,-1.29731 -13.079141,-1.78821 -3.305819,-0.40105 -6.580915,-0.99933 -9.850212,-1.62911 -1.050767,-0.22134 -2.045438,-0.49184 -3.049508,-0.87629 -0.260414,-0.0997 -0.519153,-0.20428 -0.773732,-0.31806 -0.185388,-0.0829 -0.718111,-0.37822 -0.545339,-0.27152 0.672767,0.41549 1.36462,0.79925 2.046931,1.19887 0,0 -2.55807,-1.00845 -2.55807,-1.00845 z" />
    <path
       style="fill:#000000"
       id="path411"
       d="m 80.991766,75.875393 c -0.928948,0.658026 -1.671431,1.559336 -2.320335,2.485075 -1.036136,1.644921 -1.512173,3.509332 -2.046465,5.35338 -0.697884,2.057832 -0.863426,4.248522 -0.982941,6.404393 -0.06733,1.7887 -0.07652,3.577745 0.109695,5.359063 0.147652,1.204738 0.442702,2.37968 0.876523,3.511471 0.335671,0.844553 0.785799,1.636495 1.308315,2.378245 1.469861,1.59062 3.33057,2.71965 5.407228,2.52595 0.701612,-0.0903 1.325558,-0.44637 1.927081,-0.797 0.920892,-0.55688 1.459536,-1.48497 1.948529,-2.40994 0.592648,-1.199346 1.010428,-2.468966 1.359599,-3.756965 0.404057,-1.501674 0.619484,-3.041017 0.767891,-4.586004 0.169582,-1.558667 0.259925,-3.111599 -0.0056,-4.661276 -0.129058,-1.409244 -0.395519,-2.798727 -0.671872,-4.184871 -0.236241,-1.193992 -0.63192,-2.325955 -1.384689,-3.288542 -1.319939,-1.301231 -3.114911,-2.112195 -4.689513,-2.98474 -0.198065,-0.109755 -0.310156,-0.05687 -0.505,-0.01972 -0.59547,0.0034 -0.228135,0.486553 -0.09844,0.87791 0,0 0.123616,0.08703 0.123616,0.08703 v 0 c 0.787988,0.283759 1.559859,0.605863 2.354645,0.867544 0.184242,0.08891 0.37133,0.172143 0.552726,0.266721 2.2829,1.190279 -3.942691,-2.452856 -1.962164,-1.126477 0.129521,0.08674 0.258432,0.174607 0.38324,0.268003 0.126948,0.095 0.247762,0.197926 0.371643,0.296889 0.834582,0.874631 1.293047,1.949711 1.511584,3.136636 0.287984,1.367144 0.569436,2.741684 0.680609,4.136538 -0.05126,1.500162 0.03128,3.006158 -0.161053,4.500193 -0.161204,1.51729 -0.382731,3.024856 -0.796734,4.497213 -0.337605,1.257833 -0.7383,2.498483 -1.36611,3.646459 -0.473268,0.861496 -1.012629,1.685839 -1.907027,2.158809 -0.582521,0.30366 -1.182813,0.58932 -1.850642,0.62346 -0.297761,0.007 -0.593389,0.0135 -0.880536,-0.0837 -0.09572,-0.0324 -0.362703,-0.17713 -0.276197,-0.12491 3.824939,2.30872 4.266404,2.62844 2.97822,1.7279 -0.738894,-0.63916 -1.234425,-1.45001 -1.6093,-2.34983 -0.472645,-1.107095 -0.802792,-2.260315 -0.980421,-3.453075 -0.280045,-1.778762 -0.362783,-3.57568 -0.289375,-5.37561 0.0874,-2.174005 0.404385,-4.307313 0.747561,-6.453036 0.363007,-1.844219 0.917963,-3.686671 1.870177,-5.31787 0.591869,-0.925842 1.198642,-1.845048 2.20045,-2.374653 0,0 -2.694866,-1.760705 -2.694866,-1.760705 z" />
    <path
       style="fill:#000000"
       id="path419"
       d="m 115.75814,77.654603 c -0.88736,0.35532 -1.38529,0.971565 -1.80888,1.800673 -0.60126,1.206485 -0.80866,2.529739 -1.06774,3.83715 -0.45402,1.570655 -0.42988,3.241597 -0.49859,4.865553 -0.0548,1.592566 -0.12929,3.184768 -0.12601,4.778529 -0.007,1.368622 0.28419,2.705919 0.45663,4.05695 0.11729,1.100598 0.31258,2.185628 0.62725,3.246682 0.24278,0.82717 0.65168,1.55815 1.2779,2.14885 1.71478,1.27491 3.46891,2.83558 5.55332,2.13725 0.84712,-0.34921 1.45764,-1.02674 2.09475,-1.65625 0.85062,-0.84591 1.31085,-1.99524 1.75984,-3.088642 0.42367,-1.080811 0.74781,-2.195793 0.96805,-3.334817 0.20498,-1.337896 0.22924,-2.694549 0.1957,-4.044948 -0.06,-1.325018 -0.14728,-2.652387 -0.37022,-3.960873 -0.25798,-1.076521 -0.56505,-2.142792 -0.9055,-3.196184 -0.35639,-1.073085 -0.9019,-2.06226 -1.52994,-2.99713 -0.85664,-1.217735 -2.04696,-2.115127 -3.27303,-2.929657 -0.96951,-0.532482 -0.57917,-0.292809 -1.19092,-0.685554 0,0 -0.14056,-0.05567 -0.14056,-0.05567 v 0 c 0.22356,0.204753 0.22719,0.141981 -0.1164,0.148437 -0.13721,0.703235 0.60691,1.33845 0.94246,1.876827 0.63479,0.891822 1.18414,1.843112 1.55336,2.877991 0.35244,1.044215 0.64948,2.105578 0.95811,3.163267 0.28297,1.289362 0.38225,2.601751 0.44047,3.91905 0.0318,1.316132 0.01,2.636632 -0.21234,3.938093 -0.20793,1.113456 -0.49855,2.211325 -0.92926,3.26126 -0.43472,1.063117 -0.94131,2.078069 -1.57906,3.03553 -0.5031,0.65826 -1.13389,1.22488 -1.93402,1.48943 -0.33495,0.0751 -0.63701,0.12498 -0.98032,0.056 -0.11541,-0.0232 -0.43874,-0.16151 -0.33899,-0.099 2.25736,1.41471 4.18148,2.3546 2.68769,1.61673 -0.69357,-0.48916 -1.13256,-1.16471 -1.41564,-1.96401 -0.35836,-1.03881 -0.57656,-2.110426 -0.69738,-3.203019 -0.16833,-1.267495 -0.15178,-2.53251 -0.0893,-3.809422 0.0337,-1.588653 0.0402,-3.178275 0.1146,-4.765742 0.0895,-1.64896 0.2418,-3.297503 0.23303,-4.949313 0.17629,-1.278619 0.42866,-2.580387 0.90925,-3.779908 0.3645,-0.661975 0.79245,-1.3362 1.36047,-1.840355 0,0 -2.92877,-1.893767 -2.92877,-1.893767 z" />
    <path
       style="fill:#000000"
       id="path533"
       d="m 88.407828,127.76472 c -0.594699,0.80071 -0.903406,1.67841 -0.942104,2.66792 0.05458,1.265 0.595792,2.3656 1.347389,3.35535 1.603748,1.62246 3.710829,2.50256 5.718408,3.60501 0.627385,0.34452 1.374688,0.42232 2.070335,0.46659 1.400397,-0.0317 2.440163,-0.82427 3.3482,-1.81178 0.590974,-0.69079 1.052034,-1.47621 1.522774,-2.25001 0.1044,-0.30609 0.0911,0.0448 0.0684,0.0334 -1.44024,-0.72365 -2.833447,-1.53778 -4.264753,-2.27895 -0.05244,-0.0272 0.08682,0.0819 0.118345,0.13182 0.131732,0.20864 0.221669,0.4409 0.331822,0.66169 1.449188,2.77758 4.105886,3.5063 6.878016,5.02657 1.61253,0.45679 3.06298,-0.12987 4.41037,-0.99114 1.28721,-0.83625 1.93369,-2.09943 2.12905,-3.58548 -0.009,-0.57552 -0.0345,-1.70172 -0.37667,-2.19325 -0.41529,-0.59659 -1.15867,-1.01258 -1.71907,-1.40595 -0.22455,-0.16571 -0.4491,-0.33142 -0.67365,-0.49713 0,0 -0.23161,-0.10742 -0.23161,-0.10742 v 0 c -0.16741,-0.0182 -0.33481,-0.0364 -0.50221,-0.0547 -0.40888,-0.0765 -1.10214,-0.39041 -1.24795,-8.2e-4 -0.0712,0.19017 0.641,1.73454 0.41976,1.99837 -0.0876,1.40989 -0.64448,2.40719 -1.73919,3.30935 -1.28169,0.80208 -2.64961,1.20684 -4.12374,0.64407 1.09723,0.663 2.19849,1.31938 3.2917,1.989 0.20667,0.12659 -0.43183,-0.22287 -0.63182,-0.35976 -0.65287,-0.44686 -1.14468,-1.0687 -1.48721,-1.77527 -0.10802,-0.23319 -0.18768,-0.37613 -0.25528,-0.61648 -0.0203,-0.0721 0.021,-0.18184 -0.0431,-0.22043 -1.30081,-0.78221 -3.777187,-3.97618 -4.596489,-2.12561 -0.322658,0.80084 -0.723535,1.56787 -1.303468,2.21666 -0.857559,0.88172 -1.817709,1.53581 -3.104997,1.45122 -0.617786,-0.0984 -0.689569,-0.0778 -1.286854,-0.30628 -0.225229,-0.0861 -0.864781,-0.42351 -0.660067,-0.29607 6.292692,3.9175 3.562152,2.22491 2.313837,1.20317 -0.782054,-0.87111 -1.364609,-1.86074 -1.485085,-3.04925 -0.0089,-0.88109 0.174443,-1.71227 0.755501,-2.4033 0,0 -4.04859,-2.43119 -4.04859,-2.43119 z" />
    <path
       style="fill:#000000"
       id="path539"
       d="m 96.941984,120.99842 c 0.793373,-0.10404 1.597656,-0.13275 2.397476,-0.12172 0.79345,0.0381 1.58152,0.13773 2.37306,0.20247 0.58727,0.0698 1.17123,0.0613 1.74893,-0.064 0.48571,-0.13062 0.96332,-0.28944 1.44146,-0.44502 0.50054,-0.16908 0.67717,-0.54596 0.72484,-1.04332 -0.01,-0.57111 -0.30143,-1.06094 -0.63164,-1.50699 -1.31251,-1.44221 -4.8552,-3.04303 -5.557519,-3.44915 -0.434277,-0.22218 -0.907392,-0.3033 -1.38638,-0.35589 -0.409123,-0.0607 -0.822987,-0.0789 -1.23172,-0.14042 -0.404098,-0.0363 -0.80992,-2.4e-4 -1.215546,-0.005 -0.458278,0.002 -0.906272,0.0894 -1.340773,0.22947 -0.556624,0.23218 -1.036925,0.61228 -1.497415,0.99494 -0.499211,0.40644 -0.912661,0.8837 -1.244499,1.43324 -0.222495,0.8216 0.288971,1.06313 0.901752,1.63154 0.26276,0.24374 0.535659,0.47631 0.803489,0.71446 0,0 0.210329,0.11071 0.210329,0.11071 v 0 c 0.290772,0.0663 0.5821,0.13019 0.872318,0.19887 0.747731,0.17695 1.07109,0.44995 1.588305,-0.0935 0.347148,-0.47631 0.740826,-0.91158 1.199856,-1.28398 0.417132,-0.34235 0.86385,-0.6659 1.395668,-0.79931 0.417115,-0.0875 0.840331,-0.13041 1.267143,-0.11494 0.398612,-0.002 0.797172,-0.0102 1.191582,0.0604 0.40119,0.0343 0.80239,0.0747 1.19931,0.14387 0.45143,0.0978 0.88397,0.25205 1.27555,0.50254 -7.633186,-4.41945 -4.721863,-2.85139 -3.14712,-1.77102 0.3326,0.3255 0.61673,0.7013 0.76165,1.14955 0.0299,0.33023 -0.0881,0.40254 -0.40667,0.49662 -0.45741,0.15331 -0.920954,0.30116 -1.397821,0.37911 -0.523001,0.059 -1.047416,0.0386 -1.572717,0.0578 -0.716307,-0.004 -1.432616,-0.0227 -2.149063,-0.008 -0.810286,0.0209 -1.625586,0.059 -2.417155,0.24776 0,0 3.84332,2.64845 3.84332,2.64845 z" />
    <path
       style="fill:#000000"
       id="path545"
       d="m 47.654087,129.87037 c 0.873223,0.63708 1.678165,1.35849 2.546832,2.00297 3.032086,2.04435 6.253005,3.77856 9.599165,5.2343 1.699959,0.72183 3.479162,1.22925 5.270752,1.66442 1.600769,0.36997 3.241186,0.49827 4.865896,0.71605 1.394862,0.18954 2.75013,0.5571 4.070305,1.03727 1.383348,0.54722 2.813483,0.96447 4.227696,1.42308 1.483848,0.50715 2.96901,1.00267 4.487612,1.39585 1.683143,0.38508 3.360095,0.79535 5.048553,1.15673 1.60004,0.28385 3.177873,0.67423 4.769504,0.99806 1.674951,0.24891 3.353923,0.45916 5.024421,0.73984 1.646947,0.27206 3.277827,0.62492 4.902637,1.00504 1.77469,0.41027 3.58693,0.61692 5.39693,0.79595 2.03335,0.17238 4.07506,0.21754 6.11413,0.27645 2.18821,0.0898 4.37771,0.0459 6.56394,-0.0646 2.16156,-0.16863 4.31187,-0.48078 6.44647,-0.85721 1.98243,-0.40335 3.93229,-0.95046 5.8728,-1.51841 1.78755,-0.50431 3.53372,-1.1393 5.28581,-1.75203 1.69409,-0.56338 3.38925,-1.12333 5.07913,-1.69929 1.39872,-0.42146 2.71522,-1.03761 4.00673,-1.71086 1.27623,-0.65735 2.45656,-1.46427 3.57045,-2.36571 1.14978,-0.96078 1.83361,-2.25216 2.3991,-3.61059 0.62954,-1.61209 0.70802,-3.34914 0.79714,-5.05696 0.0993,-2.05878 0.0127,-4.11843 -0.0726,-6.17576 -0.10205,-2.24566 -0.38462,-4.4765 -0.66642,-6.705 -0.28182,-2.34837 -0.37657,-4.70551 -0.32828,-7.06833 0.10959,-2.35757 0.28173,-4.70804 0.3264,-7.06879 0.0538,-2.24159 0.007,-4.483556 -0.0602,-6.724191 -0.0599,-2.247088 -0.11529,-4.493639 -0.0879,-6.741545 0.0724,-2.177873 0.14025,-4.354586 0.0894,-6.533564 -0.0431,-1.744778 -0.26096,-3.475569 -0.61933,-5.181822 -0.32478,-1.484207 -0.71652,-2.951541 -1.14899,-4.407555 -0.34731,-1.221018 -0.77483,-2.412869 -1.32314,-3.557588 -0.50838,-1.038113 -1.00289,-2.081919 -1.53136,-3.110142 -0.52772,-1.052076 -1.10094,-2.078771 -1.70504,-3.088544 -0.70743,-1.264076 -1.62232,-2.379584 -2.55041,-3.484071 -1.15706,-1.374136 -2.30193,-2.758371 -3.45918,-4.132352 -1.02113,-1.256518 -2.11377,-2.447166 -3.30555,-3.542663 -1.15257,-1.074945 -2.45473,-1.955832 -3.7792,-2.80047 -1.40475,-0.902349 -2.80335,-1.812339 -4.24205,-2.659968 -2.61962,-1.295142 -5.05711,-3.19832 -7.82066,-4.29918 -0.83403,-0.332234 -1.70013,-0.574383 -2.55817,-0.834562 -1.73326,-0.550034 -3.52556,-0.859579 -5.31205,-1.175395 -1.76412,-0.32369 -3.5377,-0.593968 -5.29809,-0.93746 -1.69485,-0.384362 -3.38702,-0.776573 -5.09433,-1.102294 -1.7732,-0.315525 -3.571872,-0.430689 -5.369901,-0.46601 -1.816817,0.0028 -3.631286,0.124727 -5.445852,0.206015 -1.784695,0.05895 -3.569945,0.09567 -5.353908,0.175524 -1.585782,0.08092 -3.150523,0.342912 -4.69483,0.700845 -1.643079,0.39313 -3.165713,1.118494 -4.642794,1.919395 -1.33505,0.802249 -2.685819,1.562969 -4.09552,2.2262 -1.419711,0.643977 -2.802762,1.360123 -4.131122,2.175928 -1.170801,0.745027 -2.232864,1.639686 -3.299254,2.523118 -1.077794,0.90605 -2.219425,1.730505 -3.34762,2.571665 -1.32339,0.930282 -2.476399,2.048841 -3.523063,3.275439 -1.029621,1.254904 -1.93692,2.59989 -2.788276,3.979823 -0.960561,1.594117 -1.685868,3.314557 -2.349885,5.048758 -0.712906,1.992458 -1.288064,4.030325 -1.817368,6.07802 -0.550474,2.109543 -0.964964,4.247532 -1.302274,6.400123 -0.280302,2.186144 -0.612527,4.36168 -1.047948,6.52234 -0.484733,2.160437 -0.924284,4.329323 -1.314046,6.508917 -0.401235,2.248103 -0.614993,4.52338 -0.837573,6.794403 -0.20439,2.319801 -0.420557,4.639018 -0.684266,6.952883 -0.237174,2.14647 -0.43079,4.2969 -0.602176,6.44948 -0.136704,1.78497 -0.254876,3.5713 -0.379096,5.35725 -0.116546,1.67492 -0.301467,3.34393 -0.404851,5.01973 -0.07391,1.51442 -0.07852,3.03227 -0.02962,4.54754 0.07313,1.49845 -0.0017,2.98004 0.402102,4.43576 0.478273,1.27472 1.418142,2.25832 2.249476,3.30494 0,0 0.13363,0.0707 0.13363,0.0707 v 0 c 0.978823,-0.0761 1.993394,0.0237 2.739819,-0.73607 0.08727,-0.17477 0.207032,-0.3368 0.261812,-0.5243 0.317283,-1.08603 -0.02839,-2.48403 0.04367,-3.60234 -0.04209,-1.50319 -0.07727,-3.00691 -0.0197,-4.51039 0.08105,-1.6756 0.235301,-3.34513 0.387495,-5.01553 0.137676,-1.79375 0.214282,-3.59095 0.323372,-5.38652 0.14141,-2.15273 0.330039,-4.30165 0.563467,-6.44644 0.223393,-2.32438 0.441954,-4.64883 0.649444,-6.974707 0.229398,-2.253926 0.446493,-4.511706 0.820898,-6.747305 0.390452,-2.174872 0.85414,-4.334572 1.308791,-6.496706 0.432755,-2.164073 0.804946,-4.337819 1.107166,-6.524196 0.319879,-2.136468 0.66339,-4.273292 1.231022,-6.360795 0.547108,-2.017033 1.123203,-4.028835 1.827136,-5.997605 0.636285,-1.702269 1.351076,-3.376796 2.332945,-4.913556 0.844041,-1.342028 1.727872,-2.666607 2.731904,-3.895032 1.036422,-1.175962 2.18375,-2.24018 3.475448,-3.13463 1.152531,-0.832776 2.311936,-1.659885 3.389118,-2.590219 1.042763,-0.861739 2.08234,-1.736761 3.232576,-2.454282 1.318773,-0.796749 2.684301,-1.504731 4.099303,-2.1169 1.414006,-0.681582 2.78371,-1.438829 4.134135,-2.238889 1.441069,-0.767821 2.932937,-1.444922 4.545313,-1.764613 1.532098,-0.309633 3.078824,-0.542158 4.642989,-0.604891 1.762658,-0.09166 3.526926,-0.142167 5.290383,-0.215676 1.815352,-0.06904 3.631009,-0.165742 5.448209,-0.151699 1.7781,0.05128 3.5538,0.192951 5.29987,0.549754 1.69444,0.3341 3.3737,0.736743 5.06662,1.078 1.77229,0.326622 3.55114,0.616583 5.32287,0.946572 1.76105,0.313818 3.51963,0.659821 5.22457,1.211549 0.86196,0.275911 1.71482,0.55871 2.54457,0.923011 2.08741,0.916476 5.6206,3.174948 -3.33257,-2.065919 1.45087,0.829727 2.86385,1.720339 4.26023,2.638735 1.3037,0.827149 2.62153,1.641016 3.77063,2.682162 1.22653,1.069951 2.3741,2.220662 3.40203,3.485541 1.16077,1.364498 2.29851,2.747942 3.44617,4.123427 0.90746,1.085399 1.84095,2.160214 2.56585,3.380989 0.60747,0.998979 1.22351,1.994282 1.72715,3.05137 0.53434,1.0294 1.06701,2.059436 1.56207,3.108583 0.5622,1.123998 1.05384,2.270636 1.39634,3.483661 0.47547,1.440726 0.89818,2.896474 1.22156,4.379803 0.38638,1.684768 0.68541,3.383578 0.74273,5.116273 0.11358,2.179772 0.0998,4.357737 -0.006,6.538309 -0.0437,2.260159 0.0263,4.518523 0.10092,6.777504 0.0498,2.247372 0.1514,4.493437 0.15237,6.741655 -0.0328,2.379352 -0.0935,4.758572 -0.19213,7.136112 -0.0391,2.37912 0.006,4.76426 0.2774,7.13052 0.22174,2.21696 0.58372,4.42197 0.65382,6.65248 0.0943,2.03059 0.1301,4.0649 0.0515,6.09686 -0.0995,1.63057 -0.23346,3.28024 -0.79065,4.82965 -0.51269,1.27734 -1.16712,2.45883 -2.26583,3.3306 -1.07657,0.88357 -2.24716,1.63529 -3.49152,2.2633 -1.26582,0.64503 -2.56869,1.20675 -3.91289,1.66981 -1.67384,0.5997 -3.36203,1.15707 -5.0491,1.71824 -1.73753,0.59949 -3.46629,1.22595 -5.22732,1.75471 -1.92934,0.56096 -3.87002,1.08832 -5.84631,1.45959 -2.08896,0.38848 -4.19105,0.7525 -6.3169,0.85331 -2.14987,0.10312 -4.302,0.12726 -6.45409,0.0878 -2.04574,-0.0555 -4.0938,-0.12772 -6.12992,-0.34416 -1.79791,-0.20009 -3.598235,-0.4129 -5.355818,-0.85744 -1.634006,-0.38154 -3.276769,-0.72435 -4.935986,-0.97877 -1.669676,-0.25912 -3.351329,-0.44159 -5.010686,-0.7625 -1.577441,-0.33411 -3.150893,-0.68676 -4.737333,-0.97698 -1.667815,-0.35113 -3.332394,-0.72187 -4.983121,-1.14669 -1.467999,-0.41146 -2.917509,-0.8834 -4.372828,-1.33713 -1.367828,-0.4144 -2.7212,-0.86909 -4.077828,-1.31727 -1.321967,-0.38778 -2.658659,-0.72629 -4.032379,-0.87327 -1.60462,-0.1769 -3.216082,-0.3422 -4.785623,-0.73652 -1.752025,-0.44033 -3.490879,-0.94483 -5.145081,-1.68157 -0.919538,-0.40684 -1.828091,-0.82605 -2.716992,-1.29721 -0.286277,-0.15174 -1.131258,-0.63214 -0.852267,-0.46739 7.643858,4.51391 4.197053,2.44758 2.966905,1.70831 -1.04562,-0.67413 -2.012099,-1.44054 -2.991889,-2.20332 0,0 -4.432811,-1.71669 -4.432811,-1.71669 z" />
    <path
       style="fill:#000000"
       id="path547"
       d="m 67.613492,159.92349 c -0.840474,1.20961 -1.449212,2.54911 -2.014408,3.90279 -0.853466,2.34225 -1.809657,4.64614 -2.671058,6.98609 -0.693582,1.78769 -1.008125,3.67449 -1.368619,5.54688 -0.243371,1.35332 -0.589621,2.68418 -0.922973,4.01716 -0.383104,1.37591 -0.626378,2.78144 -0.860036,4.18845 -0.194175,1.19221 -0.444755,2.37458 -0.717989,3.55093 -0.200143,0.82505 -0.421162,1.6448 -0.636102,2.46608 -0.279675,1.2065 -0.501156,2.42581 -0.750108,3.63905 -0.282788,1.32206 -0.512866,2.65516 -0.713146,3.99202 -0.178247,1.20114 -0.262611,2.41341 -0.302802,3.62621 -0.04405,1.22482 -0.12852,2.44744 -0.16778,3.67247 -0.05283,0.95129 -0.103645,1.89975 0.07346,2.84011 0.643383,1.9334 3.113198,3.82295 5.131134,3.16829 0.814507,-0.2961 1.456235,-0.8538 2.028851,-1.48586 0.578483,-0.5966 0.847128,-1.35909 1.187822,-2.09162 0.08752,-0.18818 0.561291,-1.02491 0.654986,-1.19204 0.758082,-1.29717 1.500289,-2.60311 2.226517,-3.91844 0.719867,-1.23776 1.284611,-2.55195 1.82963,-3.87302 0.520731,-1.38478 0.933762,-2.80763 1.355945,-4.22481 0.440621,-1.46566 0.915264,-2.92102 1.387016,-4.37692 0.479163,-1.44661 1.002475,-2.87817 1.513393,-4.31378 0.404277,-1.14853 0.796582,-2.30099 1.121864,-3.47462 -0.01608,-0.3596 0.445156,-1.09427 0.364458,-1.43441 -0.134447,-0.56668 -0.903008,-1.26839 -1.284702,-1.70224 0,0 -0.133944,-0.0701 -0.133944,-0.0701 v 0 c -0.432245,-0.003 -1.289106,-0.19515 -1.655409,0.10236 -0.204498,0.16609 -0.241346,1.18045 -0.389303,1.42156 -0.305758,1.17521 -0.6642,2.33418 -1.055062,3.48399 -0.480094,1.45055 -0.996688,2.88867 -1.478244,4.33876 -0.481638,1.45551 -0.95375,2.91401 -1.400278,4.38076 -0.414823,1.40795 -0.808504,2.82442 -1.350802,4.19054 -0.516836,1.31762 -1.082938,2.61853 -1.784663,3.84987 -0.727926,1.30907 -1.436757,2.63089 -2.254804,3.8871 -0.67786,1.04199 -1.472482,1.9789 -2.298542,2.9073 -0.585601,0.53108 -1.242914,1.05682 -2.064478,1.10325 -0.106003,-0.0185 -0.215242,-0.0237 -0.31801,-0.0556 -0.09564,-0.0297 -0.357705,-0.17943 -0.271976,-0.12766 7.045941,4.25493 3.764797,2.85637 3.050192,1.48026 -0.272144,-0.89446 -0.229131,-1.82776 -0.17904,-2.75271 0.0533,-1.21421 0.07107,-2.43087 0.202261,-3.6405 0.118968,-1.19085 0.200407,-2.38514 0.327162,-3.57519 0.176029,-1.33413 0.384049,-2.66358 0.674886,-3.97819 0.25371,-1.19465 0.522142,-2.386 0.844557,-3.56432 0.209545,-0.83302 0.452396,-1.6587 0.610032,-2.5039 0.225434,-1.20492 0.416899,-2.41529 0.616091,-3.62475 0.242768,-1.3874 0.513973,-2.77073 0.892097,-4.12864 0.355221,-1.34731 0.638817,-2.7092 0.865237,-4.08436 0.324455,-1.86599 0.631096,-3.7429 1.225041,-5.54703 0.77661,-2.36018 1.677788,-4.67026 2.694,-6.93738 0.575281,-1.29392 1.17116,-2.60982 2.10999,-3.6878 0,0 -3.942348,-2.37642 -3.942348,-2.37642 z" />
    <path
       style="fill:#000000"
       id="path549"
       d="m 73.663893,181.41377 c -0.0063,0.11816 0.01036,0.23984 -0.01898,0.35447 -0.10527,0.41123 -0.277218,0.46627 -0.426612,0.87754 -0.223683,0.61577 -0.240541,1.35028 -0.325906,1.9933 -0.397752,1.35532 -0.801607,2.70497 -1.143743,4.07588 -0.412869,1.64985 -0.533097,3.34379 -0.660929,5.03344 -0.08899,1.39305 -0.228157,2.78191 -0.354614,4.17182 -0.08175,0.87239 -0.09596,1.74862 -0.120648,2.62384 -0.0077,0.75042 -0.07193,1.49695 -0.183547,2.23854 -0.140248,0.78431 -0.296033,1.56534 -0.414066,2.35351 -0.09751,0.79255 -0.180838,1.58679 -0.269345,2.38039 -0.06229,0.62809 -0.148434,1.25247 -0.251932,1.87493 -0.08149,0.47049 -0.157822,0.94235 -0.166361,1.42042 0.277397,2.02911 2.881125,2.79499 4.70527,3.33881 0.964646,0.18414 1.953259,0.16195 2.930976,0.16137 1.046029,-0.0476 2.088961,-0.084 3.135855,-0.0513 1.088194,0.0556 2.174746,0.0891 3.263396,0.0367 1.283707,-0.0901 2.563518,-0.22657 3.845931,-0.33226 1.145426,-0.0708 2.285703,-0.2092 3.431178,-0.27522 1.289777,0.0191 2.571361,0.20368 3.852387,0.34263 1.35172,0.16647 2.714886,0.16216 4.07413,0.18888 1.611537,8.7e-4 3.223057,-0.0432 4.834377,-0.0722 1.76444,-0.0155 3.52826,0.0535 5.29179,0.1019 1.73007,0.0462 3.45838,0.14478 5.18868,0.18061 1.47692,0.0326 2.94835,-0.10966 4.41976,-0.21145 1.57333,-0.0988 3.15014,-0.0631 4.72539,-0.0808 1.47093,-0.004 2.93789,-0.0633 4.39873,-0.23606 1.41019,-0.24237 2.80837,-0.53655 4.22681,-0.73016 1.25675,-0.16248 2.51541,-0.31227 3.78152,-0.37391 1.05762,0.0182 2.10762,-0.0277 3.15625,-0.16531 0.94456,-0.10726 1.86748,-0.32413 2.76857,-0.62224 0.78271,-0.21338 1.43222,-0.45588 1.89738,-1.14387 0.42098,-1.0758 0.15874,-2.28234 0.0166,-3.39354 -0.22172,-1.71855 -0.34617,-3.44729 -0.46143,-5.17558 -0.0663,-1.80677 -0.16082,-3.6037 -0.4122,-5.39486 -0.32288,-2.05944 -0.49804,-4.13751 -0.73087,-6.20802 -0.19764,-1.61435 -0.36894,-3.2315 -0.52607,-4.85023 -0.0907,-1.17913 -0.20805,-2.35285 -0.45429,-3.51031 -0.23388,-0.88888 -0.41559,-1.78558 -0.54774,-2.6946 -0.0344,-0.11828 -0.0308,-0.25524 -0.10334,-0.35484 -0.6218,-0.85429 -1.73293,-1.2103 -2.59243,-1.77869 0,0 -0.13906,-0.0593 -0.13906,-0.0593 v 0 c -0.54301,-0.0223 -1.62768,-0.77097 -1.98325,-0.45857 -0.0751,0.066 0.0103,0.19962 0.0155,0.29944 0.16037,0.92187 0.31121,1.84491 0.5751,2.74483 0.27189,1.14906 0.4405,2.31107 0.54387,3.48771 0.19411,1.6355 0.37937,3.27233 0.61532,4.90248 0.27187,2.0643 0.4904,4.13448 0.71449,6.2044 0.21421,1.79324 0.44704,3.58672 0.4886,5.39473 0.10096,1.72826 0.24641,3.45379 0.41014,5.17718 0.0913,0.98353 0.30148,2.04054 0.007,3.0036 -0.34167,0.5758 -1.03553,0.67892 -1.62811,0.89077 -0.85239,0.27562 -1.71351,0.52199 -2.60881,0.61226 -1.0301,0.11858 -2.0624,0.12647 -3.09727,0.17235 -1.25841,0.1057 -2.51104,0.26975 -3.76274,0.43552 -1.4067,0.2189 -2.79573,0.53822 -4.20815,0.72087 -1.44258,0.14214 -2.89066,0.21005 -4.34034,0.21802 -1.59102,0.0118 -3.18439,-0.026 -4.77298,0.0826 -1.4434,0.0988 -2.8861,0.24661 -4.3349,0.21918 -1.70907,-0.0319 -3.41724,-0.0911 -5.12595,-0.13666 -1.74888,-0.0313 -3.498,-0.0835 -5.247293,-0.0473 -1.619798,0.0194 -3.239919,0.0602 -4.859783,0.033 -1.352156,-0.028 -2.706526,-0.0565 -4.050245,-0.22477 -1.310654,-0.148 -2.626589,-0.34821 -3.948419,-0.30739 -1.141458,0.0865 -2.280273,0.20415 -3.421258,0.2967 -1.275367,0.12755 -2.55131,0.26224 -3.832659,0.31212 -1.057309,0.0354 -2.113752,0.0367 -3.171066,-0.004 -1.026599,-0.002 -2.049207,0.0594 -3.074215,0.10987 -0.94365,0.0129 -1.920241,0.019 -2.820627,-0.29931 -1.507999,-0.77423 -0.16302,-0.0901 3.381713,2.02998 0.06161,0.0369 -0.13008,-0.0617 -0.190488,-0.10049 -0.153501,-0.0986 -0.237979,-0.22765 -0.281448,-0.40333 -0.05002,-0.45482 0.03183,-0.90662 0.101239,-1.35575 0.09472,-0.63509 0.180811,-1.27166 0.233703,-1.91182 0.07298,-0.79175 0.144187,-1.58375 0.245724,-2.3725 0.107999,-0.78808 0.250364,-1.57078 0.406334,-2.35072 0.124595,-0.7565 0.225348,-1.51866 0.219914,-2.28709 0.0093,-0.87834 0.03045,-1.75661 0.05519,-2.63464 0.05964,-1.41375 0.154454,-2.82591 0.222082,-4.2393 0.107111,-1.72516 0.25073,-3.44749 0.320301,-5.17452 0.09781,-1.5357 0.292987,-3.0663 0.168763,-4.60817 0.04431,-0.71012 0.137404,-1.45509 0.01833,-2.1637 -0.06679,-0.3975 -0.261185,-0.84142 -0.300669,-1.25122 -0.01107,-0.11492 0.0211,-0.22994 0.03165,-0.34492 0,0 -1.355447,-0.70599 -1.355447,-0.70599 z" />
    <path
       style="fill:#000000"
       id="path551"
       d="m 135.10961,178.38819 c 0.0163,0.0945 0.0175,0.19298 0.049,0.28356 0.0379,0.10883 0.5121,1.11193 0.52064,1.13021 0.40328,0.86331 0.81708,1.71831 1.24688,2.5688 0.9462,1.87557 1.73427,3.82592 2.48349,5.78689 0.47787,1.37549 1.00401,2.7241 1.74821,3.97804 0.59212,0.88169 1.18431,1.76346 1.7767,2.6451 0.56497,0.88748 1.17635,1.73438 1.89962,2.49897 0.77291,0.72786 1.55365,1.44841 2.34331,2.15827 1.60909,1.37117 3.53925,2.235 5.38786,3.28346 0.38905,0.22065 0.74689,0.22699 1.17209,0.16902 1.0356,-0.43338 1.48297,-1.49521 1.85486,-2.48155 0.58587,-1.60141 0.54818,-3.29853 0.43637,-4.97242 -0.29021,-2.57093 -0.96211,-5.08475 -1.62967,-7.57915 -0.75282,-2.7559 -1.72108,-5.44751 -2.75719,-8.10787 -0.89462,-2.29649 -1.94841,-4.52688 -3.11774,-6.6952 -0.86816,-1.52559 -1.86156,-2.9749 -2.82416,-4.44146 -0.84408,-1.19433 -1.54831,-2.46671 -2.15128,-3.7965 -0.60552,-1.56671 -1.8829,-2.13821 -3.21554,-3.02264 0,0 -0.13916,-0.0591 -0.13916,-0.0591 v 0 c -0.40288,0.0183 -1.36562,-0.35266 -1.53047,0.003 -0.0621,0.13392 0.045,0.29245 0.0836,0.43494 0.0488,0.18013 0.11872,0.35385 0.17808,0.53078 0.61224,1.35528 1.29408,2.67445 2.16138,3.88783 0.9812,1.49019 2.01383,2.94625 2.95729,4.46088 1.24101,2.15206 2.31768,4.3936 3.26247,6.69132 1.06922,2.64396 2.04585,5.32662 2.81725,8.07426 0.64953,2.45194 1.27322,4.92155 1.56343,7.44648 0.12461,1.59121 0.13342,3.20864 -0.42298,4.72973 -0.32015,0.7651 -0.66916,1.79408 -1.60221,1.93844 -0.53868,-0.0896 -1.20156,-0.48693 -0.99244,-0.36386 7.05374,4.15128 4.53059,2.77542 3.11925,1.74472 -0.80802,-0.69142 -1.56012,-1.4449 -2.37238,-2.13202 -0.74641,-0.72107 -1.36576,-1.52956 -1.91583,-2.40982 -0.63457,-0.90456 -1.29812,-1.78815 -1.93229,-2.69305 -0.83701,-1.2438 -1.47413,-2.59011 -1.99814,-3.99466 -0.82313,-2.0044 -1.6463,-4.01261 -2.67792,-5.92153 -0.2981,-0.582 -0.61317,-1.18374 -0.89116,-1.77661 -0.29148,-0.62164 -0.50552,-1.31105 -0.85252,-1.90558 -0.0828,-0.14189 -0.19199,-0.26667 -0.28798,-0.40001 0,0 -3.75077,-1.69132 -3.75077,-1.69132 z" />
    <path
       style="fill:#000000"
       id="path553"
       d="m 147.56304,196.34956 c 1.57819,-0.3523 2.91552,-1.31441 4.16017,-2.30065 0.60843,-0.61897 2.80847,-2.16006 2.7974,-3.08291 -0.003,-0.24212 -0.14881,-0.46084 -0.22321,-0.69127 -0.29024,-0.30431 -0.58047,-0.60863 -0.87071,-0.91294 0,0 -0.15684,-0.092 -0.15684,-0.092 v 0 c -0.41394,-0.11962 -0.82789,-0.23925 -1.24183,-0.35888 -0.27899,0.0131 -0.56622,-0.0293 -0.83697,0.0392 -0.99681,0.25236 -2.22271,2.20658 -3.18317,2.75339 -1.26682,0.93154 -2.59817,1.76408 -4.18583,1.99512 0,0 3.74099,2.65088 3.74099,2.65088 z" />
    <path
       style="fill:#000000"
       id="path557"
       d="m 61.038002,198.88862 c 1.225469,0.39976 2.469907,0.70557 3.735982,0.94424 0.745156,0.10602 1.478795,0.25954 2.208555,0.44052 0.177497,0.044 0.350079,0.12026 0.5326,0.13163 0.07658,0.005 0.250917,-0.018 0.213868,-0.0851 -0.17602,-0.31922 -0.477613,-0.55085 -0.716419,-0.82628 -0.01057,-0.10138 -0.02114,-0.20276 -0.03172,-0.30414 0,0 -0.123822,-0.0867 -0.123822,-0.0867 v 0 c -0.211505,-0.0664 -0.423009,-0.13277 -0.634513,-0.19916 -0.914675,-0.55421 -1.456429,-0.95703 -2.380859,-1.32815 -0.917266,-0.36824 -1.917162,-0.42964 -2.876001,-0.62569 -1.284232,-0.27045 -2.530719,-0.67355 -3.80981,-0.95838 0,0 3.882137,2.89729 3.882137,2.89729 z" />
    <path
       style="fill:#000000"
       id="path559"
       d="m 70.813065,212.07427 c -0.0496,0.11327 -0.120272,0.21948 -0.148795,0.3398 -0.18966,0.8 -0.09873,1.74286 -0.09933,2.55081 -0.0016,2.20934 0.01955,0.49884 -0.02314,2.81218 -0.03392,3.59309 -0.114729,7.18254 -0.295547,10.77136 -0.193942,3.80308 -0.252668,7.60984 -0.29276,11.41693 -0.05187,3.46888 0.08571,6.93265 0.353213,10.39012 0.206923,2.59845 0.35519,5.20087 0.545048,7.80049 0.110988,1.91544 0.237624,3.82853 0.495327,5.73037 0.193768,1.71947 0.847271,3.27257 1.783497,4.70914 0.454832,0.61427 0.987294,1.17517 1.656344,1.55999 2.858637,1.64423 3.87822,2.84621 6.534565,3.05877 1.840397,-0.0319 3.289985,-0.80163 4.67089,-1.95409 1.836587,-1.74545 2.652004,-4.16425 3.481374,-6.48986 1.034437,-2.71284 1.577671,-5.56599 2.147421,-8.40176 0.479772,-2.63857 0.955917,-5.2774 1.465695,-7.91044 0.482025,-2.3673 1.009539,-4.72509 1.534658,-7.08314 0.474363,-2.50389 0.912382,-5.01269 1.448004,-7.50492 0.463428,-2.4084 0.944639,-4.81389 1.506438,-7.20147 0.332402,-1.21697 0.544057,-2.46013 0.81653,-3.69015 0.01101,-0.12404 0.07895,-0.25637 0.03304,-0.37213 -0.266593,-0.67216 -1.392138,-1.24914 -1.776149,-1.54426 -0.167378,-0.12863 -0.314644,-0.2815 -0.471965,-0.42225 0,0 -0.135667,-0.0667 -0.135667,-0.0667 v 0 c -0.139405,-0.0157 -0.284463,-0.005 -0.418214,-0.0472 -0.08566,-0.0271 -1.458444,-0.77376 -1.969888,-0.5024 -0.106065,0.0563 -0.09676,0.21978 -0.145137,0.32968 -0.283307,1.25856 -0.387122,2.5407 -0.609584,3.81015 -0.441324,2.42838 -0.821178,4.86899 -1.368874,7.27676 -0.489281,2.50004 -0.960427,5.00297 -1.427813,7.50712 -0.518735,2.37145 -1.056178,4.73854 -1.476165,7.13044 -0.503212,2.64666 -0.999433,5.2958 -1.375714,7.9641 -0.460977,2.84059 -1.021971,5.67484 -1.986112,8.39394 -0.837537,2.22348 -1.722487,4.51971 -3.530467,6.14812 -1.323512,1.00137 -2.800715,1.70884 -4.504525,1.57867 -2.16654,-0.37693 -3.358413,-1.56453 2.255281,1.81735 0.215773,0.12999 -0.44926,-0.23046 -0.65871,-0.3704 -0.551342,-0.36839 -0.666853,-0.54578 -1.122187,-1.02747 -1.039123,-1.36381 -1.785521,-2.88684 -2.072742,-4.59178 -0.30816,-1.91079 -0.470071,-3.83672 -0.632686,-5.76454 -0.245263,-2.6407 -0.556389,-5.2747 -0.782954,-7.91729 -0.279883,-3.47148 -0.557553,-6.94805 -0.521702,-10.43399 0.01373,-3.80912 0.07887,-7.61894 0.243022,-11.42476 0.140123,-3.57814 0.303113,-7.15559 0.382971,-10.73576 0.04041,-1.28224 0.104408,-2.56154 0.169417,-3.84268 0.02037,-0.40139 0.07169,-1.02504 0.03757,-1.44655 -0.01202,-0.14846 -0.05379,-0.293 -0.08069,-0.4395 0,0 -3.632792,-1.91082 -3.632792,-1.91082 z" />
    <path
       style="fill:#000000"
       id="path561"
       d="m 90.701263,220.87346 c 1.238303,0.43187 2.569987,0.5152 3.86922,0.59902 1.642253,0.11168 3.28748,0.0228 4.931062,-7.5e-4 1.433915,-0.0364 2.867685,-0.008 4.299605,0.07 1.27357,0.0347 2.54015,0.15346 3.80704,0.2787 1.12492,0.0988 2.2485,0.21328 3.37781,0.24263 1.19177,-0.0209 2.38371,0.0228 3.57191,-0.0835 1.04111,-0.16824 2.08048,-0.33515 3.12881,-0.4524 0.9607,-0.11775 1.92292,-0.22165 2.88456,-0.33122 0.72695,-0.17561 1.84049,-0.001 2.37658,-0.60236 -0.14679,-0.64346 -0.83327,-1.08324 -1.28638,-1.53101 0,0 -0.14564,-0.10218 -0.14564,-0.10218 v 0 c -0.88372,-0.46296 -1.7511,-1.02583 -2.73719,-1.23905 -0.90615,-0.0524 -1.7888,0.23859 -2.69526,0.29114 -0.96104,0.10954 -1.92196,0.22051 -2.88183,0.33995 -1.02515,0.14005 -2.0379,0.35866 -3.06783,0.46156 -1.17668,0.0652 -2.35746,0.0677 -3.53524,0.0349 -1.11956,-0.0594 -2.23577,-0.16254 -3.35246,-0.26105 -1.25565,-0.11363 -2.51373,-0.1752 -3.77358,-0.2223 -1.430981,-0.0571 -2.862296,-0.0674 -4.293929,-0.0208 -1.547632,0.0428 -3.093365,0.14017 -4.641382,0.16367 -1.149533,-0.0505 -2.287183,-0.16375 -3.415886,-0.38891 0,0 3.58001,2.75401 3.58001,2.75401 z" />
    <path
       style="fill:#000000"
       id="path563"
       d="m 114.32715,219.47112 c -0.0416,0.12551 -0.0979,0.24706 -0.12493,0.37652 -0.16605,0.79674 -0.1414,1.66063 -0.16472,2.46673 -0.0476,1.64707 -0.0204,0.87169 -0.0901,2.52062 -0.20782,2.42166 -0.2157,4.84634 -0.11952,7.27293 0.0746,2.14699 0.25346,4.28577 0.49816,6.41925 0.26219,1.82912 0.5008,3.66124 0.74356,5.49295 0.23264,1.72204 0.54211,3.43301 0.8663,5.13987 0.38862,1.82986 0.68946,3.67577 0.99372,5.52094 0.32858,1.89164 0.57209,3.79615 0.87242,5.69221 0.28123,1.66356 0.64882,3.30926 1.22025,4.89777 0.45228,1.20417 1.21617,2.20705 2.11952,3.10404 0.93551,0.83226 1.99548,1.50998 3.06898,2.14821 1.7027,-0.1952 4.26516,3.00268 6.51185,3.44322 0.51443,0.10088 0.64775,0.0468 1.16823,-0.007 1.36674,-0.2713 2.45175,-1.03068 3.43451,-1.97812 1.29145,-1.28481 1.99917,-2.92871 2.65334,-4.59495 0.96881,-2.29698 1.60442,-4.71012 2.39574,-7.06905 0.65606,-2.5395 1.26266,-5.10277 1.75413,-7.68018 0.34438,-2.50811 0.62063,-5.02767 0.67697,-7.55962 0.0242,-2.4287 0.002,-4.85876 -0.0922,-7.28585 -0.18126,-2.17503 -0.34803,-4.35145 -0.53581,-6.52596 -0.20322,-1.72539 -0.26671,-3.45803 -0.28745,-5.19339 -0.0248,-1.40619 0.0398,-2.81144 -0.0125,-4.21694 -0.0482,-1.36785 -0.23405,-2.72294 -0.43425,-4.07501 -0.2039,-1.0366 -0.25755,-2.08142 -0.22732,-3.13425 -0.0727,-0.57881 0.31579,-1.36793 -0.0438,-1.89594 -0.11931,-0.17521 -0.28606,-0.31291 -0.42909,-0.46936 -1.75733,-1.13088 -0.9193,-0.65722 -2.49025,-1.46237 0,0 -0.14066,-0.0554 -0.14066,-0.0554 v 0 c -1.21103,-0.53605 -0.51572,-0.24043 -2.0944,-0.86663 -0.13661,0.008 -0.28361,-0.0298 -0.40981,0.023 -0.22844,0.0956 -0.13202,1.49949 -0.18186,1.75576 -0.0311,1.09629 -0.0336,2.19357 0.21563,3.26982 0.25014,1.33083 0.46071,2.6695 0.51672,4.02494 0.0596,1.40183 0.004,2.80138 0.0178,4.20377 0.0412,1.77249 0.17162,3.54338 0.39262,5.30269 0.23626,2.1698 0.36907,4.34892 0.58416,6.52088 0.17504,2.42493 0.19521,4.85303 0.18811,7.28367 -0.0347,2.54429 -0.0315,5.09219 -0.39516,7.61729 -0.0973,0.87197 -0.16934,1.74691 -0.28348,2.61684 -0.23254,1.77226 -0.67866,3.50701 -0.96395,5.2704 -0.44399,2.45516 -1.24973,4.81836 -2.05984,7.17433 -0.66307,1.57732 -1.39385,3.1413 -2.64918,4.34445 -0.94003,0.85034 -1.9776,1.54059 -3.28041,1.63937 -0.52398,-0.0216 -0.55628,0.0113 -1.05659,-0.14275 -1.77232,-0.54567 -4.99587,-2.93208 2.33026,1.55472 -1.08242,-0.60698 -2.13369,-1.27329 -3.11221,-2.03849 -0.92419,-0.82072 -1.716,-1.7595 -2.22009,-2.90097 -0.65571,-1.54703 -1.0496,-3.17936 -1.33266,-4.83363 -0.32486,-1.89849 -0.56441,-3.81044 -0.90263,-5.70688 -0.3022,-1.8405 -0.5821,-3.68549 -0.94878,-5.51462 -0.33537,-1.70428 -0.67386,-3.4093 -0.91353,-5.1303 -0.24513,-1.82893 -0.47479,-3.65985 -0.73385,-5.48691 -0.31429,-2.1355 -0.54526,-4.28184 -0.63739,-6.4395 -0.10486,-2.44855 -0.11454,-4.89965 -0.11297,-7.35015 0.0537,-1.81345 0.2563,-3.63545 0.15111,-5.44622 0,0 -3.89274,-2.03631 -3.89274,-2.03631 z" />
    <path
       style="fill:#000000"
       id="path565"
       d="m 122.31323,261.9359 c 1.77555,-0.0412 3.55101,-0.0948 5.32675,-0.14623 2.57166,-0.13061 5.14589,-0.19867 7.71762,-0.32687 0.23869,-0.11792 2.02741,0.26514 1.79622,-0.52396 -0.0832,-0.28405 -0.33258,-0.49027 -0.48177,-0.74591 -0.0886,-0.15178 -0.15353,-0.31617 -0.23029,-0.47426 0,0 -0.2018,-0.13641 -0.2018,-0.13641 v 0 c -0.27295,-0.089 -0.55156,-0.16218 -0.81887,-0.26693 -0.95386,-0.37377 -1.4766,-0.74619 -2.47333,-0.8813 -0.20406,-0.0277 -1.50866,0.0872 -1.67033,0.0999 -2.53468,0.16495 -5.07094,0.30951 -7.60976,0.39317 -1.7249,0.0845 -3.45136,0.18019 -5.17347,0.28745 0,0 3.81903,2.72132 3.81903,2.72132 z" />
    <path
       style="fill:#000000"
       id="path569"
       d="m 70.995695,258.43831 c 2.472343,1.87234 4.316522,2.91392 7.100246,3.12782 1.526652,0.0329 3.056858,0.0205 4.581049,-0.0755 1.54871,-0.17714 3.087582,-0.42727 4.633999,-0.62432 0.09506,-0.0659 0.285234,-0.082 0.28517,-0.19759 -2.31e-4,-0.41954 -1.210574,-1.34348 -1.214338,-1.3469 0,0 -0.157838,-0.1083 -0.157838,-0.1083 v 0 c -0.907893,-0.49737 -1.804251,-1.14085 -2.879695,-1.14278 -1.508495,0.24639 -3.011457,0.55795 -4.541832,0.63427 -1.526377,0.0563 -3.060862,0.11689 -4.58458,-0.0169 -0.573453,-0.0726 -1.14264,-0.14142 -1.696618,-0.31533 -0.151076,-0.0474 -0.580142,-0.24857 -0.445188,-0.16574 2.701817,1.65829 5.031876,2.84281 3.401523,2.0093 0,0 -4.481898,-1.77805 -4.481898,-1.77805 z" />
    <path
       style="fill:#000000"
       id="path407"
       d="m 143.7333,200.27322 c 0.96648,-0.75391 1.94426,-1.49361 2.9175,-2.23893 0.82695,-0.62312 -0.10479,-1.02315 -0.58411,-1.63165 -0.14611,-0.18549 -0.245,-0.40374 -0.3675,-0.60561 0,0 -0.24905,-0.14063 -0.24905,-0.14063 v 0 c -0.21536,0.002 -0.4348,0.0469 -0.64607,0.005 -0.78065,-0.15433 -1.42433,-0.71968 -2.08045,-0.0841 -0.88228,0.79445 -1.71868,1.64916 -2.68451,2.34383 0,0 3.69419,2.35192 3.69419,2.35192 z" />
    <path
       style="fill:#000000"
       id="path412"
       d="m 142.65039,212.64806 c 2.53884,-0.16697 4.9938,-0.86491 7.40862,-1.62319 3.31605,-1.21251 6.65156,-2.47571 9.73907,-4.20977 0.67023,-0.37642 1.31165,-0.802 1.96747,-1.203 4.44608,-2.69111 7.54462,-6.40608 10.54393,-10.55771 3.06005,-4.38845 5.43862,-9.21583 7.46319,-14.15587 1.52537,-3.98466 2.44492,-8.15613 3.0985,-12.3614 0.40693,-3.05026 0.7457,-6.10543 1.18907,-9.15077 0.13061,-1.21503 0.29778,-2.4698 0.16221,-3.69367 -0.26363,-2.14371 2.45255,0.17024 -4.75891,-2.57462 -0.10443,-0.0397 -0.0778,0.20951 -0.11384,0.31529 -0.0509,0.14951 -0.0979,0.30032 -0.14682,0.45048 -0.073,0.21168 -0.14603,0.42336 -0.21904,0.63504 -0.92231,2.46247 -2.36626,4.67144 -3.7708,6.87741 -2.02254,2.96369 -3.8838,6.0298 -5.72921,9.10529 -1.60465,2.76779 -3.61292,5.24629 -5.84921,7.52151 -1.95727,1.89687 -4.02127,3.67721 -6.11993,5.41456 -1.67702,1.36406 -3.3883,2.68699 -5.11779,3.98384 -1.29855,1.01914 -0.57776,1.01904 -0.16836,2.20434 0.0472,0.1366 -0.0225,0.28817 -0.0338,0.43225 0,0 0.12557,0.0842 0.12557,0.0842 v 0 c 0.27929,0.029 0.56166,0.0365 0.83788,0.087 1.2718,0.23234 2.25497,0.70516 3.34797,-0.21641 1.69114,-1.34162 3.41952,-2.63738 5.05558,-4.04735 2.07326,-1.77669 4.1371,-3.57161 6.06702,-5.50476 2.21527,-2.34144 4.26855,-4.81637 5.82666,-7.65692 1.84626,-3.06947 3.70655,-6.12982 5.76067,-9.06691 1.47121,-2.19677 2.96613,-4.39903 4.12564,-6.78077 0.1596,-0.33747 0.31099,-0.67881 0.47301,-1.01512 0.0325,-0.0675 0.17102,-0.16067 0.10614,-0.19815 -1.49364,-0.86287 -3.08647,-1.54448 -4.58908,-2.39163 -0.0517,-0.0291 0.0695,-0.13088 0.12835,-0.12328 0.0539,0.007 0.0447,0.099 0.0671,0.14851 0.18398,1.21266 0.14064,2.42398 0.0241,3.64427 -0.29056,3.06142 -0.8746,6.08082 -1.1756,9.14157 -0.59599,4.18863 -1.43649,8.34715 -2.92844,12.32065 -1.93277,4.94308 -4.23414,9.7536 -7.19724,14.17103 -2.95711,4.05547 -6.14239,7.75862 -10.51989,10.35007 -3.66222,2.20545 -7.41837,4.2283 -11.57423,5.35706 -2.35527,0.68911 -4.70796,1.40586 -7.15138,1.70685 0,0 3.64576,2.5801 3.64576,2.5801 z" />
  </g>
</svg>
