<?xml version="1.0" encoding="UTF-8" standalone="no"?>
<!-- Created with Inkscape (http://www.inkscape.org/) -->

<svg
   width="210px"
   height="297px"
   viewBox="0 0 210 297"
   version="1.1"
   id="svg5"
   inkscape:version="1.2.2 (b0a8486541, 2022-12-01)"
   sodipodi:docname="njord.svg"
   xmlns:inkscape="http://www.inkscape.org/namespaces/inkscape"
   xmlns:sodipodi="http://sodipodi.sourceforge.net/DTD/sodipodi-0.dtd"
   xmlns="http://www.w3.org/2000/svg"
   xmlns:svg="http://www.w3.org/2000/svg">
  <sodipodi:namedview
     id="namedview7"
     pagecolor="#ffffff"
     bordercolor="#000000"
     borderopacity="0.25"
     inkscape:showpageshadow="2"
     inkscape:pageopacity="0.0"
     inkscape:pagecheckerboard="0"
     inkscape:deskcolor="#d1d1d1"
     inkscape:document-units="mm"
     showgrid="false"
     inkscape:zoom="1.7469907"
     inkscape:cx="97.596398"
     inkscape:cy="144.24805"
     inkscape:window-width="1280"
     inkscape:window-height="651"
     inkscape:window-x="0"
     inkscape:window-y="0"
     inkscape:window-maximized="1"
     inkscape:current-layer="svg5" />
  <defs
     id="defs2" />
  <g
     inkscape:groupmode="layer"
     id="layer5"
     inkscape:label="Layer 5"
     style="fill:#00ffff">
    <path
       style="fill:#00ffff"
       d="m 52.104194,57.447844 c 0.221122,-2.505195 -0.306096,-4.964295 -0.518919,-7.441551 -0.13762,-1.601892 0.0057,-3.206921 -0.147787,-4.808063 -0.308636,-3.22004 -0.729357,-6.433329 -0.978946,-9.653904 -0.101874,-1.314531 -0.515717,-2.581179 -0.597814,-3.898009 -0.130025,-2.085604 -0.207138,-4.172183 -0.322241,-6.257037 -0.02577,-0.466738 -0.211567,-1.238333 -0.147786,-1.248963 1.287952,-0.214658 2.96589,3.130815 3.813559,3.866896 2.68,2.327206 5.786235,4.017804 8.160482,6.659283 0.592116,0.658761 0.656059,1.446992 1.084509,2.174573 0.85741,1.456028 3.386444,5.499613 5.045854,5.971465 2.236342,0.635901 3.351615,-2.163806 4.796951,-3.242415 0.966143,-0.721002 5.036956,-2.537227 6.352598,-2.967953 1.411386,-0.462072 3.044131,-0.304531 4.506933,-0.412247 2.01992,-0.148739 4.017885,-0.441124 6.039247,-0.571145 1.689346,-0.108664 3.346336,0.280815 5.045856,0.174455 1.05766,-0.06619 2.19214,-0.07371 3.23797,-0.248903 1.00246,-0.167932 2.05534,-0.571606 3.07796,-0.640038 1.38369,-0.09259 2.80694,0.06403 4.18358,-0.111118 1.61567,-0.205556 3.36041,-0.804634 4.98252,-0.703375 1.92302,0.120045 2.7712,1.608721 4.42692,2.280135 1.39649,0.56629 2.95637,0.690121 4.27915,1.427862 2.04566,1.140913 4.93894,3.108408 6.56927,4.765838 0.55538,0.56461 0.74524,1.312119 1.39564,1.814552 0.86836,0.670803 1.96851,0.706257 2.86128,1.280075 0.97584,0.627211 1.68105,2.235782 2.86128,2.491259 2.32407,0.503076 2.12575,-1.722442 3.33798,-3.083516 0.69374,-0.778919 1.51339,-1.452184 2.21568,-2.226798 1.50583,-1.660895 2.66219,-3.525547 4.3536,-5.025853 1.00834,-0.894419 2.17811,-1.592788 3.22574,-2.437922 1.1685,-0.942639 2.13687,-2.100513 3.29575,-3.052403 0.84918,-0.697505 1.8484,-1.162631 2.70794,-1.834553 1.6707,-1.306029 3.15389,-3.22736 4.37359,-4.941404 0.65936,-0.926592 2.56236,-2.773636 3.92468,-2.141237 0.48606,0.225634 0.37039,1.065044 0.35002,1.45453 -0.1804,3.449437 -1.07198,6.571948 -1.87789,9.901697 -0.31765,1.31244 -0.19762,2.894209 -0.48669,3.919121 -0.21146,0.749719 -0.61443,1.399301 -0.8045,2.184574 -0.36966,1.527294 -0.44933,4.102715 -0.24334,5.670335 0.14112,1.073956 0.49887,2.122616 0.39669,3.221302 -0.0854,0.918784 -0.48206,1.777778 -0.70338,2.665713 -0.45941,1.843218 -0.9671,4.22175 -1.10006,6.135919 -0.0613,0.882273 0.26978,1.82476 0.25446,2.72905 -0.0156,0.919758 -0.0767,1.774993 0.0633,2.692382 0.26578,1.741523 2.22174,5.09472 2.89795,7.013748 1.55467,4.411996 1.51818,9.480232 1.69232,14.080833 0.202,5.336396 0.018,10.704123 0.36003,16.032056 0.16168,2.5188 0.6773,5.05354 1.11117,7.53712 0.109,0.62391 0.53987,1.33104 -0.29668,1.23785 0.45729,1.37909 1.16542,1.68411 1.9257,2.52015 1.01485,1.11598 1.55036,2.6498 2.75572,3.5491 1.06555,0.79499 5.16987,1.36067 5.77034,2.55015 0.40611,0.80447 0.14113,2.06718 -0.0689,2.87683 -0.17504,0.67482 -0.17246,1.3694 -0.42891,2.02568 -0.7544,1.93055 -3.54552,3.29367 -5.02919,4.77139 -1.19691,1.19213 -1.67895,2.75873 -2.65571,4.10469 -1.55568,2.14369 -3.49182,4.32184 -5.46366,6.07814 -1.67629,1.49306 -3.75852,2.53307 -5.56921,3.86134 -2.00365,1.4698 -4.78214,3.47641 -6.41594,5.40032 -0.5753,0.67745 -0.87944,1.48325 -1.37452,2.21568 -1.28325,1.89844 -3.03079,3.82976 -3.32687,6.22593 -0.0305,0.24686 0.12303,0.43189 0.11001,0.68782 -0.0287,0.56389 0.26276,0.87657 0.34446,1.40675 0.0978,0.63472 -0.0814,1.36995 0.10556,1.98345 0.47705,1.5655 1.76955,2.59743 2.41681,4.03579 0.27148,0.60328 0.30483,1.38885 0.49781,2.03123 0.36032,1.19939 0.90133,2.36818 1.3323,3.54355 0.42406,1.15652 0.47252,2.32784 1.03673,3.4702 0.43008,0.87078 1.15355,1.49036 1.70899,2.26902 1.06064,1.48688 1.70641,3.08669 2.24236,4.81362 0.0988,0.31835 0.90313,2.27566 0.27001,2.02012 -0.002,0.66634 -0.0326,1.33322 -0.006,1.99901 0.009,0.22567 1.77013,5.59737 2.00456,5.73923 1.43353,0.86742 3.8352,-1.32027 5.04585,-1.85122 0.84899,-0.37234 1.67423,-0.3157 2.5446,-0.49225 0.81537,-0.1654 1.569,-0.52817 2.35792,-0.76116 1.2922,-0.38164 2.51666,-0.93922 3.87245,-0.99006 0.76918,-0.0288 1.55022,0.22879 2.3168,0.22224 0.79294,-0.007 1.64127,-0.32498 2.42681,-0.10557 0.92784,0.25916 -0.31778,1.92504 0.27557,2.10013 0.78006,0.23018 1.53878,-0.23432 2.30014,-0.30669 2.35604,-0.22394 4.39099,0.0649 6.65928,-0.8356 1.82872,-0.726 2.78902,0.19268 4.09358,-0.3178 0.22651,-0.0886 0.65695,-0.42199 0.90005,-0.1689 1.40789,1.46575 -1.14936,3.32058 -0.46003,4.67028 0.21228,0.41563 0.88005,0.41822 1.10451,0.73004 1.341,1.8629 3.55559,1.04784 5.49033,1.04784 0.74047,0 1.46316,0.2687 2.18457,0.40114 0.13824,0.0254 1.02405,0.21278 0.59781,0.0689 0.44044,1.37461 1.8908,-0.0154 2.59394,0.49113 0.32857,0.2367 1.1609,0.29543 1.35897,0.5967 1.259,1.91495 -2.51754,5.95317 -1.24229,7.12487 0.43984,0.40413 2.14994,-0.21506 3.02462,0.10112 2.35276,0.85045 2.96434,1.75406 4.58027,3.44909 0.42666,0.44754 1.05094,0.82616 1.42897,1.30119 0.20174,0.2535 0.47002,3.67309 0.3378,3.9669 -0.32399,0.71998 -1.24778,1.06319 -1.6501,1.83011 -0.44803,0.85406 -0.55376,1.84905 -0.98894,2.72905 -0.1098,0.22202 -0.60205,1.41183 -0.83561,1.44453 -0.0214,0.003 -0.38498,-2.21098 -0.43336,-2.44904 -0.35431,-1.74361 -2.20749,-6.39141 -3.97246,-6.91374 -0.70086,-0.20741 -1.59254,-0.37351 -2.32791,-0.33891 -0.7269,0.0342 -1.32892,0.38149 -2.08346,0.2389 -0.86378,-0.16323 -1.49786,-0.7411 -2.27458,-1.09006 -1.15278,-0.51792 -2.55613,-0.84777 -3.82911,-0.91561 -1.11916,-0.0596 -2.25506,0.1634 -3.37465,0.1489 -3.30962,-0.0429 -6.83921,0.0546 -10.0917,0.73449 -1.90941,0.39915 -3.85895,0.99541 -5.72812,1.55009 -0.58966,0.17498 -1.141,0.50562 -1.74566,0.63003 -1.83955,0.37851 -4.01901,0.0457 -5.77034,0.72449 -1.14036,0.44197 -2.21721,1.08472 -3.36353,1.53898 -2.49596,0.98909 -5.03653,1.85245 -7.516,2.89351 -0.77664,0.32608 -1.53106,0.81551 -2.31681,1.10006 -0.59813,0.21661 -1.2491,0.47572 -1.88233,0.55559 -1.27808,0.1612 -3.94084,-0.70282 -4.95141,0.0478 -0.21372,0.15874 -1.38194,0.71231 -1.56009,0.14223 -0.26469,-0.84703 0.0602,-1.9544 0.10112,-2.8135 0.0776,-1.6305 -0.13374,-3.2798 -0.30669,-4.89807 -0.14712,-1.37666 -1.6093,-6.88848 -1.20118,-7.86046 0.11612,-0.27655 0.82384,-0.18186 1.04229,-0.22779 1.60932,-0.33839 3.51793,-1.48608 5.02474,-2.21569 0.11399,-0.0552 0.94116,-0.39726 0.94116,-0.55559 0,-1.44355 -2.65924,-4.57374 -3.49131,-5.8559 -1.17712,-1.81385 -1.80813,-3.82948 -3.00351,-5.62255 -0.72773,-1.0916 -0.96734,-2.46131 -1.84567,-3.44799 -0.33912,-0.38095 -0.70974,-0.74163 -1.04228,-1.12673 -0.10626,-0.12305 -0.33559,-0.55672 -0.25891,-0.41336 0.96537,1.80482 1.1312,5.40343 1.52787,7.50045 0.17961,0.94952 0.6225,1.93064 0.72004,2.87794 0.23024,2.23593 0.26371,4.48754 0.4967,6.72818 0.10609,1.02032 -0.31055,2.00097 -0.13223,2.99351 0.34051,1.89532 0.64425,3.81501 0.76671,5.74479 0.14374,2.26512 -0.0258,4.52448 0.18557,6.79706 0.28266,3.03951 0.27293,6.01537 0.25335,9.05498 -0.01,1.5422 0.17601,3.07829 0.0322,4.61806 -0.1189,1.27325 -0.18472,2.57955 -0.38113,3.84022 -0.0871,0.55933 -0.0204,1.14901 -0.0744,1.71899 -0.0219,0.23059 -0.28377,0.87107 -0.15779,0.67671 0.0546,-0.0842 0.10223,-0.1726 0.15334,-0.2589 0.2026,0.66373 0.45388,1.31452 0.60779,1.9912 0.41468,1.82329 -0.0108,3.99047 0.0155,5.85591 0.0404,2.8544 0.54968,5.79225 0.08,8.62162 -0.54089,3.25835 -0.97937,7.63917 -1.98901,10.64285 -0.80956,2.40845 -2.69583,3.94253 -4.24692,5.82812 -1.39837,1.69995 -2.53549,3.80563 -4.52249,4.91918 -2.35531,1.31998 -3.60246,0.35113 -5.12474,-1.27452 -0.81841,-0.87398 -1.64362,-1.72131 -2.25347,-2.76127 -1.17293,-2.00016 -1.14049,-4.6115 -1.63454,-6.81818 -0.57083,-2.54958 -1.1081,-5.10693 -1.38564,-7.71157 -0.22734,-2.13348 -0.15506,-4.31301 -0.34335,-6.4526 -0.29277,-3.32674 -0.58347,-6.63775 -0.52448,-9.99171 0.025,-1.41839 0.31272,-2.81135 0.3178,-4.22691 0.005,-1.26738 -0.0711,-2.53127 -0.0156,-3.80245 0.0522,-1.19464 0.55851,-3.98992 -0.29668,-5.07252 -0.1822,-0.23066 -0.52641,-0.27939 -0.74005,-0.47114 -1.5205,-1.36477 -1.8888,-0.22469 -3.51798,-0.35447 -0.40404,-0.0322 -0.6932,-0.36637 -1.11562,-0.38558 -1.15235,-0.0524 -2.33173,0.69711 -3.45354,0.62893 -1.00597,-0.0611 -1.68059,-0.91944 -2.6346,-1.03117 -0.70007,-0.082 -1.43593,0.13029 -2.13679,0.0689 -2.35792,-0.20656 -4.71854,-0.55942 -7.07709,-0.78893 -0.87419,-0.0851 -3.80439,-0.2695 -4.38915,0.67781 -0.7081,1.14713 0.13067,4.77921 0.0944,6.27815 -0.0165,0.68401 -0.16166,1.36248 -0.23779,2.04123 -0.16025,1.42873 -0.36449,2.83162 -0.5767,4.25359 -0.19647,1.31646 -0.27488,2.6378 -0.46559,3.95579 -0.14398,0.99514 -0.34699,1.96945 -0.42224,2.97351 -0.13857,1.84878 -0.0207,3.84718 -0.32335,5.66478 -0.47597,2.85841 -1.2275,5.69231 -1.655658,8.55273 -0.162882,1.08817 -0.157159,2.22304 -0.375578,3.30019 -0.257709,1.27092 -1.123102,2.26295 -1.496755,3.48132 -0.754678,2.46078 -1.113795,5.87943 -2.913506,7.90158 -0.684151,0.76871 -1.651138,0.5464 -2.529038,0.76782 -0.318201,0.0802 -0.778021,0.12969 -1.073397,0.23779 -0.602647,0.22055 -0.9601,0.75305 -1.650098,0.80338 -1.844938,0.13459 -2.717736,-1.5808 -3.940233,-2.54904 -0.675948,-0.53536 -1.64348,-1.05162 -2.131237,-1.77788 -0.756493,-1.12639 -2.511933,-8.76561 -2.529039,-10.21394 -0.01748,-1.48014 0.361968,-3.04728 0.143342,-4.51693 -0.299658,-2.01437 -1.074027,-3.93068 -1.327856,-5.97147 -0.139113,-1.11846 0.0095,-2.29212 0.0056,-3.41686 -0.0062,-1.76201 -0.12708,-3.51033 -0.105562,-5.27365 0.04709,-3.85878 -0.601511,-7.70711 -0.327797,-11.55735 0.11519,-1.62035 0.680767,-3.13867 0.914498,-4.73917 0.172401,-1.18053 -0.117732,-2.34117 -0.13223,-3.49132 -0.02857,-2.26676 0.291052,-4.53069 0.38669,-6.78595 0.04526,-1.06732 0.24051,-2.04719 0.337797,-3.11019 0.03552,-0.38804 -0.0814,-0.71625 -0.09001,-1.09562 -0.04091,-1.80294 0.223993,-3.73178 0.534476,-5.51144 0.167807,-0.96184 0.550095,-1.88147 0.718932,-2.84572 0.307353,-1.75533 0.330731,-3.59939 0.66115,-5.38476 0.430203,-2.32455 0.0033,-4.52015 0.06889,-6.82818 0.0082,-0.28987 1.343264,-4.43805 1.132289,-4.43805 -0.104136,0 -0.190382,0.0845 -0.285572,0.12668 -0.599375,2.59767 -2.083907,4.85343 -3.056784,7.28709 -0.415118,1.03841 -0.543694,2.17567 -0.990059,3.20574 -1.066811,2.46187 -2.956516,4.4145 -4.26803,6.71707 -1.2387,2.17473 -2.265784,4.63924 -3.966901,6.51705 -0.565098,0.62379 -3.415617,5.35396 -4.109132,4.88695 -1.93313,-1.30174 -1.054198,-5.34105 -0.888942,-7.19375 0.291293,-3.26572 0.435707,-6.57376 1.216739,-9.77503 0.662373,-2.71491 1.795333,-5.29542 2.522371,-7.97603 0.364875,-1.3453 0.472572,-2.72094 0.984503,-4.03023 0.57092,-1.46017 1.38949,-2.81215 1.993451,-4.25248 0.951835,-2.26994 1.264583,-4.72215 2.274579,-6.98819 0.649711,-1.4577 0.987018,-2.95243 1.401194,-4.48471 0.597799,-2.2116 1.49998,-4.4701 2.422366,-6.56483 0.113681,-0.25817 2.836607,-5.47618 1.338968,-3.38465 -0.730043,0.0552 -1.458514,0.13823 -2.19013,0.16557 -0.116856,0.004 -5.790513,-1.98253 -6.289261,-2.23791 -0.96042,-0.49177 -1.622978,-1.50168 -2.469035,-2.14679 -1.435353,-1.09446 -3.279746,-1.88657 -4.871399,-2.7135 -1.274253,-0.66203 -2.740598,-0.95346 -4.009126,-1.58676 -0.927439,-0.46301 -1.664508,-1.25905 -2.571263,-1.75677 -0.912538,-0.5009 -1.994825,-0.8482 -2.855725,-1.41675 -1.218826,-0.80493 -2.016717,-2.12804 -3.226858,-2.96795 -0.796531,-0.55285 -1.898289,-0.47311 -2.617932,-1.0734 -0.639171,-0.53316 -1.019061,-1.23076 -1.586761,-1.82011 -1.485871,-1.54253 -3.355049,-2.97378 -4.516934,-4.8025 -0.479809,-0.75519 -0.774203,-1.60415 -1.263408,-2.35348 -1.541181,-2.36067 -2.878177,-4.34278 -3.792447,-7.06153 -0.101327,-0.30131 -0.485016,-1.16639 -0.407801,-1.48675 0.08188,-0.33973 2.258291,-1.77473 2.629044,-2.12568 1.052212,-0.99601 1.894142,-2.22781 2.819056,-3.33798 0.546053,-0.65542 1.264745,-1.20952 1.724546,-1.93122 0.524642,-0.82348 0.899487,-1.74927 1.337857,-2.61794 1.172389,-2.32318 2.67374,-4.48973 3.485762,-6.98708 0.585378,-1.80031 0.836327,-3.71545 1.301188,-5.549213 0.326545,-1.288137 0.921497,-2.539725 1.184515,-3.850228 0.523861,-2.610172 1.21624,-5.740356 0.613369,-8.362717 -0.387985,-1.687655 -0.711181,-3.708824 -1.40675,-5.310315 -0.353177,-0.813162 -1.013016,-1.291985 -0.946722,-2.280134 0.317747,-4.736237 3.325489,-9.630452 5.775897,-13.519689 0.632602,-1.004052 1.655806,-1.729238 2.342361,-2.697938 0.186731,-0.26347 0.0074,-0.591638 0.158898,-0.88783 0.922875,-1.804734 1.980804,-3.371982 3.061292,-5.081412 z"
       id="path587" />
    <path
       style="fill:#000080;stroke-width:0.904673"
       d="m 97.691892,35.238252 c -0.120946,0.675501 -0.278766,1.342699 -0.362835,2.026503 -0.141024,1.147103 -0.04744,2.517221 -0.06568,3.667651 -0.06388,4.031172 0.142539,7.999625 0.292348,12.017905 0.160308,4.299943 0.193235,8.545558 0.528804,12.832425 0.08223,1.050583 0.149687,6.542618 1.100106,6.797648 1.458565,0.391381 1.845435,-3.954525 2.009425,-4.86903 0.77502,-4.321682 1.33897,-8.693321 2.10408,-13.015731 0.67831,-3.832022 1.87027,-7.514411 2.60319,-11.341936 0.24422,-1.275404 0.49458,-2.447177 0.91138,-3.654089 0.42905,-1.24237 1.45693,-2.693326 1.39875,-4.096347"
       id="path790" />
    <path
       style="fill:#000080"
       d="m 110.59877,36.757731 c -0.68207,2.221421 -0.51488,4.557516 -0.75671,6.850405 -0.63792,6.048215 -0.29377,12.135841 -0.60337,18.205522 -0.11312,2.217596 -0.10821,4.11906 0.58225,6.247036 0.25157,0.775306 0.41713,1.340138 0.54448,1.222295 0.33074,-0.306061 0.34848,-3.947081 0.36002,-4.056907 0.60278,-5.73825 1.45374,-11.457576 2.25791,-17.169905 0.45109,-3.204245 0.66171,-6.555181 1.52898,-9.685017 0.10695,-0.385966 1.38966,-2.501424 0.82005,-2.349028"
       id="path792" />
    <path
       style="fill:#000080;stroke-width:1.07006"
       d="m 85.083924,36.628058 c 0.647865,4.784267 1.097398,9.604568 1.734547,14.389927 0.214855,1.613685 0.610827,4.087211 0.898942,5.778871 0.20427,1.199367 1.833428,13.250327 2.591264,13.615085 0.479464,0.230772 0.43352,-1.113735 0.455583,-1.708725 0.08451,-2.278955 0.02275,-4.567976 0.09445,-6.850164 0.187936,-5.98152 -0.125167,-11.917621 -0.39669,-17.890076 -0.128606,-2.828825 -0.73713,-6.420813 -0.26446,-9.109802"
       id="path794" />
    <path
       style="fill:#000080"
       d="m 58.320118,36.211032 c 1.173074,0.929819 1.31263,2.109826 1.793439,3.369088 0.412665,1.080789 4.609373,5.146305 4.35248,6.24148 -0.03838,0.163603 -1.308221,1.692062 -1.433418,1.830109 -0.599584,0.66112 -1.531844,0.959168 -2.115681,1.644542 -0.25448,0.298738 -0.375057,0.696767 -0.628926,0.994503 -0.157145,0.184299 -2.458425,1.766218 -2.544595,1.71899 -0.376353,-0.20627 -0.261974,-1.879061 -0.285572,-2.263467 -0.06598,-1.07476 -0.317448,-2.139711 -0.358911,-3.21019 -0.13486,-3.481858 0.292709,-6.97662 1.221184,-10.325055 z"
       id="path796" />
    <path
       style="fill:#000080"
       d="m 152.10233,42.79031 c 0.13646,0.688071 -0.58815,1.398157 -0.71448,2.079012 -0.47968,2.585089 -1.0653,5.04239 -1.87234,7.558225 -0.27826,0.86745 -0.76471,1.64193 -1.03117,2.507926 -0.16116,0.523791 -0.49583,2.816064 -1.13229,3.030179 -0.5681,0.191121 -1.18452,-1.125564 -1.34341,-1.485643 -0.91524,-2.07419 -3.03316,-4.837485 -1.40675,-7.120421"
       id="path798" />
    <path
       style="fill:#e6e6e6"
       d="m 143.88851,193.71924 c 1.48687,-0.29989 2.55177,-1.3679 3.67022,-2.33791 1.12752,-0.97789 3.54111,-3.29836 3.88801,-4.82473 0.0945,-0.41577 0.37814,-1.17341 0.30113,-1.17341 -0.25498,0 0.6965,3.10919 0.80894,3.54355 0.39477,1.52505 0.61139,3.1016 1.02117,4.61805 0.1185,0.43854 0.36812,0.84736 0.49669,1.28452 0.42729,1.45276 -0.0451,3.92444 -1.38008,4.72917 -0.34765,0.20956 -2.62336,0.77441 -3.04129,0.63003 -1.75894,-0.60763 -4.78902,-4.9918 -5.76479,-6.46927 z"
       id="path810" />
    <path
       style="fill:#e6e6e6"
       d="m 57.568962,194.05704 c 1.229424,0.53455 2.048241,1.49534 3.215746,2.09457 1.02372,0.52543 3.963685,0.9212 3.978013,0.95228 1.336859,2.89942 -2.72118,8.18442 -4.443596,10.33061 -0.560977,0.69899 -1.353619,2.32817 -2.59682,1.87233 -0.237008,-0.0869 -0.498764,-0.5071 -0.655595,-0.69226 -2.412823,-2.84876 -0.489235,-11.26793 0.502252,-14.55753 z"
       id="path812" />
    <path
       style="fill:#e6e6e6"
       d="m 118.6748,253.25721 c 0.40743,0.34558 0.78371,0.73166 1.2223,1.03673 2.37936,1.65501 10.53283,0.59421 13.10633,-0.52892 1.383,-0.60358 3.00923,-2.62412 4.50026,-1.6301 1.5999,1.0666 1.57177,2.23792 1.61343,4.13691 0.0837,3.81497 -1.04143,6.40668 -3.51132,9.15054 -0.79956,0.88826 -1.56072,1.79977 -2.64015,2.35348 -1.26722,0.65003 -2.56354,0.80577 -3.91912,1.16895 -1.23187,0.33004 -1.86438,1.07645 -3.23131,0.96339 -2.13558,-0.17662 -5.00418,-5.3486 -5.56477,-7.14597 -0.55771,-1.78813 -0.84806,-3.87351 -0.94117,-5.73923 -0.0287,-0.57502 0.2255,-1.50627 0.10112,-2.01568 -0.15011,-0.61474 -0.4904,-1.16673 -0.7356,-1.7501 z"
       id="path814" />
    <path
       style="fill:#e6e6e6"
       d="m 69.015195,251.02485 c 2.165038,0.44286 4.021549,1.61679 6.230369,1.90901 3.367621,0.44552 7.313373,-0.59418 10.536179,-1.48565 1.09776,-0.30365 2.450812,-0.39341 3.469094,-0.91561 0.647704,-0.33215 1.072728,-0.97855 1.714546,-1.3123 0.136834,-0.0712 -0.04904,0.30733 -0.03778,0.46114 0.03278,0.44767 0.113282,0.87986 0.09556,1.3323 -0.07194,1.83679 -0.442438,3.59289 -0.830049,5.37921 -0.347106,1.59965 -0.571136,3.26511 -1.011171,4.84029 -0.496824,1.77846 -1.387598,3.46935 -2.089012,5.17252 -0.392062,0.95201 -0.685101,2.08518 -1.422307,2.84128 -1.004186,1.02994 -2.850233,1.83884 -4.189137,2.2268 -2.466294,0.71464 -3.912722,-0.22837 -5.691447,-1.83011 -4.806156,-4.32793 -4.174394,-5.06735 -4.844732,-11.08176 -0.286668,-2.57205 -0.428556,-5.15969 -0.360021,-7.74935"
       id="path816" />
    <path
       style="fill:#8100f5;fill-opacity:1"
       d="m 82.840458,84.641675 c -0.695227,0.07052 -1.708907,0.04597 -2.252356,0.655595 -1.489597,1.670973 -1.127574,3.970041 -1.62454,5.992577 -0.268622,1.093228 -0.575306,2.099866 -0.650039,3.242414 -0.05938,0.907769 0.07117,1.813343 -0.03222,2.71905 -0.09551,0.836631 -0.362932,1.638549 -0.448915,2.470146 -0.131484,1.271663 -0.03757,2.521943 -0.08556,3.798003 -0.06467,1.71935 -0.441989,3.03377 0.39669,4.63361 0.651028,1.24187 2.940693,3.17967 4.453597,2.62349 2.394754,-0.88038 4.711251,-6.75205 4.898068,-9.04498 0.200525,-2.461193 0.107266,-4.836781 -0.05778,-7.289325 -0.05371,-0.798142 0.124408,-1.594092 0.01,-2.390141 -0.09423,-0.655651 -0.388519,-1.278441 -0.513364,-1.931225 -0.350617,-1.833292 -0.683985,-3.276635 -2.0779,-4.60694 -0.0049,-0.0046 -0.471166,-0.516644 -0.507808,-0.52892 -0.488787,-0.163756 -1.005245,-0.228902 -1.507867,-0.343354 z"
       id="path818" />
    <path
       style="fill:#8100f5;stroke:none;stroke-opacity:1;fill-opacity:1"
       d="m 117.46362,85.117259 c -2.42337,1.894854 -3.2289,5.116681 -3.62355,8.071589 -0.19599,1.467441 -0.59437,2.931789 -0.72893,4.405816 -0.10049,1.100798 0.0723,2.189408 0.0889,3.285746 0.0141,0.92948 -0.0334,1.84211 0.11668,2.76572 0.12263,0.75494 1.32701,5.45324 1.70899,5.94591 0.61654,0.79522 1.32798,0.8965 2.22679,1.15785 0.84066,0.24443 1.75359,0.46039 2.5546,-0.0956 1.03059,-0.7153 1.62191,-2.45531 2.14679,-3.55355 2.22578,-4.65712 3.78869,-12.441685 1.26452,-17.302133 -0.45675,-0.879516 -0.3613,-1.873163 -0.75115,-2.776831 -0.40022,-0.927689 -2.63044,-2.817171 -3.73467,-2.439033 -0.43422,0.148698 -0.84597,0.356317 -1.26896,0.534476 z"
       id="path820" />
    <path
       style="fill:#e6e6e6"
       d="m 43.88593,140.2083 c 0.05398,-9.49304 9.716907,-18.84066 17.946618,-22.2791 1.573043,-0.65723 2.855249,-1.71603 4.585827,-1.96789 1.245119,-0.18122 2.787126,-0.43218 4.034683,-0.19557 0.435034,0.0825 0.761742,0.38754 1.216739,0.43336 1.060393,0.10679 2.183528,0.0699 3.232413,0.27001 1.344213,0.25643 2.350819,1.19763 3.522431,1.78233 1.093361,0.54566 2.284443,0.86072 3.369088,1.41786 1.12087,0.57576 2.459717,1.46444 3.522431,1.95234 0.421919,0.19371 1.206966,0.20942 1.67121,0.17446 1.819713,-0.13704 2.773654,-2.57695 4.020238,-3.59688 2.303638,-1.8848 5.130317,-3.5958 8.04492,-4.32693 2.611242,-0.65502 5.519762,0.0234 7.917132,0.9834 0.85468,0.34224 1.75155,0.41971 2.43348,1.11673 0.60161,0.61492 0.89537,1.45289 1.37453,2.15235 0.24722,0.36089 2.60458,2.76319 2.70793,2.75016 0.8593,-0.10836 1.61252,-0.89563 2.41237,-1.19451 1.18728,-0.44365 2.48331,-0.48044 3.66022,-0.9734 1.85385,-0.77649 3.55361,-1.88691 5.41032,-2.66126 2.82309,-1.17739 5.94301,-1.29002 8.96497,-1.31119 2.26726,-0.0159 6.56528,0.0616 8.70163,0.86672 1.56068,0.58817 2.84273,2.21594 4.25247,3.12685 0.32575,0.21048 0.7534,0.19736 1.06229,0.44447 0.42485,0.33988 0.36852,0.86694 0.7356,1.22118 0.55898,0.53944 1.59623,0.85236 2.03123,1.44453 0.5322,0.72452 0.14698,2.0343 0.27446,2.86684 0.1575,1.02864 1.05467,1.7835 1.49231,2.71349 0.72391,1.53832 0.77344,3.18233 1.0834,4.81806 0.0528,0.27885 0.96183,6.77655 0.92116,4.30581 0.24668,0.74745 0.56018,1.47608 0.74004,2.24236 0.47198,2.01081 -3.3816,7.10845 -4.64916,8.59606 -0.9939,1.16646 -2.4922,2.3411 -3.72355,3.24242 -1.10884,0.81164 -2.44549,1.36377 -3.47021,2.27902 -2.86699,2.56071 -6.08633,4.35494 -9.35611,6.3426 -2.52155,1.53282 -5.16477,3.31957 -8.03381,4.14136 -2.18065,0.6246 -4.47995,0.52308 -6.7015,0.91561 -2.82901,0.49985 -5.72086,1.36293 -8.60607,1.34896 -2.19237,-0.0106 -4.24015,-0.6088 -6.41038,-0.7356 -2.76739,-0.16169 -6.224124,0.0136 -8.906081,-0.54003 -2.748704,-0.56741 -5.365301,-1.94801 -8.0827,-2.70238 -1.63679,-0.45438 -3.241228,-0.44036 -4.896957,-0.70337 -1.657901,-0.26336 -3.083905,-1.15853 -4.628051,-1.71899 -0.71798,-0.26061 -1.453396,-0.18452 -2.157906,-0.45003 -2.59759,-0.97896 -4.862339,-2.62886 -7.25154,-3.97801 -1.024145,-0.57833 -2.202307,-0.7807 -3.242414,-1.29008 -1.26689,-0.62045 -2.395892,-1.42733 -3.627993,-2.10013 -0.636708,-0.34767 -1.411642,-0.43886 -2.057899,-0.77782 -1.060467,-0.5562 -1.740722,-1.54416 -2.750163,-2.1579 -0.481993,-0.29306 -1.033537,-0.42448 -1.528979,-0.69782 -0.992554,-0.54762 -1.919151,-1.23879 -2.940174,-1.73011 -0.563682,-0.27124 -1.346075,-0.3532 -1.856777,-0.6667 -0.824934,-0.5064 -1.58796,-1.13049 -2.395697,-1.63899 -0.725759,-0.45689 -1.68971,-0.49514 -2.349028,-1.12673 -0.68782,-0.65889 -1.214154,-1.65723 -1.718991,-2.42792 z"
       id="path824" />
  </g>
  <g
     inkscape:groupmode="layer"
     id="layer4"
     inkscape:label="Layer 4"
     style="display:inline;fill:#000000">
    <path
       style="fill:#000000"
       id="path363"
       d="m 55.196864,59.446079 c -0.455089,-2.764558 -0.476579,-5.572786 -0.651847,-8.363197 -0.139966,-4.045936 -0.700226,-8.053065 -1.110997,-12.077628 -0.252936,-2.596395 -0.464243,-5.196931 -0.606428,-7.80179 -0.0031,-1.721083 -0.07441,-3.43522 -0.265437,-5.145566 -0.08513,-0.865678 -0.195179,-1.728439 -0.304832,-2.591197 -0.0057,-0.04252 -0.0011,-0.08776 -0.01714,-0.127566 -0.04501,-0.111959 -7.94e-4,0.397501 -0.109471,0.345058 -2.140173,-1.032744 -4.165791,-2.288888 -6.277871,-3.377933 -0.149757,-0.07722 0.265232,0.21043 0.377874,0.335736 0.171774,0.191085 0.314575,0.406352 0.471862,0.609528 2.138872,2.696452 4.683321,5.042822 7.104608,7.480855 2.84229,2.740084 5.299794,5.820384 7.465854,9.112227 0.969167,0.978956 1.432835,3.093641 2.400477,4.039752 0.642217,0.627927 2.017494,1.366883 2.717506,1.78202 0.250559,0.170313 0.501119,0.340625 0.751678,0.510937 0,0 0.272253,0.131529 0.272253,0.131529 v 0 c 0.223506,0.04457 0.447011,0.08914 0.670516,0.133716 1.029632,0.263514 1.839259,0.555006 1.929369,0.250574 0.07127,-0.240784 -0.239672,-0.441634 -0.371437,-0.655397 -0.727742,-1.180621 -1.530872,-2.315665 -2.239859,-3.508388 -2.21262,-3.324383 -4.651639,-6.489312 -7.52443,-9.278306 -2.272907,-2.303363 -4.655817,-4.544072 -6.602777,-7.136658 -0.120235,-0.198073 -0.24887,-0.391286 -0.360705,-0.594221 -0.07956,-0.144374 -0.0716,-0.361313 -0.212779,-0.44642 -1.687307,-1.017174 -6.279361,-6.142041 -7.094486,-2.86542 0.1631,0.888936 0.401835,1.76451 0.502643,2.665318 0.247783,1.717351 0.407559,3.440277 0.440158,5.176698 0.159157,2.681903 0.550724,5.341875 0.913037,8.002402 0.575086,4.18053 1.101753,8.364752 1.969791,12.496222 0.444739,2.858528 0.862337,5.719421 1.106733,8.602598 0,0 4.656141,2.294517 4.656141,2.294517 z" />
    <path
       style="fill:#000000"
       id="path365"
       d="m 135.5877,49.617202 c 2.27152,-2.257831 4.34466,-4.6789 6.72187,-6.842822 3.69782,-3.561581 7.34747,-7.174039 11.05735,-10.722822 2.80905,-2.217243 4.91922,-5.125219 6.83004,-8.115449 0.82451,-1.187684 1.33299,-2.597541 2.37725,-3.619104 2.34869,0.06139 1.26891,0.06735 -5.49627,-2.939817 -0.17117,-0.07609 0.1973,0.324842 0.24395,0.506265 0.0893,0.347418 0.13058,0.706696 0.15987,1.064216 0.11299,1.378739 0.0328,2.16484 -0.0222,3.596498 -0.48962,5.669968 -1.13927,11.323641 -2.05348,16.941003 -0.91119,5.508273 -1.83468,11.015105 -2.99422,16.47727 -0.13737,1.466189 -1.60252,4.466181 -0.60906,5.866147 1.53309,1.412832 1.09081,0.765635 1.64996,1.675693 0,0 0.35836,0.209744 0.35836,0.209744 v 0 c 0.7426,0.0017 1.45713,0.445414 2.19625,0.373626 1.25744,-0.122129 1.36335,-4.556396 1.5761,-5.369834 0.8815,-5.562146 1.78989,-11.119422 2.62056,-16.689632 0.90613,-5.566006 1.85711,-11.124936 2.56303,-16.721299 0.10526,-0.76524 2.75389,-16.2846289 -5.87523,-8.412072 -0.87645,1.20577 -1.60563,2.491404 -2.21559,3.852408 -1.60417,3.06671 -3.58414,5.874716 -5.58914,8.69083 -3.42081,3.813564 -7.32859,7.135986 -10.87631,10.829598 -2.11045,2.409969 -4.45107,4.563348 -6.66869,6.863274 0,0 4.04561,2.486279 4.04561,2.486279 z" />
    <path
       style="fill:#000000;stroke-width:0.960256"
       id="path367"
       d="m 50.413398,56.181282 c -1.591685,1.000618 -2.729675,2.4065 -3.967762,3.734327 -1.501115,1.889678 -2.776663,3.922509 -3.726955,6.094093 -1.112222,2.54183 -1.727577,5.16014 -2.134525,7.862459 -0.441018,2.915924 -0.666434,5.85091 -0.831085,8.789067 -0.435486,2.94045 -0.35607,5.931693 -0.291427,8.893799 0.114107,3.067768 -0.02354,6.133735 -0.357154,9.185933 -0.443829,3.41497 -1.771226,6.61338 -3.470906,9.64766 -0.877433,1.28986 -1.667942,2.70874 -2.872957,3.78081 -0.382484,0.34029 -0.847958,0.59159 -1.2577,0.90373 -4.076086,3.10522 1.792522,-1.2344 -2.122245,1.64313 -1.46679,0.97297 -3.101371,1.71655 -4.874319,2.05593 -2.31866,0.10562 -8.842042,-4.42013 5.593861,3.13226 0.07278,0.0381 -0.170856,-0.0341 -0.23335,-0.0853 -0.140496,-0.20848 -0.356026,-0.35978 -0.538295,-0.5301 -10.270146,-4.4615 -7.346487,-3.31278 -4.966498,-0.41003 1.476965,1.83629 2.717595,3.81901 3.989927,5.77741 1.497133,2.42451 3.425859,4.56777 5.362012,6.69695 1.97037,1.99759 3.617989,4.21697 5.755483,6.06513 2.330016,2.03302 4.912736,3.76593 7.655331,5.28801 2.907812,1.53898 5.811242,3.08505 8.723435,4.61698 0.474373,0.24954 0.958938,0.48226 1.436049,0.72732 6.145649,3.15661 -8.963406,-4.88491 -2.847923,-1.50819 0.482464,0.26639 0.961929,0.53739 1.442893,0.80608 2.676448,1.46577 5.288039,3.02817 7.93458,4.53843 3.638349,1.6925 7.226861,4.48231 11.337885,5.56345 1.454874,0.3826 2.958411,0.63852 4.43402,0.9418 3.515921,0.60618 6.89212,1.67736 10.268683,2.73638 4.071216,1.36901 8.135319,2.70416 12.392704,3.4798 3.60634,0.60387 7.25491,0.89923 10.91544,0.98162 2.85829,0.006 5.71564,0.0118 8.57071,-0.12252 3.17966,-0.2937 6.24168,-1.18099 9.23019,-2.18468 3.37003,-1.20134 6.48473,-2.86167 9.34539,-4.88306 2.47987,-2.00383 4.90778,-4.06394 7.27036,-6.18494 2.2296,-2.05707 4.61123,-3.96735 6.99227,-5.87248 2.03358,-1.60297 3.87883,-3.38875 5.75949,-5.13862 1.68781,-1.48348 3.20593,-3.10791 4.65985,-4.78511 1.36507,-1.6801 2.93795,-3.19717 4.49078,-4.72714 1.74463,-1.59616 3.56023,-3.11953 5.21981,-4.79283 1.56142,-1.55488 2.87099,-3.29845 4.1155,-5.07381 0.77576,-1.1537 1.56834,-2.29904 2.16768,-3.54162 1.52387,-3.3699 -1.73115,-1.93791 -8.44095,-4.92944 -0.20804,-0.0929 -0.33715,0.29155 -0.50937,0.43361 -0.78545,0.62682 -1.75596,0.88187 -2.76474,1.00159 -1.61806,0.14983 -3.13594,-0.15037 -4.61599,-0.73005 -2.30919,-1.17655 -9.79042,-4.99244 6.55153,3.45998 0.28158,0.14564 -0.54669,-0.31716 -0.81268,-0.48589 -0.80439,-0.51027 -1.5234,-1.07726 -2.23305,-1.69277 -1.57647,-1.47511 -2.36628,-3.35898 -2.97691,-5.30918 -0.64095,-2.41641 -1.03206,-4.88102 -1.47425,-7.33293 -0.49666,-2.3944 -0.71941,-4.814452 -0.78032,-7.247796 -0.11937,-2.919404 -0.16857,-5.838395 -0.0508,-8.758156 0.13323,-2.713948 0.30806,-5.425939 0.44383,-8.139837 0.0482,-2.390738 0.0176,-4.781569 0.0603,-7.173032 0.0401,-1.802044 -0.0598,-3.592596 -0.41306,-5.3654 -0.32427,-1.457138 -0.91732,-2.840129 -1.55643,-4.199771 -0.54093,-1.230626 -1.29134,-1.713362 -2.60475,-2.32729 -0.46426,-0.217012 -2.88528,-1.238798 -3.7606,-1.609257 0,0 -0.28213,-0.100271 -0.28213,-0.100271 v 0 c -0.678,-0.154631 -2.57081,-0.977532 -3.06293,-0.850854 -0.32261,0.08305 1.34127,1.043687 1.00191,1.232734 0.71574,1.289058 1.31947,2.641485 1.71895,4.04375 0.44966,1.734198 0.65816,3.496467 0.66743,5.281453 0.0464,2.390589 -0.0465,4.781247 0.0145,7.172244 -0.0817,2.735191 -0.23608,5.468353 -0.31325,8.203769 -0.10167,2.912855 -0.15764,5.826667 -0.0947,8.741029 0.0425,2.468761 0.20171,4.916972 0.70551,7.348745 0.42858,2.47256 0.92892,4.9342 1.42015,7.39666 0.51263,2.03659 1.18799,4.03382 2.66597,5.66991 3.33868,3.42766 8.27973,5.42931 12.61174,7.40676 1.61558,0.4588 3.29689,0.67701 4.97936,0.40242 1.14438,-0.24102 2.24613,-0.60333 3.15418,-1.31558 2.86277,-2.0766 3.39687,1.54625 -7.83435,-4.74714 -0.0699,-0.0392 0.54283,-0.18735 0.13187,0.2036 -0.36907,1.26 -1.04099,2.41028 -1.82224,3.49402 -1.19997,1.73438 -2.43549,3.46201 -3.95667,4.97545 -1.70996,1.62183 -3.51067,3.15864 -5.23472,4.76787 -1.64326,1.4955 -3.17329,3.09295 -4.60826,4.76106 -1.4291,1.65113 -2.92794,3.24771 -4.53669,4.75352 -1.83158,1.75747 -3.70743,3.47654 -5.64895,5.13106 -2.33423,1.9678 -4.74424,3.86042 -6.98759,5.91907 -2.33768,2.09465 -4.71107,4.16189 -7.18726,6.1169 -2.78529,1.98255 -5.83748,3.5939 -9.17141,4.66603 -2.99717,0.92902 -6.04849,1.7553 -9.22985,1.88676 -2.80859,0.1277 -5.62385,0.13649 -8.43527,0.13306 -3.5701,-0.0875 -7.12899,-0.3878 -10.644903,-0.98219 -4.16097,-0.8236 -8.141178,-2.1795 -12.162206,-3.4475 -3.422851,-1.08537 -6.874838,-2.079 -10.427121,-2.7452 -1.506141,-0.33792 -3.03199,-0.64522 -4.502222,-1.10461 -2.879238,-0.89964 -7.902262,-3.78333 3.944157,2.48319 -2.707773,-1.49056 -5.332933,-3.10572 -8.051607,-4.58063 -3.885978,-2.17871 -7.797937,-4.23479 -11.759056,-6.33328 -0.498571,-0.26412 -1.002052,-0.52028 -1.504314,-0.77841 -0.477961,-0.24562 -1.907554,-0.98928 -1.43634,-0.7328 1.979675,1.0775 3.974762,2.13075 5.962143,3.19612 -2.788461,-1.47383 -5.458994,-3.11593 -7.801916,-5.16167 -2.507475,-2.08678 -5.160828,-4.04186 -7.227332,-6.53254 -1.93456,-2.11174 -3.90129,-4.21934 -5.429757,-6.60894 -1.213402,-1.91552 -2.355779,-3.87252 -3.691747,-5.71929 -2.414277,-3.28455 -2.495999,-2.93622 -8.688063,-4.79764 0.215905,0.11176 0.419205,0.25029 0.625412,0.37964 1.595643,2.20758 4.849388,4.49133 7.6793,3.5078 1.703161,-0.59583 3.295224,-1.42545 4.712413,-2.48578 0.720612,-0.59765 1.409291,-1.10154 1.970873,-1.84584 0.291498,-0.38636 0.472887,-0.83496 0.737824,-1.23724 0.880567,-1.33706 1.950268,-2.56987 2.716152,-3.97309 1.703555,-3.0999 3.005061,-6.36923 3.569559,-9.82112 0.404201,-3.05217 0.561975,-6.128425 0.494991,-9.203498 -0.09233,-3.036516 -0.0516,-6.076397 -0.242744,-9.107644 0.08881,-2.930329 0.302484,-5.859582 0.76478,-8.761914 0.444089,-2.660818 0.735676,-5.392417 1.722125,-7.934192 0.992577,-2.123961 2.286222,-4.083799 3.608952,-6.044918 0.876374,-1.46864 2.030528,-2.889758 3.685163,-3.669784 0,0 -3.922868,-2.347555 -3.922868,-2.347555 z" />
    <path
       style="fill:#000000"
       id="path369"
       d="m 68.875516,45.699666 c 1.956695,-1.790963 4.375596,-2.959195 6.724748,-4.150995 4.347883,-1.963299 9.028291,-3.042007 13.649486,-4.150677 4.880275,-1.336497 9.288962,-1.816969 14.31916,-1.543137 4.1085,0.351919 8.17821,1.230469 12.0582,2.620987 1.51602,0.680964 1.87397,0.80179 3.30832,1.599715 0.4981,0.277092 1.97104,1.145232 1.46975,0.873946 -1.27607,-0.690585 -2.50352,-1.47065 -3.79486,-2.132248 -0.45913,-0.235225 0.86396,0.564023 1.293,0.850463 0.40605,0.271082 0.80813,0.54804 1.2122,0.822061 1.96532,1.381911 4.00252,2.655054 6.02346,3.952607 1.91473,1.190576 7.78813,4.718558 7.32533,4.04195 -0.23365,-0.34159 -0.56735,-0.602669 -0.85103,-0.904004 0,0 -0.23605,-0.188941 -0.23605,-0.188941 v 0 c -0.7681,-0.545413 -1.52925,-1.100751 -2.3043,-1.636237 -0.50742,-0.350579 -2.08652,-1.312413 -1.54263,-1.021622 0.4999,0.267269 6.70942,3.904293 3.37982,1.955028 -2.0652,-1.32205 -4.15639,-2.604231 -6.17617,-3.995876 -4.18808,-2.829792 -8.46993,-5.633501 -13.21935,-7.419027 -3.72345,-1.238022 -7.49312,-1.849737 -11.42036,-1.967745 -1.738449,-0.06499 -2.626056,-0.142413 -4.375384,-0.02623 -3.330477,0.221192 -6.561536,1.106656 -9.810089,1.807858 -4.72406,1.107565 -9.503738,2.13775 -13.989442,4.035266 -2.407705,1.143337 -4.521771,2.620307 -6.40977,4.502772 0,0 3.365961,2.074088 3.365961,2.074088 z" />
    <path
       style="fill:#000000"
       id="path375"
       d="M 59.110524,51.591756 C 58.685,49.937601 58.826089,48.263217 58.930729,46.585842 c -0.133446,-1.941903 -0.225749,-3.875844 -0.16438,-5.822565 0.05628,-1.237637 0.01198,-2.505382 0.338928,-3.710069 0.145494,-0.1502 0.07319,-0.56246 0.274089,-0.679756 0.08832,-0.05156 0.317307,0.253665 0.226127,0.207351 -1.215051,-0.617172 -2.395089,-1.300982 -3.592634,-1.951474 1.849545,2.123109 3.180434,4.670906 4.606965,7.089205 0.710377,0.566741 1.724534,3.805104 2.448853,4.243218 0.5972,0.361225 1.251015,0.619264 1.876523,0.928895 0,0 0.343349,0.148083 0.343349,0.148083 v 0 c 0.550254,0.208668 1.075968,0.499777 1.650763,0.626002 0.10109,0.0222 -0.06358,-0.198499 -0.114461,-0.288629 -0.121271,-0.214823 -0.267395,-0.414639 -0.39998,-0.62267 -0.724153,-1.136222 -1.452388,-2.26993 -2.159218,-3.417075 -1.384139,-2.314436 -2.648601,-4.697108 -4.04512,-7.002558 -0.640164,-0.380771 -5.115262,-4.501051 -5.029699,-1.341821 -0.02257,1.295982 -0.225324,2.5893 -0.108559,3.889626 0.0223,1.954832 0.02527,3.908906 0.207224,5.857704 0.161681,1.704947 0.247246,3.407752 0.307371,5.119495 0,0 3.513654,1.732952 3.513654,1.732952 z" />
    <path
       style="fill:#000000"
       id="path377"
       d="m 144.36465,53.054981 c 2.07488,-2.465951 4.39116,-4.726167 6.56422,-7.122776 1.58745,-1.500686 2.8273,-3.516875 4.70884,-4.689645 1.82819,0.431068 1.71096,0.424884 -4.26429,-2.309553 -0.0966,-0.04423 0.037,0.211417 0.0298,0.317461 -0.0173,0.255972 -0.062,0.509487 -0.10286,0.762765 -0.19526,1.20964 -0.2288,1.235511 -0.53484,2.525586 -0.57882,2.455286 -1.46263,4.825549 -2.15406,7.247034 -0.17458,0.611398 -0.50271,1.217498 -0.45782,1.851746 0.0546,0.771031 0.49621,1.464118 0.74431,2.196177 0.0317,0.485753 0.0635,0.971505 0.0952,1.457257 0,0 0.26341,0.148459 0.26341,0.148459 v 0 c 0.36685,-0.264657 0.7337,-0.529314 1.10056,-0.79397 0.62352,-0.252602 1.37704,-0.300632 1.87058,-0.757805 0.4534,-0.419985 0.54146,-1.11248 0.76888,-1.687141 0.92261,-2.33126 1.52756,-4.784095 2.41659,-7.128054 0.12923,-0.383712 1.29721,-3.72179 0.90747,-3.998816 -4.45257,-3.164932 -3.29339,-3.792221 -5.11804,-2.609126 -1.51361,1.593184 -2.69548,3.490619 -4.21214,5.085325 -1.22542,1.400369 -2.53631,2.744797 -3.71203,4.186987 -0.85677,1.050942 -1.58661,2.205346 -2.71877,3.003176 0,0 3.80495,2.314913 3.80495,2.314913 z" />
    <path
       style="fill:#000000"
       id="path391"
       d="m 87.920615,129.87755 c -0.258925,0.51043 -0.794077,0.79233 -1.118894,1.24422 -0.23505,0.32701 -0.351478,0.73217 -0.486921,1.10261 -0.504011,1.62994 -0.515035,3.16422 -0.24579,4.83268 0.383748,1.49247 0.990834,2.95379 1.950615,4.17326 0.185422,0.23559 0.395703,0.45051 0.593554,0.67577 1.289065,1.26955 2.864655,2.1292 4.497877,2.89635 0.463442,0.21769 1.161246,0.27436 1.656413,0.34176 1.64119,0.14965 2.825284,-0.46738 4.076949,-1.44509 0.953056,-0.81991 1.510092,-1.93046 2.016232,-3.05553 0.31687,-0.64424 0.46394,-1.3481 0.68964,-2.02451 0.31775,-0.94315 0.78304,-0.21159 -1.986905,-1.23078 -0.07805,-0.0287 0.05703,0.15637 0.08064,0.23611 0.03091,0.10438 0.0552,0.2106 0.08281,0.3159 0.227739,1.09491 0.455825,2.18819 0.729985,3.27279 0.31313,1.22963 0.81784,2.37978 1.55985,3.40719 0.93818,1.09614 2.27319,1.69851 3.57386,2.28966 0.25206,0.11456 0.97041,0.10199 1.22168,0.10762 1.68427,-0.11833 3.18819,-0.91891 4.61041,-1.76786 1.97084,-1.1831 3.10016,-2.78277 4.17532,-4.76135 0.88765,-1.68778 1.01431,-3.52068 0.9118,-5.38623 0.005,-0.47987 0.10835,-1.38394 -0.18583,-1.81932 -0.31225,-0.46212 -1.0247,-0.92306 -1.44885,-1.23539 0,0 -0.13804,-0.0617 -0.13804,-0.0617 v 0 c -0.054,3.3e-4 -0.73602,-0.081 -0.76905,0.19142 -0.0227,0.18762 0.13534,0.35293 0.20498,0.52862 0.45192,1.14012 0.11282,0.23349 0.57671,1.51682 0.18707,1.83337 0.0421,3.66379 -0.72654,5.36408 -1.06626,2.06304 -2.13049,3.46353 -4.18545,4.63219 -1.46534,0.79211 -2.99539,1.56354 -4.7015,1.56748 -0.21219,-0.0175 -0.42626,-0.0193 -0.63656,-0.0525 -0.1991,-0.0315 -0.73408,-0.27982 -0.58804,-0.1409 0.38124,0.36267 0.89591,0.55274 1.33142,0.84806 0.14544,0.0986 -0.31372,-0.16012 -0.46016,-0.25725 -0.38835,-0.25758 -0.48254,-0.38919 -0.80771,-0.72131 -0.7967,-0.99195 -1.3413,-2.11515 -1.64815,-3.35439 -0.26688,-1.04342 -0.477,-2.09799 -0.55646,-3.17417 -0.0112,-0.0996 -0.0236,-0.19906 -0.0336,-0.29877 -0.008,-0.0747 0.0431,-0.18251 -0.0192,-0.22445 -2.327904,-1.56739 -2.098856,-2.02111 -2.223818,-0.89865 -0.09625,0.71006 -0.25481,1.41392 -0.487396,2.09197 -0.43707,1.11835 -0.969873,2.20047 -1.884377,3.01155 -1.191839,0.94775 -2.348067,1.50125 -3.912354,1.36203 -0.26905,-0.0422 -0.541858,-0.0649 -0.807149,-0.12647 -0.272011,-0.0631 -0.863169,-0.51856 -0.80063,-0.24642 0.07943,0.34565 0.638627,0.33762 0.881074,0.59647 0.194666,0.20784 -0.496174,-0.28063 -0.73315,-0.43853 -0.645941,-0.43041 -0.799939,-0.60317 -1.38187,-1.1192 -0.205691,-0.22134 -0.423252,-0.43221 -0.617074,-0.66401 -0.984139,-1.17698 -1.612833,-2.59366 -1.958577,-4.08042 -0.286402,-1.60582 -0.275558,-3.12965 0.312804,-4.67524 0.08139,-0.18835 0.162779,-0.37671 0.244169,-0.56506 0.08377,-0.16194 0.175466,-0.32002 0.251308,-0.48582 0.234799,-0.5133 0.353118,-1.0262 0.880317,-1.32842 0,0 -1.560382,-0.96688 -1.560382,-0.96688 z" />
    <path
       style="fill:#000000"
       id="path393"
       d="m 102.52829,123.50675 c -0.50114,-0.57832 -0.87509,-1.25266 -1.25841,-1.91124 -0.43348,-0.72995 -0.81741,-1.48738 -1.17211,-2.25823 -0.0288,-0.11878 -0.346637,-0.62426 -0.0765,-0.6335 0.82547,-0.0977 1.66111,-0.0952 2.49145,-0.10929 0.83843,0.0465 1.95452,-0.19399 2.7202,0.23983 -0.95048,-0.53807 -1.90096,-1.07615 -2.85143,-1.61423 0.10253,0.0133 0.0913,-0.009 0.0415,0.16711 -0.13602,0.47951 -0.35088,0.95381 -0.50774,1.42688 -0.35204,0.81273 -0.51295,1.49212 -0.54298,2.37636 -0.009,0.2656 -0.0802,0.54336 -0.002,0.79727 0.48544,1.57068 0.70867,0.41663 0.41696,1.41117 0,0 0.13236,0.073 0.13236,0.073 v 0 c 0.36776,-0.9317 -0.1592,0.0482 1.09715,-0.57467 0.21232,-0.10527 0.31376,-0.35544 0.46309,-0.53946 0.16493,-0.20327 0.34249,-0.39888 0.47936,-0.622 0.11147,-0.18174 0.55622,-1.19803 0.64898,-1.40656 1.37013,-2.45979 1.67935,-1.40551 -2.06752,-3.5778 -0.77948,-0.038 -1.55215,0.2845 -2.34159,0.16407 -0.936906,-0.006 -1.906853,-0.12955 -2.828004,0.0501 -0.462814,0.33643 -0.278747,0.66465 -0.06193,1.11018 0.412403,0.76656 0.811533,1.5402 1.231599,2.30261 0.351054,0.63236 0.706203,1.26274 1.072915,1.88614 0,0 2.91444,1.24225 2.91444,1.24225 z" />
    <path
       style="fill:#000000"
       id="path397"
       d="m 116.28709,83.626907 c -0.21474,0.19275 -0.39719,0.428304 -0.63427,0.596104 -0.11218,0.0794 -0.24579,0.126079 -0.35545,0.20892 -0.25921,0.195813 -0.3768,0.380648 -0.57454,0.633442 -0.60759,0.778022 -1.05925,1.648281 -1.46819,2.541635 -0.47445,1.11679 -0.77068,2.29302 -1.03391,3.473676 -0.24691,1.240172 -0.32121,2.504469 -0.43207,3.761509 -0.0923,1.31298 -0.25148,2.619694 -0.35699,3.931428 -0.10078,1.249879 -0.0755,2.504009 -0.0306,3.755549 0.0595,1.06315 0.15602,2.12491 0.33151,3.17541 0.13059,0.83112 0.37909,1.63395 0.66705,2.42209 0.25215,0.7366 0.64833,1.38148 1.15072,1.97026 1.29407,1.25136 2.87905,2.41249 4.66884,2.74968 0.69312,0.0935 1.32188,-0.0811 1.9387,-0.38084 0.73895,-0.37741 1.32041,-0.95235 1.85014,-1.57826 0.5333,-0.65447 0.9842,-1.37134 1.44203,-2.07936 0.42705,-0.6277 0.71814,-1.32749 0.99456,-2.03024 0.30618,-0.78493 0.41367,-1.6236 0.51435,-2.45434 0.10419,-1.07863 0.1839,-2.15991 0.26172,-3.24083 0.10309,-1.326045 0.0586,-2.657918 0.0262,-3.985935 -0.0313,-1.254707 -0.21476,-2.499349 -0.3599,-3.744559 -0.13577,-1.155628 -0.29442,-2.309282 -0.52485,-3.450074 -0.22751,-0.907675 -0.47902,-1.810765 -0.9278,-2.635273 -0.39837,-0.490923 -0.96164,-1.312967 -1.51355,-1.639189 -0.22817,-0.13487 -0.47376,-0.237829 -0.71065,-0.356744 -1.41496,-0.65728 -0.87629,-0.532682 -1.51857,-0.66716 0,0 0.11833,0.09409 0.11833,0.09409 v 0 c 0.62261,0.352736 0.5072,0.269481 -0.40815,-0.125188 -0.0389,6.27e-4 -0.13811,-0.03063 -0.11673,0.0019 0.0547,0.08309 0.16155,0.116448 0.23711,0.181123 0.0941,0.08056 0.18718,0.163087 0.27129,0.254053 0.32236,0.348641 0.14802,0.195089 0.373,0.567773 0.0707,0.117046 0.15345,0.226327 0.23017,0.339491 0.49927,0.788027 0.73361,1.668305 0.99761,2.557134 0.29641,1.131952 0.46112,2.288008 0.60337,3.448443 0.14926,1.243698 0.29367,2.488819 0.40611,3.73622 0.0465,1.308702 0.0308,2.621686 -0.0557,3.928459 -0.10985,1.061946 -0.23049,2.122726 -0.33934,3.184796 -0.11072,0.79991 -0.26772,1.59284 -0.52493,2.36003 -0.24923,0.69033 -0.56234,1.35451 -0.92979,1.99025 -0.42818,0.70819 -0.89783,1.39042 -1.41493,2.03704 -0.50975,0.5861 -1.07422,1.11724 -1.79549,1.43414 -0.59238,0.23038 -1.19905,0.34148 -1.82896,0.18682 -1.1107,-0.34341 -2.69347,-1.42715 2.01973,1.2968 0.10408,0.0602 -0.20492,-0.12604 -0.30314,-0.19535 -0.10228,-0.0722 -0.20156,-0.14875 -0.29783,-0.22878 -0.0977,-0.0812 -0.18906,-0.16974 -0.2836,-0.25461 -0.52041,-0.53878 -0.92724,-1.14385 -1.18746,-1.8518 -0.31912,-0.77273 -0.5703,-1.5674 -0.74022,-2.38709 -0.21325,-1.05002 -0.35747,-2.11142 -0.43986,-3.17998 -0.0763,-1.23828 -0.0409,-2.47733 0.0244,-3.71573 0.0781,-1.314319 0.20767,-2.623624 0.33763,-3.933665 0.11793,-1.241183 0.23842,-2.485252 0.43091,-3.716932 0.24704,-1.155741 0.57089,-2.300221 1.05375,-3.381667 0.40249,-0.865996 0.86161,-1.708201 1.46854,-2.450574 0.17013,-0.213308 0.34626,-0.415655 0.4811,-0.654651 0.0571,-0.101156 0.079,-0.221055 0.14417,-0.317203 0.15913,-0.234824 0.43457,-0.379568 0.66635,-0.527039 0,0 -2.60191,-1.655187 -2.60191,-1.655187 z" />
    <path
       style="fill:#000000"
       id="path399"
       d="m 80.408334,83.77325 c -0.77811,0.714798 -1.299875,1.625671 -1.740262,2.574669 -0.40073,1.270639 -1.110963,2.408496 -1.586359,3.646822 -0.24297,0.632895 -0.461225,1.417233 -0.653402,2.066791 -0.499232,2.102129 -0.851771,4.245378 -0.975908,6.40304 -0.01276,1.936828 0.06161,3.875558 0.241273,5.804098 0.137711,1.41535 0.329421,2.82113 0.635543,4.2098 0.191156,0.84688 0.510617,1.64724 0.973569,2.38018 0.235969,0.29099 0.502327,0.57547 0.83307,0.76159 1.791926,1.00841 2.485272,2.22451 4.097442,1.86505 0.800516,-0.30037 1.402531,-0.91192 1.862441,-1.6131 0.797001,-1.08771 1.652534,-2.12856 2.335372,-3.29382 0.838034,-1.1192 1.460829,-2.34281 1.874949,-3.67396 0.392203,-1.45825 0.479942,-2.97128 0.591788,-4.47026 0.136332,-1.716791 0.108311,-3.43798 -0.03375,-5.152529 -0.191115,-1.766383 -0.456825,-3.530507 -0.928659,-5.244995 -0.151532,-0.664802 -0.503002,-1.248691 -0.783955,-1.860966 -0.197283,-0.429936 -0.371859,-0.864887 -0.582412,-1.289122 -0.378986,-0.637027 -0.0424,-0.139128 -0.680991,-0.831606 -0.107677,-0.116764 -0.194214,-0.252168 -0.304163,-0.366796 -0.746468,-0.778232 -1.819551,-1.250946 -2.714409,-1.769952 -0.215731,-0.09609 -0.987337,-0.506519 -1.228072,-0.258356 -0.0586,0.06041 -0.04366,0.162567 -0.06694,0.243441 -0.02798,0.09717 -0.05788,0.193776 -0.08683,0.290664 0,0 0.125934,0.08364 0.125934,0.08364 v 0 c 0.173706,0.0063 0.34919,-0.0066 0.521117,0.01894 0.748335,0.11137 1.457823,0.446917 2.138324,0.757121 -0.395586,-0.23169 -0.780919,-0.481851 -1.186759,-0.69507 -0.123077,-0.06466 0.229123,0.158278 0.335474,0.247824 0.137211,0.115528 0.507218,0.478465 0.593738,0.634775 0.04251,0.07681 0.03096,0.172825 0.04644,0.259237 0.06335,0.114134 0.126699,0.228267 0.190048,0.3424 0.231989,0.425471 0.476618,0.85528 0.661898,1.303843 0.160205,0.387857 0.225498,0.687604 0.365702,1.085837 0.079,0.22439 0.168687,0.444873 0.25303,0.667309 0.55836,1.699489 0.877331,3.454741 1.039521,5.236308 0.122587,1.693337 0.101434,3.387705 -0.01646,5.081653 -0.119462,1.47398 -0.191887,2.9709 -0.587186,4.4023 -0.430922,1.29053 -1.011135,2.51082 -1.839273,3.59959 -0.875973,1.0212 -1.621778,2.15464 -2.590441,3.09326 -0.661555,0.48199 -1.299137,1.09416 -2.162646,1.1117 -0.109621,-0.0154 -0.22124,-0.0203 -0.328862,-0.0462 -0.110437,-0.0266 -0.419086,-0.1701 -0.322337,-0.11058 0.955081,0.58759 1.940124,1.12512 2.903687,1.69869 0.06825,0.0406 -0.724656,-0.37362 -0.697495,-0.52575 -0.510173,-0.68588 -0.852125,-1.45892 -1.08617,-2.28119 -0.40824,-1.38668 -0.617168,-2.81237 -0.818222,-4.24184 -0.277223,-1.93367 -0.484235,-3.8754 -0.425072,-5.83309 0.04398,-2.163084 0.15252,-4.326889 0.771785,-6.417009 0.38587,-1.379571 0.182883,-0.689485 0.609447,-2.070116 0.369775,-1.282191 0.573849,-2.622151 1.232771,-3.803844 0.446977,-0.891599 0.849464,-1.834914 1.48851,-2.608391 0,0 -2.295844,-1.412042 -2.295844,-1.412042 z" />
    <path
       style="fill:#000000"
       id="path401"
       d="m 136.87405,123.34135 c 0.98111,-0.0695 1.95911,-0.0177 2.93965,0.0369 1.95304,0.12001 3.83635,0.60272 5.65549,1.30136 0.53455,0.22638 0.94291,0.38441 1.45209,0.65536 0.21264,0.11315 0.83336,0.48354 0.62346,0.36538 -5.99654,-3.37569 -3.9876,-2.36936 -2.67715,-1.40835 0.91717,0.80407 2.08927,1.17394 3.19027,1.65419 0,0 0.12779,0.0808 0.12779,0.0808 v 0 c 0.5341,0.19709 1.1936,0.45058 1.73761,0.60833 0.0762,0.0221 0.21602,0.10628 0.23605,0.0296 0.0102,-0.039 -0.87585,-0.53563 -0.87234,-0.62158 -2.19333,-1.59869 -4.54422,-3.05287 -7.12066,-3.9289 -1.75687,-0.47197 -3.54221,-0.81646 -5.35879,-0.9575 -1.00231,-0.1041 -2.09093,-0.28731 -3.07547,-0.003 0,0 3.142,2.18744 3.142,2.18744 z" />
    <path
       style="fill:#000000"
       id="path403"
       d="m 135.08418,128.80083 c 0.69284,0.33956 1.45634,0.31992 2.19836,0.43572 0.74354,0.11603 0.79763,0.15204 1.55686,0.35088 1.79489,0.50213 3.50556,1.24212 5.1223,2.16309 -5.91721,-3.41106 -3.49794,-2.15725 -2.34463,-1.14496 0.33636,0.29522 0.6151,0.56985 0.9867,0.82522 1.20812,0.60747 0.56844,0.29521 1.92152,0.9317 0,0 0.13582,0.0664 0.13582,0.0664 v 0 c 1.27213,0.49571 0.6878,0.30453 1.74125,0.60825 0.0269,-0.0332 0.0965,-0.0597 0.0808,-0.0995 -0.0374,-0.0951 -0.53764,-0.56936 -0.55752,-0.58762 -1.57957,-1.45017 -3.65654,-2.32963 -5.44542,-3.40476 -1.62832,-0.8474 -3.3399,-1.52159 -5.11118,-2.00887 -0.75769,-0.17305 -1.51215,-0.33051 -2.28365,-0.43002 -0.16255,-0.021 -0.65531,-0.13422 -0.86016,0.0243 -0.048,0.0371 -0.0254,0.1186 -0.0381,0.17791 0,0 2.897,2.09224 2.897,2.09224 z" />
    <path
       style="fill:#000000"
       id="path405"
       d="m 133.10551,135.8993 c 0.95662,-0.37075 2.00882,-0.0523 2.9534,0.1993 0.30568,0.11442 0.61707,0.2146 0.91704,0.34326 0.31544,0.13529 1.22081,0.6256 0.92723,0.44777 -0.90709,-0.54948 -1.8247,-1.08449 -2.77048,-1.56433 -0.28492,-0.14455 0.52849,0.35985 0.78134,0.55516 0.51488,0.3977 0.76514,0.65717 1.22706,1.09705 0.86764,0.98601 1.97166,1.62149 3.12827,2.20584 0,0 0.13836,0.0609 0.13836,0.0609 v 0 c 0.26194,0.0915 0.51695,0.20593 0.78581,0.27444 0.17153,0.0437 0.55442,0.0584 0.51844,-0.11492 -0.0278,-0.13406 -0.14579,-0.23246 -0.23084,-0.33977 -0.12691,-0.16013 -0.26927,-0.30738 -0.40391,-0.46108 -0.45828,-0.46079 -0.7045,-0.72792 -1.21316,-1.15342 -2.11095,-1.76589 -4.62923,-3.05701 -7.21715,-3.96864 -1.1303,-0.30275 -2.42907,-0.70811 -3.53653,-0.11929 0,0 3.99512,2.5377 3.99512,2.5377 z" />
    <path
       style="fill:#000000"
       id="path409"
       d="m 70.730572,119.58444 c -0.773834,-0.41483 -1.578949,-0.49936 -2.44032,-0.46377 -1.550136,0.17113 -3.020752,0.70458 -4.472153,1.24653 -1.469708,0.57358 -2.906299,1.2267 -4.31241,1.94118 -0.602085,0.34301 -1.252137,0.59496 -1.86335,0.91914 -0.157254,0.0834 -0.339798,0.14105 -0.458569,0.27364 -0.09198,0.10268 -0.164947,0.25559 -0.136313,0.39043 0.04874,0.22952 0.232691,0.40752 0.349037,0.61128 0,0 0.126287,0.0831 0.126287,0.0831 v 0 c 0.682017,0.19048 1.023084,0.39651 1.700783,0.25561 0.188099,-0.0391 0.356838,-0.14339 0.529547,-0.22755 0.612698,-0.29856 1.188186,-0.67459 1.812557,-0.95118 1.390374,-0.6947 2.775643,-1.40682 4.228728,-1.96455 1.486189,-0.5494 3.019375,-1.0101 4.617747,-1.03652 0.701548,0.026 1.366797,0.19455 2.056699,0.26441 0,0 -1.73827,-1.34176 -1.73827,-1.34176 z" />
    <path
       style="fill:#000000"
       id="path411"
       d="m 70.550742,124.82591 c -1.565201,-0.15994 -3.011592,0.33594 -4.452324,0.87774 -2.293051,0.88225 -4.416712,2.12395 -6.517578,3.38301 -0.51378,0.34981 -1.40935,0.63373 -1.467617,1.38701 -0.03551,0.45908 0.224128,0.68569 0.465566,1.03695 0,0 0.127705,0.0809 0.127705,0.0809 v 0 c 0.267904,0.0703 0.530255,0.16684 0.803711,0.21077 1.206274,0.19378 1.887108,-0.24014 2.796156,-0.96497 1.99301,-1.38876 4.096492,-2.61357 6.430102,-3.34212 1.37371,-0.39032 2.776254,-0.71729 4.187302,-0.92948 0,0 -2.373023,-1.73982 -2.373023,-1.73982 z" />
    <path
       style="fill:#000000"
       id="path413"
       d="m 71.535886,133.66171 c -0.708558,-0.0352 -1.416482,-0.21853 -2.127713,-0.20517 -0.967038,0.0182 -1.914048,0.39838 -2.81506,0.70077 -1.725492,0.69619 -3.608053,1.34357 -5.048784,2.57314 -0.238323,0.20339 -0.43129,0.45459 -0.646935,0.68189 -0.690227,2.76637 0.202171,-1.48102 0.184356,1.92232 -10e-4,0.19569 -0.268396,0.28486 -0.402593,0.42729 0,0 0.129136,0.0786 0.129136,0.0786 v 0 c 0.134103,-0.14227 0.210682,-0.38803 0.40231,-0.42683 0.468012,-0.0947 0.95429,0.0371 1.431435,0.0556 0.354437,-0.0962 0.708874,-0.19238 1.063311,-0.28857 2.408217,-1.39449 -0.681318,0.41631 1.762277,-1.08856 1.298674,-0.79977 2.691426,-1.43153 4.155044,-1.86409 0.362532,-0.0933 0.722934,-0.19532 1.087595,-0.27992 0.155704,-0.0361 1.468851,-0.28025 1.70582,-0.38184 0.333737,-0.14307 0.532616,-0.50044 0.844508,-0.67703 0,0 -1.724707,-1.22763 -1.724707,-1.22763 z" />
    <path
       style="fill:#000000"
       id="path415"
       d="m 69.760615,157.28956 c -0.868366,0.35517 -1.256024,1.19161 -1.656192,1.98106 -0.09611,0.19742 -0.186104,0.39793 -0.288325,0.59225 -0.114932,0.21848 -0.256152,0.42301 -0.36285,0.64563 -0.594999,1.24143 -0.962256,2.61 -1.370928,3.91866 -0.937881,2.918 -1.934696,5.81798 -3.071431,8.66477 -1.118798,2.81308 -2.111928,5.67444 -3.09718,8.53645 -0.881015,2.51086 -1.621502,5.06942 -2.299897,7.64163 -0.611195,2.31741 -1.153971,4.65212 -1.664106,6.9936 -0.432924,2.05852 -0.750973,4.13907 -0.92016,6.23554 -0.08865,1.60058 -0.11341,3.21361 0.211139,4.78924 0.190527,0.48279 0.307674,1.25557 0.813983,1.54368 2.837898,1.61493 1.803212,1.69887 3.263969,1.458 0.854865,-0.30768 1.33508,-1.03047 1.80284,-1.76579 0.420304,-0.66071 0.606815,-1.01113 0.999871,-1.70395 1.414794,-2.45196 2.510409,-5.07064 3.662728,-7.65222 1.38302,-3.30881 3.087201,-6.46546 4.749923,-9.63816 1.365491,-2.54013 2.538181,-5.17227 3.684562,-7.81573 0.270014,-2.32319 0.151039,0.36083 -0.482312,-2.22088 -0.04303,-0.17541 0.124304,-0.33917 0.186455,-0.50876 0,0 -0.13221,-0.0733 -0.13221,-0.0733 v 0 c -0.06212,0.16953 -0.02798,0.4219 -0.186355,0.50859 -2.122199,1.16166 -0.348853,-0.8331 -1.722749,0.99297 -0.92992,2.73406 -2.021625,5.40753 -3.345381,7.97711 -1.599686,3.20691 -3.247662,6.38974 -4.797841,9.62118 -1.22141,2.53412 -2.430367,5.08105 -3.906293,7.48049 -0.755588,1.16169 -1.533965,2.55562 -2.878265,3.10443 -1.195268,-0.0567 -0.384965,-0.0748 1.784056,1.2912 0.128558,0.081 -0.279107,-0.12568 -0.401576,-0.21558 -0.452899,-0.33249 -0.679252,-0.79779 -0.862535,-1.3139 -0.464269,-1.56809 -0.552456,-3.20298 -0.465141,-4.83192 0.139597,-2.09968 0.408131,-4.18495 0.841169,-6.24578 0.444121,-2.36182 0.967514,-4.70615 1.562406,-7.03477 0.675859,-2.57643 1.38849,-5.14283 2.202123,-7.67978 0.945581,-2.87686 1.947777,-5.7325 3.051427,-8.55308 1.043816,-2.87077 2.178501,-5.70821 3.250766,-8.56856 0.419901,-1.00144 0.85598,-1.9965 1.2602,-3.00442 0.105042,-0.26193 0.206018,-0.52546 0.309026,-0.78819 0.07553,-0.23689 0.134654,-0.47966 0.226589,-0.71068 0.07994,-0.20086 0.19171,-0.38755 0.287565,-0.58132 0.428391,-0.7242 1.014568,-1.40536 1.103495,-2.26937 0,0 -1.342565,-0.80031 -1.342565,-0.80031 z" />
    <path
       style="fill:#000000"
       id="path417"
       d="m 138.7674,154.80196 c 0.77375,1.24148 1.43614,2.54321 2.07764,3.85638 1.13977,2.42418 2.12719,4.91539 3.15606,7.3875 1.02305,2.45126 2.14996,4.85625 3.19109,7.29965 1.0348,2.49201 2.05249,4.99186 2.9652,7.53147 0.70785,2.07422 1.24264,4.2022 1.73881,6.33531 0.41635,1.92584 0.82446,3.8539 1.17952,5.79213 0.19352,1.32636 0.49567,2.69984 0.24523,4.0417 -0.0378,0.20269 -0.1051,0.39876 -0.15765,0.59814 -0.35777,0.90261 -0.92889,1.78682 -1.83293,2.22429 -0.16974,0.0821 -0.35558,0.1257 -0.53337,0.18855 -0.19068,0.0189 -0.38046,0.0599 -0.57205,0.0567 -0.44487,-0.008 -0.86357,-0.1187 -1.26536,-0.30836 -0.25127,-0.11861 -0.98256,-0.51235 -0.7213,-0.41776 1.19562,0.43287 1.92067,1.20453 0.33165,-0.18446 -0.91102,-0.90419 -1.75781,-1.88525 -2.42888,-2.98399 -0.22422,-0.36712 -0.40213,-0.76064 -0.60968,-1.13743 -0.11098,-0.20148 -1.40315,-2.48241 -1.47903,-2.61645 -1.52595,-2.65429 -2.9041,-5.38572 -4.25477,-8.13176 -0.19587,-0.40578 -0.39407,-0.81044 -0.58762,-1.21733 -0.44527,-0.93608 -0.76455,-1.60422 -1.14893,-2.56672 -0.15766,-0.39479 -0.30422,-0.79409 -0.44273,-1.196 -0.11606,-0.33677 -0.17443,-0.69458 -0.32073,-1.01935 -0.15322,-0.34011 -0.38122,-0.6413 -0.57183,-0.96195 -1.0718,-1.0093 -0.81591,-0.51065 -1.11925,-1.25477 0,0 -0.13667,-0.0646 -0.13667,-0.0646 v 0 c 0.0956,0.51119 0.1493,0.26664 -0.60864,0.44016 -0.0837,1.05079 -0.13746,0.48175 0.3649,1.75059 0.67254,1.69868 1.3688,3.39084 2.20299,5.01792 1.38707,2.753 2.87893,5.45057 4.3229,8.17385 0.44064,0.82682 0.95205,1.82504 1.45552,2.61968 0.95774,1.51168 2.02825,2.97526 3.24938,4.28391 1.56343,1.5006 0.68948,0.76678 3.68838,2.58732 0.88678,0.53833 1.80557,0.86164 2.8393,0.59742 0.18391,-0.0805 0.37663,-0.14319 0.55172,-0.24135 0.9294,-0.52103 1.54425,-1.43174 1.90027,-2.41167 0.047,-0.21653 0.11151,-0.42999 0.14108,-0.64959 0.18895,-1.40283 -0.17128,-2.81307 -0.38591,-4.18857 -0.39015,-1.94402 -0.78195,-3.88867 -1.21466,-5.8235 -0.57874,-2.15978 -1.13373,-4.33129 -1.89446,-6.43588 -0.97358,-2.53578 -2.03308,-5.03776 -3.02248,-7.56744 -1.01469,-2.46108 -2.16765,-4.85984 -3.21098,-7.30856 -1.02082,-2.43314 -2.00836,-4.87962 -3.00241,-7.32378 -0.5328,-1.28332 -1.03571,-2.60716 -1.77774,-3.78583 0,0 -2.30158,-0.98552 -2.30158,-0.98552 z" />
    <path
       style="fill:#000000"
       id="path419"
       d="m 75.048194,174.92578 c -0.219074,0.92885 0.161424,-0.55624 -0.276978,0.62137 -0.08989,0.24146 -0.169491,0.97499 -0.212604,1.18584 -0.147971,0.72369 -0.208928,0.79549 -0.477163,1.50667 -0.472932,2.08676 -0.929289,4.17718 -1.364938,6.27204 -0.08174,0.38948 -0.145148,0.78326 -0.24523,1.16844 -0.332203,1.27852 -0.376099,0.91687 -0.64092,2.23023 -0.256639,1.27278 -0.333954,2.60146 -0.460619,3.89111 -0.249238,2.83683 -0.543619,5.669 -0.756253,8.50891 -0.235171,2.86246 -0.350033,5.73269 -0.525185,8.59918 -0.252621,2.92389 -0.318699,5.85687 -0.381999,8.78952 -0.05067,2.5999 -0.244417,5.19326 -0.302905,7.79282 -0.02865,2.10682 -0.169405,4.20859 -0.288455,6.31143 -0.09813,1.77012 -0.384545,3.52142 -0.607063,5.27831 -0.219455,1.55403 -0.299652,3.12097 -0.312658,4.68875 -0.01166,1.60891 0.06766,3.21726 0.155651,4.82333 0.0964,1.58 0.151833,3.16181 0.281999,4.73955 0.134558,1.54637 0.346337,3.07882 0.629243,4.60415 0.245569,1.54651 0.629199,3.06453 1.068649,4.56585 0.39628,1.27166 0.810541,2.53808 1.277901,3.78552 0.405351,1.0107 0.955315,1.95617 1.558689,2.86 0.528265,0.77572 1.212861,1.40747 1.965153,1.95889 1.472807,1.04912 2.991285,1.90917 4.739844,2.28183 0.817198,0.1657 1.644416,0.13563 2.468168,0.0559 0.751137,-0.047 1.410985,-0.30026 2.048177,-0.68361 0.707199,-0.46334 1.325055,-1.04242 1.922558,-1.63629 0.623988,-0.57354 1.069465,-1.27544 1.442544,-2.02824 0.453074,-0.92934 0.610226,-1.96135 0.799695,-2.96793 0.254491,-1.40693 0.596527,-2.79714 1.001808,-4.16778 0.45577,-1.47339 0.9781,-2.92503 1.475659,-4.38458 0.479375,-1.51646 0.656993,-3.09932 0.818989,-4.67424 0.145513,-1.51193 0.189475,-3.03017 0.268342,-4.5462 0.07424,-1.53527 0.236587,-3.06471 0.420918,-4.59015 0.185183,-1.36136 0.37395,-2.72119 0.530537,-4.08622 0.119891,-1.22486 0.222363,-2.45139 0.372142,-3.6731 0.178252,-1.41003 0.308415,-2.82568 0.522421,-4.23092 0.232365,-1.23297 0.389347,-2.4778 0.586307,-3.71651 0.161577,-0.96326 0.281933,-1.93254 0.33772,-2.90767 0.03457,-0.88593 0.12996,-1.76882 0.340802,-2.6306 0.298632,-1.02603 0.400145,-0.76164 -1.384702,-1.4068 -0.107529,-0.0389 0.13409,0.18523 0.201135,0.27785 0,0 0.165544,0.0906 0.165544,0.0906 v 0 c 0.09668,-0.004 0.367362,0.0456 0.290039,-0.0126 -1.625779,-1.22349 -1.497209,-1.30892 -1.654489,-0.21744 -0.110953,0.89662 -0.202567,1.79532 -0.282265,2.69526 -0.07501,0.97669 -0.141866,1.95382 -0.262968,2.92646 -0.145511,1.25466 -0.368739,2.49806 -0.515651,3.75262 -0.183241,1.40345 -0.384663,2.80464 -0.572013,4.20753 -0.171347,1.22029 -0.326654,2.44043 -0.391078,3.6722 -0.115979,1.37612 -0.298262,2.74492 -0.46387,4.11572 -0.178523,1.53016 -0.359,3.05995 -0.437538,4.59952 -0.08277,1.50923 -0.168459,3.01883 -0.283578,4.52588 -0.145329,1.55795 -0.319344,3.12536 -0.797415,4.62261 -0.474983,1.4685 -1.042834,2.90437 -1.51182,4.37502 -0.398312,1.37238 -0.739535,2.75897 -1.086789,4.14496 -0.223323,0.96969 -0.429531,1.95012 -0.869811,2.85084 -0.361703,0.72334 -0.791861,1.39751 -1.384179,1.95787 -0.590475,0.57817 -1.20865,1.13169 -1.925361,1.55141 -0.614158,0.33837 -1.269035,0.53671 -1.971177,0.59174 -0.797552,0.0701 -1.59996,0.0773 -2.385617,-0.10339 -1.487334,-0.36711 -3.008926,-1.39102 0.331315,0.57982 0.125304,0.0739 -0.252653,-0.14434 -0.37898,-0.21651 -0.781359,-0.52309 -1.494287,-1.13424 -2.056881,-1.89465 -0.643688,-0.88932 -1.222008,-1.82466 -1.655206,-2.8366 -0.514574,-1.24809 -0.966699,-2.52171 -1.375463,-3.80824 -0.46525,-1.50136 -0.885367,-3.01766 -1.146442,-4.5699 -0.237493,-1.51641 -0.448725,-3.03845 -0.598015,-4.56626 -0.144285,-1.58606 -0.268856,-3.17427 -0.35187,-4.76478 -0.0737,-1.60378 -0.163266,-3.20754 -0.169331,-4.81348 0.02707,-1.56119 0.114272,-3.11947 0.290912,-4.67152 0.203031,-1.77757 0.42723,-3.55375 0.516273,-5.34198 0.120642,-2.1212 0.174851,-4.24548 0.192206,-6.37 0.04557,-2.63057 0.03679,-5.26187 0.108082,-7.89205 0.06751,-2.92651 0.200374,-5.84826 0.407191,-8.7686 0.163001,-2.8631 0.327621,-5.72598 0.542665,-8.58583 0.23321,-2.83319 0.427383,-5.6706 0.771212,-8.49334 0.165538,-1.28 0.393709,-2.56128 0.528934,-3.8444 0.08663,-0.822 0.06336,-1.65408 0.168375,-2.47393 0.05074,-0.39612 0.150201,-0.78446 0.225302,-1.17668 0.462461,-2.07682 0.996915,-4.13516 1.493198,-6.20378 0.05086,-0.72524 0.04464,-0.97846 0.178052,-1.66911 0.03897,-0.20175 0.241078,-0.91309 0.260986,-1.15514 0.01286,-0.15634 -0.0354,-0.31351 -0.02419,-0.46998 0.0067,-0.093 0.05143,-0.17931 0.07715,-0.26897 0,0 -0.992817,-0.53752 -0.992817,-0.53752 z" />
    <path
       style="fill:#000000"
       id="path427"
       d="m 134.88022,176.66358 c 0.1906,0.8461 0.34431,1.70144 0.48756,2.55695 0.16798,1.17009 0.2726,2.34963 0.33973,3.5296 0.0579,1.1557 0.12266,2.31087 0.19998,3.46546 0.0488,1.04891 0.21924,2.0833 0.36599,3.12117 0.35626,1.07476 0.42275,2.2162 0.4668,3.33979 0.0175,1.09877 0.10205,2.19482 0.1374,3.29277 -0.0725,1.35877 0.12694,2.71579 0.3225,4.05738 0.31635,1.3895 0.40367,2.80642 0.58351,4.21589 0.21479,1.71686 0.42561,3.43416 0.60213,5.15542 0.0985,1.23024 0.31511,2.45041 0.41863,3.67977 0.0542,0.6442 0.0675,1.29121 0.1058,1.93655 0.23687,1.9338 0.20767,3.87911 0.23687,5.8221 0.0292,1.80023 -0.0561,3.5993 -0.11796,5.39795 -0.0515,1.62105 0.002,3.24254 -0.007,4.86368 -0.0404,1.71507 0.0546,3.43367 0.12822,5.14773 0.0881,1.8202 0.15026,3.64221 0.26937,5.4607 0.10632,1.75716 0.18589,3.51558 0.25888,5.27438 0.0567,1.49984 -0.15102,3.01417 -0.63202,4.43564 -0.47492,1.17745 -0.79808,2.40031 -1.10104,3.63027 -0.0306,0.13199 -0.25069,1.09579 -0.29515,1.22829 -0.0642,0.19117 -0.1649,0.36817 -0.23928,0.5556 -0.22262,0.56096 -0.37764,1.14122 -0.53904,1.72165 -0.36312,1.10652 -0.75511,2.2108 -1.26159,3.26085 -0.43019,1.03251 -0.8325,2.0729 -1.36202,3.05978 -0.43281,0.57781 -0.8174,1.2012 -1.31623,1.72722 -0.004,0.005 -0.82035,0.77857 -0.83198,0.7896 -0.71681,0.72634 -1.55847,1.2272 -2.50454,1.5843 -0.81763,0.33476 -1.67607,0.47765 -2.54925,0.56184 -0.91463,0.11015 -1.7911,0.014 -2.65105,-0.30454 -1.3741,-0.66885 -3.62844,-1.9426 2.51889,1.48756 0.13482,0.0752 -0.25961,-0.16753 -0.3838,-0.25924 -0.31492,-0.23256 -0.39667,-0.3271 -0.68085,-0.59709 -0.67173,-0.70147 -1.16169,-1.54657 -1.60662,-2.40309 -0.4801,-0.97137 -1.00094,-1.92168 -1.48213,-2.89246 -0.5565,-1.12692 -0.97822,-2.31076 -1.32715,-3.5161 -0.36357,-1.41074 -0.57554,-2.85265 -0.70897,-4.30145 -0.0584,-1.70689 -0.24453,-3.401 -0.4252,-5.09793 -0.2073,-2.00933 -0.39144,-4.02211 -0.46907,-6.04098 -0.094,-2.08481 0.0879,-4.1676 0.2292,-6.24595 0.10474,-1.94803 0.23266,-3.89408 0.30863,-5.84353 -0.002,-1.7875 0.0638,-3.57327 0.1136,-5.35974 -0.0387,-1.42921 0.0415,-2.85568 0.0889,-4.28325 -0.12831,-0.72926 0.0147,-1.49561 -0.31476,-2.17305 -0.0619,-0.0897 -0.13882,-0.17061 -0.18574,-0.26893 -0.0789,-0.1654 -0.0179,-0.38024 -0.0986,-0.55369 -0.12231,-0.26276 -0.26057,-0.34877 -0.47786,-0.56148 -0.27348,-0.18247 -0.54697,-0.36493 -0.82045,-0.54739 0,0 -0.13508,-0.0679 -0.13508,-0.0679 v 0 c -0.26853,-0.0921 -0.53706,-0.18427 -0.80559,-0.2764 -0.44748,-9.6e-4 -0.4785,0.001 -0.4865,0.42716 -0.001,0.0547 0.0243,0.11814 -0.005,0.16401 -0.0332,0.0511 -0.10625,0.0598 -0.15937,0.0897 -0.31019,0.38204 -0.20066,1.32861 -0.3427,1.81824 0.0631,1.44545 0.0547,2.88824 0.0224,4.33462 0.0304,1.79471 0.015,3.58969 -0.0441,5.38376 -0.0414,1.95615 -0.13265,3.91125 -0.23793,5.86491 -0.12158,2.09397 -0.3192,4.18703 -0.23618,6.28739 0.0703,2.0178 0.18245,4.02933 0.41031,6.03643 0.12936,1.67762 0.20321,3.35914 0.31772,5.03787 0.0926,1.4548 0.19184,2.91387 0.5793,4.32696 0.30841,1.21118 0.6843,2.40565 1.20135,3.54589 0.46254,0.98545 0.9853,1.93967 1.48217,2.90803 0.4599,0.87443 0.92273,1.75122 1.55194,2.51966 1.61257,1.77069 3.86669,2.8522 6.06979,3.73771 0.9084,0.24429 1.82405,0.27897 2.75827,0.1593 0.90112,-0.10233 1.77623,-0.30292 2.60817,-0.67517 0.94661,-0.43151 1.76827,-1.05043 2.5102,-1.77945 0.78314,-0.81822 1.53935,-1.71102 2.02993,-2.738 0.5009,-1.02059 0.90266,-2.08576 1.28289,-3.15649 0.32428,-1.15385 0.72004,-2.28658 0.99226,-3.45518 0.12482,-0.52692 0.17954,-0.69181 0.24447,-1.23118 0.10292,-0.85504 0.0354,-1.72399 0.32218,-2.55421 0.29052,-1.23662 0.6637,-2.44701 1.02674,-3.66347 0.13821,-0.71292 0.28984,-1.42909 0.31256,-2.15798 0.0266,-0.8548 -0.0873,-1.71097 -0.0598,-2.56608 -0.0607,-1.76579 -0.17597,-3.52923 -0.2835,-5.29266 -0.097,-1.82112 -0.22284,-3.64075 -0.28826,-5.46352 -0.0458,-1.72569 -0.0185,-3.4577 -0.19187,-5.17673 -0.0817,-1.62518 -0.0664,-3.25308 -0.0471,-4.87981 0.012,-1.81723 0.052,-3.63443 0.0322,-5.45175 -0.0482,-1.98406 -0.25724,-3.9597 -0.42781,-5.93618 -0.25674,-1.89933 -0.52908,-3.79592 -0.70272,-5.70584 -0.17488,-1.7093 -0.32956,-3.42071 -0.53662,-5.12668 -0.16633,-1.45223 -0.49766,-2.86835 -0.75292,-4.30682 -0.24164,-1.37692 -0.38117,-2.76231 -0.54652,-4.14961 -0.0707,-1.0999 -0.0889,-2.20239 -0.15628,-3.30254 -0.0631,-1.03843 -0.18161,-2.09771 -0.0316,-3.13031 -0.0485,-1.01554 -0.0747,-2.03082 -0.20942,-3.04022 -0.11271,-1.15494 -0.18903,-2.3125 -0.22531,-3.47251 -0.0686,-1.18073 -0.16438,-2.35875 -0.30645,-3.5332 -0.10232,-0.8111 -0.25878,-1.62212 -0.25771,-2.44183 0,0 -2.07153,-1.01991 -2.07153,-1.01991 z" />
    <path
       style="fill:#000000"
       id="path429"
       d="m 90.434136,217.40977 c 1.479936,1.18656 3.012659,1.89386 4.761843,2.36939 1.26462,0.29342 2.51799,0.65076 3.800941,0.8543 1.34885,0.22568 2.71098,0.30219 4.07525,0.35085 1.0058,-0.02 1.98799,0.17455 2.97857,0.30351 0.57147,0.0744 1.00131,0.0835 1.57387,0.11081 1.52891,0.0349 3.01342,0.41287 4.51505,0.6533 1.30679,0.21851 2.62411,0.32132 3.94787,0.29352 1.29715,-0.042 2.56587,-0.31183 3.82607,-0.59975 1.16474,-0.23636 2.28449,-0.62792 3.38565,-1.06737 1.25087,-0.47937 0.46162,-0.63259 -0.22155,-1.49741 -0.0848,-0.10737 -0.11525,-0.24822 -0.17288,-0.37233 0,0 -0.12709,-0.0819 -0.12709,-0.0819 v 0 c -0.19197,-0.04 -0.39139,-0.0536 -0.57592,-0.1199 -1.1978,-0.43052 -1.48873,-0.94905 -2.5908,-0.3997 -1.08178,0.43222 -2.1946,0.76511 -3.33094,1.02322 -1.22238,0.28814 -2.45734,0.54951 -3.71983,0.55538 -1.29746,-0.0131 -2.58633,-0.13918 -3.87084,-0.32152 -1.45709,-0.21234 -2.91754,-0.42004 -4.3886,-0.50513 -0.48451,-0.0239 -0.9809,-0.0634 -1.46698,-0.032 -0.18431,0.0119 -0.365,0.0594 -0.54911,0.074 -0.66315,0.0526 -1.32105,-0.034 -1.98369,-0.0454 -1.359501,-0.0493 -2.712429,-0.17013 -4.056829,-0.38325 -1.171669,-0.15179 -2.347331,-0.2379 -3.467459,-0.65834 -0.387764,-0.12107 -0.563052,-0.16774 -0.936079,-0.3147 -0.12811,-0.0505 -0.254952,-0.10446 -0.379338,-0.16352 -0.111403,-0.0529 -0.433766,-0.23468 -0.327508,-0.17209 2.89052,1.70266 3.271339,1.9542 2.330902,1.34242 0,0 -3.030573,-1.19644 -3.030573,-1.19644 z" />
    <path
       style="fill:#000000"
       id="path437"
       d="m 141.32822,215.66883 c 0.73789,0.0577 1.45377,0.29331 2.18946,0.35985 0.60224,0.0545 1.29521,-0.002 1.89246,-0.0315 2.61806,-0.25878 5.01887,-1.39877 7.47103,-2.26459 0.46782,-0.18997 0.94069,-0.36795 1.40345,-0.56992 3.53188,-1.54138 -0.72484,0.22739 2.91384,-1.35596 2.83476,-1.23353 0.46556,-0.12671 3.46599,-1.36033 0.5916,-0.24324 1.16844,-0.52092 1.75266,-0.78138 3.55541,-1.63324 7.28226,-2.88222 11.11283,-3.68596 0.84335,-0.17695 1.69573,-0.30773 2.5436,-0.4616 4.11266,-0.64424 8.3207,-0.4509 12.42174,0.19879 0.77719,0.12312 1.54792,0.28398 2.32188,0.42597 0.73568,0.17078 1.47537,0.32509 2.20703,0.51234 1.44973,0.37102 2.53437,0.71767 3.94326,1.19215 0.34244,0.11532 2.91558,1.03502 3.33485,1.13049 0.34199,0.0779 0.69953,0.0524 1.04929,0.0786 0.81326,-0.51197 0.30553,-0.35013 1.59511,-0.10736 0,0 -0.1205,-0.0913 -0.1205,-0.0913 v 0 c -1.95454,-0.42679 -0.79689,-0.0877 -3.3861,-1.27675 -0.67128,-0.27883 -1.33413,-0.57887 -2.01383,-0.83648 -0.53136,-0.20138 -1.0773,-0.36198 -1.61707,-0.5396 -2.50252,-0.82353 -5.03122,-1.58292 -7.62855,-2.04968 -2.33422,-0.40488 -4.66286,-0.80482 -7.03922,-0.85426 -2.45407,-0.0511 -4.8832,0.29775 -7.30361,0.65484 -1.93841,0.37016 -3.18466,0.58108 -5.10646,1.05821 -3.03922,0.75455 -6.03473,1.71807 -8.9278,2.91629 -0.58256,0.26314 -1.17714,0.50117 -1.74769,0.78943 -3.65045,1.84433 0.54372,-0.073 -3.0248,1.64968 -0.64857,0.31309 -2.31615,1.00202 -2.98152,1.30938 -0.43658,0.20168 -0.86326,0.42412 -1.2949,0.63618 -0.40274,0.20407 -0.79637,0.42722 -1.20823,0.61222 -1.94405,0.87327 -4.04345,1.47618 -6.17458,1.59598 -1.40381,-0.0102 -2.82834,-0.0494 -4.17581,-0.48652 0,0 2.13219,1.63285 2.13219,1.63285 z" />
    <path
       style="fill:#000000"
       id="path439"
       d="m 139.87685,200.74224 c 0.73497,-0.63803 1.45468,-1.27336 2.27398,-1.80383 0.75905,-0.62815 0.18613,0.0269 0.38107,-0.90397 0.0276,-0.13183 0.14297,-0.2283 0.21445,-0.34246 0,0 -0.12571,-0.084 -0.12571,-0.084 v 0 c -0.22822,0.0107 -0.45639,0.0419 -0.68465,0.032 -1.41878,-0.061 -0.57789,-0.26199 -1.62854,0.11284 -0.82703,0.52035 -1.69315,1.06951 -2.29176,1.85428 0,0 1.86116,1.13506 1.86116,1.13506 z" />
    <path
       style="fill:#000000"
       id="path441"
       d="m 155.11441,191.39398 c 0.99719,-1.38402 2.43212,-2.12452 3.95136,-2.80571 2.71428,-0.86411 5.52277,-1.3991 8.34351,-1.76954 1.05112,-0.12204 2.10792,-0.19569 3.16632,-0.19851 0.48897,-10e-4 1.01417,0.11375 0.9827,-0.19256 -0.0191,-0.18576 -0.20632,-0.31133 -0.30948,-0.46699 0.0479,-0.009 0.0959,-0.0173 0.14382,-0.026 0,0 -0.12134,-0.0902 -0.12134,-0.0902 v 0 c -0.0931,-0.0241 -0.18619,-0.0481 -0.27929,-0.0722 -0.66105,-0.32339 -1.12029,-0.63425 -1.85299,-0.7121 -0.22085,-0.0235 -0.44303,0.0324 -0.66417,0.0528 -0.98837,0.0915 -1.9737,0.217 -2.95335,0.37677 -2.73748,0.4651 -5.50111,0.9479 -8.07955,2.01612 -1.61155,0.65596 -3.20336,1.36758 -4.47776,2.5883 0,0 2.15022,1.29983 2.15022,1.29983 z" />
    <path
       style="fill:#000000"
       id="path443"
       d="m 170.60604,190.78871 c 0.13399,-0.071 0.27307,-0.13317 0.40198,-0.21304 0.82891,-0.51354 0.36619,-0.35926 1.44458,-0.86188 1.38701,-0.64647 2.88298,-1.05012 4.3384,-1.5061 2.51361,-0.68257 5.10657,-0.79153 7.69334,-0.81328 1.87402,-0.0158 1.20178,0.33045 2.22058,-0.53337 0.28763,-0.037 0.57526,-0.074 0.8629,-0.11095 0,0 -0.12167,-0.0897 -0.12167,-0.0897 v 0 c -0.46189,-0.091 -0.92378,-0.18194 -1.38567,-0.27291 -0.74961,-0.22463 -1.47987,-0.52876 -2.24883,-0.67391 -0.8551,-0.16141 -2.78128,-0.0585 -3.62093,-0.0106 -1.99953,0.11404 -3.99381,0.32407 -5.95204,0.75855 -0.57883,0.15612 -1.17073,0.26998 -1.73647,0.46834 -0.93381,0.32741 -1.59287,0.74788 -2.43078,1.23387 -0.11866,0.0688 -1.25649,0.72128 -1.47308,0.88616 -0.1104,0.084 -0.19264,0.19973 -0.28896,0.2996 0,0 2.29665,1.43927 2.29665,1.43927 z" />
    <path
       style="fill:#000000"
       id="path445"
       d="m 186.64408,193.09009 c 1.17098,0.18138 2.33211,-0.14622 3.50398,-0.15399 1.34456,-0.009 1.5904,0.0827 2.94429,0.28318 1.5664,0.24178 2.942,0.98007 4.35063,1.64762 0.33142,0.44312 0.87799,0.29937 1.29838,0.49333 0.24224,0.11176 0.45956,0.27109 0.68933,0.40664 0,0 0.1411,0.0543 0.1411,0.0543 v 0 c -1.42494,-0.83585 -2.75511,-1.82302 -4.20771,-2.61305 -1.37951,-0.75028 -2.86892,-1.30386 -4.41292,-1.59224 -1.46571,-0.20926 -1.61839,-0.26844 -3.08821,-0.33164 -0.80084,-0.0344 -2.21828,-0.11704 -3.00492,0.1873 -0.0994,0.0384 -0.16797,0.13113 -0.25196,0.19669 0,0 2.03801,1.42187 2.03801,1.42187 z" />
    <path
       style="fill:#000000"
       id="path447"
       d="m 197.9621,201.9056 c 1.8494,0.22268 3.53899,0.99151 5.16121,1.86664 -0.6907,-0.37506 -1.31947,-0.89874 -2.07211,-1.12519 -0.43771,-0.13169 0.74062,0.53715 1.09146,0.83014 1.27289,1.06302 0.70687,0.69372 1.82783,1.81428 1.13189,1.13148 1.12695,1.04134 2.50668,2.05756 0.12811,0.16063 0.25622,0.32126 0.38433,0.48188 0,0 0.13895,0.0596 0.13895,0.0596 v 0 c -0.11841,-0.1563 -0.23681,-0.31261 -0.35522,-0.46891 0.16223,-0.0763 0.41406,-0.065 0.48669,-0.22888 0.19214,-0.4336 -0.63464,-1.32958 -0.74206,-1.45898 -1.65301,-1.99129 -3.9793,-3.07402 -6.21766,-4.33185 -1.46752,-0.75177 -2.15861,-1.10734 -3.79928,-1.19208 -0.5233,-0.027 -0.35254,-0.0515 -0.70502,0.0446 0,0 2.2942,1.65116 2.2942,1.65116 z" />
    <path
       style="fill:#000000"
       id="path449"
       d="m 201.90859,208.66199 c -0.6797,-0.38004 -1.33782,-0.80155 -2.03909,-1.14012 -0.12732,-0.0615 0.2051,0.19507 0.29953,0.30028 0.13864,0.15446 0.28104,0.30725 0.39901,0.47802 0.6029,0.87269 0.96325,1.87667 1.33452,2.85902 0.44238,1.70926 0.32804,1.0768 0.58697,2.88031 0.0747,0.52027 0.0623,1.05827 0.20951,1.56283 0.91144,3.1228 0.81896,0.58192 0.73704,3.06922 0,0 0.13415,0.0697 0.13415,0.0697 v 0 c 0.53496,-4.10635 -0.45072,1.82834 0.98322,-2.20645 0.16223,-0.45646 0.0663,-0.96834 0.0491,-1.45246 -0.0419,-1.17497 -0.20182,-1.72698 -0.43338,-2.85787 -0.33622,-1.19649 -0.51158,-1.8538 -1.19498,-2.89037 -0.0602,-0.0913 -0.4873,-0.72845 -0.62837,-0.82132 -0.79565,-0.52382 -1.63578,-0.97675 -2.45367,-1.46512 0,0 2.01647,1.61432 2.01647,1.61432 z" />
    <path
       style="fill:#000000"
       id="path451"
       d="m 94.463129,162.79403 c -0.741847,0.35649 -1.288395,0.98278 -1.788339,1.61705 -0.114395,0.17741 -0.223638,0.35825 -0.343187,0.53222 -0.140589,0.20459 -0.308501,0.39064 -0.436943,0.60307 -0.686389,1.13521 -0.98077,2.47975 -1.324566,3.74461 -0.566108,2.21687 -0.671046,4.51069 -0.755323,6.78631 0.665545,1.63034 0.422709,0.85202 0.781482,2.31778 0,0 0.134467,0.0691 0.134467,0.0691 v 0 c 0.428325,-1.01294 0.140043,-0.52126 0.902851,-1.45208 0.07525,-2.25766 0.17827,-4.53024 0.767548,-6.72416 0.28774,-0.99391 0.619095,-1.92471 1.031936,-2.87301 0.210698,-0.48397 0.369947,-0.99346 0.629819,-1.4529 0.101447,-0.17936 0.246295,-0.33043 0.369442,-0.49564 0.536068,-0.60713 1.126889,-1.11701 1.856885,-1.47956 0,0 -1.826072,-1.19279 -1.826072,-1.19279 z" />
    <path
       style="fill:#000000"
       id="path453"
       d="m 91.81889,180.8821 c 0.101784,-1.8264 1.060964,-3.40497 2.073395,-4.86868 0.662347,-0.93192 1.510538,-1.69331 2.31044,-2.49841 0.216472,-0.21787 0.506896,-0.3905 0.630972,-0.67145 0.683547,-1.54781 -0.625907,-0.2955 0.479296,-1.19598 0,0 -0.128094,-0.0803 -0.128094,-0.0803 v 0 c -1.18388,0.96509 0.617747,-0.37661 -1.563115,0.52756 -0.296079,0.12275 -0.510503,0.38943 -0.744845,0.6081 -0.830737,0.77516 -1.531029,1.68962 -2.254876,2.55994 -1.074287,1.43231 -2.065296,2.93166 -2.635608,4.64495 0,0 1.832435,0.97427 1.832435,0.97427 z" />
    <path
       style="fill:#000000"
       id="path455"
       d="m 95.823403,170.95904 c -0.03573,0.11121 -0.08666,0.21864 -0.107192,0.33364 -0.06825,0.38226 -0.07699,1.19697 -0.10436,1.51362 -0.07638,0.88369 -0.258546,1.75624 -0.331887,2.64019 -0.05098,0.6145 -0.05168,1.23213 -0.07752,1.8482 -0.196898,3.83493 0.07262,7.67032 0.524347,11.47716 0.445661,1.9999 -0.01848,0.62256 1.114099,2.5298 0.153725,0.25887 0.266399,0.54001 0.399598,0.81002 0,0 0.136134,0.0658 0.136134,0.0658 v 0 c 0.03394,-0.18919 0.02571,-0.39107 0.10182,-0.56757 0.587937,-1.36351 0.566222,0.18227 0.217151,-1.87518 -0.296962,-1.41168 -0.423231,-1.88237 -0.612716,-3.36172 -0.346103,-2.70209 -0.374734,-5.43724 -0.09017,-8.14655 0.07808,-0.5864 0.1652,-1.17167 0.234233,-1.7592 0.128568,-1.09423 0.114668,-1.59915 0.325682,-2.63426 0.137529,-0.67464 0.220511,-0.75208 0.384352,-1.33241 0.02837,-0.1005 0.04601,-0.20372 0.06902,-0.30558 0,0 -2.182598,-1.23591 -2.182598,-1.23591 z" />
    <path
       style="fill:#000000"
       id="path457"
       d="m 98.794118,191.13964 c 0.06313,-0.11707 0.145526,-0.22564 0.189384,-0.35121 0.187285,-0.53622 0.240091,-1.11079 0.387791,-1.65923 0.115395,-0.42849 0.243107,-0.854 0.387025,-1.27377 0.472342,-1.37768 0.665552,-1.72595 1.270902,-3.08355 0.71836,-1.50185 1.53217,-2.95815 2.43508,-4.35686 0.38599,-0.59795 1.06266,-1.36417 1.15272,-2.13669 0.0408,-0.35033 -0.10789,-0.6971 -0.16183,-1.04565 0,0 -0.13038,-0.0765 -0.13038,-0.0765 v 0 c -0.36187,0.10545 -0.7618,0.12343 -1.08561,0.31634 -0.73562,0.43826 -1.06671,1.27903 -1.44442,1.97923 -0.79264,1.46934 -1.54563,2.95921 -2.321975,4.43712 -0.711587,1.37595 -1.417137,2.74963 -2.073756,4.15272 -0.172675,0.36898 -0.542051,1.08515 -0.642504,1.53916 -0.03263,0.1475 -0.01451,0.30178 -0.02177,0.45267 0,0 2.059344,1.10626 2.059344,1.10626 z" />
    <path
       style="fill:#000000"
       id="path459"
       d="m 103.32036,177.03628 c -0.25148,2.39373 -0.0452,4.82876 0.19503,7.21541 0.28892,2.6039 0.81338,5.17435 1.37944,7.72997 0.11302,0.51027 0.18632,1.03225 0.35236,1.52782 0.16231,0.48443 0.41866,0.93209 0.62799,1.39814 0.8836,1.37844 0.63776,0.73167 0.93845,1.85151 0,0 0.13646,0.0651 0.13646,0.0651 v 0 c -0.24368,-0.90779 -0.2528,-0.44888 0.0608,-1.37566 -0.0213,-0.37554 0.007,-0.75713 -0.064,-1.1266 -0.10206,-0.53506 -0.30697,-1.04534 -0.45055,-1.57078 -0.16269,-0.59542 -0.32466,-1.19124 -0.4682,-1.79155 -0.31427,-1.31438 -0.57774,-2.61368 -0.76096,-3.9535 -0.09,-0.6581 -0.14002,-1.32106 -0.21004,-1.98159 -0.067,-2.2576 -0.0896,-4.541 0.63196,-6.71232 0,0 -2.3688,-1.27593 -2.3688,-1.27593 z" />
    <path
       style="fill:#000000"
       id="path461"
       d="m 108.8475,197.79286 c 0.0752,-0.0968 0.17128,-0.18043 0.22548,-0.29032 0.47101,-0.95491 0.51322,-2.11747 0.71307,-3.13524 0.57807,-2.94385 0.26942,-0.36061 0.54389,-3.65037 -0.35205,-2.82412 -0.54949,-1.54724 0.3268,-3.86237 0,0 -0.13213,-0.0735 -0.13213,-0.0735 v 0 c -0.84135,2.2226 -0.17086,1.23706 -2.11698,2.88201 -1.19602,1.9931 -0.79591,1.0465 -1.44712,3.18411 -0.38228,1.25484 -0.81816,2.57165 -0.26556,3.84676 0,0 2.15255,1.09888 2.15255,1.09888 z" />
  </g>
</svg>
