<?xml version="1.0" encoding="UTF-8" standalone="no"?>
<!-- Created with Inkscape (http://www.inkscape.org/) -->

<svg
   width="210px"
   height="297px"
   viewBox="0 0 210 297"
   version="1.1"
   id="svg5"
   inkscape:version="1.2.2 (b0a8486541, 2022-12-01)"
   sodipodi:docname="obie.svg"
   xmlns:inkscape="http://www.inkscape.org/namespaces/inkscape"
   xmlns:sodipodi="http://sodipodi.sourceforge.net/DTD/sodipodi-0.dtd"
   xmlns="http://www.w3.org/2000/svg"
   xmlns:svg="http://www.w3.org/2000/svg">
  <sodipodi:namedview
     id="namedview7"
     pagecolor="#ffffff"
     bordercolor="#000000"
     borderopacity="0.25"
     inkscape:showpageshadow="2"
     inkscape:pageopacity="0.0"
     inkscape:pagecheckerboard="0"
     inkscape:deskcolor="#d1d1d1"
     inkscape:document-units="mm"
     showgrid="false"
     inkscape:zoom="1.4275405"
     inkscape:cx="98.421027"
     inkscape:cy="119.08594"
     inkscape:window-width="1280"
     inkscape:window-height="651"
     inkscape:window-x="0"
     inkscape:window-y="0"
     inkscape:window-maximized="1"
     inkscape:current-layer="layer5" />
  <defs
     id="defs2" />
  <g
     inkscape:groupmode="layer"
     id="layer5"
     inkscape:label="Layer 5">
    <path
       style="fill:#cb9c7b;fill-opacity:1"
       d="m 38.8717,90.647875 c 0.168486,4.368976 0.857482,8.887466 1.725702,13.203155 0.319616,1.58872 1.063571,3.10336 1.439787,4.70228 0.894605,3.80207 0.732559,7.77255 1.725703,11.58084 0.418816,1.60599 1.358006,2.97389 1.992471,4.48402 0.749637,1.78426 1.240773,3.68897 1.998854,5.45664 0.981,2.28747 2.254255,4.46725 3.341633,6.7139 1.035867,2.14022 1.805937,4.58271 3.110604,6.56712 0.879324,1.33746 2.158292,2.34204 3.050613,3.6518 1.32864,1.95019 2.357868,4.48371 4.325743,5.89445 3.883088,2.78372 8.162545,4.66365 12.952979,4.79418 1.421779,0.0387 2.460008,-0.49308 3.651801,-1.1794 0.108185,-0.0623 0.252134,-0.16801 0.382922,-0.097 0.778252,0.42248 0.842676,1.75432 1.226627,2.46092 0.431781,0.79462 1.327066,0.9933 2.005235,1.49467 0.857449,0.63391 1.160124,1.86247 2.126494,2.44815 1.102724,0.66831 2.718347,0.71502 3.942822,1.09388 1.20939,0.37419 2.296845,1.17064 3.542029,1.41553 0.880845,0.17324 1.742699,-0.21808 2.62557,-0.0842 1.095813,0.16612 2.15432,0.6323 3.249732,0.75308 2.6511,0.2923 5.966169,-0.33741 8.701269,-0.26804 3.39069,0.086 6.78602,-0.005 10.1819,0.0676 0.98249,0.0211 1.89575,0.0945 2.86808,-0.12254 0.85407,-0.19068 4.77396,-1.31288 5.38261,-1.73081 0.69006,-0.47383 2.23812,-2.25164 2.66769,-2.41879 1.0163,-0.39545 1.92715,0.47914 2.88596,0.37654 0.38592,-0.0413 0.72131,-0.28305 1.09899,-0.32804 2.10448,-0.25069 4.00345,-0.48972 6.02719,-1.233 0.88443,-0.32484 1.65447,-0.87892 2.5158,-1.24578 1.50334,-0.64031 3.18932,-1.25466 4.45338,-2.27838 2.49322,-2.01919 4.37137,-5.97401 5.7783,-8.74978 0.69072,-1.36274 1.63877,-2.54447 2.26562,-3.9492 0.61751,-1.38382 1.01608,-2.84551 1.57381,-4.25299 1.53908,-3.88402 4.34175,-7.27954 5.583,-11.28343 1.55289,-5.00911 2.68335,-10.4289 3.26888,-15.64493 0.15781,-1.40581 0.13439,-2.74242 0.41356,-4.1496 0.60306,-3.03987 1.16979,-6.07053 1.70655,-9.108436 0.40256,-2.278331 1.05344,-4.481075 0.97901,-6.828778 -0.0281,-0.8851 -0.36257,-1.807111 -0.51056,-2.680454 -0.6426,-3.792034 -0.98558,-7.64467 -1.90823,-11.385551 -0.16156,-0.655015 -0.56524,-1.172081 -0.73521,-1.80484 -0.19928,-0.741844 0.11371,-1.519678 0.0549,-2.272004 -0.12089,-1.546086 -0.0927,-3.27917 -0.42504,-4.787803 -0.18729,-0.850152 -0.6677,-1.55627 -0.96624,-2.363906 -0.29175,-0.789256 -0.41436,-1.637721 -0.7467,-2.412409 -1.47769,-3.44454 -4.23024,-8.050595 -6.4165,-11.033263 -1.28702,-1.755851 -2.92575,-2.813166 -4.7444,-3.950479 -1.92863,-1.206085 -3.74467,-2.631617 -5.88807,-3.450129 -3.31041,-1.264165 -6.68522,-1.910242 -10.14616,-2.570683 -4.83813,-0.923248 -9.5336,-1.999655 -14.44765,-2.551538 -13.71554,-1.540355 -27.917662,-2.002794 -41.369628,1.725702 -4.051983,1.123093 -7.855668,2.83609 -11.658702,4.587407 -6.042863,2.782769 -10.444596,5.358634 -15.219878,9.976398 -1.223587,1.183225 -2.636953,2.250976 -3.596915,3.676052 -2.56372,3.805876 -2.86167,8.644361 -4.355101,12.875118 -0.525204,1.487858 -1.22129,2.898201 -1.683581,4.411262 -0.540444,1.768858 -0.678929,3.649566 -1.09388,5.448982 -0.536671,2.327242 -1.021767,3.93522 -0.911355,6.356507 z"
       id="path807" />
    <path
       style="fill:#313131;fill-opacity:1"
       d="M 40.002597,90.580226 C 39.957922,88.808147 39.960623,87.03424 39.868574,85.26399 39.788,83.71443 39.46473,82.34226 39.267386,80.846345 38.972567,78.611546 39.21414,76.28984 39.036356,74.04182 c -0.247496,-3.129532 -0.530694,-6.1758 -0.219542,-9.320325 0.114284,-1.154951 -0.06505,-2.34742 -0.07276,-3.50629 -0.0072,-1.088579 0.255282,-2.158113 0.255282,-3.244627 0,-2.425961 -0.196514,-4.845369 0.0434,-7.266585 0.130409,-1.316109 0.657517,-2.575941 1.147489,-3.790929 0.941845,-2.335496 1.702482,-4.421554 3.554794,-6.216102 0.657196,-0.636701 1.454776,-1.106307 2.11373,-1.732084 0.378681,-0.359616 0.668286,-0.752753 1.100263,-1.056865 1.550024,-1.091217 3.635422,-1.95333 5.547265,-2.011618 0.533092,-0.01625 1.001791,0.30562 1.512542,0.279533 0.71913,-0.03673 1.41558,-0.387518 2.144364,-0.394409 4.008778,-0.03791 8.095293,0.07639 12.090128,0.285915 1.325171,0.0695 2.610123,0.476998 3.955585,0.412279 2.817107,-0.135506 5.515928,-0.734136 8.257077,-1.202375 1.712681,-0.292558 3.512676,-0.274904 5.219229,-0.638204 1.487031,-0.316567 2.813908,-0.583825 4.356377,-0.643309 5.63048,-0.217133 11.480611,-0.241609 17.089821,0.248899 1.1625,0.101658 2.23242,0.609119 3.39013,0.691813 1.24457,0.0889 2.51263,-0.208463 3.76796,-0.176144 1.53473,0.03951 3.07091,0.318663 4.60527,0.347183 0.86307,0.01604 1.72603,-0.114561 2.58728,-0.07403 3.44292,0.16202 6.85301,0.598595 10.3172,0.686707 1.56845,0.03989 3.1913,0.146548 4.75717,0.08552 0.81338,-0.0317 1.62154,-0.25244 2.43666,-0.231029 0.97177,0.02552 1.89935,0.392096 2.8617,0.437807 1.31923,0.06266 2.62625,-0.243901 3.96069,-0.0919 1.81551,0.206795 3.61428,0.742887 5.42601,0.930501 2.76282,0.286103 7.06885,0.925495 9.21694,2.947223 0.27204,0.256047 0.91388,1.239033 0.94709,1.585298 0.0311,0.323728 -0.16304,0.592119 -0.11488,0.935606 0.13386,0.954617 0.59345,2.0554 0.58332,3.007215 -0.011,1.029786 -0.30111,2.103612 -0.26804,3.14762 0.0986,3.113683 0.99728,6.204922 1.20365,9.313942 0.2045,3.080995 0.14641,6.204276 0.29102,9.290967 0.0994,2.121857 -0.80702,4.273814 -0.61395,6.427986 0.0738,0.823782 0.42226,1.652912 0.57821,2.467295 0.16891,0.88208 0.003,1.887067 0.097,2.794055 0.12627,1.212748 0.59634,2.378768 0.6867,3.603297 0.0687,0.931606 -0.12002,1.851557 -0.13402,2.777462 -0.0177,1.168246 0.73151,7.259487 -0.51695,7.78353 -0.28903,0.121321 -0.65324,-0.563959 -0.81945,-0.723723 -0.56079,-0.539058 -1.72283,-1.045397 -2.41241,-1.287895 -5.25251,-1.847121 -4.91663,-4.31128 -7.35721,-8.445985 -0.94544,-1.601714 -2.08126,-2.988374 -2.87447,-4.708666 -0.45266,-0.981721 -0.62743,-2.061003 -1.02623,-3.0621 -0.47668,-1.196612 -1.03387,-2.272704 -1.19089,-3.585428 -0.17579,-1.469741 0.26339,-2.988194 0.15828,-4.477635 -0.0841,-1.192269 -0.95116,-7.13331 -1.4768,-7.8014 -1.85194,-2.353798 -3.83006,-0.783387 -6.38587,-1.287895 -1.20795,-0.238445 -2.21531,-0.995454 -3.39014,-1.312146 -1.97935,-0.533565 -4.16533,-0.917327 -6.19695,-1.190888 -4.03978,-0.543963 -8.1302,-0.08895 -12.18203,-0.334419 -3.11483,-0.188703 -6.19767,-0.664477 -9.32543,-0.704577 -2.84083,-0.03642 -5.62578,0.568796 -8.45109,0.728829 -1.746345,0.09892 -3.542921,0.195279 -5.291988,0.07914 -1.185554,-0.07872 -2.328613,-0.294394 -3.52416,-0.23103 -2.689746,0.142557 -5.377772,0.305717 -8.063063,0.473547 -1.932772,0.120799 -3.850698,0.575866 -5.7834,0.735211 -1.475267,0.121631 -2.971781,-0.08498 -4.453385,0.03063 -3.494486,0.272691 -6.927756,1.050757 -10.2738,2.065226 -0.931913,0.282542 -2.834903,0.338991 -3.579045,1.009638 -0.414129,0.373228 -0.585905,1.016693 -0.929225,1.451275 -0.370273,0.4687 -0.925452,0.728766 -1.252155,1.245773 -0.68629,1.086055 -0.775878,2.529438 -1.12962,3.724556 -0.440161,1.487084 -1.23432,2.915005 -1.816327,4.349995 -0.544183,1.34173 -0.825685,2.766543 -1.488291,4.078121 -2.094922,4.146739 -5.312206,7.640605 -8.111567,11.301308 -0.432248,0.565248 -0.710122,1.205009 -1.208757,1.730808 -1.202718,1.268236 -2.259494,2.377907 -3.359503,3.797311 z"
       id="path8797" />
    <path
       style="fill:#2f2f6f;fill-opacity:1"
       d="m 70.720608,157.40141 c -0.354415,0.56502 -0.732105,1.1161 -1.063247,1.69507 -0.786884,1.37579 -1.059657,3.39176 -1.525306,4.90395 -0.575413,1.86865 -1.328424,3.70896 -1.96822,5.55876 -1.047026,3.02719 -2.88729,5.85545 -3.706686,8.95655 -1.324655,5.01331 -1.586382,10.22524 -2.393263,15.32326 -0.440051,2.78033 -1.139389,5.4927 -1.640183,8.25708 -0.35231,1.94475 -1.63338,5.98718 0.442913,7.33423 1.311988,0.8512 2.848816,-1.5232 3.348016,-2.38177 1.50676,-2.59146 3.23412,-4.98887 4.836306,-7.51676 1.732873,-2.73409 2.86739,-5.82913 4.349995,-8.69361 0.851421,-1.645 1.517302,-3.61985 2.861705,-4.9397 0.0093,-0.009 0.45276,-0.47161 0.486311,-0.39568 0.312635,0.70754 -0.873434,4.49273 -1.027508,5.48089 -0.406981,2.61019 -0.256174,5.2758 -0.576936,7.88692 -0.199446,1.62356 -1.262535,4.21291 0.358671,5.50387 0.838942,0.66804 5.660091,0.0347 7.017686,0.0791 1.899893,0.0622 3.453351,1.18223 5.279219,1.35555 3.909845,0.37113 7.904407,-0.0336 11.816977,0.0306 1.034954,0.017 2.198979,-0.0518 3.213992,0.10211 0.74995,0.11375 1.44974,0.46237 2.19925,0.5412 0.78097,0.0821 1.58706,0.0124 2.36391,0.13402 1.71461,0.2685 3.28528,0.83222 5.06095,0.83222 3.91793,0 8.03012,-0.34043 11.92036,-0.7901 1.03188,-0.11927 2.14543,-0.48631 3.17826,-0.48631 2.24149,0 4.45275,0.25729 6.60413,-0.61267 1.03612,-0.41898 2.00885,-1.08551 3.04295,-1.53807 0.90071,-0.39418 2.15139,-0.64588 2.91021,-1.29938 0.7442,-0.64092 -0.25575,-3.00578 -0.36378,-3.82795 -0.2054,-1.56333 0.19414,-3.20818 0.0115,-4.80695 -0.11859,-1.03809 -0.96642,-6.23374 -0.35867,-6.99343 0.78742,-0.98427 1.54172,0.6129 1.80484,1.21003 0.58952,1.33788 1.16192,3.31631 2.24775,4.36148 0.5452,0.52478 1.22268,0.88443 1.70784,1.50744 0.39959,0.51313 0.3966,1.24904 0.66883,1.81633 0.27683,0.57687 1.02163,1.46948 1.4934,1.90823 1.32721,1.2343 3.76222,-1.58111 4.70867,-2.27201 0.48382,-0.35319 1.10502,-0.53108 1.6172,-0.85136 0.57748,-0.36111 1.00043,-0.84208 1.52403,-1.26364 0.19183,-0.15445 0.75853,-0.5941 0.63183,-0.38293 -0.0551,0.0919 -0.59176,-0.79635 -0.61906,-0.8386 -0.50426,-0.78047 -1.3491,-1.21619 -2.01673,-1.82909 -0.53925,-0.49505 -1.23299,-0.91759 -1.58019,-1.57891 -0.34163,-0.65073 -1.5409,-7.09281 -1.70783,-8.20858 -0.20851,-1.39374 -0.0918,-3.25626 -0.55779,-4.60017 -0.17004,-0.49034 -0.51702,-0.88348 -0.65097,-1.39766 -0.1845,-0.70825 -0.17526,-1.46114 -0.31527,-2.175 -0.43799,-2.23312 -1.4322,-5.10566 -2.45453,-7.10831 -0.35629,-0.69793 -0.93414,-1.25112 -1.33767,-1.91972 -0.72085,-1.19434 -1.52391,-2.893 -2.74556,-3.66456 -0.83855,-0.52961 -2.62934,0.84319 -3.48714,1.05176 -0.91152,0.22162 -1.85625,0.16551 -2.7647,0.37016 -1.40531,0.31656 -2.66379,1.19815 -4.11386,1.30065 -1.26397,0.0893 -2.50519,-0.41741 -3.76029,-0.0613 -2.25796,0.64071 -3.5834,2.81407 -6.05783,2.92935 -2.2571,0.10515 -4.43505,-0.0445 -6.6705,-0.38292 -1.36049,-0.20597 -2.77814,-0.57994 -4.15599,-0.56545 -2.39586,0.0252 -4.69088,1.16197 -7.04704,1.12451 -2.39397,-0.0381 -4.701678,-1.13626 -7.059806,-1.40404 -2.442051,-0.27732 -4.962393,0.0339 -7.369974,-0.60757 -3.1329,-0.83466 -4.889103,-3.21038 -7.710775,-4.35638 -1.554039,-0.63116 -3.25583,-1.34249 -4.926931,-1.54318 -2.228426,-0.26761 -0.85362,0.82479 -3.973456,-0.26166 z"
       id="path12866" />
    <path
       style="fill:#cb9c7b;fill-opacity:1"
       d="m 60.106007,197.60568 c 0.847204,3.51374 4.707415,0.0516 6.191851,2.5158 0.780309,1.29531 -1.794851,4.85128 -2.533668,5.9238 -0.562976,0.81726 -0.817754,1.95392 -1.635077,2.58217 -0.513126,0.39443 -1.089463,0.48455 -1.719321,0.5412 -2.119472,0.19062 -2.465603,-2.25352 -2.357523,-4.03983 0.05277,-0.87222 0.09978,-1.23848 0.237411,-2.14564 0.311477,-2.05297 0.812891,-3.53012 1.816327,-5.3775 z"
       id="path16706" />
    <path
       style="fill:#cb9c7b;fill-opacity:1"
       d="m 151.44187,193.07954 c 0.19277,1.23204 -6.1057,2.90109 -6.19696,4.92183 -0.0648,1.43399 8.46067,10.04156 8.79062,2.3154 0.0901,-2.10876 -0.79039,-4.36202 -1.02624,-6.465"
       id="path16846" />
    <path
       style="fill:#921d1d;fill-opacity:1"
       d="m 73.126636,204.44339 c 0.623737,-0.2472 1.202816,-0.68326 1.871212,-0.74159 0.600065,-0.0524 1.165491,0.30791 1.756336,0.42504 0.940516,0.18646 1.92764,0.25256 2.842559,0.4927 0.389824,0.10231 0.659763,0.44688 1.045377,0.57693 0.697669,0.2353 1.845346,0.38757 2.594936,0.41356 2.426009,0.0841 4.971864,0.71256 7.387844,0.57693 0.850285,-0.0477 1.711569,-0.31937 2.557919,-0.43142 1.905329,-0.25226 4.036873,-0.2661 5.948057,-0.0842 0.691704,0.0658 1.319514,0.41332 2.016724,0.48503 1.5243,0.15678 3.04811,0.0628 4.56826,0.17614 1.61719,0.12061 3.18343,0.50647 4.79419,0.64459 1.50208,0.1288 2.91418,-0.23979 4.40488,-0.28592 1.45303,-0.045 2.86309,0.006 4.31936,-0.12764 2.51678,-0.23175 5.13335,-0.0385 7.61887,-0.53481 2.1577,-0.4309 4.62993,-0.36054 6.72028,-1.01985 0.93254,-0.29413 1.82191,-0.75913 2.72769,-1.12451 0.40412,-0.16302 2.86816,-1.76637 3.23186,-1.24578 0.75642,1.08272 -0.82982,6.74686 -0.7952,8.51236 0.0707,3.60736 0.99918,7.26895 1.02623,11.02816 0.008,1.17213 -0.29033,2.33393 -0.2974,3.50629 -0.0122,2.01721 0.009,4.12175 -0.21827,6.11782 -0.063,0.55395 -0.40589,1.05241 -0.46206,1.61082 -0.13872,1.37908 -0.3201,2.8229 -0.3408,4.22236 -0.0209,1.41206 0.38869,2.7754 0.42504,4.19299 0.0756,2.94656 -0.44805,5.6631 -1.36065,8.45748 -0.22166,0.67875 -0.33613,1.5421 -0.96624,2.00523 -0.37999,0.2793 -1.59626,-0.24368 -2.00396,-0.32293 -0.62828,-0.12212 -1.17268,0.14689 -1.74995,0.2004 -1.38595,0.12845 -2.86449,-0.37595 -4.25299,-0.13913 -1.83923,0.31369 -4.59026,1.16292 -6.41011,1.03261 -0.909,-0.0651 -3.08591,-0.45493 -3.66329,-1.15387 -0.67742,-0.82003 -0.14512,-3.94771 -0.32804,-5.18987 -0.30265,-2.05528 -0.53063,-4.01345 -0.68671,-6.09995 -0.0851,-1.13787 -0.50279,-2.27528 -0.57183,-3.41439 -0.1023,-1.68794 0.31843,-3.40917 0.18891,-5.09797 -0.11431,-1.4906 -0.60327,-3.03215 -0.58332,-4.51976 0.018,-1.34103 0.45852,-6.092 -0.5463,-7.09682 -0.28836,-0.28836 -0.70105,-0.13508 -1.05176,-0.22465 -0.39644,-0.10124 -0.65928,-0.42884 -1.04538,-0.55396 -1.00911,-0.327 -1.93997,0.22865 -2.87957,0.40718 -1.11708,0.21224 -2.0392,-0.44124 -3.07997,-0.4008 -0.68204,0.0265 -1.36304,0.44299 -2.09586,0.46845 -0.95837,0.0333 -1.86618,-0.35752 -2.80171,-0.40207 -0.63381,-0.0302 -1.16528,0.29062 -1.74996,0.46206 -1.42835,0.4188 -2.554458,0.25179 -3.942819,-0.0728 -3.162865,-0.73937 -3.66967,0.98626 -3.66967,4.06536 0,1.45098 0.204078,2.92627 -0.03063,4.36786 -0.42747,2.62551 -1.234676,5.13078 -1.427023,7.82055 -0.149603,2.09202 -0.420096,4.10516 -0.693089,6.17909 -0.122862,0.93338 0.02585,1.86128 -0.121259,2.79533 -0.353831,2.24668 -1.516344,4.79222 -2.952329,6.56201 -0.215568,0.26567 -0.360953,0.71909 -0.662456,0.89859 -2.526316,1.50399 -4.939349,-0.35135 -7.5525,-0.037 -0.981293,0.11804 -1.900625,0.34286 -2.86681,0.51056 -0.553304,0.096 -1.121062,-0.0592 -1.659329,0.0549 -1.282098,0.27167 -2.956114,0.94759 -4.270858,0.83222 -0.614736,-0.054 -1.200046,-0.62089 -1.470421,-1.15388 -1.222659,-2.41018 -0.543778,-5.60016 -0.534815,-8.17794 0.0088,-2.51728 0.01388,-5.0874 -0.109771,-7.601 -0.08107,-1.64807 -0.217846,-3.29499 0.0919,-4.92821 0.629171,-3.31745 1.881333,-4.65841 1.457656,-8.33621 -0.293933,-2.55154 0.311998,-5.04185 0.686707,-7.54612 0.206774,-1.38191 0.262755,-2.82025 0.5897,-4.18023 0.420539,-1.7493 1.126284,-3.19303 1.063247,-5.0316"
       id="path16848" />
    <path
       style="fill:#b7b7b7;fill-opacity:1"
       d="m 119.79335,252.08528 c 4.07222,-0.08 0.19946,0.0808 2.97148,-0.20677 0.93539,-0.097 1.97159,0.30299 2.90383,0.33442 2.25724,0.0761 4.59521,0.0387 6.86579,0.0728 0.57766,0.009 1.15833,-0.21037 1.73719,-0.10977 0.54514,0.0947 1.16609,0.59527 1.47042,1.05176 0.80223,1.20335 0.46728,3.44855 0.39441,4.75717 -0.1863,3.34559 -0.57983,7.72053 -3.0136,10.24444 -0.8709,0.90316 -2.02415,1.51796 -2.96382,2.36263 -0.96676,0.86903 -2.66829,2.50851 -4.15598,2.21201 -2.09761,-0.41805 -2.69912,-3.18892 -3.84581,-4.64739 -2.83445,-3.60511 -1.06192,-9.69955 -1.85334,-13.9205"
       id="path25292" />
    <path
       style="fill:#b7b7b7;fill-opacity:1"
       d="m 71.224789,252.12741 c 3.164433,1.12682 1.245556,0.54262 2.630675,0.87561 1.823279,0.43832 3.666572,0.99796 5.565135,0.90497 1.103908,-0.0541 6.592318,-1.3906 7.17596,-0.91773 1.067362,0.86477 1.351983,1.88563 1.397666,3.25611 0.135733,4.072 -2.48645,6.54535 -4.787803,9.4786 -2.570877,3.27678 -1.589765,3.54987 -5.912317,4.85545 -0.682303,0.20609 -1.304254,0.46827 -2.016723,0.20678 -0.987874,-0.36257 -1.186935,-2.1046 -1.44617,-2.91659 -0.864279,-2.70715 -1.939655,-5.3895 -2.4724,-8.1907 -0.499507,-2.62644 -0.943844,-4.9435 -0.134023,-7.5525 z"
       id="path25294" />
    <path
       style="fill:#724f32;fill-opacity:1"
       d="m 87.501532,136.07648 c -0.05276,-0.55311 -0.245071,-1.11053 -0.158275,-1.65933 0.283832,-1.79462 2.527008,-3.22947 4.210867,-3.48715 0.533538,-0.0816 1.132299,0.0147 1.670817,-0.097 1.156982,-0.24 2.700333,-0.77092 3.91857,-0.34718 1.102443,0.38345 1.849612,1.58048 2.976579,1.90822 0.80777,0.23492 3.49226,-1.18431 4.76993,-1.136 0.74943,0.0283 1.47141,0.80711 2.1265,1.10026 1.25795,0.56295 2.55438,1.10443 3.81518,1.64657 0.83107,0.35736 1.61718,1.13128 2.41241,1.59168 0.57236,0.33136 1.2668,0.45371 1.84696,0.78371 0.23353,0.13284 0.22572,0.4759 0.29102,0.5412 0.0265,0.0265 -0.68436,-0.0686 -0.73521,-0.074 -0.59012,-0.0633 -1.18295,-0.10695 -1.77931,-0.097 -0.73838,0.0123 -1.344,0.20794 -2.10224,0.10977 -1.32025,-0.17092 -2.53002,-1.00706 -3.90709,-0.98411 -1.17879,0.0196 -2.33735,0.26104 -3.53564,0.18253 -1.01666,-0.0666 -1.91957,-0.63288 -2.89872,-0.75436 -1.924954,-0.23881 -4.001062,-0.53481 -5.928914,-0.53481 -0.981886,0 -1.748126,0.54043 -2.679178,0.69947 -1.489859,0.25449 -2.776202,0.217 -4.314256,0.60757 z"
       id="path27315" />
    <path
       style="fill:#08083c;fill-opacity:1"
       d="m 132.08515,97.444743 c -1.5519,-0.01957 -0.91596,-1.905659 -1.76271,-2.430279 -0.53611,-0.33215 -1.4873,-0.209567 -2.09587,-0.284639 -2.84177,-0.350561 -6.47004,0.15568 -9.2348,0.867957 -1.91781,0.494078 -7.2691,3.108312 -8.17156,4.952458 -0.24055,0.49156 -0.12766,1.13177 -0.17104,1.67082 -0.0264,0.32789 -0.22225,0.69666 -0.12126,1.02623 0.48214,1.57329 2.63629,0.93696 3.79093,1.08239 1.92409,0.24235 6.31691,0.60751 7.92266,-0.24379 1.20436,-0.6385 2.29107,-1.49449 3.48842,-2.12011 3.05315,-1.59527 4.47488,-1.14739 6.35523,-4.521037 z"
       id="path28108" />
    <path
       style="fill:#08083c;fill-opacity:1"
       d="m 69.347194,96.090475 c 3.679883,-3.364144 7.33785,-1.590657 11.32556,-0.46206 0.481973,0.136408 2.339558,0.471619 2.624293,0.67522 0.833554,0.596036 1.683913,1.154945 2.406027,1.8827 0.690574,0.695969 1.124393,1.604915 1.937586,2.187765 0.466695,0.33449 1.056995,0.42119 1.513819,0.80158 0.388847,0.32379 3.788648,4.05698 3.766677,4.32064 -0.0047,0.0561 -0.218355,-0.13408 -0.243794,-0.14551 -0.398643,-0.1791 -0.838825,-0.20065 -1.263643,-0.27443 -1.113791,-0.19343 -2.219107,0.19191 -3.341633,0.10977 -0.90278,-0.0661 -1.563694,-0.67957 -2.423897,-0.8386 -1.9051,-0.3522 -3.865753,-0.46163 -5.783401,-0.69819 -1.008352,-0.12439 -2.18773,0.009 -3.159107,-0.33442 -1.143024,-0.40453 -2.743833,-1.10211 -3.706686,-1.86611 -0.595392,-0.47243 -1.002795,-1.11625 -1.628695,-1.572532 -0.824219,-0.600862 -1.64077,-0.842125 -2.278387,-1.707833 -0.501994,-0.681568 0.584479,-1.584723 0.255281,-2.07799 -3.026151,-4.534354 -1.831802,0.400957 -2.11373,-0.82073"
       id="path34601" />
  </g>
  <g
     inkscape:groupmode="layer"
     id="layer4"
     inkscape:label="Layer 4"
     style="fill:#000000">
    <path
       style="fill:#000000"
       id="path480"
       d="m 110.86836,105.19781 c 0.94617,-1.517 2.03952,-2.9373 3.22615,-4.27518 1.87464,-2.056906 4.24332,-3.40082 6.81147,-4.386253 2.31302,-0.813124 4.71277,-0.880052 7.1113,-0.525276 0.68278,0.04128 1.3136,0.35183 1.98563,0.442509 0.17722,0.02391 0.53361,0.152875 0.53586,-0.02594 -0.57967,-0.876409 -0.57672,-0.481138 -0.47797,-1.085251 0,0 -0.12274,-0.08827 -0.12274,-0.08827 v 0 c -1.79554,-0.584921 0.43599,0.192847 -2.5057,-1.186295 -0.95542,-0.447925 -2.01345,-0.56728 -3.0363,-0.760445 -2.4258,-0.276897 -4.79551,-0.130462 -7.07863,0.824464 -2.5894,1.073546 -4.99805,2.462597 -6.90399,4.563123 -1.22176,1.355094 -2.4772,2.719124 -3.23443,4.400304 0,0 3.68935,2.10252 3.68935,2.10252 z" />
    <path
       style="fill:#000000"
       id="path482"
       d="m 107.60891,102.35882 c 1.89843,1.49353 3.96793,2.93267 6.29452,3.63051 0.89672,0.26896 1.29795,0.28901 2.24009,0.42487 2.95588,0.28328 5.84592,-0.37852 8.64393,-1.26112 3.08425,-0.95878 5.60869,-2.84912 7.82034,-5.14368 0.60477,-0.830073 1.68394,-1.780417 1.50183,-2.954835 -0.0522,-0.336773 -0.7718,-1.766273 -0.94775,-2.128032 0,0 -0.13146,-0.07466 -0.13146,-0.07466 v 0 c -0.36109,0.04646 -1.88786,0.222976 -2.16309,0.349915 -1.00988,0.465756 -1.21555,1.839085 -1.98297,2.542374 -2.14638,2.356558 -4.61109,4.004798 -7.67121,4.970908 -2.80243,0.83217 -5.69137,1.43542 -8.62688,1.02291 -0.9942,-0.19115 -1.31049,-0.20709 -2.24324,-0.5536 -0.29153,-0.1083 -1.11315,-0.54977 -0.85098,-0.38248 5.76595,3.67915 3.5926,2.20602 2.39664,1.2958 0,0 -4.27977,-1.73889 -4.27977,-1.73889 z" />
    <path
       style="fill:#000000"
       id="path484"
       d="m 68.692884,97.236296 c 1.91123,-1.074571 3.845598,-1.501317 6.008702,-1.71065 3.049031,-0.09594 6.086323,0.57843 8.823036,1.931222 0.596526,0.294871 1.159758,0.652786 1.739637,0.979179 -0.638998,-0.313129 -1.294466,-1.284099 -1.916993,-0.939385 -0.552093,0.305712 0.999755,0.771331 1.47902,1.181905 1.111876,0.952514 1.336662,1.253275 2.322466,2.266643 0.324763,0.33384 0.619837,0.70069 0.980274,0.99566 0.503323,0.4119 1.066886,0.74413 1.600329,1.1162 0.401497,0.25761 0.802994,0.51522 1.20449,0.77283 0,0 0.139427,0.0585 0.139427,0.0585 v 0 c 0.137045,-0.0303 0.27409,-0.0606 0.411135,-0.0909 0.64256,-0.50992 0.519928,-0.21378 -0.34676,-1.19104 -2.567544,-2.895087 -5.711319,-4.973525 -9.131704,-6.797232 -0.591066,-0.316197 -1.166303,-0.663957 -1.773199,-0.948591 -2.81519,-1.320323 -5.912915,-1.927323 -9.014755,-1.812346 -2.086146,0.222474 -4.315215,0.56833 -5.916221,2.053875 0,0 3.391116,2.13416 3.391116,2.13416 z" />
    <path
       style="fill:#000000"
       id="path486"
       d="m 65.05183,93.622612 c 0.03567,0.178458 0.153798,0.797273 0.207043,0.923136 0.59536,1.407348 1.731111,2.666025 2.667022,3.846826 2.471443,2.752636 5.858912,4.418876 9.177558,5.955796 0.770735,0.35694 3.13294,0.78056 3.946973,0.94403 1.862788,0.17569 3.819148,0.46155 5.691252,0.1646 0.441963,-0.0701 0.944974,-0.1006 1.283622,-0.39311 0.25665,-0.22169 0.138785,-0.6733 0.297777,-0.97286 0.130118,-0.24516 0.366832,-0.41662 0.550249,-0.62492 0,0 -0.125077,-0.0849 -0.125077,-0.0849 v 0 c -3.3114,0.0543 0.877039,0.0784 -3.648073,-0.38658 -2.440489,-0.25076 -4.95285,0.43897 -7.3757,-0.22482 -0.657798,-0.14255 -1.323188,-0.25371 -1.973393,-0.42764 -0.666545,-0.1783 -1.963174,-1.31777 -1.972424,-0.62785 -0.01062,0.79184 1.390664,0.79092 1.962898,1.33835 0.413184,0.39528 -1.003031,-0.55265 -1.476588,-0.87312 -0.451328,-0.30544 -0.884418,-0.63996 -1.292664,-1.00096 -0.380713,-0.33665 -0.712551,-0.72483 -1.068826,-1.08725 -1.320957,-1.626943 -2.546823,-3.325886 -3.751738,-5.038693 0,0 -3.099911,-1.430015 -3.099911,-1.430015 z" />
    <path
       style="fill:#000000"
       id="path498"
       d="m 87.418454,136.73335 c 0.697247,0.20616 1.39868,0.045 2.099134,-0.0427 0.523387,-0.0655 1.125505,-0.12613 1.64684,-0.18106 1.955394,-0.25292 3.927272,-0.18377 5.887815,-0.0483 1.831283,0.0601 3.615597,0.47908 5.433337,0.64959 1.95931,0.0738 3.92035,0.0913 5.88031,0.15665 1.14638,0.0113 2.29145,0.0644 3.43439,0.15229 0.1758,0.0135 1.29154,0.30848 1.53391,-0.1712 0.0862,-0.17069 -0.0371,-0.38067 -0.0557,-0.57101 0.16471,-0.0242 0.32941,-0.0483 0.49412,-0.0725 0,0 -0.12162,-0.0898 -0.12162,-0.0898 v 0 c -0.27558,-0.0583 -0.55117,-0.11665 -0.82676,-0.17497 -1.04618,-0.45377 -2.06122,-0.96292 -3.18403,-1.21037 -0.35317,-0.0778 -0.72,-0.0697 -1.08074,-0.0952 -1.15949,-0.0821 -2.32275,-0.10253 -3.48281,-0.17434 -1.99983,-0.0713 -4.00275,-0.10521 -5.997595,-0.27153 -0.51886,-0.0447 -1.037226,-0.0989 -1.558566,-0.10731 -0.23481,-0.004 -0.469628,0.0216 -0.704369,0.0147 -0.904615,-0.0264 -1.803564,-0.17338 -2.708237,-0.20184 -1.988956,-0.10612 -3.978485,-0.14435 -5.963345,0.069 -0.551576,0.0577 -1.102343,0.12312 -1.654047,0.17963 -0.531849,0.0545 -1.233497,-0.0204 -1.686427,0.3039 0,0 2.61435,1.88633 2.61435,1.88633 z" />
    <path
       style="fill:#000000"
       id="path502"
       d="m 87.478092,135.08998 c 0.504957,-0.391 0.996773,-0.8007 1.533351,-1.14754 0.643807,-0.46313 1.347557,-0.80606 2.077125,-1.10871 0.728892,-0.28896 1.51298,-0.38425 2.27251,-0.56776 0.593471,-0.17198 1.207963,-0.23042 1.817687,-0.31328 0.495508,-0.0914 0.998162,-0.11445 1.500411,-0.13354 0.535904,-0.0452 1.069107,0.009 1.601462,0.0649 0.506374,0.0367 1.010401,0.073 1.508142,0.17617 0.39996,0.0739 0.7451,0.2753 1.08597,0.48549 -4.694046,-2.77633 -2.749084,-1.70192 -1.792833,-0.91304 1.147423,0.97151 2.320603,1.9675 3.764963,1.72436 0.38713,-0.0886 0.76944,-0.19633 1.15546,-0.28991 0.48769,-0.12161 0.96969,-0.26412 1.45133,-0.40745 0.51091,-0.17261 1.01918,-0.33752 1.55908,-0.37691 0.60672,-8.8e-4 1.13832,0.29202 1.65446,0.57789 1.1603,0.68156 -0.14738,-0.0877 -2.00829,-1.1536 -0.11816,-0.0677 0.23446,0.13856 0.35102,0.20897 0.35922,0.21699 0.71556,0.43849 1.07569,0.65402 1.67634,1.15579 3.53276,1.97526 5.31127,2.94176 -4.32871,-2.72049 -1.2085,-0.56183 -0.2214,0.0755 0.49694,0.31141 1.04702,0.52398 1.51885,0.87397 0,0 0.13934,0.0587 0.13934,0.0587 v 0 c 0.0505,-0.22213 0.44384,0.0903 0.63636,-0.006 -0.13088,-0.26573 -0.35734,-0.41243 -0.5935,-0.58685 -1.19319,-0.88128 -2.53517,-1.54739 -3.8106,-2.29009 -1.11805,-0.58717 -4.90006,-2.61972 -0.11885,0.0351 -1.56738,-0.91775 -3.07535,-1.9382 -4.70122,-2.75653 -0.57282,-0.28674 -1.15992,-0.54307 -1.81672,-0.46387 -0.54156,0.0871 -1.05615,0.26758 -1.58029,0.42497 -0.48832,0.13609 -0.97874,0.26546 -1.47413,0.37351 -0.38251,0.089 -0.76202,0.20089 -1.15366,0.24232 -0.1605,0.007 -0.310888,0.0108 -0.466002,-0.0401 -0.04729,-0.0155 -0.180446,-0.0833 -0.137583,-0.058 2.306395,1.36082 3.516035,1.9898 2.446805,1.43116 -1.20913,-0.89392 -1.94463,-1.79039 -3.679871,-2.29523 -0.35954,-0.19152 -0.734123,-0.33725 -1.141786,-0.38749 -0.49754,-0.0694 -0.999154,-0.0871 -1.498564,-0.13941 -0.545219,-0.0484 -1.090903,-0.0742 -1.638026,-0.0363 -0.506905,0.0258 -1.010759,0.073 -1.510034,0.16835 -0.582817,0.0992 -1.142402,0.27249 -1.714238,0.42092 -0.711787,0.18601 -1.354119,0.48708 -2.021546,0.79231 -0.719705,0.31782 -1.423002,0.6934 -1.998977,1.23847 -0.466247,0.43443 -0.999957,0.77965 -1.518405,1.14835 0,0 2.135239,1.35451 2.135239,1.35451 z" />
    <path
       style="fill:#000000"
       id="path528"
       d="m 37.871538,89.436344 c -0.318651,1.043966 -0.355652,2.109879 -0.329273,3.193713 0.06904,1.813969 0.206803,3.622401 0.343478,5.432171 0.130094,1.735449 0.360579,3.460812 0.527991,5.192702 0.165683,1.78744 0.470838,3.55599 0.789705,5.32101 0.312261,1.71382 0.753417,3.39795 1.244875,5.06777 0.38615,1.38636 0.880157,2.73828 1.34352,4.09968 0.442222,1.31984 0.798763,2.66577 1.230625,3.98896 0.448246,1.27116 0.938207,2.52703 1.396718,3.79446 0.489491,1.39351 0.857481,2.82418 1.354606,4.21501 0.528526,1.38375 1.296315,2.65587 2.040101,3.93089 0.818895,1.41576 1.62382,2.83912 2.400513,4.27847 0.677656,1.27242 1.332582,2.55677 2.000207,3.83449 0.609251,1.20469 1.289023,2.36916 2.035432,3.49347 0.656866,0.96623 1.410001,1.86038 2.183391,2.73412 0.668037,0.74004 1.322401,1.49215 1.976733,2.24427 0.589333,0.67168 1.147606,1.37005 1.762564,2.01873 1.776931,1.6101 3.958599,2.7863 6.128434,3.76625 0.743046,0.31368 1.503372,0.58361 2.259948,0.86226 0.643829,0.21721 1.23479,0.55525 1.854482,0.82828 0.634661,0.25748 1.268778,0.51789 1.911351,0.75514 0.73497,0.24247 1.496968,0.39107 2.258284,0.52302 0.681359,0.12294 1.374325,0.1559 2.065279,0.14133 0.611247,2e-5 1.184463,-0.18427 1.730284,-0.44349 0.420102,-0.22428 0.833255,-0.46125 1.251471,-0.68909 0.299425,-0.19574 0.672608,-0.272 0.961216,-0.48114 -0.003,-0.0327 0.01144,-0.0725 -0.009,-0.0982 -0.115059,-0.14515 -0.275921,-0.24735 -0.408139,-0.37707 -0.292186,-0.28664 -0.586214,-0.56791 -0.888564,-0.84412 0,0 -0.12324,-0.0876 -0.12324,-0.0876 v 0 c -0.78229,-0.47275 -1.584004,-1.07989 -2.498863,-1.24083 -0.390576,0.0775 -0.725135,0.31039 -1.077253,0.48859 -0.404607,0.22039 -0.791451,0.47307 -1.208413,0.67007 -0.510817,0.20798 -1.038342,0.31398 -1.592906,0.29797 -0.664949,-0.01 -1.327341,-0.0605 -1.981376,-0.18726 -0.744166,-0.14091 -1.487979,-0.30114 -2.193831,-0.58276 -0.628842,-0.24502 -1.260984,-0.48385 -1.87479,-0.76508 -0.599108,-0.28173 -1.201776,-0.55586 -1.831236,-0.76448 -0.748329,-0.27185 -1.498966,-0.54328 -2.217932,-0.88718 -1.607209,-0.82524 -0.438899,-0.2336 3.196523,1.88302 0.126649,0.0737 -0.256427,-0.14213 -0.381638,-0.21829 -0.244149,-0.14849 -0.499379,-0.32092 -0.724097,-0.49786 -0.112233,-0.0884 -0.218017,-0.18464 -0.327025,-0.27695 -0.647943,-0.62402 -1.207118,-1.32587 -1.798585,-2.00226 -0.662974,-0.75534 -1.321444,-1.51481 -1.996851,-2.25903 -0.790438,-0.87084 -1.575821,-1.74958 -2.266037,-2.70366 -0.766971,-1.09876 -1.44536,-2.25212 -2.055574,-3.44545 -0.680015,-1.29529 -1.370314,-2.58503 -2.064809,-3.87262 -0.794002,-1.42927 -1.599244,-2.85228 -2.391448,-4.28257 -0.700807,-1.26127 -1.43465,-2.50888 -2.004186,-3.8373 -0.547139,-1.37415 -0.940787,-2.79924 -1.376498,-4.21141 -0.424406,-1.28331 -0.918405,-2.53971 -1.409662,-3.79864 -0.469496,-1.31231 -0.823126,-2.65818 -1.233118,-3.98958 -0.467448,-1.36997 -0.956291,-2.73273 -1.402956,-4.10972 -0.509049,-1.65881 -0.991444,-3.32935 -1.296697,-5.03976 -0.338236,-1.76697 -0.730195,-3.52988 -0.887341,-5.32483 -0.155662,-1.74299 -0.360944,-3.47828 -0.580793,-5.214206 -0.164804,-1.829438 -0.315221,-3.65896 -0.49025,-5.487107 -0.06967,-1.14682 -0.188377,-2.283758 -0.27036,-3.427029 0,0 -3.055003,-1.609264 -3.055003,-1.609264 z" />
    <path
       style="fill:#000000"
       id="path530"
       d="m 77.071299,156.10927 c 0.466461,0.79101 0.899107,1.60348 1.460452,2.3308 0.472163,0.65568 1.031852,1.21786 1.654782,1.72708 0.641359,0.42956 1.233061,0.9253 1.844259,1.39531 1.865111,1.35357 3.845158,2.58231 5.958618,3.50564 0.725288,0.3409 1.503004,0.49878 2.291609,0.60125 0.718849,0.10649 1.442036,0.16807 2.167566,0.20265 0.671276,0.0133 1.334422,0.11532 1.996775,0.21522 0.669348,0.10587 1.342457,0.18417 2.017096,0.2467 0.752584,0.067 1.507799,0.0977 2.262413,0.13203 0.731504,0.0457 1.460951,0.11322 2.194111,0.12343 0.69954,0.0148 1.39841,-0.0101 2.09693,-0.045 0.70091,-0.035 1.401,-0.007 2.10042,0.0394 0.71719,0.0597 1.43448,0.11577 2.1531,0.15527 0.68951,0.0408 1.3731,0.14226 2.061,0.20076 0.6758,0.0399 1.35222,0.004 2.02645,-0.0438 0.72581,-0.0755 1.4546,-0.0989 2.18341,-0.12286 0.72361,-0.0293 1.44775,-0.042 2.17136,-0.07 0.66426,-0.037 1.32546,-0.11267 1.98653,-0.1853 0.62272,-0.0792 1.23592,-0.2148 1.85398,-0.32185 0.62354,-0.11535 1.24371,-0.24876 1.858,-0.40602 0.56039,-0.13474 1.11756,-0.28202 1.67782,-0.41726 0.4926,-0.13131 0.99195,-0.23846 1.48158,-0.3804 0.48565,-0.17395 0.92057,-0.46136 1.33366,-0.76534 0.39585,-0.31124 0.73456,-0.68333 1.07501,-1.05196 0.29437,-0.31524 0.54102,-0.66536 0.76241,-1.03415 0.49923,-0.81977 0.56744,-0.56383 -0.45401,-1.3151 -0.30538,-0.21006 -0.61077,-0.42012 -0.91615,-0.63018 0,0 -0.12897,-0.0789 -0.12897,-0.0789 v 0 c -0.33261,-0.1824 -0.66523,-0.3648 -0.99784,-0.5472 -1.09825,-0.518 -1.05139,-0.68378 -1.54358,0.23203 -0.20204,0.34458 -0.43477,0.66954 -0.69685,0.97139 -0.30132,0.35779 -0.62694,0.69837 -1.0026,0.97933 -0.37832,0.27529 -0.77163,0.52816 -1.2371,0.62575 -0.49145,0.12358 -0.98054,0.25682 -1.47426,0.3712 -0.55624,0.13682 -1.10911,0.28677 -1.66551,0.42295 -0.61677,0.13636 -1.23362,0.27186 -1.85675,0.37671 -0.60536,0.11587 -1.21069,0.23726 -1.82368,0.306 -0.65121,0.0781 -1.3046,0.14687 -1.96099,0.1577 -0.72247,0.0201 -1.44465,0.0482 -2.16695,0.0735 -0.73646,0.0256 -1.47224,0.0599 -2.20673,0.12123 -0.65689,0.0331 -1.31678,0.0616 -1.97281,-0.003 -0.69328,-0.0679 -1.38444,-0.16032 -2.08059,-0.19615 -0.71707,-0.0436 -1.43279,-0.10353 -2.1494,-0.1538 -0.7087,-0.0383 -1.418639,-0.0431 -2.127322,0.002 -0.684839,0.0312 -1.370372,0.0483 -2.05591,0.0293 -0.731864,-0.0371 -1.462227,-0.0974 -2.194133,-0.13399 -0.75628,-0.0426 -1.513203,-0.0798 -2.266508,-0.16237 -0.667485,-0.0704 -1.332967,-0.15642 -1.996875,-0.2551 -0.661182,-0.086 -1.324509,-0.14204 -1.99101,-0.16606 -0.719831,-0.0535 -1.436609,-0.13456 -2.150826,-0.23967 -0.759066,-0.12804 -1.493125,-0.34392 -2.186866,-0.68382 -1.386049,-0.67368 -3.374218,-1.93002 2.679888,1.62038 0.275393,0.1615 -0.553687,-0.31895 -0.819186,-0.49624 -0.126223,-0.0843 -0.250001,-0.17219 -0.375001,-0.25828 -0.658429,-0.48319 -1.255199,-1.04819 -1.954167,-1.47341 -0.949303,-0.52388 -1.867569,-1.10527 -2.554917,-1.96443 -0.28235,-0.34666 -0.592156,-0.67161 -0.85669,-1.03204 -0.319506,-0.43534 -0.527955,-0.95469 -0.872855,-1.375 0,0 -2.612193,-1.15624 -2.612193,-1.15624 z" />
    <path
       style="fill:#000000"
       id="path532"
       d="m 122.50691,156.8716 c 0.69701,0.68221 1.2243,1.51119 1.75098,2.32563 0.39986,0.75335 0.85963,1.39485 1.57064,1.87603 1.95995,1.38964 2.61526,1.57208 4.52958,1.90746 0.8048,0.10541 1.60718,0.13009 2.41718,0.0924 0.58524,-0.10976 1.18213,-0.0334 1.77011,-0.082 0.15431,-0.0128 0.69972,-0.12161 0.8482,-0.15007 0.91397,-0.16931 1.81677,-0.37898 2.70379,-0.65663 0.8064,-0.2776 1.57022,-0.65955 2.32631,-1.05028 0.73577,-0.37257 1.44822,-0.78738 2.14915,-1.22126 0.69914,-0.41107 1.37574,-0.85722 2.04237,-1.3186 0.67797,-0.47164 1.33576,-0.96876 1.96521,-1.50323 0.59012,-0.51321 1.12367,-1.08421 1.63003,-1.67876 0.18691,-0.2258 0.48692,-0.28995 0.70455,-0.46967 0.39206,-0.32375 0.69487,-0.864 0.98042,-1.27834 0.48474,-0.76294 0.96397,-1.52931 1.45647,-2.28733 0.45735,-0.69816 0.90971,-1.39896 1.40019,-2.0745 0.45238,-0.58058 0.88421,-1.17596 1.29696,-1.78523 0.46402,-0.66385 0.80699,-1.3957 1.13449,-2.13308 0.31569,-0.78011 0.63242,-1.55956 0.95552,-2.3366 0.33611,-0.79096 0.64035,-1.59457 0.94217,-2.39902 0.3029,-0.82981 0.62245,-1.65363 0.94832,-2.47467 0.30709,-0.76482 0.56499,-1.54776 0.85886,-2.31754 0.30923,-0.74395 0.69565,-1.45298 1.09881,-2.14943 0.43668,-0.73817 0.77088,-1.52456 1.04252,-2.33611 0.29056,-0.97304 0.54306,-1.95719 0.78875,-2.94238 0.19821,-0.83113 0.36544,-1.66971 0.51797,-2.51035 0.13779,-0.75169 0.21233,-1.51175 0.2793,-2.27227 0.0324,-0.91915 0.10853,-1.83347 0.22286,-2.74579 0.11399,-0.89575 0.27759,-1.78341 0.46433,-2.66646 0.21275,-0.90075 0.35278,-1.81559 0.48266,-2.73119 0.11374,-0.87053 0.15249,-1.74828 0.20995,-2.62368 0.0595,-0.81801 0.15583,-1.63296 0.25899,-2.44646 0.0878,-0.7838 0.25169,-1.55527 0.41561,-2.32577 0.14043,-0.69561 0.30793,-1.38499 0.47416,-2.07474 0.13046,-0.57889 0.23782,-1.16244 0.33851,-1.74711 0.0954,-0.57216 0.16816,-1.14774 0.26262,-1.72002 0.074,-0.43046 0.18752,-0.85262 0.29584,-1.27534 0.0838,-0.31263 0.19204,-0.61796 0.29278,-0.92539 0.081,-0.2717 0.16303,-0.543525 0.22045,-0.821378 0.0694,-0.307027 0.11732,-0.618287 0.16617,-0.929082 0.0501,-0.333099 0.0836,-0.668064 0.11603,-1.003216 0.0525,-0.61593 0.008,-0.834981 -0.42895,-1.29291 -0.46384,-0.403231 -0.97513,-0.736515 -1.42857,-1.151244 0,0 -0.13527,-0.06751 -0.13527,-0.06751 v 0 c -0.47946,-0.02889 -0.91391,-0.214947 -1.38724,-0.291023 -0.10148,-0.0064 -0.20437,-0.03707 -0.30446,-0.01909 -0.23369,0.042 -0.29607,0.565983 -0.32814,0.731459 -0.0276,0.32831 -0.0658,0.655391 -0.11395,0.981305 -0.0343,0.300981 -0.0887,0.59871 -0.15623,0.894043 -0.0605,0.265685 -0.11308,0.532862 -0.20226,0.791214 -0.088,0.322904 -0.17849,0.644959 -0.27138,0.966496 -0.0979,0.443163 -0.1923,0.887926 -0.2653,1.335816 -0.075,0.57247 -0.14993,1.14454 -0.26652,1.71045 -0.0894,0.58099 -0.18764,1.16013 -0.31242,1.73475 -0.13563,0.70142 -0.31185,1.39418 -0.44217,2.09673 -0.15811,0.78564 -0.32439,1.57085 -0.41158,2.36849 -0.0979,0.82172 -0.19709,1.64358 -0.27107,2.46785 -0.0581,0.86776 -0.092,1.73772 -0.19301,2.60206 -0.10509,0.91032 -0.25881,1.81164 -0.46141,2.70558 -0.17866,0.89597 -0.36134,1.79136 -0.47024,2.69928 -0.12319,0.90893 -0.23474,1.81992 -0.28764,2.73606 -0.0556,0.75177 -0.15093,1.49974 -0.25018,2.24687 -0.12311,0.83949 -0.28779,1.67186 -0.47047,2.50035 -0.22128,0.97424 -0.46884,1.94323 -0.80017,2.88677 -0.27857,0.77995 -0.58568,1.54963 -1.01072,2.26371 -0.39433,0.72475 -0.81821,1.43585 -1.12185,2.20593 -0.30849,0.76517 -0.57386,1.54662 -0.86237,2.31945 -0.30805,0.83104 -0.63287,1.65583 -0.93215,2.49015 -0.29053,0.80097 -0.58051,1.60325 -0.92943,2.38114 -0.33628,0.76843 -0.64756,1.54703 -0.9701,2.32117 -0.31676,0.71445 -0.68978,1.39903 -1.13208,2.04449 -0.40806,0.60567 -0.83448,1.19878 -1.26338,1.78982 -0.48808,0.68427 -0.92434,1.40204 -1.38679,2.10362 -0.50007,0.75021 -0.97811,1.51428 -1.47355,2.26752 -0.26069,0.38177 -0.71813,0.88298 -0.91247,1.27661 -0.11351,0.22993 -0.0944,0.51398 -0.2724,0.71941 -0.49051,0.57913 -1.00578,1.13768 -1.57752,1.63841 -0.61968,0.52972 -1.28256,1.00325 -1.95424,1.46462 -0.66039,0.45649 -1.33729,0.88748 -2.02113,1.30795 -0.6956,0.4258 -1.40206,0.8315 -2.12893,1.2021 -0.73276,0.38617 -1.47745,0.75572 -2.26933,1.00676 -0.87563,0.27299 -1.77061,0.46846 -2.67498,0.62079 -0.27748,0.0489 -0.55963,0.0763 -0.83242,0.14685 -0.47546,0.12296 -0.90996,0.34095 -1.42358,0.27956 -0.71919,0.023 -1.44064,0.0539 -2.15822,0.0457 -0.15238,0.006 -0.41637,0.0226 -0.56996,0.004 -1.04042,-0.12837 -2.8379,-1.37905 1.11588,0.93001 -0.81741,-0.44471 -1.44523,-1.14629 -1.96347,-1.91218 -0.52951,-0.8183 -1.01332,-1.68155 -1.70951,-2.37399 0,0 -2.23648,-0.91565 -2.23648,-0.91565 z" />
    <path
       style="fill:#000000"
       id="path536"
       d="m 40.862736,92.026987 c 1.460785,-0.754241 2.668381,-1.884256 3.844021,-3.012443 2.277027,-2.236777 4.09726,-4.86273 5.839007,-7.521127 1.782714,-2.93444 3.206444,-6.068438 4.534927,-9.228876 1.147159,-2.932289 2.506014,-5.773648 3.768115,-8.656604 0.466336,-1.088798 0.884654,-2.201519 1.157942,-3.35574 0.04442,-0.187587 0.146261,-0.374815 0.119837,-0.565769 -0.03316,-0.239622 -0.193449,-0.443452 -0.290173,-0.665178 -1.182734,-1.08219 -0.665713,-0.590055 -1.562491,-1.464304 0,0 -0.135426,-0.0672 -0.135426,-0.0672 v 0 c -0.854377,8.18e-4 -0.347259,0.02568 -1.516112,-0.146582 -0.128346,0.09529 -0.31201,0.143679 -0.385037,0.285877 -0.08772,0.170819 -0.03101,0.382969 -0.05622,0.573335 -0.02998,0.226397 -0.06633,0.452051 -0.109294,0.676348 -0.179664,0.938024 -0.44403,1.857968 -0.743931,2.763895 -1.066265,2.969085 -2.380795,5.837895 -3.575676,8.756196 -1.312201,3.145462 -2.658752,6.287513 -4.500088,9.16966 -1.711466,2.651187 -3.599094,5.212242 -5.962258,7.32634 -1.267452,1.059498 -2.597629,2.127941 -4.225196,2.56338 0,0 3.79805,2.56879 3.79805,2.56879 z" />
    <path
       style="fill:#000000"
       id="path538"
       d="m 164.85552,93.386501 c -1.17914,-0.482471 -2.31842,-1.045305 -3.44487,-1.639469 -0.29963,-0.181281 -1.21303,-0.698593 -0.89888,-0.543842 0.86916,0.428148 1.64389,1.068143 2.56614,1.365138 0.44394,0.142966 -0.73219,-0.578666 -1.08196,-0.887181 -1.19543,-1.054411 -2.25234,-2.236655 -3.31059,-3.424322 -2.08619,-2.418253 -3.96742,-5.032732 -5.39266,-7.898954 -0.29055,-0.584313 -0.54191,-1.187309 -0.81287,-1.780963 -1.40783,-3.303042 -1.9787,-6.83516 -2.22332,-10.392245 -0.11378,-2.356058 -0.0548,-4.715629 0.15128,-7.064394 -0.0235,-0.240357 0.0516,-0.512683 -0.0705,-0.72107 -0.49699,-0.848521 -1.43733,-1.200407 -2.09885,-1.864277 0,0 -0.13777,-0.06225 -0.13777,-0.06225 v 0 c -0.57005,0.488514 -1.98336,-1.377906 -2.1365,0.354131 -0.0452,2.439854 -0.033,4.882404 0.20006,7.314313 0.1632,1.752068 0.30723,3.509473 0.66998,5.235114 0.39022,1.85636 1.0165,3.649042 1.72032,5.406923 0.27306,0.605284 0.52532,1.220387 0.81918,1.815853 1.42995,2.897639 3.32453,5.5378 5.3946,8.008067 1.08434,1.225382 2.18115,2.41921 3.39142,3.523425 0.34176,0.311815 0.66415,0.652346 1.04993,0.907687 1.49384,0.988732 3.04397,1.889808 4.57699,2.81663 0.27586,0.166779 0.5658,0.309071 0.8487,0.463606 0.5708,0.239881 1.15169,0.440942 1.72568,0.671424 0.26887,0.107965 0.62191,0.283833 0.91275,0.364082 0.0733,0.02022 0.15074,0.01989 0.22612,0.02983 0,0 -2.64442,-1.997253 -2.64442,-1.997253 z" />
    <path
       style="fill:#000000"
       id="path542"
       d="m 54.21497,60.080687 c 1.054129,-0.172774 2.074749,-0.537559 3.113487,-0.798606 2.178551,-0.528669 4.389594,-0.913037 6.5933,-1.320284 2.801565,-0.516315 5.60553,-1.014381 8.423368,-1.433808 2.98462,-0.404425 5.97907,-0.74474 8.98096,-0.990367 2.984364,-0.218191 5.967467,-0.490177 8.960029,-0.554922 0.488174,0.01961 0.976,0.05217 1.464523,0.05882 0.14294,0.0019 2.391464,-0.04084 2.571987,-0.04351 1.165807,-0.01725 2.328203,0.01336 3.493796,-0.01322 1.986716,-0.08384 3.97134,-0.206427 5.9571,-0.308739 2.39442,-0.09812 4.79092,0.01107 7.18394,0.09775 2.58142,0.106173 5.15802,0.30213 7.7362,0.465838 2.32353,0.178587 4.64804,0.341212 6.97392,0.485877 2.06828,0.13383 4.13247,0.323736 6.19634,0.512307 2.13156,0.325388 4.28318,0.471269 6.41885,0.764911 2.29671,0.36408 4.58254,0.796563 6.85484,1.290013 2.22031,0.540496 4.41787,1.166768 6.63628,1.715693 0.90617,0.208763 1.80069,0.464921 2.70564,0.678459 0.14495,0.0342 0.28719,0.08996 0.4359,0.09802 0.0608,0.0033 0.11365,-0.04344 0.17047,-0.06516 -0.20134,-0.486871 -0.73176,-0.69041 -1.06091,-1.080855 0,0 -0.18418,-0.13568 -0.18418,-0.13568 v 0 c -0.69077,-0.397572 -1.28892,-0.938748 -2.02138,-1.266763 -1.10768,-0.451247 -2.31421,-0.548885 -3.4699,-0.84212 -2.18614,-0.514352 -4.34253,-1.144963 -6.53625,-1.62789 -2.30448,-0.506768 -4.61643,-0.991544 -6.95391,-1.32193 -2.0494,-0.272236 -4.10623,-0.553014 -6.17741,-0.561875 -2.04925,-0.17681 -4.09876,-0.350422 -6.15257,-0.466637 -2.30338,-0.139083 -4.60653,-0.2793 -6.90857,-0.439713 -2.57046,-0.172888 -5.14304,-0.306221 -7.71582,-0.439778 -2.43627,-0.115104 -4.8754,-0.210825 -7.31484,-0.152666 -1.980409,0.06724 -3.955645,0.221538 -5.934128,0.328424 -1.048428,0.08137 -2.085903,0.209079 -3.136666,0.262093 -0.380188,0.01918 -2.111517,0.08422 -2.472751,0.121739 -0.382606,0.03974 -0.759895,0.120108 -1.139842,0.180162 -2.902126,0.307464 -5.816501,0.479308 -8.723645,0.732125 -3.010797,0.267863 -6.028441,0.485949 -9.012824,0.988153 -2.837834,0.423694 -5.670552,0.880097 -8.49372,1.39334 -2.273432,0.384324 -4.54736,0.765569 -6.814875,1.183681 -1.040529,0.217455 -2.133939,0.395043 -3.111174,0.813131 0,0 2.464435,1.693993 2.464435,1.693993 z" />
    <path
       style="fill:#000000"
       id="path548"
       d="m 40.76769,92.365363 c 0.07054,-0.391814 0.144767,-0.756604 0.166386,-1.160548 0.0969,-1.810475 -0.04669,-3.697051 -0.104239,-5.507963 -0.0016,-4.316059 -0.08666,-8.631657 -0.272333,-12.943638 -0.17762,-4.037134 -0.215919,-8.07739 -0.221659,-12.117683 0.03805,-2.661906 0.142971,-5.323031 0.278404,-7.981675 0.08465,-1.966809 0.387369,-3.904218 0.852672,-5.813934 0.462981,-1.948867 1.456555,-3.652074 2.624497,-5.25272 1.353624,-1.81107 3.172159,-3.087857 5.134222,-4.155525 2.465991,-1.258456 4.766015,-1.417682 7.473632,-1.311302 2.732795,0.219509 5.42373,0.776153 8.127117,1.213338 2.538869,0.440642 5.092864,0.311176 7.633126,-0.0051 2.321393,-0.411052 4.624359,-0.906878 6.955178,-1.26583 2.573652,-0.357809 5.166704,-0.544754 7.759952,-0.685876 2.874688,-0.182786 5.752659,-0.277885 8.632285,-0.33169 3.006532,-0.04032 6.01123,0.120004 9.01403,0.248475 3.18863,0.147225 6.37822,0.264739 9.56599,0.431818 3.13768,0.110878 6.27188,0.267959 9.40254,0.50521 2.70336,0.19451 5.4092,0.347485 8.11033,0.572128 2.33801,0.175191 4.67381,0.377363 7.01011,0.573503 2.21331,0.154427 4.43073,0.09081 6.64652,0.05818 2.0486,-0.01582 4.09714,-0.0095 6.14574,-0.02417 1.69746,-0.04001 3.38562,0.03465 5.06375,0.291693 1.4563,0.208683 2.81746,0.732103 4.1172,1.401449 2.26001,1.306218 -2.13184,-1.233649 -3.24208,-1.843331 -0.16001,-0.08787 0.30168,0.206487 0.44273,0.322377 0.46733,0.383963 0.73706,0.810679 1.01784,1.338007 0.61831,1.575295 0.66439,3.292738 0.74962,4.962287 0.12939,2.238737 -0.0447,4.472988 -0.265,6.699268 -0.25873,2.706039 -0.53041,5.41079 -0.64014,8.127612 -0.088,3.067638 0.30455,6.113907 0.72504,9.144756 0.44515,3.02211 0.93692,6.035581 1.30818,9.068054 0.26831,2.656563 0.51401,5.316478 0.73178,7.977834 0.16743,2.02202 0.25937,4.048469 0.32454,6.075998 0.0379,0.791771 0.07,1.583671 0.10114,2.37571 0.0207,0.527191 -0.002,0.947774 0.21641,1.450656 0.13709,0.315365 0.35145,0.591169 0.52718,0.886753 1.11904,1.25859 0.66748,0.65095 1.41152,1.779265 0,0 0.13438,0.06927 0.13438,0.06927 v 0 c 0.82665,-0.338177 0.34285,-0.199806 1.47717,-0.311195 0.17245,-0.121071 0.39567,-0.191185 0.51733,-0.363213 0.41728,-0.590018 -0.068,-2.930129 -0.04,-3.701148 -0.14316,-2.056148 -0.27008,-4.113756 -0.4597,-6.166363 -0.28348,-2.685978 -0.62484,-5.365618 -0.86468,-8.056218 -0.34644,-3.044227 -0.89074,-6.058741 -1.3346,-9.089574 -0.39294,-2.987918 -0.75142,-5.992848 -0.64399,-9.013301 0.11956,-2.694949 0.3809,-5.377698 0.719,-8.053976 0.24472,-2.221736 0.49278,-4.453287 0.43169,-6.692261 -0.0514,-1.692652 -0.10576,-3.406105 -0.5043,-5.05912 -0.17474,-0.449347 -0.24947,-0.724879 -0.5266,-1.12081 -0.18243,-0.260626 -0.55969,-0.645293 -0.83231,-0.810609 -3.73155,-2.262822 -3.34327,-2.046936 -5.4287,-3.147025 -1.33143,-0.61208 -2.71742,-1.083274 -4.18165,-1.249466 -1.66914,-0.201088 -3.34767,-0.225023 -5.02764,-0.176998 -2.01775,0.0142 -4.03524,0.03482 -6.05227,0.09574 -2.22451,0.02715 -4.45295,0.0237 -6.6732,-0.131227 -2.31481,-0.158111 -4.62835,-0.334908 -6.94108,-0.520799 -2.6716,-0.16867 -5.34474,-0.312209 -8.01528,-0.498083 -3.11361,-0.177233 -6.22922,-0.313061 -9.34477,-0.451639 -3.18673,-0.132394 -6.37246,-0.286613 -9.55888,-0.42605 -2.969646,-0.146243 -5.939357,-0.245799 -8.912854,-0.139174 -2.887671,0.05021 -5.772024,0.177128 -8.655706,0.336588 -2.619208,0.161466 -5.237974,0.359218 -7.84329,0.677739 -2.328154,0.350691 -4.613213,0.915767 -6.942357,1.258403 -2.483452,0.295867 -4.984471,0.405547 -7.463265,-0.02551 -2.717388,-0.43724 -5.418548,-1.022764 -8.173468,-1.177348 -1.031283,-0.02388 -1.649518,-0.07005 -2.679083,0.03341 -1.722005,0.173046 -3.379131,0.733247 -4.940617,1.459358 -2.029218,1.094215 -3.92339,2.395286 -5.298002,4.286133 -1.197672,1.640242 -2.256478,3.388232 -2.756872,5.378675 -0.492422,1.955743 -0.714728,3.952317 -0.746446,5.969773 -0.104724,2.714219 -0.174734,5.43205 -0.01949,8.146326 0.186347,4.100725 0.429446,8.19898 0.57439,12.301714 0.12966,4.268083 0.237031,8.534903 0.03111,12.803416 -0.09433,2.189464 -0.194615,4.383816 -0.146376,6.574942 0,0 3.598223,1.886236 3.598223,1.886236 z" />
    <path
       style="fill:#000000"
       id="path552"
       d="m 81.57061,119.50394 c -0.481774,0.71475 -0.563316,1.6021 -0.677779,2.43389 -0.169689,1.40731 -0.355675,2.81263 -0.527514,4.2197 -0.21846,1.60328 -0.342667,3.21501 -0.444639,4.82899 -0.08763,1.66482 -0.05994,3.33254 -0.09178,4.99877 -0.04314,1.39007 -0.04412,2.78081 -0.06722,4.17122 -0.02615,1.13126 -0.02699,2.26282 -0.04872,3.39417 -0.03951,0.99094 -0.07834,1.9821 -0.133883,2.97231 -0.06569,0.87652 -0.105953,1.75424 -0.147118,2.63214 0.0022,0.90271 -0.111514,1.82112 0.0482,2.71369 0.525423,0.68877 0.291916,0.35775 0.709446,0.98668 0,0 0.134721,0.0686 0.134721,0.0686 v 0 c 0.415266,-0.20752 0.186551,-0.11012 0.691676,-0.27885 0.124885,-0.87508 -0.07308,-1.77183 0.03723,-2.65315 0.05216,-0.87348 0.13116,-1.74519 0.172563,-2.61943 0.04649,-1.00407 0.06198,-2.00876 0.06528,-3.01388 0.02409,-1.13315 0.06813,-2.2664 0.0448,-3.39996 -0.01981,-1.40732 -0.02376,-2.81486 -0.03592,-4.22224 -1.27e-4,-1.6627 -0.0011,-3.32714 0.09403,-4.98762 0.101818,-1.60818 0.211815,-3.21858 0.44952,-4.81343 0.200576,-1.38812 0.382653,-2.7796 0.629409,-4.16051 0.150099,-0.80706 0.31538,-1.60353 0.736133,-2.3201 0,0 -1.638446,-0.95099 -1.638446,-0.95099 z" />
    <path
       style="fill:#000000"
       id="path554"
       d="m 118.0326,119.66062 c 0.59821,1.08547 0.98272,2.27804 1.36156,3.45408 0.69816,2.26698 1.16052,4.5982 1.59486,6.92744 0.47662,2.63245 0.90863,5.27443 1.10226,7.94394 0.33798,2.45192 0.54052,4.91622 0.69327,7.38547 0.13126,1.91466 0.15643,3.83362 0.17822,5.75189 -0.001,0.99111 -0.12976,2.01927 0.55473,2.84236 0.22687,0.2728 0.513,0.49029 0.7695,0.73543 0,0 0.13463,0.0688 0.13463,0.0688 v 0 c 0.25907,0.0166 0.5223,0.0989 0.77722,0.0498 0.90565,-0.17443 0.36963,-1.81179 0.42987,-2.34502 -0.0589,-1.94654 -0.10571,-3.89407 -0.30369,-5.83314 -0.22765,-2.50777 -0.50491,-5.01221 -0.88869,-7.50128 -0.53866,-2.67526 -0.88925,-5.38074 -1.33874,-8.07179 -0.41747,-2.29643 -0.84495,-4.59259 -1.39557,-6.86156 -0.32975,-1.18558 -0.70997,-2.34253 -1.25193,-3.45041 0,0 -2.4175,-1.09601 -2.4175,-1.09601 z" />
    <path
       style="fill:#000000"
       id="path556"
       d="m 68.637899,156.21774 c -0.634892,1.76784 -1.435144,3.45814 -2.056155,5.23272 -1.022236,2.99178 -2.049423,5.98093 -3.007261,8.9941 -0.955031,3.1101 -1.805867,6.25184 -2.646299,9.39469 -0.744379,2.91609 -1.424051,5.84905 -2.067691,8.78897 -0.524903,2.46271 -0.932931,4.94848 -1.377618,7.42655 -0.35908,1.92669 -0.760342,3.8452 -1.083211,5.7785 -0.296218,1.7267 -0.391835,3.4785 -0.233873,5.22261 0.540661,3.117 1.670285,2.74188 4.98494,4.55914 0.957553,-0.10189 1.613528,-0.81627 2.218398,-1.49855 0.840975,-1.12225 1.686574,-2.25507 2.443931,-3.43625 0.932187,-1.61536 1.97745,-3.16129 2.938797,-4.75787 0.991548,-1.65434 1.734854,-3.43161 2.444964,-5.21918 0.743758,-1.8195 1.450668,-3.65351 2.187947,-5.47565 0.785661,-1.86699 1.565907,-3.73499 2.252339,-5.64103 0.574306,-1.65995 1.08109,-3.34025 1.715776,-4.9787 0.05916,-0.42213 0.558958,-1.05682 0.589427,-1.47923 0.01102,-0.15283 -0.0453,-0.30415 -0.08937,-0.4509 -0.04326,-0.14403 -0.07294,-0.30365 -0.171382,-0.41734 -0.225671,-0.26062 -0.51936,-0.4535 -0.779041,-0.68025 -0.148334,-0.14139 -0.296668,-0.28279 -0.445002,-0.42419 0,0 -0.279153,-0.15486 -0.279153,-0.15486 v 0 c -0.184335,-0.0435 -0.368669,-0.087 -0.553004,-0.13046 -0.310696,-0.0906 -0.61062,-0.2344 -0.93209,-0.27175 -0.148675,-0.0173 -0.624337,0.22813 -0.708268,0.34076 -0.242914,0.32596 -0.252577,1.19313 -0.487815,1.53283 -0.556894,1.67159 -1.085047,3.35195 -1.626743,5.02831 -0.680732,1.90106 -1.422651,3.77869 -2.232426,5.62878 -0.765927,1.81236 -1.490735,3.64093 -2.18635,5.48139 -0.716736,1.76086 -1.442367,3.52481 -2.428264,5.15682 -0.912128,1.61806 -1.769217,3.26864 -2.851377,4.78497 -0.757239,1.15235 -1.361925,2.41144 -2.318874,3.42464 -0.550163,0.55273 -1.186707,1.23834 -2.04066,1.05342 1.099625,0.65393 2.199249,1.30787 3.298873,1.9618 -0.321398,-0.16649 -0.420495,-0.17856 -0.662963,-0.47849 -0.386931,-0.47862 -0.537565,-1.09084 -0.676901,-1.67441 -0.254147,-1.71981 -0.193223,-3.44971 0.102116,-5.16376 0.320185,-1.94388 0.713702,-3.87478 0.997505,-5.82472 0.37264,-2.50279 0.740935,-5.00687 1.218855,-7.49234 0.593314,-2.95144 1.275936,-5.88218 2.007896,-8.80232 0.785327,-3.1548 1.613059,-6.29892 2.591777,-9.40026 0.978151,-2.99102 2.00642,-5.96717 3.132697,-8.9059 0.690456,-1.73585 1.253287,-3.52111 2.113406,-5.18325 0,0 -3.297853,-1.84934 -3.297853,-1.84934 z" />
    <path
       style="fill:#000000"
       id="path558"
       d="m 139.70453,158.83588 c 0.41065,1.32478 1.1351,2.54233 1.70859,3.80477 1.14322,2.65053 1.89566,5.44356 2.62542,8.22926 0.75521,2.96915 1.3929,5.96624 2.08006,8.95146 0.53167,2.36258 1.11724,4.71208 1.78861,7.03885 0.52329,1.77048 1.18236,3.49623 1.82202,5.2268 0.62876,1.75414 1.19373,3.53088 1.67648,5.33063 0.3545,1.37453 0.59621,2.78255 0.406,4.19817 -0.24401,1.05378 -0.70227,1.49892 -1.7826,1.53958 0.22881,0.4457 -2.05498,-0.83553 -1.54456,-0.5453 1.17754,0.66959 2.34099,1.36507 3.53737,2.00037 0.22611,0.12006 -0.42162,-0.29129 -0.62107,-0.45178 -0.21856,-0.17587 -0.42107,-0.3708 -0.63161,-0.5562 -1.45788,-1.45327 -2.67254,-3.1257 -3.89474,-4.77559 -1.31605,-1.77286 -2.57896,-3.58236 -3.74775,-5.45564 -1.10088,-1.74191 -1.78064,-3.68616 -2.41573,-5.63261 -0.55189,-1.7309 -0.96583,-3.50058 -1.4276,-5.25639 -0.28018,-0.67527 -0.28942,-1.47744 -0.6066,-2.13887 -0.12408,-0.25876 -0.45137,-0.67154 -0.62531,-0.90271 -1.1313,-0.82393 -0.55449,-0.4265 -1.73061,-1.19205 0,0 -0.20959,-0.10333 -0.20959,-0.10333 v 0 c -1.09117,-0.34363 -0.55418,-0.20489 -1.60848,-0.42579 -0.13493,0.12702 -0.32047,0.25632 -0.33182,0.47106 -0.0308,0.58336 0.58633,1.59206 0.6718,2.18238 0.54406,1.77067 0.98509,3.57068 1.55301,5.33436 0.63104,1.96968 1.26552,3.96453 2.35931,5.73595 1.18346,1.88927 2.47401,3.70757 3.78613,5.50931 1.201,1.67474 2.38961,3.37564 3.83755,4.85031 1.82723,1.79002 3.11003,2.25631 5.87489,3.80715 0.54099,0.30345 1.15916,0.39977 1.76888,0.36268 0.1774,-0.0405 0.36156,-0.0584 0.53219,-0.12165 0.86612,-0.32107 1.32517,-1.15505 1.49007,-2.01409 0.16238,-1.50533 -0.10307,-2.99468 -0.50298,-4.44762 -0.49156,-1.8044 -1.05304,-3.58811 -1.64716,-5.36134 -0.64736,-1.77553 -1.45287,-3.48965 -2.02404,-5.29371 -0.7541,-2.35522 -1.44396,-4.72977 -2.03907,-7.13063 -0.75792,-2.99722 -1.46588,-6.00634 -2.19317,-9.01108 -0.68179,-2.76392 -1.33255,-5.5446 -2.39808,-8.19286 -0.56135,-1.40095 -1.08869,-2.8627 -2.06956,-4.03557 0,0 -3.46625,-1.52828 -3.46625,-1.52828 z" />
    <path
       style="fill:#000000"
       id="path562"
       d="m 73.950936,178.70833 c -0.08033,0.0741 -0.185744,0.12793 -0.240995,0.2222 -0.07739,0.13205 -0.09686,0.29039 -0.144657,0.43579 -0.346243,1.05321 -0.447733,2.15315 -0.628052,3.24415 -0.219856,2.73937 -0.354846,5.48502 -0.517711,8.22829 -0.203097,3.18659 -0.432433,6.37133 -0.671525,9.55538 -0.209057,3.02899 -0.424864,6.05738 -0.729199,9.07848 -0.263091,2.41287 -0.609993,4.81571 -1.080956,7.19677 -0.460465,2.02702 -0.793614,4.07693 -1.116501,6.12901 -0.500962,1.95604 -0.433169,3.98748 -0.422069,5.98919 0.01459,1.90095 0.103355,3.80584 -0.122297,5.69707 -0.118581,1.84279 -0.194527,3.68809 -0.294062,5.5321 -0.08879,2.08521 0.03242,4.17134 0.1906,6.25003 0.173587,2.20417 0.467535,4.39593 0.757046,6.58712 0.273996,2.00754 0.382204,4.03124 0.52413,6.05085 0.07553,2.10311 0.374799,4.18299 0.833608,6.23418 0.417774,1.70325 1.0041,3.3663 2.052765,4.78362 1.517673,1.40085 3.413168,3.28015 5.549485,2.90328 0.727106,-0.12827 1.348336,-0.56294 1.958436,-0.94524 1.587437,-1.04356 3.057871,-2.23739 4.363828,-3.61594 1.325913,-1.54557 2.229316,-3.39738 3.155121,-5.19747 0.919173,-1.73775 1.724851,-3.53213 2.480395,-5.34603 0.745903,-1.84783 1.395725,-3.73458 1.881355,-5.66747 0.441685,-2.07065 0.843633,-4.15193 1.186282,-6.24161 0.313368,-2.2294 0.486896,-4.47559 0.744216,-6.7124 0.261276,-2.43509 0.651513,-4.85268 1.127502,-7.25421 0.432912,-2.15852 0.807552,-4.32819 1.218484,-6.49105 0.04429,-0.92364 0.598851,-1.82061 0.561593,-2.75408 -0.01211,-0.30336 -0.112433,-0.59809 -0.202779,-0.88794 -0.311321,-0.99877 -0.377311,-0.85641 -1.167806,-1.73021 0,0 -0.133166,-0.0716 -0.133166,-0.0716 v 0 c -0.345038,-0.0288 -0.691503,-0.12898 -1.035114,-0.0864 -0.223544,0.0277 -0.422048,0.16649 -0.610246,0.29027 -0.206214,0.13562 -0.42787,0.27452 -0.562761,0.48121 -0.448809,0.68773 -0.383125,1.97336 -0.639492,2.73811 -0.404164,2.16922 -0.818487,4.33699 -1.182022,6.51341 -0.401866,2.42206 -0.825979,4.84109 -1.14451,7.276 -0.261998,2.22139 -0.456107,4.4511 -0.797022,6.6628 -0.333108,2.0757 -0.685787,4.14914 -1.199853,6.18928 -0.503919,1.90611 -1.085652,3.7923 -1.850471,5.61202 -0.763057,1.80081 -1.606243,3.5629 -2.460654,5.32198 -0.883164,1.77844 -1.76226,3.59007 -3.102426,5.07882 -1.302067,1.34635 -2.737447,2.54717 -4.388175,3.45025 -0.461102,0.23948 -0.817828,0.46102 -1.321469,0.59233 -0.186915,0.0487 -0.380714,0.0826 -0.573866,0.0805 -0.179237,-0.002 -0.677679,-0.19352 -0.529769,-0.0923 0.901333,0.61702 4.889662,3.01033 2.819738,1.66947 -0.159796,-0.17738 -0.335301,-0.34177 -0.479389,-0.53213 -0.90823,-1.19988 -1.326585,-2.70508 -1.765175,-4.1171 -0.504935,-2.03796 -0.826712,-4.10693 -0.940685,-6.20585 -0.118836,-2.03373 -0.246132,-4.06888 -0.533863,-6.0873 -0.284674,-2.19258 -0.64153,-4.37793 -0.809598,-6.58395 -0.126054,-2.06085 -0.19921,-4.12284 -0.157976,-6.18806 -6.22e-4,-1.86754 0.134047,-3.72686 0.173392,-5.593 -0.104481,-1.93853 -0.04412,-3.88116 -0.08797,-5.8217 -0.02715,-2.04007 0.03786,-4.07728 0.06295,-6.11699 0.211763,-2.07355 0.61682,-4.11453 1.023003,-6.15754 0.412724,-2.4226 0.746224,-4.85713 0.932718,-7.30883 0.255102,-3.03606 0.468225,-6.07556 0.675302,-9.1152 0.195383,-3.18324 0.434921,-6.36303 0.699019,-9.54133 0.206335,-2.71523 0.366809,-5.43428 0.657789,-8.14251 0.04887,-1.13208 0.155538,-2.26053 0.266993,-3.38774 0.01523,-0.15399 0.06897,-0.30417 0.07001,-0.45891 8.62e-4,-0.1271 -0.0429,-0.25056 -0.06435,-0.37584 0,0 -2.257131,-1.24611 -2.257131,-1.24611 z" />
    <path
       style="fill:#000000"
       id="path570"
       d="m 114.36396,220.18318 c -0.10808,0.9574 0.006,1.92285 0.0768,2.88131 0.0727,1.70978 0.10272,3.41837 0.22916,5.1263 0.14875,1.74839 0.30284,3.49643 0.42076,5.24722 0.11794,1.4577 0.16088,2.91962 0.23818,4.37959 0.058,1.30763 0.15335,2.61217 0.29536,3.91327 0.14278,1.12535 0.35598,2.23977 0.53747,3.35914 0.18362,1.19493 0.27427,2.40177 0.38435,3.6051 0.0849,1.16674 0.28164,2.31711 0.5301,3.45865 0.28393,1.12201 0.60124,2.23367 0.85045,3.36423 0.22191,1.07646 0.37309,2.16584 0.54667,3.25076 0.17011,1.11117 0.34581,2.22146 0.49285,3.33597 0.15028,1.14178 0.27864,2.28605 0.45198,3.42468 0.14123,0.90748 0.33852,1.80336 0.67199,2.66006 0.27622,0.65303 0.67312,1.24323 1.11457,1.79444 1.46587,1.81391 3.16478,2.31134 5.45215,3.62586 0.49932,0.11133 1.01508,0.10805 1.52413,0.10924 0.50075,0.0112 0.99891,0.0241 1.49941,-0.002 0.49758,0.0461 0.96375,0.0457 1.44588,-0.097 0.53076,-0.15489 0.98744,-0.44099 1.42264,-0.77271 0.37679,-0.28779 0.7758,-0.54199 1.14583,-0.83875 0.36233,-0.26842 0.69455,-0.56393 0.99098,-0.90325 0.34,-0.41465 0.58291,-0.89519 0.8188,-1.37354 0.25257,-0.50315 0.49839,-1.00951 0.73628,-1.51974 0.28036,-0.56897 0.53199,-1.15129 0.78116,-1.73439 0.31467,-0.6711 0.55816,-1.3688 0.74999,-2.08382 0.24177,-0.92398 0.37779,-1.8721 0.51766,-2.81573 0.21124,-1.61802 0.23201,-3.25373 0.33262,-4.88111 0.16209,-1.90523 0.39697,-3.80315 0.61542,-5.70246 0.19985,-1.70048 0.53138,-3.38048 0.80683,-5.06922 0.25819,-1.75911 0.44656,-3.52805 0.65587,-5.29361 0.20064,-1.96604 0.37885,-3.93492 0.52061,-5.90612 0.08,-1.76325 0.2091,-3.52469 0.25658,-5.28922 0.0205,-1.60679 0.032,-3.21359 0.0653,-4.82024 0.0432,-1.48254 0.1092,-2.96119 0.0758,-4.4447 -0.0655,-1.66172 -0.0125,-3.32407 0.0143,-4.98594 0.0213,-1.53616 0.0599,-3.07443 -0.0247,-4.60904 -0.0613,-1.26587 -0.0569,-2.53273 -0.0832,-3.79929 -0.0551,-1.05784 -0.11104,-2.11606 -0.20469,-3.1713 -0.12016,-0.95816 -0.24818,-1.91533 -0.37674,-2.8724 -0.0813,-0.81428 -0.24846,-1.61038 -0.455,-2.40061 -0.19628,-0.79092 -0.29082,-1.60165 -0.42833,-2.40376 -0.17344,-0.89577 -0.27259,-1.80162 -0.34084,-2.71064 -0.0354,-0.64626 -0.16074,-1.28206 -0.20326,-1.92746 -0.012,-0.6552 -0.13864,-1.29622 -0.28188,-1.93286 -0.21469,-0.82168 -0.4241,-1.64076 -0.58542,-2.47457 -0.11488,-0.33137 -0.10991,-0.70354 -0.20133,-1.03738 -0.0911,-0.33254 -0.31399,-0.63471 -0.4806,-0.93199 -0.32845,-0.76661 -1.12001,-0.92723 -1.62053,-1.55911 0,0 -0.1363,-0.0654 -0.1363,-0.0654 v 0 c -0.45419,0.39499 -0.96116,-0.4965 -1.33447,0.087 -0.084,0.10673 -0.18961,0.19876 -0.25478,0.31789 -0.18491,0.33798 0.0178,0.79132 -0.0736,1.1574 0.0254,0.8164 0.13409,1.62549 0.34432,2.41592 0.14391,0.60986 0.26963,1.22632 0.29904,1.85407 0.0419,0.66496 0.15022,1.31668 0.26218,1.97311 0.10419,0.91165 0.165,1.82829 0.30348,2.7358 0.15123,0.81745 0.28121,1.63856 0.44306,2.45371 0.20741,0.78327 0.45243,1.55853 0.52386,2.37079 0.13473,0.95357 0.26164,1.90783 0.38709,2.86271 0.13636,1.05114 0.16979,2.10888 0.25575,3.1647 0.0944,1.28152 0.0842,2.56591 0.18462,3.84708 0.0405,1.53501 0.0809,3.06903 0.067,4.605 -0.005,1.65886 -0.0618,3.31672 -0.0615,4.97538 0.0172,1.48083 0.008,2.96036 -0.0544,4.44041 -0.007,1.60869 -0.0357,3.21712 -0.0432,4.8258 -0.0371,1.77472 -0.0988,3.54882 -0.14737,5.32323 -0.1273,1.9624 -0.3805,3.91319 -0.53755,5.87338 -0.20139,1.75066 -0.5025,3.4861 -0.73736,5.23225 -0.24659,1.70472 -0.54521,3.40181 -0.7562,5.11156 -0.24798,1.90698 -0.43574,3.82076 -0.58996,5.73757 -0.15138,1.58265 -0.29949,3.16622 -0.53094,4.73966 -0.14406,0.91699 -0.3271,1.82611 -0.56909,2.72274 -0.20179,0.68708 -0.4336,1.36363 -0.73975,2.01239 -0.26027,0.57361 -0.51848,1.14794 -0.79092,1.71592 -0.23811,0.50493 -0.48902,1.0031 -0.74029,1.50156 -0.22579,0.43734 -0.46061,0.87447 -0.79464,1.24086 -0.28416,0.31055 -0.61097,0.57428 -0.93613,0.84057 -0.36312,0.28744 -0.74312,0.5524 -1.10863,0.83675 -0.40455,0.27844 -0.84493,0.49524 -1.33007,0.59254 -0.4695,0.0585 -0.93519,-0.006 -1.40661,0.0214 -0.49251,0.0106 -0.98461,-0.0148 -1.47714,-0.0169 -0.4732,-0.0195 -0.9622,-0.0375 -1.38655,-0.27179 7.09193,4.14345 4.0264,2.73231 2.74362,1.26779 -0.45711,-0.51231 -0.8723,-1.05512 -1.17858,-1.6736 -0.4094,-0.81867 -0.65778,-1.69313 -0.8129,-2.59496 -0.20647,-1.13346 -0.35627,-2.27477 -0.48235,-3.41991 -0.13933,-1.11277 -0.25936,-2.22858 -0.45435,-3.33355 -0.17745,-1.09718 -0.37544,-2.19092 -0.56907,-3.28533 -0.2221,-1.13613 -0.52943,-2.24883 -0.83237,-3.36545 -0.26853,-1.12637 -0.4833,-2.26581 -0.58889,-3.42017 -0.11829,-1.20476 -0.20574,-2.41253 -0.34694,-3.61503 -0.15642,-1.12829 -0.39414,-2.24179 -0.5746,-3.3662 -0.19028,-1.29029 -0.29429,-2.59022 -0.34057,-3.89371 -0.0582,-1.48215 -0.19479,-2.95859 -0.31813,-4.43646 -0.15897,-1.75135 -0.2979,-3.50456 -0.44386,-5.257 -0.1327,-1.71922 -0.26168,-3.44029 -0.31411,-5.164 -0.0637,-1.0927 -0.15831,-2.18685 -0.60171,-3.20169 0,0 -3.40049,-1.64731 -3.40049,-1.64731 z" />
    <path
       style="fill:#000000"
       id="path572"
       d="m 90.912251,219.90089 c 1.218816,0.34332 2.438356,0.60002 3.696559,0.7554 1.920466,0.14965 3.844466,0.24579 5.76705,0.36313 1.75734,0.20644 3.52854,0.17007 5.29386,0.22555 1.65348,0.12888 3.30128,0.01 4.94889,-0.12152 1.33322,-0.0831 2.6627,0.0781 3.99529,0.0901 1.06845,-0.01 2.09818,-0.28099 3.12388,-0.54811 0.92849,-0.25771 1.88439,-0.38336 2.83545,-0.52358 0.74624,-0.1097 1.49637,-0.18655 2.24371,-0.2877 0.85461,-0.14195 0.4889,-0.29084 -0.25694,-0.91853 -0.28683,-0.24139 -0.58582,-0.46797 -0.87873,-0.70196 0,0 -0.12624,-0.0832 -0.12624,-0.0832 v 0 c -0.35364,-0.20411 -0.7051,-0.41205 -1.06092,-0.61233 -0.72739,-0.40944 -1.0096,-0.7239 -1.74065,-0.53596 -0.71054,0.14068 -1.42996,0.23189 -2.14486,0.3469 -0.95546,0.14079 -1.90795,0.29905 -2.83226,0.58777 -0.99376,0.25206 -2.00058,0.46777 -3.03209,0.45907 -1.31425,-0.0156 -2.63009,-0.11673 -3.94289,0.002 -1.61373,0.13688 -3.22827,0.24009 -4.84849,0.13163 -1.71142,-0.0379 -3.422351,-0.0957 -5.133899,-0.12116 -1.876011,-0.0712 -3.75951,-0.0832 -5.624953,-0.30699 -1.180726,-0.1883 -2.345069,-0.45434 -3.527263,-0.63253 0,0 3.245496,2.43229 3.245496,2.43229 z" />
    <path
       style="fill:#000000"
       id="path576"
       d="m 72.966632,254.20302 c 1.063091,0.36963 2.193612,0.48781 3.301344,0.65866 1.482779,0.23868 2.977563,0.33294 4.476575,0.38278 1.76172,0.0311 3.519153,-0.11992 5.273446,-0.2606 0.193062,-0.0416 1.862716,0.0893 1.431079,-0.54438 -0.991161,-1.45502 -0.649263,-0.32751 -0.861958,-1.15493 0,0 -0.124914,-0.0852 -0.124914,-0.0852 v 0 c -1.33892,-0.35169 0.24269,0.10705 -1.994375,-0.86449 -0.789095,-0.34269 -1.521019,-0.26874 -2.338674,-0.11777 -1.713752,0.20687 -3.440268,0.33574 -5.167414,0.25306 -1.506316,-0.0844 -3.001932,-0.26131 -4.498616,-0.44818 -0.864233,-0.0874 -1.775821,-0.31085 -2.633973,-0.18397 0,0 3.13748,2.36498 3.13748,2.36498 z" />
    <path
       style="fill:#000000"
       id="path578"
       d="m 123.0879,254.02521 c 1.21407,0.28642 2.46633,0.25166 3.70331,0.2101 1.74896,-0.0562 3.4906,-0.23277 5.23699,-0.33324 1.35466,-0.0392 2.70257,-0.17634 4.0501,-0.31109 0.18809,-0.0461 1.59853,-0.0267 1.48541,-0.40753 -0.0949,-0.31936 -0.41236,-0.52485 -0.59039,-0.80644 -0.0807,-0.12763 -0.1212,-0.27661 -0.1818,-0.41491 0,0 -0.12454,-0.0857 -0.12454,-0.0857 v 0 c -1.28355,-0.42378 -0.5311,-0.14801 -2.23166,-0.8943 -0.66601,-0.22207 -1.3189,-0.0256 -1.98723,0.0261 -1.32346,0.13142 -2.64816,0.24671 -3.97407,0.3504 -1.72372,0.14943 -3.44703,0.32527 -5.17891,0.34225 -1.29999,-0.0157 -2.61365,-0.0641 -3.85561,-0.4917 0,0 3.6484,2.81608 3.6484,2.81608 z" />
    <path
       style="fill:#000000"
       id="path580"
       d="m 146.9548,198.18824 c 0.89171,-0.36546 1.67346,-0.94446 2.45491,-1.49806 1.16926,-0.81633 2.4483,-1.45048 3.68973,-2.14513 0.90028,-1.06991 -0.5209,-1.02677 -0.51933,-1.98483 0,0 -0.22347,-0.14345 -0.22347,-0.14345 v 0 c -0.9566,2.9e-4 0.26581,0.0434 -1.60847,-0.46615 -0.75542,-0.20537 -0.88167,-0.10863 -1.58603,0.0212 -1.28343,0.66662 -2.55128,1.36699 -3.76523,2.15441 -0.76927,0.50298 -1.50672,1.05855 -2.31479,1.49937 0,0 3.87268,2.56265 3.87268,2.56265 z" />
    <path
       style="fill:#000000"
       id="path582"
       d="m 62.03672,199.0017 c 1.046463,0.51847 2.133596,0.94227 3.226775,1.34985 0.778678,0.1797 1.781443,0.74475 2.574449,0.81146 1.245137,0.10475 -1.515291,-1.07381 0.128088,-0.83688 0,0 -0.120578,-0.0912 -0.120578,-0.0912 v 0 c -1.247128,-0.29599 -0.01421,0.0484 -2.272912,-1.17192 -1.187048,-0.64135 -2.512251,-0.89582 -3.749817,-1.41259 -1.033131,-0.42079 -2.047218,-0.95534 -3.124788,-1.23837 0,0 3.338783,2.58964 3.338783,2.58964 z" />
    <path
       style="fill:#000000"
       id="path584"
       d="m 74.363149,205.82289 c 1.31816,0.18154 2.637642,0.35131 3.96174,0.48713 2.248296,0.28194 4.501594,0.4972 6.761581,0.65719 2.286219,0.15709 4.575929,0.25929 6.855847,0.49452 2.438393,0.35575 4.872381,0.72301 7.317558,1.03288 2.829345,0.35947 5.685445,0.41786 8.532525,0.51983 2.82057,0.0764 5.63527,0.28187 8.45529,0.36839 2.06649,0.0802 4.13118,-0.0456 6.19273,-0.17288 1.96063,-0.22331 3.91158,-0.52295 5.85133,-0.88384 1.64962,-0.30063 3.29627,-0.61476 4.92642,-1.00844 1.33842,-0.31741 2.66584,-0.67359 3.99436,-1.02882 1.24322,-0.35914 2.51971,-0.5729 3.7851,-0.83318 0.23219,-0.0917 1.28348,-0.18313 1.29052,-0.62035 0.008,-0.51064 -0.83007,-1.24157 -1.01832,-1.47905 -0.10967,-0.13835 -0.18747,-0.29921 -0.28121,-0.44882 0,0 -0.12845,-0.0797 -0.12845,-0.0797 v 0 c -0.20742,-0.0482 -0.42186,-0.0727 -0.62227,-0.14469 -0.94896,-0.34102 -1.40607,-0.68747 -2.36867,-0.86392 -0.60279,-0.11049 -1.22177,0.0918 -1.80484,0.20346 -1.2572,0.26011 -2.50302,0.56706 -3.7423,0.90237 -1.32657,0.3452 -2.65994,0.66421 -3.98259,1.02503 -1.58882,0.39885 -3.18798,0.75271 -4.79802,1.05578 -1.9381,0.35584 -3.88224,0.70796 -5.85475,0.80193 -1.99627,0.1624 -3.99661,0.29591 -6.00104,0.24294 -2.7935,-0.0556 -5.58344,-0.2002 -8.3748,-0.31826 -2.85165,-0.11442 -5.704742,-0.23329 -8.539981,-0.57945 -2.281145,-0.2418 -4.558775,-0.5056 -6.847817,-0.66622 -2.25536,-0.16808 -4.514435,-0.27781 -6.771533,-0.41966 -2.288473,-0.15114 -4.562393,-0.42195 -6.83345,-0.74016 -1.32997,-0.17452 -2.664307,-0.38181 -4.005272,-0.43236 0,0 4.050312,2.92837 4.050312,2.92837 z" />
  </g>
</svg>
