<?xml version="1.0" encoding="UTF-8" standalone="no"?>
<!-- Created with Inkscape (http://www.inkscape.org/) -->

<svg
   width="210px"
   height="297px"
   viewBox="0 0 210 297"
   version="1.1"
   id="svg5"
   inkscape:version="1.2.2 (b0a8486541, 2022-12-01)"
   sodipodi:docname="omur.svg"
   xmlns:inkscape="http://www.inkscape.org/namespaces/inkscape"
   xmlns:sodipodi="http://sodipodi.sourceforge.net/DTD/sodipodi-0.dtd"
   xmlns="http://www.w3.org/2000/svg"
   xmlns:svg="http://www.w3.org/2000/svg">
  <sodipodi:namedview
     id="namedview7"
     pagecolor="#ffffff"
     bordercolor="#000000"
     borderopacity="0.25"
     inkscape:showpageshadow="2"
     inkscape:pageopacity="0.0"
     inkscape:pagecheckerboard="0"
     inkscape:deskcolor="#d1d1d1"
     inkscape:document-units="mm"
     showgrid="false"
     inkscape:zoom="1.3249068"
     inkscape:cx="138.5003"
     inkscape:cy="145.67062"
     inkscape:window-width="1280"
     inkscape:window-height="651"
     inkscape:window-x="0"
     inkscape:window-y="0"
     inkscape:window-maximized="1"
     inkscape:current-layer="layer5" />
  <defs
     id="defs2" />
  <g
     inkscape:groupmode="layer"
     id="layer5"
     inkscape:label="Layer 1"
     style="display:inline">
    <path
       style="fill:#4d4d4d"
       d="m 80.23483,156.34411 c -4.935817,-4.38602 -12.16499,-3.32706 -17.251391,-7.44625 -2.654735,-2.14991 -5.918721,-8.00826 -7.61329,-11.02847 -0.709374,-1.26431 -1.572971,-2.43973 -2.266101,-3.71046 -4.12567,-7.56373 -5.984477,-16.36486 -7.621727,-24.70607 -0.528066,-2.69032 -1.347921,-5.33074 -1.798707,-8.03344 -0.488553,-2.92914 -1.25075,-6.024127 -1.461239,-8.978353 -0.06124,-0.859541 0.16893,-1.704635 0.160298,-2.563073 -0.01882,-1.871506 -0.517197,-3.80643 -0.739056,-5.654286 -0.08875,-0.739217 0.11824,-1.479226 -0.104616,-2.208731 -0.639877,-2.094598 -1.773244,-3.721703 -2.827986,-5.598603 -0.934622,-1.663147 -1.628008,-3.516922 -2.473644,-5.229075 -0.594874,-1.204436 -1.619498,-2.0685 -2.09568,-3.372998 -1.204753,-3.300417 -2.904285,-8.898383 -3.285256,-12.320976 -0.229676,-2.063381 0.106679,-4.250183 0.153548,-6.322473 0.02888,-1.276912 -0.482997,-2.708637 -0.305409,-3.951756 0.618062,-4.326434 2.270586,-8.333183 3.718903,-12.393532 0.408501,-1.14523 0.54354,-2.346693 0.978659,-3.492799 1.685656,-4.440026 4.890925,-7.917956 8.81974,-10.51552 4.676845,-3.092129 9.828784,-6.401298 15.677101,-6.344408 3.56117,0.03464 6.525871,1.266247 9.806835,2.424711 1.045061,0.368997 2.341299,-0.280282 3.462427,0 4.560469,1.140117 6.258381,6.395537 8.640882,9.768027 0.667881,0.945402 1.649337,1.771811 2.161486,2.802676 0.393701,0.792449 0.931432,1.546796 1.292504,2.33697 0.411432,0.90038 1.743566,6.627246 2.490518,6.892794 1.296666,0.460977 3.879185,-1.711188 5.156519,-2.120989 1.529796,-0.490798 3.061953,-0.462017 4.618257,-0.747493 1.285749,-0.235848 2.472685,-0.859408 3.749275,-1.12377 1.73604,-0.359507 3.54592,-0.340313 5.27801,-0.634441 0.65047,-0.110457 1.27905,-0.669185 1.94382,-0.651315 1.20083,0.03228 2.36205,0.207272 3.57379,0 0.66944,-0.11451 1.2216,-0.461798 1.92694,-0.448833 2.51649,0.04626 5.0403,0.09618 7.54243,0.09618 0.86473,0 1.71231,-0.341762 2.58669,-0.305409 2.21361,0.09203 4.00017,2.242122 6.19086,2.321783 2.45454,0.08926 0.89502,-5.200971 0.77112,-6.51483 -0.10626,-1.126722 -0.0808,-2.565167 0.0489,-3.686843 0.74614,-6.4525 6.19569,-6.756579 11.43681,-8.112744 1.22913,-0.318043 2.62655,-0.583471 3.76784,-1.15583 2.10844,-1.057385 4.02809,-2.5805 6.44902,-2.892105 3.38062,-0.435129 5.86835,1.317872 8.5447,2.988284 0.55478,0.346256 1.18995,0.257009 1.71097,0.561885 0.86184,0.504311 1.67944,1.411041 2.40277,2.097367 1.52684,1.448716 2.79829,3.310345 3.75772,5.180142 0.34338,0.669202 0.46318,1.466362 0.90779,2.072057 0.60019,0.81766 1.57625,1.618522 1.91176,2.595133 0.30439,0.886042 0.13501,1.8555 0.42521,2.738557 1.06717,3.247413 2.41447,6.087384 2.25766,9.622915 -0.10461,2.358633 -0.2989,4.818391 -0.82849,7.123961 -0.43065,1.874906 -1.13761,3.680727 -1.30769,5.607039 -0.55876,6.328757 0.65133,12.905801 -1.49498,18.994416 -0.53094,1.506157 -1.12278,2.945428 -2.2003,4.152551 -1.73731,1.946289 -4.95528,2.817771 -5.61379,5.720091 -0.23874,1.052225 0.67117,3.015843 0.43365,4.594634 -0.73431,4.881012 -1.74522,9.749006 -2.04843,14.690005 -0.32324,5.267357 -0.0301,10.824897 -1.31782,15.975757 -1.30568,5.22274 -5.0221,9.87069 -8.19205,14.11294 -3.86494,5.17234 -7.86778,10.38192 -12.44921,14.96335 -1.68172,1.68173 -3.82541,2.86534 -5.7184,4.28923 -2.54577,1.91489 -5.86439,7.68772 -9.1724,8.43333 0.96123,0.25648 1.95113,0.42294 2.8837,0.76943 0.65865,0.24472 1.04984,2.06624 1.31781,2.68288 2.36459,5.44124 3.3784,11.45799 5.22064,17.1569 0.98212,3.03815 3.29112,5.25356 3.65479,8.71512 0.0887,0.8444 0.95698,9.05935 -0.7475,9.05935 -3.88553,0 -7.33658,-9.17391 -8.39284,-12.13537 -0.35874,-1.00583 -1.09376,-1.86055 -1.51017,-2.85161 -0.40005,-0.95213 -0.88701,-1.8364 -1.23682,-2.81955 -0.0588,-0.16535 -0.1368,-1.60214 -0.20923,-1.59117 -0.21342,0.0323 -0.0134,3.04971 -0.008,3.22114 0.12306,4.25536 0.96517,8.43872 1.30938,12.66688 0.15514,1.90573 -0.67261,8.34981 0.68337,9.91989 1.44704,1.67552 5.0958,2.63913 7.22014,2.48208 1.31736,-0.0974 2.61674,-0.53273 3.9197,-0.71543 0.62349,-0.0874 1.25919,0.12842 1.8797,-0.0472 1.43332,-0.40578 2.71339,-1.09506 4.0395,-1.7599 0.91408,-0.45827 2.03929,-0.6293 2.75543,-1.44605 1.222,-1.39368 2.08519,-3.34134 2.86679,-4.99622 0.74631,-1.58014 1.97058,-3.07144 2.88367,-4.56932 1.01238,-1.66076 1.68503,-3.51878 2.63394,-5.22064 1.89243,-3.39403 4.73703,-6.17363 6.9721,-9.28545 2.53978,-3.53605 7.64785,-8.7507 12.15056,-9.79165 1.98423,-0.45872 4.15375,-0.85428 6.17736,-0.32903 1.11346,0.28901 2.13155,0.87412 3.3325,0.96347 1.69624,0.1262 3.22523,-0.21118 4.86798,0.41846 1.24371,0.4767 2.25678,1.92149 3.28526,2.77906 1.77182,1.47738 3.0727,1.54885 3.98382,4.11205 0.43122,1.21313 1.85981,4.63646 0.7458,5.75046 -0.55964,0.55964 -3.01961,-0.55355 -3.72565,-0.71374 -0.69887,-0.15857 -0.95478,-0.62579 -1.52705,-0.98035 -3.99646,-2.47607 -7.69932,-5.99622 -12.88286,-4.58619 -0.40516,0.11021 -0.67271,0.43091 -1.05965,0.55344 -1.11848,0.35419 -2.32332,0.35431 -3.40506,0.8673 -1.79494,0.85121 -3.44954,2.9381 -4.97934,4.20992 -2.37485,1.97435 -5.01557,3.03231 -6.95692,5.58173 -1.51668,1.99173 -2.40119,4.46907 -3.68515,6.60257 -1.52142,2.52806 -4.71935,7.11935 -6.69875,9.26182 -3.39537,3.6751 -7.04791,10.76089 -12.89974,10.61001 -3.22683,-0.0832 -4.28039,-1.70665 -6.97885,-2.63563 -1.27078,-0.43748 -2.7409,0.1714 -4.00069,-0.36109 -1.2606,-0.53283 -2.20028,-2.21873 -2.37746,-2.08049 -0.5606,0.43739 -0.35117,7.04434 -0.29698,7.92882 0.12516,2.04247 0.53563,4.15586 0.41847,6.20099 -0.12574,2.19469 -1.00453,4.1815 -1.33301,6.32922 -0.26693,1.74537 -0.0421,3.48687 -0.13667,5.23582 -0.12495,2.31015 -0.54545,4.6552 -0.5872,6.95692 -0.0431,2.37683 -0.55348,4.70877 -0.63444,7.08346 -0.20474,6.00571 -0.32423,11.97462 -2.09568,17.76772 -0.83564,2.73279 -0.61656,5.63413 -4.0648,5.90232 -0.1019,0.008 -0.4757,0.0957 -0.55345,0.0253 -1.0052,-0.90946 -1.65017,-10.03774 -1.83921,-11.67134 -0.29474,-2.54719 -0.98988,-4.96632 -1.38193,-7.47831 -0.35933,-2.3024 -0.5761,-4.55569 -1.05121,-6.83542 -0.39971,-1.91794 -0.21629,-4.06353 -0.4269,-6.02382 -0.28883,-2.6883 -0.88112,-5.3446 -1.29251,-8.01487 -0.46241,-3.0015 -0.0979,-12.68394 -1.90332,-14.82837 -0.31204,-0.37063 -1.32714,-0.70376 -1.77508,-0.87573 -2.92725,-1.12386 -6.93046,-0.0344 -9.95195,0.27335 -1.692164,0.17235 -4.144657,-1.14575 -5.532797,0.35434 -0.757705,0.81881 -1.789995,10.81062 -1.967441,12.54539 -0.262294,2.56427 -0.982244,5.08711 -1.236822,7.64704 -0.675579,6.79332 -1.366588,13.58094 -1.969129,20.37804 -0.206087,2.32479 -0.637241,12.48967 -3.565355,13.42956 -0.314314,0.10089 -1.081831,-0.37529 -1.388683,-0.48258 -1.464562,-0.51209 -1.629439,-3.6575 -1.791958,-4.85111 -0.239778,-1.76104 -0.180653,-3.50751 -0.361092,-5.26957 -0.256255,-2.50245 -0.757226,-4.98755 -0.843671,-7.51037 -0.09379,-2.73704 0.120628,-5.48186 0.01687,-8.21567 -0.145249,-3.82713 -0.964654,-7.57352 -1.704217,-11.31026 -0.855321,-4.32162 -0.486159,-8.80346 -0.36784,-13.17139 0.08265,-3.05103 -0.07234,-6.20754 0.271662,-9.2382 0.606195,-5.34058 1.476454,-10.60685 1.975878,-15.95889 0.25984,-2.78455 2.319098,-9.35474 1.125458,-11.67135 -0.919399,-1.78436 -3.005608,2.85072 -3.140145,3.14015 -1.410783,3.03496 -3.318709,5.73252 -4.803864,8.70668 -0.861303,1.72485 -1.486258,4.03882 -2.787491,5.5193 -0.29724,0.33819 -0.748569,0.48442 -1.036028,0.85886 -0.261359,0.34044 -0.535406,1.18805 -0.946599,1.42243 -1.154861,0.65827 -0.470488,-6.54192 -0.401588,-6.84386 0.763946,-3.34788 1.260063,-6.76265 2.080494,-10.09706 0.374826,-1.52338 1.118345,-2.85777 1.604663,-4.32804 0.45384,-1.37207 0.502804,-2.98877 1.125457,-4.28922 1.435318,-2.99775 3.608616,-5.61469 4.770118,-8.76406 0.588988,-1.59702 1.45834,-3.03564 2.065307,-4.60138 0.349112,-0.90058 -0.280663,-3.50763 -0.113052,-3.7189 0.553966,-0.69829 1.172141,-1.34313 1.758211,-2.01469 z"
       id="path554" />
    <path
       style="fill:#ff91b5;fill-opacity:1"
       d="m 80.147089,43.599247 c -0.629379,-0.136675 -1.244541,-0.38589 -1.888137,-0.410025 -0.381882,-0.01432 -0.786418,1.59974 -0.826798,1.734589 -0.67466,2.253015 -2.111487,4.250525 -3.469176,6.152051 -1.065472,1.492258 -2.409211,2.692799 -3.541733,4.120491 -1.411633,1.779548 -2.653236,3.713803 -4.208232,5.374186 -1.203314,1.284867 -2.832373,2.013756 -4.015876,3.325752 -3.25392,3.607203 -5.419039,8.374021 -9.638101,10.962666 -0.614523,0.377046 -1.638201,1.311878 -2.385902,1.270569 -0.503168,-0.0278 -5.397735,-4.326535 -5.694782,-5.053592 -0.644853,-1.578355 -0.833449,-3.524737 -1.285755,-5.180142 -0.971474,-3.555518 -2.842068,-6.28305 -2.930914,-10.088621 -0.217232,-9.304764 4.843836,-19.758947 11.630853,-26.023886 0.987269,-0.911326 2.195843,-1.435149 3.259946,-2.232354 1.648148,-1.23476 3.325705,-2.991259 5.438305,-3.430368 1.182512,-0.245787 2.330895,0.0059 3.477613,-0.03206 2.484173,-0.08222 5.254956,-1.387257 7.668973,-0.384714 3.877747,1.61043 5.954573,17.041273 5.711655,20.320667"
       id="path556" />
    <path
       style="fill:#ff91b5;fill-opacity:1"
       d="m 141.06016,47.373832 c -0.38179,-2.841564 -3.43206,-8.4108 -2.44159,-12.072936 0.67689,-2.502706 2.28285,-4.635979 3.13171,-7.075028 0.78986,-2.269514 1.31114,-5.260318 2.73856,-7.245449 0.79717,-1.108642 2.1656,-2.115252 3.34094,-2.770617 3.4786,-1.939658 4.47002,-1.173649 7.62172,0.922976 1.12337,0.747306 2.21213,1.36218 3.04397,2.490518 1.90834,2.588534 2.40453,5.90132 3.34263,8.907482 1.21411,3.890696 2.67493,8.164553 2.99503,12.256857 0.27222,3.480195 0.08,6.94765 0.1198,10.42609 0.0222,1.942661 0.60045,3.837303 0.45052,5.79096 -0.14629,1.906214 -0.82497,4.201258 -1.64685,5.936072 -0.68565,1.447288 -5.30862,6.495215 -7.12396,5.750463 -1.15271,-0.472908 -1.59255,-1.724156 -2.08049,-2.763867 -1.41687,-3.019085 -2.92995,-5.999964 -4.93885,-8.681378 -2.82285,-3.767838 -7.6257,-7.135403 -8.55314,-11.872143 z"
       id="path4829" />
    <path
       style="fill:#ff91b5;fill-opacity:1"
       d="m 102.29852,115.64878 c -0.84311,0.15523 -1.75186,0.10448 -2.529324,0.4657 -2.58972,1.20324 1.695864,6.80072 3.059154,3.53499 0.20702,-0.49591 -0.51885,-3.87692 -0.52983,-4.00069 z"
       id="path4831" />
    <path
       style="fill:#000080;fill-opacity:1"
       d="m 114.67518,78.618356 c -1.06236,3.087595 -1.64967,6.31832 -2.04843,9.550359 -0.20154,1.633482 -0.71061,3.214407 -0.62601,4.88317 0.11545,2.277036 1.15978,4.306131 1.67047,6.48952 0.23377,0.999435 0.33739,2.626695 0.89092,3.486045 0.53256,0.82679 2.45549,0.75881 3.27851,0.78631 1.39534,0.0466 2.11668,0.52054 3.24476,-0.53827 2.81776,-2.64474 0.97665,-7.463569 0.50451,-10.650503 -0.69966,-4.722697 -0.39357,-9.775494 -3.292,-13.85477 -0.24159,-0.340014 -0.17691,-0.736232 -0.45052,-1.076525"
       id="path5563" />
    <path
       style="fill:#000080;fill-opacity:1"
       d="m 83.609516,77.251609 c -0.548949,0.586632 -1.119063,1.154152 -1.646847,1.759898 -1.036681,1.189816 -0.490409,7.626442 -0.538262,9.196017 -0.02625,0.861127 -0.475826,1.557807 -0.706997,2.36228 -0.448166,1.559618 -0.433925,3.409053 -0.45727,5.019844 -0.02396,1.653235 0.01183,3.235802 0.602382,4.810612 0.628214,1.67524 4.085678,5.45924 6.103118,3.67841 3.02987,-2.67452 2.578314,-6.956372 2.738557,-10.537456 0.173927,-3.886884 0.784723,-8.103798 -0.529825,-11.895765 -0.893691,-2.577955 -0.255489,-2.57834 -2.657565,-4.449523 -0.120158,-0.0936 -0.80861,-0.792155 -0.916227,-0.762679 -0.692071,0.189559 -1.327376,0.545574 -1.991064,0.818362 z"
       id="path5630" />
  </g>
  <g
     inkscape:groupmode="layer"
     id="layer4"
     inkscape:label="Layer 4"
     style="display:inline">
    <path
       style="fill:#000000"
       id="path363"
       d="m 42.832982,82.051804 c 0.14566,0.123156 -1.32312,-0.666279 -0.982425,-0.520456 0.401227,0.171732 0.738549,0.650295 1.170364,0.586961 0.325269,-0.04771 -0.51337,-0.413492 -0.741919,-0.649801 -0.352679,-0.364654 -1.120267,-1.41684 -1.390488,-1.776569 -2.047689,-2.713508 -3.598652,-5.736917 -5.001449,-8.819652 -1.331077,-3.716983 -2.420658,-7.498035 -3.200272,-11.367149 -0.763432,-4.120075 -0.905045,-8.301993 -0.595887,-12.470892 0.388858,-4.198026 1.839972,-8.127018 3.618318,-11.910027 0.47856,-0.919964 1.363981,-2.680013 1.936917,-3.550634 0.78207,-1.188415 1.630899,-2.106061 2.556226,-3.178361 1.638024,-1.898196 0.962989,-1.123018 2.609557,-2.988059 2.684934,-3.072221 6.084036,-4.858993 9.76489,-6.447894 3.921864,-1.575118 8.04812,-2.546503 12.187064,-3.347853 2.262618,-0.394388 4.591175,-0.74888 6.875456,-0.293493 1.206992,0.240622 1.687583,0.495757 2.813078,0.951681 0.422188,0.224929 1.682103,0.911774 1.266564,0.674787 -0.850236,-0.484901 -1.666159,-1.045264 -2.57092,-1.418678 -0.417465,-0.172297 0.738249,0.52164 1.088438,0.806826 1.064019,0.866511 1.93385,1.870677 2.802686,2.924282 1.622011,2.112175 2.931639,4.436526 4.107537,6.819182 1.095371,2.209862 1.584393,4.626837 2.073943,7.023453 0.197361,1.07205 0.416585,2.149289 1.193327,2.979828 1.873906,2.003692 1.151206,0.497949 1.711304,1.84898 0,0 0.13627,0.06547 0.13627,0.06547 v 0 c -0.02057,-1.041993 -0.15152,0.05495 1.132846,-0.490883 0.718535,-0.305367 -0.117005,-2.047825 -0.111083,-2.4369 -0.510834,-2.429047 -0.956309,-4.900236 -2.069126,-7.144227 -1.158814,-2.42002 -2.476021,-4.76699 -4.084486,-6.920922 -0.74832,-0.934618 -0.950932,-1.23816 -1.793916,-2.089769 -2.338031,-2.36195 -5.348223,-3.890323 -8.314142,-5.331252 -1.147711,-0.415399 -1.623706,-0.650819 -2.849085,-0.834264 -2.253112,-0.337302 -4.530748,0.121927 -6.734592,0.550517 -4.131954,0.890665 -8.262872,1.830096 -12.186028,3.446376 -1.508756,0.633869 -2.369721,0.949971 -3.800325,1.726798 -2.306746,1.252577 -4.353958,2.88972 -6.069762,4.877902 -1.1168,1.412459 -1.381758,1.653435 -2.310175,3.20638 -1.389335,2.323911 -2.507826,4.812868 -3.854872,7.160845 -1.761844,3.824349 -3.186337,7.803667 -3.629248,12.020199 -0.330981,4.190277 -0.194581,8.390519 0.55587,12.536054 0.765656,4.026075 1.779532,8.008334 3.69411,11.663745 1.344845,3.062245 2.82335,6.074807 4.79724,8.789934 0.650242,0.823383 1.518606,1.99744 2.393143,2.603846 0.820967,0.569261 1.687687,1.069669 2.539422,1.591773 0.54244,0.332509 0.529148,0.306645 1.038569,0.511685 0,0 -1.772939,-1.379769 -1.772939,-1.379769 z" />
    <path
       style="fill:#000000"
       id="path375"
       d="m 133.17908,39.710145 c -0.006,-0.100329 0.005,-0.203334 -0.0189,-0.300986 -0.096,-0.392791 -0.27145,-0.763141 -0.36937,-1.155461 -0.1987,-0.796103 -0.27936,-1.604447 -0.35742,-2.418808 -0.15689,-1.795497 -0.12166,-3.596035 0.008,-5.391111 0.10012,-1.721308 0.55946,-3.369935 1.13111,-4.985647 0.56591,-1.618729 1.40468,-3.099318 2.36762,-4.509567 1.13661,-1.58713 2.5463,-2.934298 4.04952,-4.166911 1.33324,-1.068101 2.80894,-1.910529 4.38874,-2.549011 1.39333,-0.533371 2.85643,-0.810603 4.33095,-0.994681 1.3757,-0.184008 2.759,-0.257392 4.14578,-0.23681 1.34642,0.02743 2.67677,0.220171 3.9821,0.542263 1.91312,0.439307 7.55608,3.851393 0.44578,-0.229957 1.64449,1.025779 3.20366,2.177072 4.83393,3.225794 1.86003,1.086215 3.45992,2.480061 4.86722,4.098931 1.60883,1.957176 2.3577,4.379136 3.08125,6.761671 0.78529,2.663046 1.28429,5.395544 1.7355,8.131071 0.42697,2.534561 0.61237,5.098448 0.76324,7.661307 0.15192,2.383208 0.13152,4.769652 -0.0467,7.149827 -0.18011,1.882296 -0.48148,3.750844 -0.79,5.615655 -0.22231,1.456568 -0.57434,2.884863 -0.98893,4.297 -0.48498,1.553289 -1.10108,3.061116 -1.70248,4.571833 -0.65075,1.761053 -1.53122,3.398665 -2.62773,4.91795 -1.0576,1.412361 -2.34087,2.625476 -3.67831,3.766875 -1.12918,0.923883 -2.29164,1.811067 -3.35584,2.810431 -0.70523,0.682253 -0.57473,0.947396 -0.34569,1.832721 0.0602,0.232641 0.25001,0.472096 0.17319,0.699787 -0.055,0.162976 -0.31751,0.132376 -0.47627,0.198564 0,0 0.12538,0.08448 0.12538,0.08448 v 0 c 0.17379,-0.05669 0.33861,-0.17432 0.52136,-0.170074 1.40802,0.03271 2.69228,0.834272 3.99575,-0.146122 1.18705,-0.867764 2.29027,-1.846976 3.42631,-2.779712 1.34209,-1.185122 2.59492,-2.468239 3.68988,-3.888256 1.11685,-1.547061 2.02383,-3.217931 2.71046,-5.00151 0.62715,-1.513413 1.2772,-3.021847 1.77427,-4.58438 0.43551,-1.431684 0.78083,-2.888827 0.9887,-4.372262 0.27023,-1.895972 0.54894,-3.79287 0.71065,-5.701783 0.15344,-2.403648 0.19891,-4.810472 0.0454,-7.216347 -0.14151,-2.589274 -0.34679,-5.176987 -0.79737,-7.733717 -0.45794,-2.741593 -0.90342,-5.493331 -1.6778,-8.167568 -0.70576,-2.399955 -1.40375,-4.865159 -2.92034,-6.899679 -1.36797,-1.663972 -2.916,-3.122157 -4.78645,-4.218853 -1.62411,-1.034188 -3.18322,-2.157499 -4.78262,-3.227758 -2.77627,-1.600095 -5.53756,-3.531413 -8.68726,-4.363459 -1.33491,-0.294037 -2.68985,-0.483774 -4.0605,-0.466029 -1.38934,0.01453 -2.77395,0.127043 -4.15103,0.313198 -1.49664,0.220162 -2.98254,0.517861 -4.3843,1.107687 -1.59073,0.689987 -3.05158,1.604192 -4.39079,2.709568 -1.53331,1.265777 -2.98619,2.631314 -4.14732,4.257144 -1.00824,1.431038 -1.89411,2.93546 -2.44686,4.607071 -0.58816,1.654312 -1.076,3.342197 -1.1703,5.107326 -0.12934,1.835952 -0.17845,3.68084 0.0481,5.51249 0.16776,1.371084 0.27961,2.861341 0.93415,4.09529 0,0 3.88628,1.800526 3.88628,1.800526 z" />
    <path
       style="fill:#000000"
       id="path379"
       d="m 40.417071,81.407992 c -0.0074,0.172117 -0.0025,0.345219 -0.02228,0.516352 -0.02977,0.256949 -0.09947,0.508388 -0.126238,0.765667 -0.185756,1.785112 -0.03041,3.627713 0.06338,5.413156 0.295984,4.140498 0.897286,8.250227 1.4757,12.358283 0.265345,4.51097 1.473869,8.90972 2.711476,13.23625 1.237807,4.39804 2.755857,8.70898 4.380555,12.97685 1.408975,3.61692 2.832684,7.23098 4.470708,10.75118 1.417963,3.03934 3.351742,5.79185 5.413755,8.42233 3.046605,3.43161 6.994616,5.79219 11.146908,7.68453 2.746168,1.17513 5.702918,1.66654 8.615339,2.23784 2.827398,0.54014 5.608957,1.28122 8.399185,1.98124 2.896438,0.72373 5.834249,1.25922 8.783217,1.71504 3.218567,0.47584 6.456434,0.79154 9.703324,0.98517 3.35557,0.22011 6.70874,0.0204 10.0373,-0.41098 3.10714,-0.37164 6.0817,-1.30881 8.98746,-2.43146 2.76105,-1.09036 5.1723,-2.76502 7.41546,-4.67803 2.34017,-2.16527 4.60726,-4.40959 6.8141,-6.7103 2.19121,-2.34046 4.05868,-4.95341 6.0689,-7.44552 2.1409,-2.51098 4.03511,-5.2105 5.94541,-7.89643 1.71799,-2.4734 3.57404,-4.8445 5.30608,-7.30792 1.854,-2.72617 3.27385,-5.68583 4.50596,-8.73333 1.29405,-3.413 2.1717,-6.95456 2.86,-10.53252 0.57514,-3.58977 1.07044,-7.191274 1.46532,-10.805189 0.29324,-3.109194 0.38549,-6.232016 0.5284,-9.350431 0.0211,-1.333471 0.15357,-2.665256 0.17713,-3.998406 0.007,-0.374433 0.10778,-0.770369 -0.0173,-1.12334 -0.18816,-0.530803 -0.6014,-0.952476 -0.88994,-1.43611 -0.23,-0.385518 -0.4436,-0.780588 -0.66539,-1.170882 0,0 -0.13327,-0.07139 -0.13327,-0.07139 v 0 c -0.17623,0.05584 -2.04944,0.638126 -2.11347,0.709356 -0.23582,0.26236 -0.13153,0.694444 -0.16101,1.045975 -0.1122,1.337986 0.009,2.693785 -0.10947,4.032235 -0.0965,3.126318 -0.16779,6.256468 -0.42418,9.374681 -0.32388,3.61636 -0.75992,7.223782 -1.39673,10.799561 -0.65217,3.55594 -1.4647,7.09158 -2.82871,10.45192 -1.23935,3.00379 -2.66573,5.93505 -4.54998,8.59523 -1.74217,2.45363 -3.5723,4.84434 -5.25776,7.33879 -1.86301,2.70897 -3.81974,5.34885 -5.92837,7.87327 -1.99431,2.49132 -3.94257,5.02518 -6.07952,7.39728 -2.17914,2.31478 -4.4444,4.54808 -6.84358,6.63602 -2.21914,1.85635 -4.5961,3.50753 -7.30616,4.57485 -2.86938,1.10239 -5.83593,1.94948 -8.8868,2.37236 -3.31424,0.39421 -6.65108,0.55694 -9.98691,0.34754 -3.254647,-0.22468 -6.499285,-0.5762 -9.727129,-1.05229 -2.957685,-0.47158 -5.896345,-1.05699 -8.803905,-1.77811 -2.730906,-0.66146 -5.470852,-1.2903 -8.229483,-1.82602 -2.875856,-0.56193 -5.793056,-1.04709 -8.484473,-2.26468 -0.473038,-0.2275 -1.82868,-1.0108 -1.419115,-0.68251 0.647228,0.51881 1.391272,0.91469 2.143876,1.26346 0.474858,0.22007 -0.880733,-0.5667 -1.304163,-0.87431 -0.856541,-0.62225 -1.723001,-1.35957 -2.490428,-2.08705 -0.408216,-0.38697 -0.793565,-0.79737 -1.190348,-1.19605 -0.963252,-1.01946 -1.562245,-1.60437 -2.42521,-2.71446 -1.410448,-1.81434 -2.548917,-3.83297 -3.603363,-5.86745 -1.683487,-3.53141 -3.143761,-7.16059 -4.607671,-10.78737 -1.653322,-4.27565 -3.241055,-8.58276 -4.49246,-12.99607 -1.200889,-4.45587 -2.214515,-8.94898 -3.231698,-13.44906 -0.640023,-4.060979 -1.181839,-8.143175 -1.334093,-12.255957 -0.0394,-1.429203 -0.02969,-2.834944 0.0248,-4.262861 0.02389,-0.626023 -0.02059,-1.253982 0.01646,-1.879365 0.0092,-0.154539 0.06036,-0.30368 0.09054,-0.45552 0,0 -2.480089,-1.325043 -2.480089,-1.325043 z" />
    <path
       style="fill:#000000"
       id="path381"
       d="m 81.336776,76.679137 c -0.09526,0.13078 -0.209974,0.2494 -0.285777,0.392339 -0.406538,0.766585 -0.572204,1.689629 -0.797246,2.516353 -0.503746,1.850582 -0.186605,0.554968 -0.647858,2.591132 -0.538846,3.30121 -0.872343,6.636406 -1.050584,9.975665 -0.07125,2.937164 0.360382,5.813399 1.430562,8.545924 0.54274,1.11621 1.17126,2.37146 2.291394,3.02923 3.84112,2.25562 2.459324,2.06778 4.591362,2.20573 0.216931,-0.055 0.446706,-0.0731 0.650792,-0.16492 1.59477,-0.71746 2.184189,-2.88551 2.718788,-4.36145 0.970086,-3.166321 1.414516,-6.4441 1.499586,-9.745157 -0.01109,-3.433923 -0.36222,-6.849349 -1.346328,-10.14292 -0.493577,-1.113291 -0.986046,-2.879506 -2.108862,-3.57287 -3.742663,-2.311178 -2.476858,-2.164632 -4.58429,-2.239383 -0.432415,0.758071 -0.112495,0.01819 -0.173762,1.034698 -0.0098,0.163234 -0.08235,0.316523 -0.123523,0.474785 0,0 0.125983,0.08357 0.125983,0.08357 v 0 c 1.118712,0.03911 2.066327,0.291192 3.133494,0.629162 1.561545,0.416953 1.385615,0.441241 -1.894351,-1.407704 -0.247281,-0.139395 0.476658,0.315199 0.677976,0.515324 0.825552,0.82066 1.277251,1.936143 1.74403,2.974592 1.133627,3.253742 1.606441,6.651431 1.529083,10.099969 -0.116595,3.248004 -0.470597,6.494257 -1.57098,9.575728 -0.508033,1.263286 -1.276282,3.436446 -2.755545,3.897546 -0.185013,0.0577 -0.384793,0.0465 -0.57719,0.0697 -1.575296,-0.31227 -0.900183,-0.25175 1.968957,1.46082 0.234658,0.14007 -0.471966,-0.27942 -0.684563,-0.45113 -0.809202,-0.6536 -1.358135,-1.52907 -1.819969,-2.44718 -1.174122,-2.70216 -1.69711,-5.567961 -1.694735,-8.518507 -0.04925,-1.317867 -0.107308,-2.151596 -0.05014,-3.468465 0.09603,-2.212198 0.459923,-4.406215 0.822716,-6.586285 0.09755,-0.640647 0.286587,-1.997828 0.450923,-2.664235 0.208512,-0.845554 0.603896,-1.595601 0.896724,-2.406076 0.05467,-0.151304 0.08236,-0.311036 0.123533,-0.466554 0,0 -2.490199,-1.429402 -2.490199,-1.429402 z" />
    <path
       style="fill:#000000"
       id="path383"
       d="m 113.52371,76.533682 c -0.75181,0.978138 -0.98598,2.227354 -1.31453,3.38863 -0.55162,1.949668 -0.19889,0.504902 -0.66739,2.61912 -0.52822,3.275584 -0.60046,6.592636 -0.73883,9.899508 -0.0638,2.880732 0.34304,5.741327 1.48028,8.39362 0.19373,0.31427 0.36441,0.64397 0.58119,0.94281 0.35563,0.49026 0.92711,1.10143 1.45243,1.41988 0.75002,0.45468 3.54314,2.59048 5.40569,2.75243 0.32082,0.0279 0.64336,-0.0299 0.96504,-0.0448 0.31685,-0.11464 0.65615,-0.18 0.95054,-0.34391 2.14605,-1.19486 2.55717,-3.85804 2.95612,-6.032373 0.56227,-3.777439 0.14697,-7.551743 -0.57801,-11.269726 -0.65349,-2.947024 -1.45427,-5.449566 -3.5944,-7.639232 -0.87238,-0.423591 -4.4083,-3.836254 -3.93776,-1.905322 0,0 0.11906,0.09318 0.11906,0.09318 v 0 c 3.98326,2.402562 -2.39505,-1.424348 -0.19632,0.158998 2.25945,2.028496 3.44301,4.668443 4.12053,7.600703 0.7511,3.653954 1.17033,7.378585 0.56963,11.093683 -0.40889,1.971804 -0.89277,4.565059 -2.95914,5.517389 -0.2757,0.12706 -0.58651,0.15691 -0.87977,0.23537 -0.29921,-0.0144 -0.60277,0.01 -0.89763,-0.0432 -1.14694,-0.20559 -3.7609,-1.79105 1.86806,1.38449 0.28752,0.1622 -0.55957,-0.35441 -0.8112,-0.56809 -0.6818,-0.57901 -0.8315,-0.89232 -1.34982,-1.62529 -0.17534,-0.35625 -0.37386,-0.70199 -0.526,-1.06874 -0.95739,-2.307803 -1.08699,-4.8382 -1.28423,-7.295213 -0.18438,-3.312621 -0.0194,-6.633762 0.5795,-9.902456 0.0578,-0.411897 0.30702,-2.259755 0.40948,-2.717937 0.2584,-1.155522 0.76779,-2.223166 1.25205,-3.294342 0,0 -2.97457,-1.749117 -2.97457,-1.749117 z" />
    <path
       style="fill:#000000"
       id="path385"
       d="m 87.312058,38.592944 c 2.364345,-0.831606 4.676543,-1.839458 7.016702,-2.749163 3.159499,-1.153306 6.42602,-2.012733 9.76156,-2.466062 2.31625,-0.314797 3.67846,-0.352573 6.01674,-0.493808 5.50494,-0.346357 10.97404,0.252907 16.34137,1.444284 1.10666,-0.09108 2.07296,0.850323 3.16618,0.855333 0.0513,2.35e-4 0.20364,-0.508619 0.23119,-0.595554 0,0 -0.11893,-0.09334 -0.11893,-0.09334 v 0 c -0.84627,-0.484784 -2.73091,-1.583866 -3.49481,-1.919751 -0.8032,-0.353162 -2.46732,-0.704989 -3.28244,-0.898854 -5.30063,-1.00176 -10.54495,-1.371633 -15.94063,-1.010989 -5.40564,0.409649 -10.798982,1.174074 -15.936054,2.983415 -2.0039,0.689082 -4.748865,1.43322 -6.510473,2.650343 -0.114979,0.07944 -0.199816,0.195444 -0.299724,0.293166 0,0 3.049319,2.000984 3.049319,2.000984 z" />
    <path
       style="fill:#000000"
       id="path387"
       d="m 89.35198,127.92965 c -0.620033,1.84743 -0.684499,3.56929 -0.426289,5.486 0.183634,0.76003 0.281902,1.36454 0.636121,2.06877 1.080853,2.14887 3.821168,3.54509 6.030546,4.04055 2.362837,0.0394 4.213431,-1.33666 5.819092,-2.91975 1.16627,-1.13661 1.95633,-2.58822 3.05629,-3.77736 0.0815,-0.0421 0.15305,-0.11872 0.24446,-0.12641 0.0692,-0.006 0.24922,0.12277 0.18796,0.09 -1.03334,-0.55258 -2.04199,-1.15514 -3.10437,-1.64959 -0.16672,-0.0776 0.28219,0.2405 0.39264,0.38753 0.28977,0.38568 0.47688,0.83872 0.7156,1.25792 1.82217,2.93949 4.04881,5.12652 7.75603,5.88301 2.18451,-0.15002 3.46381,-1.76647 4.44787,-3.54719 0.59747,-1.37318 0.69062,-2.82898 0.45675,-4.29457 -0.0486,-0.30476 -0.0725,-0.62115 -0.19187,-0.90576 -0.14102,-0.33627 -0.38502,-0.61937 -0.57753,-0.92906 -1.50006,-1.32741 -0.74405,-0.71682 -2.25874,-1.84319 0,0 -0.13873,-0.0601 -0.13873,-0.0601 v 0 c -0.61844,0.17986 -0.28229,0.08 -1.00777,0.30191 -0.14496,0.95888 -0.10994,0.23898 0.1258,1.44033 0.27128,1.38246 0.23456,2.75554 -0.25097,4.09034 -0.15489,0.30641 -0.28196,0.62854 -0.46466,0.91923 -0.58246,0.92677 -1.61301,2.02266 -2.74507,2.22391 -0.2569,0.0457 -0.52182,0.006 -0.78273,0.009 -1.58936,-0.51047 -1.8696,-0.66324 2.05195,1.42742 0.28929,0.15423 -0.54588,-0.36788 -0.78634,-0.59071 -0.48961,-0.45372 -0.88363,-1.04564 -1.25044,-1.5954 -0.18387,-0.27558 -0.35688,-0.55825 -0.53532,-0.83737 -1.06107,-1.50278 -3.60099,-5.3988 -5.5656,-3.61262 -0.90923,1.30926 -1.63886,2.7518 -2.776638,3.89379 -1.573133,1.51068 -3.392131,2.82472 -5.690789,2.55943 -1.036809,-0.3292 -3.022767,-1.03241 1.415084,1.0992 0.290065,0.13933 -0.510743,-0.39631 -0.729362,-0.63244 -0.733856,-0.79262 -1.070572,-1.77432 -1.3027,-2.80875 -0.26638,-1.75918 -0.401173,-3.60282 0.385451,-5.25726 0,0 -3.135726,-1.79088 -3.135726,-1.79088 z" />
    <path
       style="fill:#000000"
       id="path389"
       d="m 99.765648,120.03747 c -0.954215,-0.45489 -2.755637,-1.11502 1.562302,0.93307 0.14601,0.0692 -0.2455,-0.21386 -0.34256,-0.34307 -0.30296,-0.4033 -0.31016,-0.59711 -0.45476,-1.08341 -0.16575,-1.30919 -0.10726,-2.32787 1.2001,-2.91768 0.17362,-0.031 0.34483,-0.0821 0.52086,-0.093 0.39458,-0.0243 0.769,0.0336 1.13361,0.19035 0.17941,0.0771 0.68135,0.38108 0.50579,0.29557 -2.32994,-1.13489 -2.36894,-1.94321 -2.11571,-0.67404 0.041,1.00972 -0.3341,1.94164 -0.81994,2.80659 -0.13518,0.24067 -0.38334,0.43855 -0.42346,0.71166 -0.0501,0.34131 0.11261,0.6807 0.16891,1.02106 0.34081,1.25034 0.55646,0.80568 -0.2304,1.46455 0,0 0.12776,0.0808 0.12776,0.0808 v 0 c 0.98343,-0.65846 0.34744,-0.39168 2.03605,-0.36808 0.43483,-0.0601 0.90411,-4.9e-4 1.3045,-0.18045 0.27419,-0.12324 0.42509,-0.42911 0.59832,-0.6748 0.7262,-1.02997 1.00405,-2.17795 0.52218,-3.36704 -0.1585,-0.24827 -0.24188,-0.56541 -0.47549,-0.74481 -1.66006,-1.27481 -3.27893,-2.73843 -5.387029,-2.13131 -1.377991,0.79043 -1.458465,1.8024 -1.353148,3.29122 0.419016,2.17382 1.833563,3.03805 4.235467,3.53219 0,0 -2.313352,-1.74944 -2.313352,-1.74944 z" />
    <path
       style="fill:#000000"
       id="path395"
       d="m 142.62273,48.723224 c -0.15941,-1.109611 -0.42475,-2.190911 -0.54912,-3.310506 -0.1769,-2.112286 -0.24088,-4.233167 -0.12001,-6.349463 0.19462,-2.68768 0.76345,-5.329634 1.33734,-7.956968 0.41351,-1.640717 0.80237,-3.339788 1.64042,-4.830208 0.48929,-0.870169 0.74259,-1.072627 1.40162,-1.808569 1.6354,-1.849803 3.79491,-2.945036 6.10576,-3.695871 1.53174,-0.354835 3.18897,-0.529427 4.7482,-0.204776 0.94274,0.196288 1.28911,0.421 2.14108,0.825303 -8.48135,-4.995391 -4.28295,-2.717965 -2.77757,-0.816591 0.99133,1.252108 1.68233,2.673767 2.39011,4.094149 1.81679,3.700621 3.21525,7.570169 4.25662,11.553719 1.00631,4.197107 1.14846,8.510199 1.01479,12.802752 -0.11543,3.10589 -0.41776,6.197064 -1.23745,9.199323 -0.607,2.054666 -1.68175,3.901813 -2.86203,5.671459 -0.97665,1.451896 -2.17145,2.707174 -3.54783,3.779191 -1.12467,0.804899 -2.37255,1.420257 -3.6714,1.886777 -0.1188,0.200336 -1.31617,0.161576 -1.40011,0.264074 -0.0734,0.08959 0.03,0.242573 0.10437,0.33135 1.12803,1.346888 0.84539,0.460923 1.04683,1.211581 0,0 0.1191,0.09312 0.1191,0.09312 v 0 c 1.29105,0.744521 2.72366,1.912371 4.14907,2.231137 0.52115,0.116546 1.11115,-0.235022 1.58567,-0.373938 1.30298,-0.565613 2.56017,-1.242027 3.68322,-2.118914 1.38712,-1.155097 2.62252,-2.458242 3.59568,-3.988456 1.20396,-1.841337 2.28201,-3.772031 2.88134,-5.90444 0.7871,-3.098077 0.97039,-6.269985 1.05485,-9.458312 0.12661,-4.349105 -0.0643,-8.696973 -0.95889,-12.970219 -1.02065,-3.983291 -2.35698,-7.86972 -4.07658,-11.609753 -0.88065,-1.816621 -1.74261,-3.715313 -3.0881,-5.248454 -1.92664,-2.195334 -4.75892,-3.118733 -7.28638,-4.589581 -0.3383,-0.118686 -0.66766,-0.266828 -1.01489,-0.35606 -1.90148,-0.488641 -3.88578,-0.155298 -5.7295,0.393597 -2.36354,0.873574 -4.60301,2.041552 -6.20223,4.054912 -1.2897,2.202451 -2.24249,4.563935 -2.73394,7.077598 -0.56912,2.705215 -0.97819,5.44101 -1.04786,8.209951 -0.0356,2.188869 -0.0547,4.381782 0.329,6.546856 0.21012,1.30615 0.35911,2.682577 1.18875,3.7654 0,0 3.53007,1.59883 3.53007,1.59883 z" />
    <path
       style="fill:#000000"
       id="path397"
       d="m 48.561206,74.075963 c -0.546668,-0.114515 -1.09955,-0.224463 -1.60939,-0.462837 -0.197371,-0.09228 -0.762888,-0.42134 -0.572741,-0.314968 3.532103,1.975919 4.245688,2.582544 2.620185,1.319698 -1.767558,-1.339864 -2.764915,-3.195139 -3.578983,-5.204383 -0.923173,-2.400303 -1.413337,-4.932588 -1.869261,-7.454516 -0.570406,-3.075904 -0.490332,-6.192712 -0.190414,-9.289565 0.364956,-3.633452 1.837677,-6.945332 3.400174,-10.194627 1.178317,-2.310168 2.418556,-4.609266 4.016795,-6.662202 0.567615,-0.729101 1.975977,-2.316684 2.579984,-3.00634 2.066352,-2.224331 4.273728,-4.387323 6.902397,-5.946008 0.452553,-0.268344 0.928422,-0.495262 1.392634,-0.742893 2.644811,-1.177216 5.447836,-1.522533 8.30626,-1.226527 0.406463,0.106233 0.823783,0.177297 1.219387,0.318698 0.399989,0.142969 1.52235,0.750088 1.158334,0.531174 -1.167402,-0.70206 -2.332087,-1.421768 -3.573161,-1.983418 -0.428888,-0.194095 0.761097,0.556723 1.112592,0.869882 1.034989,0.92211 1.207985,1.248801 2.067861,2.350276 2.101677,2.971532 2.822266,6.493001 3.38382,10.014036 0.431078,3.084712 0.120584,0.753706 0.484435,3.782694 0.16705,1.390656 0.140964,2.302451 0.938565,3.54505 2.695565,4.199477 1.068697,0.334649 2.124299,3.075053 0,0 0.135195,0.06766 0.135195,0.06766 v 0 c 0.818229,-2.104201 -0.636255,1.068548 1.720622,-1.175386 0.627613,-0.597538 0.225817,-2.465755 0.164718,-2.998232 -0.191037,-1.664896 -0.2717,-2.155694 -0.50806,-3.828974 -0.687068,-3.569991 -1.450679,-7.221626 -3.4418,-10.324612 -0.790281,-1.111539 -0.990708,-1.500953 -1.957141,-2.448351 -2.484706,-2.435767 -5.95328,-4.390657 -9.411525,-5.033349 -3.127184,-0.181632 -5.293778,0.276264 -8.08704,1.751598 -1.269067,0.734988 -1.571873,0.858262 -2.756387,1.760387 -1.997439,1.521248 -3.742054,3.35596 -5.451049,5.183989 -0.437673,0.510811 -0.897299,1.003601 -1.313019,1.532433 -2.02375,2.574386 -3.582779,5.493033 -5.145717,8.355887 -1.63089,3.267768 -3.061136,6.651997 -3.517246,10.309902 -0.38669,3.112662 -0.49513,6.238833 0.01914,9.349173 0.426196,2.582779 1.056246,5.115103 1.927719,7.586531 0.780485,2.057133 1.770993,3.998848 3.500895,5.428843 1.928316,1.619999 0.754211,0.694675 5.15383,3.202508 0.554771,0.316225 1.280106,0.551199 1.894678,0.293141 0,0 -3.241585,-2.331427 -3.241585,-2.331427 z" />
    <path
       style="fill:#000000"
       id="path401"
       d="m 78.95807,154.23611 c -0.866434,1.37149 -1.341368,2.96904 -1.920506,4.4779 -1.08587,2.88459 -2.018409,5.82195 -3.106584,8.70591 -1.265624,2.96039 -2.440193,5.95004 -3.488413,8.99396 -0.94578,2.76425 -1.80233,5.55383 -2.500602,8.39073 -0.552404,2.30718 -0.97444,4.64184 -1.367834,6.98041 -0.262738,1.61042 -0.486907,3.22736 -0.653348,4.85061 -0.100606,1.23849 -0.156009,2.48063 -0.140843,3.72314 0.04212,0.58439 0.01057,1.21427 0.312202,1.73682 2.793331,1.85085 3.109837,2.7741 4.581377,0.69769 0.808586,-1.33561 1.562568,-2.70456 2.308261,-4.07616 0.831124,-1.50212 1.649598,-3.00793 2.365186,-4.56892 0.690486,-1.71403 1.323322,-3.45048 1.990747,-5.17365 0.624351,-1.64435 1.370932,-3.23714 2.093046,-4.83962 0.707145,-1.71027 1.360161,-3.44256 2.033147,-5.16651 0.655199,-1.72208 1.283625,-3.45178 2.134368,-5.08869 0.295523,-0.48584 0.564782,-1.00486 0.937663,-1.43976 0.05411,-0.0631 0.109239,-0.13151 0.183494,-0.16888 0.02478,-0.0125 0.09749,0.053 0.07311,0.0398 -1.06964,-0.58022 -2.13925,-1.16051 -3.208875,-1.74076 -0.300887,2.16548 -0.87973,4.29812 -1.39004,6.42458 -1.022462,3.76079 -1.725726,7.58872 -2.20539,11.45297 -0.372453,2.80769 -0.409149,5.6431 -0.627559,8.46305 -0.09936,1.28292 -0.235229,2.56282 -0.33596,3.84563 -0.121496,3.671 -0.398185,7.33175 -0.718352,10.98979 -0.267888,3.27825 -0.344988,6.5679 -0.473588,9.85356 -0.129191,3.07672 -0.205137,6.15553 -0.277544,9.23405 -0.09223,2.99421 -0.04332,5.99099 0.07729,8.98351 0.08402,2.64567 0.35259,5.27974 0.619785,7.91164 0.286135,2.66226 0.749674,5.30073 1.154437,7.94642 0.388072,2.47619 0.655228,4.96902 1.03797,7.44577 0.27144,1.8178 0.746078,3.59189 1.709581,5.16661 1.187148,1.43722 2.894116,2.06242 4.681766,2.7825 0.387669,0.15616 1.209963,-1.14745 1.333317,-1.3419 1.114654,-2.40292 1.326788,-5.09442 1.585061,-7.69721 0.223775,-3.21394 0.402174,-6.43139 0.556432,-9.64945 0.165899,-2.88718 0.462227,-5.76515 0.743227,-8.64291 0.268105,-2.673 0.528476,-5.34684 0.81251,-8.01822 0.223384,-1.6442 0.28641,-3.30904 0.60966,-4.93928 0.346299,-1.49131 0.188297,-0.74727 0.475045,-2.2319 0.28995,-1.96028 0.622319,-3.91363 0.940622,-5.86937 0.234201,-1.41213 0.517789,-2.81541 0.78055,-4.22236 -0.01613,-0.62876 0.441919,-1.42675 0.198074,-2.04883 -0.285898,-0.72935 -1.004938,-1.03252 -1.602937,-1.46314 -0.115021,-0.10512 -0.230042,-0.21023 -0.345063,-0.31534 0,0 -0.310389,-0.13947 -0.310389,-0.13947 v 0 c -0.04618,0.0242 -0.09235,0.0484 -0.138526,0.0726 -0.198925,-0.0599 -1.116507,-0.5672 -1.490001,-0.18387 -0.306898,0.31498 -0.158934,1.53085 -0.320914,1.95325 -0.196658,1.43035 -0.489092,2.84477 -0.692451,4.27428 -0.278832,1.99186 -0.465644,3.99481 -0.728821,5.98885 -0.199026,2.4759 -0.271176,4.95985 -0.630753,7.42335 -0.267011,2.6786 -0.492363,5.36118 -0.776581,8.03805 -0.297917,2.88783 -0.569019,5.77825 -0.711815,8.67875 -0.180836,3.21238 -0.241831,6.43224 -0.537083,9.63728 -0.290473,2.50657 -0.564409,5.11465 -1.797596,7.36364 -0.258189,0.33296 -0.422344,0.64514 -0.814742,0.82913 -0.113957,0.0534 -0.473712,-0.006 -0.37155,0.0673 0.974534,0.70126 2.056023,1.24063 3.073915,1.87732 0.142492,0.0891 -0.310118,-0.13595 -0.446642,-0.23397 -0.160661,-0.11536 -0.291659,-0.26723 -0.437488,-0.40085 -1.11655,-1.49804 -1.638252,-3.27629 -1.964576,-5.10086 -0.437462,-2.48244 -0.711553,-4.98887 -1.109493,-7.47774 -0.428566,-2.63392 -0.891171,-5.26421 -1.147071,-7.92244 -0.299829,-2.63824 -0.578812,-5.27992 -0.714624,-7.93265 -0.134279,-2.99239 -0.193411,-5.98621 -0.125255,-8.9816 0.06776,-3.07949 0.204348,-6.15668 0.266319,-9.23626 0.0795,-3.28657 0.203004,-6.57102 0.447856,-9.85014 0.220739,-3.68595 0.485398,-7.37071 0.607483,-11.06147 -0.005,-1.34326 -0.04877,-2.68656 -0.03024,-4.0297 0.03902,-2.82785 0.303779,-5.65155 0.574259,-8.46422 0.51448,-3.83235 1.256089,-7.62614 2.32308,-11.34629 0.598201,-2.10077 1.138735,-4.2311 1.994007,-6.24629 -3.833574,-2.32893 -2.860877,-2.82008 -4.29709,-0.0434 -0.793428,1.67597 -1.468598,3.39814 -2.109012,5.13785 -0.667452,1.71806 -1.323724,3.44173 -2.079379,5.12358 -0.697439,1.6206 -1.387104,3.24465 -2.054273,4.87796 -0.674642,1.7118 -1.282557,3.45006 -2.010746,5.14035 -0.709036,1.55396 -1.520334,3.05612 -2.356334,4.54518 -0.747016,1.34883 -1.47068,2.72225 -2.391518,3.96298 -0.231524,0.27027 -0.48393,0.6351 -0.8332,0.77405 -0.217346,0.0865 -0.401351,-0.0982 -0.293044,-0.0333 1.002688,0.60024 2.011484,1.19021 3.017226,1.78532 -0.54482,-0.24027 -0.445313,-1.04383 -0.538119,-1.53181 -0.09579,-1.23751 -0.03425,-2.4735 0.06571,-3.70949 0.115365,-1.63782 0.289056,-3.2705 0.51633,-4.89673 0.328277,-2.35229 0.706819,-4.69901 1.247286,-7.01325 0.671497,-2.83808 1.448957,-5.65006 2.417171,-8.4029 1.026715,-3.04937 2.225676,-6.03165 3.426625,-9.01589 1.093291,-2.86705 2.114546,-5.76195 3.295621,-8.59493 0.596695,-1.45353 1.1365,-2.97245 2.085082,-4.24158 0,0 -3.063131,-1.85399 -3.063131,-1.85399 z" />
    <path
       style="fill:#000000"
       id="path403"
       d="m 87.219937,214.62433 c 1.258378,0.10801 2.490396,0.41937 3.735399,0.63503 1.665277,0.25556 3.311531,0.57544 4.996781,0.6481 1.500122,0.0197 2.992719,0.18119 4.491103,0.23385 1.74523,0.0255 3.49057,-0.005 5.23501,-0.0568 1.92755,-0.0636 3.85636,-0.0625 5.77792,-0.23882 0.79137,-0.0865 1.57598,-0.22202 2.35853,-0.36592 0.21918,-0.0403 0.44796,-0.0466 0.65698,-0.12392 0.13571,-0.0502 0.41369,-0.11808 0.3547,-0.25019 -0.18293,-0.40976 -0.60634,-0.66169 -0.90951,-0.99253 0.0386,-0.0521 0.0771,-0.10427 0.11569,-0.1564 0,0 -0.14073,-0.10129 -0.14073,-0.10129 v 0 c -0.17325,-0.0427 -0.34649,-0.0853 -0.51974,-0.128 -0.59577,-0.29479 -1.16188,-0.65926 -1.78732,-0.88436 -0.82987,-0.29867 -2.74114,0.51227 -3.6832,0.46957 -1.90579,0.17593 -3.8192,0.20458 -5.73203,0.23548 -1.75751,0.0324 -3.515808,0.0413 -5.273189,-0.006 -1.488792,-0.0674 -2.97488,-0.18762 -4.46541,-0.21841 -1.531375,-0.0763 -3.06815,-0.11466 -4.579299,-0.40024 -1.162925,-0.19212 -2.319319,-0.3383 -3.49329,-0.42766 0,0 2.861605,2.12811 2.861605,2.12811 z" />
    <path
       style="fill:#000000"
       id="path405"
       d="m 108.08462,213.92694 c 0.47056,2.09415 0.80544,4.21382 1.13685,6.33338 0.56478,3.47404 0.98774,6.96671 1.37749,10.46386 0.39174,3.3653 0.56152,6.74973 0.79414,10.1281 0.26454,3.38409 0.52789,6.76864 0.87798,10.1451 0.3243,3.08347 0.83195,6.14114 1.3815,9.19095 0.37073,2.08577 0.87607,4.1427 1.44094,6.1833 0.38973,1.1991 0.6817,2.5377 1.59467,3.46178 2.49915,1.4365 2.92565,2.2606 4.76501,0.33703 1.05802,-1.08962 1.61826,-2.48739 2.25858,-3.83317 0.95426,-2.13549 1.07674,-4.48185 1.30034,-6.77553 0.36918,-3.19531 0.60024,-6.4056 0.87984,-9.61009 0.32121,-3.42098 0.45251,-6.85554 0.62804,-10.2861 0.16724,-2.3257 0.2067,-4.66214 0.4759,-6.97999 0.39517,-3.40242 0.0939,0.11592 0.35546,-3.33727 0.19306,-2.89428 0.2186,-5.79549 0.36522,-8.69208 0.12119,-1.90964 0.33443,-3.81167 0.43852,-5.72239 0.0896,-1.81415 -0.014,-3.63034 0.0568,-5.4444 -0.0642,-2.57617 -0.15962,-5.15118 -0.15996,-7.72884 0.0394,-2.75493 0.081,-5.51015 0.14272,-8.2647 0.0518,-2.4372 0.13467,-4.87329 0.12444,-7.31126 -0.0697,-1.74993 -0.15575,-3.49234 -0.1057,-5.24402 -0.002,-1.38806 -0.003,-2.77789 -0.16447,-4.15788 -0.12275,-0.74038 -0.2618,-1.48077 -0.28187,-2.23285 0.002,-0.0175 0.013,-0.0681 0.005,-0.0525 -0.93307,1.7797 0.77087,0.70713 -4.14611,-1.87311 -0.10881,-0.0571 0.12608,0.21118 0.18163,0.32079 0.20014,0.39491 0.34327,0.75948 0.51696,1.17181 0.75438,1.94628 1.47413,3.90567 2.22435,5.85359 0.69597,1.98199 1.54471,3.9028 2.41257,5.81385 0.84513,1.99287 1.89902,3.86918 3.10612,5.66154 0.88102,1.26415 1.784,2.53013 2.96999,3.52621 1.46528,0.8577 2.90992,1.75166 4.39583,2.5731 1.07515,0.59437 1.5187,-0.87339 1.68958,-1.58401 0.17474,-2.47882 -0.36669,-4.93657 -0.91271,-7.33894 -0.77372,-3.20789 -1.82456,-6.33711 -2.93969,-9.4396 -0.95408,-2.59436 -2.05771,-5.12961 -3.11464,-7.68283 -0.77011,-1.96533 -1.65705,-3.87888 -2.62211,-5.75496 -0.88427,-1.61896 -1.60306,-3.30978 -2.20324,-5.05169 -0.23576,-0.71814 -0.46583,-1.43812 -0.71634,-2.15132 -0.0612,-0.17415 -0.0855,-0.36713 -0.18724,-0.5211 -0.5205,-0.78728 -1.41598,-1.11395 -2.19616,-1.58098 -0.10268,-0.0899 -0.20536,-0.17977 -0.30804,-0.26966 0,0 -0.13874,-0.0601 -0.13874,-0.0601 v 0 c -0.01,0.0385 -0.0192,0.0771 -0.0289,0.11566 -0.44556,-0.13268 -0.87429,-0.34981 -1.33667,-0.39804 -0.10559,-0.011 -0.21477,0.1302 -0.21346,0.23635 0.002,0.1913 0.15062,0.35176 0.22292,0.52888 0.29358,0.71924 0.5617,1.44861 0.8123,2.18386 0.60336,1.76198 1.26769,3.50111 2.19469,5.12369 1.01197,1.8847 1.98577,3.78672 2.77208,5.77977 1.07552,2.56896 2.19558,5.11961 3.2182,7.7103 1.14473,3.06747 2.2105,6.16858 2.92246,9.36973 0.50641,2.29396 1.00104,4.65415 0.737,7.01379 -0.0791,0.28591 -0.14115,0.69722 -0.3644,0.93722 -0.25179,0.2707 -0.65804,0.0155 -0.90232,-0.0933 1.1721,0.68872 2.34419,1.37745 3.51628,2.06617 -1.30481,-0.89738 -2.24232,-2.18552 -3.16973,-3.45095 -1.21886,-1.76294 -2.34668,-3.58401 -3.1349,-5.58742 -0.85444,-1.93351 -1.78635,-3.83512 -2.50451,-5.82625 -0.70253,-1.915 -1.42273,-3.82428 -2.04103,-5.76883 -0.0195,-0.0586 -0.44799,-1.43843 -0.50892,-1.48123 -1.16764,-0.82012 -3.73233,-4.25084 -4.47222,-2.15017 0.0964,0.78423 0.25781,1.56122 0.41703,2.33441 0.23836,1.36102 0.24506,2.74658 0.26336,4.12517 -0.008,1.77151 -0.0225,3.54059 0.18558,5.30406 0.0981,2.44808 0.055,4.89693 -0.0167,7.34541 -0.0488,2.76387 -0.10023,5.52738 -0.10594,8.29183 -0.0146,2.61084 -0.008,5.22451 0.29769,7.82212 0.23224,1.82549 0.19135,3.6548 0.11781,5.4913 -0.0726,1.93632 -0.20951,3.86909 -0.28136,5.80539 -0.0932,2.92257 -0.068,5.84738 -0.20054,8.76884 -0.1638,3.50086 -0.1755,7.00866 -0.47427,10.50472 -0.19073,3.42436 -0.35182,6.85073 -0.63934,10.2689 -0.26806,3.21899 -0.62495,6.432 -0.78496,9.65842 -0.18256,2.30682 -0.39474,4.62622 -0.94718,6.87754 -0.39116,1.43074 -1.07866,2.70859 -2.1221,3.7777 -0.39053,0.36319 -0.74251,0.70506 -1.27742,0.83579 -0.51434,0.1257 -0.79961,-0.0528 -0.73519,-0.007 0.63776,0.45253 1.33381,0.81671 2.00072,1.22506 -1.10036,-0.7753 -1.41642,-2.19669 -1.84139,-3.40262 -0.62737,-2.06218 -1.18908,-4.14455 -1.63781,-6.25354 -0.63548,-3.05463 -1.15632,-6.13382 -1.51351,-9.23411 -0.35921,-3.37702 -0.63694,-6.7621 -0.90046,-10.14777 -0.23594,-3.39022 -0.44202,-6.78413 -0.83816,-10.16058 -0.40819,-3.48254 -0.83306,-6.9634 -1.31089,-10.43714 -0.25667,-2.05526 -0.48566,-4.11429 -0.77668,-6.16493 0,0 -2.2964,-1.12114 -2.2964,-1.12114 z" />
    <path
       style="fill:#000000"
       id="path407"
       d="m 126.27385,203.39563 c -0.0757,1.37501 0.75181,2.53235 1.50962,3.59984 0.5436,0.79148 1.265,1.45098 2.09374,1.93938 3.14297,1.85225 3.93324,2.40819 6.86218,3.28357 2.60687,0.56203 5.31006,0.48776 7.80014,-0.53391 0.58528,-0.24013 1.1368,-0.55546 1.70521,-0.83319 2.41458,-1.48432 4.62121,-3.33807 6.4813,-5.48121 1.22485,-1.41123 1.6367,-2.10388 2.69416,-3.64261 2.16384,-3.33613 3.66283,-7.03936 5.62615,-10.48546 0.39685,-0.69657 0.83343,-1.36976 1.25015,-2.05464 2.73053,-4.21515 6.29858,-7.08705 10.45104,-9.79113 3.07775,-1.80812 6.43748,-3.29355 10.02288,-3.67591 0.55874,-0.0596 1.12258,-0.0527 1.68387,-0.0791 2.41809,0.0392 4.59909,0.96302 6.69615,2.07383 0.65672,0.22162 1.26457,0.87813 1.9756,0.96216 0.0835,0.01 0.23319,-0.0752 0.20083,-0.15281 -0.40137,-0.96308 -0.96708,-0.63021 -0.32516,-0.89401 0,0 -0.12215,-0.0891 -0.12215,-0.0891 v 0 c -1.22753,-0.26636 -0.29487,-0.002 -2.21814,-1.07873 -0.95797,-0.53612 -1.9729,-0.95595 -2.9323,-1.48959 -2.07823,-1.02618 -4.24225,-1.80559 -6.60259,-1.71384 -1.54054,0.14606 -1.91422,0.12466 -3.46223,0.51829 -2.87584,0.73129 -5.55422,2.08744 -8.10377,3.57307 -0.68586,0.44543 -1.38827,0.86636 -2.05759,1.3363 -3.32449,2.33419 -6.23453,5.21139 -8.48334,8.60074 -0.97362,1.63625 -1.55199,2.56496 -2.45111,4.25285 -1.46766,2.75516 -2.70992,5.63994 -4.48006,8.22657 -2.55538,3.65244 -5.2054,6.70483 -9.17802,8.87789 -0.57105,0.25508 -1.12758,0.54553 -1.71315,0.76525 -2.45467,0.92104 -5.0124,1.04698 -7.55314,0.4225 -0.40922,-0.11583 -0.82515,-0.21013 -1.22766,-0.34748 -1.24579,-0.4251 -2.91623,-1.39488 0.95167,0.8205 0.30654,0.17557 -0.60252,-0.37069 -0.88583,-0.5817 -0.4379,-0.32614 -1.17344,-1.02494 -1.56329,-1.38435 -0.87507,-1.03016 -1.53889,-2.10216 -1.72396,-3.4671 0,0 -2.9212,-1.47688 -2.9212,-1.47688 z" />
    <path
       style="fill:#000000"
       id="path409"
       d="m 126.1891,201.51142 c 0.46338,0.41708 0.88946,0.8669 1.3121,1.32427 0.37039,0.41433 0.73388,0.83477 1.10389,1.24942 0.98377,0.97888 2.26952,1.66033 3.59076,2.08146 0.45871,0.13815 0.91678,0.27533 1.36262,0.45124 0.49685,0.21356 1.01791,0.35946 1.52457,0.54528 0.51978,0.19361 1.06475,0.22638 1.61259,0.19757 0.75422,-0.021 1.42238,-0.20868 2.09257,-0.54332 0.62802,-0.36327 1.30377,-0.60868 1.99804,-0.80765 0.69331,-0.17543 1.3972,-0.24835 2.07738,-0.47554 0.91624,-0.31854 1.68858,-0.87624 2.4525,-1.45589 0.92025,-0.66024 1.72669,-1.43912 2.47696,-2.2827 0.8241,-0.93707 1.5406,-1.95626 2.1936,-3.01751 0.778,-1.2826 1.4869,-2.6059 2.19527,-3.92781 0.74572,-1.41891 1.5289,-2.81588 2.36997,-4.1804 0.91374,-1.43801 1.92166,-2.81287 2.88747,-4.21572 0.82779,-1.22321 1.58748,-2.49253 2.30885,-3.78099 0.72755,-1.35083 1.54408,-2.64726 2.42561,-3.90197 0.84345,-1.1709 1.76959,-2.2765 2.77857,-3.30726 1.09133,-1.14099 2.42032,-1.95769 3.72791,-2.8109 1.1149,-0.81195 2.2546,-1.58027 3.48171,-2.21226 0.85844,-0.41331 1.7719,-0.69139 2.67626,-0.98327 1.11725,-0.4005 2.204,-0.80836 3.37284,-1.02837 0.99222,-0.34224 2.00456,-0.56475 3.05266,-0.60863 0.93543,-0.0212 1.8594,0.11113 2.77539,0.28439 0.95645,0.19411 1.90494,0.42499 2.84432,0.68919 1.04298,0.27546 2.07974,0.54968 3.06485,0.99429 1.24008,0.68494 3.48715,1.90272 -2.16129,-1.24849 -0.13936,-0.0778 0.26743,0.17432 0.39846,0.26543 0.39963,0.27786 0.39022,0.28307 0.7683,0.59418 0.76665,0.67874 1.36152,1.51717 1.95322,2.34544 0.66489,0.92485 1.23904,1.91017 1.77196,2.91552 0.58503,1.17852 1.01614,2.4231 1.42717,3.67027 0.37877,1.67801 1.07336,1.93704 2.38287,2.98147 0,0 0.13516,0.0677 0.13516,0.0677 v 0 c 0.12802,0.0165 1.25506,0.20243 1.4561,0.0898 0.17993,-0.10082 -0.32107,-1.26248 -0.36781,-1.44217 -0.4042,-1.25855 -0.83831,-2.50822 -1.37793,-3.71637 -0.49974,-1.02347 -1.07175,-2.01318 -1.71186,-2.95558 -0.60481,-0.84042 -1.19317,-1.70227 -1.92842,-2.43657 -1.70657,-1.5754 -3.84433,-2.61013 -5.91517,-3.63319 -1.01137,-0.40126 -2.06357,-0.66812 -3.11009,-0.96132 -0.95004,-0.25398 -1.90589,-0.49125 -2.87438,-0.66448 -0.93188,-0.15217 -1.87485,-0.24784 -2.82038,-0.19441 -1.05048,0.10337 -2.07246,0.35379 -3.05735,0.73747 -0.94819,0.56414 -1.9497,0.95867 -3.01296,1.26027 -0.91021,0.29793 -1.83168,0.5827 -2.65993,1.0766 -1.17783,0.71245 -2.32053,1.48551 -3.43604,2.29127 -1.53432,1.25502 0.44635,-0.3942 -1.05087,0.94869 -0.79426,0.71238 -1.70226,1.29672 -2.44925,2.06451 -1.03773,1.02849 -1.96971,2.15326 -2.79768,3.35829 -0.87861,1.26723 -1.701,2.57268 -2.4433,3.92496 -0.73272,1.27312 -1.4733,2.54152 -2.27782,3.77123 -0.94335,1.42277 -1.9467,2.80387 -2.88171,4.23222 -0.85744,1.36128 -1.65793,2.75723 -2.39923,4.18537 -0.71443,1.31005 -1.42941,2.62147 -2.22415,3.88514 -0.67851,1.02554 -1.38093,2.03639 -2.20945,2.94889 -0.73978,0.82353 -1.54354,1.58356 -2.45168,2.22173 -0.75454,0.54357 -1.53776,1.05949 -2.43596,1.33374 -0.69418,0.18367 -1.41131,0.25153 -2.09955,0.46088 -0.69645,0.21932 -1.35692,0.51519 -1.99702,0.86744 -0.58982,0.26518 -1.19659,0.54723 -1.85396,0.5468 -0.48698,-0.007 -0.95936,-0.0871 -1.43763,-0.17179 -0.4756,-0.0426 -0.90517,-0.30782 -1.35656,-0.44842 -0.45259,-0.16157 -0.91357,-0.29661 -1.37046,-0.4453 -0.93565,-0.33078 -1.78221,-0.98952 1.62542,1.0391 0.0949,0.0565 -0.20296,-0.0702 -0.43298,-0.25698 -0.0666,-0.0541 -0.12543,-0.1171 -0.18815,-0.17564 -0.38248,-0.41101 -0.74385,-0.84156 -1.12118,-1.25735 -0.45616,-0.50274 -0.99188,-0.91342 -1.47197,-1.39185 0,0 -2.29375,-0.96145 -2.29375,-0.96145 z" />
  </g>
</svg>
