<?xml version="1.0" encoding="UTF-8" standalone="no"?>
<!-- Created with Inkscape (http://www.inkscape.org/) -->

<svg
   width="210px"
   height="297px"
   viewBox="0 0 210 297"
   version="1.1"
   id="svg5"
   inkscape:version="1.2.2 (b0a8486541, 2022-12-01)"
   sodipodi:docname="yijun.svg"
   xmlns:inkscape="http://www.inkscape.org/namespaces/inkscape"
   xmlns:sodipodi="http://sodipodi.sourceforge.net/DTD/sodipodi-0.dtd"
   xmlns="http://www.w3.org/2000/svg"
   xmlns:svg="http://www.w3.org/2000/svg">
  <sodipodi:namedview
     id="namedview7"
     pagecolor="#ffffff"
     bordercolor="#000000"
     borderopacity="0.25"
     inkscape:showpageshadow="2"
     inkscape:pageopacity="0.0"
     inkscape:pagecheckerboard="0"
     inkscape:deskcolor="#d1d1d1"
     inkscape:document-units="mm"
     showgrid="false"
     inkscape:zoom="1.2316035"
     inkscape:cx="105.95943"
     inkscape:cy="117.7327"
     inkscape:window-width="1280"
     inkscape:window-height="651"
     inkscape:window-x="0"
     inkscape:window-y="0"
     inkscape:window-maximized="1"
     inkscape:current-layer="svg5" />
  <defs
     id="defs2" />
  <g
     inkscape:groupmode="layer"
     id="layer5"
     inkscape:label="Layer 5">
    <path
       style="fill:#442652;fill-opacity:1"
       d="M 47.914708,50.575412 C 42.883944,35.858813 37.447926,24.718748 43.116627,8.7505764 c 0.640385,-1.8039009 0.673464,-4.5673667 1.691172,-6.1504681 0.05896,-0.091709 1.318619,0.2713753 1.429509,0.3029787 0.801297,0.2283699 1.644926,-0.092624 2.440355,-0.027544 3.388745,0.2772609 3.813273,2.2948752 6.698585,3.1730136 2.467703,0.7510403 5.697264,0.8413614 7.852657,2.3990406 5.998275,4.3348878 7.959861,20.1008338 11.681207,21.8833278 0.587908,0.281602 3.12393,-2.851428 3.985548,-3.252891 5.281754,-2.460981 11.873061,-7.070081 17.974901,-6.830793 2.567537,0.100689 4.752419,1.8814 7.263229,2.112588 2.24662,0.206863 4.66925,-0.390863 6.89689,0.209331 2.41393,0.650383 4.57629,2.096321 6.9878,2.649686 1.86661,0.428329 4.40128,0.444803 6.09538,1.244967 1.21953,0.576016 1.45923,1.971994 2.54502,2.688248 0.93621,0.617583 2.14386,0.498489 3.02703,1.283528 1.06974,0.950876 1.12827,3.246451 2.87279,3.475992 1.1728,0.154316 2.26888,-4.258961 2.56981,-4.891729 1.18862,-2.499278 4.96382,-4.226466 7.04012,-5.875033 3.80416,-3.020469 6.84963,-6.832468 10.22691,-10.279242 0.62816,-0.64108 13.20804,-10.3206001 13.35861,-7.1585601 0.0753,1.5822556 -0.37278,3.2219985 -0.10466,4.8118521 0.29872,1.771388 1.43485,3.516052 1.92804,5.258058 1.92498,6.799226 2.63431,12.826418 0.90343,19.773494 -1.62981,6.541408 -5.7521,12.035105 -9.25462,17.699466 -0.81253,1.314037 -2.70408,2.19312 -3.26666,3.619219 -0.0325,0.08227 2.30037,0.957807 3.00224,2.346708 1.39778,2.766024 1.91864,5.706003 2.39904,8.706506 2.25224,14.067272 1.6929,28.165458 2.03271,42.36194 0.0553,2.30958 0.61698,4.61352 0.61698,6.96024 0,1.4757 -0.46117,2.96175 -0.44621,4.42074 0.0213,2.07384 0.35091,3.66117 0.74643,5.64917 0.35481,1.78339 -0.27612,3.6756 -0.23412,5.45638 0.0702,2.97876 0.97012,4.51812 -0.43243,7.36789 -2.70912,5.50452 -8.45415,8.1915 -13.80757,10.35636 -1.27773,0.5167 -1.90275,2.47156 -3.18403,3.04356 -5.32731,2.37826 -10.69374,4.5092 -16.08817,6.55536 -1.65644,0.6283 -3.135,1.9144 -4.85041,2.33293 -3.82969,0.93439 -6.90041,-0.94349 -10.62079,-0.61697 -1.23987,0.10882 -2.33675,1.03644 -3.56413,1.31107 -4.76788,1.06685 -10.1694,1.85725 -15.052531,2.07403 -4.663407,0.20702 -8.566284,-1.35636 -12.926174,-2.58358 -4.080668,-1.14864 -8.733065,-0.80918 -12.678283,-2.16493 -6.433642,-2.21087 -11.922407,-7.6508 -17.476364,-11.35343 -5.156968,-3.43798 -10.706986,-7.3833 -13.372379,-13.29526 -2.020694,-4.48199 0.217262,-9.75333 0.459977,-14.28958 0.106106,-1.98309 -0.65806,-3.87138 -0.616975,-5.78414 0.122203,-5.68921 0.442498,-11.33908 0.498538,-17.043931 0.06111,-6.221423 -0.588804,-12.348813 -0.669308,-18.487211 -0.08143,-6.208745 2.536588,-13.978301 4.836643,-19.679845 0.515109,-1.27689 0.274658,-2.380231 0.435187,-3.657779 0.299528,-2.383738 1.73247,-4.229427 2.947157,-6.279922 z"
       id="path555" />
    <path
       style="fill:#442652;fill-opacity:1"
       d="m 142.91572,154.90761 c 4.20584,3.17591 7.33697,7.42678 10.6364,11.46908 0.94386,1.15635 2.12788,2.10687 2.96897,3.35254 0.95138,1.409 1.71262,2.91242 2.76148,4.26848 0.807,1.04338 1.96383,1.85567 2.85976,2.83383 0.38541,0.42079 0.54725,0.9704 0.91594,1.40326 0.61581,0.72297 1.33387,1.34569 1.90969,2.11172 2.11461,2.81313 3.69549,5.93412 5.62124,8.86321 1.73084,2.63262 2.47746,4.09559 2.70825,7.18694 0.0357,0.47792 0.15116,1.20998 -0.14197,1.64351 -0.5246,0.77588 -1.92468,0.3061 -2.67138,0.24025 -2.96188,-0.26118 -5.42404,-1.57877 -8.19298,-2.52123 -0.84999,-0.28931 -1.80985,-0.27238 -2.61133,-0.66205 -1.40825,-0.68467 -2.79354,-1.81085 -4.32172,-2.20317 -0.46527,-0.11945 -2.56206,-0.88339 -2.82017,-0.41634 -0.37016,0.66982 1.13896,3.93367 1.16984,4.81587 0.035,0.99919 -0.22154,2.0509 -0.5583,2.96214 -0.70524,1.90827 -4.53454,2.21164 -5.71134,0.61836 -0.61592,-0.8339 -0.93998,-1.9267 -1.42373,-2.84065 -0.36477,-0.68915 -1.0801,-1.13962 -1.50018,-1.81278 -1.18972,-1.90643 -2.00973,-3.96863 -3.00173,-5.96523 -0.17608,-0.35439 -2.11156,-4.96739 -2.54034,-4.37222 -0.54572,0.75749 0.12659,2.95907 0.21431,3.80164 0.41163,3.9536 0.69574,7.98686 1.28587,11.91681 0.17093,1.13831 0.44973,2.23745 0.53237,3.39212 0.5554,7.76109 -1.04555,15.42278 -0.96099,23.16475 0.0191,1.75242 0.51421,3.4631 0.59106,5.20491 0.0993,2.24995 -0.76541,4.5894 -0.86407,6.86752 -0.11774,2.71867 0.47307,5.41499 0.32488,8.15475 -0.0734,1.3562 -0.60643,2.68685 -0.83814,4.02278 -0.25171,1.45128 -0.31643,2.9891 -0.61017,4.41181 -0.11903,0.57653 -0.48157,1.06506 -0.62382,1.63805 -0.40105,1.61542 -0.30745,3.29179 -0.76033,4.89914 -0.83967,2.98006 -3.40165,5.73591 -5.82873,7.51182 -0.39576,0.28958 -0.81172,0.54467 -1.29269,0.66204 -1.2021,0.29335 -2.55009,-0.12742 -3.77571,0.0983 -0.36981,0.0681 -0.66596,0.33978 -1.05244,0.35627 -0.35484,0.0152 -0.55129,-0.11253 -0.83814,-0.32488 -1.1848,-0.87706 -1.60861,-2.95895 -2.26051,-4.20978 -0.3173,-0.60883 -0.8179,-1.13429 -1.09886,-1.74862 -1.97028,-4.30824 -1.62036,-11.30863 -2.08578,-16.02286 -0.54688,-5.53933 -2.36454,-10.91793 -3.00855,-16.44738 -0.14104,-1.21095 0.0827,-2.51644 0.007,-3.7484 -0.12649,-2.05482 -0.57791,-3.99306 -0.16927,-6.01028 0.0186,-0.092 0.19938,-0.53993 0.0983,-0.65658 -0.19159,-0.22107 -0.70459,-0.56918 -1.0074,-0.57195 -0.38603,-0.004 -0.68562,0.24713 -1.0852,0.21431 -2.3874,-0.19612 -4.89336,-0.31895 -7.20606,-0.85725 -1.07894,-0.25113 -2.26051,-0.91195 -3.37847,-0.97464 -0.4444,-0.0249 -0.91916,0.30208 -1.33228,0.23342 -0.58037,-0.0964 -1.07241,-0.43367 -1.69539,-0.44227 -0.867217,-0.012 -1.745175,0.78036 -2.618145,0.89001 -0.339294,0.0426 -1.610828,-0.43049 -1.80595,-0.24025 -0.872918,0.85109 -0.516861,3.66262 -0.689345,4.76399 -0.181531,1.15915 -0.714467,2.22318 -1.007401,3.35254 -0.492983,1.90064 -0.590853,3.86774 -0.941878,5.78914 -0.770968,4.22004 -1.643878,8.43634 -2.780589,12.5734 -0.285911,1.04057 -0.901206,1.95496 -1.169841,2.99627 -0.47186,1.82906 -0.611586,3.75323 -1.104318,5.58165 -0.349068,1.29532 -0.923803,2.53778 -1.273583,3.81392 -0.279755,1.02066 -0.39781,2.02542 -0.838136,3.00173 -0.716218,1.58803 -1.174021,3.2571 -1.988865,4.80904 -0.370173,0.70503 -1.19945,1.28481 -1.780014,1.79912 -1.866927,1.65389 -2.819825,3.19363 -5.445149,1.56707 -4.255007,-2.63625 -3.273919,-8.69383 -3.30067,-12.87234 -0.01456,-2.27475 -0.15993,-4.59225 -0.279833,-6.86206 -0.249547,-4.72398 -1.249275,-9.38986 -1.500181,-14.1077 -0.180576,-3.39543 0.492154,-6.64172 0.687981,-10.00575 0.235971,-4.05364 -0.244419,-8.21981 -0.174725,-12.26899 0.04302,-2.49939 0.810912,-5.01536 1.182126,-7.49135 0.17615,-1.17492 -0.131338,-2.39036 -0.06416,-3.57368 0.08377,-1.47546 0.521473,-2.89782 0.623823,-4.36677 0.175198,-2.51446 -0.159423,-4.93827 -0.221136,-7.44083 -0.02567,-1.04101 0.111553,-5.24182 -0.390402,-5.85467 -0.165925,-0.20258 -0.298061,0.43959 -0.376751,0.68935 -0.535192,1.69865 -1.098169,3.37831 -1.715857,5.04929 -0.850769,2.30151 -6.755409,16.56886 -10.337458,16.4583 -2.189835,-0.0676 -0.451142,-8.99882 -0.148789,-9.80509 0.222019,-0.59205 0.85097,-1.44354 0.03276,-1.54659 -1.725413,-0.21733 -3.580147,1.58574 -4.97148,2.32057 -2.311405,1.22075 -4.531495,2.57056 -6.822476,3.83303 -0.498761,0.27485 -1.073007,0.27265 -1.584813,0.53919 -0.548717,0.28577 -3.241868,1.02968 -3.62555,0.12968 -0.546362,-1.28159 1.085846,-3.26663 1.474245,-4.45003 0.659192,-2.00848 1.480434,-3.10641 2.351966,-4.97831 0.34754,-0.74645 0.351255,-1.60731 0.702996,-2.35196 0.855764,-1.81171 1.86443,-3.51582 2.792874,-5.28271 1.178161,-2.24213 2.689099,-4.4183 3.697897,-6.73785 0.474949,-1.09206 0.596972,-2.3043 1.071557,-3.3853 0.643293,-1.46528 1.697877,-2.72091 2.476185,-4.10741 0.675452,-1.20326 1.160273,-2.50197 1.897408,-3.6897 0.869145,-1.40045 2.153022,-2.52856 3.098643,-3.87945 0.382911,-0.54702 5.042771,-7.47447 5.367342,-7.61011 0.597491,-0.24969 1.634186,1.10304 2.14994,1.28724 0.536095,0.19146 1.173258,0.0877 1.676271,0.3317 0.820358,0.3979 1.604383,1.23921 2.502121,1.46196 0.593069,0.14715 1.178814,0.0924 1.767728,0.12285 0.81786,0.0423 1.570648,0.79695 2.351966,0.8709 0.319766,0.0303 1.143445,-0.008 1.410088,0.13651 0.874202,0.47456 1.538738,1.68944 2.695956,2.07349 1.915573,0.63574 3.582658,-0.403 5.400103,-0.79991 1.345058,-0.29375 2.650407,-0.0402 4.002301,-0.0846 1.036097,-0.0341 2.019788,-0.37178 3.046772,-0.43545 2.134257,-0.13231 5.630746,0.21065 7.797116,0.48732 0.83531,0.10667 1.46766,0.61687 2.3588,0.64976 1.01594,0.0375 2.15695,-0.44673 3.22968,-0.45456 3.32378,-0.0243 6.56293,0.12761 9.77233,-0.85725 2.28079,-0.6999 4.78379,-2.08683 7.07501,-2.93074 2.52537,-0.93016 5.33073,-0.56704 7.70702,-1.33911 1.71026,-0.55566 3.49021,-1.09977 5.17078,-1.73496 0.68256,-0.25799 1.56289,-1.24931 2.24822,-1.29952 0.59875,-0.0439 1.20033,-0.03 1.80049,-0.0451 z"
       id="path15101" />
    <path
       style="fill:#ff0000;fill-opacity:1"
       d="m 115.40468,73.888318 c -3.62401,3.106153 -2.8513,6.743459 -3.87262,10.695098 -0.31141,1.204907 -0.51968,2.469559 -0.44091,3.717007 0.0953,1.509804 1.4021,7.430223 2.42978,8.550618 0.66534,0.725382 2.27628,1.561207 3.23514,1.676271 3.12721,0.375265 5.32098,-3.386616 6.6928,-5.503846 0.40133,-0.6194 1.3287,-5.08252 1.46878,-5.984341 0.17262,-1.111214 -0.80722,-9.797647 -1.26675,-10.831602 -0.91839,-2.066373 -3.76231,-4.146792 -6.12767,-3.749769 -0.77876,0.130713 -2.02187,1.35996 -2.11855,1.430564 z"
       id="path15829" />
    <path
       style="fill:#ff0000;fill-opacity:1"
       d="m 79.973671,74.634995 c -2.789336,2.932767 -3.700987,6.020182 -4.359941,9.727284 -0.769458,4.328761 -1.572203,8.680349 0.136504,12.917385 0.47917,1.188188 1.447921,1.946139 2.424313,2.683671 0.570605,0.431015 0.993182,0.963415 1.669445,1.266755 3.132048,1.40491 7.187192,-4.928542 7.926795,-7.147352 0.865381,-2.596143 1.367234,-7.305388 0.915943,-10.019403 -0.167196,-1.005497 -0.746176,-1.7402 -1.116604,-2.65091 -0.365715,-0.899123 -0.613036,-1.952506 -0.917308,-2.872047 -0.280287,-0.847056 -0.630989,-3.860786 -0.99375,-4.437749 -0.683152,-1.086537 -2.162275,-3.018558 -3.768879,-2.073498 -1.807308,1.063123 -2.60375,3.942999 -3.449459,5.588479"
       id="path15894" />
    <path
       style="fill:#ff6c95;fill-opacity:1"
       d="m 140.40814,40.709625 c 0.23022,-3.890135 2.30372,-5.974793 4.76809,-8.389543 0.77704,-0.761395 1.73444,-1.214691 2.53488,-1.935629 1.09862,-0.989503 2.27708,-1.991495 3.31296,-3.048137 0.77418,-0.789694 1.40158,-1.722546 2.32057,-2.364251 0.98456,-0.687495 2.12659,-1.204332 3.17099,-1.80049 0.30076,-0.171679 3.32034,-1.620157 3.39759,-1.546592 0.7838,0.746483 0.67126,4.074352 0.63065,5.035638 -0.15871,3.756102 -1.47682,8.370813 -3.20376,11.74891 -0.71463,1.397905 -1.71745,2.720661 -2.30009,4.178391 -0.34186,0.855322 -0.43191,1.776616 -0.79855,2.630434 -0.15514,0.361288 -3.37458,4.669221 -3.8344,4.503271 -1.20464,-0.434755 -2.04691,-1.941551 -3.04677,-2.67002 -1.0371,-0.755598 -2.33662,-1.194469 -3.34026,-1.995691 -1.0941,-0.873442 -2.77437,-3.262483 -3.6119,-4.346291 z"
       id="path16622" />
    <path
       style="fill:#ff6c95;fill-opacity:1"
       d="m 54.517017,44.146799 c -2.542244,-3.07764 -3.58524,-6.008321 -4.126519,-9.75322 -0.08323,-0.575805 0.02142,-1.165101 -0.122854,-1.734967 -0.655534,-2.589359 -0.636323,-4.982045 -0.578778,-7.648326 0.01053,-0.487739 -0.219215,-0.693726 -0.233422,-1.085208 -0.09108,-2.509648 -0.869624,-9.809198 2.208637,-10.792016 0.692278,-0.221029 1.490468,1.234984 1.911058,1.572527 0.547909,0.439724 1.655378,0.593997 2.084418,1.149365 0.725191,0.93872 1.149528,2.232835 1.703571,3.281559 0.807865,1.529174 1.510107,3.104587 2.383362,4.581079 0.523259,0.884721 1.331108,1.632882 1.871472,2.559452 0.530818,0.910203 0.730828,1.939314 1.34593,2.814715 1.857642,2.643759 4.266657,4.380127 4.086934,7.842162 -0.01637,0.315326 0.15872,0.652671 0.03822,0.962354 -0.525452,1.350412 -2.89298,1.579474 -4.009126,2.16359 -2.838074,1.485259 -5.409575,3.417486 -8.562904,4.086934 z"
       id="path29287" />
    <path
       style="fill:#ff6c95;fill-opacity:1"
       d="m 98.927269,112.05897 c 0.587379,0.1788 1.756901,0.48896 2.502121,0.79854 0.57962,0.2408 1.20339,0.29196 1.82506,0.47504 1.22565,0.36095 2.27165,2.48504 1.07838,3.26108 -1.08235,0.70391 -2.53886,-0.22249 -3.65831,-0.27847 -0.46625,-0.0233 -1.30833,0.24932 -1.702205,0.11057 -0.663921,-0.23388 -3.443982,-1.03831 -3.560027,-1.84007 -0.112105,-0.77454 0.82783,-1.3392 1.273583,-1.80595"
       id="path29289" />
  </g>
  <g
     inkscape:groupmode="layer"
     id="layer4"
     inkscape:label="Layer 4">
    <path
       style="fill:#000000"
       id="path365"
       d="m 46.794478,47.621331 c -0.890751,1.563208 -1.627293,3.197953 -2.551451,4.743431 -1.291729,2.18838 -2.333852,4.542891 -3.121318,6.958137 -0.79082,2.951343 -1.648045,5.88736 -2.109902,8.910994 -0.367308,2.870409 -0.358201,5.770017 -0.42707,8.658126 -0.04332,2.44262 -0.174004,4.881865 -0.355509,7.317716 -0.182919,2.467484 -0.364403,4.93471 -0.388896,7.409386 -0.07342,2.334409 0.141909,4.658552 0.312772,6.983129 0.16474,2.13404 0.08058,4.27496 0.02588,6.41142 -0.03164,1.72168 0.02683,3.44306 0.04365,5.16455 0.02031,1.71348 -0.09237,3.42428 -0.181048,5.13448 -0.07324,1.77175 -0.02765,3.5456 0.05204,5.31619 0.104738,1.38515 0.156238,2.76926 0.04578,4.15482 -0.09544,1.01523 -0.375321,1.99561 -0.641601,2.97536 -0.366172,1.16963 -0.426669,2.38023 -0.416008,3.59568 -0.0293,1.48735 0.343084,2.92323 0.868874,4.3015 0.582153,1.39452 1.536867,2.55835 2.552576,3.65611 0.86441,0.85676 1.736479,1.70715 2.632331,2.53119 0.835111,0.73721 1.65997,1.48584 2.483981,2.23541 1.020239,0.95224 2.129017,1.80093 3.237619,2.64601 1.170197,0.87404 2.288065,1.81434 3.425196,2.73014 2.233773,1.85862 4.848074,3.1271 7.360529,4.57376 0.952631,0.48205 1.916407,0.94168 2.868827,1.42406 1.078686,0.5631 2.171197,1.09874 3.260907,1.64 1.200861,0.61712 2.502291,0.98888 3.753906,1.48196 1.083322,0.45816 2.161798,0.92609 3.211673,1.45691 0.991236,0.4905 2.025398,0.87125 2.994159,1.40753 0.178728,0.10526 0.716092,0.419 0.536183,0.31577 -1.380152,-0.79188 -2.756917,-1.58966 -4.136943,-2.38177 -0.195859,-0.11242 0.388576,0.23025 0.584419,0.3427 2.354288,1.35174 4.265397,2.65123 6.633937,3.63711 1.289108,0.51439 2.656994,0.76041 4.024827,0.95177 1.053499,0.16375 2.111271,0.24144 3.176282,0.25754 1.140045,0.059 2.279354,0.0162 3.419068,-0.0166 1.329217,0.0201 2.656874,0.10471 3.977734,0.25308 1.459039,0.21866 2.913188,0.45721 4.377223,0.64204 1.332317,0.16404 2.672095,0.24873 4.011475,0.3283 1.36754,0.0806 2.73766,0.0813 4.1069,0.1031 1.53858,0.008 3.07824,0.0242 4.61613,-0.0289 1.16067,-0.0511 2.31879,-0.14919 3.46859,-0.31577 1.01715,-0.19329 2.0207,-0.46016 3.01641,-0.74292 1.03681,-0.31529 2.11257,-0.45918 3.17524,-0.65659 1.20582,-0.32454 2.40877,-0.13743 3.61659,0.0461 1.52598,0.25543 3.04122,0.0678 4.5207,-0.33217 1.40386,-0.40779 2.66293,-1.1339 3.90797,-1.87777 1.61959,-0.96694 3.29424,-1.838 4.99073,-2.66106 1.68372,-0.79774 3.38287,-1.5608 5.0645,-2.36334 1.3709,-0.67338 2.77796,-1.26751 4.19728,-1.83007 1.46982,-0.54101 2.8974,-1.17984 4.30446,-1.86542 1.49465,-0.71149 2.89974,-1.5789 4.26083,-2.51624 1.25854,-0.89686 2.47152,-1.85422 3.68359,-2.81216 1.02911,-0.85015 2.10774,-1.62946 3.2263,-2.35634 0.99035,-0.61987 1.97034,-1.25497 2.90765,-1.95291 0.87465,-0.606 1.52534,-1.39547 2.00558,-2.33549 0.46962,-1.02395 0.46024,-2.08174 0.292,-3.16921 -0.38639,-1.4481 -0.84363,-2.87534 -1.20956,-4.3296 -0.31287,-1.44173 -0.46064,-2.91169 -0.69601,-4.36711 -0.27815,-1.30196 -0.39105,-2.61293 -0.33881,-3.94089 0.14512,-1.31827 0.35354,-2.62838 0.50568,-3.94624 0.17085,-1.2899 0.32122,-2.58073 0.41863,-3.87822 0.0541,-1.17253 0.24721,-2.32886 0.42656,-3.48644 0.18813,-1.25581 0.36594,-2.51175 0.41425,-3.78165 -0.0499,-1.72305 -0.0252,-3.44608 -0.007,-5.16966 -0.0144,-1.14733 0.14122,-2.28637 0.18663,-3.43103 0.019,-1.01249 -0.18002,-2.009274 -0.35244,-3.001825 -0.24379,-1.512145 -0.48629,-3.02468 -0.7215,-4.538202 -0.19386,-1.317214 -0.20595,-2.649828 -0.27831,-3.976586 -0.10692,-1.063373 -0.1643,-2.127036 -0.12751,-3.195264 0.11488,-1.108305 0.18078,-2.216326 0.21823,-3.32961 0.092,-1.165797 0.0626,-2.333859 0.0168,-3.500729 -0.0244,-0.966359 -0.0672,-1.932519 -0.0667,-2.899291 0.0678,-0.990527 0.14271,-1.973132 0.0866,-2.96598 -0.0752,-0.781188 -0.14471,-1.564966 -0.28047,-2.338379 -0.20065,-0.842327 -0.27904,-1.704656 -0.49581,-2.543074 -0.43363,-1.162698 -0.95379,-2.292003 -1.41398,-3.4456 -0.43835,-1.103725 -0.64622,-2.276489 -1.02971,-3.39714 -0.30973,-0.591405 -0.58096,-1.191905 -0.82293,-1.815222 -0.23713,-0.547391 -0.53824,-1.066652 -0.85645,-1.5705 -0.50926,-0.728996 -1.02166,-1.454729 -1.6144,-2.118503 -1.15194,-1.414941 -3.0047,-1.959257 -4.20229,-3.314509 0,0 -0.13916,-0.05907 -0.13916,-0.05907 v 0 c 0.12958,0.163598 0.38382,0.282151 0.38875,0.490794 0.0125,0.529351 -1.58623,-0.42329 -0.65702,0.89326 0.37814,0.696672 0.86559,1.321094 1.32798,1.963054 0.32054,0.463818 0.58771,0.956702 0.84636,1.457311 0.25424,0.556889 0.41754,1.145122 0.64868,1.710159 0.45436,1.110795 0.69471,2.286375 1.07887,3.421293 0.40301,1.13462 0.8495,2.2522 1.32715,3.357516 0.26652,0.808907 0.32906,1.647485 0.48191,2.481809 0.17099,0.75477 0.22612,1.520774 0.32324,2.28723 0.11026,0.97704 0.0795,1.95318 -0.0333,2.929813 -0.0292,0.979905 0.0311,1.958648 0.0754,2.937428 0.042,1.151972 0.11389,2.306559 0.005,3.457649 -0.0697,1.108506 -0.0837,2.220448 -0.23105,3.323182 -0.0663,1.086327 -0.0512,2.171142 0.0877,3.252518 0.12688,1.344581 0.15699,2.696182 0.31134,4.038334 0.21133,1.510178 0.54258,3.00212 0.68444,4.522568 0.12479,0.96332 0.30794,1.921035 0.34608,2.893416 0.011,1.16493 -0.11701,2.32444 -0.10195,3.4897 0.0481,1.71051 0.064,3.42114 -0.0128,5.1312 -0.0413,1.2478 -0.17292,2.48479 -0.39917,3.71371 -0.18468,1.17409 -0.38066,2.34842 -0.42711,3.5385 -0.0907,1.29191 -0.20301,2.58158 -0.3876,3.86404 -0.16805,1.32527 -0.35802,2.6467 -0.53148,3.97101 -0.10926,1.36291 -0.0174,2.71169 0.2785,4.04993 0.24255,1.47295 0.40914,2.95789 0.70249,4.42188 0.35471,1.43091 0.76367,2.84623 1.16745,4.2637 0.18584,0.95755 0.24095,1.9103 -0.16524,2.82526 -0.4331,0.86574 -1.05333,1.55762 -1.84398,2.12303 -0.93565,0.6842 -1.91662,1.29976 -2.88846,1.93071 -1.11301,0.74969 -2.17131,1.57268 -3.20407,2.42933 -1.19307,0.95827 -2.3916,1.91163 -3.64522,2.79033 -1.33977,0.92296 -2.73532,1.75668 -4.20915,2.45016 -1.40489,0.68503 -2.85873,1.24903 -4.31817,1.8061 -1.42303,0.56918 -2.83014,1.17607 -4.19279,1.88004 -1.66921,0.81067 -3.36632,1.5629 -5.02373,2.39829 -1.70101,0.86377 -3.42217,1.69294 -5.06784,2.66053 -1.20826,0.71226 -2.44302,1.39254 -3.81025,1.75102 -1.44884,0.3486 -2.91039,0.43175 -4.38497,0.15859 -1.26196,-0.17263 -2.50606,-0.23989 -3.75633,0.0755 -1.07657,0.18857 -2.15412,0.37417 -3.20068,0.698 -0.99099,0.25609 -1.98468,0.51127 -2.99631,0.67295 -1.11662,0.15868 -2.24142,0.25134 -3.36754,0.31088 -1.53639,0.0416 -3.07359,0.0415 -4.61007,7.1e-4 -1.36539,-0.0235 -2.731617,-0.0359 -4.09475,-0.12628 -1.331352,-0.0886 -2.662527,-0.18966 -3.987176,-0.35262 -1.458629,-0.17884 -2.903435,-0.44522 -4.362479,-0.61991 -1.345943,-0.14012 -2.699254,-0.23149 -4.053233,-0.21537 -1.139623,0.0285 -2.278195,0.0232 -3.417541,-0.0195 -1.04461,-0.0403 -2.08212,-0.15163 -3.117505,-0.29541 -1.329263,-0.1985 -2.648917,-0.48438 -3.883813,-1.03196 -0.425774,-0.1958 -1.667587,-0.85358 -1.264391,-0.61473 9.297893,5.50808 0.403462,0.0933 -2.30893,-1.31337 -0.980869,-0.48711 -2.006597,-0.87433 -2.980202,-1.37745 -1.046726,-0.49798 -2.116363,-0.94731 -3.192572,-1.37742 -1.255219,-0.45984 -2.527873,-0.88369 -3.711151,-1.51604 -1.092058,-0.54474 -2.183774,-1.09008 -3.26897,-1.6484 -0.944794,-0.46879 -1.898472,-0.92079 -2.82743,-1.42066 8.213247,4.76343 3.371684,2.12045 1.665283,0.74408 -1.165074,-0.92114 -2.304197,-1.87498 -3.490416,-2.7692 -1.113707,-0.8451 -2.236856,-1.68129 -3.277591,-2.61686 -0.858798,-0.76255 -1.709033,-1.53499 -2.584345,-2.27868 -0.947622,-0.81814 -1.83793,-1.69851 -2.75954,-2.54547 -1.077779,-1.05465 -2.095878,-2.18691 -2.770452,-3.55021 -0.587783,-1.34203 -0.960022,-2.75896 -1.099433,-4.22053 -0.02519,-1.16957 0.0545,-2.33197 0.400806,-3.45747 0.278826,-1.01076 0.558955,-2.02758 0.640797,-3.07748 0.08974,-1.4106 0.04242,-2.82205 -0.06708,-4.23084 -0.1199,-1.75673 -0.173871,-3.51833 -0.08408,-5.27826 0.0856,-1.71879 0.20975,-3.43723 0.197013,-5.15929 -0.03299,-1.72394 -0.110617,-3.44739 -0.09182,-5.17204 0.02895,-2.15961 0.104837,-4.32187 -0.06703,-6.47842 -0.173037,-2.330753 -0.383408,-4.659802 -0.405175,-6.998707 -0.07381,-2.505302 -0.177445,-5.007293 0.13068,-7.50404 0.166817,-2.452006 0.279718,-4.90667 0.311461,-7.364515 0.03206,-2.880919 0.02389,-5.770203 0.362491,-8.636008 0.410265,-3.039857 0.90216,-6.073363 1.784402,-9.018097 0.388205,-1.300227 0.731771,-2.624572 1.228969,-3.889215 0.280672,-0.713901 0.680452,-1.479955 0.95499,-2.196387 0.143154,-0.373573 0.254569,-0.758547 0.381854,-1.137821 0.540463,-1.735797 1.150504,-3.448725 1.826928,-5.135701 0,0 -1.857511,-1.062638 -1.857511,-1.062638 z" />
    <path
       style="fill:#000000"
       id="path369"
       d="m 158.02991,57.919287 c 1.92695,-1.748322 3.20515,-4.140107 4.58527,-6.322453 0.35439,-0.542317 0.70741,-1.08553 1.06317,-1.62695 1.00047,-1.522597 1.36269,-1.975822 2.22893,-3.635971 1.0906,-2.090129 1.95762,-4.293174 2.82061,-6.482919 1.58158,-3.898031 2.1725,-8.035362 2.5156,-12.195413 0.3299,-3.460849 0.0169,-6.910457 -0.50524,-10.331645 -0.38646,-2.208193 -0.85315,-4.226558 -2.34162,-5.945387 -0.7181,-1.021959 -1.86934,-1.715828 -2.8324,-2.4972356 0,0 -0.13645,-0.065108 -0.13645,-0.065108 v 0 c -0.32973,-0.00563 -0.65961,-0.028253 -0.9892,-0.016905 -0.94465,0.032526 -0.83554,-0.1357197 -0.64637,0.5212925 0.0243,0.6884171 0.35677,1.2077551 0.60382,1.8471401 0.29723,0.769269 0.49577,1.411163 0.70247,2.216809 0.11337,0.441835 0.20545,0.888857 0.30817,1.333286 0.61721,3.387514 0.95807,6.816399 0.68231,10.262408 -0.28076,4.121787 -0.80363,8.228191 -2.32561,12.104435 -1.58433,4.119573 -3.54628,8.069968 -5.28657,12.124462 -1.14517,2.215121 -2.31617,4.625282 -4.34833,6.16506 0,0 3.90144,2.545094 3.90144,2.545094 z" />
    <path
       style="fill:#000000"
       id="path371"
       d="m 133.77624,36.401635 c 0.14495,-0.157922 0.30596,-0.302493 0.43486,-0.473766 0.46006,-0.611261 0.84446,-1.276772 1.29896,-1.892173 1.165,-1.577423 2.44467,-3.049695 3.72891,-4.529866 3.34531,-4.339957 7.2641,-8.135963 11.32441,-11.791352 2.71773,-2.450501 5.48373,-4.868687 8.52627,-6.913847 1.46527,-0.9849408 2.53905,-1.5829328 4.05058,-2.4672464 0.75796,-0.7654026 3.97436,-1.6115559 4.54933,-2.4488824 0.20786,-0.3027 0.0289,-0.7359655 0.0915,-1.0977787 0.0421,-0.2434066 0.14735,-0.4715716 0.22102,-0.7073574 0,0 -0.12543,-0.084405 -0.12543,-0.084405 v 0 c -0.47214,-0.030497 -0.94506,-0.050645 -1.41642,-0.09149 -0.69169,-0.059938 -1.37994,-0.2644442 -2.07214,-0.2108106 -1.78374,0.1382091 -3.29675,1.616736 -4.84046,2.3201038 -4.41268,2.8088825 -8.47325,6.0968927 -12.33174,9.6261597 -4.0778,3.671995 -7.9869,7.515088 -11.46941,11.767273 -1.40652,1.717086 -1.31518,1.624338 -2.68974,3.234462 -0.85274,0.99888 -1.84231,2.000565 -2.54279,3.12292 -0.11305,0.181135 -0.17574,0.389197 -0.26362,0.583795 0,0 3.52593,2.054262 3.52593,2.054262 z" />
    <path
       style="fill:#000000"
       id="path377"
       d="M 48.978346,49.472206 C 48.685267,47.954157 48.00355,46.535216 47.467749,45.090455 46.241944,42.187086 45.291612,39.18184 44.463881,36.144343 43.485589,32.643851 43.19774,29.029056 43.0435,25.415141 42.892482,21.72257 43.226342,18.049245 43.888288,14.42074 c 0.48536,-2.574315 1.298452,-5.0661784 2.285181,-7.4876248 0.349589,-0.8106707 0.671494,-1.6329496 1.032917,-2.4384712 0.07097,-0.1451617 0.115263,-0.3226298 0.268205,-0.3936044 0.0056,0.088859 0.04895,0.087993 0.126069,0.1079552 0.06642,-0.027432 0.10494,-0.010803 0.164311,0.013659 0.405967,0.00318 0.809705,0.031892 1.214228,0.073134 1.62262,0.045996 3.196355,0.3228282 4.755773,0.7618019 1.078119,0.3412795 2.117783,0.7908629 3.116139,1.3207557 0.343919,0.1825404 1.35563,0.766738 1.016577,0.5753118 -3.368505,-1.9018227 -4.022831,-2.3482641 -2.018584,-1.062858 2.171379,1.3389208 4.181161,2.8962085 6.084417,4.5892848 2.081146,1.875322 3.890257,4.008715 5.505831,6.290296 1.531279,2.23491 2.542828,4.745242 3.394371,7.300536 0.350532,0.818836 0.324028,1.945689 1.013384,2.607531 1.76199,1.303829 1.13473,0.690362 2.040272,1.662971 0,0 0.135721,0.0666 0.135721,0.0666 v 0 c 0.122794,-0.03411 0.241069,-0.108077 0.368383,-0.102328 0.435059,0.01965 0.875819,0.297621 1.294405,0.177418 0.306006,-0.08788 -0.496091,-2.13453 -0.564158,-2.401079 -0.890585,-2.583224 -1.892424,-5.146531 -3.394914,-7.44516 C 70.151087,16.317813 68.340745,14.172012 66.28663,12.258228 64.419954,10.534007 62.441021,8.9465851 60.271398,7.614084 57.019187,5.4920581 53.669654,3.3375124 49.945618,2.148662 48.313707,1.7256049 46.662088,1.4619984 44.980882,1.3300442 44.55215,1.2886835 44.122313,1.2610597 43.693691,1.2209213 c -0.0637,0.010526 -0.124555,0.03687 -0.188309,0.021592 -0.131379,0.03232 -0.236242,0.074158 -0.317676,0.1928363 -0.149677,0.1899337 -0.254635,0.3981893 -0.322276,0.6317769 -0.310034,0.8433724 -0.581875,1.6999461 -0.861803,2.5536155 -0.823004,2.5214447 -1.639857,5.0525124 -2.133972,7.66358 -0.62146,3.676658 -0.9981,7.383881 -0.810366,11.119383 0.115655,3.647269 0.331088,7.305133 1.378797,10.826172 0.880342,3.05412 1.832829,6.09659 3.053106,9.034159 0.791254,1.625935 1.558627,3.268893 2.493441,4.819007 0,0 2.993713,1.389163 2.993713,1.389163 z" />
    <path
       style="fill:#000000"
       id="path381"
       d="m 74.460558,30.828134 c 1.0204,-1.026999 2.123051,-1.969639 3.392306,-2.691808 2.02865,-1.023269 4.01339,-2.132542 6.027529,-3.186488 2.006971,-0.969306 4.089946,-1.698086 6.282489,-2.088225 1.901855,-0.296122 3.825271,-0.3545 5.746187,-0.347586 1.435387,0.0088 2.870072,0.02042 4.301741,0.129781 1.28219,0.105446 2.55766,0.26899 3.83067,0.452123 1.46151,0.189827 2.93253,0.280287 4.39535,0.459503 1.72807,0.215427 3.42552,0.608941 5.0918,1.107908 1.89437,0.666572 3.75763,1.418757 5.6244,2.158355 2.11201,0.832543 4.27137,1.53581 6.42976,2.23638 2.07306,0.642386 4.1126,1.377138 6.10145,2.245383 0.23918,1.75e-4 2.91935,1.696452 2.83182,1.060564 -0.0282,-0.20492 -0.16707,-0.378472 -0.2506,-0.567707 0,0 -0.1202,-0.09169 -0.1202,-0.09169 v 0 c -1.96222,-1.09602 -3.86499,-2.304419 -5.95182,-3.160208 -1.99367,-0.840331 -4.03372,-1.5548 -6.10066,-2.193985 -2.16497,-0.708585 -4.32942,-1.424387 -6.44153,-2.28092 -1.87647,-0.746363 -3.75056,-1.506849 -5.6689,-2.140046 -1.69396,-0.48312 -3.41508,-0.864636 -5.16645,-1.071954 -1.47698,-0.176298 -2.96084,-0.289285 -4.43386,-0.498574 -1.273191,-0.171897 -2.549893,-0.316874 -3.831361,-0.412006 -1.422803,-0.08225 -2.847606,-0.08269 -4.272403,-0.06545 -1.917246,0.04467 -3.840559,0.12966 -5.733785,0.456322 -2.14789,0.45631 -4.205013,1.180552 -6.053693,2.394854 -1.952106,1.064145 -3.981405,2.029751 -5.691566,3.472688 -1.056987,1.048619 -2.012186,1.893879 -2.654243,3.253375 0,0 2.315569,1.369415 2.315569,1.369415 z" />
    <path
       style="fill:#000000"
       id="path383"
       d="m 78.290097,71.389468 c -0.202263,0.09183 -0.427709,0.144055 -0.606789,0.275481 -1.361813,0.999424 -2.405283,4.324473 -2.981431,5.862802 -1.297805,3.619837 -1.577177,7.458046 -1.678352,11.268711 -0.06516,3.303706 0.363017,6.558597 1.575578,9.635869 0.495906,0.959629 1.125342,1.909639 2.084837,2.470569 3.177697,1.8577 3.856595,3.05766 6.709829,2.67475 2.166593,-0.68217 3.783382,-2.19836 5.117381,-3.97492 1.677106,-2.563023 2.282623,-5.527265 2.604311,-8.522152 0.33612,-2.972573 -0.04192,-5.888449 -0.70943,-8.779533 -0.595645,-2.46939 -1.349898,-4.903766 -2.709088,-7.063981 -1.211301,-1.33176 -3.052378,-2.139604 -4.708548,-2.680419 -0.228352,-0.07457 0.3454,0.391175 0.347415,0.631385 0.001,0.121188 -0.227374,0.08397 -0.341061,0.125954 0,0 0.123788,0.08679 0.123788,0.08679 v 0 c 0.162943,-0.0051 0.334893,-0.06898 0.488828,-0.01531 0.451704,0.157483 1.693956,0.88631 1.287219,0.634511 -4.76674,-2.950952 -2.499733,-1.515107 -1.664011,-0.73162 1.52132,2.067098 2.338584,4.494784 2.936314,6.974009 0.680264,2.871911 1.293026,5.762638 0.964498,8.734579 -0.308699,2.911967 -0.860698,5.802067 -2.571945,8.253857 -1.311899,1.6598 -2.857268,3.13623 -4.998436,3.59145 -2.220612,0.0699 -3.432241,-1.179338 1.486515,1.78493 0.284887,0.17168 -0.57748,-0.33516 -0.837253,-0.5429 -0.810452,-0.6481 -0.851322,-0.85906 -1.436028,-1.73062 -1.362781,-3.022106 -1.883177,-6.266517 -1.882885,-9.577115 0.04399,-3.767755 0.351081,-7.554322 1.613463,-11.135849 0.534628,-1.421877 1.079607,-2.823847 1.784543,-4.172354 0.222091,-0.42485 0.714224,-1.194722 0.89296,-1.691658 0.06261,-0.174083 0.07253,-0.362824 0.108793,-0.544237 0,0 -3.001015,-1.842979 -3.001015,-1.842979 z" />
    <path
       style="fill:#000000"
       id="path387"
       d="m 113.80892,71.600763 c -1.54932,1.352126 -2.31399,3.380904 -2.94311,5.286036 -0.65338,2.425963 -0.87574,4.932966 -0.90861,7.43644 0.0255,2.335318 0.23422,4.6638 0.50097,6.9824 0.19934,1.767507 0.61118,3.486664 1.35674,5.101825 1.28299,2.222177 3.86764,4.116866 6.42635,4.340176 1.03142,-0.0158 1.9482,-0.43618 2.82876,-0.931913 0.95199,-0.587807 1.78345,-1.330357 2.54069,-2.148323 0.87295,-0.967809 1.39452,-2.137387 1.83248,-3.347352 0.47978,-1.342442 0.73033,-2.735056 0.87578,-4.147677 0.1111,-1.280997 0.13598,-2.567127 0.17824,-3.851629 0.10492,-1.22831 0.0777,-2.451659 -0.0629,-3.6747 -0.16339,-1.306357 -0.34864,-2.608452 -0.62023,-3.896973 -0.14765,-0.767543 -0.38872,-1.501971 -0.76346,-2.187167 -0.31028,-0.501269 -0.46107,-1.068533 -0.79129,-1.556029 -1.50099,-0.961884 -0.73473,-0.493977 -2.2997,-1.402216 0,0 -0.19931,-0.08487 -0.19931,-0.08487 v 0 c -1.04933,-0.257548 -0.51713,-0.127971 -1.59664,-0.388565 0.0577,0.525011 0.36546,1.027922 0.56768,1.51053 0.40418,0.65251 0.74517,1.324919 0.89009,2.08907 0.31181,1.272389 0.54415,2.560998 0.67372,3.865631 0.1339,1.203259 0.2026,2.406705 0.0951,3.616381 -0.0386,1.279112 -0.0219,2.561117 -0.13813,3.83685 -0.13445,1.37367 -0.35221,2.738722 -0.83512,4.039164 -0.42267,1.148165 -0.91655,2.265688 -1.76334,3.172672 -0.73235,0.773568 -1.53566,1.484729 -2.4597,2.023743 -0.82735,0.432365 -1.70398,0.793172 -2.65782,0.671919 -1.74936,-0.484435 -0.53455,-0.188658 3.09211,1.974776 0.14942,0.08914 -0.30951,-0.161376 -0.45146,-0.261984 -0.50879,-0.360601 -0.87835,-0.860183 -1.20801,-1.381033 -0.83224,-1.557886 -1.2835,-3.246121 -1.49701,-4.998924 -0.30331,-2.303083 -0.52156,-4.619215 -0.55314,-6.943635 0.004,-2.468927 0.13065,-4.950126 0.81331,-7.339084 0.56579,-1.928694 1.26947,-3.701684 2.66496,-5.191812 0,0 -3.58803,-2.213726 -3.58803,-2.213726 z" />
    <path
       style="fill:#000000"
       id="path389"
       d="m 88.552954,124.00979 c -1.608262,1.12397 -2.243641,2.05394 -2.757058,3.95212 -0.561789,2.4955 -0.257702,4.98999 0.313056,7.44558 1.271286,3.84745 4.131625,4.75243 7.585687,6.65071 2.054669,0.66467 3.888334,0.0982 5.589809,-1.10114 1.441632,-1.1671 2.285252,-2.79446 2.996722,-4.46692 0.13276,-0.29521 0.23241,-0.60425 0.36154,-0.90097 0.033,-0.0758 0.062,-0.15495 0.10974,-0.22249 0.0116,-0.0164 0.0763,-0.007 0.0582,-0.0153 -3.846438,-1.82858 -3.937778,-3.05839 -3.63665,-1.29854 0.260479,1.72605 0.731104,3.34989 1.60749,4.86223 1.84512,2.07274 5.30361,4.72258 8.11969,3.68525 0.35824,-0.13196 0.67649,-0.35408 1.01474,-0.53113 2.2905,-1.8011 3.15129,-4.62637 3.68506,-7.3785 0.0753,-1.02929 0.46443,-3.8982 0.0341,-4.84435 -0.37276,-0.81951 -1.31346,-1.58856 -1.93048,-2.17599 -0.11785,-0.16988 -0.23571,-0.33977 -0.35356,-0.50965 0,0 -0.13666,-0.0647 -0.13666,-0.0647 v 0 c -0.0382,0.0934 -0.0764,0.18675 -0.11462,0.28012 -0.33992,0.0202 -1.3187,-0.0574 -1.5574,0.42823 -0.13136,0.26726 0.009,0.59568 0.0258,0.89303 0.0709,1.28004 0.2013,2.55869 -0.0194,3.83676 -0.44115,2.65878 -1.1145,5.37596 -3.38631,7.078 -0.73339,0.39404 -0.9247,0.61861 -1.77829,0.61597 -0.31477,-9.8e-4 -1.16899,-0.36042 -0.93173,-0.15357 0.83352,0.7267 1.86817,1.1838 2.79869,1.78128 0.27227,0.17482 -0.57055,-0.31199 -0.82388,-0.51329 -0.24611,-0.19557 -0.44291,-0.44621 -0.66437,-0.66931 -0.93879,-1.42266 -1.4255,-2.96823 -1.57345,-4.66883 -0.4026,-1.94059 -0.009,-0.63736 -3.992744,-2.82451 -0.04055,-0.0223 -0.184916,0.50528 -0.272851,0.81629 -0.05057,0.17884 -0.104692,0.35666 -0.157039,0.53498 -0.587864,1.64917 -1.394183,3.20409 -2.802791,4.30551 -1.662479,1.10291 -3.408837,1.53646 -5.336573,0.78481 0.800855,0.49792 1.60117,0.9967 2.402566,1.49374 0.301522,0.18702 -0.617896,-0.35236 -0.902945,-0.56364 -1.210218,-0.89699 -2.044546,-2.13832 -2.602201,-3.52276 -0.814907,-2.37816 -1.092147,-4.8454 -0.524644,-7.32411 0.422185,-1.49864 0.837466,-3.0499 1.997736,-4.16048 0,0 -2.44494,-1.5345 -2.44494,-1.5345 z" />
    <path
       style="fill:#000000"
       id="path397"
       d="m 96.903587,114.53475 c -0.900113,0.033 -1.724136,-0.14526 -2.494587,-0.60724 8.4511,4.57563 3.307466,2.90811 3.256543,1.20624 0.09546,-0.53981 0.62077,-0.78511 1.062006,-1.01806 0.664622,-0.33924 1.368111,-0.36335 2.095181,-0.32196 0.6904,0.0611 1.35636,0.26578 2.01026,0.48533 0.60306,0.21188 1.18589,0.47554 1.78802,0.68972 -0.56183,-0.49928 1.61798,0.79355 0.9968,0.43811 -3.97956,-2.27709 -5.45225,-3.1728 -3.90375,-2.23325 0.34566,0.21996 0.479,0.56978 0.46921,0.96567 -0.0463,0.31765 -0.24527,0.54577 -0.50631,0.71424 -0.30724,0.17456 -0.64203,0.29989 -0.96839,0.43532 -0.37311,0.15047 -0.753557,0.28603 -1.148663,0.36448 -0.455125,0.0405 -0.83919,-0.22403 -1.210043,-0.45009 -0.249619,-0.18608 -0.54632,-0.27056 -0.826191,-0.39196 -8.1e-5,0.006 -1.62e-4,0.0125 -2.42e-4,0.0187 0.06136,0.0504 0.122728,0.1009 0.184092,0.15135 0,0 3.112047,2.4721 3.112047,2.4721 v 0 c 0.29917,0.21317 0.17062,0.13289 0.37669,0.25461 0.26925,0.10815 0.50765,0.27969 0.76764,0.40703 0.49724,0.23984 0.99949,0.38247 1.55832,0.32038 0.45782,-0.0629 0.88972,-0.19372 1.30989,-0.38795 0.37136,-0.14863 0.75765,-0.26945 1.07579,-0.52232 0.3347,-0.28595 0.59613,-0.6239 0.70977,-1.05759 0.0916,-0.4843 0.057,-1.00193 -0.22451,-1.42105 -1.56855,-1.53931 -3.68716,-2.44159 -5.73779,-3.1811 -0.59416,-0.23194 -1.185487,-0.47379 -1.796029,-0.66032 -0.676243,-0.19317 -1.363576,-0.35602 -2.072496,-0.34114 -0.740347,0.0466 -1.452984,0.27302 -2.113536,0.61003 -0.589427,0.34399 -1.105829,0.76112 -1.283624,1.45282 -0.257388,2.37189 3.35154,3.20071 4.753375,3.98919 0.831219,0.34382 1.713287,0.46081 2.611,0.37646 0,0 -3.850473,-2.75777 -3.850473,-2.75777 z" />
    <path
       style="fill:#000000"
       id="path399"
       d="m 140.95941,42.39259 c 1.19388,-2.584303 2.65241,-4.737292 4.47962,-6.928355 3.35581,-3.563817 7.10527,-6.725553 11.01972,-9.653601 1.63352,-0.969854 4.29449,-3.319853 6.28427,-3.434604 0.20146,-0.01162 0.39765,0.06894 0.59647,0.103409 -1.32776,-0.702005 -2.60712,-1.504424 -3.9833,-2.106015 -0.16308,-0.07129 0.20481,0.300292 0.24774,0.473028 0.0684,0.274991 0.0785,0.56293 0.0802,0.846283 0.008,1.445311 -0.33589,2.845244 -0.65008,4.244055 -1.37261,5.003078 -3.3619,9.780244 -5.68215,14.409002 -0.99261,2.0203 -2.26113,3.884531 -3.3779,5.833078 -0.28162,0.49137 -1.17107,1.995638 -1.13345,2.706147 0.0246,0.464641 0.33358,0.86874 0.50037,1.30311 0.17421,0.291849 0.34842,0.583698 0.52262,0.875547 0,0 0.17085,0.09997 0.17085,0.09997 v 0 c 0.3565,0.01475 0.71301,0.0295 1.06952,0.04424 0.46331,-0.06978 0.96966,-0.0022 1.38993,-0.209343 0.62331,-0.307182 1.54732,-1.833683 1.83192,-2.303797 1.16955,-1.931877 2.1518,-3.975787 3.21998,-5.962853 2.29036,-4.667663 4.44307,-9.449551 5.74368,-14.500043 0.41772,-1.660426 0.98418,-3.474524 0.89999,-5.212546 -0.0123,-0.254748 0.0923,-0.608394 -0.11544,-0.756383 -1.48111,-1.055199 -3.15956,-1.801569 -4.73935,-2.702353 -2.5587,0.370837 -4.5173,2.567335 -6.59423,3.904087 -3.85465,3.037393 -7.64225,6.194577 -11.01934,9.764572 -1.82975,2.150217 -3.77829,4.306969 -4.42772,7.130272 0,0 3.6661,2.03309 3.6661,2.03309 z" />
    <path
       style="fill:#000000"
       id="path401"
       d="m 52.900361,42.278728 c -1.987696,-1.174246 1.746102,1.04667 2.475154,1.219831 0.392132,0.09314 -0.488199,-0.64361 -0.693763,-0.990287 -0.985474,-1.661968 -1.499955,-3.472944 -2.043539,-5.310732 -1.436677,-5.35125 -1.896536,-10.883821 -1.803185,-16.405326 0.243412,-1.633938 0.08785,-5.235202 1.372907,-6.548665 0.107198,-0.109568 0.262328,-0.158654 0.393492,-0.237982 0.144961,0.0065 0.2963,-0.02355 0.434882,0.01947 0.182006,0.0565 0.669538,0.364414 0.50304,0.271695 -1.242757,-0.692063 -2.451648,-1.449684 -3.73185,-2.069746 -0.328822,-0.159264 0.590041,0.433293 0.860449,0.678992 0.986045,0.895941 1.395149,1.465187 2.2825,2.521173 2.368341,3.145225 4.727657,6.316611 6.754611,9.69768 1.347637,2.247931 1.847783,3.327008 3.020068,5.632369 1.214003,2.464888 2.729969,4.758392 4.199342,7.073517 0,0 0.136433,0.06513 0.136433,0.06513 v 0 c 0.14539,-0.422981 0.386049,-0.824489 0.436169,-1.268943 0.182887,-1.621775 -0.347787,-2.544867 -0.860624,-4.099528 -1.205432,-2.467813 -1.520064,-3.224401 -2.933223,-5.64073 -1.937222,-3.312412 -4.21353,-6.410451 -6.362377,-9.58459 -2.733373,-3.574267 -3.021976,-3.616551 -7.8697,-6.150055 -0.199679,-0.104355 -0.44583,-0.108747 -0.670167,-0.08791 -0.196439,0.01824 -0.370921,0.134543 -0.556381,0.201815 -0.149761,0.14313 -0.328859,0.26083 -0.449283,0.42939 -1.142291,1.598893 -0.759095,5.238593 -0.945893,7.064667 0.05967,5.592247 0.582149,11.162789 1.932203,16.605413 1.297383,4.742672 1.86629,7.587155 7.364271,9.376885 0,0 -3.245536,-2.463531 -3.245536,-2.463531 z" />
    <path
       style="fill:#000000"
       id="path405"
       d="m 68.926034,157.01212 c -1.362012,0.81077 -2.077286,2.33941 -3.149264,3.46397 -0.318916,0.33456 -0.678791,0.62752 -1.018187,0.94129 -1.976553,2.41469 -3.77319,4.97703 -5.558618,7.53563 -1.785417,2.53763 -3.379436,5.20004 -4.92032,7.89067 -1.402183,2.40588 -2.752054,4.84151 -4.130939,7.2607 -1.327774,2.20925 -2.466164,4.51704 -3.544264,6.85545 -1.030233,2.1319 -1.971239,4.30244 -2.863245,6.49511 -0.653707,1.56254 -1.240329,3.1469 -1.580423,4.80816 -0.145431,0.86197 -0.376482,1.84876 0.253449,2.56014 0.91883,0.50734 1.803822,1.08149 2.756488,1.52202 0.507407,0.23464 2.367455,-0.91992 2.780573,-1.16109 0.245645,-0.14602 0.478678,-0.31573 0.736936,-0.43807 0.641245,-0.30377 1.336908,-0.48117 1.981465,-0.77785 0.950696,-0.43759 1.871942,-0.97488 2.802834,-1.45397 1.617049,-0.81697 3.237188,-1.62665 4.792342,-2.55741 1.138472,-0.7362 2.28718,-1.45702 3.423451,-2.19664 0.446464,-0.30825 0.891199,-0.61894 1.342733,-0.91976 0.526084,-0.33643 2.810837,1.50469 -1.719042,-1.01824 0,0 0.126883,0.0822 0.126883,0.0822 v 0 c -2.044054,-1.55747 -1.05024,-1.5805 -1.595783,-1.0747 -0.387606,0.34578 -0.787031,0.67851 -1.214579,0.97449 -1.09056,0.76865 -2.190458,1.5245 -3.311213,2.24861 -1.515544,0.94257 -3.088885,1.78392 -4.672652,2.60578 -0.924087,0.47688 -1.914969,0.91202 -2.791989,1.47274 -1.5718,1.00493 -0.0057,0.13908 -1.434458,1.14187 -0.234456,0.16456 -0.497512,0.28404 -0.746267,0.42606 -0.604625,0.32246 -1.216073,0.68273 -1.886037,0.85696 -0.155489,0.0404 -0.315087,0.0718 -0.475629,0.078 -0.130094,0.005 -0.493878,-0.1206 -0.387983,-0.0449 0.679748,0.48614 1.428993,0.86691 2.14349,1.30036 -0.831141,-0.45999 -0.585674,-1.54291 -0.489146,-2.3372 0.299164,-1.6589 0.819177,-3.25704 1.463368,-4.81447 0.856654,-2.20478 1.773112,-4.38384 2.783951,-6.52307 1.085731,-2.32682 2.230864,-4.62351 3.533608,-6.83824 1.357468,-2.431 2.699257,-4.87075 4.063894,-7.29776 1.532423,-2.68807 3.140632,-5.33106 4.914356,-7.86846 1.780271,-2.55647 3.647259,-5.04772 5.464755,-7.57659 0.2082,-0.39092 0.385498,-0.79993 0.624602,-1.17275 0.834679,-1.30144 2.13147,-2.25191 2.880072,-3.59846 0,0 -1.379212,-0.8506 -1.379212,-0.8506 z" />
    <path
       style="fill:#000000"
       id="path407"
       d="m 60.400809,196.78565 c -0.115153,0.15287 -0.255499,0.28969 -0.345457,0.45862 -0.08157,0.15317 -0.5052,1.37474 -0.545367,1.47756 -0.359841,0.92111 -0.634542,1.78408 -0.859773,2.74998 -0.375876,1.65303 -0.604917,3.32913 -0.403853,5.01851 0.427778,2.21237 1.697417,2.38332 3.78143,3.5289 1.070119,0.15856 1.694579,-0.51434 2.359462,-1.24208 1.099087,-1.2836 2.000179,-2.71608 2.905979,-4.13763 1.151683,-1.70656 2.068841,-3.54151 2.931834,-5.40518 1.061579,-2.02685 1.639868,-4.27836 2.27825,-6.46784 0.488278,-1.75377 0.982194,-3.50585 1.547827,-5.23645 0.350218,-1.0656 0.79676,-2.09523 1.191889,-3.14405 0.288157,-0.90791 0.615851,-1.80053 0.96355,-2.68711 0.07874,-0.39792 0.982951,-2.21407 0.828296,-2.50146 -0.160488,-0.29823 -0.469134,-0.48857 -0.7037,-0.73285 -0.205172,-0.19141 -0.410344,-0.38281 -0.615515,-0.57422 0,0 -0.133245,-0.0714 -0.133245,-0.0714 v 0 c -0.235446,-0.0482 -0.470892,-0.0964 -0.706338,-0.1446 -0.288405,-0.0442 -0.581059,-0.19864 -0.865215,-0.13244 -0.03298,0.008 -0.771424,2.17902 -0.887267,2.43568 -0.359039,0.8842 -0.716904,1.76862 -0.998607,2.68142 -0.367743,1.06987 -0.756991,2.13248 -1.099771,3.21078 -0.534458,1.75228 -0.983381,3.52782 -1.454623,5.29781 -0.621859,2.20873 -1.378644,4.37562 -1.973766,6.5906 -0.750271,1.89886 -1.735259,3.68521 -2.866142,5.38533 -0.909141,1.39897 -1.823582,2.80881 -2.960328,4.03722 -0.518807,0.51285 -1.177036,1.29 -1.979833,1.08802 0.707456,0.42614 1.415933,0.85059 2.122367,1.27842 0.241096,0.14601 -0.286433,-0.0827 -0.581483,-0.43924 -0.33398,-0.40357 -0.489002,-0.91679 -0.628212,-1.41036 -0.28915,-1.66286 -0.08056,-3.33129 0.274576,-4.97206 0.218007,-0.94106 0.407202,-1.902 0.649186,-2.83597 0.13127,-0.50666 0.376783,-0.97955 0.502209,-1.48769 0.04805,-0.19466 0.04971,-0.39793 0.07456,-0.59689 0,0 -1.802921,-1.01931 -1.802921,-1.01931 z" />
    <path
       style="fill:#000000"
       id="path411"
       d="m 149.43921,189.30214 c 1.15078,1.71526 2.05384,3.57506 2.82739,5.48536 0.62368,1.72548 1.15264,3.56951 0.76154,5.40198 -0.31432,1.01553 -1.03412,1.43407 -2.03319,1.55014 -1.13747,0.15437 -2.16503,-0.0749 -3.1879,-0.55918 -2.0977,-1.24417 1.32687,0.79235 2.833,1.58875 0.21619,0.11432 -0.39896,-0.28371 -0.58738,-0.43961 -0.65255,-0.53991 -1.14083,-1.17964 -1.64104,-1.85626 -1.15773,-1.67249 -2.12025,-3.46421 -2.97931,-5.30457 -0.83044,-1.89149 -1.55706,-3.82668 -2.21252,-5.78509 -0.49101,-1.52695 -0.96687,-3.05871 -1.44916,-4.58843 -0.33392,-1.06663 -0.75167,-2.10331 -1.07268,-3.17398 -0.30942,-0.62823 -0.20777,-1.55705 -0.69205,-2.10336 -0.16065,-0.18124 -0.36299,-0.32072 -0.54448,-0.48108 -1.44982,-0.86443 -0.92484,-0.47059 -1.661,-1.05716 0,0 -0.29698,-0.13224 -0.29698,-0.13224 v 0 c -0.55062,0.12573 -0.10751,0.0534 -1.30278,-0.34191 -0.12288,0.0154 -0.27329,-0.0329 -0.36863,0.0461 -0.0732,0.0607 0.47017,1.77796 0.53319,2.01414 0.30882,1.09685 0.73555,2.14545 1.12584,3.21499 0.51205,1.5434 1.02338,3.08705 1.52959,4.63238 0.66973,1.97687 1.41078,3.92713 2.2344,5.84555 0.80871,1.85725 1.72006,3.66503 2.85543,5.34792 1.91946,2.81188 3.99381,3.95795 7.39523,5.49359 1.0891,0.40752 2.19513,0.5474 3.35088,0.34177 1.15052,-0.2716 1.85763,-0.94839 2.18219,-2.10799 0.37849,-2.00044 -0.32778,-3.93194 -0.99463,-5.80277 -0.81871,-1.98764 -1.70846,-3.96075 -3.02097,-5.67982 0,0 -3.58398,-1.54927 -3.58398,-1.54927 z" />
    <path
       style="fill:#000000"
       id="path413"
       d="m 75.0565,179.24866 c -1.497013,1.89011 -1.853564,4.44808 -2.315681,6.75015 -0.686608,3.7606 -1.012659,7.56917 -1.24244,11.38056 -0.186912,3.86759 -0.260049,7.73987 -0.333534,11.611 -0.04372,3.55621 -0.114883,7.1103 -0.285604,10.66279 -0.226707,3.43631 -0.388398,6.87606 -0.484235,10.3184 -0.08889,3.06685 -0.04245,6.13557 -0.03398,9.20322 0.01035,2.50472 -0.09767,5.00675 -0.214468,7.508 -0.107769,2.40191 -0.183,4.80517 -0.20902,7.20937 -0.0093,2.31194 0.102712,4.62288 0.31278,6.92475 0.169754,2.06775 0.582958,4.09451 1.282865,6.04574 0.552599,1.47876 1.52998,2.65806 2.82257,3.53994 4.747418,2.63943 4.99449,3.66805 8.886415,1.03992 2.165259,-1.63194 3.563124,-3.966 4.849524,-6.30121 1.63727,-3.14329 2.486322,-6.57387 3.096524,-10.03988 0.579703,-3.98483 1.153578,-7.96617 1.951279,-11.91413 0.79963,-3.87959 1.78825,-7.71534 2.79252,-11.54575 0.529283,-2.04875 1.041504,-4.1018 1.564962,-6.15202 0.09769,-0.38262 0.258835,-0.75511 0.289219,-1.14883 0.0274,-0.35506 -0.07909,-0.70782 -0.11863,-1.06173 -1.060403,-1.41212 -0.522787,-0.78996 -1.580394,-1.89404 0,0 -0.134413,-0.0692 -0.134413,-0.0692 v 0 c -1.120761,-0.0509 -0.508781,-0.0539 -1.835358,0.0471 -0.181163,0.23275 -0.42184,0.42956 -0.543489,0.69824 -0.163062,0.36016 -0.198508,0.7654 -0.292988,1.14929 -0.508234,2.06509 -0.943927,4.14704 -1.446683,6.21342 -0.945677,3.85951 -1.884002,7.72197 -2.73905,11.60259 -0.763318,3.96253 -1.336186,7.95399 -1.903111,11.94868 -0.624152,3.40879 -1.425986,6.80049 -3.081819,9.87807 -1.256412,2.2776 -2.653429,4.52562 -4.823917,6.04629 -0.986908,0.59777 -2.045401,1.24732 -3.249044,1.21219 -0.228712,-0.007 -0.863752,-0.24084 -0.677999,-0.10724 1.109083,0.79771 2.332078,1.42375 3.498117,2.13562 -1.384609,-0.72968 -2.405406,-1.88295 -3.065295,-3.30358 -0.812004,-1.91716 -1.317557,-3.92173 -1.490869,-6.00197 -0.211637,-2.2868 -0.304937,-4.58 -0.313899,-6.87667 -0.0061,-2.40451 0.03405,-4.80955 0.162368,-7.211 0.123927,-2.51227 0.263649,-5.02776 0.20287,-7.54397 -0.06249,-3.0775 -0.18173,-6.15518 -0.06451,-9.23338 0.103612,-3.44578 0.247565,-6.88972 0.438461,-10.33184 0.18223,-3.55852 0.300081,-7.12014 0.277958,-10.68394 0.0361,-3.87336 0.107726,-7.74635 0.28498,-11.61621 0.189585,-3.79638 0.464703,-7.59749 1.20709,-11.3327 0.451936,-2.37682 1.021294,-4.73231 1.425874,-7.11556 0,0 -2.865946,-1.64048 -2.865946,-1.64048 z" />
    <path
       style="fill:#000000"
       id="path415"
       d="m 136.34831,179.71248 c -0.0375,0.13712 -0.10171,0.26961 -0.11261,0.41135 -0.0904,1.1764 0.1312,2.45583 0.19925,3.62536 0.12778,2.19604 0.10085,1.8145 0.18681,4.12988 0.16635,5.02814 0.46698,10.05034 0.64139,15.07816 0.17893,4.48364 0.39799,8.96435 0.35441,13.45251 -0.0697,3.39626 -0.03,6.79313 -0.12763,10.18884 -0.11714,2.92967 -0.27139,5.85768 -0.39981,8.78681 -0.14522,3.03279 -0.1383,6.0685 -0.15096,9.10372 -0.0114,3.16981 0.0173,6.33784 -0.13841,9.50456 -0.0855,2.85416 -0.60755,5.63941 -1.47092,8.35264 -0.57825,1.91928 -1.73549,3.41558 -3.20363,4.73009 -1.32519,1.1691 -2.75957,2.1461 -4.3775,2.8527 -1.38379,0.61118 -2.72005,0.83514 -4.14455,0.2897 -2.56248,-1.5107 2.34162,1.38737 3.87943,2.14177 0.27782,0.13629 -0.47012,-0.40487 -0.67839,-0.63374 -0.81662,-0.8974 -1.31573,-1.94394 -1.82812,-3.02866 -1.19589,-2.95008 -1.9155,-6.06334 -2.70519,-9.13922 -0.88552,-3.31553 -1.59721,-6.67173 -2.18829,-10.05111 -0.61282,-3.41529 -0.86737,-6.8759 -1.06614,-10.33523 -0.19541,-3.24798 -0.0783,-6.49806 0.12083,-9.74173 -0.0554,-1.43833 0.49745,-3.09527 -0.022,-4.50389 -0.39467,-1.07014 -0.99273,-1.32168 -1.89446,-2.10228 -0.2218,-0.22984 -0.44361,-0.45968 -0.66541,-0.68952 0,0 -0.1362,-0.0656 -0.1362,-0.0656 v 0 c -0.16094,0.04 -0.32188,0.08 -0.48282,0.11995 -0.41588,-0.0481 -0.83352,-0.20557 -1.24764,-0.1442 -0.95954,0.14221 -0.61276,3.9843 -0.73154,4.7103 -0.15879,3.28001 -0.24193,6.5643 -0.0551,9.84593 0.17787,3.48189 0.40132,6.96817 1.04609,10.40111 0.59073,3.38285 1.22294,6.75916 2.13367,10.0736 0.78036,3.07843 1.51186,6.17843 2.56203,9.17896 1.8131,4.39342 3.47743,5.58683 8.76147,7.66732 1.53942,0.3318 2.95826,0.0209 4.37492,-0.65423 1.64249,-0.76837 3.08753,-1.8312 4.4458,-3.03009 1.54014,-1.40085 2.71497,-3.01601 3.29004,-5.04944 0.84076,-2.78703 1.33546,-5.64332 1.40262,-8.56104 0.099,-3.20239 0.0424,-6.40385 -0.0108,-9.60679 -0.0163,-3.03049 0.0446,-6.05982 0.14351,-9.0887 0.0454,-2.97349 0.10267,-5.94657 0.15075,-8.92003 0.0416,-3.44292 -0.0185,-6.88554 -0.10776,-10.3274 -0.14691,-4.5498 -0.38175,-9.09385 -0.68135,-13.63634 -0.28484,-5.05525 -0.56967,-10.11067 -0.82907,-15.16723 -0.16955,-5.30594 0.009,0.66927 -0.0976,-4.09129 -0.0271,-1.2138 0.0342,-2.59442 -0.34733,-3.77112 -0.0755,-0.23274 -0.21513,-0.43951 -0.3227,-0.65927 0,0 -3.46908,-1.64708 -3.46908,-1.64708 z" />
    <path
       style="fill:#000000"
       id="path417"
       d="m 94.190307,221.91887 c 2.044511,0.0979 4.081894,0.32482 6.112503,0.57635 2.48075,0.29633 4.968,0.52733 7.44231,0.87544 2.30052,0.39444 4.62399,0.5562 6.95227,0.66432 2.0792,0.0359 4.15882,-0.0971 6.2335,-0.22377 0.47208,-0.074 3.06792,-0.10771 3.22821,-0.65733 0.0448,-0.15375 -0.0613,-0.31441 -0.0919,-0.47162 -0.93208,-1.01347 -0.43531,-0.54651 -1.48744,-1.40394 0,0 -0.13246,-0.0729 -0.13246,-0.0729 v 0 c -1.21395,-0.57634 -0.56882,-0.27988 -1.93807,-0.88355 -0.24938,-0.058 -0.49411,-0.14204 -0.74815,-0.17395 -1.13926,-0.1431 -2.30195,0.44665 -3.4457,0.36393 -1.97787,0.18622 -3.95643,0.36698 -5.94572,0.36437 -2.27072,0.0119 -4.51319,-0.24568 -6.75668,-0.58645 -2.42504,-0.25921 -4.855435,-0.46591 -7.278554,-0.74404 -2.04849,-0.1908 -4.091774,-0.44644 -6.147263,-0.55404 0,0 4.003114,2.92713 4.003114,2.92713 z" />
    <path
       style="fill:#000000"
       id="path485"
       d="m 142.39559,155.54478 c 1.60748,1.53254 3.20948,3.06332 4.73861,4.67563 2.40909,2.67235 4.6361,5.50407 6.88253,8.31314 1.85755,2.2777 3.75569,4.51731 5.50135,6.88301 1.53976,2.20427 3.223,4.30157 4.82296,6.46098 1.45428,2.06577 2.73299,4.24912 3.97332,6.44796 1.11148,2.00225 1.97222,4.12953 2.68889,6.30091 0.37938,1.41276 0.71341,2.59307 -0.89709,3.18941 -2.08826,0.26905 -4.16878,-0.33225 -6.16852,-0.86638 -3.12597,-0.9293 -6.1121,-2.25982 -8.97438,-3.81087 4.14559,2.32274 0.60299,0.36139 -0.55181,-0.40202 -0.58818,-0.38883 -1.12752,-0.84692 -1.69128,-1.27038 0,0 -0.13995,-0.0572 -0.13995,-0.0572 v 0 c 2.21007,2.90222 -0.70394,0.91984 5.70974,4.40574 2.91089,1.53782 5.93574,2.87012 9.10443,3.7862 2.10824,0.55881 4.34469,1.24595 6.53014,0.7503 1.73148,-0.89167 1.62421,-2.11062 1.12645,-3.8233 -0.73548,-2.20163 -1.6094,-4.36131 -2.71443,-6.40574 -1.23796,-2.21757 -2.52958,-4.4101 -3.96778,-6.50473 -1.59214,-2.17587 -3.31738,-4.25191 -4.84781,-6.47385 -1.79913,-2.40372 -3.76179,-4.67117 -5.68084,-6.97877 -2.3202,-2.84234 -4.61547,-5.70597 -7.07944,-8.42704 -1.73408,-1.89941 -3.47086,-3.85546 -5.72541,-5.15394 0,0 -2.63968,-1.03908 -2.63968,-1.03908 z" />
  </g>
</svg>
