<?xml version="1.0" encoding="UTF-8" standalone="no"?>
<!-- Created with Inkscape (http://www.inkscape.org/) -->

<svg
   width="210px"
   height="297px"
   viewBox="0 0 210 297"
   version="1.1"
   id="svg5"
   xml:space="preserve"
   sodipodi:docname="yossel.svg"
   inkscape:version="1.2.2 (b0a8486541, 2022-12-01)"
   xmlns:inkscape="http://www.inkscape.org/namespaces/inkscape"
   xmlns:sodipodi="http://sodipodi.sourceforge.net/DTD/sodipodi-0.dtd"
   xmlns="http://www.w3.org/2000/svg"
   xmlns:svg="http://www.w3.org/2000/svg"><sodipodi:namedview
     id="namedview7"
     pagecolor="#ffffff"
     bordercolor="#000000"
     borderopacity="0.25"
     inkscape:showpageshadow="2"
     inkscape:pageopacity="0.0"
     inkscape:pagecheckerboard="0"
     inkscape:deskcolor="#d1d1d1"
     inkscape:document-units="mm"
     showgrid="false"
     inkscape:zoom="0.37593996"
     inkscape:cx="389.68989"
     inkscape:cy="561.25984"
     inkscape:window-width="1280"
     inkscape:window-height="651"
     inkscape:window-x="0"
     inkscape:window-y="0"
     inkscape:window-maximized="1"
     inkscape:current-layer="layer2" /><defs
     id="defs2" /><g
     inkscape:groupmode="layer"
     id="layer3"
     inkscape:label="Layer 3"
     style="display:inline;fill:#ffb380"><path
       style="fill:#ffb380;stroke-width:0.395995"
       d="m 37.672187,88.947588 c -1.561111,-4.90609 -0.834116,-10.246079 -0.229784,-15.259702 0.111472,-0.924733 0.04016,-1.820778 0.06267,-2.747907 0.04007,-1.650095 0.326743,-3.439802 0.551669,-5.079924 0.295167,-2.152316 1.06636,-4.290772 1.780347,-6.332337 0.214221,-0.612538 0.25942,-1.25995 0.456721,-1.876246 0.440425,-1.375737 1.0437,-2.782446 1.59139,-4.121861 1.234141,-3.01818 1.968206,-6.285492 3.443902,-9.202728 1.399482,-2.766568 3.309204,-5.019417 5.174876,-7.467011 0.942764,-1.236828 1.760701,-2.578253 2.85615,-3.692674 0.761629,-0.774823 1.694388,-1.356484 2.499132,-2.083245 1.219461,-1.101289 2.087866,-2.592459 3.471436,-3.50752 1.789555,-1.183566 3.955714,-2.274584 5.952532,-3.050802 0.698437,-0.271501 1.433927,-0.458126 2.110777,-0.782403 2.402442,-1.151001 4.529288,-2.930339 7.208743,-3.516065 1.848164,-0.404008 3.55783,0.07361 5.400858,0.09875 1.161441,0.01585 2.429707,-0.175612 3.57114,-0.375059 0.977747,-0.170845 1.856452,-0.552895 2.787785,-0.872608 2.471454,-0.848409 5.519994,-1.887884 8.126924,-1.993037 1.650088,-0.06656 3.463944,-0.230669 5.09322,0.08166 1.721575,0.330022 3.317335,1.161929 5.066625,1.301788 1.75774,0.140538 3.50502,0.370998 5.26128,0.506093 2.01857,0.155276 4.00265,0.201053 5.97057,0.75012 0.81872,0.228432 1.55873,0.655177 2.3586,0.931478 1.0334,0.356969 2.18283,0.437352 3.18659,0.827031 1.89648,0.736247 3.69618,1.741412 5.57272,2.521919 1.76137,0.732609 3.71598,1.232275 5.35148,2.237066 1.45347,0.892955 2.63466,2.090586 4.02216,3.060296 1.21367,0.848224 2.65232,1.577938 3.72876,2.594085 2.17082,2.04924 3.66526,4.627425 5.70851,6.775762 1.34085,1.409823 2.84372,2.660601 4.13136,4.131355 1.19082,1.360191 2.12656,2.851109 3.18562,4.307013 0.80616,1.108232 1.69629,2.183877 2.36906,3.381231 2.33095,4.14856 3.64421,8.858459 5.00301,13.373963 0.22686,0.753939 0.67423,1.347319 0.97135,2.061404 0.39349,0.945728 0.65002,1.961419 0.86785,2.960599 0.37288,1.710295 0.29254,3.679432 0.65993,5.22045 0.43992,1.845295 1.15606,3.916896 1.18025,5.83479 0.009,0.743434 -0.22153,1.452181 -0.21744,2.197187 0.006,0.999618 0.17724,1.959127 0.12243,2.96914 -0.0606,1.117217 -0.29199,2.264803 -0.19466,3.385984 0.11016,1.268836 0.3936,2.528947 0.48331,3.80092 0.10581,1.500449 -0.26511,2.984053 -0.20795,4.483627 0.0971,2.548133 0.32129,5.70799 -1.11188,7.9731 -1.18585,1.87421 -3.0104,2.99743 -4.58713,4.51591 -1.37422,1.32346 -2.44657,2.88654 -3.95474,4.10382 -0.86275,0.69636 -1.88515,1.14818 -2.71657,1.88479 -0.66205,0.58654 -1.27778,1.38833 -2.05667,1.83922 -0.55561,0.32165 -1.34232,0.38394 -1.93415,0.5792 -0.78726,0.25975 -1.51291,0.66199 -2.31399,0.88116 -2.63166,0.72002 -5.28279,0.72421 -7.96361,1.01218 -1.33436,0.14334 -2.65822,0.4011 -3.99557,0.51559 -0.8212,0.0703 -1.12039,-0.047 -2.04241,0.0769 -1.20489,0.16194 -2.28643,0.85994 -3.4401,1.20684 -0.80199,0.24114 -1.65363,0.31039 -2.4716,0.47855 -1.00981,0.2076 -1.97222,0.56351 -2.97389,0.79095 -1.35405,0.30747 -2.59886,-0.16975 -3.95949,-0.15762 -3.27024,0.0291 -6.52792,0.31445 -9.80757,0.0722 -3.19383,-0.23595 -6.50779,-0.99019 -9.649954,-1.61323 -1.734957,-0.34402 -3.435235,-0.87315 -5.215703,-0.94097 -4.746299,-0.18082 -9.480991,0.3827 -14.227582,0.31238 -2.16316,-0.032 -4.309501,-0.24629 -6.463369,-0.42538 -1.95826,-0.16282 -3.952403,-0.19233 -5.888915,-0.55547 -1.388225,-0.26032 -2.714575,-0.74953 -4.099068,-1.02643 -1.765713,-0.35316 -3.566901,-0.79732 -5.346675,-1.06156 -1.302347,-0.19337 -2.612363,-0.30845 -3.864534,-0.75487 -0.890661,-0.31754 -1.634008,-0.88003 -2.454506,-1.33408 -1.868348,-1.0339 -4.062232,-1.87419 -5.576521,-3.43915 -0.803648,-0.83054 -1.35995,-1.86362 -2.151609,-2.71183 -1.369425,-1.46724 -2.570055,-2.65552 -3.344202,-4.56053 -0.600776,-1.47838 -0.846602,-3.16628 -1.188797,-4.719106 -0.263653,-1.196399 -0.447225,-2.410916 -0.751072,-3.597737 -0.723725,-2.826847 -1.620107,-4.124762 -0.940026,-7.177409 z"
       id="path1268" /><path
       style="fill:#1a1a1a;stroke-width:0.395995"
       d="m 37.853545,84.84852 c -0.50974,1.56156 0.210096,2.821176 0.533632,4.248144 0.564341,2.489048 1.251222,5.0331 2.607375,7.245773 0.167581,0.27342 0.468137,0.414044 0.646623,0.677956 0.479891,0.709567 0.645251,1.659101 1.129925,2.354805 0.344976,0.495179 0.838004,0.907252 1.206839,1.387252 1.14675,1.49234 1.647588,3.33228 3.01852,4.66023 0.978428,0.94776 2.344276,1.38751 3.448651,2.17915 0.951707,0.68219 1.662241,1.71268 2.662444,2.32727 2.113549,1.29868 4.675345,2.45334 7.032133,3.19132 1.996838,0.62528 4.196522,0.91359 6.263975,1.16602 3.000174,0.36629 5.967563,0.82327 8.994783,0.98085 1.885819,0.0982 3.784069,-0.18041 5.667671,-0.18041 3.063474,0 6.126751,0.35201 9.197035,0.31144 6.170614,-0.0815 12.300589,-0.8282 18.458639,-1.10714 2.37833,-0.10773 4.75571,0.0645 7.13183,0.10824 7.29669,0.13434 15.07461,0.67985 22.31842,-0.0133 2.47199,-0.23654 5.08953,-1.00352 7.48885,-1.63222 1.62192,-0.425 3.46116,-0.91228 4.9261,-1.73572 0.93768,-0.52708 1.65874,-1.29492 2.51338,-1.92942 2.53062,-1.8788 5.00291,-3.83733 7.1679,-6.16522 1.48804,-1.59999 3.06469,-2.993032 4.37064,-4.773232 0.1834,-0.250008 0.89576,-1.515168 1.41478,-1.116635 0.84698,0.650359 -1.3317,8.065947 -1.53631,9.081197 -0.29366,1.45698 -0.77179,2.93116 -0.83179,4.42475 -0.062,1.54207 0.18729,3.03528 0.2934,4.56528 0.18158,2.61783 0.12827,5.34886 -0.12153,7.95886 -0.32545,3.40002 -0.97324,7.25022 -1.9617,10.52731 -0.33571,1.11297 -1.00511,2.06753 -1.30654,3.19513 -0.778,2.91027 -1.21724,5.86133 -1.93893,8.77831 -0.23789,0.96157 -0.67607,1.86884 -0.95806,2.82006 -0.27747,0.93602 -0.34566,1.93222 -0.58775,2.87895 -0.9882,3.86453 -2.58195,7.03254 -4.96692,10.17883 -0.78902,1.04087 -1.62763,2.21365 -2.77545,2.89318 -1.27739,0.75625 -2.56135,0.33529 -3.93195,0.32568 -0.63802,-0.004 -1.26733,0.12751 -1.90663,0.10357 -25.96331,-0.55762 -57.477292,6.89093 -84.097881,-1.10245 -0.788023,-0.2488 -1.460054,-0.81839 -2.187688,-1.19356 -9.369596,-0.5161 -16.178079,-17.45799 -17.699021,-28.58904 -0.224561,-1.70599 -0.241493,-3.43777 -0.474759,-5.14734 -0.221852,-1.62594 -0.43555,-3.26438 -0.866908,-4.85014 -0.168096,-0.61795 -0.480892,-1.16875 -0.574458,-1.81263 -0.300284,-2.06641 0.09419,-4.28655 -0.266818,-6.34563 -0.332425,-1.89606 -0.424432,-3.61353 -0.424432,-5.53759 0,-0.55098 -0.162574,-1.11631 -0.199399,-1.66735 -0.116531,-1.74391 -0.07434,-3.52039 -0.239279,-5.25653 -0.09455,-0.99518 -0.275475,-1.98799 -0.289603,-2.99669 -0.02297,-1.639804 0.470889,-3.268411 0.528882,-4.89951 0.02907,-0.818047 -0.187816,-1.586815 -0.175663,-2.408929 0.0192,-1.299949 0.314155,-2.545703 0.383608,-3.83795 0.04806,-0.894029 -0.261051,-2.397433 0.194652,-3.191332 0.215223,-0.374951 0.47919,-0.719733 0.718782,-1.079602 z"
       id="path1337"
       sodipodi:nodetypes="sssssssssssssssssssssssssscssssssssccccsssssssssssscs" /><path
       style="fill:#ffb380;stroke-width:0.395995"
       d="m 81.590252,138.51719 c 1.197945,-6.75194 2.971247,-9.7307 9.120123,-13.16602 5.077494,-2.83675 9.795185,-2.86582 15.064105,-0.73208 0.66032,0.26741 1.42927,0.35447 2.05191,0.70929 1.08938,0.6208 1.94482,1.6279 2.77544,2.53142 1.03504,1.12586 2.02312,2.28127 2.72132,3.66134 0.41872,0.82764 0.46524,1.95917 0.583,2.86564 0.49395,3.8021 -0.62026,7.39215 -3.67938,9.92058 -0.4177,0.34523 -0.89065,0.42059 -1.3692,0.6466 -1.95845,0.92501 -2.57799,-0.52022 -4.28518,-1.23436 -0.34632,-0.14488 -0.71205,-0.0549 -1.05776,-0.16712 -1.63288,-0.52987 -3.820559,-1.33564 -5.558482,-0.84507 -1.487948,0.42001 -2.06062,2.07306 -3.566392,2.53616 -1.451931,0.44655 -3.217269,-0.45939 -4.528251,-0.91818 -2.668659,-0.93391 -5.75181,-1.52902 -7.281856,-4.17123 -0.319504,-0.55175 -0.917517,-1.00346 -0.989397,-1.63697 -0.10134,-0.89314 0.590994,-1.73622 0.573507,-2.63491"
       id="path1351" /><path
       style="fill:#00ffff;stroke-width:0.395995"
       d="m 63.254106,91.648018 c -0.541119,1.791521 -1.298437,6.205295 -0.677956,8.131677 0.126589,0.393035 0.398177,1.013475 0.673207,1.310335 0.107222,0.11574 0.455257,0.21574 0.51559,0.34847 0.364379,0.80164 0.472359,1.51499 1.328378,1.97025 1.448692,0.77047 2.691947,0.33604 4.135151,0.55547 0.631984,0.0961 1.17546,0.32298 1.835418,0.29435 0.644422,-0.028 1.327609,-0.27001 1.974997,-0.2032 0.689053,0.0711 1.428347,0.57309 2.14686,0.46052 0.42191,-0.0661 0.767846,-0.46902 1.215385,-0.52888 0.594575,-0.0795 1.207698,0.24392 1.830669,0.16711 0.897049,-0.11058 1.836348,-0.3753 2.729869,-0.42918 0.430026,-0.0259 0.77196,0.24878 1.198288,0.24878 0.601204,0 1.262108,-0.34732 1.875299,-0.42064 3.181337,-0.38038 7.566845,-0.87397 9.029919,-4.212065 0.465972,-1.063143 1.753772,-5.672408 0.754866,-6.671314 -0.532141,-0.532141 -3.209674,-1.131025 -4.094319,-1.414783 -0.940153,-0.301559 -1.734574,-0.923033 -2.693786,-1.162211 -0.963626,-0.240273 -1.967854,-0.09203 -2.947303,-0.185155 -1.039456,-0.09883 -2.106537,-0.379727 -3.149553,-0.3931 -0.771029,-0.0099 -1.511081,0.214288 -2.274096,0.266814 -1.92323,0.132396 -3.881861,0.170642 -5.789211,0.397847 -0.756327,0.0901 -1.469668,0.528483 -2.21048,0.709291 -0.526722,0.128564 -4.188643,0.501917 -4.582373,0.189904 -0.138367,-0.109647 -0.581122,-0.83601 -0.615289,-0.885901"
       id="path1544" /><path
       style="fill:#00ffff;stroke-width:0.395995"
       d="m 108.97056,92.845361 c -1.58102,-0.0079 -2.8845,0.370505 -3.79712,1.727176 -0.86653,1.288141 -0.68137,3.318919 -0.51084,4.750437 0.17009,1.427866 0.46406,3.069546 1.38819,4.248146 0.16608,0.21181 0.63818,0.1659 0.86786,0.23074 1.79512,0.50671 1.64544,0.0721 3.21317,0.0456 0.50677,-0.009 1.19823,0.4957 1.76705,0.55547 0.46917,0.0493 0.96732,-0.12466 1.44612,-0.10349 0.7153,0.0316 1.56322,0.29782 2.2741,0.19845 0.4761,-0.0666 0.90932,-0.2741 1.39579,-0.32094 0.74758,-0.072 1.42935,0.37926 2.14686,0.45671 0.61536,0.0664 1.31605,-0.12102 1.93037,-0.17186 0.65309,-0.054 1.37243,0.24376 2.06045,0.21269 1.62027,-0.0732 3.27731,-0.73532 4.88148,-1.00364 0.78301,-0.13096 1.61505,0.13095 2.39563,-0.0181 0.78119,-0.1491 1.48507,-0.59312 2.25511,-0.77766 3.02716,-0.72544 5.79879,-2.70816 5.73603,-6.096854 -0.0206,-1.113911 -0.23108,-2.104592 -1.05301,-2.906475 -0.92813,-0.905489 -1.81629,-0.700927 -2.95205,-0.877355 -0.46151,-0.07169 -1.03042,-0.299553 -1.4822,-0.311441 -0.52827,-0.01392 -1.04467,0.198152 -1.56385,0.225986 -2.12413,0.113882 -4.35987,0.328541 -6.47667,0.217437 -0.59527,-0.03125 -1.19614,0.186427 -1.78509,0.167118 -1.01326,-0.03323 -1.99942,-0.203558 -3.01472,-0.0864 -1.36842,0.15789 -4.86085,1.039661 -6.01141,0.849816 -0.43337,-0.07151 -0.77726,-0.446392 -1.16125,-0.51084 -1.06051,-0.177989 -1.57489,0.05984 -2.62162,-0.69125"
       id="path1547" /><path
       style="fill:#1a1a1a;fill-opacity:1;stroke-width:0.395995"
       d="m 41.374361,89.078623 c 0.0662,-1.032593 0.405753,-2.015342 0.560215,-3.03276 0.303875,-2.001608 0.618315,-3.868702 1.301791,-5.790161 0.674835,-1.897182 1.570231,-3.666143 2.1649,-5.600258 0.534344,-1.737919 1.408694,-3.353925 1.943664,-5.094165 0.292387,-0.95112 0.420293,-1.912651 0.863111,-2.815323 1.43949,-2.934344 3.153134,-5.761788 4.781775,-8.588394 1.329482,-2.307399 2.277301,-4.839974 3.461944,-7.222982 0.761947,-1.532719 1.817879,-2.88459 2.626366,-4.388672 1.731403,-3.221044 4.12648,-7.178274 6.747274,-9.712623 1.164752,-1.126329 2.505331,-2.18735 3.810419,-3.141956 0.37009,-0.270702 0.82434,-0.37001 1.188794,-0.632377 0.142289,-0.102432 1.54042,-1.33721 1.387246,-0.759616 0.392594,0.201053 1.160927,-0.117893 1.658811,0.126289 0.454483,0.222893 0.732131,0.702441 1.075804,1.057763 0.737083,0.762071 1.716272,1.469142 2.666247,1.935119 0.565565,0.277418 1.204184,0.214146 1.771801,0.470012 0.549676,0.247779 0.981736,0.699922 1.518279,0.976104 0.710608,0.36578 1.537059,0.519641 2.282643,0.804242 3.082612,1.176681 6.330569,2.312942 9.663246,2.567497 1.806581,0.137994 3.275998,-0.398064 5.012506,-0.736826 1.166974,-0.227656 2.394683,-0.357672 3.538853,-0.677956 0.54053,-0.151306 1.03887,-0.43215 1.58665,-0.560216 4.34853,-1.016652 9.32533,-1.398013 13.41859,-3.240706 0.8752,-0.393996 1.69789,-0.957231 2.44501,-1.560058 0.48721,-0.393117 2.14164,-2.148084 2.63491,-2.277894 0.10061,-0.02648 0.10266,0.180981 0.15382,0.271563 0.18725,0.331482 0.31566,0.583731 0.64662,0.795696 0.98552,0.63117 2.21127,0.884228 3.14101,1.613231 1.13894,0.89303 1.91717,2.226965 3.13151,3.032761 1.06941,0.709629 2.24274,1.363837 3.1505,2.292138 0.78346,0.801177 1.09043,1.876752 1.75376,2.761198 2.10249,2.803313 4.39636,5.487081 6.39976,8.370953 0.70223,1.01086 1.16337,2.142917 1.78509,3.196078 0.73759,1.249434 1.58779,2.469586 2.37285,3.692676 0.53005,0.825812 0.85294,1.756075 1.35591,2.594084 0.63695,1.061244 1.49176,1.944586 2.05191,3.064095 0.56526,1.129716 0.86651,2.373784 1.46415,3.494226 1.1378,2.133089 2.30929,4.256715 3.12772,6.549777 2.13574,5.98386 2.65737,12.316101 2.97389,18.612455 0.0262,0.52131 0.028,3.33761 0.28961,3.589178 0.63978,0.615181 4.89813,-1.515499 5.62209,-1.894288 0.4484,-0.234617 4.23798,-2.906024 4.35258,-2.820069 0.10387,0.07789 -0.17113,0.197986 -0.27536,0.27536 0.3449,-1.641879 0.7468,-3.669738 0.36178,-5.382821 -0.13126,-0.584124 -0.51542,-1.043224 -0.60105,-1.663555 -0.17059,-1.235766 -0.22507,-2.486767 -0.38455,-3.720214 -0.10612,-0.820165 -0.41782,-1.610191 -0.52414,-2.417472 -0.11614,-0.882026 0.1139,-1.798805 0.0855,-2.689985 -0.0874,-2.740239 -0.41253,-5.625228 -1.10713,-8.279799 -0.21693,-0.828995 -0.76234,-1.580629 -1.09385,-2.369047 -0.58807,-1.39852 -0.79184,-2.934504 -1.34642,-4.347844 -0.62079,-1.582084 -1.25311,-3.207254 -1.96645,-4.745693 -0.21437,-0.462329 -0.53955,-0.853791 -0.73683,-1.329325 -0.88299,-2.128463 -1.44058,-4.432994 -2.46305,-6.494704 -0.47754,-0.962921 -1.1991,-1.766031 -1.66355,-2.752654 -0.63637,-1.351808 -1.1924,-2.876235 -2.05571,-4.10002 -1.08571,-1.539038 -2.69468,-2.758371 -4.20826,-3.850295 -0.44812,-0.323279 -0.9717,-0.503435 -1.38726,-0.877355 -0.43931,-0.395299 -0.75138,-0.950188 -1.13467,-1.400539 -0.77012,-0.904861 -1.69585,-1.833121 -2.55325,-2.653903 -0.69293,-0.66334 -1.50771,-1.135557 -2.25131,-1.730973 -0.47575,-0.380944 -0.8081,-0.891293 -1.28375,-1.270455 -1.57606,-1.256358 -3.2836,-2.327059 -4.87198,-3.556895 -1.0242,-0.793008 -1.77277,-2.017499 -2.88748,-2.689036 -1.55324,-0.935716 -3.40431,-1.140647 -4.95838,-1.98924 -1.17249,-0.640224 -2.39081,-1.14762 -3.5664,-1.767054 -1.27822,-0.673512 -2.51926,-1.486522 -3.90062,-1.938916 -2.93481,-0.961151 -7.19917,-0.561876 -10.37253,-0.940022 -2.79894,-0.33353 -5.55772,-0.945777 -8.388048,-1.02643 -1.813171,-0.05166 -3.602049,0.220089 -5.405606,0.348474 -1.43171,0.101908 -2.917695,0.155556 -4.31651,0.51084 -2.707699,0.687728 -4.39686,2.534897 -6.883058,3.294829 -0.972516,0.29726 -1.966833,0.284612 -2.951102,0.497547 -0.900107,0.194729 -1.746736,0.607748 -2.635862,0.858365 -0.793095,0.223548 -1.580111,0.342583 -2.358603,0.632379 -1.183333,0.440498 -2.117388,1.209755 -3.23216,1.768002 -0.819903,0.410585 -1.714014,0.622232 -2.553255,0.96661 -0.49934,0.204902 -0.88742,0.598666 -1.383448,0.805191 -1.798912,0.74899 -3.97283,0.854833 -5.648683,1.843964 -0.35298,0.208337 -0.522301,0.572591 -0.831779,0.822284 -1.740593,1.404341 -3.356458,2.945816 -5.017254,4.452291 -1.124361,1.019884 -2.541703,1.64474 -3.611017,2.725116 -0.922158,0.931698 -2.099852,2.142669 -2.765947,3.286283 -0.666939,1.145065 -1.048623,2.406408 -1.794589,3.530309 -0.994047,1.497667 -2.397149,2.713029 -3.13151,4.383924 -1.413445,3.216015 -2.125685,6.670954 -3.444853,9.921517 -0.994016,2.449355 -2.387896,5.605959 -2.900778,8.163007 -0.266288,1.327615 -0.212981,2.705073 -0.484255,4.036401 -0.285284,1.400087 -0.804998,2.759421 -1.025479,4.171234 -0.258401,1.654632 -0.103331,3.384498 -0.253522,5.053335 -0.104932,1.165937 -0.512862,2.24983 -0.691248,3.399276 -0.216063,1.392226 -0.06758,4.371804 0.33423,5.830991 0.07688,0.279202 0.325145,0.241454 0.542175,0.302897 1.033754,0.29266 1.689519,1.041681 2.634913,1.490743 0.180674,0.08582 0.742201,0.04098 0.864062,0.235481 0.214891,0.342998 0.397531,0.705175 0.596297,1.057761 z"
       id="path1902" /><path
       style="fill:#ff0000;fill-opacity:1;stroke-width:0.395995"
       d="m 64.821764,165.04767 c -0.320895,1.57567 -1.485691,2.88233 -1.857261,4.42476 -0.145088,0.6023 -0.100397,1.23713 -0.27536,1.83067 -0.29342,0.99536 -0.884954,2.03444 -0.804242,3.10492 0.114555,1.51926 1.50557,1.94065 2.096537,2.97484 0.474354,0.83013 0.799083,1.5983 1.537269,2.27789 0.409732,0.37723 0.93772,0.56748 1.387246,0.87641 1.362972,0.93669 3.035714,2.00927 4.614658,0.87737 0.659348,-0.47268 1.092008,-0.69802 1.559112,-1.42809 0.418812,-0.65458 0.825665,-1.33817 0.835573,-1.31128 0.226058,0.61358 -0.965316,4.3429 -1.102391,5.26982 -0.294156,1.98923 0.217497,4.08533 -0.13958,6.04844 -0.519739,2.85736 -1.861866,8.0529 -1.301789,10.95174 0.04304,0.22279 0.07585,0.50354 0.234532,0.68175 0.23296,0.26163 3.42763,1.50567 3.833205,1.6816 1.189434,0.51596 2.399283,0.79442 3.624309,1.20208 1.191652,0.39658 2.267318,1.02376 3.50752,1.29325 1.959759,0.42585 3.940392,0.57841 5.924993,0.83558 2.758866,0.35751 5.438184,0.82887 8.23517,0.81849 1.477122,-0.006 2.940315,-0.23585 4.415265,-0.28011 7.19267,-0.21589 14.35645,-0.77486 21.53222,-1.28376 2.20663,-0.15649 4.33001,-0.1121 6.51749,-0.54691 1.30926,-0.26024 2.64232,-0.62967 3.92246,-1.01693 0.38459,-0.11629 0.69704,-0.37595 1.0986,-0.47002 1.71497,-0.40176 3.92898,-0.98632 5.2157,-2.29594 0.64357,-0.65502 -1.0279,-2.44968 -1.29704,-3.16379 -0.76803,-2.03775 -0.32129,-3.84955 -0.47476,-5.95349 -0.0694,-0.95124 0.1078,-1.92611 0.0446,-2.86944 -0.02,-0.29938 -0.20196,-0.5604 -0.22978,-0.85931 -0.0438,-0.47045 0.13974,-0.94207 0.0721,-1.41003 -0.30434,-2.10732 -0.67979,-4.19598 -0.009,-6.24214 0.0977,-0.29835 1.06416,0.60541 1.15747,0.64662 0.37839,0.16721 0.9129,-0.0706 1.32458,-0.0181 0.37188,0.0474 0.719,0.20996 1.09764,0.2165 1.81399,0.0313 4.16066,-2.35294 5.17108,-3.70123 0.99062,-1.3219 0.84347,-2.49074 0.89445,-3.96899 0.0156,-0.44964 0.20554,-1.04249 -0.0409,-1.47364 -0.19354,-0.3387 -0.62139,-0.50028 -0.74538,-0.96661 -0.14008,-0.52701 0.15793,-1.01823 -0.0542,-1.59615 -0.16373,-0.44623 -0.60164,-0.80232 -0.66941,-1.31982 -0.093,-0.70977 -0.40434,-1.27245 -0.50135,-1.91139 -0.0645,-0.42515 0.0294,-1.70158 -0.24403,-1.975 -0.16522,-0.16522 -0.43083,0.10088 -0.61908,0.0627 -1.48336,-0.30096 -3.94399,0.0955 -5.47777,0.34847 -0.37126,0.0612 -0.71529,0.22439 -1.09859,0.2165 -0.60975,-0.012 -1.54057,-0.0153 -2.07945,-0.28865 -0.32088,-0.16278 -0.61004,-0.44797 -0.9799,-0.5023 -0.65373,-0.0961 -1.27888,0.22776 -1.93512,0.1994 -1.54555,-0.0667 -3.07412,-0.29191 -4.6327,-0.1994 -2.22806,0.13231 -4.21775,1.03625 -6.39975,1.31128 -1.90519,0.24016 -3.80643,0.0332 -5.7085,0.17187 -1.42257,0.10371 -2.82837,0.41523 -4.24815,0.51939 -1.56745,0.11494 -2.99317,-0.2824 -4.533,-0.31145 -2.04738,-0.0386 -4.11965,-0.0898 -6.16522,-0.0769 -1.218653,0.007 -2.429147,0.20924 -3.651847,0.0807 -1.136833,-0.11943 -2.224965,-0.51439 -3.380285,-0.60485 -2.275562,-0.17815 -4.563486,-0.13051 -6.833683,-0.41208 -1.639234,-0.2033 -3.249006,-0.6326 -4.90901,-0.74063 -1.457927,-0.0949 -2.957469,-0.17564 -4.415258,-0.18515 -1.270114,-0.009 -2.535461,0.20841 -3.805668,0.16236 -2.06113,-0.0747 -4.093864,-0.0486 -6.155728,-0.0684 -0.435107,-0.004 -1.084116,-0.25966 -1.496438,-0.15288 -2.592758,0.67148 -0.67224,0.63867 -3.167591,0.31144"
       id="path1973" /><path
       style="fill:#ffb380;fill-opacity:1;stroke-width:0.395995"
       d="m 139.22506,179.41674 c 1.66634,-2.78168 4.33482,-4.60864 6.64853,-6.79381 0.18819,-0.17775 1.22256,-1.55999 1.53156,-1.41952 0.22998,0.10446 1.56706,3.29025 1.59995,3.49897 0.23412,1.48586 0.31545,3.0147 0.49279,4.51115 0.31938,2.6949 0.85409,5.52101 1.41003,8.18105 0.60186,2.87968 3.52202,7.27599 2.32349,10.26904 -0.16444,0.41064 -0.51958,0.87752 -0.98561,0.96661 -0.0911,0.0174 -3.4391,-0.41173 -3.59772,-0.47001 -0.37659,-0.13829 -0.83696,-0.36866 -1.14797,-0.61909 -1.25832,-1.01311 -2.24003,-2.68003 -2.92832,-4.11331 -0.802,-1.67008 -1.88699,-3.15916 -2.63016,-4.87672 -1.25905,-2.9098 -1.61545,-6.15926 -2.71657,-9.13436 z"
       id="path2048" /><path
       style="fill:#ffb380;fill-opacity:1;stroke-width:0.395995"
       d="m 62.476451,175.39837 c 0.833225,0.91253 1.911551,1.58534 3.104926,1.93417 0.504213,0.14742 1.07793,0.0317 1.577149,0.19466 0.752324,0.24539 4.253959,2.00623 4.519707,2.65294 0.301704,0.73423 -0.881438,3.16457 -1.256211,3.89682 -1.773564,3.46528 -2.529178,7.32149 -3.823713,10.95555 -0.496206,1.39296 -1.329261,2.63219 -1.83067,4.04114 -1.604002,4.50725 -0.796458,6.63116 -5.590763,9.19325 -0.590475,0.31555 -1.911835,1.23736 -2.607377,1.09383 -1.068407,-0.22046 -1.377849,-5.81833 -1.324577,-6.58965 0.120453,-1.74397 -0.14832,-3.52728 0.01805,-5.26127 0.08938,-0.93159 0.491019,-1.74174 0.62858,-2.64916 0.195866,-1.29202 0.162492,-2.61846 0.298148,-3.91867 0.09384,-0.89936 0.496586,-1.73963 0.578256,-2.63491 0.102463,-1.12315 0.05833,-2.25073 0.248776,-3.37174 0.529703,-3.11781 1.718769,-6.06403 3.064095,-8.89033 0.175177,-0.36803 0.605061,-0.529 0.836524,-0.8859"
       id="path2050" /><path
       style="fill:#000080;fill-opacity:1;stroke-width:0.395995"
       d="m 72.085577,199.14298 c 1.772589,0.52946 3.668665,0.88801 5.522398,0.94096 0.528878,0.0151 1.247966,-0.15857 1.75376,0.0135 0.67767,0.23028 1.409092,0.71869 2.138314,0.81374 0.65103,0.0849 1.348437,-0.0777 2.001585,-0.0817 1.093564,-0.006 2.308077,0.20316 3.389777,0.0817 1.437474,-0.16144 2.936501,-0.21809 4.406717,-0.23073 1.355697,-0.012 2.448557,0.53498 3.823709,0.26207 1.92584,-0.38219 6.852073,-0.0474 8.854253,0.25731 2.13317,0.32461 4.27377,-0.0244 6.39501,0.14054 1.73108,0.13455 3.44908,0.54518 5.17487,0.75012 2.33915,0.27776 4.72109,-0.0467 7.02834,-0.43868 2.20978,-0.37547 4.39343,-0.66267 6.57161,-1.21064 1.75723,-0.44208 3.57868,-1.12676 5.39231,-1.26571 0.92103,-0.0705 1.81283,-0.2743 2.70233,-0.51083 0.0501,-0.0135 0.23689,-0.0829 0.28486,-0.0135 0.62609,0.90948 0.14613,5.03023 0.46146,6.46716 0.50125,2.28412 0.88015,4.57628 1.37396,6.85742 0.30449,1.40662 0.88915,2.75072 1.15176,4.16268 0.58943,3.16911 0.51746,6.41069 0.72828,9.61388 0.20636,3.13529 0.78704,6.26895 0.8992,9.40594 0.0564,1.5776 -0.24989,3.08734 -0.42064,4.64599 -0.17992,1.64236 -0.26164,3.30307 -0.42918,4.94983 -0.14524,1.42753 -0.0934,2.8937 -0.30765,4.31175 -0.17716,1.17283 -0.61429,2.29421 -0.88969,3.44391 -0.7421,3.09795 -0.7546,5.91064 -4.70961,6.17471 -0.56798,0.0379 -1.07686,-0.24434 -1.64552,-0.26206 -0.96424,-0.0301 -1.94207,0.25392 -2.89223,0.13963 -2.546,-0.30636 -4.94537,-0.87878 -7.53917,-0.72733 -0.69804,0.0407 -1.72297,0.88405 -2.3681,0.18041 -0.6494,-0.70829 -1.33086,-6.20852 -1.52778,-7.35402 -0.40039,-2.32914 -0.79541,-4.62327 -1.09384,-6.96471 -0.1458,-1.14384 0.0573,-2.3024 0.0275,-3.44866 -0.072,-2.77012 -0.17917,-5.53923 -0.23548,-8.31208 -0.0351,-1.72797 -0.38409,-3.44884 -0.44248,-5.17963 -0.0602,-1.78339 0.20915,-6.44224 -1.31983,-7.83826 -0.1579,-0.14413 -0.37804,-0.0819 -0.56496,-0.12153 -0.21463,-0.0455 -0.34329,-0.23574 -0.56021,-0.28961 -0.99957,-0.24813 -2.10679,0.41527 -3.0736,0.46527 -1.09921,0.0569 -2.21391,-0.0976 -3.30812,-0.0579 -1.67354,0.0606 -3.26865,0.64378 -4.91755,0.809 -2.47177,0.24764 -5.596019,-1.63132 -7.927531,-0.113 -3.068787,1.99843 -1.380011,8.8682 -1.627471,11.91456 -0.08703,1.07135 -0.435156,2.12839 -0.573513,3.19512 -0.197182,1.52029 -0.248138,3.0677 -0.470011,4.59187 -0.3139,2.15636 -0.841846,4.30961 -1.279001,6.44532 -0.315888,1.54328 -0.369523,3.12777 -0.605792,4.68304 -0.492828,3.24408 -2.045561,6.44026 -4.298469,8.81816 -1.023999,1.08081 -3.026978,1.41289 -4.397221,1.79459 -3.566723,0.9936 -5.515284,0.998 -9.170443,0.47951 -1.027036,-0.14563 -2.271495,-0.14638 -3.253998,-0.47475 -2.103296,-0.70285 -2.139023,-4.85125 -2.336767,-6.55832 -0.46036,-3.97421 -1.286197,-7.83182 -1.334072,-11.86519 -0.03116,-2.62436 0.634946,-5.13807 0.84602,-7.73763 0.159396,-1.96308 0.04718,-3.88885 0.149069,-5.84901 0.08306,-1.59802 0.38973,-3.22508 0.596296,-4.81407 0.388187,-2.98606 0.609266,-5.96564 0.962811,-8.9492 0.138158,-1.16597 0.52246,-2.25269 0.777655,-3.39454 0.222569,-0.99585 0.293646,-2.01898 0.519388,-3.01472 0.166567,-0.73472 0.689994,-2.12599 0.429184,-2.85235 -0.0848,-0.23617 -0.45187,-0.22288 -0.691254,-0.29815"
       id="path2184" /><path
       style="fill:#2b1100;fill-opacity:1;stroke-width:0.395995"
       d="m 119.55959,255.90897 c 0.75335,0.0736 1.63471,0.40666 2.41367,0.37031 0.41719,-0.0195 0.81247,-0.34789 1.24292,-0.35702 0.28795,-0.006 0.50101,0.18394 0.7824,0.2032 1.38838,0.095 2.85977,-0.42553 4.21207,-0.66371 0.40855,-0.072 0.84479,0.0193 1.25146,-0.0503 1.91753,-0.32842 3.80112,-0.62766 5.69996,-1.0796 0.40353,-0.0961 3.08341,-1.01312 3.30812,-0.90869 0.0947,0.044 -0.0658,0.52164 -0.0817,0.58776 -0.38172,1.5895 -0.51118,3.33471 -0.64567,4.96218 -0.2058,2.49041 -0.6495,5.26454 -1.89904,7.46702 -0.72602,1.27971 -2.20218,2.06267 -3.30812,2.96058 -1.0304,0.8366 -3.25195,2.98064 -4.60516,3.16379 -0.49699,0.0673 -1.55815,-0.36143 -1.93037,-0.63712 -0.59189,-0.43837 -1.44893,-0.45295 -2.01583,-0.99415 -0.81697,-0.77993 -2.18985,-4.0692 -2.48963,-5.16632 -0.58953,-2.15748 -0.91883,-4.26623 -1.26571,-6.48141"
       id="path2312" /><path
       style="fill:#2b1100;fill-opacity:1;stroke-width:0.395995"
       d="m 68.596095,253.62157 c 0.668563,0.77419 1.257765,1.8573 2.151609,2.43172 0.604375,0.38841 3.387742,0.87735 4.212066,0.87735 0.551271,0 1.034208,-0.25501 1.595187,-0.26681 2.059114,-0.0433 4.155564,0.3029 6.20605,0.3029 0.919755,0 1.871461,-0.21489 2.788737,-0.29815 0.355393,-0.0323 2.279593,-0.28783 2.494385,0.0721 0.751697,1.25988 -1.017573,4.46841 -1.64077,5.57271 -1.315852,2.33172 -2.413745,4.74671 -4.383924,6.63524 -0.84025,0.80544 -1.674738,0.9365 -2.707077,1.33788 -3.004198,1.16803 -3.948476,0.85723 -6.08831,-1.41005 -0.567798,-0.6016 -1.165929,-1.06569 -1.590444,-1.81262 -0.694975,-1.22281 -0.830501,-2.73899 -1.252413,-4.05445 -0.173909,-0.54221 -0.487455,-1.00443 -0.673209,-1.53632 -0.218145,-0.62464 -0.297807,-1.30838 -0.497547,-1.94365 -0.602274,-1.9156 -0.349961,-3.94498 -0.61434,-5.90792 z"
       id="path2316" /></g><g
     inkscape:groupmode="layer"
     id="layer5"
     inkscape:label="Layer 4"
     style="display:inline"><path
       style="fill:#28170b;stroke-width:0.395995"
       d="m 81.978604,79.181795 c -2.479111,2.464638 -3.544147,5.782542 -4.433299,9.076446 -0.573397,2.124173 -1.191368,4.168786 -1.884795,6.268718 -0.377498,1.143197 0.06388,2.307054 0.135778,3.461942 0.141645,2.275189 -0.0392,4.635409 1.151764,6.726389 0.494835,0.86878 1.127632,1.05562 1.975949,1.43662 0.461571,0.20731 0.897773,0.54104 1.410035,0.62004 1.510306,0.2329 2.838735,-0.91119 3.488531,-2.1611 0.903194,-1.73736 0.971994,-3.69223 1.134672,-5.577479 0.105755,-1.225621 0.997809,-3.075223 0.962811,-4.135152 -0.04349,-1.317377 -0.153542,-2.717639 -0.04083,-4.04115 0.166068,-1.949975 0.366294,-8.206429 -1.242923,-9.605324"
       id="path1677" /><path
       style="fill:#28170b;stroke-width:0.395995"
       d="m 116.69394,79.674594 c -1.275,2.193236 -1.68192,4.77316 -2.38139,7.19545 -0.25491,0.88278 -0.69132,1.72014 -0.96281,2.599783 -0.22628,0.733154 -0.24464,1.487837 -0.36557,2.237063 -0.49337,3.056826 -0.78606,6.10143 -0.26681,9.16665 0.19821,1.17009 1.15604,2.08363 1.44136,3.23121 0.0975,0.39227 0.15055,0.84718 0.31619,1.21633 0.18524,0.41281 1.94668,2.51505 2.15161,2.50388 0.3596,-0.0196 0.75756,-0.23716 1.08435,-0.37126 4.03127,-1.65421 3.88906,-7.33274 4.57478,-10.960289 0.82976,-4.389531 2.90778,-11.719404 0.77671,-15.860749 -0.26001,-0.505286 -0.45062,-1.126388 -0.77671,-1.586646 -0.90676,-1.279879 -3.35871,-2.151034 -4.71435,-1.061564 -0.51506,0.413922 -0.66258,1.106213 -0.87736,1.690142 z"
       id="path1679" /></g><g
     inkscape:groupmode="layer"
     id="layer2"
     inkscape:label="Layer 2"
     style="display:inline;fill:#000000"><path
       style="fill:#000000;stroke-width:0.395995"
       id="path856"
       d="m 91.503444,127.00259 c -0.12837,1.07431 -0.02071,2.16773 0.03631,3.24509 -0.04261,1.44982 0.357524,2.84728 0.770923,4.22125 0.335302,1.16489 0.828398,2.26215 1.632818,3.17469 1.451053,1.22851 3.13222,2.29627 5.055113,2.3534 1.213472,0.0192 2.173682,-0.45775 3.075242,-1.22646 1.03743,-0.97629 1.59838,-2.27811 2.20724,-3.53562 0.66497,-1.30091 0.7201,-2.75245 0.60985,-4.17975 -0.11011,-1.25391 0.0848,-0.13205 -0.53249,-1.50683 -0.0796,-0.1772 -0.10004,-0.37538 -0.15006,-0.56306 0,0 -0.10679,-0.0541 -0.10679,-0.0541 v 0 c -0.0438,0.13943 -0.0368,0.30695 -0.13152,0.4183 -0.77804,0.91493 -0.33482,-0.35912 -0.6332,0.89458 -0.39407,1.25078 -0.73376,2.52359 -1.29437,3.7155 -0.63244,1.2084 -1.46826,2.30392 -2.436228,3.26547 -0.890499,0.7024 -1.849857,1.08556 -3.003976,1.00885 -0.396379,-0.0363 -0.525208,-0.0312 -0.907273,-0.13118 -0.137994,-0.0361 -0.525794,-0.21138 -0.406789,-0.13275 3.963178,2.61856 2.305808,1.3596 1.405192,0.81889 -0.894343,-0.85121 -1.422082,-1.95477 -1.82522,-3.11165 -0.453289,-1.43611 -0.763705,-2.90856 -1.166927,-4.35901 -0.192518,-1.11178 -0.26559,-2.22388 -0.311545,-3.34913 0,0 -1.886292,-0.96644 -1.886292,-0.96644 z" /><path
       style="fill:#000000;stroke-width:0.395995"
       id="path872"
       d="m 37.001297,85.092731 c 1.110896,1.027195 2.213288,2.052273 3.429528,2.954832 0.581763,0.466142 1.253632,0.784352 1.840173,1.240875 0,0 0.111158,0.04448 0.111158,0.04448 v 0 c -0.41505,-0.327694 -0.244991,-0.344521 -0.607409,-0.740365 -0.883972,-0.988011 -1.893989,-1.861463 -2.881859,-2.742964 0,0 -1.891597,-0.756861 -1.891597,-0.756861 z" /><path
       style="fill:#000000;stroke-width:0.395995"
       id="path876"
       d="m 74.417885,32.351102 c 0.606562,1.063584 1.383402,1.94155 2.303806,2.74138 2.299713,1.768276 4.900782,3.102693 7.423553,4.510849 1.834365,0.931313 3.808519,1.44133 5.833079,1.731341 2.449622,0.385003 4.898734,0.02974 7.316727,-0.383438 3.40619,-0.571939 6.80005,-1.196756 10.16703,-1.968009 3.34389,-0.696805 6.5387,-1.830072 9.57029,-3.390585 1.21023,-0.779105 4.05865,-1.864222 4.1924,-3.517045 0.0242,-0.298326 -0.0819,-0.592975 -0.12283,-0.889462 0,0 -0.10148,-0.06355 -0.10148,-0.06355 v 0 c -1.01683,0.0204 -1.40186,-0.03767 -2.38136,0.234159 -1.62714,0.451548 -2.83979,1.717025 -4.3472,2.425103 -2.98492,1.553156 -6.12592,2.70525 -9.43019,3.38414 -3.39649,0.738705 -6.815448,1.363466 -10.25257,1.883102 -2.388804,0.34439 -4.792437,0.623207 -7.206098,0.340418 -2.001066,-0.312765 -3.943996,-0.861875 -5.750423,-1.799707 0.618319,0.373717 1.24312,0.736903 1.854952,1.121146 0.271205,0.170321 -0.556844,-0.316547 -0.832733,-0.479171 -1.05252,-0.620416 -2.107839,-1.246354 -3.082653,-1.98534 -1.022447,-0.851382 -2.051631,-1.757807 -2.806085,-2.861877 0,0 -2.348207,-1.033458 -2.348207,-1.033458 z" /><path
       style="fill:#000000;stroke-width:0.395995"
       id="path878"
       d="m 120.88116,31.718709 c 0.12095,0.05627 0.24289,0.110484 0.36285,0.168814 0.3217,0.156441 1.25781,0.681967 0.94709,0.504704 -3.07284,-1.753047 -0.61471,-0.296401 -0.0292,0.09158 1.56944,1.056472 2.86334,2.447306 4.1764,3.794418 1.07237,1.078929 2.1183,2.178943 3.09085,3.348815 0.69359,0.826268 1.34601,1.685111 2.00766,2.536697 0.79143,0.961002 1.63306,1.879449 2.44676,2.821893 1.20201,1.49409 2.45421,2.936931 3.80019,4.3028 1.5668,1.436643 2.93205,3.044281 4.15528,4.777349 1.11102,1.564874 1.9908,3.26279 2.78355,5.004753 0.63638,1.580064 1.32157,3.139358 1.99458,4.704417 0.72509,1.612477 1.49067,3.206104 2.21593,4.818592 0.60929,1.363169 1.27581,2.699316 1.86629,4.070837 0.58598,1.377957 1.00867,2.815965 1.43435,4.249128 0.38363,1.255759 0.69862,2.529956 0.96627,3.814969 0.28736,1.316977 0.41988,2.657606 0.5032,4.000644 0.0703,1.482328 0.17966,2.962248 0.24414,4.444909 0.0423,1.018853 0.0834,2.037979 0.0618,3.057753 -0.004,0.141645 -0.009,0.28331 -0.0135,0.424942 -0.007,0.212749 -0.0503,0.679916 0.0434,0.881137 0.36281,0.779884 1.0943,0.836401 1.12204,1.636932 0,0 0.10492,0.05758 0.10492,0.05758 v 0 c 0.37701,-0.458145 -0.0222,-0.08889 0.96393,-0.162069 0.8674,-0.06437 0.56766,-0.755744 0.63204,-1.378569 0.0151,-1.042599 -0.0802,-2.080031 -0.13351,-3.120687 -0.10521,-1.481196 -0.22013,-2.961679 -0.24644,-4.447002 -0.0786,-1.352941 -0.18485,-2.705834 -0.46886,-4.034145 -0.26915,-1.295616 -0.57767,-2.582965 -0.97069,-3.847278 -0.43819,-1.435974 -0.85578,-2.881926 -1.41341,-4.277354 -0.58563,-1.385875 -1.25942,-2.72953 -1.89505,-4.092723 -0.74658,-1.60774 -1.5081,-3.208511 -2.24118,-4.822366 -0.70921,-1.653568 -1.41946,-3.297993 -2.31805,-4.860231 -0.81218,-1.758553 -1.68611,-3.487326 -2.81308,-5.070384 -1.21056,-1.75311 -2.55974,-3.382297 -4.14046,-4.819672 -1.32495,-1.339655 -2.5662,-2.748646 -3.71324,-4.244783 -0.79814,-0.951901 -1.6477,-1.857518 -2.44694,-2.808061 -0.66767,-0.8669 -1.32775,-1.739405 -2.04765,-2.564566 -0.99947,-1.195771 -2.0739,-2.31816 -3.18515,-3.410953 -1.37534,-1.406551 -2.78812,-2.792759 -4.39449,-3.93756 -1.65967,-1.120447 -3.36541,-2.235635 -5.22768,-2.978888 0,0 1.77512,1.363617 1.77512,1.363617 z" /><path
       style="fill:#000000;stroke-width:0.395995"
       id="path880"
       d="m 158.33164,95.994211 c 1.31204,-0.08155 2.47083,-0.82965 3.59205,-1.454582 0.41143,-0.229325 0.838,-0.437537 1.21968,-0.713566 0.36188,-0.261718 0.66665,-0.594476 0.99997,-0.89171 0.40746,-1.653237 -0.0157,-0.995037 1.17379,-2.032928 0,0 -0.10103,-0.06419 -0.10103,-0.06419 v 0 c -1.61575,0.963618 -0.64327,0.582466 -3.02117,0.831554 -0.50181,0.184058 -1.01313,0.344 -1.50542,0.552171 -0.85587,0.361908 -1.66759,0.821235 -2.5148,1.202951 -0.45753,0.206143 -1.28118,0.489996 -1.71338,0.845061 -0.10716,0.08802 -0.15703,0.228589 -0.23554,0.342884 0,0 2.10589,1.382364 2.10589,1.382364 z" /><path
       style="fill:#000000;stroke-width:0.395995"
       id="path882"
       d="m 41.921152,90.391514 c 0.06693,-0.12602 0.146584,-0.246047 0.20077,-0.378041 0.191233,-0.465844 0.294521,-0.966275 0.444077,-1.444448 0.348205,-1.113312 0.772177,-2.205083 1.161545,-3.304305 0.979694,-2.808284 1.475794,-5.754459 2.247101,-8.62399 0.845739,-3.050873 2.088973,-5.964935 3.423354,-8.828344 1.417904,-2.883711 2.882753,-5.745045 4.355008,-8.601512 1.34691,-2.683596 2.780642,-5.324198 4.42355,-7.838548 1.540216,-2.393011 2.909447,-4.889714 4.42592,-7.299138 1.315586,-2.097474 2.947474,-3.962735 4.661686,-5.738948 1.644246,-1.658572 3.502561,-3.077155 5.374417,-4.464753 0.224676,-0.166441 1.133236,-0.722164 1.159906,-1.148879 0.107492,-1.719631 -0.795566,-0.398778 -0.01123,-1.349499 0,0 -0.100516,-0.06504 -0.100516,-0.06504 v 0 c -0.21322,0.06201 -0.417625,0.189091 -0.639655,0.186026 -0.508248,-0.007 -1.001646,-0.235498 -1.509553,-0.215697 -0.668816,0.02607 -1.165826,0.487642 -1.666851,0.843821 -1.854473,1.427711 -3.677267,2.906246 -5.36244,4.532531 -1.723636,1.796669 -3.35144,3.690928 -4.656886,5.820225 -1.48807,2.425827 -2.933326,4.882663 -4.290551,7.383534 -1.444366,2.638535 -2.985855,5.223913 -4.284612,7.941199 -1.455084,2.868982 -2.964242,5.710551 -4.363534,8.60773 -1.358069,2.871452 -2.617441,5.800378 -3.444243,8.875375 -0.755147,2.884686 -1.478439,5.78025 -2.100864,8.696386 -0.413637,1.806276 -0.840112,3.612358 -1.231691,5.421351 0,0 1.785224,0.99297 1.785224,0.99297 z" /><path
       style="fill:#000000;stroke-width:0.395995"
       id="path884"
       d="m 37.066961,86.630464 c -0.194231,1.483017 -0.411562,2.962851 -0.610225,4.445262 -0.214582,1.458168 -0.188708,2.936284 -0.30909,4.401328 -0.03528,0.429568 -0.09748,0.856501 -0.146225,1.284754 -0.03171,0.454214 -0.06346,0.908432 -0.0952,1.36265 -0.0295,2.770372 0.121036,5.539072 0.216019,8.307232 0.109931,2.71452 0.153225,5.43076 0.206966,8.14674 0.04319,2.50494 0.194014,5.00646 0.434804,7.49975 0.203821,2.51727 0.489528,5.00485 0.950285,7.48871 0.468695,2.34432 0.87659,4.70006 1.300076,7.05278 0.385746,2.23142 0.786842,4.45735 1.417772,6.63382 0.734342,2.2872 1.706664,4.48582 2.794313,6.62432 0.87236,1.79612 1.935688,3.47871 3.034525,5.14137 0.877297,1.60183 2.072279,2.97452 3.396454,4.21798 2.239409,1.83624 4.830643,3.24674 7.537705,4.26855 1.971731,0.66431 3.998351,1.15624 6.027687,1.60891 2.266133,0.4759 4.568536,0.75139 6.86722,1.01459 2.494315,0.33086 5.011465,0.38104 7.523219,0.43531 2.449562,0.0518 4.898883,0.1136 7.348065,0.18094 2.330966,0.0923 4.663955,0.1314 6.994252,0.23828 2.358056,0.18809 4.716187,0.37628 7.073914,0.56871 2.325613,0.26723 4.651763,0.40805 6.991833,0.38981 2.42981,-0.006 4.85865,-0.041 7.28723,-0.12049 2.39859,-0.11569 4.79966,-0.15396 7.20027,-0.20244 2.12481,-0.0558 4.24456,-0.2136 6.36223,-0.38873 1.85485,-0.18835 3.71433,-0.30078 5.57653,-0.37903 1.5837,-0.072 3.16574,-0.17526 4.74836,-0.2677 1.78624,-0.18584 3.57431,-0.3492 5.36443,-0.49261 1.42887,-0.13306 2.84985,-0.33606 4.27291,-0.51852 1.46481,-0.15657 2.85797,-0.59577 4.17491,-1.24256 1.54282,-0.87373 2.74055,-2.14822 3.77223,-3.56666 1.13484,-1.65609 2.03404,-3.45053 2.82308,-5.29175 0.89275,-2.19242 1.31484,-4.52605 1.79466,-6.83205 0.53506,-2.74999 1.06912,-5.50041 1.58396,-8.25428 0.44759,-2.48533 0.87277,-4.97455 1.34927,-7.45458 0.45081,-2.25969 0.87721,-4.52396 1.33546,-6.78217 0.45516,-2.1392 0.81164,-4.29735 1.11654,-6.46257 0.28034,-1.90647 0.40628,-3.82997 0.55989,-5.74939 0.15862,-1.98391 0.26105,-3.96889 0.53699,-5.941 0.28322,-1.57511 0.48744,-3.16083 0.65269,-4.75205 0.11135,-1.40667 0.37153,-2.85309 0.14487,-4.263965 -0.0567,-0.352642 -0.1643,-0.695174 -0.24645,-1.042763 -0.59667,-1.503763 -0.24413,-0.757265 -1.07093,-2.233166 0,0 -0.10642,-0.05476 -0.10642,-0.05476 v 0 c -0.92193,0.588048 -0.50812,0.241291 -1.24378,1.037471 -0.11494,0.247767 -0.26397,0.482393 -0.34471,0.743299 -0.4049,1.30836 -0.0894,2.763294 -0.41987,4.088994 -0.21772,1.58965 -0.3565,3.18846 -0.59563,4.77538 -0.26265,1.97135 -0.43797,3.95162 -0.59225,5.93416 -0.16372,1.91739 -0.26227,3.84152 -0.51116,5.75055 -0.30898,2.15614 -0.66382,4.3046 -1.12689,6.43384 -0.44475,2.2655 -0.81932,4.54451 -1.29833,6.80335 -0.49775,2.48318 -0.88994,4.98298 -1.30908,7.48025 -0.50684,2.75068 -1.03641,5.49689 -1.59957,8.23665 -0.47822,2.27402 -0.97437,4.56074 -1.8397,6.72482 -0.77422,1.81606 -1.64491,3.59417 -2.7954,5.20667 -1.02822,1.35086 -2.20381,2.58431 -3.72893,3.3784 -1.30358,0.60288 -2.66764,1.00316 -4.10157,1.15 -1.40362,0.19758 -2.80624,0.41079 -4.21874,0.5353 -1.79346,0.16775 -3.58541,0.36208 -5.38401,0.466 -1.56951,0.0942 -3.13729,0.21698 -4.70799,0.28948 -1.85729,0.0832 -3.70991,0.22516 -5.55997,0.40952 -2.09684,0.18108 -4.19638,0.35812 -6.3013,0.40474 -2.3969,0.0599 -4.79495,0.0886 -7.18967,0.21677 -2.37983,0.10087 -4.76113,0.16699 -7.14264,0.21121 -2.33086,0.007 -4.649224,-0.14832 -6.965895,-0.40719 -2.32299,-0.18306 -4.645043,-0.39832 -6.974491,-0.47937 -2.325395,-0.0852 -4.651616,-0.14967 -6.97751,-0.21856 -2.432725,-0.0437 -4.865422,-0.0895 -7.297909,-0.14518 -2.506538,-0.0708 -5.01717,-0.13679 -7.506946,-0.46136 -2.30685,-0.29432 -4.618856,-0.58084 -6.893429,-1.07524 -2.008407,-0.45701 -4.012629,-0.95445 -5.963975,-1.61836 -0.296981,-0.11479 -0.597034,-0.22195 -0.89094,-0.34442 -0.287094,-0.11959 -1.101909,-0.56603 -0.851459,-0.38161 0.590403,0.43474 1.261245,0.74841 1.881204,1.13985 0.26134,0.16502 -0.541416,-0.29872 -0.804908,-0.46027 -0.78209,-0.47952 -0.804966,-0.52819 -1.519908,-1.08289 -1.437062,-1.29661 -2.651172,-2.78932 -3.821365,-4.32799 -1.254128,-1.77331 -2.585646,-3.50168 -3.664301,-5.3904 -1.123336,-2.1205 -2.12462,-4.30656 -2.838287,-6.60265 -0.620529,-2.17231 -1.023799,-4.39083 -1.419889,-6.61365 -0.435218,-2.3605 -0.865593,-4.72194 -1.341964,-7.07458 -0.48939,-2.53837 -1.037051,-5.07276 -1.3031,-7.645 -0.230629,-2.49851 -0.416183,-5.00208 -0.481551,-7.51103 -0.05071,-2.71835 -0.08329,-5.43722 -0.214838,-8.15334 -0.102223,-2.76854 -0.24117,-5.53715 -0.234065,-8.308285 -0.03383,-0.942559 -0.111592,-1.883951 -0.116426,-2.827107 -0.0075,-1.46155 0.194964,-2.920476 0.349687,-4.37021 0.190486,-1.468735 0.383435,-2.941536 0.702606,-4.388744 0,0 -1.026094,-0.547794 -1.026094,-0.547794 z" /><path
       style="fill:#000000;stroke-width:0.395995"
       id="path890"
       d="m 38.257814,86.621533 c -0.449768,1.03171 -0.341856,2.138948 -0.224012,3.225678 0.145985,1.842422 0.747548,3.565852 1.414827,5.272821 0.715809,1.891189 1.686366,3.65203 2.79084,5.339248 1.160273,1.64327 2.209954,3.36236 3.481236,4.92323 1.853241,2.31601 3.56484,3.15082 6.201383,4.67239 1.51726,0.65141 3.143971,0.98935 4.7375,1.39886 1.829786,0.51386 3.65888,1.02888 5.493264,1.52632 1.967208,0.53808 3.927531,1.0817 5.945276,1.38983 1.963415,0.24311 3.946043,0.27509 5.921961,0.31207 1.767168,0.009 3.534703,0.0551 5.301816,0.0301 1.500611,-0.0614 2.99958,-0.12263 4.501499,-0.092 1.347971,-0.008 2.693249,-0.0318 4.040606,0.0239 1.302128,0.10176 2.587869,0.24547 3.89415,0.15861 1.230375,-0.1463 2.448532,-0.35566 3.686345,-0.43371 1.243021,-0.0715 2.485808,-0.003 3.726686,0.0695 1.218099,0.0819 2.433119,0.20684 3.646709,0.33882 1.12843,0.15488 2.26729,0.19356 3.40387,0.24242 1.5058,0.0615 3.01196,-0.0494 4.51701,-0.0952 1.6241,-0.084 3.22258,0.15814 4.81862,0.41505 1.72297,0.24747 3.45047,0.45704 5.18012,0.6516 1.84153,0.26241 3.69392,0.39061 5.54935,0.49919 1.79619,0.13603 3.59737,0.13789 5.39679,0.0906 1.37136,0.0317 2.71843,-0.15933 4.06276,-0.40142 1.1593,-0.22723 2.32832,-0.36889 3.50776,-0.42177 1.11979,-0.0124 2.23677,-0.0592 3.34507,-0.22356 1.19191,-0.24913 2.31321,-0.74137 3.46374,-1.12892 1.27538,-0.399 2.57298,-0.71996 3.85364,-1.101 1.26949,-0.36757 2.46523,-0.91555 3.57693,-1.62498 1.2706,-0.95027 2.49098,-1.96782 3.70192,-2.99271 1.47089,-1.2335 2.86497,-2.55408 4.22113,-3.91155 1.57479,-1.61281 2.70252,-3.5858 3.82024,-5.52569 1.21944,-1.976134 1.109,-2.61025 0.71764,-4.823339 0,0 -0.10402,-0.05916 -0.10402,-0.05916 v 0 c -0.65095,0.303194 -1.71904,0.738884 -2.27097,1.235687 -0.45925,0.41338 -0.99791,1.423812 -1.30005,1.938126 -1.12239,1.91318 -2.27097,3.825756 -3.85607,5.401576 -1.34379,1.36235 -2.75558,2.65193 -4.23937,3.86125 -1.21913,1.00168 -2.42318,2.03175 -3.7337,2.91333 -1.10363,0.66619 -2.2759,1.19603 -3.52008,1.54555 -1.28803,0.37433 -2.59235,0.69257 -3.86713,1.11144 -1.13122,0.39597 -2.24566,0.87669 -3.43755,1.06069 -1.10189,0.13633 -2.20927,0.17321 -3.31845,0.20588 -1.18359,0.0728 -2.35819,0.22972 -3.52013,0.46931 -1.3156,0.24212 -2.63959,0.38351 -3.97915,0.39342 -1.78718,0.0479 -3.57388,0.0365 -5.35778,-0.0996 -1.84823,-0.11039 -3.69137,-0.26691 -5.52773,-0.50818 -1.7423,-0.21071 -3.4795,-0.45718 -5.21985,-0.68297 -1.52055,-0.11454 -3.04743,-0.20139 -4.57277,-0.17122 -1.51845,0.0476 -3.03908,0.12871 -4.55758,0.0349 -1.13491,-0.0547 -2.27041,-0.10891 -3.39747,-0.26184 -1.212744,-0.12286 -2.426493,-0.23954 -3.643062,-0.31767 -1.2513,-0.0756 -2.506027,-0.12928 -3.758507,-0.0395 -1.231443,0.0985 -2.444372,0.32899 -3.675014,0.43417 -1.294653,0.0496 -2.574245,-0.10372 -3.865739,-0.17511 -1.349992,-0.0507 -2.698885,-0.0221 -4.049451,-0.019 -1.490914,-0.003 -2.978125,0.0781 -4.467889,0.12554 -1.755297,0.0156 -3.510556,-0.0112 -5.265877,-0.0153 -1.963712,-0.0301 -3.935169,-0.0565 -5.882579,-0.33699 -1.893094,-0.29862 -3.780909,-0.6041 -5.614837,-1.17997 -1.841137,-0.49511 -3.671291,-1.02826 -5.509199,-1.53491 -1.586274,-0.41389 -3.212372,-0.75691 -4.701282,-1.46193 0.56584,0.3344 1.119074,0.69112 1.697528,1.0032 0.242674,0.13093 -0.465136,-0.29687 -0.688355,-0.45875 -1.01149,-0.73354 -1.948529,-1.58975 -2.795104,-2.50534 -1.339778,-1.58885 -2.575544,-3.25533 -3.712845,-4.99559 -1.109131,-1.675806 -2.109672,-3.412291 -2.8169,-5.301574 -0.679361,-1.706833 -1.289258,-3.460609 -1.567939,-5.282229 -0.104018,-1.089945 -0.195839,-2.202153 -0.09022,-3.294063 0,0 -1.509486,-0.837607 -1.509486,-0.837607 z" /><path
       style="fill:#000000;stroke-width:0.395995"
       id="path902"
       d="m 37.573592,86.936076 c 0.188981,-0.946717 0.294474,-1.909413 0.336929,-2.873463 0.127142,-1.031869 0.07597,-2.069823 0.133458,-3.106068 0.06651,-1.077493 0.286072,-2.135965 0.489003,-3.193719 0.231396,-1.234373 0.52562,-2.455214 0.760987,-3.688794 0.260035,-1.485437 0.441198,-2.982862 0.687436,-4.470436 0.268164,-1.456086 0.559461,-2.907678 0.768943,-4.373728 0.148111,-1.484335 0.263448,-2.970307 0.457209,-4.449903 0.175916,-1.456478 0.461675,-2.893105 0.871898,-4.30095 0.391907,-1.232634 0.865458,-2.437354 1.327498,-3.644874 0.504747,-1.361214 1.097797,-2.686317 1.690955,-4.01048 0.51878,-1.109837 0.947778,-2.257394 1.419714,-3.386935 0.237232,-0.775517 0.834742,-1.316806 1.262056,-1.976241 0.09954,-0.153623 0.455002,-0.7926 0.547253,-0.95693 0.546576,-1.028229 1.09701,-2.053464 1.687723,-3.057122 0.557368,-0.970766 1.233308,-1.859309 1.948985,-2.716622 0.773442,-0.907498 1.632933,-1.735603 2.503319,-2.548604 0.843522,-0.775505 1.71581,-1.519496 2.624232,-2.217835 0.603449,-0.452122 1.252817,-0.836709 1.878485,-1.255969 0.654437,-0.473315 1.256719,-1.014713 1.870554,-1.538703 0.687884,-0.618297 1.396628,-1.208832 2.166958,-1.721517 0.622891,-0.384319 1.233635,-0.787694 1.868816,-1.151685 0.553731,-0.332333 1.146496,-0.586259 1.737183,-0.843283 0.589743,-0.276304 1.204731,-0.483465 1.830368,-0.659936 0.656695,-0.177477 1.324196,-0.304069 1.977636,-0.49368 0.721597,-0.206807 1.447448,-0.398144 2.172678,-0.591647 0.698017,-0.187592 1.378658,-0.426478 2.050855,-0.690558 0.652702,-0.378322 1.419908,-0.416097 2.098228,-0.702999 0.46544,-0.256436 0.946455,-0.431081 1.475097,-0.47727 0.544712,0.0097 1.075757,-0.02794 1.609106,-0.138906 0.819398,-0.174894 1.587716,-0.521608 2.331798,-0.897526 0.802991,-0.435841 1.610057,-0.863783 2.441432,-1.243229 0.714249,-0.317557 1.441376,-0.60033 2.186923,-0.834796 0.725594,-0.211616 1.465617,-0.368711 2.208375,-0.506103 0.749661,-0.116262 1.506991,-0.183798 2.263301,-0.240909 0.761071,-0.03385 1.518539,-0.11059 2.275238,-0.195673 0.624887,-0.07254 1.252702,-0.11906 1.881887,-0.109841 0.676903,-0.01717 1.349809,0.05125 2.024645,0.06852 0.894635,0.01152 1.789066,-0.0088 2.683667,0.0048 0.95102,0.02739 1.90114,0.05319 2.84963,0.129701 0.95303,0.07051 1.90843,0.106833 2.86393,0.116397 0.98981,-0.0093 1.9776,0.02571 2.96422,0.102432 0.95474,0.04117 1.88482,0.254694 2.81643,0.447985 0.86359,0.147347 1.71791,0.333652 2.56497,0.556444 0.86303,0.271218 1.73444,0.49354 2.62711,0.639584 1.05343,0.175433 2.11145,0.320506 3.16673,0.48392 0.97945,0.139774 1.93913,0.366007 2.87007,0.699456 0.82846,0.342384 1.67433,0.635599 2.53702,0.878169 0.8912,0.206752 1.75736,0.48499 2.60218,0.834145 0.91274,0.404561 1.82346,0.813405 2.73701,1.216361 1.40437,0.624045 5.19173,2.866243 -0.56375,-0.443767 0.6805,0.404747 1.32325,0.869825 1.93223,1.375027 0.56822,0.493833 1.11939,1.005809 1.69799,1.487662 0.64457,0.553094 1.28379,1.111602 1.94035,1.650601 0.74428,0.582027 1.45245,1.206473 2.15414,1.838455 0.66972,0.567487 1.31537,1.156385 1.90456,1.807399 0.52281,0.599586 0.9963,1.239275 1.50621,1.849444 0.47573,0.5621 1.04112,1.035167 1.61537,1.491912 0.55677,0.420471 1.09918,0.857005 1.61222,1.329914 0.55146,0.565449 1.13683,1.091707 1.75033,1.588539 0.64801,0.498708 1.29181,1.002002 1.91281,1.534124 0.56514,0.480877 1.05853,1.036608 1.55727,1.58385 0.43583,0.494875 0.85894,1.001987 1.2502,1.532961 0.37986,0.529758 0.6295,1.133279 0.89153,1.72577 0.2534,0.604161 0.51641,1.203632 0.82504,1.781781 0.31367,0.607508 0.72813,1.152321 1.09666,1.725778 0.38388,0.623197 0.63123,1.314358 0.86861,2.002856 0.20322,0.719872 0.51883,1.389183 0.9233,2.015643 0.45665,0.57173 0.79275,1.185395 0.99997,1.885313 0.20998,0.900568 0.24167,1.829604 0.33489,2.746882 0.0976,1.019926 0.26315,2.028126 0.56129,3.008761 0.27354,0.768819 0.66983,1.486549 1.02459,2.219905 0.31269,0.65981 0.6386,1.313336 0.9642,1.966859 0.34762,0.756114 0.71414,1.499729 1.12826,2.221771 0.52379,0.839316 0.81637,1.767187 1.01649,2.727769 0.18258,1.138228 0.21109,2.293797 0.24444,3.443965 0.0338,1.124008 0.10297,2.246325 0.19936,3.366576 0.12482,1.200301 0.19344,2.403587 0.20778,3.610019 -0.007,1.327122 0.0308,2.653578 0.0907,3.979176 0.0531,1.14974 0.13305,2.297271 0.24298,3.442905 0.0853,0.978813 0.20491,1.953507 0.33014,2.927782 0.0955,0.841932 0.19852,1.682979 0.29272,2.525062 0.1106,0.782047 0.15981,1.565576 0.12048,2.354167 -0.0777,0.677521 -0.0588,1.359342 -0.0859,2.039384 -0.14607,1.461135 0.47315,2.225971 1.39151,3.297903 -0.009,0.116426 -0.0186,0.232852 -0.028,0.349274 0,0 0.10551,0.05669 0.10551,0.05669 v 0 c 0.0394,-0.100756 0.0787,-0.201528 0.11809,-0.302294 0.87707,-0.01679 0.55087,0.09636 1.17555,-0.221235 0.14203,-0.07219 0.31312,-0.106818 0.4232,-0.221946 0.25449,-0.266161 0.20365,-0.8406 0.27847,-1.16598 0.0573,-0.67606 0.0579,-1.353179 0.10776,-2.029519 0.0546,-0.807936 0.0171,-1.61016 -0.0922,-2.413195 -0.0885,-0.847313 -0.20107,-1.691837 -0.29754,-2.538261 -0.13426,-0.97372 -0.26812,-1.94716 -0.35608,-2.92651 -0.11973,-1.142059 -0.20256,-2.287594 -0.26822,-3.434003 -0.0739,-1.321894 -0.14921,-2.645077 -0.11165,-3.969705 0.004,-1.208003 8e-4,-2.416892 -0.1532,-3.617613 -0.094,-1.117074 -0.17336,-2.235313 -0.22067,-3.355456 -0.0471,-1.161732 -0.035,-2.329442 -0.1968,-3.483237 -0.15334,-0.99082 -0.39654,-1.960889 -0.92018,-2.82895 -0.40069,-0.715508 -0.78812,-1.434103 -1.10827,-2.190376 -0.32792,-0.65157 -0.65778,-1.302162 -0.97045,-1.961288 -0.34329,-0.730164 -0.72177,-1.442733 -1.05378,-2.177728 -0.33706,-0.947544 -0.53341,-1.931841 -0.61368,-2.935116 -0.0802,-0.932038 -0.1326,-1.869539 -0.2867,-2.79291 -0.16345,-0.744224 -0.43897,-1.423538 -0.9393,-2.010748 -0.42749,-0.588282 -0.77212,-1.213741 -0.97266,-1.917991 -0.23596,-0.711516 -0.4728,-1.42648 -0.83737,-2.085179 -0.33987,-0.589371 -0.77227,-1.114647 -1.10495,-1.708307 -0.31486,-0.567656 -0.60174,-1.147451 -0.84041,-1.751831 -0.26408,-0.605984 -0.49615,-1.22953 -0.84995,-1.791414 -0.36618,-0.55987 -0.8015,-1.065992 -1.23149,-1.57744 -0.4899,-0.56251 -0.99106,-1.118843 -1.53466,-1.630034 -0.61858,-0.542422 -1.25746,-1.060126 -1.91548,-1.554174 -0.61774,-0.478861 -1.22859,-0.970521 -1.75392,-1.552487 -0.51007,-0.494309 -1.0457,-0.959028 -1.62268,-1.374649 -0.57658,-0.442002 -1.15535,-0.886649 -1.64958,-1.422637 -0.53198,-0.593952 -1.00668,-1.233417 -1.509,-1.852151 -0.57019,-0.67911 -1.19929,-1.295873 -1.89034,-1.852925 -0.70281,-0.634236 -1.39927,-1.27672 -2.14801,-1.85747 -0.66149,-0.533882 -1.31218,-1.080131 -1.94335,-1.64969 -0.60605,-0.492059 -1.18241,-1.014512 -1.7732,-1.523823 -0.65406,-0.506009 -1.29773,-1.028808 -2.0043,-1.461731 -1.93874,-1.120635 -3.84902,-2.325033 -5.89813,-3.243644 -0.92361,-0.408097 -1.83564,-0.842718 -2.77054,-1.224525 -0.85429,-0.325115 -1.73104,-0.568539 -2.61471,-0.800265 -0.85789,-0.264878 -1.6977,-0.576221 -2.53658,-0.895617 -0.94342,-0.296033 -1.91027,-0.495443 -2.88958,-0.632415 -1.0549,-0.1591 -2.11273,-0.301027 -3.16248,-0.492375 -0.88212,-0.170256 -1.74271,-0.417015 -2.60702,-0.660107 -0.85629,-0.215828 -1.72038,-0.391109 -2.58859,-0.552041 -0.93596,-0.194599 -1.87784,-0.354036 -2.83482,-0.398729 -0.98661,-0.0638 -1.97388,-0.0775 -2.9624,-0.07542 -0.95598,-0.02098 -1.91198,-0.05536 -2.864419,-0.144669 -0.953529,-0.06808 -1.909612,-0.0855 -2.865048,-0.110798 -0.903357,-0.0063 -1.806688,-0.009 -2.710017,-0.01908 -0.616811,0.01586 -1.231469,0.107386 -1.852362,0.06105 -0.629748,0.02068 -1.257289,0.07711 -1.882608,0.154231 -0.755778,0.08419 -1.513514,0.137694 -2.272443,0.184682 -0.761875,0.06729 -1.526897,0.128041 -2.278024,0.277892 -0.749259,0.150485 -1.499686,0.307025 -2.225809,0.549019 -0.742852,0.255619 -1.469377,0.556034 -2.180797,0.88939 -0.826913,0.395453 -1.63499,0.826768 -2.453294,1.239408 -0.74921,0.339412 -1.514048,0.655801 -2.333234,0.779184 -0.535555,0.07594 -1.073314,0.06942 -1.610588,0.124688 -0.532574,0.104782 -1.009811,0.351989 -1.487421,0.603926 -0.278155,0.158465 -0.434707,0.392922 -0.699276,0.556877 -0.292518,0.181274 -0.656555,0.244559 -0.960039,0.403041 -0.671354,0.252956 -1.354323,0.472124 -2.049048,0.652239 -0.726726,0.192183 -1.449758,0.397947 -2.175931,0.592211 -0.659502,0.169745 -1.328614,0.30151 -1.980889,0.499014 -0.623907,0.193161 -1.226631,0.439516 -1.817373,0.718305 -0.586746,0.274105 -1.170926,0.555979 -1.727108,0.88899 -0.62692,0.38061 -1.238431,0.786592 -1.854937,1.183669 -0.765173,0.534612 -1.475007,1.138139 -2.17899,1.750258 -0.612736,0.515849 -1.221436,1.040345 -1.886454,1.488914 -0.624322,0.416918 -1.232357,0.858801 -1.828773,1.314592 -0.894668,0.722329 -1.759632,1.480102 -2.606708,2.257636 -0.877186,0.822463 -1.731058,1.670218 -2.525463,2.573771 -0.740651,0.859394 -1.415809,1.768463 -1.975593,2.757909 -0.593624,1.004821 -1.149553,2.030837 -1.703836,3.05776 -0.557744,1.034785 -0.950942,2.113156 -1.417785,3.189193 -0.462974,1.133271 -0.859995,2.293164 -1.377426,3.40412 -0.579654,1.333301 -1.151185,2.670208 -1.704873,4.014524 -0.481534,1.20893 -0.942762,2.427213 -1.325797,3.67148 -0.397688,1.425227 -0.700376,2.871338 -0.868345,4.343101 -0.18531,1.476726 -0.339733,2.956274 -0.475538,4.438345 -0.18847,1.470959 -0.480216,2.924087 -0.734659,4.384592 -0.238801,1.481149 -0.463306,2.964773 -0.727665,4.441645 -0.237485,1.230404 -0.52628,2.44942 -0.785337,3.675262 -0.20896,1.065975 -0.438085,2.133324 -0.512367,3.219281 -0.05469,1.0794 -0.03974,2.156891 0.08986,3.230889 0.01564,0.999828 0.04502,1.998465 -0.03821,2.996479 0,0 1.629885,0.86302 1.629885,0.86302 z" /><path
       style="fill:#000000;stroke-width:0.395995"
       id="path906"
       d="m 61.820713,92.133537 c -0.14398,1.519084 -0.304984,3.054175 -0.284618,4.581453 0.0269,1.57745 0.09342,3.202781 0.550635,4.72118 0.219116,0.60524 0.542046,1.1757 1.113013,1.5206 2.401242,1.45047 3.175409,2.07927 5.398675,2.57681 2.037875,0.40934 4.128099,0.32106 6.192675,0.24648 2.125821,-0.0747 4.244585,-0.27019 6.356495,-0.51772 1.807617,-0.1937 3.581344,-0.59726 5.376426,-0.87089 1.485254,-0.22884 2.977949,-0.39828 4.470934,-0.56616 1.313168,-0.13133 2.111039,-0.2793 3.03244,-1.26597 0.901581,-1.16605 1.32184,-2.589321 1.654871,-4.001971 0.240183,-1.311115 0.547777,-2.6262 0.51616,-3.96599 -0.300148,-2.237222 -3.15182,-2.94315 -5.135997,-3.456836 -1.476313,-0.45657 -2.989047,-0.772844 -4.477268,-1.186198 -1.670648,-0.548165 -3.380428,-0.925173 -5.120232,-1.16343 -1.523401,-0.203443 -3.057561,-0.145836 -4.577296,0.04577 -1.466726,0.267959 -2.927904,0.553764 -4.40543,0.756993 -1.463024,0.194086 -2.936652,0.281569 -4.402531,0.449055 -1.396386,0.209953 -2.802552,0.305697 -4.210469,0.390578 -0.57268,0.09272 -1.179511,0.114166 -1.736874,0.291278 -0.127487,0.04051 -0.356427,0.03838 -0.362589,0.171992 -0.01437,0.309867 0.754026,0.934007 0.888609,1.059616 0,0 0.102193,0.07826 0.102193,0.07826 v 0 c 0.728983,0.426082 1.391332,0.895015 2.228704,1.091726 0.648019,0.152232 1.551608,-0.398054 2.225837,-0.296831 1.398493,-0.108015 2.792831,-0.248771 4.184072,-0.428961 1.475438,-0.149785 2.957047,-0.242475 4.426006,-0.450338 1.463995,-0.220961 2.90634,-0.553992 4.371411,-0.766436 1.49313,-0.153396 2.992273,-0.186652 4.484839,0.01048 1.656137,0.217704 3.296223,0.530777 4.886733,1.052267 1.522159,0.41404 3.05732,0.780241 4.562605,1.254821 0.182494,0.05551 0.367603,0.103061 0.547486,0.16652 0.159235,0.05617 0.61142,0.282321 0.46876,0.191998 -0.980425,-0.620707 -1.990414,-1.193454 -2.987676,-1.786725 -0.09601,-0.05711 0.202861,0.10125 0.283841,0.178213 0.194086,0.184455 0.207854,0.361742 0.280658,0.608118 0.167213,1.314085 -0.09341,2.62654 -0.368517,3.910107 -0.321505,1.34613 -0.711468,2.701894 -1.625434,3.779274 -0.838124,0.80529 -1.715961,0.95938 -2.850103,1.07507 -1.478318,0.18469 -2.954449,0.38343 -4.425848,0.61813 -1.766835,0.30706 -3.521141,0.68998 -5.303499,0.90282 -2.074055,0.25164 -4.157061,0.41192 -6.240432,0.56447 -2.059352,0.0788 -4.142124,0.14732 -6.161129,-0.34873 -1.706612,-0.47279 -3.279066,-1.44673 0.817781,0.94233 0.201194,0.11733 -0.401297,-0.23956 -0.582362,-0.38605 -0.496555,-0.40175 -0.542077,-0.55075 -0.896747,-1.07185 -0.151483,-0.37288 -0.434415,-1.04505 -0.541578,-1.41745 -0.323081,-1.12276 -0.382975,-2.319132 -0.561015,-3.467443 -0.06739,-1.539668 -0.23189,-3.07994 0.113164,-4.603617 0,0 -2.277381,-1.216771 -2.277381,-1.216771 z" /><path
       style="fill:#000000;stroke-width:0.395995"
       id="path908"
       d="m 96.150542,99.501532 c 0.973601,0.161795 1.927945,0.391647 2.911593,0.500118 1.301275,0.0433 2.584545,-0.234406 3.868145,-0.410262 0.26756,-0.02392 1.0544,-0.08387 0.7304,-0.606749 -0.57875,-0.933962 -0.55127,-0.285762 -0.54487,-0.774198 0,0 -0.12685,-0.08486 -0.12685,-0.08486 v 0 c -0.74663,-0.102806 0.12038,0.04631 -1.30382,-0.518382 -0.59747,-0.236892 -1.21073,-0.323238 -1.840149,-0.190239 -1.260056,0.192818 -2.531774,0.451383 -3.811706,0.325856 -1.00108,-0.140927 -1.973723,-0.418186 -2.978419,-0.530491 0,0 3.095682,2.289216 3.095682,2.289216 z" /><path
       style="fill:#000000;stroke-width:0.395995"
       id="path924"
       d="m 91.28995,217.95545 c 0.994562,0.48197 2.020721,0.88462 3.062548,1.25108 1.325886,0.42899 2.664928,0.81356 4.023991,1.12174 1.500378,0.3638 3.035061,0.45314 4.571921,0.4116 1.40095,-0.0819 2.80396,-0.12362 4.20492,-0.2038 1.55027,-0.15401 3.0956,-0.35579 4.63674,-0.58357 1.58653,-0.22052 3.1683,-0.4477 4.72847,-0.81395 1.19877,-0.25565 2.39971,-0.48992 3.58962,-0.78532 0.42605,-0.14548 2.47278,-0.40461 1.9899,-1.2914 -0.20616,-0.37859 -0.55239,-0.66197 -0.82859,-0.99294 0.0247,-0.10282 0.0495,-0.20574 0.0742,-0.30859 0,0 -0.10148,-0.0636 -0.10148,-0.0636 v 0 c -0.13672,0.0301 -0.27343,0.0602 -0.41015,0.0901 -0.5049,-0.18822 -0.9952,-0.42162 -1.51471,-0.56468 -1.06278,-0.29263 -2.05683,0.2309 -3.06714,0.46896 -1.17687,0.29212 -2.37118,0.50514 -3.54542,0.80899 -1.52284,0.35961 -3.06235,0.63154 -4.61206,0.84832 -1.49979,0.22326 -2.99022,0.53024 -4.50559,0.62589 -1.38808,0.071 -2.77517,0.16152 -4.164048,0.21425 -1.4808,0.0154 -2.952477,-0.10237 -4.403327,-0.41512 -1.286873,-0.28983 -2.568253,-0.61944 -3.823023,-1.02733 -0.997687,-0.35197 -1.986273,-0.73928 -2.928567,-1.22256 0,0 3.021823,2.4318 3.021823,2.4318 z" /><path
       style="fill:#000000;stroke-width:0.395995"
       id="path926"
       d="m 94.073578,217.54525 c -0.0072,0.50528 -0.272555,0.93973 -0.403519,1.4062 -0.189357,0.67446 -0.266406,1.43183 -0.355271,2.12479 -0.157031,1.86145 -0.381691,3.71586 -0.595061,5.5714 -0.281905,2.42997 -0.600742,4.85524 -0.854447,7.28837 -0.246637,2.44238 -0.547523,4.87877 -0.887718,7.30976 -0.316805,2.28524 -0.887793,4.52178 -1.463322,6.75232 -0.496129,1.99869 -1.072707,3.97436 -1.682115,5.94096 -0.09643,0.30075 -0.17882,0.60637 -0.289279,0.90227 -0.11228,0.30078 -0.263491,0.58596 -0.378238,0.88582 -0.450979,1.17856 -0.779746,2.41065 -1.182726,3.60664 -0.504692,1.55662 -1.210708,3.0331 -2.047121,4.4361 -0.619629,1.01033 -1.346961,1.94568 -2.174354,2.79276 -0.790268,0.76831 -1.752028,1.31327 -2.704105,1.85196 -1.030007,0.57327 -2.093973,1.08281 -3.184477,1.52955 -1.152171,0.39587 -1.904566,0.29675 -2.912738,-0.3471 4.822302,2.90881 2.783101,1.71948 1.856104,0.69185 -0.423965,-0.46999 -0.780296,-0.98453 -1.134411,-1.50727 -0.704974,-1.08852 -1.229588,-2.27965 -1.736114,-3.46961 -0.636276,-1.52373 -1.059778,-3.12598 -1.483026,-4.719 -0.435514,-1.74578 -0.751055,-3.51922 -0.972139,-5.30412 -0.173406,-2.17754 -0.315079,-4.35901 -0.437576,-6.54041 -0.106623,-2.37537 -0.143127,-4.75464 -0.120138,-7.13228 0.0327,-2.22328 0.187619,-4.44215 0.331337,-6.66028 0.122907,-2.24474 0.241026,-4.48968 0.370623,-6.73406 0.100801,-2.16356 0.181264,-4.32749 0.347965,-6.48722 0.18413,-2.56317 0.53815,-5.10894 0.983787,-7.63844 0.434981,-2.1075 0.988812,-4.18567 1.397997,-6.29881 0.419367,-2.14338 0.752613,-4.29943 0.974573,-6.47186 0.252652,-2.238 0.508896,-4.47463 0.700966,-6.71891 0.140627,-2.25798 0.473828,-4.4939 0.82192,-6.72683 0.305471,-1.92758 0.558119,-3.86311 0.812019,-5.79803 0.246511,-1.81684 0.616073,-3.61348 0.939763,-5.4174 0.433834,-1.84289 -0.199949,-1.96298 -1.211745,-3.37767 0,0 -0.104977,-0.0576 -0.104977,-0.0576 v 0 c -1.671068,0.0645 -2.087745,-0.4401 -2.295421,1.52129 -0.262395,1.8237 -0.623252,3.63035 -0.893995,5.45263 -0.27581,1.93203 -0.537132,3.86612 -0.799775,5.79996 -0.311368,2.24829 -0.625051,4.4971 -0.806643,6.76057 -0.209057,2.24159 -0.426043,4.48231 -0.689003,6.71837 -0.231108,2.15717 -0.569042,4.29583 -0.990035,6.42448 -0.40919,2.11914 -0.915601,4.21562 -1.360196,6.32717 -0.439452,2.5416 -0.729106,5.10612 -1.003338,7.67016 -0.176284,2.16217 -0.341601,4.32581 -0.360026,6.49641 -0.07172,2.24824 -0.196738,4.49435 -0.342085,6.73898 -0.153416,2.22969 -0.31838,4.46129 -0.309985,6.69776 -0.0096,2.40348 0.0097,4.80419 0.202521,7.20186 0.130031,2.19655 0.273046,4.39148 0.474093,6.58284 0.193562,1.80897 0.549062,3.59133 0.969923,5.36082 0.411046,1.62711 0.918688,3.22391 1.514967,4.79317 0.504199,1.21246 1.047181,2.4139 1.726898,3.53973 1.539288,2.39692 2.567276,3.1215 5.503702,4.60745 1.095795,0.54016 1.93629,0.49218 3.074511,0.0548 1.104668,-0.45116 2.171115,-0.99035 3.21877,-1.56084 0.98715,-0.54868 1.975145,-1.122 2.76845,-1.93989 0.82845,-0.88178 1.564034,-1.84932 2.172948,-2.89648 0.802634,-1.45065 1.472084,-2.96832 2.019326,-4.53401 0.602028,-1.82814 1.150568,-3.6669 1.618226,-5.53166 0.598154,-1.97747 1.147649,-3.96972 1.660293,-5.971 0.559957,-2.24968 1.126162,-4.50523 1.438998,-6.80535 0.339198,-2.43564 0.639347,-4.877 0.884752,-7.32398 0.251584,-2.4246 0.537884,-4.8438 0.90574,-7.25393 0.249905,-1.84726 0.469948,-3.69864 0.648905,-5.55419 0.04652,-0.73988 0.109302,-1.5104 0.0924,-2.25145 -0.01212,-0.53036 -0.134042,-1.03694 0.05337,-1.55929 0,0 -2.320745,-1.25026 -2.320745,-1.25026 z" /><path
       style="fill:#000000;stroke-width:0.395995"
       id="path928"
       d="m 73.705486,173.60093 c -0.916083,1.83524 -1.669986,3.74585 -2.47811,5.63004 -1.518961,3.58777 -3.077377,7.155 -4.484379,10.78843 -1.285515,3.18247 -2.275408,6.47167 -3.482305,9.68229 -0.692901,1.8984 -1.739223,3.59999 -3.035862,5.13766 -1.090159,1.1927 -2.238968,2.33929 -3.521382,3.32508 -0.292214,0.15251 -0.591846,0.37994 -0.952142,0.32938 -0.135958,-0.0191 -0.494286,-0.23933 -0.370858,-0.17919 0.554124,0.26997 1.056689,0.69746 1.662958,0.80869 0.21887,0.0401 -0.270144,-0.36056 -0.350824,-0.56794 -0.100038,-0.25714 -0.122712,-0.53799 -0.184074,-0.80699 -0.461338,-3.72597 -0.08513,-7.49144 0.336596,-11.20213 0.724844,-5.29767 2.099843,-10.4506 3.771742,-15.51803 1.000704,-3.01424 2.249572,-5.93668 3.369558,-8.90593 0.222446,-0.58975 0.528238,-1.16033 0.632701,-1.78191 0.100876,-0.6002 -0.01759,-1.21711 -0.02637,-1.82568 -0.284012,-1.92599 -0.397484,-1.08227 0.06889,-2.55302 0,0 -0.104961,-0.0576 -0.104961,-0.0576 v 0 c -0.443721,1.39961 -0.03975,0.75203 -1.398092,1.81337 -0.385585,0.38835 -0.858166,0.70646 -1.156757,1.16508 -0.341348,0.5243 -0.498752,1.14785 -0.72805,1.72993 -1.168379,2.96608 -2.160878,6.00086 -3.216023,9.00768 -1.66778,5.0867 -3.230967,10.24221 -3.75728,15.59403 -0.407725,3.79024 -0.834397,7.6853 -0.06852,11.45782 0.04147,0.1118 0.505096,1.4413 0.639639,1.54972 1.615192,1.30143 2.261088,2.15997 3.773935,1.16239 1.24798,-1.04148 2.408361,-2.18784 3.498158,-3.39325 1.293733,-1.5847 2.309718,-3.32167 2.930112,-5.28553 1.10616,-3.26055 2.018996,-6.58538 3.261379,-9.79955 1.392216,-3.64096 2.659187,-7.33248 4.371493,-10.84136 0.850934,-1.84706 1.671131,-3.72259 2.758265,-5.44667 0,0 -1.759431,-1.01681 -1.759431,-1.01681 z" /><path
       style="fill:#000000;stroke-width:0.395995"
       id="path910"
       d="m 102.74854,93.095662 c -0.242,1.310454 -0.37772,2.640978 -0.47122,3.969736 -0.11818,1.361185 -0.0646,2.721219 0.23926,4.053152 0.67814,2.44671 2.75788,2.91893 4.98437,4.21482 1.53231,0.53232 3.17624,0.49699 4.77703,0.51111 1.81266,0.0465 3.62329,-0.0701 5.43037,-0.19704 1.41686,-0.14134 2.8328,-0.28756 4.25243,-0.39947 1.19864,-0.11125 2.39989,-0.17626 3.60205,-0.23141 1.04903,-0.066 2.0948,-0.17669 3.14052,-0.28178 0.87894,-0.0523 1.74838,-0.173 2.61665,-0.31417 0.9078,-0.12101 1.81637,-0.23887 2.72608,-0.34494 0.8121,-0.054 1.60265,-0.2181 2.3794,-0.45398 0.7597,-0.24559 1.45909,-0.62154 2.09679,-1.09747 0.80379,-0.58684 1.18507,-1.46502 1.47933,-2.38359 0.31385,-1.225211 0.33355,-2.486369 0.2368,-3.739137 -0.0551,-0.786674 -0.0805,-1.484579 -0.6648,-2.057156 -3.03023,-2.208885 -3.66283,-2.339892 -6.44352,-2.922626 -1.33544,-0.230719 -2.67149,-0.466232 -4.01792,-0.622924 -1.46144,-0.08495 -2.9306,-0.09255 -4.39295,-0.02139 -1.43561,0.08772 -2.86443,0.254692 -4.29497,0.399575 -1.34368,0.103674 -2.68773,0.19536 -4.03019,0.314717 -1.05551,0.106818 -2.09371,0.321006 -3.1546,0.370818 -1.07784,0.01003 -2.15436,-0.06154 -3.22302,-0.198081 -1.00566,-0.126888 -2.00909,-0.27088 -3.0174,-0.37534 -1.05787,-0.09555 -2.1231,-0.100906 -3.14045,0.228303 -0.38118,0.77979 -0.24612,0.241925 0.81938,1.447917 0,0 0.0974,0.0696 0.0974,0.0696 v 0 c 2.32917,1.154876 1.31123,0.883354 2.92944,1.186511 1.04959,-0.03414 2.09746,-0.224857 3.14666,-0.07133 0.99781,0.106069 1.99099,0.249841 2.98859,0.357988 1.0872,0.104243 2.18073,0.18036 3.27334,0.131199 1.05143,-0.08519 2.08441,-0.298913 3.13412,-0.402046 1.33168,-0.129223 2.66529,-0.23452 3.99911,-0.338683 1.43254,-0.130465 2.86137,-0.317316 4.30022,-0.366347 1.41408,-0.05823 2.832,-0.170571 4.24327,0.0093 1.33417,0.178519 2.66153,0.409613 3.98622,0.647219 2.3519,0.501559 4.56434,1.659515 -1.33048,-1.49192 0.70391,0.410167 1.00029,1.043039 1.07524,1.854853 0.13616,1.198083 0.16902,2.412066 -0.1753,3.582564 -0.26495,0.845148 -0.61644,1.614609 -1.36464,2.139636 -0.62138,0.42664 -1.28865,0.77752 -2.02005,0.97605 -0.76431,0.20703 -1.54289,0.33232 -2.33147,0.40581 -0.91152,0.11403 -1.82278,0.23153 -2.73271,0.35738 -0.85943,0.12659 -1.72207,0.222 -2.58645,0.30816 -1.03606,0.10419 -2.07168,0.22146 -3.11194,0.27481 -1.19823,0.0566 -2.39452,0.14083 -3.58821,0.26061 -1.40911,0.12759 -2.81593,0.27431 -4.2237,0.41563 -1.75124,0.14309 -3.50431,0.25381 -5.26186,0.27815 -1.54538,-0.006 -3.17555,0.0444 -4.60547,-0.62457 0.93684,0.55251 1.86715,1.11624 2.81052,1.65754 0.1426,0.0818 -0.27718,-0.17773 -0.40712,-0.27848 -0.53201,-0.41247 -0.87492,-0.94379 -1.06774,-1.58787 -0.35882,-1.29824 -0.47256,-2.63751 -0.35573,-3.981708 0.0914,-1.324727 0.1958,-2.645972 0.42636,-3.955152 0,0 -3.17707,-1.684584 -3.17707,-1.684584 z" /><path
       style="fill:#000000;stroke-width:0.395995"
       id="path930"
       d="m 134.66675,172.84749 c 0.0271,2.41611 1.09415,4.73458 1.94036,6.95648 1.48152,3.70164 3.18994,7.30587 5.00471,10.85409 1.24936,2.46284 2.84707,4.70211 4.96461,6.47978 1.88765,1.2491 1.74424,1.18698 4.94359,2.81773 0.59684,0.30423 1.54326,0.45872 2.20298,0.29067 0.1861,-0.0474 0.35055,-0.15691 0.52583,-0.23537 0.13006,-0.15266 0.29097,-0.28366 0.39005,-0.45801 0.6716,-1.18171 -0.0325,-4.15998 -0.22709,-5.44146 -0.64053,-3.98145 -1.49096,-7.92327 -2.41101,-11.84811 -1.06209,-4.47097 -2.40164,-8.88218 -4.11645,-13.14583 -1.5794,-2.88432 -0.9009,-1.47252 -2.07513,-4.21613 0,0 -0.10782,-0.0521 -0.10782,-0.0521 v 0 c -0.0968,2.04524 0.0115,1.01912 -0.33192,3.07762 0.11809,0.64092 0.18993,1.29212 0.35426,1.92277 0.18513,0.71049 0.46034,1.39441 0.6917,2.09122 0.97153,2.92595 1.896,5.86784 2.58158,8.8768 0.88001,3.86868 1.59457,7.77265 2.17212,11.69816 0.14084,1.08925 0.70781,3.99911 0.11749,5.00844 -0.0711,0.12153 -0.19461,0.2033 -0.29191,0.30493 -0.14563,0.0486 -0.28512,0.12258 -0.43686,0.14608 -1.5407,0.23818 -4.34144,-1.86839 0.38362,1.08817 0.29283,0.18322 -0.59362,-0.35339 -0.89044,-0.53009 -2.2752,-1.75597 -3.87022,-3.90963 -5.23558,-6.43316 -1.88438,-3.51624 -3.63562,-7.10866 -5.06885,-10.83516 -0.77982,-2.14274 -1.65839,-4.35921 -1.80436,-6.65593 0,0 -3.27544,-1.76163 -3.27544,-1.76163 z" /><path
       style="fill:#000000;stroke-width:0.395995"
       id="path932"
       d="m 135.10798,174.40873 c -0.0789,0.10626 -0.18503,0.19708 -0.23667,0.319 -0.4823,1.13843 -0.25293,4.28543 -0.20981,5.51164 0.21227,3.67588 0.60765,7.33779 0.89171,11.00861 0.25214,3.1935 0.44676,6.39066 0.62197,9.58915 0.14151,2.66743 0.35772,5.3303 0.59324,7.99085 0.28928,2.59408 0.68934,5.17389 1.03649,7.76052 0.28829,2.19776 0.47471,4.40644 0.61838,6.61771 0.15708,2.0575 0.10687,4.12032 0.0561,6.18046 -0.0921,2.2271 -0.0658,4.45333 0.0352,6.67922 0.0916,2.20525 0.33487,4.4 0.42048,6.60522 0.0649,1.65354 -0.0777,3.29246 -0.45753,4.90084 -0.36105,1.39951 -0.65474,2.81404 -0.92649,4.23308 -0.26021,1.32024 -0.45766,2.65185 -0.61575,3.98786 -0.14577,1.43907 -0.3718,2.86764 -0.60966,4.29376 -0.17335,1.23922 -0.60144,2.39286 -1.20165,3.48249 -0.50891,0.84688 -1.11742,1.62744 -1.70508,2.41996 -0.60459,0.85183 -1.37457,1.55847 -2.17389,2.22235 -0.88002,0.64738 -1.68406,1.38919 -2.64926,1.90846 -1.01488,0.43977 -2.11033,0.64828 -3.20113,0.79499 -0.49004,0.0238 -1.04929,0.12886 -1.52167,-0.0707 -0.0952,-0.0403 -0.35417,-0.21305 -0.26385,-0.1628 1.06998,0.59524 2.1354,1.19862 3.20311,1.79795 -0.75208,-0.65663 -1.19754,-1.582 -1.65486,-2.45215 -0.7176,-1.35476 -1.39043,-2.73049 -1.99065,-4.14113 -0.80723,-1.88863 -1.28683,-3.88253 -1.68296,-5.89026 -0.36203,-2.06138 -0.64633,-4.13553 -0.88281,-6.21477 -0.22715,-2.18581 -0.42291,-4.37448 -0.62151,-6.56295 -0.21202,-2.24571 -0.53097,-4.47869 -0.73408,-6.72538 -0.15672,-2.20843 -0.20879,-4.42212 -0.24692,-6.63515 -0.0144,-1.84914 -0.11098,-3.69628 -0.27218,-5.53807 -0.18564,-1.74855 -0.39111,-3.49478 -0.57715,-5.24337 -0.3298,-1.51549 -0.007,-3.43161 -0.98429,-4.75616 -0.332,-0.44985 -0.77542,-0.80563 -1.16313,-1.20845 -0.0834,-0.20169 -0.16675,-0.4034 -0.25013,-0.60509 0,0 -0.10779,-0.0521 -0.10779,-0.0521 v 0 c -0.007,0.15688 -0.0151,0.31376 -0.0226,0.47064 -0.31723,0.0521 -0.6788,-0.0135 -0.95169,0.15646 -0.73288,0.45644 0.007,3.49951 0.003,4.2676 0.16992,1.75011 0.36726,3.4974 0.5803,5.24277 0.1949,1.84231 0.29609,3.69003 0.34299,5.54206 0.0642,2.22636 0.1098,4.4543 0.27796,6.67602 0.16851,2.24156 0.47508,4.46723 0.68491,6.70501 0.20707,2.1912 0.41863,4.38201 0.62782,6.57298 0.2173,2.08605 0.44148,4.17388 0.8484,6.23341 0.38535,2.01333 0.81997,4.02523 1.59195,5.93222 0.56223,1.41072 1.19939,2.78512 1.89762,4.13396 0.44382,0.89492 0.87639,1.81038 1.51741,2.58533 2.51543,1.49272 3.21792,2.65236 5.63569,2.25184 1.11397,-0.19273 2.2372,-0.42874 3.25953,-0.92773 0.96718,-0.55846 1.81149,-1.28987 2.69569,-1.9687 0.81536,-0.69326 1.60532,-1.42108 2.22309,-2.30266 0.59479,-0.80866 1.21235,-1.60596 1.71224,-2.47859 0.61348,-1.13224 1.05082,-2.33217 1.23179,-3.61399 0.25711,-1.42511 0.48454,-2.85583 0.65691,-4.29388 0.15228,-1.33099 0.32055,-2.65947 0.58466,-3.97398 0.25438,-1.41716 0.54696,-2.82694 0.91756,-4.21885 0.37132,-1.66139 0.50039,-3.34235 0.40938,-5.04573 -0.12017,-2.20567 -0.32631,-4.40529 -0.43435,-6.61173 -0.10143,-2.21295 -0.13521,-4.42743 -0.0252,-6.6413 0.0757,-2.06836 0.13835,-4.13966 -0.0212,-6.20638 -0.16776,-2.22581 -0.37306,-4.44998 -0.65305,-6.66466 -0.37897,-2.59294 -0.83219,-5.17566 -1.11065,-7.78271 -0.32538,-2.66788 -0.53856,-5.34573 -0.70303,-8.02828 -0.22973,-3.22728 -0.48953,-6.45239 -0.7792,-9.67483 -0.30642,-3.64484 -0.61168,-7.29153 -0.80313,-10.94437 -0.0341,-1.3456 -0.0805,-2.68893 0.0453,-4.03182 0.25898,-2.76419 -0.0344,0.68977 0.21352,-1.30571 0.0158,-0.12677 0.003,-0.25541 0.005,-0.38311 0,0 -2.99457,-1.71683 -2.99457,-1.71683 z" /><path
       style="fill:#000000;stroke-width:0.395995"
       id="path934"
       d="m 67.122447,253.90088 c 2.562069,1.72197 5.33274,2.75171 8.320226,3.41287 1.494196,-0.23633 0.754471,-0.0783 2.219022,-0.47487 0,0 -0.09642,-0.0709 -0.09642,-0.0709 v 0 c -2.910437,-0.67632 -1.45843,-0.29121 -4.355158,-1.15859 -1.370726,-0.35859 -2.682967,-0.76778 -4.008682,-1.26593 -0.289647,-0.10881 -0.580189,-0.21545 -0.86761,-0.33003 -0.195649,-0.078 -0.757412,-0.36322 -0.581328,-0.24764 0.614057,0.40307 1.2675,0.74268 1.901251,1.11402 0,0 -2.5313,-0.97884 -2.5313,-0.97884 z" /><path
       style="fill:#000000;stroke-width:0.395995"
       id="path936"
       d="m 121.83012,256.93825 c 2.72185,0.39255 5.4749,-0.31905 8.13796,-0.82262 1.22038,-0.30887 2.1441,-0.4232 3.20805,-1.11716 0.39413,-0.25707 0.63791,-0.71501 1.04798,-0.9458 0.48143,-0.27094 1.04728,-0.35206 1.57091,-0.52808 0,0 -0.099,-0.0673 -0.099,-0.0673 v 0 c -0.53916,0.16504 -1.05702,0.43337 -1.61749,0.49513 -0.81848,0.0901 -1.64648,-0.0525 -2.46988,-0.0449 -2.21297,0.0207 -2.15435,0.0774 -4.27975,0.36159 -1.7409,0.29847 -3.47846,0.59123 -5.23681,0.76905 -0.25918,0.0262 -1.66325,0.12438 -2.03914,0.18119 -0.14244,0.0215 -0.27907,0.0717 -0.41861,0.10746 0,0 2.19578,1.61144 2.19578,1.61144 z" /><path
       style="fill:#000000;stroke-width:0.395995"
       id="path938"
       d="m 73.090866,200.85655 c 1.542555,0.20832 3.072724,0.43271 4.628538,0.54862 3.122096,0.27307 6.244201,0.0232 9.355637,-0.2443 3.420072,-0.0799 6.847042,0.0313 10.259684,0.2784 3.402565,0.33624 6.798365,0.71536 10.209605,0.95556 3.24533,0.0277 6.49062,0.0757 9.73605,0.10612 3.29066,0.0338 6.5424,-0.50692 9.80713,-0.83094 1.41131,-0.0905 1.57801,-0.12213 2.97329,-0.13081 0.43434,-0.003 1.85859,0.10417 2.37142,-0.14263 0.18212,-0.0877 0.23675,-0.32768 0.35513,-0.49154 0.20328,-0.0512 0.40655,-0.10237 0.60982,-0.15363 0,0 -0.0964,-0.0709 -0.0964,-0.0709 v 0 c -1.81171,-0.40066 -0.7915,-0.1341 -3.04031,-0.87371 -1.93827,-0.48756 -3.9514,-0.1909 -5.9137,-0.0849 -3.24661,0.35327 -6.48682,0.89449 -9.76402,0.81347 -3.2265,-0.0588 -6.45185,-0.0578 -9.67849,-0.0793 -3.37992,-0.10462 -6.727146,-0.54753 -10.090289,-0.87509 -2.144875,-0.14443 -4.348664,-0.35531 -6.497697,-0.17026 -0.501667,0.0433 -0.995576,0.15176 -1.494299,0.22111 -0.531493,0.0739 -1.064162,0.13919 -1.596241,0.20872 -3.144213,0.24867 -6.300516,0.4648 -9.44889,0.12631 -1.541597,-0.16409 -3.075928,-0.38219 -4.617482,-0.54417 0,0 1.931557,1.43399 1.931557,1.43399 z" /><path
       style="fill:#000000;stroke-width:0.395995"
       id="path940"
       d="m 139.01059,179.67837 c 0.86207,-0.11599 1.54296,-0.62979 2.18504,-1.18999 0.37982,-0.33138 0.84012,-0.61079 1.08909,-1.04908 0.32109,-0.56525 0.2286,-1.31089 0.56685,-1.86604 0.3622,-0.59443 0.98161,-0.98721 1.47241,-1.48081 0,0 -0.10167,-0.0632 -0.10167,-0.0632 v 0 c -0.57538,0.44053 -1.07025,1.01349 -1.72615,1.32161 -0.77397,0.36357 -1.68201,0.34834 -2.48043,0.6545 -0.50859,0.19503 -0.93932,0.55188 -1.40453,0.83521 -0.62019,0.37772 -1.42057,0.75047 -1.80146,1.40719 0,0 2.20086,1.43064 2.20086,1.43064 z" /><path
       style="fill:#000000;stroke-width:0.395995"
       id="path944"
       d="m 62.095393,175.18847 c 1.430236,1.48857 3.317975,2.435 5.16985,3.29325 0.694667,0.36359 1.426651,0.53368 2.13782,0.84852 0,0 -0.09338,-0.075 -0.09338,-0.075 v 0 c -1.066143,-0.60686 -2.109783,-1.26677 -3.248737,-1.73227 -0.310084,-0.14817 -0.600071,-0.34926 -0.930243,-0.44473 -0.187821,-0.0543 0.656622,0.42481 0.492712,0.31823 -0.708036,-0.46039 -1.390335,-0.94458 -1.975821,-1.55975 0,0 -1.552198,-0.64832 -1.552198,-0.64832 z" /></g><g
     inkscape:groupmode="layer"
     id="layer6"
     inkscape:label="Layer 5"
     style="display:inline"><path
       style="display:inline;fill:#000000;stroke-width:0.395995"
       id="path852"
       d="m 115.80186,77.959287 c -0.54309,0.585411 -0.96203,1.261462 -1.52472,1.830036 -0.49305,0.726781 -0.73356,1.573161 -0.94924,2.413828 -0.25313,1.005966 -0.49775,2.013995 -0.73793,3.023121 -0.29641,0.928716 -0.57805,1.846411 -0.76126,2.806058 -0.1561,0.835767 -0.28232,1.676485 -0.38299,2.520599 -0.0851,0.751199 -0.16469,1.503035 -0.23884,2.255394 -0.0646,0.734009 -0.10661,1.469578 -0.17056,2.203717 -0.0815,0.717016 -0.17071,1.430865 -0.19742,2.152408 -0.0338,0.725043 0.0426,1.446994 0.13815,2.164378 0.0824,0.598975 0.18385,1.195034 0.29327,1.789594 0.0884,0.61618 0.21528,1.22042 0.41334,1.81055 0.22903,0.62886 0.57257,1.20601 0.89735,1.78841 0.27147,0.47423 0.50849,0.96648 0.74283,1.45969 0.1645,0.3792 0.39777,0.71392 0.67139,1.02087 1.06708,1.10259 2.47266,1.99164 4.00093,2.16424 0.47464,0.0651 0.92485,-0.0796 1.35666,-0.26071 0.43848,-0.16711 0.83708,-0.38552 1.19395,-0.68977 0.46741,-0.40755 0.778,-0.94088 1.09237,-1.4661 0.46241,-0.72066 0.66637,-1.56509 1.00301,-2.34546 0.36079,-0.91294 0.57391,-1.87519 0.78434,-2.83143 0.1991,-1.01316 0.32401,-2.038079 0.42732,-3.064727 0.11495,-1.220854 0.20723,-2.443636 0.34073,-3.662667 0.0819,-1.082877 0.25205,-2.157552 0.31561,-3.241445 0.0231,-1.031251 -0.0474,-2.060834 -0.0544,-3.092097 0.0275,-1.09489 -0.002,-2.188768 -0.064,-3.281849 -0.0446,-0.923837 -0.0871,-1.84729 -0.28627,-2.752491 -0.16907,-0.773375 -0.3816,-1.52879 -0.72648,-2.242454 -0.36374,-0.748703 -0.91055,-1.34036 -1.54946,-1.860008 -1.24209,-0.899368 -2.62345,-1.678833 -4.00426,-2.304553 -0.11792,-0.05345 -0.30792,-2.33e-4 -0.37179,0.112386 -0.74358,1.311057 0.9326,0.02221 -0.70787,1.046076 0,0 0.0988,0.06765 0.0988,0.06765 v 0 c 1.54169,-0.132411 0.82898,-0.206436 2.55769,0.343268 0.25501,0.08109 0.9724,0.426448 0.75669,0.268109 -3.7587,-2.758835 -2.44674,-1.558993 -1.71054,-0.907891 0.5185,0.50929 1.06507,0.992815 1.40718,1.648445 0.38262,0.677072 0.63006,1.393967 0.7755,2.159353 0.22684,0.889192 0.33256,1.790892 0.35419,2.709145 0.0544,1.087265 0.10333,2.175494 0.0756,3.264454 -0.01,1.021374 0.0175,2.041552 0.0299,3.062618 -0.0251,1.103631 -0.0339,2.206786 -0.14426,3.306598 -0.1029,1.220621 -0.22018,2.440328 -0.33676,3.659676 -0.11971,1.014822 -0.25424,2.02765 -0.42144,3.035884 -0.15051,0.96346 -0.40642,1.89908 -0.67521,2.83538 -0.19545,0.81862 -0.52532,1.58579 -0.83003,2.368 -0.25976,0.50865 -0.5774,0.98615 -1.01889,1.35683 -0.34604,0.26131 -0.73091,0.44816 -1.13608,0.60199 -0.41018,0.14434 -0.82103,0.21249 -1.2528,0.11427 -0.14671,-0.0308 -0.2459,-0.045 -0.38575,-0.10044 -0.0613,-0.0243 -0.23469,-0.11989 -0.178,-0.0862 5.09417,3.0246 3.28804,2.09411 2.42504,1.37605 -0.28276,-0.27731 -0.55278,-0.56581 -0.72315,-0.92916 -0.24964,-0.50114 -0.49046,-1.00679 -0.7708,-1.49201 -0.31453,-0.57079 -0.6563,-1.13005 -0.91063,-1.73117 -0.2061,-0.57096 -0.36131,-1.15372 -0.42785,-1.759 -0.10499,-0.5955 -0.22418,-1.18857 -0.31511,-1.78652 -0.10617,-0.69904 -0.19836,-1.401749 -0.16557,-2.110976 0.027,-0.715484 0.11981,-1.424029 0.18906,-2.136274 0.0705,-0.731281 0.13214,-1.462989 0.17939,-2.196169 0.0759,-0.75407 0.14241,-1.508632 0.21157,-2.263299 0.0955,-0.838701 0.21724,-1.673883 0.36263,-2.505442 0.17711,-0.968698 0.37075,-1.933829 0.54707,-2.901757 0.24713,-1.004298 0.50512,-2.005904 0.75106,-3.010497 0.21306,-0.817037 0.46536,-1.617446 0.83657,-2.378881 0.21825,-0.776867 0.71216,-1.34029 1.21061,-1.959209 0,0 -2.3095,-1.388371 -2.3095,-1.388371 z" /><path
       style="display:inline;fill:#000000;stroke-width:0.395995"
       id="path854"
       d="m 80.448519,79.735 c -0.86224,0.707152 -1.387017,1.660637 -1.893206,2.633945 -0.672767,1.362589 -1.222987,2.772137 -1.714277,4.208514 -0.500484,1.293799 -0.862827,2.621535 -1.17801,3.970794 -0.294839,1.276059 -0.462947,2.576859 -0.60604,3.877286 -0.136871,1.112869 -0.07747,2.225894 0.0365,3.336306 0.109886,1.060511 0.277874,2.113392 0.427453,3.168655 0.09143,0.92116 0.297291,1.81534 0.628493,2.67839 0.411609,0.9203 0.969526,1.77621 1.664474,2.50614 1.221376,1.00543 2.639791,1.99521 4.251245,1.79298 1.036434,-0.24814 1.561722,-1.2494 2.072639,-2.09722 0.719292,-1.21779 1.307813,-2.45195 1.75663,-3.79329 0.470019,-1.3517 0.76214,-2.750666 0.991294,-4.160168 0.253089,-1.482316 0.308426,-2.982105 0.324349,-4.482066 0.0075,-1.227542 0.237164,-2.415254 0.138562,-3.644055 -0.139311,-1.207361 -0.212697,-2.419961 -0.261948,-3.633837 -0.02669,-0.879577 -0.122937,-1.752457 -0.328109,-2.608114 -0.173201,-0.637239 -0.396142,-1.256019 -0.691355,-1.846458 -0.218832,-0.445 -0.531062,-0.812373 -0.930704,-1.101497 -1.072688,-0.614758 -2.141846,-1.235707 -3.218059,-1.844268 -0.04652,-0.0263 -0.609329,-0.271229 -0.550955,-0.04234 0.03999,0.156838 0.148724,0.287523 0.223098,0.431282 0.112445,0.224556 0.224883,0.44911 0.337325,0.673666 0,0 0.09933,0.06686 0.09933,0.06686 v 0 c 0.37682,0.125436 0.753637,0.250862 1.130459,0.376294 1.280085,0.611539 4.513445,2.166497 -1.3531,-0.948361 0.436936,0.218474 0.800183,0.515106 1.047807,0.945185 0.323317,0.561279 0.571599,1.156068 0.747021,1.780631 0.238437,0.83669 0.360248,1.694115 0.399816,2.563598 0.07377,1.219582 0.139655,2.440133 0.274429,3.655006 0.128923,1.305319 0.454179,2.588925 0.444837,3.9049 -0.0031,1.488046 -0.0263,2.980244 -0.289084,4.450004 -0.242155,1.391665 -0.536693,2.773768 -0.982618,4.116558 -0.431161,1.32167 -0.740944,2.69807 -1.420118,3.91386 -0.495652,0.79031 -1.021015,1.70169 -2.025119,1.85048 -0.349961,0.0132 -0.668005,-10e-5 -1.007108,-0.10152 -0.114361,-0.0342 -0.436322,-0.18828 -0.336235,-0.12323 0.476635,0.30976 2.699998,1.63886 1.471708,0.86157 -0.732662,-0.66861 -1.268987,-1.5128 -1.694677,-2.40525 -0.350847,-0.84488 -0.566356,-1.72795 -0.677923,-2.63667 -0.156874,-1.05091 -0.309621,-2.102451 -0.426491,-3.158732 -0.131064,-1.097116 -0.206243,-2.199285 -0.08576,-3.30244 0.120003,-1.295942 0.282047,-2.590126 0.574679,-3.859888 0.298894,-1.356045 0.620252,-2.710468 0.987704,-4.048317 0.462815,-1.435546 0.951991,-2.874229 1.567982,-4.250283 0.489647,-0.926863 1.038976,-1.862976 1.810489,-2.584019 0,0 -1.737425,-1.0909 -1.737425,-1.0909 z" /></g></svg>
