<?xml version="1.0" encoding="UTF-8" standalone="no"?>
<!-- Created with Inkscape (http://www.inkscape.org/) -->

<svg
   width="210px"
   height="297px"
   viewBox="0 0 210 297"
   version="1.1"
   id="svg815"
   xml:space="preserve"
   inkscape:version="1.2.2 (b0a8486541, 2022-12-01)"
   sodipodi:docname="zavish.svg"
   xmlns:inkscape="http://www.inkscape.org/namespaces/inkscape"
   xmlns:sodipodi="http://sodipodi.sourceforge.net/DTD/sodipodi-0.dtd"
   xmlns="http://www.w3.org/2000/svg"
   xmlns:svg="http://www.w3.org/2000/svg"><sodipodi:namedview
     id="namedview817"
     pagecolor="#ffffff"
     bordercolor="#000000"
     borderopacity="0.25"
     inkscape:showpageshadow="2"
     inkscape:pageopacity="0.0"
     inkscape:pagecheckerboard="0"
     inkscape:deskcolor="#d1d1d1"
     inkscape:document-units="mm"
     showgrid="false"
     inkscape:zoom="0.35455254"
     inkscape:cx="389.22299"
     inkscape:cy="586.65495"
     inkscape:window-width="1280"
     inkscape:window-height="651"
     inkscape:window-x="0"
     inkscape:window-y="0"
     inkscape:window-maximized="1"
     inkscape:current-layer="svg815" /><defs
     id="defs812" /><g
     inkscape:groupmode="layer"
     id="layer3"
     inkscape:label="Layer 3"
     style="display:inline;fill:#cccccc"><path
       style="fill:#cccccc;stroke-width:0.355415"
       d="m 164.76981,93.878919 c -0.0472,2.671962 0.4663,5.816205 -0.50019,8.400641 -0.489,1.30759 -1.32083,2.46184 -1.56984,3.85917 -0.2878,1.61488 -0.20408,3.34135 -0.28601,4.97499 -0.12425,2.47817 0.47315,4.91083 0.32321,7.36308 -0.0772,1.26413 -0.42116,2.33413 -0.65923,3.54751 -0.24757,1.26174 -0.27053,2.56167 -0.51943,3.82709 -0.50277,2.55608 -1.34359,5.11215 -2.10594,7.61318 -0.84517,2.77278 -1.31692,5.6848 -2.40477,8.37629 -1.5843,3.91981 -4.90328,8.88409 -7.83376,11.99049 -1.60567,1.70205 -4.0076,2.43377 -5.78684,3.95022 -0.65889,0.56159 -1.14378,1.29724 -1.86738,1.78917 -1.34301,0.91297 -2.81799,1.70403 -4.1208,2.66127 -1.00225,0.73636 -1.84328,1.6858 -2.82162,2.44196 -1.43704,1.11071 -4.24838,2.51101 -5.98818,3.06528 -2.61516,0.83311 -5.05066,0.59076 -7.71064,0.55532 -1.38429,-0.0184 -2.52309,0.69817 -3.86429,0.74517 -2.99217,0.10495 -5.97682,-0.0464 -8.97396,-0.0665 -2.40573,-0.0164 -4.77693,0.86022 -7.20405,0.84263 -1.456117,-0.0106 -2.901726,-0.36551 -4.333706,-0.55022 -1.59125,-0.20525 -3.120966,-0.14831 -4.726163,-0.45786 -1.04627,-0.20177 -2.015677,-0.81561 -3.063995,-0.9337 -2.012819,-0.22675 -4.060672,0.0206 -6.074124,-0.12827 -1.3815,-0.10204 -2.8913,-0.85384 -4.237521,-1.20945 -1.30446,-0.34457 -2.659005,-0.37662 -3.937407,-0.82979 -2.675013,-0.94825 -5.493072,-2.1628 -7.985109,-3.51674 -1.279485,-0.69515 -2.404793,-1.63843 -3.674487,-2.34448 -0.775615,-0.4313 -1.29858,-2.25735 -1.819926,-2.93702 -0.720326,-0.93908 -1.707627,-1.55096 -2.472739,-2.43556 -0.979416,-1.13237 -1.568716,-2.48872 -2.393226,-3.72964 -0.942696,-1.41877 -2.3135,-2.50025 -3.203792,-3.93868 -2.505265,-4.04768 -4.08075,-8.64618 -5.806071,-13.05886 -1.388205,-3.55047 -3.132235,-7.06754 -4.133633,-10.75668 -3.208221,-11.81898 -3.130661,-27.692586 2.143127,-38.780224 0.974474,-2.048734 1.868367,-4.264904 3.394891,-5.983059 1.413508,-1.590959 3.18028,-2.276742 4.864682,-3.529561 1.564837,-1.163884 3.00299,-2.490841 4.609459,-3.601379 1.498603,-1.035969 3.176117,-1.795622 4.640239,-2.881871 2.612178,-1.938008 5.122592,-4.308536 7.55674,-6.452473 4.129003,-3.636723 8.042575,-7.535483 12.552246,-10.727185 5.421876,-3.837314 11.676072,-7.006246 17.960725,-9.132984 2.60835,-0.882669 6.49673,-1.633492 9.14452,-2.222647 6.21456,-1.382789 12.01643,-2.19749 18.38783,-1.342821 3.79404,0.50894 7.25453,2.335209 10.57327,4.120808 4.83175,2.599643 9.95607,5.007524 14.07207,8.687942 3.42628,3.063713 5.64501,6.663963 8.3519,10.305232 4.10297,5.202099 2.29279,2.788392 5.488,7.197628"
       id="path1783" /><path
       style="fill:#666666;stroke-width:0.355415"
       d="m 114.27609,104.9293 c 1.18699,-0.94893 2.29303,0.21938 3.33974,0.13979 0.29285,-0.0223 0.5647,-0.2291 0.86059,-0.21289 0.39721,0.0218 1.59002,0.61036 2.14956,0.72591 0.38227,0.079 1.89095,-0.37757 2.16108,0.11673 0.18923,0.34628 -0.23474,1.42505 -0.24498,1.78273 -0.0394,1.3817 0.13475,2.75281 0.14108,4.13236 0.008,1.78185 0.14482,4.59687 -1.05681,6.11133 -0.55011,0.69331 -1.62209,0.95418 -2.44196,0.83748 -2.60464,-0.37069 -4.22303,-1.95232 -4.65179,-4.71334 -0.23358,-1.50421 -0.57057,-3.0184 -0.78105,-4.5248 -0.21959,-1.57155 0.14948,-2.84695 0.52454,-4.39528 z"
       id="path3063" /><path
       style="fill:#666666;stroke-width:0.355415"
       d="m 78.050687,105.38075 c 0.88829,1.32881 2.714252,-0.32718 3.607792,0.66564 0.156796,0.17422 3.680916,0.36616 4.096443,0.28729 0.542442,-0.1029 1.171496,-0.37548 1.641651,-0.64768 0.250609,-0.14509 -0.07421,0.57803 -0.05516,0.86699 0.04282,0.64881 0.0327,1.27984 -0.01159,1.92894 -0.171733,2.51966 -0.659716,8.56397 -4.492748,8.08387 -0.834465,-0.10448 -1.224441,0.022 -1.82634,-0.71437 -1.132186,-1.3851 -1.861738,-3.8348 -1.807102,-5.61626 0.0226,-0.73726 0.542758,-2.34202 0.220595,-2.99216 -0.342479,-0.69116 -0.915734,-1.24151 -1.373601,-1.86226 z"
       id="path3191" /><path
       style="fill:#1a1a1a;stroke-width:0.355415"
       d="m 89.872481,24.550797 c -1.335703,0.01553 -2.615564,-0.463664 -3.938333,-0.492031 -1.286602,-0.02758 -2.514168,0.365848 -3.774326,0.531731 -1.876974,0.247074 -3.766067,0.289522 -5.644256,0.48785 -1.130856,0.119419 -2.19427,0.488664 -3.311545,0.646641 -3.136755,0.443514 -6.342426,0.521882 -9.437384,1.306857 -1.42101,0.360412 -2.825056,1.059576 -4.192186,1.586827 -2.693188,1.038664 -5.361014,2.148651 -8.060531,3.172606 -4.366942,1.656427 -8.451233,3.058396 -12.246449,5.873034 -0.479481,0.355595 -1.067362,0.52936 -1.487585,0.949586 -0.213583,0.213583 0.588196,-0.140521 0.875417,-0.234003 0.612495,-0.199344 1.22185,-0.265206 1.859479,-0.333243 2.293851,-0.244754 4.542336,-0.08031 6.827845,-0.317574 1.821713,-0.189115 4.6556,0.1878 6.414159,0.710364 0.499379,0.148389 0.960891,0.488555 1.461469,0.597539 0.525448,0.1144 0.46863,0.567784 0.987248,0.743983 0.334009,0.113486 0.251926,-0.03823 0.672526,0.330493 0.166492,0.14596 1.540482,0.617928 1.626152,0.893964 0.02875,0.09264 -0.181613,0.317345 -0.26166,0.363221 -1.723187,0.987582 -3.334457,2.197316 -4.928667,3.376315 -0.950769,0.703142 -2.021331,1.237075 -2.942783,1.979617 -1.677998,1.352184 -3.133384,2.9625 -4.704068,4.430365 -2.571536,2.4032 -5.151765,4.808712 -7.429562,7.499554 -1.299753,1.535448 -2.324,3.293943 -3.60509,4.843006 -1.371961,1.658936 -2.813293,3.092945 -3.997882,4.90777 -1.041953,1.596305 -1.459731,3.582527 -2.346288,5.28176 -0.650877,1.247519 -3.69125,6.032016 -3.36169,7.284357 0.04448,0.169008 0.258008,-0.240936 0.353096,-0.387567 0.42953,-0.662387 0.932436,-1.199636 1.491759,-1.749791 1.108502,-1.090329 2.155807,-2.207629 3.232154,-3.332437 2.718728,-2.841138 5.524739,-5.61736 8.358255,-8.343635 0.147569,-0.141982 2.104571,-1.94083 2.287787,-1.790532 0.67135,0.550716 0.430255,2.276697 0.402193,3.028445 -0.05824,1.560425 -0.846832,3.051884 -1.267163,4.529608 -0.504235,1.772708 -0.989406,3.637085 -1.31313,5.450994 -0.537554,3.012084 -0.389484,6.021437 -0.621563,9.060262 -0.115219,1.508516 -0.499407,2.965385 -0.646642,4.464846 -0.158307,1.61223 -0.0497,3.223574 -0.164011,4.829425 -0.05945,0.835306 -0.260007,1.65274 -0.297723,2.49044 -0.02685,0.59605 0.137807,1.182896 0.164009,1.775916 0.0962,2.1768 0.167206,4.33181 0.357271,6.50398 0.129266,1.4774 0.06683,2.96961 0.432487,4.42099 0.09799,0.3889 0.400585,0.69154 0.497254,1.09896 0.188922,0.79624 0.321732,1.61156 0.507701,2.4121 0.05896,0.25377 0.314585,2.10249 0.751102,2.02349 0.142418,-0.0258 1.328301,-4.07892 1.441622,-4.48574 0.48915,-1.75606 1.186482,-3.43908 1.70069,-5.18564 0.495516,-1.68308 0.681669,-3.42441 1.093752,-5.12715 0.729095,-3.012636 1.479597,-6.006909 2.093481,-9.045634 0.525045,-2.598965 0.993209,-5.117636 1.675619,-7.683414 0.187443,-0.70475 0.356376,-1.364195 0.657088,-2.028715 0.0067,-0.01476 0.19757,-0.526506 0.17341,-0.526506 -0.352664,0 -0.113194,1.933513 -0.113872,2.028716 -0.0076,1.080114 -0.181003,2.161184 -0.100278,3.241554 0.124215,1.662674 0.376848,3.363926 0.572468,5.022689 0.387452,3.285368 0.404149,7.45216 1.457287,10.58754 0.672544,2.00226 1.619525,4.31558 2.659686,6.15091 0.680781,1.2012 1.529021,2.2825 2.178097,3.50584 0.789286,1.48761 1.230743,3.1497 2.028713,4.61528 1.066413,1.95859 2.436372,3.61643 3.828646,5.32563 0.842214,1.03392 4.112798,4.64019 5.579489,4.47528 0.85532,-0.0962 0.354639,-0.90155 0.342646,-1.49699 -0.05217,-2.59018 0.247453,-5.17561 0.0052,-7.7628 -0.287367,-3.06927 -0.589756,-6.15359 -0.695736,-9.23367 -0.07222,-2.0988 -0.02189,-4.20098 -0.199531,-6.3003 -0.127895,-1.51154 -0.537881,-3.00326 -0.630969,-4.525416 -0.222817,-3.643559 0.173827,-7.329969 0.39279,-10.96049 0.13909,-2.306212 0.295177,-4.721739 0.710364,-6.996032 0.199843,-1.094684 0.975759,-4.225449 1.496988,-5.137595 0.03198,-0.05597 0.110058,0.598409 0.199525,1.676666 0.106712,1.286033 0.03982,2.566197 0.05432,3.853719 0.01303,1.160444 0.352649,2.247463 0.427263,3.396162 0.09514,1.464907 0.126028,2.935533 0.48263,4.370824 0.26414,1.063161 0.916361,1.989704 1.173142,3.058744 0.131121,0.545851 0.180029,2.413027 0.945411,2.540586 0.196432,0.03278 0.553448,-1.843266 0.566199,-1.909624 0.218098,-1.134848 0.635073,-2.204143 0.920338,-3.321992 0.512697,-2.009023 0.946804,-4.015861 1.630703,-5.976448 0.773334,-2.216982 1.303743,-4.59405 2.342108,-6.708753 0.669943,-1.364387 1.730979,-2.561278 2.506119,-3.868346 0.70069,-1.181523 1.106582,-2.565711 1.9044,-3.694933 0.684917,-0.969417 1.315997,-1.643172 2.302413,-2.242866 0.08432,-0.05127 0.179139,-0.09617 0.239226,-0.174456 0.11282,-0.147018 -0.273236,0.403964 -0.144163,0.536951 0.180234,0.185691 0.353812,-0.168656 0.396966,-0.302949 0.04281,-0.13319 0.13327,-0.5932 0.179681,-0.825275 0.419641,2.315493 1.196055,4.565612 1.809317,6.857094 0.723754,2.704341 1.119523,5.490136 2.192724,8.101272 0.518173,1.260723 1.067344,2.620804 1.711149,3.818201 0.65064,1.210126 1.711794,2.158004 2.481045,3.28752 0.588964,0.864791 1.01889,1.826764 1.606673,2.684758 1.366254,1.994346 3.022597,3.778923 4.758382,5.450986 2.801802,2.698946 5.663372,5.308212 8.552572,7.916372 0.90768,0.8194 1.74179,1.68762 2.68998,2.46119 0.32504,0.2652 0.6539,0.54705 0.98927,0.80126 0.0408,0.0308 0.1252,0.11284 0.13998,0.0636 2.1e-4,-6.8e-4 -0.56979,-2.55478 -0.58709,-2.78923 -0.19674,-2.66863 -0.13682,-5.413176 -0.14937,-8.09081 -0.0141,-2.995966 -0.25851,-7.066829 0.0899,-9.964937 0.36271,-3.01763 0.99741,-6.040888 1.497,-9.040415 0.23152,-1.390049 0.29334,-2.839322 0.59649,-4.212035 0.83889,-3.798655 1.9548,-7.575805 3.38572,-11.203889 0.10893,-0.276233 3.78546,-5.359568 2.58552,-3.266625 0.11454,0.594771 0.2119,1.193118 0.34365,1.784317 0.20266,0.909344 0.83441,1.556059 1.0645,2.402699 0.56206,2.068063 0.71695,3.305835 1.76025,5.34026 0.80462,1.569022 1.87852,3.292213 3.04724,4.604823 2.20905,2.481027 5.07678,4.596919 6.44968,7.737736 2.25414,5.156833 3.53233,11.685586 3.98326,17.28063 0.0706,0.87566 -0.0923,1.751566 -0.0448,2.630426 0.19404,3.59726 0.65397,7.2276 1.26299,10.74633 0.009,0.0575 0.11767,-0.0176 0.16922,-0.0448 0.60544,-0.32157 0.558,-1.9145 0.82527,-2.53118 0.77914,-1.79766 1.44563,-3.97931 1.497,-5.9472 0.0756,-2.90409 0.48691,-5.783606 0.59649,-8.683136 0.13138,-3.477232 -0.17847,-7.523687 0.96943,-10.860206 0.78901,-2.293337 1.61028,-4.550303 2.48105,-6.817395 0.26255,-0.683533 1.76496,-2.598342 1.11466,-1.949322 -0.37546,0.374718 -0.86917,1.403868 0.67066,-0.502477 0.0312,-0.0385 0.14857,-0.130285 0.1149,-0.09402 -2.1961,2.120787 0.19815,-0.263256 -0.43772,0.447112 0.66614,0.797399 0.70072,2.147981 1.31205,2.988144 0.38586,0.530314 1.15074,0.630926 1.39778,1.238461 2.23069,5.485768 0.95477,11.324088 1.35283,17.081105 0.19963,2.887168 0.69504,5.776814 0.81065,8.663284 0.0497,1.24147 -0.33896,2.38916 -0.41368,3.61031 -0.095,1.5525 -0.0229,3.1235 -0.069,4.679 -0.0429,1.45658 0.2233,2.88145 0.069,4.34157 -0.18538,1.75374 -0.38161,3.49399 -0.64141,5.23581 -0.012,0.0828 -0.2752,1.21478 -0.24341,1.23791 0.14147,0.10285 2.2348,-1.07757 2.41211,-1.18359 3.17342,-1.89785 6.89912,-2.36482 10.04432,-4.35098 2.72875,-1.72318 5.131,-3.61427 6.64294,-6.55416 0.75628,-1.47052 1.15108,-3.08553 1.895,-4.55467 0.38096,-0.75235 0.95881,-1.3827 1.3173,-2.14781 0.89574,-1.91169 1.75571,-3.89902 2.48104,-5.883466 0.63397,-1.734473 0.68679,-3.549891 1.15852,-5.305789 0.45153,-1.680711 1.14988,-3.301003 1.57639,-4.992388 0.51108,-2.026828 -0.27557,-4.137478 -0.53696,-6.136284 -0.18624,-1.424265 0.14409,-2.860543 0.0448,-4.291428 -0.11362,-1.640184 -0.7864,-3.186007 -1.04883,-4.804353 -0.10497,-0.646721 -0.3746,-6.55835 -1.29329,-5.613958 1.33236,1.702244 1.76173,4.486518 3.75975,5.658878 0.3381,0.198377 0.72573,0.251538 1.06869,0.432485 1.37972,0.727974 2.64266,1.847176 3.94773,2.710872 0.52833,0.349649 1.05742,0.565187 1.52729,0.998686 0.0242,0.02224 0.66817,0.625092 0.70096,0.592317 0.19693,-0.196933 -0.20188,-0.52241 -0.25386,-0.796023 -0.19228,-1.012012 -0.0919,-2.004785 -0.3625,-2.992927 -0.16866,-0.615854 -0.0562,-1.243414 -0.29876,-1.850077 -0.92311,-2.30777 -2.20641,-4.196507 -3.55077,-6.251197 -0.6264,-0.957385 -1.17405,-2.10906 -1.92426,-2.9689 -1.01614,-1.16467 -2.32162,-2.139871 -3.21229,-3.405564 -0.24428,-0.347127 -0.23534,-0.783097 -0.47218,-1.124044 -0.59312,-0.853805 -1.2219,-1.700593 -1.81979,-2.556263 -0.51154,-0.732084 -1.09087,-1.72462 -1.80516,-2.277341 -0.68267,-0.52826 -1.44367,-0.952734 -2.09347,-1.531458 -0.98792,-0.87986 -1.75695,-1.982099 -3.02323,-2.516567 -0.46177,-0.194904 -3.2412,0.450238 -3.23772,0.405324 0.008,-0.101913 1.48538,-0.938428 3.78852,-1.714094 1.97619,-0.665549 3.25429,-2.078245 5.3567,-2.141712 1.13675,-0.03433 2.26075,0.140969 3.39095,0.213108 2.19607,0.140175 4.61359,0.07401 6.81739,-0.03969 0.62842,-0.03243 4.45904,0.417828 4.61005,-0.387566 0.0371,-0.19763 -0.3562,-0.573705 -0.44294,-0.700961 -1.32135,-1.938796 -2.7591,-1.380229 -4.30605,-2.576111 -0.47271,-0.365438 -1.09925,-0.458829 -1.65578,-0.636193 -0.91959,-0.293076 -1.79013,-0.757489 -2.74534,-0.930785 -1.64312,-0.298102 -3.32482,-0.374758 -4.95686,-0.685292 -2.67725,-0.509402 -5.04481,-1.814668 -7.63851,-2.595959 -2.95883,-0.891281 -6.06786,-1.1346 -9.01951,-2.028712 -1.93044,-0.584768 -3.77381,-0.976118 -5.81348,-1.019582 -0.41735,-0.0089 -3.52112,0.41295 -3.4954,0.164012 0.0459,-0.445366 0.61961,-0.992459 0.85032,-1.377895 0.76731,-1.28187 1.66721,-2.629469 2.9637,-3.430637 1.08509,-0.670546 2.32551,-1.126283 3.32721,-1.934694 0.91243,-0.736376 1.68938,-1.588573 2.65968,-2.262716 0.8038,-0.558458 1.72268,-0.908541 2.52597,-1.457288 1.77282,-1.211066 3.34061,-2.695605 5.39979,-3.51003 0.7302,-0.288799 1.58623,-0.367058 2.26273,-0.770953 0.91257,-0.544839 1.74415,-1.171229 2.70981,-1.626522 0.0807,-0.03805 1.08364,-0.627121 1.01437,-0.72081 -0.32429,-0.438572 -6.85988,-0.01064 -7.73147,0.09402 -2.09278,0.2512 -4.1908,0.474511 -6.2909,0.626791 -1.22488,0.08882 -2.42988,0.480816 -3.67404,0.511878 -1.4502,0.0362 -2.93102,-0.392354 -4.38127,-0.203705 -2.79064,0.363009 -5.32897,1.735444 -8.025,2.417323 -0.93314,0.236011 -1.83432,0.145344 -2.77982,0.169234 -1.09057,0.02756 -2.0334,0.434711 -3.07859,0.562022 -0.35777,0.04357 -0.71871,-0.01959 -1.0739,0.05954 -2.13017,0.474658 -4.3468,1.216941 -6.40895,1.938874 -0.89001,0.311588 -1.79079,0.930947 -2.76519,0.969438 -0.67549,0.02667 -2.21497,-2.175998 -2.89889,-2.659684 -0.70743,-0.500301 -1.64439,-0.960375 -2.44136,-1.307904 -2.82376,-1.231346 -5.57945,-2.496499 -8.50765,-3.516297 -1.28566,-0.447762 -2.62406,-0.493444 -3.94356,-0.755292 -1.413,-0.280405 -2.73761,-0.948282 -4.14204,-1.273429 -1.10937,-0.25684 -2.274606,-0.116624 -3.390933,-0.338466 -1.83154,-0.36396 -3.663513,-0.820674 -5.539785,-0.879598 -0.742339,-0.02332 -1.472943,0.129534 -2.212578,0.129534 -1.83759,0 -4.692147,-0.471584 -6.230307,0.839902 -0.303083,0.258417 -0.441629,0.848522 -0.671712,1.188812 -0.354038,0.523621 0.571259,1.476894 0.825275,1.864704 0.656127,1.001721 1.36229,1.34195 2.362454,1.830725 1.255185,0.613405 1.710383,1.189366 2.656938,2.205451 0.06354,0.06818 1.413526,0.428679 1.415667,0.5488 0.0071,0.394788 -0.109403,0.782094 -0.164011,1.173141 z"
       id="path3333"
       sodipodi:nodetypes="sssssssssssssssssscssssssssssssssssssssssssssssssscscssssssssssssssssscssscsssssssssscsssssssscsscsssscsssssccccsssssssccssssssscscsssssssscscssssssscsssssssscssssscssssssscsssssssssssssssssssssssssssssssscss" /><path
       style="fill:#0c0c0c;fill-opacity:1;stroke-width:0.355415"
       d="m 72.096812,163.58996 c -1.535824,2.58382 -2.244344,5.56745 -3.48775,8.25834 -0.728385,1.5763 -1.952535,2.83008 -2.46307,4.54511 -0.934988,3.1409 -1.713419,6.38886 -2.902704,9.44421 -0.714352,1.83523 -1.990659,3.52687 -2.558886,5.40861 -0.330143,1.09331 -0.779693,2.38097 -0.91759,3.52043 -0.07164,0.59197 -0.05565,1.18139 -0.236725,1.75967 -0.954628,3.04865 -3.037766,9.2287 -0.02143,11.57473 0.49027,0.38133 1.126011,0.5006 1.712313,0.64932 3.787367,0.96055 4.632184,-2.51573 6.207835,-5.08735 0.538377,-0.87869 1.324039,-1.5418 1.819403,-2.47323 0.481107,-0.9046 0.691214,-1.925 1.040464,-2.88127 0.651519,-1.78391 1.539465,-3.46365 2.194782,-5.23726 0.418993,-1.134 0.624667,-2.27726 1.170098,-3.36487 0.844905,-1.68478 1.82932,-3.28772 2.612996,-5.00168 0.235836,-0.5158 0.506588,-1.00656 0.729341,-1.52856 0.105799,-0.24793 0.307614,-0.9815 0.369741,-0.7192 0.251258,1.06088 -0.393679,4.33193 -0.557995,5.49992 -0.364089,2.58798 -0.717793,5.32224 -1.320026,7.86717 -0.476555,2.01382 -1.222134,3.85606 -1.582676,5.91813 -0.277796,1.58878 -1.52982,3.70532 -0.65945,5.28573 0.47825,0.8684 1.424433,0.45662 2.242126,0.55236 0.326119,0.0381 0.507568,0.38889 0.837556,0.41369 0.263364,0.0198 0.618004,-0.10998 0.858978,-0.0598 0.454897,0.0949 1.006185,0.5146 1.491367,0.46667 0.403712,-0.0399 0.792128,-0.15848 1.207295,-0.11163 1.14963,0.12976 2.257144,0.86311 3.428011,0.93336 0.951813,0.0571 1.900055,-0.14994 2.84972,-0.18824 0.787211,-0.0319 1.330795,0.49013 2.039214,0.66508 1.080589,0.26686 2.50027,0.41164 3.621905,0.4509 0.465483,0.0163 0.88805,-0.17697 1.335797,-0.17697 1.174886,0 2.351902,0.23612 3.53059,0.18824 1.369709,-0.0556 2.655293,-0.272 4.035598,-0.20402 0.8959,0.044 1.7173,0.62475 2.60736,0.75639 1.44326,0.21347 3.08362,0.23724 4.54964,0.18825 1.05679,-0.0354 2.17953,-0.36155 3.23637,-0.4881 1.40199,-0.16789 2.92044,-0.28448 4.33545,-0.35509 0.73301,-0.0364 1.47098,0.14804 2.1993,0.0698 1.3751,-0.14756 2.72113,-0.57635 4.07843,-0.74061 4.59802,-0.55646 10.05178,-1.40122 14.21366,-3.51932 0.37681,-0.19178 1.12502,-0.38291 1.34145,-0.78345 0.33019,-0.61111 -0.22685,-2.10031 -0.31677,-2.73135 -0.19554,-1.37222 -0.17044,-2.75555 -0.40244,-4.12692 -0.28589,-1.69002 -0.78104,-3.34578 -0.96043,-5.05465 -0.11057,-1.05357 -0.0882,-2.12711 -0.22545,-3.17663 -0.13451,-1.02757 -0.43054,-2.43889 -0.08,-2.24325 1.14589,0.63956 1.65711,2.86876 2.11927,3.96571 0.24554,0.58279 0.67784,1.07056 0.939,1.64695 1.4838,3.27457 3.58891,8.31344 7.51209,8.97188 0.78954,0.13244 1.6032,-0.0185 2.25903,-0.53658 0.9115,-0.71991 1.73146,-1.86322 1.71682,-3.06391 -0.0362,-2.9641 -2.48478,-6.72398 -3.20368,-9.73842 -0.41392,-1.73563 -0.83944,-3.47634 -1.21294,-5.19442 -0.15198,-0.69915 -0.56839,-1.39893 -0.81499,-2.07191 -0.79564,-2.17118 -1.57021,-4.43819 -2.3605,-6.64297 -0.70213,-1.95883 -0.80888,-4.11302 -1.40119,-6.11202 -0.3497,-1.18023 -0.1822,-4.6234 -1.46433,-5.22599 -0.20971,-0.0986 -3.90459,2.17958 -4.37377,2.46307 -3.27456,1.97861 -9.45491,2.51653 -13.27463,2.73587 -0.8895,0.051 -1.66797,0.5562 -2.51607,0.73048 -0.9907,0.20355 -1.90089,0.0242 -2.88128,0.0958 -1.20129,0.0878 -2.31341,0.59535 -3.49903,0.67184 -4.57714,0.2953 -8.5661,-0.45378 -13.059339,-0.94463 -0.818168,-0.0893 -1.656093,0.1779 -2.441663,0.08 -0.528552,-0.0657 -1.044925,-0.30352 -1.578157,-0.28969 -0.719324,0.0187 -1.457556,0.25619 -2.177875,0.21981 -0.958304,-0.0485 -1.807962,-0.58723 -2.725711,-0.79924 -1.054858,-0.24367 -2.189574,-0.10776 -3.20369,-0.34381 -0.708383,-0.16491 -1.359315,-0.59683 -2.076414,-0.76654 -0.581766,-0.13768 -1.173733,0.0793 -1.743876,-0.017 -0.779844,-0.13179 -1.546112,-0.62399 -2.307505,-0.85784 -1.185978,-0.3643 -2.377877,-0.60075 -3.552006,-1.00891 -0.824481,-0.28663 -1.586226,-0.7911 -2.414598,-1.05738 -0.366129,-0.11767 -0.729401,-0.0183 -1.100207,-0.14993 -0.937852,-0.33318 -1.261339,-0.62953 -2.366129,-0.92322 z"
       id="path5918" /><path
       style="fill:#cccccc;fill-opacity:1;stroke-width:0.355415"
       d="m 57.486357,202.45574 c 0.598659,0.35725 1.177004,0.98385 1.850968,1.28282 0.54735,0.24279 1.291065,-0.0841 1.813765,0.0914 0.771558,0.25899 4.727054,1.82479 4.856249,2.36612 0.186095,0.77973 -0.458986,2.11296 -0.746247,2.81139 -0.602781,1.46553 -0.855606,2.86781 -1.840821,4.17539 -0.340946,0.4525 -0.880199,0.72321 -1.330169,1.05172 -1.607827,1.1739 -3.437105,1.71668 -4.496654,-0.40242 -1.222313,-2.44462 -0.145881,-8.59567 -0.107086,-11.37634 z"
       id="path5920" /><path
       style="fill:#cccccc;fill-opacity:1;stroke-width:0.355415"
       d="m 150.39311,199.58459 c -1.34527,1.77348 -1.69132,1.07905 -3.29385,1.34708 -0.54211,0.0906 -2.66426,0.75452 -2.89256,1.3313 -0.049,0.12372 2.5656,3.26034 2.88692,3.4979 0.75857,0.56081 2.33102,0.63057 2.87564,-0.16571 0.24631,-0.36011 0.59097,-0.71288 0.65494,-1.15432 0.12628,-0.87109 0.0439,-1.61849 0.0914,-2.489 0.0453,-0.83185 -0.26431,-1.47627 -0.3224,-2.36725 z"
       id="path6395" /><path
       style="fill:#808080;fill-opacity:1;stroke-width:0.355415"
       d="m 73.931998,206.1216 c 1.335787,0.93511 2.762068,0.76857 4.244143,1.10021 1.482598,0.33173 2.653044,1.23874 4.158473,1.53983 3.034092,0.60683 6.214497,0.67011 9.298792,0.78344 2.681188,0.0986 5.358094,0.37097 8.043024,0.38666 6.98757,0.0408 13.99556,0.27096 20.87353,-1.23436 2.73049,-0.5976 5.36955,-1.80051 7.98891,-2.74149 1.30798,-0.46989 2.70263,-0.6907 4.01418,-1.14868 1.38845,-0.48486 4.6641,-2.17983 6.07369,-1.34146 0.62113,0.36944 0.53684,1.7146 0.63803,2.3233 0.6207,3.7335 -0.15564,7.35507 -0.0642,11.08663 0.119,4.85925 1.18619,9.66712 1.30422,14.53604 0.0646,2.66591 0.11175,5.42067 -0.0642,8.08136 -0.10554,1.59645 -0.48244,3.16918 -0.58506,4.77059 -0.0449,0.69965 0.11409,1.39121 0.08,2.08768 -0.0636,1.30395 -0.34896,2.60371 -0.40694,3.89583 -0.2248,5.00997 0.80733,5.14125 -1.5624,9.717 -0.43121,0.83265 -0.52128,1.85881 -1.24447,2.52281 -1.07614,0.98802 -5.82303,0.009 -7.20661,-0.0542 -2.4239,-0.11198 -6.42215,0.98582 -8.41839,0.42385 -1.99762,-0.56235 -2.11535,-3.82896 -2.67725,-5.42552 -0.81413,-2.31321 -1.54574,-4.76308 -1.39556,-7.25957 0.0662,-1.1017 0.51919,-2.15541 0.50501,-3.26794 -0.0145,-1.14282 -0.30071,-2.40637 -0.43511,-3.552 -0.14308,-1.21941 0.0869,-2.47704 -0.17134,-3.6918 -0.34411,-1.61846 -0.9947,-3.19337 -0.94465,-4.88893 0.0322,-1.0945 -0.19361,-2.49157 -0.0106,-3.55764 0.11431,-0.66444 0.30923,-1.12505 0.29985,-1.82956 -0.0171,-1.28118 -0.26405,-2.50495 -0.33818,-3.77293 -0.0548,-0.93874 0.34661,-2.15523 -0.4509,-2.84296 -0.60134,-0.51853 -5.19279,-0.76691 -6.07933,-0.61774 -0.53053,0.0893 -0.98179,0.34801 -1.53985,0.32239 -0.59859,-0.0276 -1.29801,-0.26096 -1.88254,-0.18261 -0.85148,0.11421 -1.57122,0.37537 -2.44164,0.43963 -1.06706,0.0789 -2.12622,-0.0744 -3.19803,-0.0586 -0.81579,0.012 -1.564649,0.29827 -2.371769,0.31112 -0.847166,0.0135 -2.137002,-0.38744 -2.94104,0.0158 -0.554961,0.2783 -0.871013,1.11415 -1.083291,1.63677 -0.354104,0.87183 -0.982371,1.70338 -1.137408,2.64569 -0.283665,1.72406 -0.1283,3.5086 -0.396801,5.23726 -0.419126,2.69836 -0.564825,5.44417 -1.047229,8.12983 -0.347855,1.9366 -1.119027,3.74734 -1.497,5.67125 -0.247732,1.26099 -0.04949,2.56739 -0.326912,3.83157 -0.424343,1.93417 -1.262536,3.7277 -1.759648,5.63971 -0.420409,1.61693 -1.495356,8.06529 -2.441656,8.9561 -1.37776,1.29695 -4.552827,-0.55809 -6.133438,-0.76203 -1.813094,-0.23395 -5.878265,0.25946 -7.382443,-0.6448 -1.276119,-0.76716 -2.047555,-3.04769 -2.587069,-4.32982 -1.952388,-4.63979 -1.650911,-9.6146 -0.933375,-14.48306 0.253779,-1.72188 0.308331,-3.47607 0.633521,-5.1888 0.373755,-1.96853 1.212656,-3.83074 1.582679,-5.82231 0.652521,-3.51211 0.345517,-7.13922 0.95479,-10.65151 0.260077,-1.49928 0.761776,-3.06695 0.864613,-4.58233 0.06723,-0.99077 0.110994,-1.9783 0.272796,-2.97258 0.183078,-1.1251 0.433532,-2.22898 0.654941,-3.34348 0.09323,-0.46926 -0.131979,-0.85248 -0.0372,-1.31439 0.05165,-0.25169 0.249741,-0.57608 0.204038,-0.84768 -0.05815,-0.3455 -0.163485,-0.58602 -0.172471,-0.97171"
       id="path6409" /><path
       style="fill:#333333;fill-opacity:1;stroke-width:0.355415"
       d="m 120.28618,261.31688 c 2.02201,0.22587 4.11796,0.89385 6.21911,0.24688 0.99673,-0.3069 1.97595,-0.33705 2.97822,-0.59068 0.63165,-0.15985 1.21245,-0.45513 1.84082,-0.62225 0.79352,-0.21105 6.38993,-1.83873 6.77148,-1.67399 0.71751,0.30984 0.57047,1.39379 0.55799,2.0009 -0.0197,0.95882 0.0375,1.9317 -0.0598,2.88692 -0.18298,1.79855 -1.49987,7.36787 -2.80576,8.51647 -2.81812,2.47868 -10.26012,2.01571 -12.79781,-0.91197 -0.98609,-1.13762 -1.10947,-2.93733 -1.2986,-4.34673"
       id="path7137" /><path
       style="fill:#333333;fill-opacity:1;stroke-width:0.355415"
       d="m 68.684587,258.83241 c 0.763536,0.5437 1.477021,1.16562 2.290598,1.63114 0.413221,0.23644 1.274214,0.30166 1.776568,0.46668 1.787772,0.58734 3.308211,1.21072 5.237263,1.24451 0.592692,0.0106 1.099821,-0.26541 1.68413,-0.28408 0.705593,-0.0226 1.425114,0.33947 2.114747,0.23674 0.672438,-0.1001 3.208387,-1.24775 3.664733,-1.10022 0.33156,0.10717 -0.807045,4.12652 -0.90745,4.53949 -0.401382,1.65101 -0.606179,3.45516 -1.389912,4.99038 -0.367698,0.72029 -1.051691,1.13034 -1.678495,1.59397 -2.039298,1.5084 -4.152349,2.15929 -6.702705,1.7326 -0.477093,-0.0798 -1.348124,-0.21924 -1.759658,-0.49825 -2.107375,-1.42872 -3.617802,-6.99762 -3.975857,-9.1872 -0.293741,-1.79627 -0.05704,-3.55784 -0.353962,-5.36576 z"
       id="path7202" /></g><g
     inkscape:groupmode="layer"
     id="layer2"
     inkscape:label="Layer 2"
     style="display:inline;fill:#ff0000"><path
       style="fill:#000000;stroke-width:0.355415"
       id="path1590"
       d="m 77.840257,99.354514 c -0.500224,1.539936 -0.865451,3.156526 -1.081999,4.763136 -0.322194,2.22397 -0.171804,4.43896 0.290909,6.62576 0.363481,1.59027 1.103613,3.03224 1.952775,4.40976 1.072838,1.60573 2.904717,3.56138 4.985439,3.39058 1.159709,-0.32099 1.934016,-1.30237 2.648868,-2.2084 1.055853,-1.37629 1.549513,-3.00117 1.904577,-4.67083 0.387709,-2.09539 0.334681,-4.23364 0.358761,-6.35481 -0.13662,-0.90455 0.283734,-2.03676 -0.120028,-2.90829 -0.199196,-0.42996 -0.565784,-0.76082 -0.828867,-1.15492 -0.177585,-0.26605 -0.327999,-0.54925 -0.491999,-0.82387 0,0 -0.09735,-0.0479 -0.09735,-0.0479 v 0 c -0.468742,0.64324 -0.148742,0.349 -1.057733,0.76287 -0.401301,0.50212 -0.03468,2.16784 -0.151079,2.7704 2.85e-4,2.09744 0.05099,4.21653 -0.352508,6.28494 -0.36139,1.61451 -0.846136,3.19298 -1.886853,4.51457 -0.671769,0.82589 -1.436692,1.76981 -2.55943,1.91162 -1.285823,-0.20154 -0.525259,-0.12871 2.072571,1.41241 0.128447,0.0762 -0.257584,-0.15334 -0.373225,-0.24785 -0.456901,-0.37333 -0.799225,-0.86978 -1.136042,-1.34625 -0.875971,-1.35925 -1.672194,-2.77487 -2.083459,-4.35278 -0.529886,-2.1859 -0.676195,-4.41289 -0.569141,-6.66023 0.03914,-0.70705 0.04354,-1.4169 0.117392,-2.12117 0.08428,-0.80367 0.352884,-1.5503 0.482694,-2.34205 0.02697,-0.16459 0.02775,-0.33241 0.04163,-0.49861 0,0 -2.065907,-1.108176 -2.065907,-1.108176 z" /><path
       style="fill:#000000;stroke-width:0.355415"
       id="path1592"
       d="m 112.58951,99.490954 c -0.30395,1.683926 -0.36162,3.413086 -0.39743,5.121876 -0.0722,2.05956 -0.0341,4.11232 0.32548,6.14372 0.24565,1.29788 0.70141,2.53579 1.23496,3.73913 0.47899,1.0593 1.00224,2.0954 1.75477,2.98662 1.88713,1.52208 3.31637,3.15688 5.6103,1.91592 1.23394,-0.84112 1.80122,-2.20704 2.28996,-3.56118 0.5906,-1.80856 0.88658,-3.69179 1.03826,-5.5829 0.10285,-1.85139 -0.007,-3.70716 -0.1815,-5.55059 -0.28059,-0.97712 0.11996,-2.30246 -0.47569,-3.19323 -0.35153,-0.52574 -0.87177,-0.91823 -1.27033,-1.40927 0,0 -0.12331,-0.0607 -0.12331,-0.0607 v 0 c -0.10696,0.0483 -0.20599,0.12063 -0.32079,0.14491 -0.25034,0.0528 -0.55219,-0.0611 -0.763,0.0839 -0.39205,0.26973 0.0503,2.53017 0.0518,2.99261 0.19725,1.83153 0.33472,3.67276 0.24059,5.51612 -0.13997,1.86246 -0.44688,3.70791 -1.0321,5.4868 -0.4697,1.2773 -1.01352,2.57059 -2.23311,3.30126 -0.36195,0.15724 -0.51716,0.2657 -0.91588,0.28397 -0.14934,0.007 -0.56748,-0.13058 -0.44643,-0.0428 0.76916,0.55741 1.63022,0.9759 2.43351,1.48295 0.13744,0.0868 -0.2964,-0.13555 -0.43456,-0.22116 -0.14463,-0.0897 -0.27395,-0.20186 -0.41092,-0.30275 -0.81206,-0.83547 -1.34164,-1.8559 -1.82929,-2.907 -0.54868,-1.19433 -1.04326,-2.41766 -1.33665,-3.70301 -0.41723,-2.02204 -0.57591,-4.07349 -0.46651,-6.13858 0.0539,-1.73746 0.0719,-3.47674 0.16432,-5.21188 0,0 -2.50624,-1.314736 -2.50624,-1.314736 z" /><path
       style="fill:#000000;stroke-width:0.355415"
       id="path1594"
       d="m 115.51229,106.18726 c 1.12675,0.19552 2.26801,0.34861 3.41094,0.40815 0.38177,0.0199 0.77289,0.1021 1.14664,0.0219 0.24508,-0.0527 0.42264,-0.26966 0.63396,-0.40451 0.46786,-0.80193 0.12197,-0.52538 1.08089,-0.77264 0,0 -0.0883,-0.0614 -0.0883,-0.0614 v 0 c -1.36741,0.22258 -0.55011,0.19206 -2.44409,-0.21571 -0.54823,-0.11834 -1.09089,-0.26626 -1.64468,-0.35509 -1.55417,-0.2493 -3.21503,-0.21826 -4.7656,-0.63482 0,0 2.67016,2.01417 2.67016,2.01417 z" /><path
       style="fill:#000000;stroke-width:0.355415"
       id="path1596"
       d="m 78.611717,106.22666 c 1.379936,0.2636 2.76769,0.4128 4.169081,0.5101 0.580436,-0.0135 3.312073,0.27493 3.630778,-0.3024 0.0668,-0.12102 -0.0017,-0.27641 -0.0028,-0.41463 0.0049,-0.10155 0.0097,-0.2031 0.01463,-0.30466 0,0 -0.153589,-0.10611 -0.153589,-0.10611 v 0 c -0.217888,-0.0475 -0.435772,-0.0951 -0.653656,-0.14264 -0.743734,-0.19463 -0.953607,-0.30274 -1.694869,-0.3126 -1.024235,-0.0136 -2.058266,0.20662 -3.086257,0.15301 -1.330751,-0.0518 -2.637446,-0.28432 -3.966277,-0.35943 0,0 1.743043,1.27936 1.743043,1.27936 z" /><path
       style="fill:#000000;stroke-width:0.355415"
       id="path1600"
       d="m 94.564981,143.96751 c 0.534568,-0.58889 1.135349,-1.12674 1.906332,-1.35735 0.816371,-0.21799 1.623981,-0.23108 2.449561,-0.0834 0.945948,0.0346 4.260456,1.97076 0.950403,0.1383 0.681873,0.47734 1.288103,1.04908 1.895713,1.61491 0.40293,0.39506 0.9484,0.5982 1.44875,0.83498 0,0 0.0995,0.0407 0.0995,0.0407 v 0 c 0.0346,0.0106 1.09164,0.43815 0.49361,-0.0398 -0.62437,-0.56997 -1.23236,-1.16107 -1.91826,-1.65878 -1.51415,-0.9075 -2.85788,-1.89835 -4.618021,-2.16797 -0.81478,-0.11174 -1.637493,-0.11303 -2.389122,0.27003 -0.653132,0.44768 -1.288432,0.9171 -1.862244,1.46543 0,0 1.543851,0.94285 1.543851,0.94285 z" /><path
       style="fill:#000000;stroke-width:0.355415"
       id="path1604"
       d="m 46.8933,80.156907 c -0.655955,2.19121 -0.557888,4.556659 -0.585848,6.824508 -0.03771,4.051558 0.331908,8.067762 0.988917,12.060729 0.822371,4.175006 1.992772,8.314426 3.792591,12.181556 0.407484,0.87551 0.873015,1.72283 1.309521,2.58425 2.175149,4.13678 5.17791,7.71041 8.383268,11.07488 1.351053,1.34634 2.682932,2.71562 4.085536,4.00914 0.927367,0.82399 0.845963,0.77879 3.232868,1.37913 0.167495,0.0421 -0.06328,-0.33999 -0.108818,-0.5066 -0.08402,-0.30734 -0.192912,-0.60744 -0.27951,-0.91406 -0.440221,-1.55872 -0.455721,-1.76232 -0.854696,-3.5404 -1.273166,-6.80551 -1.864704,-13.74444 -1.819349,-20.66791 0.01076,-1.63146 0.09751,-3.26154 0.146268,-4.892306 0.247664,-4.224312 0.783819,-8.430111 1.62412,-12.577549 0.267908,-2.023508 1.027442,-3.931491 1.438245,-5.920357 0.151235,-0.732211 0.210789,-1.480401 0.316185,-2.220604 -0.413253,-2.301322 -0.455059,-1.290073 -0.166741,-3.031749 0,0 -0.09456,-0.05108 -0.09456,-0.05108 v 0 c -0.503099,1.521199 -0.07805,0.765397 -1.498584,2.126344 -0.27363,0.651207 -0.611375,1.279057 -0.820896,1.953633 -0.357818,1.15202 -1.091498,5.034343 -1.263234,6.035151 -0.723094,4.213853 -1.182165,8.467069 -1.381233,12.738441 -0.04704,1.634886 -0.124806,3.269206 -0.141107,4.904706 -0.06778,6.80222 0.300013,13.60971 1.113569,20.36293 0.200333,1.42979 0.403278,2.8469 0.701476,4.25941 0.02541,0.12036 -0.01699,0.29421 0.08789,0.35852 0.974937,0.59781 2.033069,1.04791 3.052172,1.56684 0.06528,0.0333 -0.126982,-0.0732 -0.190474,-0.10964 -1.591046,-1.26676 -3.000445,-2.74975 -4.480653,-4.13901 -3.303995,-3.36368 -6.428633,-6.93462 -8.677412,-11.11169 -0.433028,-0.85324 -0.895127,-1.69232 -1.299082,-2.55969 -1.804109,-3.87379 -3.047559,-7.99761 -3.915378,-12.17391 -0.749149,-4.059379 -1.356687,-8.16478 -1.538964,-12.292309 -0.0442,-2.294042 -0.04306,-4.596457 0.400453,-6.858173 0,0 -1.556556,-0.85312 -1.556556,-0.85312 z" /><path
       style="fill:#000000;stroke-width:0.355415"
       id="path1606"
       d="m 68.352907,69.950069 c -0.617513,1.104073 -0.619543,2.41573 -0.657885,3.64429 -0.06158,1.973304 -0.03696,1.809344 0.0028,3.893544 0.171622,4.195257 0.705737,8.361695 1.329408,12.510016 0.274779,1.934206 0.673538,3.846088 1.07112,5.757566 0.180405,0.949661 0.07043,0.723517 2.239577,1.088543 0.160983,0.02714 -0.0055,-0.326622 0.0011,-0.489725 0.01147,-0.283343 0.02495,-0.56686 0.0528,-0.849049 0.121071,-1.227066 0.232098,-1.688569 0.46095,-2.996623 1.323739,-6.234438 3.960555,-12.06489 6.765442,-17.750391 1.077647,-2.618929 3.13967,-4.877707 3.792782,-7.680535 0.08085,-0.346967 0.06241,-0.709781 0.09363,-1.064674 0,0 -0.09296,-0.0539 -0.09296,-0.0539 v 0 c -0.302204,0.198228 -0.637655,0.353261 -0.906609,0.594686 -2.155017,1.934462 -2.934847,4.960799 -4.301001,7.402555 -2.657952,5.744064 -5.286429,11.532147 -7.121012,17.602323 -0.03036,0.116329 -1.026777,4.052954 -0.898148,4.160755 0.642711,0.538597 1.405447,0.920658 2.150987,1.304507 0.0788,0.04057 -0.06508,-0.164891 -0.09763,-0.247328 -0.617299,-1.92381 -1.023179,-3.90631 -1.3946,-5.890098 -0.734309,-4.143319 -1.372791,-8.315451 -1.437872,-12.532474 -0.04628,-2.487417 -0.173174,-5.058853 0.517821,-7.477621 0,0 -1.57068,-0.926359 -1.57068,-0.926359 z" /><path
       style="fill:#000000;stroke-width:0.355415"
       id="path1608"
       d="m 83.122818,54.782024 c -1.126791,3.455252 -0.694758,7.233234 -0.478972,10.794549 0.680777,4.918825 2.225434,9.646786 4.367455,14.117054 1.423047,2.969807 2.231731,4.212854 3.894591,7.047716 3.448754,5.619162 7.717646,10.646603 12.151668,15.499677 1.62571,1.71749 3.27571,3.44773 5.20503,4.831 0.80203,0.49132 3.05217,2.57212 3.20862,1.33624 0.0354,-0.27884 -0.0824,-0.55619 -0.13379,-0.8325 -0.7468,-4.37657 -0.83235,-8.825246 -0.91374,-13.252678 0.0188,-6.253902 0.45842,-12.530288 1.70782,-18.668164 0.75353,-3.701777 1.11277,-4.57332 2.1962,-8.07787 0.68498,-2.895043 2.62399,-5.321735 3.31635,-8.208645 0.82838,-3.454093 -0.51896,-0.728581 0.81447,-3.08017 0,0 -0.0932,-0.05366 -0.0932,-0.05366 v 0 c -1.58664,2.798168 0.697,-0.901326 -2.17142,2.307647 -2.00477,2.242773 -2.51953,5.398177 -3.58962,8.094193 -0.98409,3.58131 -1.29634,4.448979 -2.0074,8.204417 -1.15922,6.122541 -1.68438,12.342163 -1.98322,18.559181 -0.11326,4.293003 -0.22357,8.599049 0.11152,12.885699 0.0106,0.16547 0.0171,0.33116 0.0301,0.49642 0.006,0.0712 -0.0149,0.15428 0.0261,0.21278 0.0193,0.0276 0.0625,-0.0326 0.0802,-0.0611 0.009,-0.0144 -0.0258,-0.0576 -0.0106,-0.0494 0.81841,0.46023 1.6261,0.93927 2.43655,1.41336 0.0896,0.0524 -0.18244,-0.0987 -0.27366,-0.14811 -2.15979,-1.36982 -3.99886,-3.17406 -5.77668,-4.99675 -4.60195,-4.855556 -9.048822,-9.89834 -12.556408,-15.623168 -0.680208,-1.153178 -1.391809,-2.288407 -2.040635,-3.459531 -3.047624,-5.500975 -5.40973,-11.445388 -6.372852,-17.680703 -0.07792,-0.996275 -0.192411,-1.990363 -0.233799,-2.988825 -0.107262,-2.587701 0.05382,-5.245756 0.558688,-7.785565 0,0 -1.469003,-0.833039 -1.469003,-0.833039 z" /><path
       style="fill:#000000;stroke-width:0.355415"
       id="path1612"
       d="m 117.76451,55.130584 c -0.64566,1.49562 -0.67232,3.223499 -0.66584,4.828996 0.12708,2.221494 0.22291,4.531605 1.0362,6.6333 0.16391,0.423548 0.38465,0.822854 0.57696,1.234283 1.3322,2.374624 3.46557,4.114192 5.41879,5.955172 2.05974,2.060906 3.82815,4.37594 5.39876,6.823628 1.73213,2.857326 2.58043,6.096147 3.30562,9.32463 0.81538,3.566761 0.96779,7.21482 1.06044,10.856197 0.085,2.86164 -0.0857,5.73224 0.1981,8.58515 0.32281,1.81946 0.75139,1.85674 3.37256,2.78744 0.20085,0.0714 0.28027,-0.3259 0.37999,-0.51429 0.32169,-0.60785 0.48795,-1.44802 0.654,-2.08042 1.0973,-5.13984 1.50539,-10.393716 2.10303,-15.606631 0.59093,-4.954081 1.67604,-9.830521 3.22594,-14.569512 0.0383,-0.614167 1.18187,-2.321899 1.00331,-2.926219 -0.10156,-0.343684 -0.43059,-0.573946 -0.62193,-0.876962 -0.0706,-0.111627 -0.10695,-0.241381 -0.16046,-0.362068 0,0 -0.092,-0.05552 -0.092,-0.05552 v 0 c -0.15743,-0.0015 -0.31515,0.0057 -0.47224,-0.0044 -0.37098,-0.02406 -0.75401,-0.202218 -1.11094,-0.09828 -0.69188,0.201489 -1.05088,2.354972 -1.2566,2.841774 -1.31368,4.864594 -2.31319,9.818212 -2.84317,14.832747 -0.53964,5.150958 -1.03958,10.352131 -2.46912,15.348731 -0.22249,0.61616 -0.4061,1.29842 -0.78447,1.85267 -0.0554,0.081 -0.30643,0.12546 -0.22872,0.1853 0.8099,0.62404 1.72927,1.0914 2.59387,1.63711 -0.084,-0.1166 -0.19255,-0.21883 -0.25183,-0.34967 -0.0924,-0.20401 -0.13165,-0.42814 -0.19751,-0.64222 -0.51229,-2.85885 -0.3442,-5.77671 -0.43662,-8.66747 -0.13393,-3.670836 -0.4348,-7.351567 -1.14756,-10.959381 -0.71988,-3.240391 -1.52973,-6.51401 -3.2341,-9.399037 -1.67538,-2.656662 -3.66634,-5.073553 -6.02714,-7.157408 -1.93991,-1.838721 -4.07085,-3.556576 -5.45147,-5.884599 -0.19807,-0.403521 -0.42425,-0.794421 -0.5942,-1.21056 -0.84657,-2.072795 -0.94377,-4.355287 -1.03643,-6.561307 -0.0145,-1.626104 -0.14267,-3.29155 0.40008,-4.856952 0,0 -1.64529,-0.944214 -1.64529,-0.944214 z" /><path
       style="fill:#000000;stroke-width:0.355415"
       id="path1616"
       d="m 144.29641,76.609236 c 1.22675,0.776555 -0.70323,-0.459744 -1.44589,-0.714918 -0.21876,-0.07517 0.33298,0.321883 0.48612,0.495254 0.20011,0.226541 0.39394,0.459325 0.57251,0.703213 0.64554,0.881741 0.69034,1.059885 1.22393,2.065045 1.60731,3.364202 2.12899,7.04179 2.43398,10.715805 0.37014,4.807477 0.0297,9.628949 -0.22381,14.433125 -0.19168,4.04547 -0.67463,8.06718 -1.16274,12.085 -0.0844,1.91398 -0.79761,3.75642 -0.82385,5.67057 1.19895,3.7307 5.25586,2.1976 7.52118,1.33668 3.04354,-1.44716 6.01966,-3.14332 8.50474,-5.45201 2.15908,-2.00583 3.36298,-3.62569 5.24218,-5.90462 4.61068,-6.40205 7.70813,-13.815596 8.99495,-21.61161 0.25284,-1.531735 0.33314,-3.087001 0.49972,-4.630503 -0.009,-4.072972 0.15332,-4.375444 -0.47614,-8.321774 -0.18902,-1.1851 -0.38593,-2.376104 -0.73371,-3.524693 -0.93043,-3.072956 -1.40351,-3.197049 -2.92329,-5.879988 -0.32148,-0.567518 -0.59206,-1.162393 -0.88809,-1.743595 0,0 -0.0978,-0.04456 -0.0978,-0.04456 v 0 c 0.23095,0.550575 0.56523,1.06848 0.69289,1.651732 0.14027,0.640976 0.0254,1.313938 0.0989,1.965961 0.10402,0.923209 0.25663,1.84114 0.43277,2.75334 0.22771,1.179281 0.57009,2.335254 0.77823,3.51815 0.70635,4.014622 0.54856,4.177141 0.64565,8.33533 -0.14329,1.54409 -0.19558,3.09934 -0.42985,4.632264 -1.19031,7.788505 -4.43732,15.076986 -9.00131,21.456326 -2.02187,2.44826 -2.90862,3.71634 -5.26218,5.82171 -2.54753,2.27888 -5.60378,3.88987 -8.74821,5.16984 -1.27393,0.39038 -1.52466,0.53574 -2.76429,0.68947 -0.30143,0.0373 -0.60654,0.0618 -0.90997,0.0479 -0.17774,-0.008 -0.6661,-0.21719 -0.52162,-0.11338 3.32724,2.39161 3.33082,2.45338 2.5088,1.43441 -0.10086,-0.69417 -0.0163,-1.32198 0.0537,-2.02035 0.12694,-1.26512 0.24432,-2.53123 0.35952,-3.79745 0.36414,-4.08071 0.6971,-8.16355 0.86242,-12.25825 0.25398,-4.81472 0.58841,-9.643841 0.25095,-14.463663 -0.3576,-3.661649 -0.84046,-7.36727 -2.31003,-10.774916 -1.35698,-2.8121 -2.32358,-3.851399 -5.4118,-5.280979 0,0 1.97135,1.556006 1.97135,1.556006 z" /><path
       style="fill:#000000;stroke-width:0.355415"
       id="path1618"
       d="m 172.02299,68.553312 c 1.76382,1.788624 3.42051,3.677809 5.11474,5.531368 1.13519,1.118398 2.15956,2.49832 3.57698,3.295694 3.27082,1.840025 2.12864,2.209202 3.65598,1.540264 0.0611,-0.202182 0.17161,-0.395649 0.18346,-0.606542 0.0635,-1.130893 -0.52382,-2.481296 -0.90734,-3.495751 -0.63552,-1.680983 -0.86745,-2.099876 -1.65582,-3.816944 -2.26013,-4.421185 -4.43724,-9.04899 -7.84312,-12.736012 -0.67284,-0.728378 -1.43782,-1.36589 -2.15673,-2.048834 -4.1662,-3.340484 -9.02557,-5.794251 -14.32794,-6.62655 -0.51445,-0.08076 -1.03904,-0.07184 -1.55858,-0.10773 -1.42698,0.191735 -0.6676,0.204618 -2.27384,-0.144308 0,0 0.0856,0.065 0.0856,0.065 v 0 c 2.07436,0.450634 0.87031,0.125933 3.56711,1.127973 0.81193,0.260421 1.6173,0.542104 2.43573,0.781257 1.93209,0.564591 2.96406,0.696159 4.88201,1.365174 0.83463,0.291131 1.62735,0.693494 2.45988,0.990582 0.11525,0.04112 -0.39483,-0.289197 -0.29522,-0.218121 0.76808,0.548203 1.53384,1.09968 2.30073,1.649518 0.74544,0.680609 1.53652,1.314379 2.23632,2.04182 3.46793,3.604923 5.68675,8.161633 7.80248,12.631764 0.66174,1.506093 1.02019,2.255817 1.57627,3.750313 0.40821,1.097053 0.93515,2.365882 0.7771,3.563216 -1.07947,0.213225 -0.29028,-7.11e-4 1.91378,1.409744 0.26268,0.168075 -0.54206,-0.310476 -0.79627,-0.491099 -1.12944,-0.802495 -2.08856,-1.812503 -3.02585,-2.823962 -1.66245,-1.831046 -3.34952,-3.639436 -4.99179,-5.488701 0,0 -2.73563,-1.139149 -2.73563,-1.139149 z" /><path
       style="fill:#000000;stroke-width:0.349313"
       id="path1624"
       d="m 47.257882,82.469979 c -0.642392,1.434646 -1.233825,2.889978 -1.803857,4.352752 -1.257676,3.36325 -2.299157,6.796191 -3.129041,10.280032 -0.948031,4.288617 -1.704576,8.615827 -2.209443,12.973647 -0.231425,2.37446 -0.554288,4.787 -1.485853,7.01401 -0.942529,0.47511 -0.831423,0.359 2.267686,1.23406 0.214553,0.0606 -0.261785,-0.35339 -0.354367,-0.54991 -0.589658,-1.25173 -0.782771,-2.73085 -1.070319,-4.05853 -1.150384,-5.28373 -1.75326,-10.67402 -1.834302,-16.073001 -0.02229,-1.484107 0.03006,-2.968388 0.04511,-4.452588 0.08632,-6.482657 1.145455,-12.881975 2.363729,-19.238791 0.29381,-1.533073 0.679853,-3.051672 0.893054,-4.597134 0.210332,-1.524658 0.250494,-3.066746 0.375742,-4.600122 l 1.06871,-3.718769 -0.09439,-0.04962 c -0.372311,1.295433 -0.750219,2.610363 -1.06884,3.719003 -0.604444,1.285229 -1.343322,2.519048 -1.813337,3.855679 -0.512188,1.456553 -0.792488,2.980852 -1.120053,4.486247 -1.374695,6.317722 -2.221103,12.763988 -2.491994,19.212481 -0.05956,6.782289 -3.55e-4,13.607325 1.225206,20.307695 0.26251,1.36454 0.537613,2.70793 0.907994,4.04862 0.06047,0.21893 -0.005,0.52519 0.187058,0.6553 2.70621,1.83383 2.292048,2.23864 3.052478,1.16158 0.29295,-1.30467 0.173776,-2.64198 0.228883,-3.96741 0.02357,-0.56725 0.07347,-1.13323 0.12032,-1.69914 0.05229,-0.63149 0.11805,-1.26187 0.177068,-1.89279 0.411567,-4.4015 0.710139,-8.82582 1.878484,-13.120381 0.869356,-3.476669 1.517834,-7.03443 2.967946,-10.343296 0.635257,-1.431982 1.341032,-2.834414 1.937869,-4.281104 l -1.221532,-0.658524 z"
       sodipodi:nodetypes="sccccsscscssccccssccsscsscccccs" /><path
       style="fill:#000000;stroke-width:0.355415"
       id="path1626"
       d="m 40.036702,65.083715 c -0.220536,0.155277 -0.636072,0.451094 -0.839327,0.576935 -0.851286,0.527075 -0.808643,0.402952 -1.677047,1.078121 -1.02938,0.800323 -1.570886,1.374792 -2.541792,2.30515 -3.21793,3.107184 -6.068307,6.556735 -8.915887,9.99729 -0.854775,0.994086 -1.696786,2.033603 -2.767389,2.809981 -0.154588,0.112107 -0.307978,0.246648 -0.493886,0.290269 -0.07712,0.01809 -0.274276,-0.156607 -0.200681,-0.127304 0.735357,0.292833 1.45961,0.612827 2.189417,0.919244 0.06806,-0.268871 0.112328,-0.544905 0.204156,-0.806606 0.343935,-0.980183 0.964443,-2.238473 1.429344,-3.116997 1.673627,-3.162638 3.795474,-5.98612 5.88055,-8.885954 4.691696,-6.360609 10.027765,-12.223777 15.657532,-17.763142 2.317977,-2.280752 6.315095,-5.912478 8.757655,-8.153688 4.352088,-4.341932 2.09761,-2.460385 6.682734,-5.739953 0,0 -0.09068,-0.05765 -0.09068,-0.05765 v 0 c -4.694826,3.358362 -2.142667,1.634993 -7.696692,5.110044 -1.494774,1.232453 -3.039589,2.406614 -4.484324,3.697364 -1.552402,1.386945 -3.022431,2.863936 -4.500497,4.329841 -5.623428,5.577148 -10.906622,11.495022 -15.884743,17.653452 -3.175561,4.18091 -2.084397,2.589051 -4.667858,6.511275 -1.28135,1.945353 -2.628893,3.901661 -3.528395,6.061037 0.710531,0.593103 1.379178,1.240333 2.131592,1.779312 0.107906,0.0773 0.386838,-0.241004 0.5873,-0.500372 0.787237,-1.01857 1.420756,-2.15233 2.2526,-3.138789 2.732224,-3.526609 5.570456,-6.987561 8.902794,-9.973304 1.632198,-1.39131 3.321659,-2.707364 5.090745,-3.920339 0,0 -1.47721,-0.935222 -1.47721,-0.935222 z" /><path
       style="fill:#000000;stroke-width:0.355415"
       id="path1628"
       d="m 61.292191,41.724599 c -1.428486,-0.651644 -2.853807,-1.31092 -4.283518,-1.961071 -3.56772,-1.746543 -7.494287,-2.210096 -11.389259,-2.642591 -3.251367,-0.490197 -6.201557,0.350297 -9.278718,1.218084 -0.150731,0.0071 -0.578211,-0.06209 -0.45219,0.02089 0.909067,0.598633 1.825185,1.244252 2.864501,1.567652 0.244387,0.07604 0.379587,-0.345332 0.588492,-0.493206 0.491936,-0.348223 0.99613,-0.679772 1.511065,-0.992977 2.248203,-1.367471 3.354317,-1.883584 5.834756,-3.179273 8.658223,-4.05501 17.773931,-7.33424 27.187518,-9.12705 1.860116,-0.354256 3.74537,-0.560615 5.618057,-0.840921 7.335859,-0.40412 2.613148,-0.285071 9.23112,-0.157157 0.919807,0.01777 1.843874,-0.07142 2.759901,0.01371 0.788722,0.07333 1.554334,0.306359 2.331495,0.459541 0,0 -0.08541,-0.06516 -0.08541,-0.06516 v 0 c -1.724618,-0.467311 -5.08055,-1.421437 -6.646875,-1.606427 -2.950708,-0.348493 -6.15162,0.07831 -9.068934,0.315924 -1.846273,0.303842 -3.704128,0.54418 -5.538823,0.911524 -4.202509,0.841424 -7.765978,1.849649 -11.864211,3.108145 -5.365393,1.647624 -10.668856,3.509776 -15.82518,5.732067 -2.708897,1.185698 -5.488584,2.322708 -8.08568,3.751687 -0.299554,0.16482 -1.066597,0.285712 -0.860378,0.558428 1.787899,2.364461 1.808072,2.244692 3.112163,1.796572 2.871623,-1.081071 5.828804,-1.713604 8.917297,-1.319736 3.707449,0.397326 7.478003,0.864093 10.921181,2.381553 1.335177,0.569385 2.658752,1.199843 4.017107,1.696848 0,0 -1.515434,-1.147068 -1.515434,-1.147068 z" /><path
       style="fill:#000000;stroke-width:0.355415"
       id="path1630"
       d="m 94.662661,28.855057 c -0.786336,-1.886872 -2.222644,-3.273531 -3.761626,-4.556961 -2.164102,-1.588062 -4.297108,-3.212954 -6.306214,-4.994568 -0.165615,-0.171893 -0.633116,-0.585963 -0.711944,-0.882763 -0.21209,-0.798533 2.917352,-1.427173 3.174325,-1.494945 0.829017,-0.115348 1.652375,-0.283681 2.487057,-0.346047 5.891877,-0.440231 11.912311,0.446186 17.584981,2.004984 1.70526,0.468589 3.36921,1.076328 5.05381,1.614496 5.12487,1.899339 9.96332,4.448426 14.70008,7.15003 0,0 0.10041,0.03855 0.10041,0.03855 v 0 c -5.27654,-3.125157 -10.5236,-6.378343 -16.35584,-8.393445 -1.68464,-0.531812 -3.35096,-1.125533 -5.05389,-1.595436 -6.746572,-1.861617 -13.833789,-2.813551 -20.818586,-2.067026 -0.641931,0.129641 -3.894414,0.502976 -3.7529,1.802489 0.03946,0.362284 0.578741,0.821908 0.772721,1.023332 2.066011,1.778398 4.217592,3.448521 6.42307,5.05053 1.501248,1.230447 2.978906,2.533837 3.731133,4.374914 0,0 2.733526,1.271871 2.733526,1.271871 z" /><path
       style="fill:#000000;stroke-width:0.355415"
       id="path1632"
       d="m 121.98198,27.988627 c 1.84708,-1.144327 3.63239,-2.338273 5.64378,-3.203398 0.92508,-0.397888 1.87715,-0.72983 2.81571,-1.094746 8.36111,-2.886973 17.20518,-3.449396 25.97491,-3.588664 4.21076,0.01076 8.4214,0.156132 12.62411,0.415189 0.15373,0.01849 0.5916,0.138939 0.46121,0.05541 -0.91282,-0.584809 -1.89037,-1.061971 -2.84225,-1.580818 -0.0679,-0.03706 -0.14058,-0.104524 -0.21579,-0.08605 -0.92266,0.226604 -3.01628,1.466327 -3.79151,1.874895 -5.92116,3.229694 -11.41348,7.217652 -16.62188,11.487902 -2.15179,2.44267 -1.21997,1.258971 -2.84883,3.508383 0,0 0.0907,0.05742 0.0907,0.05742 v 0 c 3.03171,-1.294408 1.44953,-0.537061 4.71884,-2.329019 5.52193,-3.991957 10.93416,-8.239366 17.18857,-11.056387 0.63228,-0.278163 1.25894,-0.569436 1.89683,-0.834487 0.72349,-0.300624 1.51224,-0.456641 2.1945,-0.841804 1.8099,-1.021784 -1.45433,-2.258962 -2.82012,-2.146272 -3.96758,0.07454 -7.93698,0.0015 -11.90399,0.124779 -8.81797,0.31947 -17.70554,0.8966 -26.18601,3.537827 -2.0569,0.724626 -3.2888,1.100919 -5.21735,1.975181 -1.02965,0.466768 -2.41584,1.070189 -3.12257,2.028896 -0.0881,0.119285 -0.12211,0.270033 -0.18323,0.405052 0,0 2.14422,1.290723 2.14422,1.290723 z" /><path
       style="fill:#000000;stroke-width:0.355415"
       id="path1634"
       d="m 143.20725,37.07012 c -1.146,-1.252562 1.61901,-1.218691 2.1374,-1.253824 6.66184,-0.156268 13.13898,1.627849 19.46981,3.490783 6.98426,2.125227 13.81586,4.688119 20.59684,7.380563 1.21711,0.355648 2.39058,1.044691 3.66596,1.222814 0.10554,0.01476 0.25287,0.05362 0.31827,-0.03057 0.0889,-0.114401 0.15856,-0.347134 0.0416,-0.432603 -0.93923,-0.68629 -2.01465,-1.163465 -3.02198,-1.745194 -3.91529,-0.783959 -7.9567,-0.445451 -11.89285,-0.02835 -3.42676,0.675907 -3.78398,0.639883 -7.20042,1.770348 -1.2929,0.427803 -2.61057,0.814234 -3.83229,1.415931 -8.28403,4.080004 2.51338,0.02566 -6.29473,3.087692 0,0 0.0891,0.06023 0.0891,0.06023 v 0 c 7.39718,-2.571653 -1.24593,0.22519 7.98118,-1.944768 1.37373,-0.323065 2.68822,-0.860892 4.04223,-1.25863 3.80563,-1.117909 3.44967,-0.969239 7.16776,-1.742675 4.0512,-0.411666 8.30369,-0.705328 12.25771,0.488557 -4.42136,-2.73884 -2.57036,-0.794015 -1.81273,-1.427106 0.0426,-0.03556 -0.10952,0.02986 -0.16465,0.02371 -0.20038,-0.02225 -0.39945,-0.05938 -0.59507,-0.108116 -0.99482,-0.24781 -1.66692,-0.513419 -2.67664,-0.863351 -6.6668,-2.497077 -13.35869,-4.925668 -20.16497,-7.02263 -6.57329,-1.968218 -13.29395,-3.834599 -20.2069,-3.91121 -1.04192,0.23455 -2.93443,0.622883 -1.78936,2.061053 0,0 1.88481,0.767334 1.88481,0.767334 z" /><path
       style="fill:#000000;stroke-width:0.355415"
       id="path1691"
       d="m 41.898674,105.85545 c -0.259709,1.32095 -0.207495,2.66549 -0.23016,4.00496 -0.05824,1.83518 -0.07859,3.67117 -0.113394,5.50705 -0.05494,2.07891 0.11178,4.1527 0.20263,6.22792 0.04153,1.91575 0.246229,3.81439 0.563334,5.70209 0.254872,1.55061 0.721229,3.0514 1.175938,4.55158 0.41807,1.32651 0.958366,2.61084 1.501487,3.88995 0.573857,1.2909 1.172365,2.57111 1.828633,3.82227 0.704184,1.29914 1.511517,2.53768 2.331995,3.76527 0.979882,1.44647 2.077003,2.80788 3.133574,4.19799 1.187446,1.55727 2.438552,3.06625 3.755136,4.51581 1.31611,1.33205 2.625983,2.6711 3.95363,3.99179 1.260117,1.30047 2.701504,2.40335 4.111613,3.53333 2.286252,1.76724 4.815569,3.2265 7.404002,4.5012 1.594341,0.75208 3.2771,1.28381 4.974197,1.74614 1.66744,0.41201 3.289504,0.97923 4.931108,1.47943 1.427023,0.42541 2.862987,0.81947 4.313192,1.15755 1.433304,0.3441 2.899628,0.49254 4.362683,0.64155 1.512563,0.15141 3.022434,0.32731 4.536598,0.46219 1.717714,0.13338 3.431193,0.31122 5.140643,0.52493 1.705717,0.242 3.416857,0.44255 5.123747,0.67541 1.56967,0.24849 3.15196,0.40695 4.73755,0.50645 1.3199,0.097 2.64096,0.0215 3.959,-0.0592 1.10574,-0.0689 2.21138,-0.13652 3.31867,-0.17425 1.17146,-0.032 2.33591,-0.17698 3.49749,-0.32288 1.152,-0.12398 2.28227,-0.37911 3.40597,-0.65337 1.00845,-0.24143 2.01458,-0.49047 3.01797,-0.75203 1.01553,-0.2543 2.03306,-0.5003 3.04713,-0.76042 1.06237,-0.26817 2.11507,-0.56995 3.15098,-0.92693 0.93583,-0.30866 1.82111,-0.73666 2.69006,-1.19624 0.89033,-0.47729 1.76346,-0.98525 2.64078,-1.48566 0.75195,-0.42245 1.50913,-0.83553 2.23979,-1.29422 0.72506,-0.49416 1.38672,-1.07572 2.05324,-1.64485 0.66513,-0.56486 1.32101,-1.14204 1.9158,-1.78132 0.52601,-0.58543 0.97263,-1.23465 1.45583,-1.85438 0.52256,-0.64834 1.12262,-1.22707 1.71588,-1.80927 0.44075,-0.41631 0.87916,-0.83408 1.28427,-1.28545 0.35706,-0.42005 0.71684,-0.83751 1.08195,-1.25058 0.41964,-0.48025 0.91922,-0.87966 1.41862,-1.27264 0.64731,-0.45566 1.11731,-1.08558 1.57163,-1.72171 0.46738,-0.69094 0.96206,-1.3599 1.49466,-2.00175 0.4706,-0.53449 0.89784,-1.1011 1.28985,-1.69496 0.3528,-0.54694 0.60929,-1.14637 0.85484,-1.74675 0.29105,-0.69462 0.49419,-1.41867 0.6785,-2.14728 0.22682,-0.81908 0.35071,-1.66097 0.4823,-2.49913 0.11561,-0.85297 0.31305,-1.69064 0.50838,-2.52788 0.16169,-0.68594 0.26643,-1.38301 0.4132,-2.07202 0.17084,-0.80924 0.45156,-1.59001 0.72559,-2.36877 0.31604,-0.90044 0.65609,-1.79191 0.93727,-2.70409 0.25973,-0.855 0.38027,-1.74119 0.5235,-2.6205 0.13516,-0.86044 0.36763,-1.69797 0.64864,-2.52081 0.26243,-0.75556 0.50649,-1.51822 0.69209,-2.29649 0.12884,-0.67191 0.27202,-1.34097 0.40362,-2.01241 0.11362,-0.74383 0.24127,-1.48366 0.4106,-2.21698 0.15263,-0.58849 0.25476,-1.18789 0.35882,-1.78633 0.0945,-0.50735 -0.6522,-0.83949 -0.92266,-1.11122 -0.11233,-0.1128 -0.18097,-0.2619 -0.27145,-0.39285 0,0 -0.17096,-0.0981 -0.17096,-0.0981 v 0 c -0.15658,-0.008 -0.31613,0.007 -0.46972,-0.0242 -0.0135,-0.002 -0.93449,-0.37781 -1.20502,-0.22233 -0.0616,0.0355 -0.036,0.13744 -0.0542,0.20617 -0.0986,0.59592 -0.19105,1.19347 -0.32163,1.78348 -0.16771,0.73579 -0.32975,1.47355 -0.42804,2.22247 -0.12345,0.66987 -0.29427,1.33019 -0.39706,2.0041 -0.15825,0.77615 -0.38145,1.53505 -0.62976,2.28703 -0.2849,0.84 -0.56983,1.67724 -0.69315,2.56044 -0.14765,0.8646 -0.26359,1.73704 -0.49971,2.58364 -0.26699,0.91158 -0.61406,1.79474 -0.92943,2.6902 -0.27868,0.79241 -0.56465,1.58591 -0.75746,2.40446 -0.13768,0.68963 -0.26636,1.38075 -0.40302,2.07046 -0.18371,0.84762 -0.38847,1.69175 -0.5103,2.55136 -0.13453,0.82601 -0.26257,1.65541 -0.46949,2.46703 -0.19518,0.70813 -0.39064,1.41838 -0.67132,2.09857 -0.24131,0.57791 -0.48922,1.15727 -0.82219,1.68958 -0.38383,0.58538 -0.81553,1.13493 -1.27651,1.66171 -0.52477,0.65481 -1.02363,1.32923 -1.49477,2.02374 -0.44993,0.60591 -0.92767,1.18531 -1.55196,1.62223 -0.5145,0.40623 -1.01752,0.83003 -1.45391,1.32147 -0.37153,0.40802 -0.73265,0.82442 -1.08426,1.24973 -0.3964,0.44439 -0.81224,0.8708 -1.23032,1.29479 -0.59332,0.59885 -1.191,1.19578 -1.72445,1.84982 -0.49292,0.60251 -0.95851,1.22703 -1.46832,1.81552 -0.58866,0.62626 -1.23398,1.19357 -1.88733,1.75123 -0.66344,0.55518 -1.32551,1.11647 -2.05209,1.58888 -0.71768,0.45717 -1.45609,0.88006 -2.19122,1.30833 -0.8686,0.50365 -1.74272,0.99824 -2.62241,1.48223 -0.85514,0.44739 -1.73509,0.84652 -2.65008,1.15701 -1.03736,0.33903 -2.08852,0.63438 -3.1477,0.89753 -1.0188,0.25345 -2.04192,0.48943 -3.05689,0.75811 -0.99541,0.26622 -1.99705,0.50707 -2.99664,0.75694 -1.11865,0.26172 -2.24447,0.49374 -3.38788,0.61859 -1.16172,0.13628 -2.32537,0.26675 -3.4961,0.28955 -1.10062,0.0492 -2.19945,0.12869 -3.29894,0.19796 -1.2987,0.0818 -2.60104,0.13593 -3.90128,0.0472 -1.54914,-0.10929 -3.08921,-0.29875 -4.63412,-0.45313 -1.69398,-0.18729 -3.383893,-0.40662 -5.072451,-0.63758 -1.717877,-0.21403 -3.439534,-0.39364 -5.16538,-0.53068 -1.516879,-0.14637 -3.031512,-0.31357 -4.546894,-0.4745 -1.459443,-0.15656 -2.919583,-0.32785 -4.34733,-0.68149 -1.432564,-0.34112 -2.855037,-0.72433 -4.265583,-1.14758 -1.637098,-0.50279 -3.262397,-1.0461 -4.924411,-1.46411 -1.684137,-0.47921 -3.35665,-1.01857 -4.932809,-1.79127 -1.528251,-0.77573 -0.819074,-0.43615 1.168911,0.7518 0.261521,0.15626 -0.531056,-0.29895 -0.79177,-0.45655 -0.537416,-0.32491 -1.07115,-0.67796 -1.579771,-1.04615 -0.259105,-0.18756 -0.510053,-0.38617 -0.765083,-0.57924 -1.501223,-1.20181 -3.00425,-2.40381 -4.471443,-3.64633 -1.339482,-1.31382 -2.648277,-2.65936 -3.975635,-3.98538 -1.317593,-1.434 -2.569167,-2.92766 -3.742472,-4.48246 -1.047963,-1.38742 -2.141376,-2.74191 -3.125414,-4.17627 -0.811733,-1.21366 -1.609011,-2.43872 -2.307577,-3.72214 -0.659597,-1.24142 -1.264119,-2.5107 -1.830059,-3.79757 -0.552134,-1.27223 -1.092255,-2.55342 -1.531214,-3.86964 -0.464735,-1.49732 -0.957397,-2.99178 -1.232092,-4.53894 -0.337174,-1.88377 -0.555856,-3.78222 -0.628136,-5.696 -0.116764,-2.15191 -0.197779,-4.30423 -0.600763,-6.42796 -0.212726,-1.9315 -0.337062,-3.86691 -0.48978,-5.80388 -0.04898,-1.33923 -0.0177,-2.69766 0.104091,-4.02791 0,0 -1.33833,-0.72135 -1.33833,-0.72135 z" /><path
       style="fill:#000000;stroke-width:0.355415"
       id="path1693"
       d="m 70.747617,164.21589 c -0.846681,1.18745 -1.48467,2.50951 -2.103716,3.82523 -0.889244,2.07066 -1.69136,4.17669 -2.575077,6.25021 -0.876195,1.85619 -1.659178,3.74812 -2.377484,5.6701 -0.723196,1.95976 -1.545793,3.88014 -2.31134,5.82325 -0.77654,1.96667 -1.417448,3.98385 -2.034856,6.00507 -0.549806,1.80754 -0.936781,3.65812 -1.366562,5.4963 -0.338962,1.60276 -0.931598,3.13711 -1.33248,4.72041 -0.304274,1.33811 -0.681678,2.66392 -0.834173,4.02982 -0.158871,1.50732 0.01159,3.01661 0.180966,4.51434 0.07593,1.35236 0.205735,2.68994 0.72134,3.95191 1.117459,1.87591 2.738333,2.89078 4.692038,1.93073 1.802939,-1.18129 2.794577,-3.06207 3.868062,-4.86024 1.639546,-2.79476 3.106579,-5.68882 4.498549,-8.61357 1.614107,-3.46865 3.009175,-7.03319 4.447244,-10.5769 1.190615,-2.84016 2.30104,-5.71313 3.48179,-8.5572 0.112118,-0.58839 1.561155,-2.81578 1.409971,-3.32335 -0.103061,-0.34599 -0.419477,-0.58784 -0.618764,-0.88885 -0.110738,-0.16728 -0.20725,-0.34355 -0.310874,-0.51533 0,0 -0.111698,-0.0606 -0.111698,-0.0606 v 0 c -0.155483,0.0264 -0.308891,0.0721 -0.466441,0.0794 -0.322722,0.0149 -0.667328,-0.12867 -0.969095,-0.0134 -0.42556,0.16268 -1.261082,2.84006 -1.513276,3.27865 -1.153248,2.86451 -2.178408,5.7784 -3.333733,8.64227 -1.404156,3.54985 -2.81395,7.10083 -4.458094,10.54836 -1.428403,2.90055 -2.982392,5.73391 -4.509427,8.58314 -0.749636,1.33276 -1.911126,3.38 -3.077676,4.39276 -0.175814,0.15262 -0.384728,0.26233 -0.577088,0.39349 -0.390263,0.14734 -0.547557,0.25552 -0.960361,0.24293 -0.132651,-0.004 -0.498993,-0.1517 -0.391121,-0.0744 3.592766,2.5747 1.850456,1.27914 1.324882,0.50313 -0.598839,-1.25727 -0.790053,-2.66814 -1.051588,-4.02425 -0.155892,-1.48111 -0.33521,-2.97324 -0.191499,-4.46325 0.138726,-1.37702 0.29966,-2.74599 0.669312,-4.08562 0.347053,-1.6195 0.612836,-3.25438 1.103846,-4.8433 0.433517,-1.83678 0.792739,-3.69232 1.325769,-5.50432 0.614525,-2.01737 1.241577,-4.03444 2.015108,-5.9976 0.79209,-1.93378 1.60646,-3.85862 2.312766,-5.82629 0.74165,-1.90993 1.546924,-3.79178 2.360903,-5.67182 0.867267,-2.07378 1.686449,-4.16876 2.619766,-6.21413 0.634456,-1.28071 1.269793,-2.60664 2.246911,-3.66669 0,0 -1.802809,-1.10045 -1.802809,-1.10045 z" /><path
       style="fill:#000000;stroke-width:0.355415"
       id="path1695"
       d="m 138.33391,163.63132 c 0.99609,1.98216 1.78556,4.04906 2.52475,6.13796 1.16114,3.34673 2.01134,6.78525 2.83851,10.22576 0.73129,3.15374 1.4639,6.30699 2.26016,9.44504 0.67075,2.6271 1.43067,5.23017 2.18639,7.83372 0.57522,1.96829 1.14111,3.94741 1.33665,5.99427 -0.0106,1.35032 -0.0782,1.96374 -1.48999,2.21649 -0.7795,0.058 -1.55136,-0.062 -2.25336,-0.41669 -0.20474,-0.10343 -0.79429,-0.4588 -0.59193,-0.35086 0.81035,0.43224 1.61085,0.88265 2.4163,1.32397 -1.55926,-1.29406 -2.54988,-3.09867 -3.59196,-4.80298 -1.35942,-2.05618 -2.6333,-4.15784 -3.75198,-6.35442 -1.07636,-2.10989 -1.86186,-4.34374 -2.59135,-6.59134 -0.57007,-1.4249 -0.74643,-2.98074 -1.29984,-4.40512 -0.4943,-0.61781 -1.18014,-1.00852 -1.7869,-1.4982 0,0 -0.0977,-0.0448 -0.0977,-0.0448 v 0 c -0.42324,0.0337 -0.83081,-0.1979 -1.21798,0.0653 0.21174,1.50778 0.80348,2.94795 1.24212,4.39808 0.76452,2.25917 1.58105,4.50399 2.61304,6.65742 1.10475,2.21232 2.36536,4.33018 3.74561,6.38268 1.04273,1.69904 1.9857,3.50707 3.44887,4.89304 2.10284,1.27394 4.07076,3.09655 6.6538,2.77728 1.53602,-0.42688 1.72045,-1.1799 1.68326,-2.69695 -0.24713,-2.07968 -0.8325,-4.09923 -1.41925,-6.10485 -0.81415,-2.61959 -1.66887,-5.22807 -2.33542,-7.89087 -0.84504,-3.17458 -1.66387,-6.35579 -2.46954,-9.54061 -0.87208,-3.48015 -1.68371,-6.98613 -2.99793,-10.33426 -0.78108,-2.15056 -1.53447,-4.32358 -2.75659,-6.27435 0,0 -2.29777,-1.04465 -2.29777,-1.04465 z" /><path
       style="fill:#000000;stroke-width:0.355415"
       id="path1697"
       d="m 77.280626,180.90842 c -0.623131,2.68783 -0.949023,5.43069 -1.4561,8.14127 -1.122917,5.59909 -2.26256,11.19454 -3.392014,16.79236 -1.242517,5.51573 -2.127326,11.09605 -2.969167,16.68355 -0.623302,3.99036 -1.064693,8.00543 -1.527,12.01668 -0.375859,3.18183 -0.713303,6.36654 -0.983191,9.55906 -0.283413,2.99125 -0.296235,5.99446 -0.193614,8.99419 0.138627,2.86062 0.387513,5.71489 0.740814,8.55666 0.365801,2.65409 1.002591,5.26246 1.853982,7.80059 1.262815,3.49158 2.516005,3.70901 5.927624,5.66784 1.987826,0.53725 3.822988,-0.28058 5.457091,-1.36432 2.492421,-1.73412 3.637826,-4.20903 4.846675,-6.89174 1.589609,-3.74815 2.555678,-7.71981 3.645324,-11.63234 1.063751,-4.36496 1.975531,-8.76544 2.982076,-13.14447 0.787365,-3.642 1.583306,-7.28235 2.335123,-10.93188 0.265084,-1.33277 0.552903,-2.66084 0.839095,-3.98918 0.08682,-0.40307 0.383694,-1.64742 0.377482,-2.10087 -0.0048,-0.32796 -0.110691,-0.64661 -0.165989,-0.96989 -0.924616,-1.23612 -0.739813,-0.64902 -0.914424,-1.60422 0,0 -0.0956,-0.049 -0.0956,-0.049 v 0 c -0.204426,0.71117 0.02223,0.37665 -1.088791,0.53263 -0.158442,0.20807 -0.364436,0.38735 -0.475314,0.62421 -0.174564,0.37287 -0.403422,1.70722 -0.469977,2.05115 -0.259994,1.34364 -0.515389,2.68812 -0.760815,4.03452 -0.671443,3.67683 -1.378365,7.34739 -2.19972,10.99419 -0.966154,4.38242 -1.864104,8.78185 -2.981767,13.12904 -1.052188,3.89933 -2.136083,7.81373 -3.710026,11.54006 -1.191202,2.54669 -2.487769,5.04245 -4.893594,6.64984 -1.646968,0.98531 -3.440667,1.74768 -5.349639,1.01478 0.725427,0.438 1.430948,0.91083 2.176278,1.31404 0.230225,0.12454 -0.429377,-0.30142 -0.625313,-0.47498 -0.913918,-0.80958 -1.468833,-1.90034 -1.90821,-3.0201 -0.910898,-2.51509 -1.611653,-5.10408 -1.938002,-7.7649 -0.348612,-2.83884 -0.609669,-5.68925 -0.779156,-8.54446 -0.105437,-2.9904 -0.05807,-5.98171 0.167738,-8.96654 0.245866,-3.20026 0.640683,-6.38619 0.919591,-9.58368 0.38483,-4.0461 0.842062,-8.08415 1.308657,-12.12158 0.668171,-5.64439 1.585703,-11.24931 2.657885,-16.83126 1.047299,-5.67054 2.078171,-11.34325 2.916684,-17.04953 0.454356,-2.71848 0.968428,-5.42634 1.393697,-8.14906 0,0 -1.668356,-0.91264 -1.668356,-0.91264 z" /><path
       style="fill:#000000;stroke-width:0.355415"
       id="path1699"
       d="m 92.632112,223.87115 c 2.08821,0.22391 4.174127,0.42792 6.271628,0.54278 3.8555,0.18975 7.70711,-0.15185 11.55382,-0.36817 2.97565,-0.12682 5.95047,-0.2773 8.92681,-0.38703 0.52539,-0.072 1.06424,3.4e-4 1.59029,-0.069 0.13271,-0.0174 0.38394,0.024 0.38632,-0.10976 0.003,-0.25805 -0.79624,-0.73326 -0.91479,-0.81407 0,0 0.0996,0.0404 0.0996,0.0404 v 0 c -0.55041,-0.39915 -0.95714,-0.75039 -1.62488,-0.97522 -0.66984,-0.22555 -1.45201,0.13522 -2.12692,0.0661 -2.90588,0.199 -5.81207,0.39196 -8.72129,0.53715 -3.82938,0.23818 -7.66843,0.52863 -11.507046,0.35721 -1.994697,-0.15212 -4.02727,-0.52933 -6.024307,-0.30156 0,0 2.090784,1.48101 2.090784,1.48101 z" /><path
       style="fill:#000000;stroke-width:0.355415"
       id="path1705"
       d="m 114.10285,223.07697 c -0.12157,1.14239 -0.12977,2.28693 -0.11386,3.43454 0.0361,1.61432 -0.0405,3.21423 0.14022,4.82192 0.1576,1.22297 0.34238,2.44162 0.53472,3.65942 0.19897,1.33251 0.3988,2.66489 0.60514,3.9963 0.20925,1.38703 0.53171,2.75351 0.82543,4.12435 0.24587,1.06927 0.38956,2.15678 0.49709,3.24737 0.0485,0.98958 9.5e-4,1.98375 -0.0262,2.97424 -0.0405,1.17265 0.0456,2.34338 0.1479,3.51059 0.0887,1.07965 0.266,2.14788 0.46297,3.21209 0.19509,1.05724 0.41341,2.10962 0.65576,3.157 0.22412,0.93448 0.48188,1.86021 0.71281,2.79303 0.21639,0.99094 0.49353,1.9659 0.77528,2.93969 0.35419,1.26792 0.75584,2.52223 1.25465,3.74079 0.42593,0.98128 1.01456,1.87795 1.66853,2.72025 1.31069,1.42465 3.12553,2.42011 4.91341,3.09674 0.9234,0.31997 1.87523,0.47445 2.84969,0.46192 1.10818,-0.0315 2.16077,-0.28315 3.15978,-0.75319 1.04846,-0.56521 1.99503,-1.28577 2.8871,-2.06962 0.87127,-0.76577 1.54327,-1.69719 2.16023,-2.6701 0.69597,-1.09367 1.06109,-2.32823 1.37314,-3.57337 0.37987,-1.7592 0.57775,-3.55045 0.76671,-5.33811 0.19347,-2.00931 0.28876,-4.02569 0.37614,-6.04175 0.11115,-2.1314 0.14437,-4.26447 0.10624,-6.39811 -0.0647,-2.42591 -0.16215,-4.85042 -0.18414,-7.27723 -0.002,-2.55465 0.007,-5.1092 3.6e-4,-7.66385 0.0153,-2.46542 -0.0696,-4.92875 -0.16875,-7.39164 -0.0863,-2.28123 -0.16238,-4.56291 -0.30926,-6.8412 -0.10331,-1.64554 -0.3663,-3.27357 -0.53444,-4.91278 -0.20209,-1.47786 -0.29345,-2.96657 -0.40977,-4.45262 -0.0859,-1.12027 -0.2516,-2.2311 -0.33272,-3.35145 -0.16705,-0.9276 -0.2468,-1.86362 -0.34125,-2.80047 -0.10612,-0.9185 -0.1838,-1.83933 -0.32199,-2.75377 -0.21586,-0.95805 -0.36847,-1.92835 -0.53302,-2.89616 -0.14048,-0.91401 -0.29573,-1.82163 -0.53617,-2.71499 -0.1991,-0.74959 -0.4045,-1.4974 -0.60919,-2.24547 -0.31931,-0.85194 -0.37004,-1.76551 -0.46023,-2.66232 -0.11526,-1.1872 -0.10906,-2.3821 -0.15817,-3.57337 -0.03,-1.02085 -0.21816,-2.02676 -0.35156,-3.03703 0.0571,-1.2666 -0.83686,-1.34587 -1.25636,-2.27804 0,0 -0.0964,-0.0473 -0.0964,-0.0473 v 0 c -0.14211,0.47698 0.0639,0.0429 -0.63901,0.23219 -0.44626,0.12009 -0.18618,0.74761 -0.17813,1.02367 0.1364,1.00817 0.32837,2.01084 0.38089,3.02827 0.0596,1.17305 0.13286,2.34816 0.0471,3.52216 0.0212,0.86797 0.14338,1.72671 0.20493,2.59199 0.17691,0.75719 0.40357,1.502 0.60834,2.252 0.25135,0.87671 0.43613,1.75789 0.50943,2.66923 0.15437,0.94382 0.33467,1.88374 0.41815,2.83761 0.15189,0.90564 0.2147,1.81939 0.31332,2.73176 0.0968,0.89088 0.14298,1.77365 0.0961,2.6691 0.0922,1.10842 0.11584,2.2211 0.27364,3.32413 0.13055,1.46316 0.19783,2.93027 0.28804,4.39627 0.1437,1.63466 0.34419,3.26236 0.51568,4.89408 0.17643,2.28047 0.27569,4.56529 0.35472,6.85107 0.0835,2.45924 0.18297,4.91876 0.17137,7.37995 0.0106,2.5569 0.003,5.11387 0.0106,7.67077 0.003,2.41745 0.0654,4.83327 0.11982,7.25002 0.0459,2.13282 0.0717,4.26525 -0.0634,6.39618 -0.0813,2.01797 -0.20489,4.03279 -0.33486,6.04809 -0.10074,1.78316 -0.29926,3.55869 -0.71981,5.29829 -0.31125,1.20618 -0.68403,2.3998 -1.35617,3.46117 -0.58983,0.94825 -1.24756,1.85278 -2.08805,2.59811 -0.86879,0.76086 -1.78732,1.47223 -2.82549,1.98995 -0.96044,0.41571 -1.96497,0.68337 -3.02024,0.67162 -0.9542,-0.0364 -1.89253,-0.21338 -2.7827,-0.56891 -1.27542,-0.56812 -0.43119,-0.2092 2.09601,1.28223 0.11876,0.07 -0.24352,-0.12962 -0.36078,-0.2021 -0.24422,-0.15105 -0.44856,-0.30485 -0.66116,-0.49833 -0.10893,-0.0991 -0.20919,-0.20744 -0.31379,-0.31117 -0.68108,-0.8153 -1.28096,-1.70269 -1.75077,-2.65698 -0.52344,-1.19008 -0.92763,-2.42156 -1.23336,-3.6857 -0.27195,-0.97139 -0.5898,-1.93079 -0.77666,-2.92432 -0.21413,-0.93697 -0.47648,-1.86142 -0.71124,-2.79333 -0.2612,-1.04191 -0.49145,-2.09034 -0.67475,-3.14903 -0.21018,-1.05459 -0.39625,-2.11419 -0.48566,-3.18706 -0.1108,-1.15295 -0.20332,-2.31026 -0.15591,-3.46966 0.033,-1.0253 0.0982,-2.04873 -0.0662,-3.06802 -0.11268,-1.11499 -0.28934,-2.22121 -0.54354,-3.31333 -0.32993,-1.38218 -0.74587,-2.74657 -0.94346,-4.15763 -0.20044,-1.32692 -0.38109,-2.65656 -0.57469,-3.98448 -0.20757,-1.24325 -0.5123,-2.46672 -0.67838,-3.71707 -0.22003,-1.6698 -0.55733,-3.3309 -0.59718,-5.01754 -7.2e-4,-1.19701 0.0677,-2.39353 -0.15871,-3.57751 0,0 -1.84479,-0.93396 -1.84479,-0.93396 z" /><path
       style="fill:#000000;stroke-width:0.355415"
       id="path1707"
       d="m 68.201735,258.51196 c 2.610094,1.84375 5.287669,3.07093 8.327391,3.91503 1.410513,0.34605 2.843784,0.61137 4.293007,0.72642 0.851502,0.0675 1.33778,0.13724 2.124819,-0.12494 0.207179,-0.0691 0.386274,-0.2038 0.579411,-0.3057 0.202606,-0.0589 0.405214,-0.11768 0.607817,-0.1766 0,0 -0.08714,-0.0629 -0.08714,-0.0629 v 0 c -0.340113,-0.0412 -0.680219,-0.0826 -1.020326,-0.12386 -1.005814,-0.22212 -1.855909,-0.43188 -2.879191,-0.56897 -1.862537,-0.24946 -3.761464,-0.29086 -5.571644,-0.86781 -1.313514,-0.38965 -1.580719,-0.4286 -2.827424,-0.95325 -0.396629,-0.16692 -1.353247,-0.93546 -1.169703,-0.54624 0.213323,0.45237 0.858324,0.51389 1.280737,0.78169 0.377766,0.2395 -1.314826,-0.77653 -1.14644,-0.6973 0,0 -2.511315,-0.9956 -2.511315,-0.9956 z" /><path
       style="fill:#000000;stroke-width:0.355415"
       id="path1709"
       d="m 120.76017,262.08779 c 0.29551,0.0521 0.58744,0.13218 0.88655,0.15645 0.50829,0.0412 2.20833,-0.0171 2.61592,-0.0356 1.21946,-0.0557 2.73948,-0.14139 3.932,-0.34835 0.67398,-0.11701 1.33198,-0.31225 1.99797,-0.46837 2.04999,-1.21347 0.92203,-0.76348 3.41247,-1.27591 0,0 -0.0882,-0.0614 -0.0882,-0.0614 v 0 c -2.88142,0.59246 -1.27165,0.42727 -4.84785,0.25704 -2.25407,0.0536 -4.50768,0.17084 -6.76231,0.18954 -0.88879,0.007 -1.77945,-0.0739 -2.6664,-0.0164 -0.17325,0.0106 -0.33872,0.0763 -0.50808,0.11443 0,0 2.02794,1.48853 2.02794,1.48853 z" /><path
       style="fill:#000000;stroke-width:0.355415"
       id="path1711"
       d="m 74.84258,208.28973 c 2.30392,0.59311 4.71747,0.68355 7.079339,0.90184 5.656953,0.58285 11.297846,1.2545 16.976154,1.59422 6.076287,0.31881 12.187777,0.0106 18.198597,-0.94884 1.24737,-0.19912 2.48244,-0.46875 3.72365,-0.70314 4.76066,-1.36606 2.32339,-0.7551 7.31569,-1.81752 0,0 -0.0882,-0.0614 -0.0882,-0.0614 v 0 c -5.21512,1.10956 -2.51151,0.67588 -8.11846,1.25264 -7.38302,0.95964 -14.79413,1.9862 -22.260022,1.37316 -5.790254,-0.40641 -11.540602,-1.12959 -17.299767,-1.84211 -2.416298,-0.28353 -4.84961,-0.50698 -7.222673,-1.0639 0,0 1.695723,1.31496 1.695723,1.31496 z" /><path
       style="fill:#000000;stroke-width:0.355415"
       id="path1713"
       d="m 59.711648,204.37982 c 0.951273,0.20174 1.792903,0.72853 2.770082,0.83742 0.233827,0.0261 0.475241,-0.0373 0.70576,0.009 0.418689,0.0855 0.815393,0.25608 1.223093,0.3841 0,0 -0.08498,-0.0657 -0.08498,-0.0657 v 0 c -0.407616,-0.12816 -0.828674,-0.21949 -1.222845,-0.38442 -1.922517,-0.80443 -3.679635,-2.07938 -5.741446,-2.5252 0,0 2.350337,1.74411 2.350337,1.74411 z" /><path
       style="fill:#000000;stroke-width:0.355415"
       id="path1715"
       d="m 145.37653,202.86238 c 0.80424,-0.0106 1.92235,-0.42579 2.32349,-1.18966 0.19652,-0.37423 0.0834,-0.86924 0.30046,-1.23192 0.22794,-0.38088 0.65187,-0.60265 0.97781,-0.90399 0,0 -0.0909,-0.0573 -0.0909,-0.0573 v 0 c -0.3993,0.25437 -0.74891,0.61295 -1.19792,0.76312 -0.58022,0.19407 -1.22128,0.1149 -1.81892,0.24592 -0.893,0.19579 -1.68067,0.77986 -2.61525,0.82629 0,0 2.12123,1.54759 2.12123,1.54759 z" /></g></svg>
